<svg width="92" height="96" xmlns="http://www.w3.org/2000/svg" xmlns:xlink="http://www.w3.org/1999/xlink" xml:space="preserve" overflow="hidden"><g transform="translate(299 -362)"><path d="M-278.501 362-278.551 362C-279.541 363.209-280.37 364.668-281.04 366.377-281.709 368.086-282.209 370.044-282.558 372.253L-282.958 375.75C-283.318 380.666-283.048 386.592-282.129 393.517-279.551 407.277-277.402 416.35-275.663 420.767-273.575 427.162-271.187 432.868-268.509 437.875-269.048 438.404-271.137 439.224-274.764 440.323-276.623 440.992-283.588 442.821-295.669 445.819-298.317 446.898-299.276 447.957-298.567 448.987-298.357 449.476-297.448 450.116-295.849 450.905-295.269 451.305-291.952 452.614-285.896 454.832-283.348 455.822-279.651 456.671-274.804 457.39-271.556 457.6-269.268 457.44-267.939 456.901-265.481 455.622-263.642 454.313-262.413 452.964-261.584 452.534-260.834 452.304-260.165 452.274-252.261 454.562-243.797 455.532-234.773 455.182-230.177 454.712-227.019 454.213-225.31 453.703-217.906 450.356-212.35 448.297-208.632 447.558-207.873 447.258-207.433 446.878-207.293 446.438-207.143 445.909-207.843 445.199-209.412 444.3L-221.423 439.224C-222.332 438.574-222.832 437.775-222.942 436.805-223.022 436.256-222.862 435.446-222.452 434.387-218.895 427.612-216.816 423.195-216.227 421.117-214.028 413.772-213.049 409.365-213.289 407.907-213.479 407.317-214.098 407.357-215.148 408.016-223.302 415.051-228.688 419.368-231.296 420.957-233.364 422.386-234.983 422.676-236.172 421.816-236.852 421.447-238.101 420.208-239.93 418.099L-266.33 385.923C-268.369 383.384-271.846 375.95-276.743 363.609-277.252 362.66-277.842 362.13-278.521 362.02"/></g></svg>