<svg width="226" height="236" xmlns="http://www.w3.org/2000/svg" xmlns:xlink="http://www.w3.org/1999/xlink" xml:space="preserve" overflow="hidden"><g transform="matrix(1 0 0 1 0 -999)"><path d="M223.509 180.129C223.349 180.174 223.178 180.223 223.017 180.273 222.697 180.367 222.376 180.461 222.045 180.549 221.846 180.605 221.636 180.66 221.437 180.721 221.144 180.798 220.851 180.887 220.552 180.964 220.337 181.019 220.116 181.08 219.9 181.135 219.607 181.218 219.314 181.29 219.021 181.373 218.8 181.428 218.568 181.489 218.347 181.544 218.049 181.622 217.761 181.693 217.457 181.771 217.22 181.832 216.977 181.887 216.739 181.948 216.446 182.02 216.159 182.091 215.866 182.163 215.617 182.224 215.363 182.285 215.114 182.34 214.821 182.412 214.528 182.484 214.241 182.55 213.981 182.611 213.721 182.666 213.461 182.727 213.163 182.793 212.876 182.86 212.577 182.926 212.317 182.987 212.047 183.042 211.781 183.103 211.483 183.169 211.184 183.235 210.88 183.302 210.615 183.363 210.339 183.418 210.068 183.473 209.77 183.539 209.466 183.606 209.156 183.672 208.885 183.727 208.603 183.788 208.327 183.843 208.018 183.91 207.714 183.97 207.399 184.037 207.122 184.092 206.835 184.147 206.558 184.208 206.249 184.269 205.934 184.335 205.624 184.396 205.332 184.451 205.044 184.507 204.751 184.573 204.442 184.634 204.132 184.694 203.823 184.755 203.524 184.811 203.226 184.866 202.922 184.927 202.612 184.987 202.297 185.043 201.988 185.103 201.678 185.159 201.374 185.214 201.07 185.275 200.755 185.33 200.44 185.391 200.125 185.446 199.816 185.501 199.512 185.562 199.197 185.612 198.871 185.667 198.55 185.722 198.224 185.783 197.915 185.839 197.605 185.894 197.296 185.944 196.97 185.999 196.643 186.06 196.317 186.115 195.997 186.17 195.682 186.225 195.361 186.275 195.041 186.33 194.715 186.38 194.383 186.441 194.062 186.491 193.736 186.551 193.41 186.601 193.084 186.651 192.753 186.706 192.421 186.762 192.095 186.811 191.769 186.867 191.437 186.916 191.106 186.966 190.774 187.021 190.437 187.071 190.1 187.121 189.768 187.176 189.425 187.226 189.099 187.276 188.768 187.325 188.436 187.375 188.093 187.425 187.745 187.48 187.403 187.53 187.071 187.574 186.745 187.629 186.413 187.679 186.065 187.729 185.711 187.778 185.358 187.834 185.026 187.883 184.689 187.928 184.357 187.983 184.004 188.033 183.65 188.088 183.296 188.132 182.97 188.182 182.633 188.226 182.301 188.276 181.942 188.326 181.572 188.381 181.213 188.431 180.887 188.475 180.555 188.519 180.223 188.563 179.853 188.613 179.488 188.663 179.112 188.712 178.781 188.757 178.449 188.801 178.118 188.845 177.742 188.895 177.366 188.945 176.99 188.994 176.664 189.033 176.338 189.077 176.006 189.121 175.625 189.171 175.238 189.221 174.857 189.265 174.531 189.309 174.21 189.348 173.884 189.387 173.492 189.431 173.099 189.486 172.701 189.53 172.386 189.569 172.066 189.613 171.745 189.646 171.342 189.696 170.938 189.746 170.535 189.796 170.22 189.834 169.905 189.873 169.595 189.906 169.181 189.95 168.761 190.006 168.346 190.055 168.042 190.094 167.738 190.127 167.429 190.16 167.003 190.21 166.578 190.26 166.158 190.31 165.854 190.343 165.555 190.376 165.251 190.415 164.815 190.464 164.378 190.514 163.936 190.558 163.654 190.592 163.372 190.619 163.09 190.652 162.632 190.702 162.167 190.757 161.703 190.802 161.443 190.829 161.184 190.857 160.924 190.89 160.437 190.94 159.951 190.995 159.465 191.045 159.233 191.067 158.995 191.089 158.757 191.122 158.243 191.172 157.735 191.227 157.221 191.282 157.011 191.305 156.801 191.327 156.591 191.349 156.049 191.404 155.502 191.459 154.955 191.515 154.839 191.531 154.717 191.537 154.601 191.548 148.035 192.205 141.348 192.802 134.616 193.349 134.566 193.355 134.522 193.361 134.478 193.361 133.765 193.416 133.058 193.471 132.345 193.526 132.289 193.532 132.234 193.537 132.179 193.543 131.499 193.593 130.808 193.653 130.128 193.703 130.04 193.703 129.946 193.72 129.858 193.72 129.172 193.769 128.487 193.825 127.807 193.874 127.724 193.88 127.647 193.891 127.564 193.897 126.895 193.946 126.227 193.996 125.552 194.046 125.442 194.057 125.337 194.062 125.232 194.068 124.58 194.112 123.916 194.162 123.264 194.212 123.148 194.223 123.026 194.234 122.91 194.234 122.269 194.283 121.623 194.328 120.982 194.372 120.854 194.383 120.722 194.388 120.595 194.4 119.931 194.449 119.274 194.493 118.611 194.538 118.511 194.538 118.412 194.554 118.312 194.554 117.643 194.604 116.969 194.643 116.3 194.692 116.201 194.692 116.101 194.709 116.002 194.709 115.322 194.759 114.653 194.797 113.974 194.842 113.885 194.847 113.791 194.858 113.703 194.864 113.034 194.902 112.365 194.947 111.708 194.991 111.603 194.991 111.498 195.007 111.387 195.007 110.713 195.052 110.044 195.096 109.375 195.135 109.287 195.14 109.198 195.146 109.11 195.157 108.441 195.195 107.773 195.24 107.098 195.278 106.999 195.284 106.905 195.295 106.805 195.3 106.126 195.339 105.451 195.383 104.766 195.422 104.689 195.428 104.617 195.433 104.539 195.439 103.865 195.483 103.18 195.521 102.5 195.555 102.412 195.56 102.329 195.566 102.24 195.571 101.549 195.615 100.853 195.654 100.162 195.687 100.118 195.687 100.074 195.687 100.029 195.698 99.311 195.743 98.598 195.781 97.874 195.82 97.8409 195.82 97.8132 195.825 97.7801 195.825 97.0561 195.87 96.3321 195.908 95.6081 195.942 95.5859 195.942 95.5583 195.947 95.5307 195.947 94.8011 195.986 94.0716 196.024 93.3476 196.063L93.331 196.063C93.1542 196.074 92.9828 196.085 92.806 196.091L90.855 191.249C90.1863 189.58 89.4954 187.911 88.8101 186.248L87.8761 183.965C86.9531 181.716 85.997 179.383 84.9911 177.123L84.7976 176.681C84.3997 175.796 83.9907 174.873 83.6094 173.956 83.5873 173.414 83.5707 172.867 83.5486 172.32 83.5099 171.447 83.4712 170.568 83.4325 169.689L82.9351 169.75 82.9351 169.711 82.913 169.253 202.424 154.612C203.176 154.518 203.729 153.855 203.685 153.098 201.977 123.8 193.438 97.6861 178.322 75.4905 166.229 57.7384 149.936 42.4513 129.88 30.0492 99.4271 11.2139 68.9523 4.75857 63.1547 3.66427L62.8231 3.60347C62.8231 3.60347 62.7734 3.36029 62.7236 3.07843 62.8784 3.10606 63.0552 3.13922 63.2487 3.17791 63.1381 2.59207 63.0718 2.23835 63.0442 2.11676 63.0442 2.10018 63.0442 2.0836 63.0331 2.07808 62.8342 1.02798 61.8172 0.342661 60.7671 0.541626 59.717 0.740591 59.0317 1.75752 59.2307 2.80761 59.2307 2.81867 59.2417 2.8463 59.2473 2.88499 59.2473 2.89604 59.2528 2.9071 59.2528 2.91815 59.2694 3.00105 59.2915 3.14475 59.3302 3.33266 59.3357 3.35477 59.3412 3.37135 59.3467 3.39898 59.4518 3.94613 59.6286 4.88569 59.8663 6.1679 59.8994 6.36134 59.9436 6.56583 59.9768 6.77585 59.8994 6.87533 59.8442 6.98587 59.7944 7.09641 57.744 12.3634 9.61663 136.578 7.92543 179.654 7.90885 180.096 8.09123 180.522 8.42284 180.798L8.46705 180.831 8.79313 181.08 8.63286 181.439C8.37862 182.02 8.0857 182.672 7.84805 183.318 7.218 185.054 6.64874 186.679 6.10711 188.292L5.63181 189.713C5.24493 190.868 4.85805 192.023 4.48776 193.178L3.66979 195.754C3.58689 196.002 3.49846 196.257 3.41003 196.516 3.21107 197.097 2.99552 197.699 2.90157 198.268 2.87393 198.429 2.87946 198.583 2.9292 198.716L2.97894 198.871C2.80209 198.871 2.62523 198.871 2.4539 198.871 1.85148 198.876 1.35959 198.882 0.978243 198.882L0 198.882C0 198.882 16.1493 228.295 30.5466 232.496 43.1919 236.182 161.93 238.492 189.53 227.698 217.126 216.905 224.924 179.72 224.924 179.72 224.46 179.864 223.984 180.002 223.509 180.146ZM79.6135 170.568C79.6246 170.734 79.6301 170.894 79.6356 171.06 79.829 175.387 79.9838 179.693 80.0999 183.97L80.0999 183.987C80.1551 186.12 80.2049 188.248 80.2436 190.371L80.2436 190.382C80.2822 192.504 80.3044 194.615 80.3209 196.715L80.3154 196.715C78.4142 196.804 76.524 196.887 74.6615 196.964L74.656 196.964C74.4846 196.975 74.3244 196.975 74.1586 196.981L74.1586 196.92C74.1862 196.649 74.2028 196.373 74.2249 196.096 74.247 195.726 74.2746 195.361 74.3078 195.002L74.6725 191.327C74.7554 190.536 74.8328 189.746 74.9102 188.956 75.0815 187.287 75.2584 185.557 75.4021 183.865 75.5403 182.263 75.6729 180.654 75.8055 179.052L76.0156 176.515C76.1206 175.293 76.209 174.072 76.2974 172.845L76.3361 172.314C76.3637 171.95 76.3859 171.585 76.408 171.22L76.4301 170.784 76.8667 170.75C77.8173 170.679 78.7403 170.623 79.6246 170.579ZM84.2892 178.958C84.9745 180.848 85.7261 182.782 86.3838 184.49L87.1686 186.535C87.8484 188.298 88.5227 190.061 89.2135 191.819L90.9269 196.196C90.7555 196.207 90.5787 196.218 90.4073 196.223 88.3182 196.334 86.2401 196.433 84.1786 196.527 84.1676 195.101 84.1565 193.664 84.1344 192.228L84.1344 192.189C84.1178 190.757 84.0902 189.326 84.057 187.883L84.057 187.845C83.9963 184.954 83.9134 182.047 83.8194 179.129L83.8194 179.129C83.8194 179.096 83.8194 179.074 83.8139 179.041L84.2836 178.958ZM83.2999 120.445C83.5541 130.162 83.3551 139.69 82.7085 148.776L82.2111 148.776C82.2111 148.776 82.2111 148.748 82.2111 148.737 82.1061 147.284 82.0011 145.825 81.8905 144.371L81.8905 144.36C81.7855 142.912 81.6695 141.458 81.5534 140.016L81.5534 139.999C81.4373 138.551 81.3158 137.109 81.1997 135.666L81.1997 135.666C81.0781 134.218 80.9565 132.776 80.8294 131.339L80.8294 131.328C80.7023 129.891 80.5752 128.459 80.4425 127.028L80.4425 127.006C80.0501 122.711 79.6301 118.445 79.1935 114.228 79.1935 114.217 79.1935 114.211 79.1879 114.2 79.0443 112.802 78.895 111.404 78.7513 110.022 78.7513 110.011 78.7458 109.994 78.7458 109.989 78.5966 108.602 78.4473 107.214 78.2981 105.844L78.2981 105.822C78.1434 104.445 77.9886 103.075 77.8394 101.704 77.8394 101.693 77.8394 101.682 77.8394 101.665 77.6847 100.306 77.5299 98.9518 77.3752 97.6088 77.3696 97.5867 77.3696 97.5645 77.3641 97.5424 77.2093 96.2049 77.0546 94.873 76.8943 93.5521 76.8943 93.53 76.8943 93.5134 76.8833 93.4913 76.723 92.1649 76.5682 90.8495 76.408 89.5396 76.4024 89.5175 76.4024 89.5009 76.3969 89.4788 76.2366 88.18 76.0764 86.8812 75.9161 85.5935 75.9106 85.5603 75.905 85.5272 75.8995 85.494 75.7392 84.2118 75.5789 82.9351 75.4131 81.6695 75.4076 81.6474 75.4076 81.6308 75.4021 81.6087 75.2363 80.332 75.076 79.0719 74.9102 77.8173 74.9047 77.7952 74.9047 77.7731 74.8991 77.751 74.7333 76.4964 74.5731 75.2529 74.4073 74.0259 74.4017 73.9983 74.4017 73.9762 74.3962 73.9485 74.2304 72.7216 74.0646 71.5002 73.8988 70.2953 73.8933 70.2677 73.8877 70.2345 73.8822 70.2069 73.7164 69.0076 73.5561 67.8193 73.3903 66.6421 73.3903 66.5924 73.3737 66.5537 73.3737 66.5039 73.2135 65.3378 73.0477 64.1772 72.8874 63.0276 72.8874 62.9889 72.8763 62.9502 72.8708 62.9115 72.705 61.7564 72.5503 60.6124 72.3845 59.4794 72.3789 59.4573 72.3734 59.4296 72.3734 59.402 72.2076 58.2635 72.0528 57.136 71.8815 56.0251 71.8815 55.9975 71.8705 55.9754 71.8649 55.9422 71.7047 54.8258 71.5444 53.726 71.3786 52.6427 71.3786 52.6151 71.3786 52.593 71.3675 52.5709 71.2072 51.4876 71.047 50.4099 70.8867 49.3488 70.8867 49.3211 70.8756 49.2935 70.8701 49.2659 70.7098 48.2047 70.5551 47.1602 70.3948 46.1266 70.3948 46.1045 70.3948 46.088 70.3838 46.0658 70.2235 45.0268 70.0687 44.0044 69.914 42.9985 69.9084 42.9764 69.9084 42.9598 69.9029 42.9432 69.7482 41.9318 69.5934 40.937 69.4442 39.9643 69.4442 39.9422 69.4442 39.9256 69.4331 39.909 69.2839 38.9363 69.1292 37.9801 68.9799 37.0351 68.9799 37.0074 68.9689 36.9743 68.9634 36.9466 68.8141 36.0071 68.6649 35.0731 68.5212 34.1611 68.5212 34.1501 68.5157 34.139 68.5157 34.128 68.3665 33.205 68.2172 32.2986 68.0791 31.4088 68.0791 31.3977 68.0791 31.3922 68.0791 31.3812 67.9299 30.4913 67.7917 29.6126 67.648 28.7504 67.6425 28.7393 67.6425 28.7283 67.6369 28.7172L68.1233 28.6067C79.6356 66.5426 82.703 99.4879 83.2557 120.451ZM59.7834 5.5268C59.5678 4.96859 59.6341 4.34406 59.9381 3.8356 60.0431 4.3938 60.1813 5.13439 60.3526 6.07395L60.4024 6.35029 60.1923 6.53267C60.1923 6.53267 60.1758 6.54925 60.1702 6.55478 60.0376 6.21765 59.9105 5.87498 59.7834 5.5268ZM61.2203 16.4312 61.7012 16.4201C61.7012 16.4201 61.7122 16.4699 61.7177 16.4975 61.7177 16.5085 61.7177 16.5141 61.7177 16.5196 61.7841 16.8844 61.8449 17.2547 61.9112 17.6415 61.9222 17.6802 61.9278 17.7244 61.9333 17.7687 62.1488 18.979 62.3644 20.2668 62.591 21.6042 62.5965 21.6319 62.602 21.654 62.6076 21.6761 62.6794 22.0961 62.7512 22.5162 62.8231 22.9473 62.8342 23.0025 62.8452 23.0523 62.8507 23.1131 62.9226 23.5331 62.9944 23.9531 63.0663 24.3787 63.0663 24.4229 63.0773 24.4616 63.0829 24.5003 63.3205 25.9096 63.5637 27.3742 63.8124 28.8996 63.829 28.9936 63.8456 29.0875 63.8621 29.1815 63.9285 29.596 63.9948 30.016 64.0722 30.4416 64.0832 30.5411 64.1053 30.6295 64.1164 30.7345 64.3706 32.2875 64.6304 33.8903 64.8901 35.5484 64.9067 35.6423 64.9178 35.7363 64.9399 35.8302 65.0172 36.3 65.0891 36.7698 65.1665 37.2506 65.183 37.3446 65.1941 37.444 65.2162 37.538 65.2991 38.0575 65.382 38.5881 65.4649 39.1187 65.4704 39.1574 65.476 39.1905 65.487 39.2292 65.6694 40.4064 65.8573 41.6002 66.0452 42.8161 66.0563 42.8935 66.0673 42.9653 66.0784 43.0427 66.1558 43.5456 66.2331 44.0541 66.3105 44.5681 66.3326 44.7007 66.3547 44.8389 66.3713 44.9771 66.4542 45.4911 66.5316 46.0106 66.6089 46.5301 66.6255 46.6185 66.6311 46.6959 66.6476 46.7788 66.8411 48.0334 67.029 49.3101 67.228 50.6033 67.239 50.6697 67.2501 50.736 67.2556 50.7968 67.3385 51.3605 67.4269 51.9353 67.5098 52.5101 67.5319 52.6317 67.5485 52.7533 67.5651 52.8749 67.648 53.411 67.7254 53.9526 67.8027 54.4942 67.8249 54.6158 67.8414 54.7374 67.858 54.859 68.0514 56.1965 68.2449 57.545 68.4438 58.9101 68.4438 58.9156 68.4438 58.9212 68.4494 58.9322 68.5433 59.5899 68.6373 60.2531 68.7368 60.9219 68.7589 61.0379 68.7699 61.1595 68.7865 61.2811 68.8694 61.8504 68.9468 62.4252 69.0297 62.9944 69.0518 63.1271 69.0684 63.2652 69.085 63.4034 69.1734 64.0279 69.2563 64.6525 69.3447 65.2825 69.3558 65.3433 69.3668 65.3986 69.3668 65.4594 69.5658 66.8798 69.7648 68.3167 69.9582 69.7648 69.9748 69.8808 69.9913 69.9969 70.0079 70.1129 70.0908 70.7209 70.1737 71.3344 70.2566 71.9478 70.2787 72.0805 70.2953 72.2131 70.3064 72.3402 70.3948 72.9814 70.4832 73.6225 70.5661 74.258 70.5827 74.3465 70.5882 74.4349 70.6048 74.5178 70.8038 76.01 71.0028 77.5188 71.2017 79.0387 71.2128 79.105 71.2183 79.1714 71.2294 79.2377 71.3178 79.9175 71.4117 80.6028 71.5002 81.2936 71.5112 81.4097 71.5278 81.5258 71.5444 81.6474 71.6273 82.2995 71.7157 82.9517 71.7931 83.6149 71.8041 83.7254 71.8207 83.847 71.8318 83.9576 72.1247 86.2678 72.4176 88.6056 72.6995 90.9711 72.7161 91.0761 72.7271 91.1921 72.7382 91.2972 72.8211 91.9825 72.904 92.6733 72.9869 93.3642 73.0035 93.4692 73.0145 93.5797 73.0256 93.6903 73.1195 94.4585 73.208 95.2322 73.2964 96.006 73.2964 96.017 73.3019 96.0226 73.3019 96.0336 73.4953 97.664 73.6833 99.311 73.8712 100.969 73.8822 101.035 73.8877 101.096 73.8933 101.162 73.9817 101.898 74.0646 102.633 74.142 103.379 74.1586 103.495 74.1696 103.616 74.1807 103.727 74.2691 104.473 74.352 105.225 74.4294 105.976 74.4294 106.032 74.4459 106.087 74.4459 106.142 74.6283 107.811 74.8162 109.497 74.9931 111.183 74.9931 111.221 75.0042 111.265 75.0097 111.299 75.0871 112.072 75.1755 112.852 75.2529 113.625 75.2694 113.747 75.275 113.869 75.2915 113.99 75.3689 114.731 75.4408 115.46 75.5182 116.201 75.5292 116.295 75.5403 116.383 75.5458 116.477 75.8 118.992 76.0487 121.529 76.2864 124.071 76.2974 124.182 76.3085 124.303 76.3195 124.414 76.3914 125.154 76.4632 125.906 76.5296 126.647 76.5406 126.752 76.5517 126.862 76.5572 126.967 76.7948 129.526 77.0214 132.096 77.237 134.671 77.248 134.76 77.2536 134.848 77.2591 134.937 77.3254 135.705 77.3862 136.468 77.4525 137.241 77.4636 137.352 77.4746 137.468 77.4802 137.579 77.5465 138.374 77.6128 139.176 77.6736 139.977 77.6791 140.027 77.6847 140.071 77.6847 140.121 77.8284 141.873 77.9555 143.619 78.0881 145.377 78.0881 145.421 78.0881 145.471 78.0992 145.521 78.16 146.316 78.2152 147.112 78.276 147.903 78.2871 148.035 78.2926 148.168 78.3036 148.295 78.3534 149.047 78.4142 149.804 78.4639 150.555 78.4639 150.66 78.4805 150.754 78.4805 150.859 78.6021 152.611 78.7182 154.358 78.8287 156.104 78.8287 156.126 78.8287 156.149 78.8287 156.171L78.3534 156.265C75.4242 147.615 71.1464 133.82 67.4324 117.196 61.8006 91.9935 56.1523 54.0465 61.2093 16.4312ZM4.29432 198.639C4.52645 198.08 4.7033 197.472 4.87463 196.881 4.9299 196.688 4.98517 196.494 5.04597 196.306L5.81972 193.725C6.19001 192.498 6.5382 191.26 6.88639 190.022L7.26774 188.674C7.74857 186.983 8.20729 185.28 8.63838 183.6 8.82077 182.882 8.97552 182.147 9.11369 181.511L9.19106 181.163 9.54478 181.119 9.65531 181.108C10.0643 181.025 50.8742 172.828 75.5016 170.839L76.1427 170.789 76.0321 171.419C75.9879 171.684 75.9437 171.95 75.905 172.215 75.8663 172.442 75.8332 172.663 75.7945 172.878 75.5845 174.089 75.3966 175.299 75.2086 176.509L74.8439 178.913C74.5952 180.538 74.3409 182.174 74.1033 183.799 73.8546 185.479 73.6169 187.187 73.3959 188.851 73.2853 189.63 73.1803 190.415 73.0753 191.194L72.5668 194.869C72.5171 195.234 72.4563 195.604 72.39 195.98 72.3292 196.345 72.2684 196.704 72.2187 197.069 72.0473 197.069 71.8815 197.086 71.7157 197.091 70.8204 197.13 69.9361 197.163 69.0573 197.196 68.8805 197.202 68.7091 197.213 68.5378 197.218 67.7419 197.251 66.9461 197.279 66.1558 197.312 66.0673 197.312 65.9734 197.323 65.8849 197.323 64.973 197.356 64.0666 197.395 63.1713 197.428 63.1215 197.428 63.0718 197.428 63.0221 197.428 62.193 197.461 61.3751 197.489 60.5626 197.522 60.4134 197.522 60.2697 197.533 60.126 197.533 59.3302 197.561 58.5343 197.589 57.7495 197.622 57.6832 197.622 57.6169 197.622 57.5561 197.622 56.6718 197.655 55.793 197.682 54.9253 197.71 54.8921 197.71 54.859 197.71 54.8203 197.716 54.0244 197.743 53.2396 197.765 52.4548 197.799 52.3056 197.804 52.1564 197.81 52.0072 197.815 51.2334 197.837 50.4652 197.859 49.7025 197.892 49.6583 197.892 49.6196 197.898 49.5809 197.898 48.7353 197.926 47.9063 197.948 47.0828 197.975 47.022 197.975 46.9612 197.975 46.9004 197.975 46.1653 197.997 45.4358 198.02 44.7118 198.042 44.5847 198.047 44.4576 198.053 44.336 198.053 42.7608 198.102 41.2078 198.141 39.6935 198.18 39.594 198.18 39.4945 198.18 39.395 198.191 38.7428 198.208 38.1073 198.224 37.4717 198.241 37.3225 198.241 37.1843 198.252 37.0351 198.252 36.3276 198.274 35.6202 198.29 34.9294 198.301L34.9128 198.301C34.1832 198.324 33.4648 198.34 32.7518 198.351 32.6468 198.357 32.5418 198.357 32.4423 198.362 31.8399 198.379 31.2485 198.39 30.6627 198.406 30.5411 198.412 30.4195 198.412 30.2924 198.418 28.9273 198.451 27.5898 198.478 26.291 198.506 26.2302 198.506 26.1749 198.511 26.1141 198.511 25.5449 198.528 24.9866 198.534 24.4284 198.545 24.3069 198.55 24.1853 198.55 24.0581 198.556 22.8478 198.578 21.665 198.6 20.5321 198.616 20.4105 198.616 20.2889 198.622 20.1673 198.622 19.6864 198.633 19.2111 198.644 18.7469 198.644 18.664 198.644 18.5756 198.65 18.4927 198.65 17.3984 198.666 16.3427 198.688 15.3369 198.699 15.2097 198.699 15.0826 198.699 14.9555 198.699 14.5576 198.705 14.1652 198.716 13.7783 198.721 13.6899 198.721 13.6014 198.727 13.5185 198.727 12.5569 198.744 11.645 198.755 10.7828 198.766 10.6888 198.766 10.6004 198.766 10.5009 198.766 10.1638 198.771 9.83217 198.777 9.50609 198.782 9.40661 198.782 9.30713 198.788 9.21317 198.788 8.82077 198.788 8.43942 198.799 8.08018 198.804L7.96411 198.804C7.63251 198.804 7.31195 198.815 7.00245 198.815 6.91402 198.815 6.82559 198.815 6.73716 198.821 6.44977 198.821 6.1679 198.821 5.89709 198.832L5.74234 198.832C5.41626 198.838 5.09571 198.838 4.79173 198.843 4.60382 198.843 4.42696 198.849 4.25011 198.849L4.31643 198.65Z" fill="#017F8D" transform="matrix(1.00468 0 0 1 0 999.122)"/><path d="M83.8249 179.129C83.7476 176.869 83.6591 174.597 83.5596 172.32 83.6149 172.491 83.6702 172.663 83.731 172.834 83.7531 172.884 83.7641 172.933 83.7807 172.978 83.847 173.166 83.9134 173.348 83.9797 173.53 84.4384 174.669 84.9524 175.796 85.4553 176.913 86.5054 179.256 87.4726 181.627 88.4453 183.993 89.407 186.347 90.3908 188.701 91.3358 191.056 91.8222 192.272 92.3196 193.493 92.806 194.709 92.9883 195.162 93.1707 195.61 93.3476 196.058 92.3638 196.107 91.3856 196.163 90.4018 196.212 90.3244 196.024 90.2526 195.837 90.1807 195.649 89.7054 194.427 89.2246 193.206 88.7493 191.984 87.7932 189.541 86.8591 187.099 85.9141 184.65 85.6101 183.865 85.3061 183.075 85.0021 182.29 84.9248 182.086 84.8474 181.881 84.77 181.677 84.455 180.831 84.1289 179.986 83.8194 179.123 83.8194 179.123 83.8194 179.123 83.8194 179.123ZM74.7223 195.997C74.7444 195.676 74.7665 195.361 74.7997 195.052 74.9212 193.825 75.0373 192.603 75.1644 191.376 75.4076 188.884 75.6784 186.397 75.894 183.899 76.104 181.45 76.3085 178.996 76.5074 176.548 76.6124 175.321 76.7009 174.1 76.7838 172.873 76.8004 172.696 76.8059 172.519 76.8225 172.342 76.8501 171.977 76.8722 171.607 76.8943 171.242 76.4467 171.275 75.9935 171.303 75.5403 171.342 75.485 171.668 75.4352 171.988 75.3855 172.303 75.3579 172.475 75.3358 172.635 75.3081 172.801 75.0981 174.017 74.9102 175.222 74.7168 176.437 74.3465 178.869 73.9651 181.296 73.6003 183.722 73.2356 186.187 72.915 188.657 72.5724 191.122 72.4066 192.349 72.2352 193.571 72.0639 194.797 72.0142 195.168 71.9478 195.544 71.8815 195.925 71.8152 196.306 71.7544 196.693 71.6991 197.075 72.6774 197.036 73.6611 196.997 74.6504 196.947 74.6836 196.638 74.7002 196.312 74.7278 195.997ZM4.74752 198.832C5.0736 198.064 5.27256 197.246 5.51574 196.45 5.76998 195.588 6.02974 194.731 6.28949 193.869 6.79243 192.189 7.26221 190.498 7.74304 188.806 8.22387 187.115 8.6826 185.424 9.11369 183.722 9.21317 183.329 9.3016 182.943 9.39003 182.545 9.46188 182.235 9.5282 181.92 9.59452 181.611 9.51162 181.622 9.43977 181.633 9.35687 181.633 8.92578 181.633 8.51679 181.489 8.1686 181.224 8.05254 181.489 7.93648 181.749 7.82042 182.014 7.66014 182.384 7.50539 182.755 7.37275 183.13 6.77033 184.783 6.18448 186.446 5.62628 188.121 5.09018 189.751 4.52092 191.376 4.00693 193.018 3.73611 193.874 3.45977 194.731 3.18896 195.588 2.92368 196.428 2.54785 197.296 2.40968 198.169 2.3931 198.279 2.38758 198.39 2.3931 198.495L2.3931 198.534C2.40416 198.639 2.42074 198.749 2.4539 198.849 3.10053 198.832 3.86876 198.832 4.74752 198.821ZM11.4349 177.322C21.2782 175.393 57.5782 168.484 78.7016 167.235 76.2256 160.747 69.599 142.348 64.1606 118.014 58.7443 93.8119 53.5823 59.2749 56.9205 24.1963 43.8993 59.1201 14.0602 142.238 11.4349 177.322ZM9.36239 181.638C8.9313 181.638 8.52232 181.489 8.17413 181.229 8.15203 181.207 8.12992 181.196 8.10228 181.179 7.64909 180.793 7.40038 180.223 7.42801 179.632 9.12474 136.473 57.2852 12.1866 59.3357 6.91402 59.391 6.77033 59.4628 6.64321 59.5512 6.52162 59.5623 6.50504 59.5733 6.49399 59.5844 6.47741 59.6728 6.36687 59.7612 6.26186 59.8663 6.1679 60.3029 8.50574 60.9274 12.0097 61.7122 16.503 60.3029 26.9597 59.7281 37.4385 59.7447 47.6797L59.7447 47.7847C59.7447 48.8679 59.7612 49.9512 59.7723 51.0344 59.7723 51.1118 59.7723 51.1837 59.7723 51.261 59.7889 52.3167 59.811 53.3667 59.8386 54.4113 59.8442 54.5108 59.8442 54.6048 59.8497 54.7042 59.8773 55.7377 59.916 56.7713 59.9547 57.7992 59.9602 57.8987 59.9657 57.9927 59.9713 58.0922 60.0155 59.1257 60.0597 60.1592 60.115 61.1872 60.1205 61.2645 60.126 61.3364 60.1315 61.4138 60.1868 62.4694 60.2421 63.5195 60.3084 64.564 60.3084 64.5861 60.3139 64.6083 60.3139 64.6248 60.7892 72.1468 61.5354 79.4477 62.4583 86.4004 62.4804 86.5883 62.5025 86.7762 62.5357 86.9641 62.6407 87.7324 62.7457 88.4895 62.8507 89.2522 62.8949 89.5452 62.9336 89.827 62.9723 90.1199 63.0718 90.8108 63.1713 91.4906 63.2763 92.1759 63.326 92.5241 63.3813 92.8778 63.4366 93.226 63.5361 93.8616 63.63 94.4916 63.735 95.1217 63.7958 95.5086 63.8566 95.8954 63.9174 96.2768 64.0114 96.8682 64.1108 97.454 64.2103 98.0398 64.2822 98.4544 64.354 98.8633 64.4203 99.2778 64.5143 99.8305 64.6083 100.378 64.7077 100.93 64.7851 101.367 64.8625 101.798 64.9399 102.224 65.0338 102.738 65.1278 103.257 65.2217 103.771 65.3046 104.224 65.3931 104.683 65.476 105.136 65.5644 105.606 65.6528 106.081 65.7412 106.557 65.8352 107.043 65.9292 107.513 66.0231 107.994 66.1115 108.425 66.1944 108.861 66.2773 109.287 66.3824 109.801 66.4874 110.304 66.5868 110.807 66.6697 111.194 66.7471 111.58 66.8245 111.962 66.9406 112.537 67.0621 113.095 67.1837 113.659 67.2501 113.963 67.3109 114.272 67.3772 114.57 67.5596 115.433 67.7475 116.278 67.9409 117.113 68.162 118.108 68.3886 119.091 68.6096 120.07 68.6262 120.142 68.6428 120.213 68.6594 120.28 68.8694 121.192 69.085 122.098 69.3005 122.988 69.3226 123.082 69.3392 123.17 69.3668 123.264 69.5768 124.137 69.7869 125 69.9969 125.851 70.019 125.95 70.0466 126.05 70.0743 126.149 70.2843 127 70.4998 127.84 70.7098 128.669 70.7319 128.752 70.7541 128.841 70.7762 128.929 70.9972 129.786 71.2183 130.631 71.4394 131.466 71.4559 131.516 71.467 131.571 71.4781 131.621 71.9423 133.389 72.4121 135.108 72.8763 136.772 72.8929 136.821 72.904 136.877 72.9261 136.932 73.1472 137.711 73.3627 138.485 73.5782 139.248 73.5948 139.325 73.6225 139.391 73.639 139.463 73.8546 140.204 74.0646 140.939 74.2746 141.657 74.2912 141.729 74.3133 141.79 74.3354 141.867 74.5454 142.597 74.7665 143.31 74.971 144.012 74.9876 144.061 75.0042 144.117 75.0207 144.166 75.2418 144.896 75.4574 145.609 75.6729 146.316 75.6729 146.333 75.684 146.355 75.6895 146.366 76.1371 147.825 76.5793 149.218 77.0049 150.55 77.0049 150.555 77.0049 150.567 77.0049 150.572 77.2204 151.224 77.4194 151.865 77.6294 152.484 77.6404 152.506 77.646 152.534 77.6515 152.562 77.8505 153.175 78.0439 153.772 78.2373 154.347 78.2429 154.369 78.2539 154.386 78.2594 154.408 78.4529 154.999 78.6463 155.574 78.8398 156.138 79.1548 161.128 79.4256 166.119 79.6467 171.088 78.7569 171.137 77.8449 171.193 76.8998 171.264 76.4522 171.298 75.999 171.331 75.5458 171.369L75.5347 171.369C73.6501 171.519 71.6715 171.712 69.6211 171.928 69.5824 171.933 69.5492 171.939 69.5105 171.939 69.1458 171.977 68.7865 172.022 68.4273 172.055 68.3554 172.066 68.278 172.071 68.2062 172.077 67.8525 172.116 67.4988 172.16 67.1395 172.198 67.0621 172.209 66.9848 172.215 66.9074 172.226 66.5482 172.265 66.1944 172.309 65.8352 172.353 65.7523 172.364 65.6694 172.37 65.592 172.381 65.2328 172.425 64.8735 172.469 64.5088 172.513 64.4259 172.524 64.3485 172.536 64.2656 172.541 63.9008 172.585 63.5305 172.63 63.1547 172.674 63.0884 172.685 63.0165 172.696 62.9502 172.701 62.5633 172.751 62.1709 172.801 61.7841 172.851 61.7509 172.851 61.7233 172.862 61.6901 172.867 58.1806 173.32 54.5716 173.834 50.9736 174.381 50.935 174.381 50.8907 174.398 50.8521 174.398 50.4431 174.459 50.0396 174.52 49.6362 174.58 49.5754 174.592 49.5146 174.597 49.4538 174.608 49.0503 174.669 48.6469 174.73 48.2379 174.796 48.1881 174.807 48.1329 174.813 48.0887 174.818 47.6797 174.884 47.2652 174.945 46.8562 175.012 46.812 175.023 46.7678 175.028 46.7235 175.034 46.3035 175.1 45.8779 175.166 45.4634 175.233 45.4468 175.233 45.4358 175.233 45.4192 175.233 41.8157 175.807 38.2786 176.393 34.9128 176.974L34.9017 176.974C34.5038 177.045 34.1059 177.106 33.7135 177.184 33.6748 177.184 33.6306 177.2 33.5974 177.2 33.2216 177.266 32.8513 177.333 32.481 177.394 32.4312 177.405 32.376 177.416 32.3262 177.421 31.9615 177.482 31.6022 177.548 31.243 177.609 31.1932 177.62 31.1435 177.631 31.0938 177.637 30.7235 177.703 30.3587 177.764 29.9995 177.83 29.9773 177.836 29.9552 177.841 29.9387 177.841 27.2029 178.328 24.6329 178.792 22.3117 179.217 22.284 179.217 22.2564 179.228 22.2232 179.234 21.9137 179.289 21.6098 179.345 21.3058 179.405 21.2782 179.405 21.2561 179.416 21.2229 179.416 20.93 179.466 20.6481 179.527 20.3662 179.577 20.3165 179.588 20.2723 179.593 20.2225 179.604 19.9683 179.649 19.7196 179.698 19.4709 179.748 19.3935 179.765 19.3162 179.776 19.2388 179.787 19.0122 179.831 18.7856 179.875 18.5645 179.914 18.4871 179.925 18.3987 179.947 18.3213 179.958 18.1058 180.002 17.8902 180.041 17.6802 180.08 17.5973 180.096 17.5255 180.107 17.4426 180.124 17.2436 180.163 17.0391 180.201 16.8401 180.234 16.7628 180.251 16.6909 180.262 16.6136 180.279 16.4146 180.317 16.2101 180.356 16.0167 180.389 15.978 180.4 15.9393 180.406 15.9061 180.411 14.4802 180.682 13.2643 180.92 12.3026 181.108 12.2474 181.119 12.1866 181.13 12.1313 181.141 12.0374 181.163 11.9434 181.179 11.8495 181.196 11.7666 181.213 11.6836 181.229 11.6063 181.24 11.5455 181.257 11.4792 181.268 11.4128 181.279 11.3355 181.296 11.2691 181.307 11.1973 181.323 11.1089 181.345 11.026 181.356 10.9375 181.373 10.9044 181.378 10.8767 181.389 10.8436 181.395 10.7662 181.412 10.6888 181.423 10.6225 181.434 10.5562 181.45 10.4954 181.456 10.4401 181.472 10.4125 181.478 10.3849 181.483 10.3572 181.489 10.2688 181.511 10.1969 181.522 10.1306 181.533L10.1196 181.533C10.0588 181.55 10.009 181.555 9.95929 181.566 9.94271 181.572 9.93165 181.572 9.9206 181.577 9.82112 181.594 9.76032 181.611 9.74374 181.611 9.694 181.622 9.64426 181.622 9.59452 181.627 9.5282 181.644 9.4453 181.655 9.37345 181.655ZM56.9205 24.1963C43.8993 59.1201 14.0602 142.238 11.4349 177.322 21.2782 175.393 57.5782 168.484 78.7016 167.235 76.2256 160.747 69.599 142.348 64.1606 118.014 58.7499 93.8119 53.5823 59.2749 56.9205 24.1963Z" fill="#ECB920" transform="matrix(1.00468 0 0 1 0 999.122)"/><path d="M86.6768 120.495C86.0025 94.149 81.5866 53.3778 64.6138 7.38933 73.8435 9.32923 100.903 16.0609 128.238 32.995 158.752 51.8911 195.853 87.7545 200.219 151.49L84.2726 165.693C85.2177 159.691 87.2681 143.697 86.6712 120.495ZM61.8891 2.93473C61.9278 2.93473 62.3975 3.01763 63.2431 3.17791 63.6355 3.25528 64.1164 3.34924 64.658 3.45977 64.6967 3.47083 64.7354 3.47636 64.7685 3.48188 64.868 3.49846 64.9675 3.5261 65.0725 3.54268 65.1388 3.55926 65.2051 3.57031 65.2715 3.58689 65.3599 3.60347 65.4594 3.62558 65.5533 3.64769 65.6418 3.66979 65.7247 3.68637 65.8131 3.70295 65.9071 3.71953 66.001 3.74164 66.095 3.76375 66.1889 3.78033 66.2884 3.80796 66.3824 3.82454 66.4763 3.84665 66.5703 3.86876 66.6642 3.88534 66.7748 3.91297 66.8963 3.93508 67.0179 3.96824 67.1064 3.99035 67.1893 4.00693 67.2777 4.02351 67.4214 4.05667 67.5706 4.08983 67.7143 4.12299 67.7862 4.13957 67.847 4.15615 67.9299 4.1672 68.1399 4.21695 68.3554 4.26669 68.571 4.32196 68.5986 4.32196 68.6262 4.33854 68.6594 4.33854 68.8805 4.38828 69.1071 4.44354 69.3337 4.49881 69.4 4.51539 69.4663 4.53197 69.5326 4.54303 69.715 4.58724 69.9029 4.63146 70.0964 4.67567 70.1737 4.69778 70.2622 4.71436 70.3395 4.73646 70.5164 4.77515 70.6988 4.82489 70.8812 4.86358 70.9751 4.89122 71.0691 4.91332 71.1575 4.93543 71.3344 4.97964 71.5223 5.02386 71.7047 5.06807 71.7986 5.09018 71.8926 5.11781 71.9865 5.13992 72.18 5.18414 72.3789 5.2394 72.5724 5.28914 72.6608 5.31125 72.7548 5.33336 72.8432 5.36099 73.0587 5.41626 73.2743 5.47706 73.4953 5.53232 73.5727 5.55443 73.6501 5.57654 73.7275 5.59312 73.9928 5.66497 74.2691 5.74234 74.5454 5.81419 74.5786 5.82524 74.6062 5.83077 74.6394 5.8363 75.2694 6.00763 75.9216 6.18448 76.5959 6.3724 76.6622 6.3945 76.7285 6.41108 76.7893 6.42766 77.0601 6.50504 77.3199 6.57689 77.5962 6.65426 77.6847 6.67637 77.7731 6.704 77.8615 6.73164 78.1157 6.80349 78.37 6.88086 78.6242 6.95271 78.7237 6.98034 78.8232 7.00798 78.9227 7.04114 79.1714 7.11851 79.4256 7.19036 79.6798 7.26774 79.7904 7.3009 79.8954 7.33406 80.0004 7.36169 80.2601 7.43907 80.5199 7.51644 80.7852 7.59935 80.8902 7.63251 80.9897 7.66014 81.1002 7.6933 81.3821 7.78173 81.6639 7.87016 81.9513 7.95859 82.0342 7.98622 82.1227 8.00833 82.2056 8.03596 82.5703 8.15203 82.9296 8.26256 83.2944 8.38415 83.3054 8.38415 83.3165 8.3952 83.3275 8.3952 84.1123 8.63838 84.9026 8.89814 85.7151 9.16343 85.798 9.19106 85.8754 9.21317 85.9527 9.24633 86.2678 9.35134 86.5883 9.45635 86.9089 9.56688 87.0194 9.60557 87.141 9.64426 87.2515 9.68295 87.5445 9.78243 87.8374 9.87639 88.1248 9.98139 88.2519 10.0201 88.379 10.0698 88.5116 10.1085 88.799 10.208 89.092 10.3075 89.3794 10.4125 89.5065 10.4567 89.6391 10.5009 89.7662 10.5451 90.0702 10.6501 90.3631 10.7607 90.6726 10.8657 90.7942 10.9099 90.9158 10.9541 91.0374 10.9983 91.369 11.1144 91.6951 11.236 92.0267 11.3576 92.1262 11.3963 92.2257 11.4294 92.3251 11.4681 92.7396 11.6173 93.1542 11.7666 93.5742 11.9213 93.5963 11.9268 93.6129 11.9379 93.6239 11.9434 94.0771 12.1147 94.5359 12.2805 94.9946 12.4574 95.0112 12.4574 95.0333 12.474 95.0498 12.474 95.4699 12.6343 95.8954 12.7945 96.321 12.9603 96.4371 12.999 96.5531 13.0488 96.6692 13.0875 97.0008 13.2146 97.3379 13.3472 97.6695 13.4799 97.8132 13.5351 97.9569 13.5904 98.1006 13.6512 98.4046 13.7728 98.7141 13.8944 99.0291 14.0215 99.1894 14.0878 99.3497 14.1486 99.5155 14.2149 99.8195 14.3365 100.118 14.4581 100.422 14.5797 100.588 14.646 100.742 14.7123 100.914 14.7787 101.223 14.9058 101.538 15.0384 101.848 15.1711 102.003 15.2374 102.152 15.2982 102.307 15.3645 102.649 15.5082 102.992 15.6574 103.34 15.8011 103.462 15.8509 103.589 15.9061 103.71 15.9614 104.158 16.1548 104.611 16.3483 105.059 16.5472 105.081 16.5583 105.109 16.5638 105.131 16.5804 105.617 16.7959 106.103 17.0115 106.595 17.227 106.678 17.2657 106.767 17.3044 106.855 17.3431 107.242 17.5144 107.64 17.6968 108.032 17.8737 108.187 17.9455 108.336 18.0174 108.491 18.0892 108.823 18.2384 109.143 18.3877 109.475 18.5424 109.652 18.6308 109.828 18.7082 110.005 18.7911 110.315 18.9348 110.619 19.084 110.934 19.2277 111.122 19.3162 111.304 19.4046 111.498 19.493 111.802 19.6367 112.106 19.7915 112.421 19.9352 112.608 20.0236 112.796 20.1175 112.984 20.206 113.294 20.3552 113.609 20.5099 113.913 20.6647 114.095 20.7531 114.283 20.8471 114.465 20.9355 114.803 21.1068 115.14 21.2726 115.482 21.4495 115.637 21.5324 115.792 21.6042 115.947 21.6816 116.411 21.9193 116.881 22.1569 117.35 22.4001 117.378 22.4167 117.406 22.4277 117.433 22.4443 117.936 22.7041 118.434 22.9638 118.937 23.2347 119.08 23.312 119.219 23.3894 119.362 23.4613 119.721 23.6547 120.075 23.8426 120.44 24.0416 120.622 24.141 120.81 24.2405 120.998 24.34 121.313 24.5169 121.634 24.6827 121.949 24.8651 122.148 24.9756 122.352 25.0861 122.557 25.1967 122.855 25.368 123.159 25.5338 123.469 25.7051 123.679 25.8212 123.878 25.9428 124.088 26.0588 124.392 26.2357 124.696 26.407 125 26.5784 125.21 26.6944 125.409 26.816 125.613 26.9376 125.923 27.1145 126.232 27.3024 126.542 27.4848 126.741 27.5953 126.934 27.7169 127.127 27.8274 127.465 28.0264 127.807 28.2309 128.144 28.4354 128.316 28.5349 128.481 28.6343 128.647 28.7338 129.15 29.0378 129.659 29.3473 130.162 29.6623 150.279 42.1031 166.622 57.44 178.753 75.2473 193.924 97.5203 202.485 123.717 204.204 153.103 204.265 154.126 203.524 155.01 202.507 155.137L83.4546 169.722 82.1724 169.877C82.0895 169.888 82.0177 169.894 81.9348 169.894 81.3987 169.894 80.8847 169.673 80.5199 169.28 80.0943 168.827 79.9175 168.197 80.0446 167.589 80.0667 167.479 81.3821 160.664 82.2277 148.776 82.2608 148.317 82.294 147.842 82.3216 147.367 82.3216 147.339 82.3272 147.317 82.3272 147.284 82.4156 145.941 82.493 144.537 82.5648 143.067 82.5759 142.923 82.5814 142.785 82.5869 142.636 82.609 142.243 82.6256 141.845 82.6422 141.447 82.6532 141.215 82.6588 140.978 82.6698 140.74 82.6809 140.364 82.703 139.994 82.714 139.612 82.7251 139.314 82.7361 139.01 82.7472 138.7 82.7693 138.181 82.7804 137.65 82.7969 137.12 82.8135 136.694 82.8191 136.274 82.8301 135.843 82.8412 135.545 82.8467 135.241 82.8467 134.931 82.8577 134.522 82.8688 134.113 82.8688 133.699 82.8743 133.4 82.8798 133.107 82.8854 132.803 82.8909 132.328 82.9019 131.836 82.9019 131.344 82.9019 131.107 82.9075 130.875 82.9075 130.631 82.913 129.913 82.9185 129.183 82.913 128.443L82.913 127.868C82.913 127.293 82.9075 126.713 82.9019 126.127 82.9019 125.867 82.9019 125.596 82.8909 125.331 82.8854 124.784 82.8743 124.22 82.8688 123.662 82.8633 123.413 82.8577 123.17 82.8522 122.921 82.8356 122.126 82.8191 121.313 82.8025 120.495 82.7804 119.727 82.7583 118.942 82.7306 118.152 82.7196 117.892 82.714 117.632 82.703 117.367 82.6809 116.825 82.6588 116.284 82.6422 115.737 82.6256 115.411 82.6146 115.084 82.6035 114.764 82.5814 114.261 82.5538 113.758 82.5317 113.244 82.5151 112.885 82.4985 112.537 82.4819 112.172 82.4543 111.674 82.4266 111.166 82.399 110.658 82.3769 110.293 82.3548 109.922 82.3327 109.547 82.2995 108.972 82.2553 108.386 82.2222 107.806 82.1779 107.148 82.1337 106.479 82.084 105.811 82.0508 105.341 82.0177 104.871 81.979 104.396 81.9403 103.893 81.9016 103.379 81.8574 102.87 81.8242 102.472 81.7966 102.085 81.7579 101.688 81.7082 101.14 81.6639 100.582 81.6087 100.024 81.5755 99.6647 81.5424 99.311 81.5092 98.9462 81.4539 98.3493 81.3931 97.7469 81.3379 97.139 81.3102 96.8516 81.2826 96.5642 81.2494 96.2768 80.9289 93.0602 80.542 89.7331 80.0999 86.3009 80.0833 86.1517 80.0612 86.0025 80.0391 85.8477 79.9285 85.0242 79.818 84.1952 79.7019 83.3551 79.6853 83.2114 79.6632 83.0622 79.6411 82.9185 77.3807 66.7416 73.6611 48.4258 67.7033 28.7836 65.4096 21.2174 62.7899 13.4633 59.7834 5.5489 59.5402 4.90227 59.6562 4.17826 60.0873 3.64216 60.5295 3.10053 61.2203 2.83525 61.9001 2.94578ZM64.6138 7.39485C81.5866 53.3778 85.997 94.149 86.6768 120.501 87.2736 143.697 85.2232 159.697 84.2781 165.699L200.225 151.495C195.853 87.76 158.757 51.8966 128.244 32.995 100.903 16.0609 73.8435 9.32923 64.6193 7.39485Z" fill="#E17E23" transform="matrix(1.00468 0 0 1 0 999.122)"/><path d="M80.3154 203.563C81.6031 203.519 82.8964 203.475 84.1897 203.43 86.9476 203.331 89.7054 203.231 92.4633 203.121 106.579 202.552 120.683 201.783 134.76 200.617 149.03 199.423 163.267 197.832 177.416 195.632 191.299 193.477 205.122 190.757 218.751 187.336 220.182 186.977 220.829 189.083 219.375 189.475 217.684 189.934 215.987 190.387 214.285 190.824 200.573 194.35 186.64 196.931 172.635 198.959 158.486 201.015 144.249 202.491 129.99 203.574 115.875 204.646 101.743 205.332 87.5942 205.763 86.3838 205.801 85.1735 205.823 83.9686 205.862 82.8412 205.895 81.7082 205.928 80.5807 205.956 69.306 206.266 58.0258 206.498 46.7456 206.542 39.909 206.57 33.0723 206.409 26.2302 206.249 19.7307 206.1 13.198 206.05 6.71506 205.497 6.04632 205.442 6.02421 204.48 6.71506 204.486 8.28467 204.486 9.85981 204.525 11.4294 204.569 24.8872 204.939 38.3394 204.63 51.8027 204.342 61.3198 204.138 70.8314 203.878 80.3375 203.552Z" fill="#055169" transform="matrix(1.00468 0 0 1 0 999.122)"/></g></svg>