<svg width="347" height="361" xmlns="http://www.w3.org/2000/svg" xmlns:xlink="http://www.w3.org/1999/xlink" xml:space="preserve" overflow="hidden"><defs><clipPath id="clip0"><path d="M346.028 305.047 651.081 265.366 692.712 585.409 387.659 625.09Z" fill-rule="evenodd" clip-rule="evenodd"/></clipPath><clipPath id="clip1"><path d="M346.028 305.047 651.081 265.366 692.712 585.409 387.659 625.09Z" fill-rule="evenodd" clip-rule="evenodd"/></clipPath><clipPath id="clip2"><path d="M346.028 305.047 651.081 265.366 692.712 585.409 387.659 625.09Z" fill-rule="evenodd" clip-rule="evenodd"/></clipPath><clipPath id="clip3"><path d="M346.057 305.211 651.102 265.531 692.69 585.244 387.645 624.924Z"/></clipPath></defs><g transform="translate(-346 -265)"><g clip-path="url(#clip0)"><g clip-path="url(#clip1)"><g clip-path="url(#clip2)"><g clip-path="url(#clip3)"><path d="M680.929 510.06C680.719 510.149 680.496 510.246 680.287 510.342 679.869 510.526 679.451 510.71 679.017 510.888 678.756 510.998 678.481 511.11 678.222 511.228 677.839 511.385 677.457 511.556 677.066 511.714 676.784 511.827 676.494 511.948 676.212 512.061 675.829 512.225 675.445 512.374 675.062 512.538 674.772 512.652 674.468 512.776 674.178 512.89 673.787 513.047 673.41 513.195 673.011 513.354 672.7 513.478 672.38 513.596 672.068 513.72 671.684 513.87 671.306 514.018 670.922 514.167 670.595 514.293 670.261 514.42 669.934 514.539 669.549 514.688 669.165 514.837 668.787 514.978 668.445 515.106 668.103 515.227 667.761 515.355 667.368 515.498 666.99 515.639 666.597 515.781 666.255 515.909 665.898 516.032 665.549 516.161 665.156 516.304 664.763 516.447 664.362 516.59 664.013 516.719 663.648 516.843 663.291 516.966 662.898 517.108 662.497 517.252 662.089 517.397 661.732 517.519 661.36 517.651 660.995 517.775 660.587 517.92 660.186 518.056 659.77 518.201 659.405 518.325 659.025 518.451 658.661 518.582 658.252 518.719 657.837 518.864 657.428 519.001 657.04 519.128 656.66 519.254 656.275 519.395 655.866 519.532 655.457 519.669 655.048 519.806 654.653 519.934 654.258 520.062 653.856 520.198 653.447 520.335 653.03 520.465 652.621 520.602 652.211 520.732 651.808 520.86 651.407 520.996 650.989 521.127 650.573 521.265 650.155 521.396 649.745 521.525 649.344 521.661 648.925 521.784 648.493 521.917 648.068 522.048 647.637 522.188 647.227 522.318 646.817 522.447 646.406 522.569 645.973 522.702 645.542 522.842 645.109 522.974 644.684 523.106 644.267 523.236 643.841 523.36 643.416 523.492 642.983 523.617 642.544 523.758 642.118 523.882 641.686 524.021 641.253 524.146 640.819 524.271 640.379 524.405 639.939 524.538 639.506 524.663 639.074 524.796 638.633 524.922 638.192 525.048 637.752 525.181 637.303 525.308 636.855 525.435 636.415 525.568 635.959 525.696 635.526 525.821 635.085 525.947 634.644 526.073 634.188 526.201 633.725 526.338 633.27 526.465 632.828 526.584 632.395 526.716 631.954 526.842 631.491 526.971 631.02 527.101 630.55 527.238 630.109 527.364 629.66 527.484 629.22 527.617 628.749 527.747 628.279 527.884 627.807 528.007 627.374 528.132 626.924 528.251 626.483 528.377 626.005 528.508 625.512 528.648 625.034 528.779 624.6 528.896 624.158 529.015 623.716 529.133 623.222 529.266 622.737 529.398 622.236 529.532 621.794 529.65 621.352 529.769 620.91 529.887 620.409 530.021 619.908 530.155 619.407 530.288 618.972 530.398 618.538 530.516 618.096 530.634 617.587 530.769 617.071 530.905 616.562 531.032 616.128 531.149 615.7 531.258 615.264 531.368 614.74 531.498 614.218 531.642 613.686 531.772 613.265 531.88 612.839 531.996 612.41 532.098 611.871 532.237 611.333 532.375 610.795 532.514 610.374 532.622 609.954 532.73 609.54 532.829 608.986 532.963 608.426 533.112 607.872 533.252 607.467 533.358 607.061 533.457 606.647 533.556 606.078 533.699 605.51 533.841 604.949 533.983 604.543 534.082 604.144 534.179 603.739 534.285 603.155 534.43 602.572 534.574 601.98 534.712 601.604 534.807 601.226 534.894 600.85 534.989 600.237 535.137 599.617 535.294 598.995 535.436 598.648 535.519 598.3 535.602 597.954 535.693 597.303 535.847 596.653 536.007 596.003 536.161 595.692 536.231 595.373 536.303 595.057 536.39 594.369 536.548 593.689 536.713 593.001 536.879 592.721 536.946 592.44 537.013 592.159 537.08 591.434 537.25 590.702 537.422 589.969 537.593 589.815 537.636 589.651 537.665 589.496 537.701 580.708 539.751 571.744 541.74 562.712 543.669 562.645 543.686 562.586 543.701 562.526 543.709 561.569 543.909 560.62 544.109 559.662 544.31 559.589 544.327 559.515 544.344 559.441 544.362 558.527 544.549 557.601 544.753 556.688 544.941 556.568 544.956 556.444 544.995 556.324 545.011 555.403 545.199 554.484 545.395 553.571 545.582 553.459 545.605 553.356 545.633 553.245 545.655 552.347 545.841 551.448 546.026 550.543 546.213 550.395 546.247 550.253 546.273 550.112 546.299 549.235 546.474 548.345 546.659 547.469 546.841 547.314 546.876 547.151 546.913 546.993 546.933 546.133 547.114 545.264 547.288 544.402 547.461 544.232 547.498 544.053 547.529 543.882 547.567 542.992 547.751 542.107 547.927 541.216 548.104 541.081 548.122 540.949 548.162 540.814 548.179 539.916 548.365 539.008 548.536 538.11 548.721 537.975 548.739 537.843 548.779 537.708 548.797 536.795 548.984 535.895 549.154 534.981 549.334 534.862 549.357 534.737 549.389 534.618 549.412 533.718 549.583 532.819 549.76 531.935 549.936 531.792 549.955 531.653 549.996 531.503 550.015 530.596 550.194 529.697 550.372 528.797 550.543 528.678 550.566 528.559 550.589 528.441 550.62 527.541 550.79 526.642 550.968 525.735 551.139 525.601 551.164 525.475 551.196 525.341 551.221 524.426 551.393 523.52 551.572 522.597 551.746 522.493 551.767 522.397 551.787 522.293 551.808 521.386 551.987 520.464 552.16 519.547 552.325 519.429 552.348 519.317 552.37 519.198 552.393 518.269 552.575 517.332 552.751 516.401 552.917 516.341 552.925 516.281 552.933 516.223 552.956 515.256 553.143 514.296 553.321 513.321 553.501 513.276 553.507 513.24 553.519 513.195 553.525 512.221 553.713 511.245 553.893 510.27 554.066 510.24 554.069 510.203 554.082 510.166 554.087 509.183 554.268 508.201 554.449 507.226 554.629L507.203 554.632C506.965 554.678 506.735 554.724 506.496 554.762L502.996 548.541C501.795 546.395 500.563 544.254 499.341 542.119L497.671 539.188C496.023 536.3 494.315 533.306 492.552 530.418L492.212 529.853C491.516 528.724 490.799 527.544 490.12 526.367 489.994 525.637 489.875 524.897 489.749 524.159 489.542 522.982 489.335 521.797 489.127 520.612L488.463 520.782 488.456 520.73 488.346 520.112 647.834 479.175C648.837 478.915 649.469 477.919 649.276 476.9 641.792 437.47 625.605 403.563 601.191 376.129 581.661 354.189 556.869 336.332 527.482 323.051 482.862 302.88 440.396 299.502 432.341 299.041L431.88 299.017C431.88 299.017 431.77 298.696 431.653 298.322 431.868 298.332 432.113 298.346 432.382 298.364 432.129 297.589 431.977 297.121 431.918 296.961 431.915 296.939 431.912 296.917 431.896 296.911 431.441 295.522 429.941 294.772 428.552 295.227 427.163 295.682 426.413 297.182 426.868 298.571 426.87 298.586 426.89 298.622 426.904 298.673 426.906 298.688 426.916 298.702 426.918 298.717 426.955 298.827 427.01 299.018 427.096 299.266 427.107 299.295 427.118 299.316 427.13 299.353 427.369 300.076 427.774 301.319 428.323 303.016 428.402 303.272 428.498 303.542 428.58 303.821 428.493 303.969 428.437 304.129 428.389 304.288 426.538 311.792 383.183 488.731 388.489 547.445 388.544 548.048 388.867 548.593 389.365 548.909L389.431 548.946 389.917 549.226 389.763 549.741C389.521 550.573 389.238 551.509 389.03 552.428 388.482 554.893 387.997 557.197 387.547 559.481L387.153 561.491C386.832 563.125 386.511 564.76 386.213 566.392L385.558 570.029C385.489 570.381 385.414 570.741 385.34 571.109 385.172 571.931 384.986 572.786 384.959 573.575 384.95 573.797 384.985 574.006 385.076 574.177L385.171 574.378C384.931 574.409 384.691 574.44 384.459 574.471 383.643 574.584 382.977 574.679 382.459 574.746L381.133 574.918C381.133 574.918 408.222 611.958 428.487 615.114 446.286 617.883 607.715 600.07 643.241 580.563 678.759 561.058 682.775 509.256 682.775 509.256 682.171 509.533 681.551 509.804 680.932 510.083ZM484.103 522.478C484.147 522.701 484.183 522.917 484.22 523.141 485.246 528.975 486.215 534.786 487.127 540.567L487.13 540.59C487.581 543.473 488.024 546.35 488.451 549.221L488.453 549.236C488.88 552.107 489.282 554.966 489.675 557.812L489.667 557.812C487.105 558.268 484.556 558.714 482.044 559.147L482.036 559.148C481.806 559.193 481.589 559.222 481.365 559.258L481.354 559.176C481.344 558.804 481.318 558.426 481.299 558.047 481.263 557.541 481.237 557.042 481.218 556.549L481.065 551.5C481.038 550.414 481.003 549.328 480.969 548.243 480.906 545.949 480.841 543.572 480.738 541.253 480.642 539.056 480.538 536.851 480.436 534.654L480.273 531.177C480.2 529.502 480.104 527.83 480.008 526.151L479.967 525.424C479.94 524.925 479.905 524.426 479.871 523.927L479.824 523.332 480.41 523.21C481.687 522.944 482.929 522.707 484.12 522.491ZM491.924 533.03C493.187 535.473 494.547 537.963 495.74 540.163L497.165 542.798C498.398 545.069 499.624 547.341 500.871 549.602L503.966 555.236C503.736 555.281 503.498 555.328 503.266 555.365 500.453 555.884 497.652 556.385 494.873 556.876 494.607 554.944 494.338 552.998 494.055 551.053L494.048 551C493.773 549.062 493.483 547.126 493.184 545.176L493.177 545.123C492.584 541.214 491.959 537.286 491.317 533.345L491.317 533.345C491.311 533.3 491.307 533.271 491.294 533.227L491.916 533.031ZM480.26 453.856C482.319 466.987 483.73 479.943 484.456 492.379L483.782 492.467C483.782 492.467 483.777 492.429 483.775 492.414 483.376 490.462 482.976 488.502 482.57 486.55L482.568 486.535C482.17 484.59 481.756 482.639 481.344 480.703L481.341 480.681C480.929 478.738 480.509 476.803 480.097 474.867L480.097 474.867C479.677 472.925 479.258 470.99 478.832 469.064L478.83 469.049C478.404 467.123 477.979 465.204 477.547 463.286L477.543 463.256C476.253 457.502 474.931 451.79 473.595 446.148 473.593 446.133 473.592 446.126 473.583 446.112 473.141 444.241 472.692 442.371 472.253 440.522 472.251 440.507 472.241 440.486 472.24 440.478 471.793 438.623 471.346 436.769 470.902 434.936L470.898 434.906C470.445 433.067 469.994 431.236 469.549 429.403 469.547 429.388 469.546 429.373 469.543 429.351 469.093 427.534 468.644 425.725 468.197 423.931 468.186 423.902 468.182 423.872 468.171 423.843 467.725 422.057 467.28 420.278 466.83 418.515 466.826 418.485 466.823 418.463 466.804 418.434 466.353 416.664 465.911 414.907 465.462 413.159 465.451 413.13 465.448 413.108 465.437 413.079 464.99 411.346 464.544 409.613 464.099 407.895 464.086 407.851 464.073 407.807 464.059 407.763 463.616 406.052 463.173 404.349 462.725 402.662 462.714 402.633 462.711 402.611 462.699 402.582 462.249 400.88 461.81 399.199 461.363 397.527 461.352 397.498 461.348 397.468 461.337 397.439 460.891 395.767 460.454 394.109 460.013 392.474 460 392.438 459.996 392.408 459.984 392.371 459.543 390.736 459.102 389.109 458.665 387.505 458.653 387.468 458.639 387.424 458.627 387.388 458.19 385.79 457.763 384.207 457.331 382.64 457.322 382.573 457.293 382.523 457.284 382.456 456.861 380.902 456.431 379.358 456.011 377.827 456.004 377.775 455.983 377.724 455.968 377.673 455.54 376.135 455.128 374.611 454.703 373.104 454.692 373.075 454.68 373.039 454.675 373.001 454.249 371.486 453.84 369.985 453.412 368.508 453.407 368.471 453.388 368.443 453.375 368.399 452.961 366.913 452.549 365.45 452.133 364.01 452.128 363.973 452.124 363.943 452.106 363.915 451.697 362.474 451.29 361.041 450.885 359.63 450.88 359.593 450.86 359.557 450.848 359.521 450.443 358.11 450.049 356.72 449.65 355.347 449.646 355.317 449.643 355.295 449.624 355.267 449.223 353.886 448.833 352.527 448.446 351.19 448.434 351.161 448.432 351.138 448.421 351.117 448.033 349.773 447.647 348.451 447.273 347.158 447.27 347.128 447.267 347.106 447.249 347.085 446.875 345.792 446.496 344.523 446.127 343.268 446.122 343.23 446.102 343.187 446.089 343.151 445.721 341.903 445.354 340.662 444.998 339.451 444.996 339.436 444.987 339.422 444.985 339.407 444.62 338.182 444.257 336.979 443.913 335.797 443.911 335.782 443.91 335.774 443.908 335.759 443.549 334.579 443.206 333.411 442.859 332.268 442.85 332.254 442.848 332.239 442.839 332.225L443.479 331.989C465.783 381.404 475.754 425.54 480.202 453.871ZM428.097 302.161C427.707 301.442 427.686 300.583 428.009 299.84 428.25 300.579 428.568 301.559 428.966 302.803L429.082 303.169 428.83 303.453C428.83 303.453 428.81 303.478 428.803 303.487 428.564 303.053 428.331 302.611 428.097 302.161ZM431.97 316.695 432.62 316.595C432.62 316.595 432.644 316.661 432.656 316.697 432.658 316.712 432.659 316.72 432.66 316.727 432.814 317.21 432.962 317.702 433.12 318.215 433.142 318.265 433.157 318.324 433.172 318.383 433.678 319.987 434.198 321.695 434.741 323.469 434.753 323.505 434.765 323.534 434.776 323.563 434.948 324.12 435.119 324.677 435.293 325.249 435.317 325.322 435.341 325.388 435.359 325.469 435.531 326.026 435.702 326.583 435.875 327.147 435.883 327.207 435.905 327.258 435.919 327.309 436.49 329.179 437.078 331.122 437.684 333.147 437.723 333.271 437.762 333.396 437.801 333.52 437.965 334.07 438.129 334.628 438.309 335.192 438.341 335.325 438.387 335.441 438.42 335.581 439.039 337.643 439.674 339.77 440.319 341.973 440.358 342.097 440.389 342.223 440.436 342.346 440.624 342.97 440.804 343.594 440.994 344.233 441.033 344.357 441.065 344.49 441.112 344.614 441.316 345.303 441.522 346.008 441.728 346.713 441.742 346.765 441.756 346.809 441.777 346.859 442.232 348.423 442.698 350.009 443.167 351.625 443.196 351.728 443.223 351.823 443.252 351.926 443.446 352.595 443.64 353.271 443.836 353.954 443.889 354.13 443.944 354.314 443.991 354.498 444.194 355.18 444.39 355.871 444.587 356.562 444.625 356.679 444.646 356.783 444.683 356.893 445.167 358.56 445.647 360.258 446.145 361.977 446.171 362.065 446.198 362.153 446.216 362.234 446.428 362.984 446.65 363.748 446.863 364.513 446.915 364.674 446.959 364.836 447.003 364.998 447.21 365.71 447.41 366.431 447.611 367.152 447.662 367.313 447.706 367.475 447.75 367.637 448.248 369.416 448.748 371.211 449.259 373.027 449.26 373.035 449.261 373.042 449.27 373.056 449.514 373.932 449.758 374.814 450.011 375.704 450.062 375.857 450.098 376.02 450.142 376.182 450.355 376.939 450.561 377.705 450.774 378.463 450.827 378.639 450.874 378.823 450.921 379.008 451.151 379.839 451.374 380.671 451.605 381.51 451.631 381.591 451.655 381.664 451.666 381.746 452.186 383.637 452.71 385.551 453.227 387.48 453.27 387.635 453.313 387.789 453.356 387.944 453.576 388.753 453.797 389.571 454.017 390.388 454.071 390.564 454.117 390.741 454.154 390.911 454.387 391.765 454.62 392.619 454.845 393.466 454.883 393.583 454.906 393.702 454.943 393.812 455.476 395.8 456.012 397.811 456.55 399.837 456.576 399.925 456.596 400.014 456.622 400.102 456.862 401.009 457.11 401.921 457.352 402.843 457.388 402.998 457.431 403.153 457.475 403.315 457.702 404.184 457.937 405.053 458.159 405.939 458.193 406.087 458.237 406.249 458.272 406.397 459.077 409.478 459.886 412.597 460.686 415.755 460.727 415.894 460.762 416.05 460.796 416.19 461.029 417.105 461.263 418.027 461.498 418.949 461.539 419.089 461.573 419.237 461.608 419.385 461.871 420.41 462.127 421.444 462.383 422.477 462.385 422.492 462.394 422.499 462.396 422.514 462.946 424.691 463.491 426.891 464.038 429.107 464.065 429.195 464.083 429.276 464.102 429.365 464.352 430.346 464.594 431.328 464.831 432.327 464.874 432.481 464.91 432.644 464.945 432.792 465.196 433.788 465.441 434.793 465.679 435.798 465.688 435.873 465.721 435.945 465.73 436.02 466.272 438.252 466.824 440.505 467.362 442.759 467.368 442.812 467.391 442.87 467.405 442.914 467.646 443.949 467.903 444.991 468.145 446.026 468.189 446.188 468.218 446.352 468.262 446.514 468.497 447.505 468.723 448.481 468.959 449.472 468.99 449.598 469.021 449.716 469.045 449.842 469.833 453.207 470.618 456.604 471.389 460.009 471.423 460.157 471.46 460.32 471.494 460.468 471.722 461.46 471.952 462.467 472.173 463.459 472.207 463.6 472.241 463.748 472.267 463.889 473.041 467.317 473.801 470.762 474.548 474.217 474.579 474.335 474.602 474.454 474.625 474.573 474.85 475.603 475.067 476.627 475.294 477.664 475.328 477.812 475.364 477.968 475.391 478.117 475.621 479.184 475.852 480.259 476.076 481.335 476.092 481.402 476.108 481.461 476.116 481.528 476.62 483.879 477.101 486.225 477.591 488.585 477.599 488.645 477.607 488.712 477.631 488.778 477.854 489.846 478.069 490.916 478.291 491.977 478.329 492.155 478.36 492.334 478.398 492.504 478.598 493.515 478.814 494.531 479.014 495.541 479.032 495.684 479.071 495.808 479.09 495.95 479.564 498.305 480.029 500.653 480.487 503.002 480.491 503.032 480.495 503.062 480.499 503.092L479.871 503.303C474.373 492.09 466.138 474.137 458.169 452.248 446.086 419.064 431.732 368.6 431.955 316.697ZM386.913 573.831C387.13 573.033 387.262 572.177 387.39 571.345 387.431 571.073 387.472 570.801 387.521 570.536L388.115 566.899C388.401 565.17 388.655 563.43 388.909 561.689L389.188 559.793C389.542 557.415 389.863 555.026 390.152 552.671 390.272 551.664 390.352 550.64 390.428 549.754L390.471 549.268 390.943 549.146 391.091 549.111C391.631 548.927 445.528 530.613 478.575 523.57L479.435 523.39 479.397 524.264C479.383 524.631 479.37 524.999 479.365 525.365 479.352 525.679 479.346 525.985 479.332 526.284 479.26 527.963 479.219 529.637 479.178 531.312L479.107 534.636C479.056 536.884 479 539.147 478.965 541.393 478.924 543.715 478.903 546.073 478.896 548.368 478.884 549.444 478.88 550.527 478.875 551.602L478.834 556.676C478.831 557.18 478.814 557.692 478.79 558.214 478.772 558.719 478.753 559.217 478.75 559.72 478.517 559.751 478.295 559.802 478.072 559.839 476.864 560.05 475.671 560.251 474.485 560.451 474.246 560.489 474.016 560.534 473.784 560.572 472.711 560.758 471.637 560.935 470.571 561.12 470.451 561.135 470.325 561.167 470.205 561.183 468.974 561.388 467.752 561.601 466.544 561.804 466.476 561.812 466.409 561.821 466.341 561.83 465.223 562.021 464.119 562.203 463.023 562.391 462.82 562.418 462.627 562.458 462.433 562.483 461.358 562.661 460.284 562.839 459.225 563.022 459.135 563.034 459.046 563.046 458.963 563.057 457.77 563.257 456.583 563.45 455.411 563.641 455.366 563.646 455.321 563.652 455.27 563.667 454.195 563.844 453.135 564.013 452.076 564.196 451.875 564.23 451.674 564.264 451.472 564.298 450.427 564.464 449.389 564.63 448.36 564.809 448.301 564.817 448.249 564.831 448.197 564.838 447.055 565.025 445.934 565.201 444.823 565.384 444.74 565.394 444.658 565.405 444.575 565.416 443.582 565.576 442.597 565.734 441.619 565.892 441.447 565.922 441.276 565.952 441.111 565.973 438.984 566.318 436.885 566.645 434.838 566.964 434.703 566.982 434.568 567 434.435 567.032 433.554 567.17 432.695 567.304 431.836 567.439 431.633 567.465 431.448 567.505 431.245 567.531 430.29 567.686 429.333 567.833 428.399 567.97L428.376 567.973C427.391 568.131 426.419 568.281 425.454 568.421 425.313 568.447 425.171 568.466 425.037 568.491 424.223 568.62 423.423 568.739 422.631 568.865 422.467 568.894 422.302 568.915 422.131 568.945 420.285 569.231 418.476 569.504 416.72 569.771 416.638 569.782 416.564 569.799 416.481 569.81 415.712 569.932 414.956 570.039 414.201 570.152 414.037 570.181 413.872 570.202 413.701 570.232 412.063 570.476 410.463 570.714 408.93 570.937 408.765 570.958 408.601 570.987 408.436 571.009 407.786 571.108 407.143 571.207 406.514 571.289 406.401 571.304 406.282 571.327 406.17 571.341 404.689 571.557 403.261 571.773 401.899 571.966 401.727 571.988 401.554 572.01 401.382 572.033 400.843 572.111 400.313 572.195 399.789 572.271 399.67 572.286 399.551 572.309 399.438 572.324 398.137 572.516 396.902 572.692 395.735 572.859 395.608 572.875 395.488 572.891 395.353 572.909 394.897 572.976 394.448 573.042 394.007 573.107 393.872 573.124 393.738 573.149 393.61 573.166 393.078 573.235 392.563 573.317 392.077 573.388L391.919 573.409C391.47 573.467 391.037 573.539 390.617 573.593 390.497 573.609 390.377 573.624 390.258 573.648 389.869 573.698 389.486 573.748 389.121 573.811L388.911 573.838C388.47 573.903 388.035 573.96 387.624 574.021 387.369 574.054 387.13 574.093 386.891 574.124L386.945 573.842Z" fill="#017F8D"/></g><path d="M491.324 533.344C490.821 530.293 490.3 527.228 489.764 524.157 489.869 524.38 489.974 524.603 490.087 524.824 490.125 524.888 490.149 524.953 490.179 525.01 490.302 525.253 490.425 525.489 490.547 525.725 491.37 527.188 492.266 528.626 493.145 530.051 494.982 533.044 496.712 536.089 498.448 539.125 500.168 542.148 501.917 545.167 503.614 548.194 504.488 549.757 505.378 551.325 506.252 552.888 506.579 553.471 506.906 554.046 507.225 554.622 505.899 554.863 504.582 555.11 503.257 555.351 503.119 555.11 502.988 554.868 502.858 554.626 501.998 553.053 501.13 551.482 500.27 549.909 498.543 546.765 496.845 543.617 495.132 540.463 494.581 539.453 494.029 538.435 493.479 537.424 493.338 537.16 493.197 536.897 493.056 536.633 492.479 535.542 491.888 534.453 491.316 533.338 491.316 533.338 491.316 533.338 491.316 533.338ZM481.956 557.825C481.929 557.386 481.904 556.955 481.894 556.53 481.842 554.844 481.784 553.167 481.74 551.481 481.63 548.058 481.559 544.637 481.411 541.212 481.263 537.854 481.108 534.49 480.946 531.135 480.872 529.453 480.776 527.781 480.672 526.102 480.664 525.859 480.64 525.619 480.631 525.376 480.604 524.876 480.569 524.37 480.535 523.872 479.933 523.996 479.324 524.113 478.716 524.245 478.698 524.697 478.688 525.141 478.676 525.577 478.668 525.814 478.667 526.035 478.658 526.265 478.588 527.951 478.546 529.618 478.498 531.301 478.425 534.664 478.336 538.022 478.269 541.376 478.209 544.784 478.21 548.19 478.18 551.594 478.172 553.287 478.155 554.973 478.139 556.667 478.137 557.178 478.113 557.7 478.091 558.229 478.068 558.757 478.054 559.293 478.046 559.82 479.366 559.595 480.693 559.369 482.026 559.127 482.016 558.701 481.981 558.256 481.963 557.824ZM387.562 574.013C387.869 572.914 387.994 571.77 388.184 570.648 388.376 569.434 388.578 568.226 388.778 567.011 389.163 564.644 389.502 562.267 389.856 559.889 390.21 557.511 390.533 555.137 390.818 552.752 390.883 552.202 390.935 551.662 390.985 551.107 391.028 550.674 391.062 550.236 391.097 549.804 390.987 549.834 390.891 549.861 390.779 549.876 390.194 549.952 389.614 549.829 389.095 549.531 388.985 549.911 388.873 550.284 388.763 550.664 388.611 551.195 388.466 551.724 388.352 552.257 387.827 554.604 387.326 556.964 386.864 559.333 386.425 561.639 385.94 563.943 385.532 566.259 385.316 567.469 385.092 568.679 384.876 569.889 384.665 571.075 384.308 572.318 384.275 573.526 384.272 573.679 384.284 573.83 384.31 573.972L384.317 574.024C384.35 574.165 384.392 574.312 384.455 574.441 385.329 574.304 386.37 574.168 387.56 573.999ZM392.837 543.663C405.845 539.311 453.853 523.539 482.279 518.119 477.776 509.757 465.544 485.975 453.876 453.934 442.262 422.069 429.169 376.143 427.508 327.984 416.011 377.642 390.208 495.622 392.837 543.663ZM390.787 549.883C390.203 549.959 389.622 549.828 389.104 549.538 389.07 549.511 389.038 549.5 388.998 549.483 388.315 549.038 387.877 548.31 387.81 547.503 382.498 488.676 425.885 311.633 427.735 304.121 427.785 303.917 427.86 303.732 427.958 303.551 427.97 303.527 427.983 303.51 427.995 303.485 428.096 303.32 428.197 303.162 428.323 303.016 429.327 306.109 430.793 310.751 432.649 316.706 432.583 331.135 433.652 345.447 435.481 359.332L435.499 359.474C435.69 360.943 435.904 362.41 436.11 363.877 436.124 363.982 436.136 364.079 436.15 364.184 436.359 365.612 436.574 367.033 436.796 368.444 436.821 368.578 436.837 368.706 436.862 368.84 437.082 370.236 437.317 371.631 437.551 373.018 437.576 373.152 437.6 373.279 437.625 373.413 437.867 374.806 438.109 376.2 438.366 377.584 438.387 377.688 438.407 377.785 438.428 377.889 438.689 379.311 438.95 380.725 439.224 382.13 439.228 382.16 439.239 382.189 439.242 382.211 441.213 392.328 443.513 402.097 445.991 411.363 446.054 411.614 446.118 411.865 446.196 412.114 446.474 413.137 446.75 414.145 447.027 415.161 447.138 415.551 447.24 415.926 447.345 416.316 447.601 417.236 447.856 418.14 448.119 419.051 448.248 419.514 448.386 419.984 448.522 420.447 448.769 421.291 449.008 422.129 449.261 422.965 449.412 423.479 449.563 423.993 449.712 424.499 449.944 425.285 450.182 426.061 450.42 426.838 450.591 427.388 450.761 427.93 450.924 428.48 451.149 429.213 451.372 429.939 451.605 430.671 451.787 431.249 451.968 431.82 452.148 432.383 452.366 433.064 452.585 433.752 452.803 434.432 452.995 435.032 453.196 435.639 453.389 436.239 453.591 436.86 453.795 437.489 453.999 438.118 454.212 438.761 454.422 439.382 454.635 440.017 454.831 440.586 455.02 441.164 455.208 441.726 455.441 442.405 455.672 443.068 455.895 443.733 456.076 444.243 456.249 444.754 456.421 445.257 456.68 446.016 456.944 446.752 457.208 447.495 457.352 447.895 457.489 448.304 457.631 448.697 458.031 449.834 458.435 450.948 458.844 452.045 459.319 453.356 459.8 454.65 460.273 455.937 460.308 456.032 460.343 456.126 460.377 456.213 460.823 457.413 461.275 458.604 461.724 459.773 461.771 459.896 461.809 460.013 461.863 460.136 462.302 461.283 462.739 462.415 463.174 463.532 463.221 463.663 463.276 463.793 463.331 463.923 463.766 465.041 464.207 466.142 464.638 467.229 464.682 467.337 464.728 467.453 464.773 467.57 465.224 468.692 465.673 469.8 466.12 470.893 466.152 470.957 466.176 471.03 466.2 471.096 467.142 473.412 468.082 475.66 469.005 477.834 469.036 477.899 469.061 477.972 469.101 478.043 469.538 479.061 469.967 480.072 470.394 481.068 470.43 481.17 470.479 481.255 470.514 481.35 470.937 482.316 471.352 483.276 471.763 484.213 471.798 484.308 471.839 484.386 471.883 484.487 472.296 485.44 472.722 486.367 473.123 487.283 473.154 487.348 473.186 487.42 473.217 487.484 473.646 488.435 474.064 489.364 474.481 490.285 474.484 490.307 474.503 490.335 474.512 490.349 475.377 492.249 476.222 494.06 477.034 495.791 477.035 495.799 477.037 495.814 477.038 495.821 477.445 496.667 477.828 497.502 478.222 498.304 478.241 498.332 478.254 498.369 478.266 498.405 478.644 499.202 479.012 499.977 479.375 500.723 479.387 500.752 479.405 500.772 479.416 500.801 479.783 501.569 480.146 502.314 480.508 503.045 481.816 509.757 483.063 516.477 484.24 523.176 483.042 523.401 481.815 523.637 480.546 523.901 479.945 524.025 479.336 524.15 478.728 524.282L478.713 524.284C476.184 524.819 473.535 525.43 470.792 526.084 470.741 526.098 470.697 526.112 470.644 526.119 470.156 526.235 469.677 526.359 469.196 526.467 469.1 526.495 468.996 526.516 468.9 526.536 468.427 526.651 467.955 526.773 467.475 526.889 467.372 526.918 467.268 526.939 467.165 526.968 466.684 527.083 466.212 527.206 465.733 527.329 465.623 527.359 465.511 527.381 465.408 527.409 464.929 527.533 464.449 527.656 463.963 527.78 463.852 527.81 463.749 527.839 463.638 527.861 463.151 527.985 462.656 528.11 462.155 528.237 462.067 528.263 461.971 528.291 461.882 528.31 461.366 528.446 460.843 528.583 460.327 528.718 460.282 528.724 460.247 528.744 460.203 528.757 455.523 529.991 450.72 531.325 445.937 532.701 445.884 532.708 445.827 532.738 445.775 532.745 445.231 532.9 444.695 533.053 444.158 533.207 444.078 533.233 443.996 533.251 443.916 533.277 443.379 533.43 442.843 533.584 442.3 533.746 442.235 533.77 442.161 533.787 442.102 533.802 441.559 533.964 441.007 534.12 440.464 534.282 440.406 534.305 440.347 534.32 440.288 534.335 439.73 534.5 439.165 534.664 438.615 534.828 438.592 534.831 438.577 534.832 438.555 534.835 433.769 536.25 429.076 537.669 424.614 539.05L424.599 539.052C424.072 539.219 423.543 539.372 423.024 539.546 422.972 539.553 422.915 539.583 422.87 539.589 422.372 539.745 421.882 539.9 421.39 540.048 421.325 540.072 421.252 540.097 421.185 540.113 420.701 540.26 420.226 540.413 419.749 540.559 419.684 540.583 419.618 540.606 419.552 540.623 419.061 540.778 418.577 540.925 418.102 541.078 418.073 541.089 418.044 541.101 418.021 541.104 414.397 542.246 410.994 543.329 407.921 544.315 407.884 544.32 407.848 544.34 407.804 544.354 407.394 544.483 406.992 544.612 406.59 544.748 406.553 544.753 406.525 544.771 406.48 544.777 406.091 544.896 405.72 545.029 405.346 545.146 405.281 545.17 405.222 545.185 405.156 545.209 404.819 545.313 404.491 545.425 404.162 545.536 404.06 545.572 403.957 545.601 403.854 545.63 403.555 545.729 403.255 545.829 402.962 545.921 402.859 545.949 402.743 545.995 402.64 546.024 402.356 546.122 402.07 546.212 401.792 546.302 401.683 546.339 401.587 546.366 401.478 546.404 401.215 546.491 400.944 546.58 400.68 546.66 400.578 546.696 400.483 546.724 400.381 546.76 400.118 546.847 399.848 546.936 399.591 547.015 399.541 547.037 399.489 547.051 399.445 547.064 397.559 547.683 395.952 548.22 394.681 548.644 394.608 548.669 394.528 548.695 394.455 548.72 394.331 548.766 394.207 548.805 394.082 548.844 393.973 548.881 393.863 548.918 393.76 548.947 393.681 548.98 393.593 549.007 393.505 549.034 393.403 549.07 393.315 549.096 393.22 549.132 393.104 549.177 392.994 549.207 392.877 549.245 392.833 549.258 392.797 549.278 392.753 549.292 392.651 549.328 392.548 549.356 392.46 549.383 392.373 549.417 392.292 549.435 392.22 549.468 392.183 549.48 392.147 549.492 392.11 549.505 391.994 549.55 391.899 549.578 391.811 549.605L391.796 549.607C391.716 549.64 391.65 549.656 391.584 549.68 391.563 549.69 391.548 549.692 391.534 549.702 391.402 549.742 391.322 549.775 391.3 549.778 391.234 549.802 391.167 549.81 391.1 549.827 391.013 549.861 390.903 549.89 390.805 549.903ZM427.508 327.984C416.011 377.642 390.208 495.622 392.837 543.663 405.845 539.311 453.853 523.539 482.279 518.119 477.776 509.757 465.544 485.975 453.876 453.934 442.27 422.068 429.169 376.143 427.508 327.984Z" fill="#ECB920"/><path d="M484.849 453.327C479.287 417.718 466.106 363.206 434.977 303.835 447.835 304.837 485.718 309.193 525.776 327.335 570.489 347.578 627.129 389.668 644.293 475.33L489.561 515.045C489.784 506.739 489.743 484.687 484.841 453.328ZM430.496 298.274C430.548 298.268 431.2 298.297 432.375 298.365 432.921 298.401 433.589 298.444 434.343 298.498 434.398 298.506 434.451 298.507 434.497 298.509 434.635 298.513 434.775 298.533 434.92 298.537 435.013 298.548 435.105 298.551 435.198 298.562 435.321 298.569 435.459 298.582 435.591 298.595 435.715 298.609 435.83 298.617 435.953 298.624 436.083 298.63 436.214 298.643 436.346 298.657 436.476 298.663 436.616 298.683 436.746 298.689 436.877 298.702 437.009 298.715 437.139 298.721 437.294 298.739 437.463 298.748 437.633 298.771 437.757 298.786 437.873 298.794 437.995 298.8 438.196 298.82 438.404 298.839 438.605 298.858 438.705 298.868 438.791 298.88 438.905 298.88 439.199 298.911 439.5 298.94 439.802 298.977 439.839 298.972 439.88 298.99 439.925 298.984 440.233 299.012 440.55 299.047 440.867 299.082 440.96 299.093 441.053 299.104 441.145 299.107 441.4 299.135 441.663 299.162 441.933 299.188 442.042 299.204 442.165 299.211 442.273 299.227 442.52 299.248 442.776 299.284 443.03 299.304 443.163 299.325 443.294 299.338 443.418 299.353 443.665 299.381 443.928 299.408 444.183 299.436 444.314 299.449 444.447 299.47 444.578 299.484 444.848 299.51 445.128 299.549 445.399 299.583 445.523 299.597 445.654 299.611 445.779 299.632 446.081 299.669 446.384 299.714 446.693 299.75 446.802 299.766 446.911 299.782 447.019 299.791 447.391 299.842 447.78 299.898 448.167 299.947 448.214 299.956 448.253 299.958 448.299 299.96 449.183 300.081 450.099 300.206 451.046 300.342 451.14 300.36 451.233 300.371 451.318 300.383 451.699 300.44 452.064 300.492 452.453 300.548 452.576 300.562 452.701 300.584 452.826 300.606 453.183 300.659 453.542 300.719 453.899 300.771 454.039 300.791 454.179 300.811 454.32 300.838 454.671 300.9 455.028 300.952 455.386 301.012 455.542 301.038 455.69 301.064 455.838 301.083 456.204 301.142 456.57 301.201 456.944 301.267 457.092 301.293 457.232 301.313 457.388 301.339 457.786 301.409 458.183 301.479 458.589 301.548 458.706 301.571 458.83 301.586 458.947 301.608 459.462 301.702 459.969 301.788 460.485 301.889 460.5 301.887 460.517 301.9 460.532 301.898 461.639 302.089 462.757 302.302 463.905 302.518 464.023 302.541 464.131 302.558 464.242 302.589 464.688 302.676 465.141 302.762 465.595 302.855 465.752 302.888 465.924 302.919 466.081 302.952 466.495 303.035 466.909 303.111 467.317 303.203 467.497 303.233 467.678 303.278 467.865 303.307 468.272 303.391 468.687 303.474 469.095 303.566 469.275 303.603 469.463 303.64 469.643 303.677 470.074 303.766 470.49 303.864 470.929 303.952 471.101 303.991 471.274 304.029 471.447 304.068 471.917 304.167 472.38 304.274 472.852 304.38 472.993 304.415 473.134 304.443 473.276 304.478 473.864 304.607 474.453 304.736 475.05 304.872 475.081 304.876 475.105 304.888 475.121 304.893 475.766 305.046 476.417 305.189 477.07 305.348 477.093 305.345 477.126 305.364 477.148 305.361 477.746 305.504 478.352 305.647 478.958 305.796 479.122 305.828 479.288 305.875 479.453 305.907 479.925 306.021 480.405 306.142 480.878 306.263 481.083 306.313 481.288 306.362 481.493 306.419 481.927 306.531 482.368 306.641 482.818 306.758 483.047 306.819 483.275 306.874 483.511 306.934 483.945 307.046 484.371 307.158 484.805 307.269 485.041 307.33 485.263 307.392 485.507 307.452 485.949 307.57 486.4 307.694 486.843 307.82 487.064 307.882 487.278 307.938 487.499 308.001 487.989 308.135 488.48 308.277 488.978 308.411 489.151 308.457 489.333 308.509 489.508 308.563 490.149 308.746 490.798 308.928 491.44 309.119 491.472 309.13 491.511 309.133 491.544 309.152 492.241 309.358 492.939 309.565 493.644 309.77 493.763 309.808 493.89 309.845 494.016 309.882 494.571 310.046 495.143 310.223 495.707 310.394 495.929 310.464 496.144 310.535 496.367 310.605 496.843 310.749 497.304 310.895 497.781 311.046 498.036 311.135 498.29 311.208 498.544 311.29 498.989 311.43 499.428 311.579 499.88 311.718 500.151 311.805 500.414 311.893 500.692 311.978 501.129 312.12 501.569 312.276 502.021 312.415 502.292 312.502 502.563 312.596 502.833 312.683 503.279 312.831 503.734 312.985 504.173 313.141 504.436 313.229 504.708 313.323 504.971 313.411 505.458 313.584 505.945 313.749 506.44 313.929 506.665 314.014 506.888 314.084 507.111 314.161 507.783 314.402 508.462 314.641 509.141 314.888 509.182 314.906 509.221 314.916 509.262 314.934 509.99 315.197 510.71 315.462 511.44 315.74 511.648 315.82 511.849 315.9 512.057 315.972 512.578 316.171 513.091 316.364 513.621 316.569 513.886 316.672 514.158 316.774 514.43 316.875 514.889 317.06 515.353 317.228 515.812 317.42 516.101 317.535 516.398 317.648 516.695 317.762 517.13 317.942 517.572 318.113 518.021 318.291 518.327 318.411 518.618 318.541 518.923 318.661 519.367 318.848 519.809 319.026 520.252 319.205 520.557 319.325 520.848 319.455 521.147 319.584 521.598 319.769 522.051 319.97 522.503 320.162 522.792 320.277 523.076 320.408 523.357 320.524 523.85 320.734 524.351 320.951 524.844 321.169 525.094 321.273 525.336 321.379 525.578 321.485 526.314 321.808 527.058 322.138 527.796 322.477 557.272 335.799 582.14 353.715 601.733 375.723 626.236 403.252 642.467 437.268 649.981 476.815 650.244 478.191 649.396 479.521 648.039 479.873L489.163 520.653 487.451 521.089C487.341 521.119 487.244 521.139 487.132 521.154 486.405 521.248 485.669 521.039 485.105 520.571 484.448 520.032 484.097 519.209 484.162 518.362 484.173 518.208 484.754 508.735 483.804 492.464 483.768 491.836 483.729 491.186 483.683 490.536 483.678 490.499 483.682 490.468 483.676 490.423 483.559 488.586 483.416 486.668 483.254 484.662 483.244 484.465 483.227 484.277 483.208 484.074 483.169 483.538 483.121 482.995 483.073 482.452 483.047 482.136 483.013 481.812 482.986 481.488 482.935 480.977 482.899 480.471 482.847 479.951 482.809 479.545 482.771 479.131 482.731 478.709 482.67 478 482.591 477.279 482.52 476.557 482.467 475.977 482.401 475.406 482.34 474.819 482.302 474.413 482.256 474 482.201 473.58 482.144 473.023 482.087 472.467 482.014 471.904 481.969 471.499 481.924 471.101 481.878 470.687 481.802 470.042 481.73 469.373 481.643 468.706 481.602 468.384 481.568 468.068 481.525 467.738 481.406 466.763 481.285 465.772 481.147 464.769L481.045 463.99C480.944 463.21 480.834 462.424 480.723 461.631 480.677 461.278 480.63 460.911 480.568 460.553 480.464 459.812 480.349 459.05 480.243 458.294 480.192 457.957 480.142 457.629 480.09 457.292 479.927 456.216 479.762 455.117 479.595 454.011 479.429 452.973 479.261 451.912 479.084 450.846 479.023 450.495 478.97 450.144 478.908 449.786 478.782 449.056 478.657 448.325 478.538 447.586 478.458 447.147 478.385 446.706 478.314 446.274 478.195 445.595 478.069 444.918 477.948 444.225 477.862 443.741 477.779 443.272 477.692 442.78 477.567 442.11 477.439 441.426 477.312 440.741 477.218 440.25 477.123 439.752 477.026 439.246 476.88 438.472 476.717 437.686 476.569 436.905 476.393 436.021 476.215 435.121 476.03 434.223 475.902 433.592 475.774 432.961 475.638 432.323 475.497 431.648 475.354 430.958 475.204 430.276 475.089 429.742 474.983 429.222 474.86 428.69 474.696 427.956 474.538 427.207 474.365 426.46 474.256 425.979 474.149 425.505 474.04 425.016 473.859 424.216 473.671 423.41 473.488 422.595 473.4 422.211 473.312 421.826 473.216 421.442 472.214 417.136 471.103 412.693 469.898 408.116 469.849 407.917 469.793 407.718 469.735 407.512 469.44 406.415 469.144 405.31 468.838 404.191 468.791 404 468.734 403.801 468.679 403.61 462.76 382.071 454.485 357.889 442.94 332.303 438.495 322.447 433.575 312.393 428.101 302.191 427.658 301.357 427.687 300.355 428.177 299.552 428.681 298.739 429.571 298.258 430.513 298.288ZM434.978 303.842C466.106 363.206 479.279 417.719 484.85 453.335 489.751 484.686 489.793 506.745 489.57 515.052L644.301 475.336C627.13 389.676 570.497 347.585 525.783 327.334 485.718 309.193 447.835 304.837 434.985 303.841Z" fill="#E17E23"/><path d="M490.875 567.099C492.614 566.812 494.36 566.524 496.106 566.235 499.828 565.614 503.551 564.993 507.271 564.356 526.313 561.094 545.305 557.564 564.189 553.5 583.33 549.364 602.356 544.694 621.155 539.215 639.603 533.843 657.868 527.717 675.747 520.673 677.625 519.934 678.873 522.675 676.971 523.464 674.759 524.384 672.537 525.298 670.306 526.19 652.333 533.391 633.894 539.349 615.259 544.57 596.435 549.854 577.388 554.367 558.242 558.351 539.289 562.295 520.245 565.717 501.134 568.798 499.5 569.064 497.862 569.307 496.235 569.572 494.712 569.816 493.181 570.061 491.657 570.297 476.422 572.706 461.166 575.011 445.876 577.06 436.61 578.304 427.311 579.292 418.003 580.282 409.163 581.226 400.295 582.311 391.406 582.705 390.49 582.748 390.29 581.448 391.228 581.334 393.356 581.057 395.499 580.831 397.636 580.615 415.951 578.743 434.139 575.95 452.346 573.185 465.217 571.229 478.07 569.199 490.903 567.08Z" fill="#055169"/></g></g></g></g></svg>