<svg width="1647" height="214" xmlns="http://www.w3.org/2000/svg" xmlns:xlink="http://www.w3.org/1999/xlink" xml:space="preserve" overflow="hidden"><g transform="translate(2611 -2083)"><path d="M-1571.43 2223.29C-1574.88 2226.46-1576.94 2229.47-1577.6 2232.31-1578.27 2235.15-1577.97 2237.3-1576.73 2238.76-1575.48 2240.21-1573.71 2240.45-1571.43 2239.46-1570.66 2239.02-1570.44 2237.36-1570.77 2234.46-1571.1 2231.56-1571.32 2227.84-1571.43 2223.29ZM-1884.29 2222.83C-1883.58 2222.71-1882.72 2223.06-1881.74 2223.86-1879.24 2225.62-1879.09 2227.39-1881.3 2229.15-1883.72 2230.92-1886.07 2232.97-1888.34 2235.31-1890.62 2237.64-1892.82 2240.69-1894.95 2244.44-1895.96 2244.65-1896.09 2243.47-1895.33 2240.89-1894.58 2238.31-1893.38 2235.38-1891.73 2232.11-1890.08 2228.84-1888.42 2226.29-1886.73 2224.45-1885.81 2223.49-1885 2222.95-1884.29 2222.83ZM-2061.61 2196.98C-2063.09 2197.15-2064.72 2197.78-2066.5 2198.87-2066.34 2198.87-2066.17 2198.87-2066 2198.89-2065.83 2198.9-2065.7 2198.95-2065.61 2199.02-2065.28 2199.37-2065.78 2199.81-2067.12 2200.32-2068.45 2200.83-2069.97 2201.35-2071.66 2201.88-2073.35 2202.41-2074.57 2202.88-2075.32 2203.28-2078.88 2205.47-2081.15 2208.34-2082.13 2211.89-2083.12 2215.44-2083.21 2219.16-2082.42 2223.05-2081.62 2226.95-2080.34 2230.5-2078.56 2233.72-2076.16 2237.55-2073.12 2239.67-2069.43 2240.08-2065.74 2240.5-2062.13 2239.62-2058.58 2237.45-2055.03 2235.28-2052.27 2232.22-2050.29 2228.28-2048.31 2224.34-2047.83 2219.93-2048.85 2215.05-2049.56 2211.8-2050.62 2208.51-2052.02 2205.17-2053.42 2201.83-2055.29 2199.4-2057.64 2197.88-2058.81 2197.11-2060.14 2196.82-2061.61 2196.98ZM-2142.61 2196.98C-2144.09 2197.15-2145.72 2197.78-2147.5 2198.87-2147.34 2198.87-2147.17 2198.87-2147 2198.89-2146.83 2198.9-2146.7 2198.95-2146.61 2199.02-2146.28 2199.37-2146.78 2199.81-2148.12 2200.32-2149.45 2200.83-2150.97 2201.35-2152.66 2201.88-2154.35 2202.41-2155.57 2202.88-2156.32 2203.28-2159.88 2205.47-2162.15 2208.34-2163.13 2211.89-2164.12 2215.44-2164.21 2219.16-2163.42 2223.05-2162.62 2226.95-2161.34 2230.5-2159.56 2233.72-2157.16 2237.55-2154.12 2239.67-2150.43 2240.08-2146.74 2240.5-2143.13 2239.62-2139.58 2237.45-2136.03 2235.28-2133.27 2232.22-2131.29 2228.28-2129.31 2224.34-2128.83 2219.93-2129.85 2215.05-2130.56 2211.8-2131.62 2208.51-2133.02 2205.17-2134.42 2201.83-2136.29 2199.4-2138.64 2197.88-2139.81 2197.11-2141.14 2196.82-2142.61 2196.98ZM-1759.1 2193.96C-1754.93 2193.91-1751.17 2194.8-1747.83 2196.61-1742.48 2199.52-1738.67 2203.69-1736.41 2209.12-1734.14 2214.55-1733.9 2220.13-1735.68 2225.84-1737.46 2231.56-1741.74 2236.29-1748.53 2240.05-1752.79 2242.19-1757.67 2243.88-1763.17 2245.1-1768.67 2246.32-1773.88 2246.96-1778.81 2247.02-1783.74 2247.07-1787.48 2246.43-1790.03 2245.08-1792.59 2243.73-1793.06 2241.57-1791.45 2238.58-1791.28 2240.69-1789.2 2241.87-1785.2 2242.12-1781.21 2242.38-1776.77 2242.27-1771.9 2241.81-1763.96 2241.16-1757.11 2239.17-1751.36 2235.84-1745.6 2232.52-1741.86 2228.26-1740.12 2223.07-1738.39 2217.89-1739.57 2212.17-1743.67 2205.93-1745.88 2202.73-1749.04 2200.3-1753.14 2198.63-1757.24 2196.96-1761.83 2196.26-1766.9 2196.52-1769.03 2196.58-1770.1 2196.49-1770.12 2196.23-1770.13 2195.96-1769.11 2195.57-1767.05 2195.06-1764.25 2194.36-1761.6 2193.99-1759.1 2193.96ZM-1801.83 2193.46C-1801.55 2193.46-1801.28 2193.55-1801.03 2193.72-1800.52 2194.08-1800.25 2194.33-1800.22 2194.48-1800.6 2199.82-1800.92 2204.6-1801.17 2208.83-1801.42 2213.06-1801.96 2217.33-1802.8 2221.62-1803.64 2225.92-1805.13 2230.84-1807.27 2236.37-1810.3 2243.6-1814.24 2248.84-1819.11 2252.09-1823.97 2255.34-1828.65 2256.4-1833.16 2255.27-1837.66 2254.15-1840.89 2250.64-1842.83 2244.75-1843.48 2242.71-1843.87 2240.58-1844.01 2238.38-1844.14 2236.17-1844.09 2233.78-1843.86 2231.23-1842.96 2232.93-1842.33 2234.64-1841.97 2236.35-1841.61 2238.07-1841.16 2239.74-1840.63 2241.37-1838.77 2246.35-1836.15 2249.47-1832.77 2250.74-1829.39 2252.01-1825.81 2251.49-1822.04 2249.18-1818.27 2246.87-1814.86 2242.85-1811.83 2237.11-1810.19 2233.97-1808.93 2230.89-1808.02 2227.86-1807.12 2224.83-1806.41 2221.28-1805.89 2217.2-1805.36 2213.13-1804.84 2207.95-1804.34 2201.68-1804.22 2199.87-1804.08 2198.23-1803.91 2196.77-1803.74 2195.31-1803.35 2194.3-1802.72 2193.74-1802.41 2193.56-1802.11 2193.47-1801.83 2193.46ZM-2059.44 2192.57C-2056.43 2192.43-2053.95 2193.76-2051.99 2196.55-2050.04 2199.33-2048.11 2203.49-2046.21 2209.02-2043.72 2216.57-2043.86 2223.42-2046.63 2229.57-2049.41 2235.72-2054.36 2240.43-2061.5 2243.71-2066.9 2246-2071.63 2245.72-2075.68 2242.87-2079.72 2240.03-2082.71 2235.88-2084.65 2230.44-2086.59 2225-2087.1 2219.52-2086.19 2214.02-2085.52 2209.36-2083.78 2205.73-2080.98 2203.13-2078.17 2200.54-2073.49 2199.11-2066.94 2198.87-2066.66 2196.76-2065.82 2195.19-2064.4 2194.18-2062.98 2193.16-2061.33 2192.63-2059.44 2192.57ZM-2140.44 2192.57C-2137.43 2192.43-2134.95 2193.76-2132.99 2196.55-2131.04 2199.33-2129.11 2203.49-2127.21 2209.02-2124.72 2216.57-2124.86 2223.42-2127.63 2229.57-2130.41 2235.72-2135.36 2240.43-2142.5 2243.71-2147.9 2246-2152.63 2245.72-2156.68 2242.87-2160.72 2240.03-2163.71 2235.88-2165.65 2230.44-2167.59 2225-2168.1 2219.52-2167.19 2214.02-2166.52 2209.36-2164.78 2205.73-2161.98 2203.13-2159.17 2200.54-2154.49 2199.11-2147.94 2198.87-2147.66 2196.76-2146.82 2195.19-2145.4 2194.18-2143.98 2193.16-2142.33 2192.63-2140.44 2192.57ZM-1543.07 2189.94C-1542.34 2189.98-1541.97 2190.37-1541.97 2191.1-1542.34 2200.32-1542.74 2209.5-1543.17 2218.65-1543.59 2227.8-1544.03 2236.69-1544.47 2245.32-1545.63 2242.83-1546.47 2238.9-1546.99 2233.53-1547.51 2228.17-1547.75 2222.42-1547.73 2216.28-1547.7 2210.14-1547.45 2204.68-1546.98 2199.88-1546.51 2195.08-1545.87 2192.01-1545.05 2190.66-1544.47 2190.13-1543.81 2189.89-1543.07 2189.94ZM-1716.07 2189.94C-1715.34 2189.98-1714.97 2190.37-1714.97 2191.1-1715.34 2200.32-1715.74 2209.5-1716.17 2218.65-1716.59 2227.8-1717.03 2236.69-1717.47 2245.32-1718.63 2242.83-1719.47 2238.9-1719.99 2233.53-1720.51 2228.17-1720.75 2222.42-1720.73 2216.28-1720.7 2210.14-1720.45 2204.68-1719.98 2199.88-1719.51 2195.08-1718.87 2192.01-1718.05 2190.66-1717.47 2190.13-1716.81 2189.89-1716.07 2189.94ZM-1398.73 2189.88C-1396.11 2190.13-1393.62 2191.46-1391.26 2193.87-1386.92 2198.76-1384.85 2203.76-1385.02 2208.89-1385.2 2214.01-1387.67 2218.61-1392.44 2222.69-1393.48 2222.53-1393.49 2221.64-1392.47 2220.04-1391.45 2218.45-1390.66 2217.12-1390.08 2216.07-1388.53 2211.76-1388.43 2207.65-1389.79 2203.75-1391.14 2199.85-1393.3 2197.06-1396.28 2195.38-1399.25 2193.7-1402.38 2194.03-1405.68 2196.37-1407.36 2197.46-1408.84 2198.85-1410.12 2200.56-1411.4 2202.27-1411.64 2205.29-1410.82 2209.6-1409.07 2218.66-1409.24 2226.64-1411.33 2233.55-1413.42 2240.46-1416.47 2246.08-1420.49 2250.4-1424.51 2254.73-1428.53 2257.55-1432.56 2258.85-1434.69 2259.62-1437.5 2260.21-1441 2260.63-1444.5 2261.05-1447.86 2260.65-1451.09 2259.44-1453.21 2258.39-1454.19 2257.6-1454.03 2257.06-1453.87 2256.52-1452.64 2256.39-1450.35 2256.66-1442.69 2257.64-1436.14 2256.58-1430.72 2253.46-1425.3 2250.34-1421.12 2246-1418.19 2240.44-1415.25 2234.87-1413.67 2228.91-1413.45 2222.54-1413.45 2219.31-1413.75 2216.3-1414.35 2213.52-1414.96 2210.74-1415.44 2208.21-1415.81 2205.93-1415.99 2204.47-1415.92 2203.05-1415.59 2201.68-1415.26 2200.31-1414.45 2198.93-1413.17 2197.55-1408.92 2193.14-1405 2190.62-1401.39 2189.99-1400.49 2189.83-1399.6 2189.79-1398.73 2189.88ZM-1679.73 2189.88C-1677.11 2190.13-1674.62 2191.46-1672.26 2193.87-1667.92 2198.76-1665.85 2203.76-1666.02 2208.89-1666.2 2214.01-1668.67 2218.61-1673.44 2222.69-1674.48 2222.53-1674.49 2221.64-1673.47 2220.04-1672.45 2218.45-1671.66 2217.12-1671.08 2216.07-1669.53 2211.76-1669.43 2207.65-1670.79 2203.75-1672.14 2199.85-1674.3 2197.06-1677.28 2195.38-1680.25 2193.7-1683.38 2194.03-1686.68 2196.37-1688.36 2197.46-1689.84 2198.85-1691.12 2200.56-1692.4 2202.27-1692.64 2205.29-1691.82 2209.6-1690.07 2218.66-1690.24 2226.64-1692.33 2233.55-1694.42 2240.46-1697.47 2246.08-1701.49 2250.4-1705.51 2254.73-1709.53 2257.55-1713.56 2258.85-1715.69 2259.62-1718.5 2260.21-1722 2260.63-1725.5 2261.05-1728.86 2260.65-1732.09 2259.44-1734.21 2258.39-1735.19 2257.6-1735.03 2257.06-1734.87 2256.52-1733.64 2256.39-1731.35 2256.66-1723.69 2257.64-1717.14 2256.58-1711.72 2253.46-1706.3 2250.34-1702.12 2246-1699.19 2240.44-1696.25 2234.87-1694.67 2228.91-1694.45 2222.54-1694.45 2219.31-1694.75 2216.3-1695.35 2213.52-1695.96 2210.74-1696.44 2208.21-1696.81 2205.93-1696.99 2204.47-1696.92 2203.05-1696.59 2201.68-1696.26 2200.31-1695.45 2198.93-1694.17 2197.55-1689.92 2193.14-1686 2190.62-1682.39 2189.99-1681.49 2189.83-1680.6 2189.79-1679.73 2189.88ZM-2007.1 2189.74C-2003.51 2189.46-1999.68 2190.89-1995.61 2194.02-1992.51 2196.51-1989.93 2199.25-1987.86 2202.22-1985.79 2205.19-1984.32 2208-1983.43 2210.64-1981.46 2216.83-1981.94 2221.98-1984.85 2226.11-1987.77 2230.23-1992.58 2232.37-1999.29 2232.53L-2011.93 2232.53C-2015.64 2232.44-2019.15 2232.8-2022.47 2233.62-2025.79 2234.43-2028.43 2236.24-2030.4 2239.04-2032.36 2241.85-2033.16 2246.2-2032.8 2252.08-2032.73 2254.06-2032.91 2254.81-2033.35 2254.32-2033.8 2253.84-2034.05 2253.49-2034.13 2253.26-2036.67 2244.98-2036.33 2238.9-2033.1 2235.02-2029.87 2231.13-2024.38 2228.84-2016.63 2228.14-2013.84 2227.84-2010.83 2227.7-2007.61 2227.72-2004.39 2227.73-2000.1 2227.48-1994.73 2226.96-1991.91 2226.63-1989.76 2225.39-1988.3 2223.23-1986.84 2221.08-1986.24 2218.69-1986.5 2216.08-1987.04 2213.02-1988.01 2210.35-1989.42 2208.06-1990.83 2205.78-1991.62 2204.58-1991.79 2204.46-1996.66 2198.24-2001.37 2194.92-2005.92 2194.52-2010.48 2194.12-2014.78 2196.95-2018.84 2202.99-2021.1 2206.14-2022.6 2207.67-2023.32 2207.57-2024.05 2207.47-2024.07 2206.68-2023.4 2205.2-2019.45 2197.33-2015.18 2192.46-2010.61 2190.58-2009.46 2190.11-2008.29 2189.83-2007.1 2189.74ZM-1457.98 2189.16C-1457.04 2189.11-1456.06 2189.12-1455.05 2189.19-1448.05 2189.94-1442.78 2192.87-1439.23 2197.97-1435.68 2203.06-1433.9 2208.85-1433.9 2215.34-1434.01 2220.83-1435.17 2225.76-1437.36 2230.15-1439.55 2234.53-1442.06 2237.63-1444.9 2239.44-1443.04 2235.33-1441.48 2231.72-1440.22 2228.6-1438.96 2225.49-1438.17 2222.39-1437.85 2219.31-1437.26 2212.83-1438.47 2207.17-1441.47 2202.34-1444.47 2197.51-1448.8 2194.49-1454.46 2193.3-1459.38 2192.58-1463.21 2193.47-1465.96 2195.94-1468.71 2198.42-1469.97 2201.51-1469.75 2205.2-1469.87 2205.53-1470.21 2205.06-1470.79 2203.79-1471.37 2202.52-1471.46 2200.69-1471.07 2198.3-1470.32 2195.18-1468.47 2192.82-1465.54 2191.21-1463.34 2190-1460.82 2189.32-1457.98 2189.16ZM-1877.59 2188.16C-1873.57 2188.18-1869.92 2189.56-1866.64 2192.31-1862.25 2195.97-1858.81 2200.97-1856.31 2207.31-1853.81 2213.65-1852.53 2220.25-1852.49 2227.09-1852.72 2232.7-1854.23 2236.92-1857.02 2239.77-1859.8 2242.62-1862.45 2243.98-1864.97 2243.85-1865.95 2243.86-1865.93 2243.51-1864.91 2242.82-1863.89 2242.13-1862.59 2241.05-1861 2239.59-1857.62 2235.88-1856.14 2230.95-1856.54 2224.8-1856.94 2218.65-1858.65 2212.67-1861.65 2206.84-1864.65 2201.02-1868.35 2196.75-1872.77 2194.02-1876.43 2192.18-1880.09 2191.86-1883.75 2193.08-1887.41 2194.3-1890.27 2197.11-1892.31 2201.51-1893.04 2203.13-1893.56 2204.94-1893.85 2206.95-1894.14 2208.97-1894.22 2211.22-1894.07 2213.72-1894 2215.31-1894.34 2215.76-1895.07 2215.07-1895.81 2214.37-1896.48 2212.95-1897.09 2210.8-1897.69 2208.65-1897.76 2206.19-1897.3 2203.43-1896.44 2199.38-1894.64 2196.12-1891.89 2193.64-1889.14 2191.16-1885.75 2189.48-1881.74 2188.6-1880.32 2188.3-1878.93 2188.15-1877.59 2188.16ZM-2105.25 2186.33C-2104.23 2186.37-2103.43 2186.73-2102.84 2187.4-2102.05 2188.3-2101.65 2190.22-2101.65 2193.15-2101.62 2195.29-2101.66 2197.88-2101.79 2200.91-2101.91 2203.94-2102.31 2206.9-2102.97 2209.78-2103.63 2212.66-2104.75 2214.95-2106.33 2216.66L-2106.33 2186.39C-2105.95 2186.34-2105.59 2186.32-2105.25 2186.33ZM-2187.25 2186.33C-2186.23 2186.37-2185.43 2186.73-2184.84 2187.4-2184.05 2188.3-2183.65 2190.22-2183.65 2193.15-2183.62 2195.29-2183.66 2197.88-2183.79 2200.91-2183.91 2203.94-2184.31 2206.9-2184.97 2209.78-2185.63 2212.66-2186.75 2214.95-2188.33 2216.66L-2188.33 2186.39C-2187.95 2186.34-2187.59 2186.32-2187.25 2186.33ZM-1518.15 2173.02C-1516.61 2172.91-1515.64 2173.78-1515.23 2175.62-1514.81 2177.47-1514.47 2179.15-1514.18 2180.66-1512.89 2185.63-1510.73 2189.68-1507.71 2192.82-1504.69 2195.95-1500.63 2197.44-1495.51 2197.26-1493.71 2197.12-1491.91 2197.59-1490.09 2198.66-1488.27 2199.73-1487.53 2201.37-1487.87 2203.58-1488.52 2205.93-1489.97 2207.3-1492.2 2207.7-1494.44 2208.1-1496.62 2207.56-1498.75 2206.08-1502.14 2203.98-1504.91 2203.08-1507.07 2203.36-1509.23 2203.65-1511.6 2204.95-1514.18 2207.26-1517.05 2209.72-1519.21 2213.07-1520.66 2217.31-1522.12 2221.55-1522.41 2225.59-1521.53 2229.45-1519.81 2235.06-1517.15 2239.05-1513.55 2241.41-1509.94 2243.77-1506.58 2245.2-1503.44 2245.7-1500.31 2246.2-1498.6 2246.47-1498.3 2246.5-1497.96 2247.43-1498.64 2247.99-1500.34 2248.18-1502.04 2248.37-1504.14 2248.21-1506.66 2247.71-1509.17 2247.2-1511.48 2246.35-1513.59 2245.17-1516.29 2243.68-1518.72 2241.63-1520.86 2239.02-1523.01 2236.41-1524.55 2233.37-1525.48 2229.89-1526.47 2225.47-1526.11 2220.9-1524.42 2216.17-1522.73 2211.44-1519.95 2207.05-1516.09 2203-1513.97 2200.69-1512.96 2198.57-1513.06 2196.64-1513.16 2194.7-1513.88 2192.66-1515.21 2190.5-1517.54 2186.47-1519.02 2182.67-1519.66 2179.11-1520.29 2175.56-1519.79 2173.52-1518.15 2173.02ZM-1521.56 2130.49C-1520.13 2130.4-1518.78 2130.59-1517.52 2131.06-1514.16 2132.32-1512.19 2134.54-1511.61 2137.72-1511.32 2141.9-1512.24 2145.48-1514.36 2148.43-1516.49 2151.39-1518.51 2153.75-1520.42 2155.51-1520.2 2154.44-1519.31 2152.86-1517.77 2150.75-1516.23 2148.64-1515.34 2145.76-1515.12 2142.13-1515.37 2136.99-1517.97 2135.1-1522.94 2136.46-1527.91 2137.82-1533.79 2141.85-1540.59 2148.55-1547.39 2155.25-1553.65 2164.04-1559.39 2174.91-1562.94 2182.19-1565.32 2189.59-1566.53 2197.13-1567.74 2204.66-1568.29 2211.68-1568.17 2218.19-1568.05 2224.71-1567.77 2230.07-1567.33 2234.27-1566.88 2238.48-1566.79 2240.89-1567.03 2241.51-1568.5 2243.79-1570.4 2244.95-1572.74 2245.01-1575.08 2245.07-1577.39 2244-1579.67 2241.8-1581.15 2240.26-1581.92 2238.1-1581.98 2235.33-1582.04 2232.56-1581.31 2229.66-1579.79 2226.63-1578.27 2223.6-1575.87 2220.92-1572.61 2218.58-1572.71 2203.91-1570.72 2191.1-1566.63 2180.14-1562.54 2169.17-1557.18 2159.84-1550.56 2152.15-1543.94 2144.46-1536.88 2138.18-1529.39 2133.32-1526.55 2131.59-1523.94 2130.65-1521.56 2130.49Z" stroke="#000000" stroke-width="3" stroke-linejoin="round" stroke-miterlimit="10" fill="#404040" fill-rule="evenodd"/><text fill="#000000" fill-opacity="0" font-family="Arial,Arial_MSFontService,sans-serif" font-size="130.321" direction="rtl" writing-mode="rl-tb" x="-1385.01" y="2244.5">תרגול תוכנה בסיסי</text></g></svg>