<svg width="1330" height="211" xmlns="http://www.w3.org/2000/svg" xmlns:xlink="http://www.w3.org/1999/xlink" xml:space="preserve" overflow="hidden"><g transform="translate(2611 -2083)"><path d="M-2080.62 2197.05C-2077.23 2197.18-2074.44 2198.9-2072.26 2202.23-2070.08 2205.55-2069.13 2210.02-2069.42 2215.63-2069.62 2218.15-2070.28 2220.36-2071.39 2222.25-2072.51 2224.14-2074.2 2225.61-2076.46 2226.65-2079.88 2228.01-2082.77 2227.72-2085.15 2225.79-2087.52 2223.86-2090.01 2220.96-2092.63 2217.1-2094.94 2221.46-2097.15 2225.61-2099.25 2229.54-2101.35 2233.47-2103.84 2236.89-2106.73 2239.79-2109.61 2242.69-2113.39 2244.78-2118.06 2246.06-2111.66 2240.72-2107 2235.59-2104.07 2230.66-2101.15 2225.73-2098.66 2220.82-2096.59 2215.93-2095.55 2213.55-2094.33 2212.32-2092.92 2212.24-2091.51 2212.16-2089.99 2213.39-2088.36 2215.93-2087.29 2217.67-2085.79 2219.33-2083.86 2220.93-2081.93 2222.52-2079.8 2222.87-2077.48 2221.96-2075 2220.68-2073.55 2218.79-2073.13 2216.28-2072.72 2213.77-2072.85 2211.26-2073.52 2208.73-2074.03 2206.41-2075.09 2204.5-2076.71 2202.99-2078.33 2201.49-2080.36 2201.08-2082.81 2201.77-2085.27 2202.46-2088 2204.93-2091.01 2209.17-2092.09 2210.45-2092.68 2210.25-2092.79 2208.6-2092.9 2206.95-2092.21 2205.03-2090.71 2202.84-2087.38 2198.85-2084.01 2196.92-2080.62 2197.05ZM-2373.62 2197.05C-2370.23 2197.18-2367.44 2198.9-2365.26 2202.23-2363.08 2205.55-2362.13 2210.02-2362.42 2215.63-2362.62 2218.15-2363.28 2220.36-2364.39 2222.25-2365.51 2224.14-2367.2 2225.61-2369.46 2226.65-2372.88 2228.01-2375.77 2227.72-2378.15 2225.79-2380.52 2223.86-2383.01 2220.96-2385.63 2217.1-2387.94 2221.46-2390.15 2225.61-2392.25 2229.54-2394.35 2233.47-2396.84 2236.89-2399.73 2239.79-2402.61 2242.69-2406.39 2244.78-2411.06 2246.06-2404.66 2240.72-2400 2235.59-2397.07 2230.66-2394.15 2225.73-2391.66 2220.82-2389.59 2215.93-2388.55 2213.55-2387.33 2212.32-2385.92 2212.24-2384.51 2212.16-2382.99 2213.39-2381.36 2215.93-2380.29 2217.67-2378.79 2219.33-2376.86 2220.93-2374.93 2222.52-2372.8 2222.87-2370.48 2221.96-2368 2220.68-2366.55 2218.79-2366.13 2216.28-2365.72 2213.77-2365.85 2211.26-2366.52 2208.73-2367.03 2206.41-2368.09 2204.5-2369.71 2202.99-2371.33 2201.49-2373.36 2201.08-2375.81 2201.77-2378.27 2202.46-2381 2204.93-2384.01 2209.17-2385.09 2210.45-2385.68 2210.25-2385.79 2208.6-2385.9 2206.95-2385.21 2205.03-2383.71 2202.84-2380.38 2198.85-2377.01 2196.92-2373.62 2197.05ZM-1609.77 2196.67C-1612.12 2196.83-1613.88 2197.96-1615.05 2200.06-1616.62 2202.87-1617.24 2206.45-1616.93 2210.79-1616.66 2215.05-1615.69 2219.18-1614.01 2223.16-1612.32 2227.15-1610.21 2230.13-1607.66 2232.11-1606.08 2230.59-1604.7 2228.09-1603.52 2224.59-1602.33 2221.1-1601.57 2217.34-1601.21 2213.31-1600.85 2209.29-1601.12 2205.72-1602.02 2202.61-1602.91 2199.5-1604.65 2197.57-1607.22 2196.83-1608.13 2196.67-1608.98 2196.61-1609.77 2196.67ZM-2018.77 2196.67C-2021.12 2196.83-2022.88 2197.96-2024.05 2200.06-2025.62 2202.87-2026.24 2206.45-2025.93 2210.79-2025.66 2215.05-2024.69 2219.18-2023.01 2223.16-2021.32 2227.15-2019.21 2230.13-2016.66 2232.11-2015.08 2230.59-2013.7 2228.09-2012.52 2224.59-2011.33 2221.1-2010.57 2217.34-2010.21 2213.31-2009.85 2209.29-2010.12 2205.72-2011.02 2202.61-2011.91 2199.5-2013.65 2197.57-2016.22 2196.83-2017.13 2196.67-2017.98 2196.61-2018.77 2196.67ZM-2241.77 2196.67C-2244.12 2196.83-2245.88 2197.96-2247.05 2200.06-2248.62 2202.87-2249.24 2206.45-2248.93 2210.79-2248.66 2215.05-2247.69 2219.18-2246.01 2223.16-2244.32 2227.15-2242.21 2230.13-2239.66 2232.11-2238.08 2230.59-2236.7 2228.09-2235.52 2224.59-2234.33 2221.1-2233.57 2217.34-2233.21 2213.31-2232.85 2209.29-2233.12 2205.72-2234.02 2202.61-2234.91 2199.5-2236.65 2197.57-2239.22 2196.83-2240.13 2196.67-2240.98 2196.61-2241.77 2196.67ZM-2290.82 2193.46C-2290.54 2193.46-2290.27 2193.55-2290.02 2193.72-2289.51 2194.08-2289.24 2194.33-2289.21 2194.48-2289.59 2199.82-2289.91 2204.6-2290.16 2208.83-2290.41 2213.06-2290.95 2217.33-2291.79 2221.62-2292.63 2225.92-2294.12 2230.84-2296.26 2236.37-2299.29 2243.6-2303.23 2248.84-2308.1 2252.09-2312.96 2255.34-2317.64 2256.4-2322.15 2255.27-2326.65 2254.15-2329.88 2250.64-2331.82 2244.75-2332.47 2242.71-2332.86 2240.58-2333 2238.38-2333.13 2236.17-2333.08 2233.78-2332.85 2231.23-2331.95 2232.93-2331.32 2234.64-2330.96 2236.35-2330.6 2238.07-2330.15 2239.74-2329.62 2241.37-2327.76 2246.35-2325.14 2249.47-2321.76 2250.74-2318.38 2252.01-2314.8 2251.49-2311.03 2249.18-2307.26 2246.87-2303.85 2242.85-2300.82 2237.11-2299.18 2233.97-2297.92 2230.89-2297.01 2227.86-2296.11 2224.83-2295.4 2221.28-2294.88 2217.2-2294.35 2213.13-2293.83 2207.95-2293.33 2201.68-2293.21 2199.87-2293.07 2198.23-2292.9 2196.77-2292.73 2195.31-2292.34 2194.3-2291.71 2193.74-2291.4 2193.56-2291.1 2193.47-2290.82 2193.46ZM-1609.74 2192C-1608.93 2191.95-1608.09 2192-1607.22 2192.13-1602.78 2193.28-1599.79 2196.36-1598.23 2201.35-1596.68 2206.34-1596.45 2211.89-1597.54 2217.99-1598.63 2224.09-1600.93 2229.38-1604.42 2233.87-1599.79 2237.58-1595.43 2239.45-1591.33 2239.47-1587.23 2239.49-1583.41 2238.31-1579.87 2235.93-1575.47 2232.78-1572.88 2228.46-1572.1 2222.98-1571.32 2217.49-1571.85 2212.11-1573.7 2206.83-1574.71 2203.75-1574.93 2202.29-1574.36 2202.43-1573.79 2202.58-1572.98 2203.36-1571.93 2204.77-1569.61 2207.89-1568.25 2211.6-1567.84 2215.91-1567.43 2220.21-1568.01 2224.46-1569.57 2228.65-1571.14 2232.83-1573.73 2236.3-1577.34 2239.07-1580.95 2241.83-1585.62 2243.23-1591.35 2243.26-1593.05 2243.34-1595.34 2242.93-1598.22 2242.04-1601.09 2241.14-1604.48 2239.3-1608.39 2236.52L-1617.81 2240.63C-1618.34 2240.2-1617.74 2239.37-1616 2238.15-1614.27 2236.93-1612.56 2235.7-1610.9 2234.46-1614.43 2230.99-1617.1 2226.35-1618.9 2220.53-1620.71 2214.71-1621.17 2209.12-1620.29 2203.74-1619.73 2199.84-1618.29 2196.8-1615.97 2194.62-1614.22 2192.99-1612.15 2192.12-1609.74 2192ZM-2018.74 2192C-2017.93 2191.95-2017.09 2192-2016.22 2192.13-2011.78 2193.28-2008.79 2196.36-2007.23 2201.35-2005.68 2206.34-2005.45 2211.89-2006.54 2217.99-2007.63 2224.09-2009.93 2229.38-2013.42 2233.87-2008.79 2237.58-2004.43 2239.45-2000.33 2239.47-1996.23 2239.49-1992.41 2238.31-1988.87 2235.93-1984.47 2232.78-1981.88 2228.46-1981.1 2222.98-1980.32 2217.49-1980.85 2212.11-1982.7 2206.83-1983.71 2203.75-1983.93 2202.29-1983.36 2202.43-1982.79 2202.58-1981.98 2203.36-1980.93 2204.77-1978.61 2207.89-1977.25 2211.6-1976.84 2215.91-1976.43 2220.21-1977.01 2224.46-1978.57 2228.65-1980.14 2232.83-1982.73 2236.3-1986.34 2239.07-1989.95 2241.83-1994.62 2243.23-2000.35 2243.26-2002.05 2243.34-2004.34 2242.93-2007.22 2242.04-2010.09 2241.14-2013.48 2239.3-2017.39 2236.52L-2026.81 2240.63C-2027.34 2240.2-2026.74 2239.37-2025 2238.15-2023.27 2236.93-2021.56 2235.7-2019.9 2234.46-2023.43 2230.99-2026.1 2226.35-2027.9 2220.53-2029.71 2214.71-2030.17 2209.12-2029.29 2203.74-2028.73 2199.84-2027.29 2196.8-2024.97 2194.62-2023.22 2192.99-2021.15 2192.12-2018.74 2192ZM-2241.74 2192C-2240.93 2191.95-2240.09 2192-2239.22 2192.13-2234.78 2193.28-2231.79 2196.36-2230.23 2201.35-2228.68 2206.34-2228.45 2211.89-2229.54 2217.99-2230.63 2224.09-2232.93 2229.38-2236.42 2233.87-2231.79 2237.58-2227.43 2239.45-2223.33 2239.47-2219.23 2239.49-2215.41 2238.31-2211.87 2235.93-2207.47 2232.78-2204.88 2228.46-2204.1 2222.98-2203.32 2217.49-2203.85 2212.11-2205.7 2206.83-2206.71 2203.75-2206.93 2202.29-2206.36 2202.43-2205.79 2202.58-2204.98 2203.36-2203.93 2204.77-2201.61 2207.89-2200.25 2211.6-2199.84 2215.91-2199.43 2220.21-2200.01 2224.46-2201.57 2228.65-2203.14 2232.83-2205.73 2236.3-2209.34 2239.07-2212.95 2241.83-2217.62 2243.23-2223.35 2243.26-2225.05 2243.34-2227.34 2242.93-2230.22 2242.04-2233.09 2241.14-2236.48 2239.3-2240.39 2236.52L-2249.81 2240.63C-2250.34 2240.2-2249.74 2239.37-2248 2238.15-2246.27 2236.93-2244.56 2235.7-2242.9 2234.46-2246.43 2230.99-2249.1 2226.35-2250.9 2220.53-2252.71 2214.71-2253.17 2209.12-2252.29 2203.74-2251.73 2199.84-2250.29 2196.8-2247.97 2194.62-2246.22 2192.99-2244.15 2192.12-2241.74 2192ZM-1510.94 2190.48C-1508.23 2190.45-1505.32 2191.48-1502.22 2193.59-1498.58 2196.45-1495.6 2200.42-1493.26 2205.51-1490.92 2210.61-1489.29 2215.85-1488.36 2221.25-1487.43 2226.66-1487.25 2231.25-1487.83 2235.04-1488.03 2237.02-1488.69 2238.93-1489.82 2240.75-1490.96 2242.57-1492.69 2243.85-1495.01 2244.59-1493.03 2241.75-1492.04 2237.6-1492.06 2232.13-1492.07 2226.67-1492.91 2221.05-1494.58 2215.27-1496.24 2209.49-1498.55 2204.72-1501.51 2200.94-1504.46 2197.17-1507.88 2195.55-1511.77 2196.09-1514.38 2196.52-1516.36 2197.85-1517.7 2200.08-1519.04 2202.3-1519.94 2206.08-1520.39 2211.41-1520.85 2216.74-1521.06 2224.27-1521.03 2234.01-1520.92 2236.48-1521.41 2239.03-1522.5 2241.67-1523.6 2244.3-1526 2246.75-1529.7 2249-1527.26 2246.15-1525.91 2242.01-1525.67 2236.59-1525.42 2231.16-1525.37 2225.36-1525.51 2219.18-1525.66 2213-1525.1 2207.36-1523.82 2202.26-1522.31 2197.34-1519.57 2193.82-1515.61 2191.7-1514.13 2190.91-1512.57 2190.5-1510.94 2190.48ZM-1918.94 2190.48C-1916.23 2190.45-1913.32 2191.48-1910.22 2193.59-1906.58 2196.45-1903.6 2200.42-1901.26 2205.51-1898.92 2210.61-1897.29 2215.85-1896.36 2221.25-1895.43 2226.66-1895.25 2231.25-1895.83 2235.04-1896.03 2237.02-1896.69 2238.93-1897.82 2240.75-1898.96 2242.57-1900.69 2243.85-1903.01 2244.59-1901.03 2241.75-1900.04 2237.6-1900.06 2232.13-1900.07 2226.67-1900.91 2221.05-1902.58 2215.27-1904.24 2209.49-1906.55 2204.72-1909.51 2200.94-1912.46 2197.17-1915.88 2195.55-1919.77 2196.09-1922.38 2196.52-1924.36 2197.85-1925.7 2200.08-1927.04 2202.3-1927.94 2206.08-1928.39 2211.41-1928.85 2216.74-1929.06 2224.27-1929.03 2234.01-1928.92 2236.48-1929.41 2239.03-1930.5 2241.67-1931.6 2244.3-1934 2246.75-1937.7 2249-1935.26 2246.15-1933.91 2242.01-1933.67 2236.59-1933.42 2231.16-1933.37 2225.36-1933.51 2219.18-1933.66 2213-1933.1 2207.36-1931.82 2202.26-1930.31 2197.34-1927.57 2193.82-1923.61 2191.7-1922.13 2190.91-1920.57 2190.5-1918.94 2190.48ZM-1638.06 2189.94C-1637.33 2189.98-1636.96 2190.37-1636.96 2191.1-1637.33 2200.32-1637.73 2209.5-1638.16 2218.65-1638.58 2227.8-1639.02 2236.69-1639.46 2245.32-1640.62 2242.83-1641.46 2238.9-1641.98 2233.53-1642.5 2228.17-1642.74 2222.42-1642.72 2216.28-1642.69 2210.14-1642.44 2204.68-1641.97 2199.88-1641.5 2195.08-1640.86 2192.01-1640.04 2190.66-1639.46 2190.13-1638.8 2189.89-1638.06 2189.94ZM-2271.06 2189.94C-2270.33 2189.98-2269.96 2190.37-2269.96 2191.1-2270.33 2200.32-2270.73 2209.5-2271.16 2218.65-2271.58 2227.8-2272.02 2236.69-2272.46 2245.32-2273.62 2242.83-2274.46 2238.9-2274.98 2233.53-2275.5 2228.17-2275.74 2222.42-2275.72 2216.28-2275.69 2210.14-2275.44 2204.68-2274.97 2199.88-2274.5 2195.08-2273.86 2192.01-2273.04 2190.66-2272.46 2190.13-2271.8 2189.89-2271.06 2189.94ZM-1809.72 2189.88C-1807.1 2190.13-1804.61 2191.46-1802.25 2193.87-1797.91 2198.76-1795.84 2203.76-1796.01 2208.89-1796.19 2214.01-1798.66 2218.61-1803.43 2222.69-1804.47 2222.53-1804.48 2221.64-1803.46 2220.04-1802.44 2218.45-1801.65 2217.12-1801.07 2216.07-1799.52 2211.76-1799.42 2207.65-1800.78 2203.75-1802.13 2199.85-1804.29 2197.06-1807.27 2195.38-1810.24 2193.7-1813.37 2194.03-1816.67 2196.37-1818.35 2197.46-1819.83 2198.85-1821.11 2200.56-1822.39 2202.27-1822.63 2205.29-1821.81 2209.6-1820.06 2218.66-1820.23 2226.64-1822.32 2233.55-1824.41 2240.46-1827.46 2246.08-1831.48 2250.4-1835.5 2254.73-1839.52 2257.55-1843.55 2258.85-1845.68 2259.62-1848.49 2260.21-1851.99 2260.63-1855.49 2261.05-1858.85 2260.65-1862.08 2259.44-1864.2 2258.39-1865.18 2257.6-1865.02 2257.06-1864.86 2256.52-1863.63 2256.39-1861.34 2256.66-1853.68 2257.64-1847.13 2256.58-1841.71 2253.46-1836.29 2250.34-1832.11 2246-1829.18 2240.44-1826.24 2234.87-1824.66 2228.91-1824.44 2222.54-1824.44 2219.31-1824.74 2216.3-1825.34 2213.52-1825.95 2210.74-1826.43 2208.21-1826.8 2205.93-1826.98 2204.47-1826.91 2203.05-1826.58 2201.68-1826.25 2200.31-1825.44 2198.93-1824.16 2197.55-1819.91 2193.14-1815.99 2190.62-1812.38 2189.99-1811.48 2189.83-1810.59 2189.79-1809.72 2189.88ZM-1684.09 2189.74C-1680.5 2189.46-1676.67 2190.89-1672.6 2194.02-1669.5 2196.51-1666.92 2199.25-1664.85 2202.22-1662.78 2205.19-1661.31 2208-1660.42 2210.64-1658.45 2216.83-1658.93 2221.98-1661.84 2226.11-1664.76 2230.23-1669.57 2232.37-1676.28 2232.53L-1688.92 2232.53C-1692.63 2232.44-1696.14 2232.8-1699.46 2233.62-1702.78 2234.43-1705.42 2236.24-1707.39 2239.04-1709.35 2241.85-1710.15 2246.2-1709.79 2252.08-1709.72 2254.06-1709.9 2254.81-1710.35 2254.32-1710.79 2253.84-1711.04 2253.49-1711.12 2253.26-1713.66 2244.98-1713.32 2238.9-1710.09 2235.02-1706.86 2231.13-1701.37 2228.84-1693.62 2228.14-1690.83 2227.84-1687.82 2227.7-1684.6 2227.72-1681.38 2227.73-1677.09 2227.48-1671.72 2226.96-1668.9 2226.63-1666.75 2225.39-1665.29 2223.23-1663.83 2221.08-1663.23 2218.69-1663.49 2216.08-1664.03 2213.02-1665 2210.35-1666.41 2208.06-1667.82 2205.78-1668.61 2204.58-1668.78 2204.46-1673.65 2198.24-1678.36 2194.92-1682.91 2194.52-1687.47 2194.12-1691.77 2196.95-1695.83 2202.99-1698.1 2206.14-1699.59 2207.67-1700.31 2207.57-1701.04 2207.47-1701.06 2206.68-1700.39 2205.2-1696.44 2197.33-1692.17 2192.46-1687.6 2190.58-1686.45 2190.11-1685.28 2189.83-1684.09 2189.74ZM-1869.97 2189.16C-1869.03 2189.11-1868.05 2189.12-1867.04 2189.19-1860.04 2189.94-1854.77 2192.87-1851.22 2197.97-1847.67 2203.06-1845.89 2208.85-1845.89 2215.34-1846 2220.83-1847.16 2225.76-1849.35 2230.15-1851.54 2234.53-1854.05 2237.63-1856.89 2239.44-1855.03 2235.33-1853.47 2231.72-1852.21 2228.6-1850.95 2225.49-1850.16 2222.39-1849.84 2219.31-1849.25 2212.83-1850.46 2207.17-1853.46 2202.34-1856.46 2197.51-1860.79 2194.49-1866.45 2193.3-1871.37 2192.58-1875.2 2193.47-1877.95 2195.94-1880.7 2198.42-1881.96 2201.51-1881.74 2205.2-1881.86 2205.53-1882.2 2205.06-1882.78 2203.79-1883.36 2202.52-1883.45 2200.69-1883.06 2198.3-1882.31 2195.18-1880.46 2192.82-1877.53 2191.21-1875.33 2190-1872.81 2189.32-1869.97 2189.16ZM-1549.24 2186.33C-1548.22 2186.37-1547.42 2186.73-1546.83 2187.4-1546.04 2188.3-1545.64 2190.22-1545.64 2193.15-1545.61 2195.29-1545.65 2197.88-1545.78 2200.91-1545.9 2203.94-1546.3 2206.9-1546.96 2209.78-1547.62 2212.66-1548.74 2214.95-1550.32 2216.66L-1550.32 2186.39C-1549.94 2186.34-1549.58 2186.32-1549.24 2186.33ZM-1956.24 2186.33C-1955.22 2186.37-1954.42 2186.73-1953.83 2187.4-1953.04 2188.3-1952.64 2190.22-1952.64 2193.15-1952.61 2195.29-1952.65 2197.88-1952.78 2200.91-1952.9 2203.94-1953.3 2206.9-1953.96 2209.78-1954.62 2212.66-1955.74 2214.95-1957.32 2216.66L-1957.32 2186.39C-1956.94 2186.34-1956.58 2186.32-1956.24 2186.33ZM-2047.24 2186.33C-2046.22 2186.37-2045.42 2186.73-2044.83 2187.4-2044.04 2188.3-2043.64 2190.22-2043.64 2193.15-2043.61 2195.29-2043.65 2197.88-2043.78 2200.91-2043.9 2203.94-2044.3 2206.9-2044.96 2209.78-2045.62 2212.66-2046.74 2214.95-2048.32 2216.66L-2048.32 2186.39C-2047.94 2186.34-2047.58 2186.32-2047.24 2186.33ZM-2341.24 2186.33C-2340.22 2186.37-2339.42 2186.73-2338.83 2187.4-2338.04 2188.3-2337.64 2190.22-2337.64 2193.15-2337.61 2195.29-2337.65 2197.88-2337.78 2200.91-2337.9 2203.94-2338.3 2206.9-2338.96 2209.78-2339.62 2212.66-2340.74 2214.95-2342.32 2216.66L-2342.32 2186.39C-2341.94 2186.34-2341.58 2186.32-2341.24 2186.33Z" stroke="#000000" stroke-width="3" stroke-linejoin="round" stroke-miterlimit="10" fill="#404040" fill-rule="evenodd"/><text fill="#000000" fill-opacity="0" font-family="Arial,Arial_MSFontService,sans-serif" font-size="74.4661" direction="rtl" writing-mode="rl-tb" x="-1487.5" y="2251.48">חישוב תרחישים שונים</text></g></svg>