<svg width="2361" height="333" xmlns="http://www.w3.org/2000/svg" xmlns:xlink="http://www.w3.org/1999/xlink" xml:space="preserve" overflow="hidden"><g transform="translate(2928 -2083)"><path d="M-2085.82 2308.33C-2091.65 2313.68-2095.12 2318.76-2096.24 2323.55-2097.36 2328.35-2096.87 2331.97-2094.76 2334.43-2092.66 2336.88-2089.68 2337.28-2085.82 2335.61-2084.53 2334.88-2084.16 2332.07-2084.71 2327.18-2085.27 2322.29-2085.64 2316.01-2085.82 2308.33ZM-1318.86 2303.28C-1317.86 2303.43-1317.71 2304.37-1318.41 2306.1-1322.14 2314.26-1322.49 2320.4-1319.45 2324.52-1316.42 2328.63-1311.89 2331.37-1305.86 2332.74-1299.83 2334.1-1294.17 2334.73-1288.9 2334.62-1287.1 2334.55-1284.72 2334.49-1281.74 2334.44-1278.77 2334.39-1276.07 2334.76-1273.65 2335.53-1271.23 2336.3-1269.95 2337.89-1269.8 2340.29-1281.09 2341.68-1291.99 2341.57-1302.51 2339.99-1313.02 2338.4-1320.88 2334.46-1326.08 2328.17-1328.94 2324.65-1330.53 2320.97-1330.85 2317.14-1331.17 2313.3-1329.42 2309.62-1325.59 2306.1-1324.05 2304.81-1322.24 2303.91-1320.14 2303.4-1319.62 2303.27-1319.19 2303.23-1318.86 2303.28ZM-1751.86 2303.28C-1750.85 2303.43-1750.71 2304.37-1751.41 2306.1-1755.14 2314.26-1755.49 2320.4-1752.45 2324.52-1749.42 2328.63-1744.89 2331.37-1738.86 2332.74-1732.83 2334.1-1727.17 2334.73-1721.9 2334.62-1720.1 2334.55-1717.72 2334.49-1714.74 2334.44-1711.77 2334.39-1709.07 2334.76-1706.65 2335.53-1704.23 2336.3-1702.95 2337.89-1702.8 2340.29-1714.09 2341.68-1724.99 2341.57-1735.51 2339.99-1746.02 2338.4-1753.88 2334.46-1759.08 2328.17-1761.94 2324.65-1763.53 2320.97-1763.85 2317.14-1764.17 2313.3-1762.42 2309.62-1758.59 2306.1-1757.05 2304.81-1755.24 2303.91-1753.14 2303.4-1752.62 2303.27-1752.19 2303.23-1751.86 2303.28ZM-1240.66 2252.07C-1239.42 2252.14-1238.8 2252.79-1238.8 2254.02-1239.43 2269.58-1240.1 2285.07-1240.82 2300.5-1241.54 2315.94-1242.27 2330.94-1243.02 2345.5-1244.98 2341.3-1246.4 2334.67-1247.27 2325.62-1248.15 2316.56-1248.56 2306.86-1248.51 2296.51-1248.47 2286.15-1248.05 2276.93-1247.25 2268.84-1246.46 2260.74-1245.38 2255.55-1244.01 2253.28-1243.02 2252.39-1241.9 2251.99-1240.66 2252.07ZM-1601.66 2252.07C-1600.42 2252.14-1599.8 2252.79-1599.8 2254.02-1600.43 2269.58-1601.1 2285.07-1601.82 2300.5-1602.54 2315.94-1603.27 2330.94-1604.02 2345.5-1605.98 2341.3-1607.4 2334.67-1608.27 2325.62-1609.15 2316.56-1609.56 2306.86-1609.51 2296.51-1609.47 2286.15-1609.05 2276.93-1608.25 2268.84-1607.46 2260.74-1606.38 2255.55-1605.01 2253.28-1604.02 2252.39-1602.9 2251.99-1601.66 2252.07ZM-1829.66 2252.07C-1828.42 2252.14-1827.8 2252.79-1827.8 2254.02-1828.43 2269.58-1829.1 2285.07-1829.82 2300.5-1830.54 2315.94-1831.27 2330.94-1832.02 2345.5-1833.98 2341.3-1835.4 2334.67-1836.27 2325.62-1837.15 2316.56-1837.56 2306.86-1837.51 2296.51-1837.47 2286.15-1837.05 2276.93-1836.25 2268.84-1835.46 2260.74-1834.38 2255.55-1833.01 2253.28-1832.02 2252.39-1830.9 2251.99-1829.66 2252.07ZM-1541.94 2251.91C-1536.7 2251.68-1531.76 2253.95-1527.11 2258.7-1519.8 2266.95-1516.29 2275.39-1516.59 2284.04-1516.89 2292.68-1521.06 2300.44-1529.1 2307.32-1530.86 2307.04-1530.88 2305.55-1529.16 2302.86-1527.44 2300.16-1526.1 2297.93-1525.13 2296.16-1522.51 2288.88-1522.34 2281.95-1524.63 2275.37-1526.91 2268.78-1530.56 2264.08-1535.58 2261.24-1540.59 2258.41-1545.88 2258.97-1551.44 2262.92-1554.28 2264.75-1556.78 2267.1-1558.94 2269.99-1561.1 2272.87-1561.49 2277.96-1560.11 2285.24-1557.16 2300.52-1557.45 2313.99-1560.97 2325.64-1564.5 2337.3-1569.65 2346.78-1576.43 2354.07-1583.21 2361.37-1590 2366.13-1596.8 2368.33-1600.38 2369.62-1605.12 2370.62-1611.03 2371.33-1616.93 2372.03-1622.6 2371.37-1628.04 2369.32-1631.62 2367.55-1633.27 2366.21-1633 2365.31-1632.74 2364.4-1630.67 2364.17-1626.8 2364.63-1613.88 2366.29-1602.84 2364.49-1593.69 2359.23-1584.55 2353.97-1577.5 2346.65-1572.54 2337.26-1567.58 2327.87-1564.92 2317.81-1564.56 2307.07-1564.55 2301.61-1565.06 2296.54-1566.08 2291.85-1567.09 2287.16-1567.91 2282.89-1568.52 2279.04-1568.83 2276.58-1568.71 2274.19-1568.16 2271.88-1567.6 2269.57-1566.24 2267.24-1564.08 2264.9-1556.91 2257.47-1550.29 2253.22-1544.21 2252.15-1543.44 2252.02-1542.69 2251.94-1541.94 2251.91ZM-1885.94 2251.91C-1880.7 2251.68-1875.76 2253.95-1871.11 2258.7-1863.8 2266.95-1860.29 2275.39-1860.59 2284.04-1860.89 2292.68-1865.06 2300.44-1873.1 2307.32-1874.86 2307.04-1874.88 2305.55-1873.16 2302.86-1871.44 2300.16-1870.1 2297.93-1869.13 2296.16-1866.51 2288.88-1866.34 2281.95-1868.63 2275.37-1870.91 2268.78-1874.56 2264.08-1879.58 2261.24-1884.59 2258.41-1889.88 2258.97-1895.44 2262.92-1898.28 2264.75-1900.78 2267.1-1902.94 2269.99-1905.1 2272.87-1905.49 2277.96-1904.11 2285.24-1901.16 2300.52-1901.45 2313.99-1904.97 2325.64-1908.5 2337.3-1913.65 2346.78-1920.43 2354.07-1927.21 2361.37-1934 2366.13-1940.8 2368.33-1944.38 2369.62-1949.12 2370.62-1955.03 2371.33-1960.93 2372.03-1966.6 2371.37-1972.04 2369.32-1975.62 2367.55-1977.27 2366.21-1977 2365.31-1976.74 2364.4-1974.67 2364.17-1970.8 2364.63-1957.88 2366.29-1946.84 2364.49-1937.69 2359.23-1928.55 2353.97-1921.5 2346.65-1916.54 2337.26-1911.58 2327.87-1908.92 2317.81-1908.56 2307.07-1908.55 2301.61-1909.06 2296.54-1910.08 2291.85-1911.09 2287.16-1911.91 2282.89-1912.52 2279.04-1912.83 2276.58-1912.71 2274.19-1912.16 2271.88-1911.6 2269.57-1910.24 2267.24-1908.08 2264.9-1900.91 2257.47-1894.29 2253.22-1888.21 2252.15-1887.44 2252.02-1886.69 2251.94-1885.94 2251.91ZM-1092.65 2245.98C-1090.93 2246.05-1089.58 2246.65-1088.58 2247.79-1087.25 2249.3-1086.58 2252.53-1086.57 2257.48-1086.52 2261.1-1086.6 2265.46-1086.81 2270.57-1087.02 2275.69-1087.69 2280.67-1088.8 2285.54-1089.92 2290.4-1091.81 2294.27-1094.48 2297.14L-1094.48 2246.08C-1093.83 2245.99-1093.22 2245.95-1092.65 2245.98ZM-1134.65 2245.98C-1132.93 2246.05-1131.58 2246.65-1130.58 2247.79-1129.25 2249.3-1128.58 2252.53-1128.57 2257.48-1128.52 2261.1-1128.6 2265.46-1128.81 2270.57-1129.02 2275.69-1129.69 2280.67-1130.8 2285.54-1131.92 2290.4-1133.81 2294.27-1136.48 2297.14L-1136.48 2246.08C-1135.83 2245.99-1135.22 2245.95-1134.65 2245.98ZM-1184.84 2241.06C-1182.16 2241.13-1179.47 2241.9-1176.78 2243.34-1171.12 2246.96-1167.91 2251.61-1167.17 2257.28-1166.42 2262.95-1168.72 2268.71-1174.07 2274.57-1177.99 2278.52-1180.14 2281.29-1180.52 2282.88-1180.9 2284.47-1179.82 2286.5-1177.28 2288.96-1173.81 2292.51-1171.61 2296.88-1170.67 2302.07-1169.73 2307.26-1170.12 2312.07-1171.84 2316.48-1176.32 2327.69-1184.27 2337.15-1195.69 2344.85-1207.12 2352.55-1219.66 2357.48-1233.32 2359.64-1241.14 2360.86-1244.98 2361.21-1244.83 2360.69-1244.68 2360.17-1241.26 2358.91-1234.56 2356.91-1226.22 2354.65-1217.87 2351.17-1209.52 2346.46-1201.17 2341.75-1193.81 2335.98-1187.44 2329.13-1180.12 2321.13-1176.94 2313.32-1177.91 2305.7-1178.88 2298.07-1183.38 2291-1191.42 2284.49-1193.14 2282.53-1193.22 2280.83-1191.68 2279.39-1190.13 2277.94-1188.03 2276.61-1185.38 2275.38-1182.73 2274.16-1180.61 2272.89-1179.01 2271.6-1176.39 2268.87-1174.69 2266.07-1173.9 2263.2-1173.11 2260.32-1173.33 2257.33-1174.55 2254.24-1175.79 2251.33-1178.02 2249.08-1181.21 2247.48-1184.41 2245.89-1187.81 2245.99-1191.41 2247.79-1193.56 2249.2-1196.08 2250.97-1198.98 2253.09-1201.87 2255.21-1204.14 2255.93-1205.8 2255.23-1202.53 2249.58-1198.22 2245.46-1192.87 2242.88-1190.2 2241.59-1187.52 2240.98-1184.84 2241.06ZM-1655.84 2241.06C-1653.16 2241.13-1650.47 2241.9-1647.78 2243.34-1642.12 2246.96-1638.91 2251.61-1638.17 2257.28-1637.42 2262.95-1639.72 2268.71-1645.07 2274.57-1648.99 2278.52-1651.14 2281.29-1651.52 2282.88-1651.9 2284.47-1650.82 2286.5-1648.28 2288.96-1644.81 2292.51-1642.61 2296.88-1641.67 2302.07-1640.73 2307.26-1641.12 2312.07-1642.84 2316.48-1647.32 2327.69-1655.27 2337.15-1666.69 2344.85-1678.12 2352.55-1690.66 2357.48-1704.32 2359.64-1712.14 2360.86-1715.98 2361.21-1715.83 2360.69-1715.68 2360.17-1712.26 2358.91-1705.56 2356.91-1697.22 2354.65-1688.87 2351.17-1680.52 2346.46-1672.17 2341.75-1664.81 2335.98-1658.44 2329.13-1651.12 2321.13-1647.94 2313.32-1648.91 2305.7-1649.88 2298.07-1654.38 2291-1662.42 2284.49-1664.14 2282.53-1664.22 2280.83-1662.68 2279.39-1661.13 2277.94-1659.03 2276.61-1656.38 2275.38-1653.73 2274.16-1651.61 2272.89-1650.01 2271.6-1647.39 2268.87-1645.69 2266.07-1644.9 2263.2-1644.11 2260.32-1644.33 2257.33-1645.55 2254.24-1646.79 2251.33-1649.02 2249.08-1652.21 2247.48-1655.41 2245.89-1658.81 2245.99-1662.41 2247.79-1664.56 2249.2-1667.08 2250.97-1669.98 2253.09-1672.87 2255.21-1675.14 2255.93-1676.8 2255.23-1673.53 2249.58-1669.22 2245.46-1663.87 2242.88-1661.2 2241.59-1658.52 2240.98-1655.84 2241.06ZM-1358.67 2205.88C-1357.79 2205.88-1356.84 2206.19-1355.81 2206.79-1353.77 2208-1352.37 2210.27-1351.64 2213.6-1350.46 2220.79-1350.03 2227.98-1350.37 2235.17-1350.71 2242.36-1351.46 2249.56-1352.63 2256.75-1355.64 2274.62-1357.99 2290.02-1359.69 2302.94-1361.38 2315.87-1361.22 2326.72-1359.19 2335.51-1357.17 2344.31-1352.08 2351.44-1343.94 2356.91-1342.09 2358.12-1341.32 2358.8-1341.64 2358.95-1341.96 2359.11-1343.31 2358.92-1345.68 2358.4-1354.52 2356.5-1360.7 2351.74-1364.21 2344.11-1367.72 2336.48-1369.06 2326.21-1368.23 2313.29-1367.38 2302.4-1365.95 2291.53-1363.92 2280.69-1361.9 2269.85-1360.43 2258.93-1359.51 2247.93-1358.58 2236.93-1359.35 2225.73-1361.81 2214.34-1362.8 2210.48-1362.56 2207.95-1361.09 2206.76-1360.36 2206.17-1359.55 2205.87-1358.67 2205.88ZM-1791.67 2205.88C-1790.79 2205.88-1789.84 2206.19-1788.81 2206.79-1786.77 2208-1785.37 2210.27-1784.64 2213.6-1783.46 2220.79-1783.03 2227.98-1783.37 2235.17-1783.71 2242.36-1784.46 2249.56-1785.63 2256.75-1788.64 2274.62-1790.99 2290.02-1792.69 2302.94-1794.38 2315.87-1794.22 2326.72-1792.19 2335.51-1790.17 2344.31-1785.08 2351.44-1776.94 2356.91-1775.09 2358.12-1774.32 2358.8-1774.64 2358.95-1774.96 2359.11-1776.31 2358.92-1778.68 2358.4-1787.52 2356.5-1793.7 2351.74-1797.21 2344.11-1800.72 2336.48-1802.06 2326.21-1801.23 2313.29-1800.38 2302.4-1798.94 2291.53-1796.92 2280.69-1794.9 2269.85-1793.43 2258.93-1792.51 2247.93-1791.58 2236.93-1792.35 2225.73-1794.81 2214.34-1795.8 2210.48-1795.56 2207.95-1794.09 2206.76-1793.36 2206.17-1792.55 2205.87-1791.67 2205.88ZM-2001.69 2151.78C-1999.28 2151.62-1997.01 2151.94-1994.88 2152.73-1989.2 2154.85-1985.88 2158.6-1984.92 2163.96-1984.42 2171.03-1985.96 2177.05-1989.55 2182.04-1993.14 2187.03-1996.54 2191.01-1999.77 2193.98-1999.4 2192.18-1997.91 2189.51-1995.3 2185.95-1992.7 2182.39-1991.21 2177.54-1990.84 2171.41-1991.24 2162.73-1995.64 2159.54-2004.02 2161.84-2012.41 2164.13-2022.33 2170.93-2033.8 2182.23-2045.27 2193.54-2055.84 2208.37-2065.51 2226.72-2071.5 2238.99-2075.52 2251.48-2077.57 2264.19-2079.61 2276.9-2080.53 2288.75-2080.33 2299.74-2080.12 2310.72-2079.65 2319.76-2078.9 2326.86-2078.16 2333.96-2077.99 2338.03-2078.41 2339.07-2080.89 2342.91-2084.1 2344.88-2088.04 2344.98-2091.98 2345.08-2095.88 2343.27-2099.73 2339.57-2102.22 2336.96-2103.52 2333.32-2103.63 2328.64-2103.73 2323.97-2102.5 2319.08-2099.93 2313.97-2097.37 2308.85-2093.33 2304.33-2087.81 2300.39-2087.99 2275.65-2084.63 2254.03-2077.73 2235.53-2070.83 2217.03-2061.79 2201.3-2050.62 2188.31-2039.45 2175.33-2027.54 2164.74-2014.9 2156.54-2010.11 2153.63-2005.7 2152.04-2001.69 2151.78Z" stroke="#000000" stroke-width="3" stroke-linejoin="round" stroke-miterlimit="10" fill="#404040" fill-rule="evenodd"/><text fill="#000000" fill-opacity="0" font-family="Arial,Arial_MSFontService,sans-serif" font-size="219.862" direction="rtl" writing-mode="rl-tb" x="-1086.56" y="2344.12">ייצוא תוצאות ל</text><path d="M-2256.84 2272.32C-2258.87 2272.32-2260.77 2272.45-2262.56 2272.72-2264.35 2272.99-2266.11 2273.42-2267.83 2274.02-2269.56 2274.61-2271.29 2275.37-2273.02 2276.29-2274.74 2277.22-2276.53 2278.33-2278.38 2279.65-2280.05 2281.02-2281.92 2282.22-2284.01 2283.26-2286.09 2284.31-2288.36 2284.98-2290.8 2285.27L-2299.82 2320.48C-2298.93 2320.6-2297.98 2320.75-2296.96 2320.93-2295.95 2321.11-2294.97 2321.29-2294.02 2321.46-2293.06 2321.64-2292.24 2321.81-2291.56 2321.96-2290.87 2322.1-2290.41 2322.18-2290.17 2322.18-2289.04 2322.18-2287.78 2322.03-2286.38 2321.73-2284.98 2321.43-2283.58 2321.05-2282.18 2320.57-2280.78 2320.09-2279.42 2319.57-2278.11 2319.01-2276.8 2318.44-2275.64 2317.89-2274.62 2317.35-2271.71 2315.86-2268.59 2314.06-2265.29 2311.95-2261.98 2309.83-2258.91 2307.41-2256.08 2304.67-2253.25 2301.92-2250.92 2298.86-2249.07 2295.46-2247.22 2292.07-2246.3 2288.31-2246.3 2284.2-2246.3 2282.53-2246.51 2280.99-2246.92 2279.56-2247.34 2278.13-2247.97 2276.88-2248.8 2275.8-2249.64 2274.73-2250.72 2273.88-2252.06 2273.26-2253.4 2272.63-2255 2272.32-2256.84 2272.32ZM-2353.51 2268.83C-2356.43 2268.83-2359.36 2269.4-2362.31 2270.53-2365.26 2271.66-2368.11 2273.18-2370.85 2275.09-2373.59 2276.99-2376.19 2279.24-2378.66 2281.83-2381.14 2284.43-2383.39 2287.2-2385.41 2290.14-2387.44 2293.09-2389.18 2296.13-2390.64 2299.26-2392.1 2302.39-2393.21 2305.44-2393.99 2308.42-2394.23 2309.25-2394.48 2310.44-2394.75 2311.99-2395.02 2313.54-2395.15 2315.09-2395.15 2316.64-2395.15 2318.25-2394.91 2319.69-2394.44 2320.97-2393.96 2322.25-2392.92 2322.89-2391.31 2322.89-2388.81 2322.89-2386.47 2322.34-2384.29 2321.24-2382.12 2320.14-2380.08 2318.81-2378.17 2317.26-2375.61 2315.18-2373.01 2312.84-2370.35 2310.25-2367.7 2307.66-2365.2 2304.93-2362.85 2302.07-2360.5 2299.21-2358.41 2296.28-2356.59 2293.27-2354.78 2290.26-2353.45 2287.27-2352.62 2284.29-2352.14 2282.56-2351.74 2280.57-2351.41 2278.31-2351.08 2276.04-2350.92 2274.02-2350.92 2272.23-2350.92 2271.45-2351.1 2270.7-2351.46 2269.95-2351.81 2269.21-2352.5 2268.83-2353.51 2268.83ZM-2357.26 2256.06C-2355.89 2256.06-2354.36 2256.15-2352.66 2256.32-2350.96 2256.5-2349.43 2256.68-2348.06 2256.86-2346.69 2256.56-2345.57 2256.35-2344.71 2256.23-2343.85 2256.12-2342.94 2256.06-2341.98 2256.06-2340.2 2256.06-2338.71 2256.29-2337.52 2256.77-2336.32 2257.25-2335.37 2257.89-2334.66 2258.69-2333.94 2259.5-2333.42 2260.42-2333.09 2261.46-2332.77 2262.5-2332.6 2263.59-2332.6 2264.72-2332.6 2266.27-2332.84 2267.75-2333.32 2269.15-2333.79 2270.55-2334.27 2271.96-2334.75 2273.39L-2346.54 2320.48C-2346.78 2323.04-2346.99 2325.4-2347.17 2327.54-2347.35 2329.68-2347.7 2331.68-2348.24 2333.53-2348.42 2334.06-2348.64 2334.73-2348.91 2335.54-2349.18 2336.34-2349.61 2337.12-2350.2 2337.86-2350.8 2338.61-2351.54 2339.25-2352.44 2339.78-2353.33 2340.32-2354.49 2340.59-2355.92 2340.59-2357.77 2340.59-2359.24 2340.47-2360.35 2340.23-2361.45 2339.99-2362.3 2339.65-2362.89 2339.2-2363.49 2338.75-2363.88 2338.22-2364.05 2337.59-2364.23 2336.97-2364.32 2336.24-2364.32 2335.4-2364.32 2333.68-2364.11 2331.61-2363.7 2329.19-2363.28 2326.78-2363.07 2323.79-2363.07 2320.21-2365.04 2321.64-2367.21 2323.34-2369.59 2325.31-2371.98 2327.27-2374.45 2329.15-2377.01 2330.94-2379.57 2332.72-2382.12 2334.23-2384.65 2335.45-2387.18 2336.67-2389.55 2337.28-2391.75 2337.28-2393.54 2337.28-2395.24 2337.01-2396.85 2336.48-2398.46 2335.94-2399.83 2335.22-2400.96 2334.33-2404.12 2331.83-2406.39 2329.33-2407.79 2326.83-2409.19 2324.32-2409.89 2321.4-2409.89 2318.07-2409.89 2316.58-2409.76 2315.03-2409.49 2313.42-2409.22 2311.81-2408.82 2309.97-2408.29 2307.88-2406.02 2298.47-2402.14 2289.76-2396.62 2281.75-2391.11 2273.73-2384.28 2266.9-2376.12 2261.24-2372.96 2259.03-2369.8 2257.62-2366.65 2256.99-2363.49 2256.37-2360.36 2256.06-2357.26 2256.06ZM-2298.93 2254C-2296.25 2254-2294.16 2254.37-2292.67 2255.12-2291.19 2255.86-2290.08 2256.83-2289.37 2258.02-2288.65 2259.21-2288.22 2260.58-2288.07 2262.13-2287.92 2263.68-2287.85 2265.29-2287.85 2266.96-2285.82 2265.53-2283.46 2264.25-2280.75 2263.11-2278.04 2261.98-2275.22 2261.04-2272.3 2260.3-2269.38 2259.56-2266.43 2258.97-2263.46 2258.56-2260.48 2258.14-2257.68 2257.93-2255.06 2257.93-2250.77 2257.93-2247.01 2258.69-2243.8 2260.21-2240.58 2261.73-2237.9 2263.76-2235.76 2266.29-2233.61 2268.82-2232 2271.74-2230.93 2275.04-2229.86 2278.35-2229.32 2281.76-2229.32 2285.27-2229.32 2289.39-2229.98 2293.26-2231.29 2296.89-2232.6 2300.52-2234.39 2303.92-2236.65 2307.08-2238.91 2310.23-2241.55 2313.17-2244.56 2315.88-2247.57 2318.59-2250.81 2321.08-2254.3 2323.34-2257.78 2325.6-2261.39 2327.67-2265.11 2329.55-2268.83 2331.43-2272.51 2333.11-2276.14 2334.6-2278.59 2335.61-2280.89 2336.37-2283.07 2336.88-2285.24 2337.38-2287.19 2337.64-2288.92 2337.64-2291.36 2337.64-2293.73 2337.37-2296.03 2336.83-2298.32 2336.3-2300.54 2335.4-2302.68 2334.15-2303.87 2338.2-2304.87 2342.08-2305.68 2345.77-2306.48 2349.46-2307.12 2352.74-2307.6 2355.6-2307.9 2357.38-2308.25 2359.26-2308.67 2361.23-2309.09 2363.19-2309.5 2365.11-2309.92 2366.99-2310.34 2368.87-2310.74 2370.64-2311.13 2372.31-2311.51 2373.98-2311.83 2375.4-2312.06 2376.6-2312.24 2377.31-2312.68 2377.91-2313.36 2378.38-2314.05 2378.86-2314.86 2379.26-2315.82 2379.59-2316.77 2379.92-2317.74 2380.16-2318.72 2380.3-2319.7 2380.45-2320.58 2380.53-2321.36 2380.53-2325.77 2380.53-2327.97 2378.8-2327.97 2375.35-2327.97 2374.39-2327.82 2373.38-2327.52 2372.31-2326.33 2367.48-2325.27 2363.06-2324.35 2359.04-2323.43 2355.02-2322.58 2351.23-2321.8 2347.69-2321.03 2344.15-2320.3 2340.72-2319.62 2337.41-2318.93 2334.11-2318.25 2330.77-2317.56 2327.41-2316.88 2324.04-2316.16 2320.54-2315.42 2316.91-2314.67 2313.27-2313.85 2309.31-2312.96 2305.02L-2308.67 2284.29C-2307.95 2280.78-2307.46 2277.75-2307.2 2275.22-2306.93 2272.69-2306.79 2270.35-2306.79 2268.21-2306.79 2265.94-2306.73 2263.93-2306.61 2262.18-2306.5 2260.42-2306.17 2258.93-2305.63 2257.71-2305.1 2256.49-2304.31 2255.56-2303.26 2254.94-2302.22 2254.31-2300.78 2254-2298.93 2254ZM-2169.46 2252.12C-2167.68 2252.12-2165.74 2252.21-2163.66 2252.39-2161.57 2252.57-2159.66 2252.99-2157.94 2253.64-2156.21 2254.3-2154.76 2255.27-2153.6 2256.55-2152.44 2257.83-2151.86 2259.54-2151.86 2261.69-2151.86 2262.34-2151.95 2263.2-2152.13 2264.28-2152.31 2265.35-2152.6 2266.42-2153.02 2267.49-2153.44 2268.57-2153.95 2269.49-2154.54 2270.26-2155.14 2271.04-2155.85 2271.42-2156.69 2271.42-2158.06 2271.42-2159.19 2271.16-2160.08 2270.62-2160.97 2270.08-2161.78 2269.5-2162.49 2268.88-2163.21 2268.25-2163.95 2267.67-2164.73 2267.14-2165.5 2266.6-2166.46 2266.33-2167.59 2266.33-2168.96 2266.33-2170.55 2266.58-2172.37 2267.09-2174.18 2267.6-2176.05 2268.28-2177.95 2269.15-2179.86 2270.01-2181.72 2271.01-2183.54 2272.14-2185.35 2273.27-2186.99 2274.43-2188.45 2275.62-2189.91 2276.82-2191.09 2277.99-2191.98 2279.15-2192.87 2280.32-2193.32 2281.37-2193.32 2282.33-2193.32 2283.34-2192.99 2284.17-2192.34 2284.83-2191.68 2285.48-2190.85 2286.05-2189.84 2286.53-2188.53 2287.24-2187.02 2287.96-2185.32 2288.67-2183.63 2289.39-2181.91 2290.1-2180.19 2290.81-2178.46 2291.53-2176.78 2292.24-2175.14 2292.96-2173.5 2293.67-2172.08 2294.33-2170.89 2294.93-2169.28 2295.76-2167.84 2296.58-2166.56 2297.38-2165.28 2298.19-2164.19 2299.07-2163.3 2300.02-2162.4 2300.97-2161.72 2302.04-2161.24 2303.24-2160.77 2304.43-2160.53 2305.83-2160.53 2307.44-2160.53 2308.21-2160.59 2308.98-2160.71 2309.76-2160.83 2310.53-2161 2311.43-2161.24 2312.44-2161.42 2313.33-2161.73 2314.38-2162.18 2315.57-2162.63 2316.76-2163.1 2317.93-2163.61 2319.1-2164.12 2320.26-2164.64 2321.3-2165.17 2322.22-2165.71 2323.15-2166.16 2323.76-2166.51 2324.06-2168.84 2326.2-2171.58 2328.21-2174.74 2330.09-2177.89 2331.96-2181.18 2333.6-2184.61 2335-2188.03 2336.4-2191.46 2337.52-2194.89 2338.35-2198.31 2339.19-2201.45 2339.6-2204.31 2339.6-2205.74 2339.6-2207.32 2339.32-2209.05 2338.75-2210.78 2338.19-2212.37 2337.44-2213.83 2336.52-2215.29 2335.6-2216.51 2334.54-2217.49 2333.35-2218.47 2332.16-2218.97 2330.97-2218.97 2329.77-2218.97 2329.18-2218.79 2328.51-2218.43 2327.76-2218.07 2327.02-2217.63 2326.33-2217.09 2325.71-2216.55 2325.08-2215.97 2324.55-2215.35 2324.1-2214.72 2323.65-2214.14 2323.43-2213.6 2323.43-2213.13 2323.43-2212.7 2323.49-2212.31 2323.61-2211.92 2323.73-2211.49 2323.86-2211.01 2324.01-2210.54 2324.16-2210 2324.29-2209.41 2324.41-2208.81 2324.53-2208.04 2324.59-2207.08 2324.59-2204.28 2324.59-2201.17 2324.29-2197.74 2323.7-2194.32 2323.1-2191.09 2322.33-2188.05 2321.37-2185.01 2320.42-2182.41 2319.33-2180.23 2318.11-2178.06 2316.89-2176.82 2315.63-2176.52 2314.32-2176.34 2313.6-2176.25 2312.98-2176.25 2312.44-2176.25 2311.43-2176.75 2310.46-2177.73 2309.53-2178.71 2308.61-2179.95 2307.73-2181.44 2306.9-2182.93 2306.06-2184.53 2305.29-2186.26 2304.58-2187.99 2303.86-2189.6 2303.21-2191.09 2302.61L-2194.13 2301.36C-2195.67 2300.76-2197.19 2300.03-2198.68 2299.17-2200.17 2298.31-2201.56 2297.31-2202.84 2296.18-2204.12 2295.04-2205.25 2293.72-2206.23 2292.2-2207.22 2290.68-2207.95 2288.94-2208.42 2286.97-2208.66 2286.14-2208.85 2285.3-2209 2284.47-2209.15 2283.64-2209.23 2282.74-2209.23 2281.79-2209.23 2280.24-2208.71 2278.47-2207.66 2276.47-2206.62 2274.48-2205.22 2272.5-2203.46 2270.53-2201.71 2268.57-2199.71 2266.69-2197.48 2264.9-2195.24 2263.11-2192.9 2261.63-2190.46 2260.43-2188.67 2259.18-2186.95 2258.05-2185.28 2257.04-2183.61 2256.03-2181.93 2255.16-2180.23 2254.45-2178.53 2253.73-2176.81 2253.17-2175.05 2252.75-2173.29 2252.33-2171.43 2252.12-2169.46 2252.12ZM-2536.62 2247.92C-2534.95 2247.92-2533.57 2248.12-2532.46 2248.51-2531.36 2248.89-2530.47 2249.41-2529.78 2250.07-2529.1 2250.72-2528.62 2251.51-2528.35 2252.44-2528.09 2253.36-2527.95 2254.39-2527.95 2255.52-2527.95 2257.54-2528.28 2259.59-2528.94 2261.64-2529.59 2263.7-2530.39 2265.94-2531.35 2268.39-2528.55 2266.18-2525.67 2264.1-2522.72 2262.13-2519.78 2260.17-2516.74 2258.44-2513.61 2256.95-2510.48 2255.46-2507.28 2254.27-2504 2253.38-2500.73 2252.48-2497.33 2252.03-2493.82 2252.03-2492.21 2252.03-2490.6 2252.29-2488.99 2252.79-2487.38 2253.3-2485.94 2254.09-2484.66 2255.16-2483.38 2256.23-2482.31 2257.63-2481.44 2259.36-2480.58 2261.09-2480.09 2263.2-2479.97 2265.71-2477.41 2263.98-2474.76 2262.24-2472.02 2260.48-2469.28 2258.72-2466.49 2257.14-2463.66 2255.74-2460.83 2254.34-2458 2253.21-2455.17 2252.35-2452.34 2251.48-2449.59 2251.05-2446.91 2251.05-2442.92 2251.05-2439.62 2251.57-2437.03 2252.62-2434.44 2253.66-2432.39 2255.06-2430.87 2256.82-2429.35 2258.57-2428.28 2260.61-2427.65 2262.94-2427.03 2265.26-2426.71 2267.73-2426.71 2270.35-2426.71 2273.21-2426.98 2276.16-2427.52 2279.2-2428.05 2282.24-2428.65 2285.13-2429.3 2287.87-2431.03 2294.78-2432.97 2301.31-2435.11 2307.48-2437.26 2313.65-2439.58 2319.89-2442.08 2326.2-2442.68 2327.69-2443.3 2329.27-2443.96 2330.94-2444.61 2332.6-2445.37 2334.14-2446.24 2335.54-2447.1 2336.94-2448.11 2338.1-2449.27 2339.02-2450.44 2339.95-2451.79 2340.41-2453.34 2340.41-2456.85 2340.41-2459.27 2339.81-2460.58 2338.62-2461.89 2337.43-2462.54 2335.73-2462.54 2333.53-2462.54 2332.93-2462.51 2332.25-2462.45 2331.47-2462.4 2330.7-2462.25 2329.95-2462.01 2329.24-2461.77 2328.34-2461.23 2327.05-2460.4 2325.35-2459.57 2323.65-2458.66 2321.82-2457.67 2319.86-2456.69 2317.89-2455.72 2315.91-2454.77 2313.91-2453.82 2311.92-2453.1 2310.18-2452.63 2308.69-2451.85 2306.12-2450.94 2303.16-2449.9 2299.8-2448.86 2296.43-2447.86 2293.03-2446.91 2289.61-2445.95 2286.18-2445.16 2282.94-2444.54 2279.87-2443.91 2276.8-2443.6 2274.31-2443.6 2272.41-2443.6 2271.51-2443.69 2270.62-2443.87 2269.73-2444.05 2268.83-2444.36 2268.06-2444.81 2267.4-2445.25 2266.75-2445.88 2266.21-2446.68 2265.8-2447.49 2265.38-2448.52 2265.17-2449.77 2265.17-2451.55 2265.17-2453.68 2265.68-2456.16 2266.69-2458.63 2267.7-2461.19 2269.03-2463.84 2270.67-2466.49 2272.3-2469.07 2274.15-2471.57 2276.21-2474.07 2278.26-2476.22 2280.3-2478 2282.33-2479.25 2283.76-2480.44 2284.92-2481.58 2285.81-2482.71 2286.7-2483.84 2287.39-2484.97 2287.87-2485.09 2288.1-2485.39 2288.89-2485.87 2290.23-2486.34 2291.57-2486.91 2293.18-2487.56 2295.06-2488.22 2296.94-2488.9 2298.96-2489.62 2301.14-2490.33 2303.31-2491 2305.34-2491.63 2307.21-2492.25 2309.09-2492.78 2310.67-2493.19 2311.95-2493.61 2313.23-2493.82 2313.93-2493.82 2314.05-2494.24 2315.72-2494.59 2317.43-2494.89 2319.19-2495.19 2320.94-2495.46 2322.63-2495.69 2324.23-2495.93 2325.84-2496.16 2327.55-2496.36 2329.37-2496.57 2331.19-2496.99 2332.89-2497.62 2334.47-2498.24 2336.04-2499.19 2337.34-2500.48 2338.35-2501.76 2339.36-2503.56 2339.87-2505.88 2339.87-2507.07 2339.87-2508.16 2339.57-2509.14 2338.98-2510.13 2338.38-2510.97 2337.62-2511.69 2336.7-2512.4 2335.78-2512.97 2334.73-2513.39 2333.57-2513.8 2332.41-2514.04 2331.23-2514.1 2330.04-2512.73 2324.68-2511.39 2319.86-2510.08 2315.57-2508.77 2311.28-2507.46 2307.17-2506.15 2303.24-2504.84 2299.3-2503.57 2295.36-2502.35 2291.4-2501.13 2287.43-2499.92 2283.07-2498.73 2278.31-2498.44 2277.17-2498.2 2276.06-2498.02 2274.95-2497.84 2273.85-2497.75 2272.88-2497.75 2272.05-2497.75 2270.62-2498.05 2269.44-2498.64 2268.52-2499.24 2267.6-2500.28 2267.14-2501.77 2267.14-2504.21 2267.14-2506.64 2267.63-2509.05 2268.61-2511.47 2269.59-2514.07 2271.13-2516.87 2273.21-2519.67 2275.3-2522.78 2277.95-2526.21 2281.16-2529.64 2284.38-2533.58 2288.22-2538.05 2292.69-2538.53 2293.58-2539.15 2295.25-2539.93 2297.7-2540.7 2300.14-2541.49 2302.73-2542.29 2305.47-2543.1 2308.21-2543.83 2310.76-2544.48 2313.11-2545.14 2315.46-2545.56 2317.03-2545.73 2317.8-2546.39 2320.3-2546.84 2322.4-2547.07 2324.1-2547.31 2325.8-2547.52 2327.33-2547.7 2328.7-2547.82 2329.42-2548 2330.59-2548.24 2332.23-2548.47 2333.87-2548.91 2335.52-2549.53 2337.19-2550.16 2338.86-2551.04 2340.33-2552.17 2341.61-2553.3 2342.89-2554.79 2343.53-2556.64 2343.53-2559.38 2343.53-2561.62 2342.79-2563.38 2341.3-2565.14 2339.81-2566.02 2337.94-2566.02 2335.67-2566.02 2335.25-2565.99 2334.87-2565.93 2334.51-2565.87 2334.15-2565.78 2333.77-2565.66 2333.35-2563.87 2326.38-2562.15 2319.89-2560.48 2313.87-2558.81 2307.85-2557.19 2302.09-2555.61 2296.58-2554.03 2291.07-2552.5 2285.72-2551.01 2280.54-2549.52 2275.36-2548.09 2270.08-2546.72 2264.72-2546.18 2262.64-2545.87 2260.63-2545.78 2258.69-2545.69 2256.76-2545.41 2254.75-2544.93 2252.66-2544.69 2251.95-2544.26 2251.3-2543.63 2250.74-2543.01 2250.17-2542.31 2249.68-2541.53 2249.26-2540.76 2248.85-2539.94 2248.52-2539.08 2248.28-2538.21 2248.04-2537.39 2247.92-2536.62 2247.92Z" stroke="#000000" stroke-width="3" stroke-linejoin="round" stroke-miterlimit="10" fill="#404040" fill-rule="evenodd"/><text fill="#000000" fill-opacity="0" font-family="Arial,Arial_MSFontService,sans-serif" font-size="132.604" x="-2566.02" y="2363.95">maps</text></g></svg>