<svg width="3089" height="333" xmlns="http://www.w3.org/2000/svg" xmlns:xlink="http://www.w3.org/1999/xlink" xml:space="preserve" overflow="hidden"><g transform="translate(3252 -2083)"><path d="M-488.657 2307.55C-487.668 2307.7-486.548 2308.28-485.298 2309.29-481.085 2312.27-480.837 2315.24-484.555 2318.22-488.642 2321.2-492.606 2324.66-496.445 2328.61-500.285 2332.55-504.001 2337.68-507.592 2344.01-509.29 2344.38-509.505 2342.38-508.237 2338.02-506.969 2333.67-504.944 2328.73-502.162 2323.22-499.38 2317.7-496.566 2313.39-493.72 2310.28-492.177 2308.66-490.805 2307.75-489.602 2307.56-489.301 2307.51-488.986 2307.51-488.657 2307.55ZM-552.046 2259.72C-558.827 2271.99-564.257 2283.6-568.338 2294.57-572.419 2305.53-574.684 2316.65-575.134 2327.92-574.896 2334.26-573.138 2337.63-569.859 2338.02-566.579 2338.42-563.207 2336.45-559.742 2332.14-552.271 2322.4-547.672 2311.94-545.944 2300.77-544.217 2289.6-546.251 2275.92-552.046 2259.72ZM-478.31 2249.06C-471.528 2249.09-465.365 2251.42-459.821 2256.06-452.43 2262.24-446.624 2270.68-442.403 2281.38-438.182 2292.08-436.031 2303.2-435.95 2314.75-436.347 2324.2-438.895 2331.33-443.595 2336.14-448.295 2340.94-452.767 2343.24-457.01 2343.02-458.67 2343.03-458.639 2342.45-456.917 2341.28-455.195 2340.12-452.993 2338.3-450.309 2335.83-444.614 2329.57-442.107 2321.25-442.789 2310.88-443.47 2300.51-446.341 2290.41-451.402 2280.59-456.464 2270.77-462.718 2263.55-470.165 2258.95-476.348 2255.84-482.527 2255.31-488.701 2257.37-494.876 2259.43-499.687 2264.17-503.134 2271.6-504.372 2274.31-505.239 2277.37-505.735 2280.77-506.23 2284.17-506.354 2287.97-506.106 2292.18-505.99 2294.87-506.553 2295.63-507.796 2294.46-509.038 2293.28-510.171 2290.88-511.193 2287.26-512.215 2283.63-512.337 2279.48-511.559 2274.82-510.107 2268-507.062 2262.49-502.422 2258.31-497.782 2254.12-492.074 2251.29-485.298 2249.8-482.9 2249.3-480.57 2249.05-478.31 2249.06ZM-507.488 2211.77C-506.501 2211.67-505.914 2211.82-505.725 2212.23-505.348 2213.05-507.156 2214.82-511.15 2217.56-519.794 2223.46-526.872 2229.03-532.385 2234.27-537.898 2239.52-542.062 2244.03-544.878 2247.82-546.731 2250.14-547.421 2251.88-546.949 2253.03-546.478 2254.17-545.613 2256.41-544.356 2259.72-540.633 2270.12-538.749 2281.13-538.702 2292.74-538.655 2304.35-541.283 2315.17-546.584 2325.2-549.667 2331.01-553.308 2336.11-557.508 2340.49-561.707 2344.88-566.589 2347.12-572.153 2347.24-576.153 2347.06-578.916 2343.77-580.442 2337.36-581.967 2330.96-582.008 2323.27-580.564 2314.28-579.242 2306.72-576.445 2297.48-572.173 2286.54-567.9 2275.6-562.677 2265.17-556.504 2255.26-555.487 2253.32-555.71 2250.7-557.173 2247.39-558.635 2244.08-560.511 2240.81-562.8 2237.59-565.089 2234.36-566.965 2231.9-568.427 2230.21-570.088 2227.93-570.492 2226.42-569.638 2225.69-568.784 2224.95-567.139 2225.3-564.701 2226.74-561.27 2229.22-558.447 2232.44-556.232 2236.38-554.017 2240.32-552.129 2243.47-550.57 2245.84-548.238 2243.04-545.17 2239.48-541.366 2235.13-537.562 2230.79-533.151 2226.54-528.133 2222.39-523.115 2218.24-517.62 2215.06-511.646 2212.85-509.861 2212.24-508.475 2211.88-507.488 2211.77Z" stroke="#000000" stroke-width="3" stroke-linejoin="round" stroke-miterlimit="10" fill="#404040" fill-rule="evenodd"/><text fill="#000000" fill-opacity="0" font-family="Arial,Arial_MSFontService,sans-serif" font-size="135.494" direction="rtl" writing-mode="rl-tb" x="-435.95" y="2330.3">הע</text><path d="M-594.335 2205.16C-593.278 2205.1-592.239 2206.34-591.217 2208.88-590.244 2210.99-589.856 2213.79-590.055 2217.28-590.253 2220.78-590.946 2224.2-592.134 2227.56-593.322 2230.92-594.913 2233.44-596.907 2235.14-595.758 2232.09-594.952 2228.03-594.489 2222.94-594.026 2217.85-594.832 2212.17-596.907 2205.91-596.249 2205.47-595.392 2205.23-594.335 2205.16ZM-608.158 2205.07C-607.051 2204.96-605.869 2206.23-604.611 2208.88-603.793 2210.91-603.502 2213.68-603.739 2217.17-603.975 2220.67-604.692 2224.12-605.891 2227.51-607.089 2230.9-608.721 2233.44-610.787 2235.14-609.625 2231.99-608.79 2227.89-608.281 2222.85-607.773 2217.8-608.608 2212.16-610.787 2205.91-610.141 2205.46-609.265 2205.18-608.158 2205.07Z" stroke="#000000" stroke-width="3" stroke-linejoin="round" stroke-miterlimit="10" fill="#404040" fill-rule="evenodd"/><text fill="#000000" fill-opacity="0" font-family="Arial,Arial_MSFontService,sans-serif" font-size="30.0771" direction="rtl" writing-mode="rl-tb" x="-590.004" y="2231.38">"</text><path d="M-1033.31 2308.33C-1039.14 2313.68-1042.62 2318.76-1043.73 2323.55-1044.85 2328.35-1044.36 2331.97-1042.25 2334.43-1040.15 2336.88-1037.17 2337.28-1033.31 2335.61-1032.02 2334.88-1031.65 2332.07-1032.2 2327.18-1032.76 2322.29-1033.13 2316.01-1033.31 2308.33ZM-2656.31 2308.33C-2662.14 2313.68-2665.62 2318.76-2666.73 2323.55-2667.85 2328.35-2667.36 2331.97-2665.25 2334.43-2663.15 2336.88-2660.17 2337.28-2656.31 2335.61-2655.02 2334.88-2654.65 2332.07-2655.2 2327.18-2655.76 2322.29-2656.13 2316.01-2656.31 2308.33ZM-2413.35 2303.28C-2412.35 2303.43-2412.2 2304.37-2412.9 2306.1-2416.63 2314.26-2416.98 2320.4-2413.95 2324.52-2410.91 2328.63-2406.38 2331.37-2400.35 2332.74-2394.32 2334.1-2388.66 2334.73-2383.39 2334.62-2381.59 2334.55-2379.21 2334.49-2376.23 2334.44-2373.26 2334.39-2370.56 2334.76-2368.14 2335.53-2365.72 2336.3-2364.44 2337.89-2364.29 2340.29-2375.58 2341.68-2386.48 2341.57-2397 2339.99-2407.51 2338.4-2415.37 2334.46-2420.57 2328.17-2423.43 2324.65-2425.02 2320.97-2425.34 2317.14-2425.66 2313.3-2423.91 2309.62-2420.08 2306.1-2418.54 2304.81-2416.73 2303.91-2414.63 2303.4-2414.11 2303.27-2413.68 2303.23-2413.35 2303.28ZM-1974.48 2264.07C-1968.76 2264.28-1964.06 2267.19-1960.38 2272.8-1956.7 2278.41-1955.1 2285.95-1955.58 2295.41-1955.92 2299.67-1957.03 2303.39-1958.92 2306.58-1960.8 2309.77-1963.65 2312.25-1967.46 2314.01-1973.23 2316.3-1978.11 2315.81-1982.12 2312.55-1986.12 2309.3-1990.33 2304.41-1994.74 2297.88-1998.65 2305.24-2002.37 2312.24-2005.91 2318.87-2009.46 2325.51-2013.66 2331.27-2018.52 2336.17-2023.39 2341.07-2029.76 2344.59-2037.64 2346.74-2026.85 2337.74-2018.98 2329.08-2014.05 2320.77-2009.11 2312.45-2004.91 2304.16-2001.43 2295.91-1999.67 2291.9-1997.61 2289.83-1995.23 2289.69-1992.85 2289.55-1990.29 2291.62-1987.54 2295.91-1985.74 2298.84-1983.21 2301.66-1979.95 2304.35-1976.69 2307.04-1973.1 2307.62-1969.19 2306.1-1964.99 2303.94-1962.55 2300.74-1961.85 2296.51-1961.15 2292.28-1961.37 2288.03-1962.5 2283.77-1963.36 2279.85-1965.16 2276.62-1967.89 2274.09-1970.62 2271.56-1974.05 2270.87-1978.18 2272.03-1982.32 2273.19-1986.93 2277.35-1992.01 2284.51-1993.83 2286.66-1994.83 2286.34-1995.01 2283.55-1995.19 2280.76-1994.03 2277.52-1991.51 2273.83-1985.88 2267.11-1980.2 2263.85-1974.48 2264.07ZM-2925.48 2264.07C-2919.76 2264.28-2915.06 2267.19-2911.38 2272.8-2907.7 2278.41-2906.1 2285.95-2906.58 2295.41-2906.92 2299.67-2908.03 2303.39-2909.92 2306.58-2911.8 2309.77-2914.65 2312.25-2918.46 2314.01-2924.23 2316.3-2929.11 2315.81-2933.12 2312.55-2937.12 2309.3-2941.33 2304.41-2945.74 2297.88-2949.65 2305.24-2953.37 2312.24-2956.91 2318.87-2960.46 2325.51-2964.66 2331.27-2969.52 2336.17-2974.39 2341.07-2980.76 2344.59-2988.64 2346.74-2977.85 2337.74-2969.98 2329.08-2965.05 2320.77-2960.11 2312.45-2955.91 2304.16-2952.43 2295.91-2950.67 2291.9-2948.61 2289.83-2946.23 2289.69-2943.85 2289.55-2941.29 2291.62-2938.54 2295.91-2936.74 2298.84-2934.21 2301.66-2930.95 2304.35-2927.69 2307.04-2924.1 2307.62-2920.19 2306.1-2915.99 2303.94-2913.55 2300.74-2912.85 2296.51-2912.15 2292.28-2912.37 2288.03-2913.5 2283.77-2914.36 2279.85-2916.16 2276.62-2918.89 2274.09-2921.62 2271.56-2925.05 2270.87-2929.18 2272.03-2933.32 2273.19-2937.93 2277.35-2943.01 2284.51-2944.83 2286.66-2945.83 2286.34-2946.01 2283.55-2946.19 2280.76-2945.03 2277.52-2942.51 2273.83-2936.88 2267.11-2931.2 2263.85-2925.48 2264.07ZM-649.879 2263.88C-652.833 2263.74-656.185 2264.83-659.936 2267.13-659.672 2267.13-659.393 2267.14-659.098 2267.16-658.803 2267.19-658.586 2267.26-658.447 2267.38-657.886 2267.98-658.732 2268.71-660.983 2269.58-663.235 2270.44-665.79 2271.32-668.648 2272.22-671.506 2273.11-673.564 2273.9-674.823 2274.58-680.823 2278.28-684.653 2283.12-686.315 2289.1-687.976 2295.09-688.137 2301.37-686.798 2307.93-685.458 2314.5-683.286 2320.5-680.282 2325.93-676.236 2332.38-671.103 2335.96-664.884 2336.66-658.665 2337.36-652.564 2335.88-646.58 2332.22-640.597 2328.55-635.936 2323.4-632.597 2316.75-629.259 2310.11-628.446 2302.67-630.16 2294.43-631.364 2288.95-633.146 2283.39-635.508 2277.76-637.87 2272.13-641.031 2268.03-644.992 2265.46-646.478 2264.49-648.107 2263.97-649.879 2263.88ZM-878.328 2258.85C-871.294 2258.77-864.958 2260.26-859.319 2263.32-850.297 2268.22-843.875 2275.26-840.052 2284.42-836.228 2293.59-835.817 2303-838.818 2312.64-841.819 2322.28-849.045 2330.27-860.495 2336.6-867.693 2340.22-875.928 2343.07-885.202 2345.13-894.477 2347.19-903.27 2348.26-911.583 2348.36-919.896 2348.46-926.21 2347.37-930.524 2345.09-934.839 2342.82-935.634 2339.16-932.911 2334.12-932.622 2337.68-929.109 2339.67-922.371 2340.1-915.634 2340.53-908.153 2340.36-899.927 2339.58-886.527 2338.47-874.974 2335.12-865.27 2329.51-855.565 2323.9-849.248 2316.72-846.318 2307.97-843.388 2299.22-845.386 2289.58-852.312 2279.04-856.037 2273.65-861.358 2269.55-868.276 2266.73-875.195 2263.92-882.934 2262.73-891.495 2263.16-895.086 2263.28-896.895 2263.11-896.92 2262.67-896.946 2262.23-895.22 2261.57-891.743 2260.7-887.021 2259.52-882.549 2258.9-878.328 2258.85ZM-648.025 2256.5C-642.954 2256.28-638.767 2258.51-635.466 2263.21-632.165 2267.91-628.913 2274.92-625.712 2284.25-621.507 2296.99-621.745 2308.55-626.426 2318.92-631.107 2329.3-639.465 2337.25-651.499 2342.78-660.62 2346.64-668.594 2346.17-675.421 2341.37-682.248 2336.57-687.297 2329.57-690.568 2320.39-693.84 2311.21-694.702 2301.98-693.155 2292.69-692.026 2284.83-689.096 2278.71-684.367 2274.33-679.638 2269.95-671.742 2267.55-660.68 2267.13-660.215 2263.57-658.788 2260.93-656.4 2259.22-654.011 2257.51-651.22 2256.6-648.025 2256.5ZM-1081.15 2252.07C-1079.91 2252.14-1079.29 2252.79-1079.29 2254.02-1079.92 2269.58-1080.59 2285.07-1081.31 2300.5-1082.03 2315.94-1082.76 2330.94-1083.51 2345.5-1085.47 2341.3-1086.89 2334.67-1087.76 2325.62-1088.64 2316.56-1089.05 2306.86-1089 2296.51-1088.96 2286.15-1088.54 2276.93-1087.75 2268.84-1086.95 2260.74-1085.87 2255.55-1084.5 2253.28-1083.51 2252.39-1082.39 2251.99-1081.15 2252.07ZM-2490.15 2252.07C-2488.91 2252.14-2488.29 2252.79-2488.29 2254.02-2488.92 2269.58-2489.59 2285.07-2490.31 2300.5-2491.03 2315.94-2491.76 2330.94-2492.51 2345.5-2494.47 2341.3-2495.89 2334.67-2496.76 2325.62-2497.64 2316.56-2498.05 2306.86-2498 2296.51-2497.96 2286.15-2497.54 2276.93-2496.75 2268.84-2495.95 2260.74-2494.87 2255.55-2493.5 2253.28-2492.51 2252.39-2491.39 2251.99-2490.15 2252.07ZM-2608.15 2252.07C-2606.91 2252.14-2606.29 2252.79-2606.29 2254.02-2606.92 2269.58-2607.59 2285.07-2608.31 2300.5-2609.03 2315.94-2609.76 2330.94-2610.51 2345.5-2612.47 2341.3-2613.89 2334.67-2614.76 2325.62-2615.64 2316.56-2616.05 2306.86-2616 2296.51-2615.96 2286.15-2615.54 2276.93-2614.75 2268.84-2613.95 2260.74-2612.87 2255.55-2611.5 2253.28-2610.51 2252.39-2609.39 2251.99-2608.15 2252.07ZM-2702.15 2252.07C-2700.91 2252.14-2700.29 2252.79-2700.29 2254.02-2700.92 2269.58-2701.59 2285.07-2702.31 2300.5-2703.03 2315.94-2703.76 2330.94-2704.51 2345.5-2706.47 2341.3-2707.89 2334.67-2708.76 2325.62-2709.64 2316.56-2710.05 2306.86-2710 2296.51-2709.96 2286.15-2709.54 2276.93-2708.75 2268.84-2707.95 2260.74-2706.87 2255.55-2705.5 2253.28-2704.51 2252.39-2703.39 2251.99-2702.15 2252.07ZM-962.432 2251.91C-957.193 2251.68-952.25 2253.95-947.602 2258.7-940.29 2266.95-936.784 2275.39-937.083 2284.04-937.383 2292.68-941.552 2300.44-949.588 2307.32-951.346 2307.04-951.367 2305.55-949.65 2302.86-947.933 2300.16-946.589 2297.93-945.617 2296.16-942.997 2288.88-942.831 2281.95-945.118 2275.37-947.405 2268.78-951.055 2264.08-956.068 2261.24-961.081 2258.41-966.367 2258.97-971.927 2262.92-974.77 2264.75-977.271 2267.1-979.429 2269.99-981.587 2272.87-981.979 2277.96-980.605 2285.24-977.651 2300.52-977.937 2313.99-981.464 2325.64-984.99 2337.3-990.143 2346.78-996.921 2354.07-1003.7 2361.37-1010.49 2366.13-1017.29 2368.33-1020.87 2369.62-1025.61 2370.62-1031.52 2371.33-1037.42 2372.03-1043.09 2371.37-1048.54 2369.32-1052.11 2367.55-1053.76 2366.21-1053.5 2365.31-1053.23 2364.4-1051.16 2364.17-1047.3 2364.63-1034.37 2366.29-1023.33 2364.49-1014.18 2359.23-1005.04 2353.97-997.986 2346.65-993.029 2337.26-988.072 2327.87-985.412 2317.81-985.047 2307.07-985.043 2301.61-985.549 2296.54-986.567 2291.85-987.584 2287.16-988.401 2282.89-989.015 2279.04-989.325 2276.58-989.202 2274.19-988.646 2271.88-988.089 2269.57-986.731 2267.24-984.569 2264.9-977.405 2257.47-970.78 2253.22-964.696 2252.15-963.935 2252.02-963.181 2251.94-962.432 2251.91ZM-1137.43 2251.91C-1132.19 2251.68-1127.25 2253.95-1122.6 2258.7-1115.29 2266.95-1111.78 2275.39-1112.08 2284.04-1112.38 2292.68-1116.55 2300.44-1124.59 2307.32-1126.35 2307.04-1126.37 2305.55-1124.65 2302.86-1122.93 2300.16-1121.59 2297.93-1120.62 2296.16-1118 2288.88-1117.83 2281.95-1120.12 2275.37-1122.4 2268.78-1126.05 2264.08-1131.07 2261.24-1136.08 2258.41-1141.37 2258.97-1146.93 2262.92-1149.77 2264.75-1152.27 2267.1-1154.43 2269.99-1156.59 2272.87-1156.98 2277.96-1155.6 2285.24-1152.65 2300.52-1152.94 2313.99-1156.46 2325.64-1159.99 2337.3-1165.14 2346.78-1171.92 2354.07-1178.7 2361.37-1185.49 2366.13-1192.29 2368.33-1195.87 2369.62-1200.61 2370.62-1206.52 2371.33-1212.42 2372.03-1218.09 2371.37-1223.54 2369.32-1227.11 2367.55-1228.76 2366.21-1228.5 2365.31-1228.23 2364.4-1226.16 2364.17-1222.3 2364.63-1209.37 2366.29-1198.33 2364.49-1189.18 2359.23-1180.04 2353.97-1172.99 2346.65-1168.03 2337.26-1163.07 2327.87-1160.41 2317.81-1160.05 2307.07-1160.04 2301.61-1160.55 2296.54-1161.57 2291.85-1162.58 2287.16-1163.4 2282.89-1164.02 2279.04-1164.32 2276.58-1164.2 2274.19-1163.65 2271.88-1163.09 2269.57-1161.73 2267.24-1159.57 2264.9-1152.4 2257.47-1145.78 2253.22-1139.7 2252.15-1138.93 2252.02-1138.18 2251.94-1137.43 2251.91ZM-1363.08 2251.72C-1357.02 2251.26-1350.56 2253.67-1343.7 2258.95-1338.47 2263.16-1334.12 2267.77-1330.63 2272.78-1327.14 2277.8-1324.64 2282.53-1323.14 2286.99-1319.83 2297.43-1320.63 2306.13-1325.55 2313.09-1330.47 2320.04-1338.59 2323.66-1349.9 2323.92L-1371.23 2323.92C-1377.48 2323.77-1383.41 2324.38-1389.01 2325.75-1394.62 2327.12-1399.07 2330.18-1402.39 2334.91-1405.7 2339.64-1407.05 2346.98-1406.45 2356.91-1406.32 2360.25-1406.63 2361.51-1407.38 2360.69-1408.12 2359.87-1408.56 2359.27-1408.68 2358.89-1412.97 2344.93-1412.39 2334.67-1406.94 2328.12-1401.5 2321.57-1392.24 2317.7-1379.17 2316.51-1374.45 2316.01-1369.38 2315.77-1363.95 2315.8-1358.52 2315.82-1351.27 2315.4-1342.22 2314.53-1337.45 2313.97-1333.84 2311.87-1331.37 2308.23-1328.9 2304.6-1327.88 2300.58-1328.33 2296.17-1329.24 2291.01-1330.88 2286.5-1333.26 2282.65-1335.63 2278.79-1336.96 2276.76-1337.26 2276.57-1345.47 2266.07-1353.41 2260.48-1361.09 2259.8-1368.78 2259.13-1376.04 2263.89-1382.89 2274.08-1386.71 2279.4-1389.23 2281.98-1390.45 2281.81-1391.67 2281.64-1391.71 2280.3-1390.58 2277.81-1383.91 2264.54-1376.72 2256.32-1369 2253.15-1367.07 2252.35-1365.1 2251.88-1363.08 2251.72ZM-1571.13 2250.76C-1569.54 2250.67-1567.89 2250.68-1566.18 2250.8-1554.38 2252.08-1545.49 2257.01-1539.5 2265.61-1533.51 2274.2-1530.51 2283.97-1530.49 2294.92-1530.69 2304.18-1532.64 2312.5-1536.34 2319.9-1540.03 2327.3-1544.28 2332.52-1549.06 2335.58-1545.92 2328.65-1543.28 2322.55-1541.16 2317.3-1539.03 2312.04-1537.7 2306.81-1537.16 2301.62-1536.18 2290.68-1538.21 2281.13-1543.27 2272.98-1548.33 2264.83-1555.63 2259.75-1565.18 2257.74-1573.48 2256.53-1579.95 2258.02-1584.59 2262.2-1589.23 2266.38-1591.36 2271.59-1590.98 2277.82-1591.18 2278.37-1591.77 2277.57-1592.74 2275.43-1593.72 2273.29-1593.87 2270.2-1593.21 2266.17-1591.94 2260.91-1588.83 2256.92-1583.88 2254.2-1580.16 2252.17-1575.91 2251.02-1571.13 2250.76ZM-1860.13 2250.76C-1858.54 2250.67-1856.89 2250.68-1855.18 2250.8-1843.38 2252.08-1834.49 2257.01-1828.5 2265.61-1822.51 2274.2-1819.51 2283.97-1819.49 2294.92-1819.69 2304.18-1821.64 2312.5-1825.34 2319.9-1829.03 2327.3-1833.28 2332.52-1838.06 2335.58-1834.92 2328.65-1832.28 2322.55-1830.16 2317.3-1828.03 2312.04-1826.7 2306.81-1826.16 2301.62-1825.18 2290.68-1827.21 2281.13-1832.27 2272.98-1837.33 2264.83-1844.63 2259.75-1854.18 2257.74-1862.48 2256.53-1868.95 2258.02-1873.59 2262.2-1878.23 2266.38-1880.36 2271.59-1879.98 2277.82-1880.18 2278.37-1880.77 2277.57-1881.74 2275.43-1882.72 2273.29-1882.87 2270.2-1882.21 2266.17-1880.94 2260.91-1877.83 2256.92-1872.88 2254.2-1869.16 2252.17-1864.91 2251.02-1860.13 2250.76ZM-2560.13 2250.76C-2558.54 2250.67-2556.89 2250.68-2555.18 2250.8-2543.38 2252.08-2534.49 2257.01-2528.5 2265.61-2522.51 2274.2-2519.51 2283.97-2519.49 2294.92-2519.69 2304.18-2521.64 2312.5-2525.34 2319.9-2529.03 2327.3-2533.27 2332.52-2538.06 2335.58-2534.92 2328.65-2532.28 2322.55-2530.16 2317.3-2528.03 2312.04-2526.7 2306.81-2526.16 2301.62-2525.18 2290.68-2527.21 2281.13-2532.27 2272.98-2537.33 2264.83-2544.63 2259.75-2554.18 2257.74-2562.48 2256.53-2568.95 2258.02-2573.59 2262.2-2578.23 2266.38-2580.36 2271.59-2579.98 2277.82-2580.18 2278.37-2580.77 2277.57-2581.74 2275.43-2582.72 2273.29-2582.87 2270.2-2582.21 2266.17-2580.94 2260.91-2577.83 2256.92-2572.88 2254.2-2569.16 2252.17-2564.91 2251.02-2560.13 2250.76ZM-1457.12 2246.33C-1447.79 2247.18-1440.1 2251.75-1434.06 2260.02-1428.02 2268.3-1424.59 2278.13-1423.78 2289.53-1422.96 2300.92-1425.74 2311.71-1432.09 2321.91-1438.45 2332.11-1449.36 2339.56-1464.82 2344.26-1472.39 2346.3-1480.07 2346.41-1487.85 2344.57-1495.63 2342.74-1501.67 2339.11-1505.98 2333.7-1510.29 2328.28-1511.03 2321.22-1508.2 2312.52-1506.08 2307.03-1502.98 2302.96-1498.91 2300.32-1494.85 2297.68-1490.68 2296.24-1486.42 2295.99-1482.15 2295.74-1478.66 2296.46-1475.95 2298.15-1473.26 2299.96-1471.42 2303.02-1470.45 2307.34-1469.48 2311.66-1470.74 2316.78-1474.22 2322.68-1474 2318.07-1474.43 2313.41-1475.49 2308.7-1476.55 2304-1479.52 2301.63-1484.39 2301.6-1492.67 2302.47-1498.46 2305.69-1501.74 2311.27-1505.02 2316.84-1505.22 2322.52-1502.33 2328.31-1499.45 2334.11-1492.89 2337.77-1482.65 2339.3-1469.27 2340.46-1458.1 2337.53-1449.14 2330.51-1440.19 2323.49-1434.4 2314.33-1431.78 2303.04-1429.16 2291.75-1430.66 2280.28-1436.28 2268.63-1439.32 2262.99-1443.51 2258.67-1448.84 2255.66-1454.17 2252.65-1459.22 2251.55-1464 2252.34-1468.77 2253.14-1471.86 2256.42-1473.25 2262.18L-1474.73 2269.62C-1475.18 2270.01-1475.77 2268.22-1476.5 2264.25-1477.23 2260.28-1476.41 2256.26-1474.03 2252.21-1471.65 2248.15-1466.01 2246.19-1457.12 2246.33ZM-1919.14 2245.98C-1917.42 2246.05-1916.07 2246.65-1915.07 2247.79-1913.74 2249.3-1913.07 2252.53-1913.06 2257.48-1913.01 2261.1-1913.09 2265.46-1913.3 2270.57-1913.51 2275.69-1914.18 2280.67-1915.29 2285.54-1916.41 2290.4-1918.3 2294.27-1920.97 2297.14L-1920.97 2246.08C-1920.32 2245.99-1919.71 2245.95-1919.14 2245.98ZM-2829.14 2245.98C-2827.42 2246.05-2826.07 2246.65-2825.07 2247.79-2823.74 2249.3-2823.07 2252.53-2823.06 2257.48-2823.01 2261.1-2823.09 2265.46-2823.3 2270.57-2823.51 2275.69-2824.18 2280.67-2825.29 2285.54-2826.41 2290.4-2828.3 2294.27-2830.97 2297.14L-2830.97 2246.08C-2830.32 2245.99-2829.71 2245.95-2829.14 2245.98ZM-2871.14 2245.98C-2869.42 2246.05-2868.07 2246.65-2867.07 2247.79-2865.74 2249.3-2865.07 2252.53-2865.06 2257.48-2865.01 2261.1-2865.09 2265.46-2865.3 2270.57-2865.51 2275.69-2866.18 2280.67-2867.29 2285.54-2868.41 2290.4-2870.3 2294.27-2872.97 2297.14L-2872.97 2246.08C-2872.32 2245.99-2871.71 2245.95-2871.14 2245.98ZM-1636.56 2225.5C-1633.07 2226.02-1630.71 2230.88-1629.48 2240.09-1628.25 2249.29-1627.84 2261.72-1628.23 2277.38-1628.62 2293.03-1629.51 2310.79-1630.89 2330.65-1631.47 2337.84-1633.27 2341.46-1636.29 2341.51-1639.32 2341.55-1643.04 2337.94-1647.47 2330.65-1649.93 2326.39-1652.45 2322.06-1655.04 2317.65-1657.62 2313.24-1660.39 2308.96-1663.34 2304.83-1665.16 2302.64-1667.75 2303.16-1671.11 2306.4-1674.47 2309.64-1678.52 2313.89-1683.25 2319.16-1687.97 2324.44-1693.29 2329.03-1699.19 2332.95-1705.1 2336.86-1711.5 2338.41-1718.4 2337.57-1709.29 2333.84-1702.09 2329.3-1696.79 2323.97-1691.5 2318.65-1686.96 2313.42-1683.18 2308.31-1676.19 2299.68-1670.5 2295.45-1666.13 2295.62-1661.75 2295.78-1657.5 2299.04-1653.37 2305.4-1649.24 2311.76-1644.05 2319.93-1637.8 2329.91-1637.7 2319.98-1637.24 2308.38-1636.43 2295.11-1635.63 2281.85-1635.08 2268.91-1634.8 2256.31-1634.51 2243.71-1635.1 2233.44-1636.56 2225.5ZM-2190.56 2225.5C-2187.07 2226.02-2184.71 2230.88-2183.48 2240.09-2182.25 2249.29-2181.84 2261.72-2182.23 2277.38-2182.62 2293.03-2183.51 2310.79-2184.89 2330.65-2185.47 2337.84-2187.27 2341.46-2190.29 2341.51-2193.32 2341.55-2197.04 2337.94-2201.47 2330.65-2203.93 2326.39-2206.45 2322.06-2209.04 2317.65-2211.62 2313.24-2214.39 2308.96-2217.34 2304.83-2219.16 2302.64-2221.75 2303.16-2225.11 2306.4-2228.47 2309.64-2232.52 2313.89-2237.25 2319.16-2241.97 2324.44-2247.29 2329.03-2253.19 2332.95-2259.1 2336.86-2265.5 2338.41-2272.4 2337.57-2263.29 2333.84-2256.09 2329.3-2250.79 2323.97-2245.5 2318.65-2240.96 2313.42-2237.18 2308.31-2230.19 2299.68-2224.5 2295.45-2220.13 2295.62-2215.75 2295.78-2211.5 2299.04-2207.37 2305.4-2203.24 2311.76-2198.05 2319.93-2191.8 2329.91-2191.7 2319.98-2191.24 2308.38-2190.43 2295.11-2189.63 2281.85-2189.08 2268.91-2188.79 2256.31-2188.51 2243.71-2189.1 2233.44-2190.56 2225.5ZM-2784.85 2223.52C-2782.26 2223.34-2780.61 2224.81-2779.92 2227.92-2779.22 2231.03-2778.63 2233.86-2778.15 2236.41-2775.97 2244.8-2772.33 2251.64-2767.24 2256.93-2762.14 2262.21-2755.28 2264.71-2746.65 2264.43-2743.62 2264.19-2740.57 2264.97-2737.51 2266.78-2734.45 2268.59-2733.19 2271.36-2733.76 2275.09-2734.86 2279.04-2737.3 2281.36-2741.07 2282.03-2744.85 2282.7-2748.52 2281.79-2752.11 2279.3-2757.83 2275.76-2762.51 2274.23-2766.15 2274.71-2769.8 2275.2-2773.79 2277.39-2778.15 2281.29-2782.99 2285.43-2786.64 2291.08-2789.09 2298.24-2791.54 2305.39-2792.03 2312.22-2790.55 2318.72-2787.66 2328.2-2783.17 2334.93-2777.08 2338.91-2771 2342.89-2765.32 2345.3-2760.04 2346.14-2754.75 2346.99-2751.86 2347.43-2751.37 2347.48-2750.79 2349.05-2751.94 2350-2754.8 2350.32-2757.66 2350.65-2761.22 2350.38-2765.46 2349.52-2769.7 2348.67-2773.6 2347.24-2777.16 2345.25-2781.71 2342.74-2785.8 2339.28-2789.43 2334.87-2793.05 2330.47-2795.64 2325.33-2797.22 2319.47-2798.88 2312.01-2798.28 2304.3-2795.43 2296.32-2792.57 2288.34-2787.89 2280.93-2781.37 2274.09-2777.79 2270.21-2776.09 2266.64-2776.26 2263.37-2776.43 2260.11-2777.64 2256.66-2779.89 2253.02-2783.81 2246.21-2786.31 2239.81-2787.39 2233.8-2788.46 2227.8-2787.62 2224.37-2784.85 2223.52ZM-1722.19 2213.8C-1721.29 2213.75-1720.41 2213.77-1719.53 2213.84-1719.24 2213.68-1718.03 2214-1715.88 2214.8-1713.73 2215.6-1712.38 2217.83-1711.85 2221.5-1711.63 2224.86-1711.57 2227.01-1711.66 2227.95-1711.75 2228.89-1711.82 2229.3-1711.85 2229.19-1712.03 2229.08-1712.28 2228.43-1712.59 2227.24-1712.9 2226.04-1713.64 2224.96-1714.82 2223.98-1721.08 2219.63-1728.04 2220.23-1735.69 2225.8-1743.34 2231.36-1750.81 2239.81-1758.1 2251.13-1765.39 2262.45-1771.63 2274.57-1776.82 2287.49-1779.79 2294.83-1781.58 2302.39-1782.19 2310.15-1782.81 2317.92-1781.75 2324.5-1779.03 2329.9-1776.32 2335.29-1771.45 2338.11-1764.42 2338.34-1760.46 2338.2-1757.08 2336.63-1754.28 2333.62-1751.48 2330.6-1749.2 2326.97-1747.45 2322.72-1745.69 2318.47-1744.41 2314.41-1743.59 2310.56-1742.62 2305.49-1741.46 2301.18-1740.12 2297.63-1738.77 2294.08-1737.12 2291.94-1735.16 2291.21-1735.29 2307.8-1738.13 2320.93-1743.68 2330.6-1749.24 2340.27-1756.73 2345.16-1766.16 2345.25-1772.78 2345.03-1777.98 2342.61-1781.78 2338.01-1785.57 2333.41-1787.87 2327.47-1788.69 2320.19-1789.51 2312.92-1788.77 2305.16-1786.47 2296.91-1781.89 2281.08-1775.67 2266.77-1767.81 2253.99-1759.94 2241.2-1751.68 2231.16-1743.01 2223.86-1735.43 2217.47-1728.49 2214.12-1722.19 2213.8ZM-2276.19 2213.8C-2275.29 2213.75-2274.41 2213.77-2273.53 2213.84-2273.24 2213.68-2272.03 2214-2269.88 2214.8-2267.73 2215.6-2266.38 2217.83-2265.85 2221.5-2265.63 2224.86-2265.57 2227.01-2265.66 2227.95-2265.75 2228.89-2265.82 2229.3-2265.85 2229.19-2266.03 2229.08-2266.28 2228.43-2266.59 2227.24-2266.9 2226.04-2267.64 2224.96-2268.82 2223.98-2275.08 2219.63-2282.04 2220.23-2289.69 2225.8-2297.34 2231.36-2304.81 2239.81-2312.1 2251.13-2319.39 2262.45-2325.63 2274.57-2330.82 2287.49-2333.79 2294.83-2335.58 2302.39-2336.19 2310.15-2336.81 2317.92-2335.75 2324.5-2333.03 2329.9-2330.32 2335.29-2325.45 2338.11-2318.42 2338.34-2314.46 2338.2-2311.08 2336.63-2308.28 2333.62-2305.48 2330.6-2303.2 2326.97-2301.45 2322.72-2299.69 2318.47-2298.41 2314.41-2297.59 2310.56-2296.62 2305.49-2295.46 2301.18-2294.12 2297.63-2292.77 2294.08-2291.12 2291.94-2289.16 2291.21-2289.29 2307.8-2292.13 2320.93-2297.68 2330.6-2303.24 2340.27-2310.73 2345.16-2320.16 2345.25-2326.78 2345.03-2331.98 2342.61-2335.78 2338.01-2339.57 2333.41-2341.87 2327.47-2342.69 2320.19-2343.51 2312.92-2342.77 2305.16-2340.47 2296.91-2335.89 2281.08-2329.67 2266.77-2321.81 2253.99-2313.94 2241.2-2305.68 2231.16-2297.01 2223.86-2289.43 2217.47-2282.49 2214.12-2276.19 2213.8ZM-2453.16 2205.88C-2452.28 2205.88-2451.33 2206.19-2450.3 2206.79-2448.26 2208-2446.86 2210.27-2446.13 2213.6-2444.95 2220.79-2444.53 2227.98-2444.86 2235.17-2445.2 2242.36-2445.95 2249.56-2447.12 2256.75-2450.13 2274.62-2452.48 2290.02-2454.18 2302.94-2455.87 2315.87-2455.71 2326.72-2453.68 2335.51-2451.66 2344.31-2446.57 2351.44-2438.43 2356.91-2436.58 2358.12-2435.81 2358.8-2436.13 2358.95-2436.45 2359.11-2437.8 2358.92-2440.17 2358.4-2449.01 2356.5-2455.19 2351.74-2458.7 2344.11-2462.21 2336.48-2463.55 2326.21-2462.72 2313.29-2461.87 2302.4-2460.44 2291.53-2458.41 2280.69-2456.39 2269.85-2454.92 2258.93-2454 2247.93-2453.07 2236.93-2453.84 2225.73-2456.3 2214.34-2457.29 2210.48-2457.05 2207.95-2455.58 2206.76-2454.85 2206.17-2454.04 2205.87-2453.16 2205.88ZM-949.179 2151.78C-946.77 2151.62-944.501 2151.94-942.372 2152.73-936.695 2154.85-933.373 2158.6-932.406 2163.96-931.909 2171.03-933.454 2177.05-937.042 2182.04-940.629 2187.03-944.034 2191.01-947.258 2193.98-946.886 2192.18-945.397 2189.51-942.793 2185.95-940.188 2182.39-938.699 2177.54-938.327 2171.41-938.735 2162.73-943.13 2159.54-951.513 2161.84-959.895 2164.13-969.822 2170.93-981.292 2182.23-992.762 2193.54-1003.33 2208.37-1013 2226.72-1018.99 2238.99-1023.01 2251.48-1025.06 2264.19-1027.1 2276.9-1028.02 2288.75-1027.82 2299.74-1027.61 2310.72-1027.14 2319.76-1026.39 2326.86-1025.65 2333.96-1025.49 2338.03-1025.9 2339.07-1028.38 2342.91-1031.59 2344.88-1035.53 2344.98-1039.47 2345.08-1043.37 2343.27-1047.22 2339.57-1049.71 2336.96-1051.01 2333.32-1051.12 2328.64-1051.22 2323.97-1049.99 2319.08-1047.42 2313.97-1044.86 2308.85-1040.82 2304.33-1035.3 2300.39-1035.48 2275.65-1032.12 2254.03-1025.22 2235.53-1018.32 2217.03-1009.28 2201.3-998.11 2188.31-986.936 2175.33-975.03 2164.74-962.391 2156.54-957.598 2153.63-953.194 2152.04-949.179 2151.78ZM-2572.18 2151.78C-2569.77 2151.62-2567.5 2151.94-2565.37 2152.73-2559.69 2154.85-2556.37 2158.6-2555.41 2163.96-2554.91 2171.03-2556.45 2177.05-2560.04 2182.04-2563.63 2187.03-2567.03 2191.01-2570.26 2193.98-2569.89 2192.18-2568.4 2189.51-2565.79 2185.95-2563.19 2182.39-2561.7 2177.54-2561.33 2171.41-2561.73 2162.73-2566.13 2159.54-2574.51 2161.84-2582.9 2164.13-2592.82 2170.93-2604.29 2182.23-2615.76 2193.54-2626.33 2208.37-2636 2226.72-2641.99 2238.99-2646.01 2251.48-2648.06 2264.19-2650.1 2276.9-2651.02 2288.75-2650.82 2299.74-2650.61 2310.72-2650.14 2319.76-2649.39 2326.86-2648.65 2333.96-2648.49 2338.03-2648.9 2339.07-2651.38 2342.91-2654.59 2344.88-2658.53 2344.98-2662.47 2345.08-2666.37 2343.27-2670.22 2339.57-2672.71 2336.96-2674.01 2333.32-2674.12 2328.64-2674.22 2323.97-2672.99 2319.08-2670.42 2313.97-2667.86 2308.85-2663.82 2304.33-2658.3 2300.39-2658.48 2275.65-2655.12 2254.03-2648.22 2235.53-2641.32 2217.03-2632.28 2201.3-2621.11 2188.31-2609.94 2175.33-2598.03 2164.74-2585.39 2156.54-2580.6 2153.63-2576.19 2152.04-2572.18 2151.78Z" stroke="#000000" stroke-width="3" stroke-linejoin="round" stroke-miterlimit="10" fill="#404040" fill-rule="evenodd"/><text fill="#000000" fill-opacity="0" font-family="Arial,Arial_MSFontService,sans-serif" font-size="219.862" direction="rtl" writing-mode="rl-tb" x="-622.727" y="2344.12">ס כתלות בפרמטרים מטאורולוגיים</text></g></svg>