<svg width="601" height="288" xmlns="http://www.w3.org/2000/svg" xmlns:xlink="http://www.w3.org/1999/xlink" xml:space="preserve" overflow="hidden"><g transform="translate(-1118 -1340)"><path d="M1482.21 1466.01C1479.62 1468.39 1478.08 1470.64 1477.58 1472.76 1477.09 1474.89 1477.31 1476.5 1478.24 1477.59 1479.18 1478.68 1480.5 1478.85 1482.21 1478.11 1482.78 1477.79 1482.95 1476.54 1482.7 1474.37 1482.45 1472.2 1482.29 1469.42 1482.21 1466.01ZM1462.73 1441.06C1463.28 1441.09 1463.55 1441.38 1463.55 1441.92 1463.28 1448.82 1462.98 1455.69 1462.66 1462.54 1462.34 1469.38 1462.02 1476.04 1461.68 1482.5 1460.81 1480.63 1460.19 1477.69 1459.8 1473.68 1459.41 1469.66 1459.23 1465.36 1459.25 1460.77 1459.27 1456.17 1459.45 1452.08 1459.81 1448.49 1460.16 1444.9 1460.64 1442.6 1461.25 1441.59 1461.69 1441.2 1462.18 1441.02 1462.73 1441.06ZM1360.46 1441.01C1362.42 1441.2 1364.28 1442.19 1366.05 1444 1369.29 1447.65 1370.85 1451.4 1370.71 1455.24 1370.58 1459.07 1368.73 1462.51 1365.17 1465.56 1364.39 1465.44 1364.38 1464.78 1365.14 1463.58 1365.9 1462.39 1366.5 1461.4 1366.93 1460.61 1368.09 1457.38 1368.16 1454.31 1367.15 1451.39 1366.13 1448.47 1364.52 1446.38 1362.29 1445.13 1360.07 1443.87 1357.72 1444.12 1355.26 1445.87 1354 1446.68 1352.89 1447.73 1351.93 1449 1350.97 1450.28 1350.8 1452.54 1351.41 1455.77 1352.72 1462.55 1352.59 1468.52 1351.03 1473.69 1349.46 1478.86 1347.18 1483.06 1344.17 1486.3 1341.17 1489.54 1338.15 1491.65 1335.14 1492.62 1333.55 1493.2 1331.45 1493.64 1328.83 1493.95 1326.21 1494.27 1323.69 1493.97 1321.28 1493.06 1319.69 1492.28 1318.96 1491.68 1319.08 1491.28 1319.2 1490.88 1320.11 1490.78 1321.83 1490.98 1327.56 1491.72 1332.46 1490.92 1336.51 1488.59 1340.57 1486.26 1343.7 1483.01 1345.9 1478.84 1348.1 1474.68 1349.28 1470.22 1349.44 1465.45 1349.44 1463.03 1349.22 1460.78 1348.76 1458.7 1348.31 1456.62 1347.95 1454.73 1347.68 1453.02 1347.54 1451.93 1347.6 1450.87 1347.84 1449.84 1348.09 1448.82 1348.69 1447.79 1349.65 1446.75 1352.83 1443.45 1355.77 1441.57 1358.46 1441.09 1359.14 1440.98 1359.8 1440.95 1360.46 1441.01ZM1394.03 1435.08C1395.04 1435.02 1396.1 1435.02 1397.2 1435.1 1400.67 1435.54 1403.46 1437.19 1405.55 1440.06 1407.65 1442.93 1408.67 1446.37 1408.62 1450.38 1408.44 1452.96 1407.3 1455.35 1405.22 1457.55 1403.14 1459.76 1400.91 1461.51 1398.52 1462.82 1396.32 1463.95 1394.75 1464.83 1393.78 1465.46 1392.82 1466.09 1392.21 1466.95 1391.96 1468.05 1391.7 1469.15 1391.54 1470.96 1391.48 1473.48 1391.23 1476.48 1390.59 1478.83 1389.57 1480.52 1388.54 1482.21 1387.53 1483.29 1386.53 1483.74 1385.53 1484.2 1384.94 1484.08 1384.77 1483.38 1384.7 1482.67 1385.13 1481.94 1386.06 1481.21 1386.99 1480.47 1387.8 1479.03 1388.51 1476.89 1388.93 1475.31 1389.09 1473.68 1389.01 1472 1388.93 1470.31 1388.29 1468.99 1387.09 1468.03 1385.89 1467.08 1383.84 1466.91 1380.92 1467.54 1379.68 1467.75 1378.91 1467.46 1378.61 1466.67 1378.31 1465.89 1378.31 1464.97 1378.61 1463.92 1378.96 1463.02 1379.5 1462.37 1380.23 1461.97 1380.96 1461.56 1381.78 1461.52 1382.68 1461.83 1385.06 1462.98 1387.3 1463.39 1389.4 1463.06 1391.5 1462.73 1393.47 1462 1395.32 1460.89 1397.16 1459.78 1398.89 1458.62 1400.5 1457.43 1402.83 1455.61 1404.32 1453.3 1404.95 1450.49 1405.58 1447.69 1405.2 1445.05 1403.8 1442.57 1402.15 1440.31 1400.11 1438.83 1397.67 1438.14 1395.24 1437.44 1392.8 1437.45 1390.38 1438.17 1387.95 1438.89 1385.94 1440.25 1384.33 1442.24 1383.31 1443.73 1382.54 1445.15 1382.03 1446.49 1381.52 1447.83 1380.78 1448.4 1379.82 1448.18 1378.75 1447.61 1378.79 1446.2 1379.95 1443.94 1381.1 1441.67 1383.17 1439.56 1386.14 1437.59 1388.37 1436.11 1391 1435.28 1394.03 1435.08ZM1440.6 1429.27C1442.15 1429.5 1443.19 1431.66 1443.74 1435.74 1444.28 1439.82 1444.47 1445.34 1444.29 1452.28 1444.12 1459.23 1443.72 1467.1 1443.11 1475.91 1442.86 1479.1 1442.06 1480.71 1440.72 1480.73 1439.37 1480.75 1437.72 1479.14 1435.76 1475.91 1434.67 1474.02 1433.55 1472.1 1432.4 1470.14 1431.26 1468.19 1430.03 1466.29 1428.72 1464.46 1427.91 1463.49 1426.77 1463.72 1425.27 1465.15 1423.78 1466.59 1421.99 1468.48 1419.89 1470.82 1417.79 1473.15 1415.44 1475.19 1412.82 1476.93 1410.2 1478.67 1407.36 1479.35 1404.3 1478.98 1408.34 1477.33 1411.53 1475.31 1413.88 1472.95 1416.23 1470.59 1418.24 1468.27 1419.92 1466 1423.02 1462.18 1425.54 1460.3 1427.48 1460.37 1429.42 1460.44 1431.31 1461.89 1433.14 1464.71 1434.97 1467.53 1437.28 1471.16 1440.05 1475.58 1440.09 1471.18 1440.29 1466.03 1440.65 1460.15 1441.01 1454.26 1441.25 1448.53 1441.38 1442.94 1441.51 1437.35 1441.25 1432.79 1440.6 1429.27ZM1520.57 1396.57C1521.26 1396.62 1521.91 1396.76 1522.54 1397 1525.06 1397.94 1526.54 1399.6 1526.96 1401.98 1527.18 1405.11 1526.5 1407.78 1524.91 1410 1523.32 1412.21 1521.81 1413.97 1520.38 1415.29 1520.54 1414.49 1521.2 1413.31 1522.36 1411.73 1523.51 1410.15 1524.17 1408 1524.34 1405.28 1524.16 1401.43 1522.21 1400.02 1518.49 1401.04 1514.77 1402.05 1510.37 1405.07 1505.28 1410.08 1500.19 1415.1 1495.51 1421.67 1491.22 1429.81 1488.56 1435.26 1486.78 1440.8 1485.87 1446.43 1484.96 1452.07 1484.56 1457.33 1484.65 1462.2 1484.73 1467.07 1484.95 1471.08 1485.28 1474.23 1485.61 1477.38 1485.68 1479.18 1485.49 1479.65 1484.4 1481.35 1482.97 1482.22 1481.22 1482.27 1479.48 1482.31 1477.75 1481.51 1476.04 1479.87 1474.93 1478.71 1474.36 1477.09 1474.31 1475.02 1474.26 1472.95 1474.81 1470.78 1475.95 1468.51 1477.09 1466.24 1478.88 1464.24 1481.32 1462.49 1481.24 1451.51 1482.73 1441.92 1485.8 1433.72 1488.86 1425.52 1492.87 1418.54 1497.82 1412.78 1502.78 1407.02 1508.06 1402.32 1513.66 1398.68 1516.22 1397.14 1518.52 1396.43 1520.57 1396.57Z" stroke="#000000" stroke-width="3" stroke-linejoin="round" stroke-miterlimit="10" fill-rule="evenodd"/><text fill="#000000" fill-opacity="0" font-family="Arial,Arial_MSFontService,sans-serif" font-size="97.5193" direction="rtl" writing-mode="rl-tb" x="1527" y="1481.88">לומדת</text><text font-family="Oh OmriNivFireshtein,Oh OmriNivFireshtein_MSFontService,sans-serif" font-weight="700" font-size="110" direction="rtl" writing-mode="rl-tb" transform="matrix(1 0 0 1 1283.25 1483)" x="56.7188"> </text><path d="M1623.68 1558.65C1624.22 1558.57 1624.85 1558.82 1625.59 1559.42 1627.46 1560.74 1627.57 1562.06 1625.92 1563.38 1624.11 1564.71 1622.35 1566.24 1620.65 1567.99 1618.94 1569.74 1617.3 1572.02 1615.7 1574.82 1614.95 1574.98 1614.85 1574.1 1615.42 1572.17 1615.98 1570.23 1616.88 1568.05 1618.11 1565.6 1619.34 1563.15 1620.59 1561.24 1621.86 1559.86 1622.54 1559.14 1623.15 1558.74 1623.68 1558.65ZM1210.64 1539.36C1213.17 1539.46 1215.26 1540.75 1216.89 1543.24 1218.52 1545.72 1219.23 1549.07 1219.02 1553.27 1218.87 1555.15 1218.38 1556.8 1217.54 1558.22 1216.7 1559.64 1215.44 1560.73 1213.75 1561.52 1211.19 1562.53 1209.03 1562.31 1207.25 1560.87 1205.47 1559.43 1203.61 1557.26 1201.65 1554.36 1199.92 1557.63 1198.27 1560.73 1196.69 1563.67 1195.12 1566.61 1193.26 1569.17 1191.1 1571.34 1188.94 1573.52 1186.12 1575.08 1182.62 1576.03 1187.41 1572.04 1190.9 1568.2 1193.09 1564.51 1195.28 1560.82 1197.14 1557.15 1198.68 1553.49 1199.46 1551.71 1200.38 1550.79 1201.43 1550.73 1202.49 1550.67 1203.62 1551.59 1204.84 1553.49 1205.64 1554.79 1206.77 1556.04 1208.21 1557.23 1209.66 1558.42 1211.25 1558.68 1212.98 1558.01 1214.84 1557.05 1215.93 1555.63 1216.24 1553.75 1216.55 1551.88 1216.45 1549.99 1215.95 1548.1 1215.57 1546.36 1214.77 1544.93 1213.56 1543.81 1212.35 1542.69 1210.83 1542.38 1208.99 1542.9 1207.16 1543.41 1205.12 1545.26 1202.86 1548.43 1202.05 1549.39 1201.61 1549.24 1201.53 1548.01 1201.45 1546.77 1201.97 1545.33 1203.08 1543.7 1205.58 1540.71 1208.1 1539.27 1210.64 1539.36ZM1385.67 1539.31C1384.56 1539.43 1383.35 1539.91 1382.02 1540.72 1382.13 1540.72 1382.26 1540.73 1382.39 1540.74 1382.52 1540.75 1382.61 1540.78 1382.68 1540.83 1382.92 1541.1 1382.55 1541.42 1381.55 1541.81 1380.55 1542.19 1379.42 1542.58 1378.15 1542.98 1376.88 1543.37 1375.97 1543.72 1375.41 1544.03 1372.75 1545.67 1371.05 1547.81 1370.32 1550.47 1369.58 1553.12 1369.51 1555.91 1370.1 1558.82 1370.7 1561.73 1371.66 1564.39 1372.99 1566.8 1374.79 1569.67 1377.06 1571.25 1379.82 1571.56 1382.58 1571.87 1385.29 1571.22 1387.94 1569.59 1390.59 1567.97 1392.66 1565.68 1394.14 1562.73 1395.62 1559.79 1395.98 1556.48 1395.22 1552.83 1394.69 1550.4 1393.9 1547.94 1392.85 1545.44 1391.8 1542.94 1390.4 1541.12 1388.64 1539.98 1387.77 1539.41 1386.77 1539.19 1385.67 1539.31ZM1596.59 1537.44C1593.58 1542.88 1591.17 1548.03 1589.36 1552.89 1587.55 1557.75 1586.55 1562.69 1586.35 1567.69 1586.45 1570.5 1587.23 1571.99 1588.69 1572.17 1590.14 1572.34 1591.64 1571.47 1593.18 1569.56 1596.49 1565.23 1598.53 1560.6 1599.3 1555.64 1600.06 1550.69 1599.16 1544.62 1596.59 1537.44ZM1516.88 1537.11C1519.27 1537.31 1521.47 1537.95 1523.47 1539.03 1527.48 1541.21 1530.32 1544.33 1532.02 1548.39 1533.72 1552.46 1533.9 1556.63 1532.57 1560.91 1531.24 1565.18 1528.03 1568.73 1522.95 1571.54 1519.76 1573.14 1516.11 1574.4 1511.99 1575.32 1507.88 1576.23 1503.98 1576.71 1500.29 1576.75 1496.61 1576.79 1493.81 1576.31 1491.89 1575.3 1489.98 1574.3 1489.63 1572.67 1490.83 1570.44 1490.96 1572.01 1492.52 1572.9 1495.51 1573.09 1498.5 1573.28 1501.81 1573.2 1505.46 1572.86 1511.41 1572.37 1516.53 1570.88 1520.84 1568.39 1525.14 1565.9 1527.94 1562.72 1529.24 1558.84 1530.54 1554.96 1529.65 1550.68 1526.58 1546.01 1524.93 1543.62 1522.57 1541.8 1519.5 1540.55 1516.43 1539.3 1513 1538.77 1509.2 1538.96 1507.61 1539.01 1506.81 1538.94 1506.8 1538.75 1506.79 1538.55 1507.55 1538.26 1509.09 1537.87 1511.89 1537.17 1514.48 1536.92 1516.88 1537.11ZM1322.88 1537.11C1325.27 1537.31 1327.47 1537.95 1329.47 1539.03 1333.48 1541.21 1336.32 1544.33 1338.02 1548.39 1339.72 1552.46 1339.9 1556.63 1338.57 1560.91 1337.24 1565.18 1334.03 1568.73 1328.95 1571.54 1325.76 1573.14 1322.11 1574.4 1317.99 1575.32 1313.88 1576.23 1309.98 1576.71 1306.29 1576.75 1302.61 1576.79 1299.81 1576.31 1297.89 1575.3 1295.98 1574.3 1295.63 1572.67 1296.83 1570.44 1296.96 1572.01 1298.52 1572.9 1301.51 1573.09 1304.5 1573.28 1307.81 1573.2 1311.46 1572.86 1317.41 1572.37 1322.53 1570.88 1326.84 1568.39 1331.14 1565.9 1333.94 1562.72 1335.24 1558.84 1336.54 1554.96 1335.65 1550.68 1332.58 1546.01 1330.93 1543.62 1328.57 1541.8 1325.5 1540.55 1322.43 1539.3 1319 1538.77 1315.2 1538.96 1313.61 1539.01 1312.81 1538.94 1312.8 1538.75 1312.79 1538.55 1313.55 1538.26 1315.09 1537.87 1317.89 1537.17 1320.48 1536.92 1322.88 1537.11ZM1271.72 1536.68C1271.93 1536.68 1272.13 1536.74 1272.32 1536.87 1272.7 1537.14 1272.91 1537.32 1272.93 1537.44 1272.64 1541.43 1272.41 1545.01 1272.22 1548.18 1272.03 1551.35 1271.63 1554.54 1271 1557.75 1270.37 1560.96 1269.26 1564.64 1267.65 1568.79 1265.39 1574.2 1262.44 1578.12 1258.8 1580.55 1255.16 1582.98 1251.65 1583.77 1248.28 1582.93 1244.91 1582.09 1242.5 1579.46 1241.04 1575.06 1240.56 1573.53 1240.26 1571.94 1240.16 1570.29 1240.06 1568.63 1240.1 1566.85 1240.27 1564.94 1240.94 1566.21 1241.42 1567.49 1241.69 1568.77 1241.96 1570.06 1242.3 1571.31 1242.69 1572.53 1244.08 1576.25 1246.04 1578.59 1248.57 1579.54 1251.1 1580.49 1253.78 1580.1 1256.6 1578.37 1259.43 1576.64 1261.97 1573.63 1264.24 1569.34 1265.47 1566.99 1266.42 1564.68 1267.09 1562.42 1267.76 1560.15 1268.3 1557.49 1268.69 1554.44 1269.08 1551.39 1269.47 1547.52 1269.85 1542.83 1269.94 1541.47 1270.04 1540.25 1270.17 1539.16 1270.29 1538.06 1270.59 1537.31 1271.06 1536.89 1271.29 1536.75 1271.51 1536.68 1271.72 1536.68ZM1387.3 1536.01C1389.55 1535.91 1391.4 1536.9 1392.87 1538.98 1394.33 1541.07 1395.78 1544.18 1397.2 1548.32 1399.06 1553.97 1398.95 1559.09 1396.88 1563.69 1394.8 1568.3 1391.1 1571.82 1385.76 1574.28 1381.71 1575.99 1378.18 1575.78 1375.15 1573.65 1372.12 1571.52 1369.88 1568.42 1368.43 1564.35 1366.98 1560.27 1366.59 1556.18 1367.28 1552.06 1367.78 1548.57 1369.08 1545.86 1371.18 1543.92 1373.28 1541.97 1376.78 1540.91 1381.69 1540.72 1381.89 1539.14 1382.52 1537.97 1383.58 1537.21 1384.64 1536.45 1385.88 1536.05 1387.3 1536.01ZM1287.6 1534.04C1288.15 1534.08 1288.43 1534.36 1288.43 1534.91 1288.15 1541.81 1287.85 1548.68 1287.54 1555.52 1287.22 1562.37 1286.89 1569.02 1286.56 1575.48 1285.69 1573.62 1285.06 1570.68 1284.67 1566.66 1284.29 1562.65 1284.1 1558.34 1284.12 1553.75 1284.14 1549.16 1284.33 1545.07 1284.68 1541.48 1285.03 1537.89 1285.51 1535.59 1286.12 1534.58 1286.56 1534.19 1287.05 1534.01 1287.6 1534.04ZM1479.33 1533.99C1481.29 1534.18 1483.15 1535.18 1484.92 1536.98 1488.16 1540.64 1489.72 1544.39 1489.59 1548.22 1489.45 1552.06 1487.61 1555.5 1484.04 1558.55 1483.26 1558.43 1483.25 1557.77 1484.01 1556.57 1484.77 1555.37 1485.37 1554.38 1485.8 1553.6 1486.96 1550.37 1487.04 1547.29 1486.02 1544.38 1485.01 1541.46 1483.39 1539.37 1481.17 1538.11 1478.94 1536.85 1476.6 1537.1 1474.13 1538.85 1472.87 1539.67 1471.76 1540.71 1470.8 1541.99 1469.85 1543.27 1469.67 1545.52 1470.28 1548.76 1471.59 1555.53 1471.47 1561.51 1469.9 1566.68 1468.34 1571.85 1466.05 1576.05 1463.05 1579.29 1460.04 1582.52 1457.03 1584.63 1454.01 1585.61 1452.42 1586.18 1450.32 1586.63 1447.7 1586.94 1445.08 1587.25 1442.57 1586.96 1440.15 1586.05 1438.57 1585.26 1437.83 1584.67 1437.95 1584.27 1438.07 1583.87 1438.99 1583.77 1440.7 1583.97 1446.44 1584.7 1451.33 1583.91 1455.39 1581.57 1459.45 1579.24 1462.57 1575.99 1464.77 1571.83 1466.97 1567.66 1468.15 1563.2 1468.31 1558.44 1468.31 1556.02 1468.09 1553.77 1467.64 1551.69 1467.19 1549.61 1466.83 1547.71 1466.55 1546.01 1466.42 1544.91 1466.47 1543.85 1466.72 1542.83 1466.96 1541.8 1467.57 1540.77 1468.52 1539.73 1471.7 1536.44 1474.64 1534.55 1477.34 1534.08 1478.01 1533.96 1478.68 1533.93 1479.33 1533.99ZM1554.15 1533.46C1554.86 1533.42 1555.59 1533.43 1556.35 1533.48 1561.58 1534.05 1565.53 1536.24 1568.18 1540.05 1570.84 1543.86 1572.17 1548.19 1572.18 1553.05 1572.09 1557.16 1571.23 1560.85 1569.59 1564.13 1567.95 1567.41 1566.07 1569.73 1563.94 1571.08 1565.34 1568.01 1566.51 1565.31 1567.45 1562.97 1568.39 1560.64 1568.98 1558.32 1569.22 1556.02 1569.66 1551.17 1568.76 1546.93 1566.51 1543.32 1564.27 1539.7 1561.03 1537.45 1556.79 1536.56 1553.11 1536.02 1550.24 1536.68 1548.19 1538.54 1546.13 1540.39 1545.18 1542.7 1545.35 1545.46 1545.26 1545.71 1545 1545.35 1544.57 1544.4 1544.14 1543.45 1544.07 1542.08 1544.36 1540.29 1544.92 1537.96 1546.3 1536.19 1548.5 1534.99 1550.15 1534.09 1552.03 1533.58 1554.15 1533.46ZM1628.69 1532.71C1631.7 1532.72 1634.43 1533.76 1636.89 1535.81 1640.17 1538.55 1642.74 1542.3 1644.62 1547.04 1646.49 1551.79 1647.44 1556.72 1647.48 1561.84 1647.3 1566.04 1646.17 1569.2 1644.09 1571.33 1642 1573.46 1640.02 1574.48 1638.14 1574.38 1637.4 1574.39 1637.42 1574.13 1638.18 1573.61 1638.94 1573.1 1639.92 1572.29 1641.11 1571.19 1643.64 1568.42 1644.75 1564.73 1644.45 1560.13 1644.14 1555.53 1642.87 1551.05 1640.63 1546.69 1638.38 1542.34 1635.61 1539.14 1632.3 1537.09 1629.56 1535.71 1626.82 1535.48 1624.08 1536.39 1621.34 1537.31 1619.21 1539.41 1617.68 1542.7 1617.13 1543.91 1616.75 1545.27 1616.53 1546.77 1616.31 1548.28 1616.25 1549.97 1616.36 1551.83 1616.41 1553.03 1616.16 1553.36 1615.61 1552.84 1615.06 1552.32 1614.56 1551.26 1614.11 1549.65 1613.65 1548.04 1613.6 1546.2 1613.94 1544.13 1614.59 1541.11 1615.94 1538.66 1618 1536.81 1620.05 1534.95 1622.59 1533.69 1625.59 1533.04 1626.65 1532.81 1627.69 1532.7 1628.69 1532.71ZM1350.91 1531.39C1352.07 1531.22 1352.94 1531.47 1353.53 1532.14 1354.12 1532.81 1354.42 1534.25 1354.42 1536.44 1354.44 1538.05 1354.41 1539.98 1354.31 1542.25 1354.22 1544.52 1353.92 1546.73 1353.43 1548.89 1352.93 1551.04 1352.09 1552.76 1350.91 1554.03ZM1234.91 1531.39C1236.07 1531.22 1236.94 1531.47 1237.53 1532.14 1238.12 1532.81 1238.42 1534.25 1238.42 1536.44 1238.44 1538.05 1238.41 1539.98 1238.31 1542.25 1238.22 1544.52 1237.92 1546.73 1237.43 1548.89 1236.93 1551.04 1236.09 1552.76 1234.91 1554.03ZM1616.35 1516.17C1616.79 1516.12 1617.05 1516.19 1617.14 1516.37 1617.3 1516.73 1616.5 1517.52 1614.73 1518.74 1610.9 1521.35 1607.76 1523.82 1605.31 1526.15 1602.87 1528.47 1601.02 1530.48 1599.77 1532.16 1598.95 1533.19 1598.64 1533.96 1598.85 1534.47 1599.06 1534.98 1599.44 1535.97 1600 1537.44 1601.65 1542.05 1602.49 1546.93 1602.51 1552.08 1602.53 1557.23 1601.36 1562.03 1599.01 1566.48 1597.64 1569.06 1596.03 1571.32 1594.17 1573.26 1592.3 1575.21 1590.14 1576.2 1587.67 1576.25 1585.9 1576.17 1584.67 1574.71 1583.99 1571.87 1583.32 1569.03 1583.3 1565.62 1583.94 1561.64 1584.53 1558.28 1585.77 1554.18 1587.66 1549.33 1589.56 1544.48 1591.87 1539.85 1594.61 1535.46 1595.06 1534.6 1594.96 1533.43 1594.32 1531.97 1593.67 1530.5 1592.83 1529.05 1591.82 1527.62 1590.8 1526.19 1589.97 1525.1 1589.32 1524.35 1588.59 1523.33 1588.41 1522.66 1588.79 1522.34 1589.17 1522.01 1589.9 1522.17 1590.98 1522.81 1592.5 1523.91 1593.75 1525.33 1594.73 1527.08 1595.72 1528.83 1596.55 1530.23 1597.24 1531.28 1598.28 1530.04 1599.64 1528.46 1601.33 1526.53 1603.01 1524.6 1604.97 1522.72 1607.2 1520.88 1609.42 1519.04 1611.86 1517.63 1614.51 1516.65 1615.3 1516.37 1615.92 1516.21 1616.35 1516.17Z" stroke="#FA5B60" stroke-width="3" stroke-linejoin="round" stroke-miterlimit="10" fill="#FA5B60" fill-rule="evenodd"/><text fill="#000000" fill-opacity="0" font-family="Arial,Arial_MSFontService,sans-serif" font-size="70.9047" direction="rtl" writing-mode="rl-tb" x="1647.48" y="1578.2">הערכת סיכונים</text><path d="M1483.67 1466.01C1481.09 1468.39 1479.55 1470.64 1479.05 1472.76 1478.56 1474.89 1478.78 1476.5 1479.71 1477.59 1480.64 1478.68 1481.97 1478.85 1483.67 1478.11 1484.25 1477.79 1484.41 1476.54 1484.17 1474.37 1483.92 1472.2 1483.76 1469.42 1483.67 1466.01ZM1464.2 1441.06C1464.75 1441.09 1465.02 1441.38 1465.02 1441.92 1464.74 1448.82 1464.45 1455.69 1464.13 1462.54 1463.81 1469.38 1463.48 1476.04 1463.15 1482.5 1462.28 1480.63 1461.65 1477.69 1461.27 1473.68 1460.88 1469.66 1460.7 1465.36 1460.72 1460.77 1460.74 1456.17 1460.92 1452.08 1461.27 1448.49 1461.63 1444.9 1462.11 1442.6 1462.71 1441.59 1463.15 1441.2 1463.65 1441.02 1464.2 1441.06ZM1361.92 1441.01C1363.88 1441.2 1365.75 1442.19 1367.51 1444 1370.76 1447.65 1372.31 1451.4 1372.18 1455.24 1372.05 1459.07 1370.2 1462.51 1366.63 1465.56 1365.85 1465.44 1365.84 1464.78 1366.61 1463.58 1367.37 1462.39 1367.96 1461.4 1368.4 1460.61 1369.56 1457.38 1369.63 1454.31 1368.62 1451.39 1367.6 1448.47 1365.98 1446.38 1363.76 1445.13 1361.54 1443.87 1359.19 1444.12 1356.73 1445.87 1355.46 1446.68 1354.36 1447.73 1353.4 1449 1352.44 1450.28 1352.27 1452.54 1352.88 1455.77 1354.19 1462.55 1354.06 1468.52 1352.5 1473.69 1350.93 1478.86 1348.65 1483.06 1345.64 1486.3 1342.63 1489.54 1339.62 1491.65 1336.61 1492.62 1335.02 1493.2 1332.91 1493.64 1330.29 1493.95 1327.68 1494.27 1325.16 1493.97 1322.75 1493.06 1321.16 1492.28 1320.43 1491.68 1320.55 1491.28 1320.67 1490.88 1321.58 1490.78 1323.3 1490.98 1329.03 1491.72 1333.93 1490.92 1337.98 1488.59 1342.04 1486.26 1345.17 1483.01 1347.37 1478.84 1349.56 1474.68 1350.74 1470.22 1350.91 1465.45 1350.91 1463.03 1350.68 1460.78 1350.23 1458.7 1349.78 1456.62 1349.42 1454.73 1349.15 1453.02 1349.01 1451.93 1349.06 1450.87 1349.31 1449.84 1349.56 1448.82 1350.16 1447.79 1351.12 1446.75 1354.3 1443.45 1357.23 1441.57 1359.93 1441.09 1360.61 1440.98 1361.27 1440.95 1361.92 1441.01ZM1395.5 1435.08C1396.51 1435.02 1397.57 1435.02 1398.67 1435.1 1402.14 1435.54 1404.92 1437.19 1407.02 1440.06 1409.11 1442.93 1410.14 1446.37 1410.09 1450.38 1409.91 1452.96 1408.77 1455.35 1406.69 1457.55 1404.61 1459.76 1402.37 1461.51 1399.99 1462.82 1397.79 1463.95 1396.21 1464.83 1395.25 1465.46 1394.29 1466.09 1393.68 1466.95 1393.43 1468.05 1393.17 1469.15 1393.01 1470.96 1392.95 1473.48 1392.7 1476.48 1392.06 1478.83 1391.04 1480.52 1390.01 1482.21 1389 1483.29 1388 1483.74 1387 1484.2 1386.41 1484.08 1386.24 1483.38 1386.17 1482.67 1386.6 1481.94 1387.53 1481.21 1388.45 1480.47 1389.27 1479.03 1389.98 1476.89 1390.39 1475.31 1390.56 1473.68 1390.48 1472 1390.39 1470.31 1389.75 1468.99 1388.56 1468.03 1387.36 1467.08 1385.31 1466.91 1382.39 1467.54 1381.15 1467.75 1380.38 1467.46 1380.08 1466.67 1379.77 1465.89 1379.77 1464.97 1380.08 1463.92 1380.42 1463.02 1380.97 1462.37 1381.7 1461.97 1382.43 1461.56 1383.25 1461.52 1384.15 1461.83 1386.53 1462.98 1388.77 1463.39 1390.87 1463.06 1392.97 1462.73 1394.94 1462 1396.78 1460.89 1398.63 1459.78 1400.35 1458.62 1401.97 1457.43 1404.3 1455.61 1405.79 1453.3 1406.42 1450.49 1407.05 1447.69 1406.67 1445.05 1405.27 1442.57 1403.62 1440.31 1401.58 1438.83 1399.14 1438.14 1396.7 1437.44 1394.27 1437.45 1391.85 1438.17 1389.42 1438.89 1387.4 1440.25 1385.8 1442.24 1384.78 1443.73 1384.01 1445.15 1383.5 1446.49 1382.99 1447.83 1382.25 1448.4 1381.29 1448.18 1380.22 1447.61 1380.26 1446.2 1381.42 1443.94 1382.57 1441.67 1384.63 1439.56 1387.61 1437.59 1389.84 1436.11 1392.47 1435.28 1395.5 1435.08ZM1442.07 1429.27C1443.61 1429.5 1444.66 1431.66 1445.21 1435.74 1445.75 1439.82 1445.94 1445.34 1445.76 1452.28 1445.59 1459.23 1445.19 1467.1 1444.58 1475.91 1444.33 1479.1 1443.53 1480.71 1442.18 1480.73 1440.84 1480.75 1439.19 1479.14 1437.23 1475.91 1436.14 1474.02 1435.02 1472.1 1433.87 1470.14 1432.73 1468.19 1431.5 1466.29 1430.19 1464.46 1429.38 1463.49 1428.23 1463.72 1426.74 1465.15 1425.25 1466.59 1423.46 1468.48 1421.36 1470.82 1419.26 1473.15 1416.9 1475.19 1414.28 1476.93 1411.66 1478.67 1408.83 1479.35 1405.77 1478.98 1409.81 1477.33 1413 1475.31 1415.35 1472.95 1417.7 1470.59 1419.71 1468.27 1421.39 1466 1424.49 1462.18 1427.01 1460.3 1428.95 1460.37 1430.89 1460.44 1432.78 1461.89 1434.61 1464.71 1436.44 1467.53 1438.74 1471.16 1441.52 1475.58 1441.56 1471.18 1441.76 1466.03 1442.12 1460.15 1442.48 1454.26 1442.72 1448.53 1442.85 1442.94 1442.98 1437.35 1442.71 1432.79 1442.07 1429.27ZM1522.04 1396.57C1522.73 1396.62 1523.38 1396.76 1524.01 1397 1526.53 1397.94 1528 1399.6 1528.43 1401.98 1528.65 1405.11 1527.97 1407.78 1526.38 1410 1524.79 1412.21 1523.27 1413.97 1521.84 1415.29 1522.01 1414.49 1522.67 1413.31 1523.83 1411.73 1524.98 1410.15 1525.64 1408 1525.81 1405.28 1525.63 1401.43 1523.68 1400.02 1519.96 1401.04 1516.24 1402.05 1511.84 1405.07 1506.75 1410.08 1501.66 1415.1 1496.97 1421.67 1492.68 1429.81 1490.03 1435.26 1488.24 1440.8 1487.34 1446.43 1486.43 1452.07 1486.02 1457.33 1486.11 1462.2 1486.2 1467.07 1486.41 1471.08 1486.74 1474.23 1487.07 1477.38 1487.15 1479.18 1486.96 1479.65 1485.86 1481.35 1484.44 1482.22 1482.69 1482.27 1480.94 1482.31 1479.22 1481.51 1477.51 1479.87 1476.4 1478.71 1475.82 1477.09 1475.78 1475.02 1475.73 1472.95 1476.28 1470.78 1477.42 1468.51 1478.56 1466.24 1480.35 1464.24 1482.79 1462.49 1482.71 1451.51 1484.2 1441.92 1487.26 1433.72 1490.32 1425.52 1494.33 1418.54 1499.29 1412.78 1504.25 1407.02 1509.53 1402.32 1515.13 1398.68 1517.68 1397.14 1519.99 1396.43 1522.04 1396.57Z" stroke="#000000" stroke-width="3" stroke-linejoin="round" stroke-miterlimit="10" fill-rule="evenodd"/><text fill="#000000" fill-opacity="0" font-family="Arial,Arial_MSFontService,sans-serif" font-size="97.5193" direction="rtl" writing-mode="rl-tb" x="1528.47" y="1481.88">לומדת</text><text font-family="Oh OmriNivFireshtein,Oh OmriNivFireshtein_MSFontService,sans-serif" font-weight="700" font-size="110" direction="rtl" writing-mode="rl-tb" transform="matrix(1 0 0 1 1284.72 1483)" x="56.7188"> </text><path d="M1625.15 1558.65C1625.68 1558.57 1626.32 1558.82 1627.06 1559.42 1628.93 1560.74 1629.04 1562.06 1627.39 1563.38 1625.58 1564.71 1623.82 1566.24 1622.11 1567.99 1620.41 1569.74 1618.76 1572.02 1617.17 1574.82 1616.42 1574.98 1616.32 1574.1 1616.88 1572.17 1617.45 1570.23 1618.34 1568.05 1619.58 1565.6 1620.81 1563.15 1622.06 1561.24 1623.32 1559.86 1624.01 1559.14 1624.62 1558.74 1625.15 1558.65ZM1212.1 1539.36C1214.64 1539.46 1216.73 1540.75 1218.36 1543.24 1219.99 1545.72 1220.7 1549.07 1220.49 1553.27 1220.34 1555.15 1219.84 1556.8 1219.01 1558.22 1218.17 1559.64 1216.91 1560.73 1215.22 1561.52 1212.66 1562.53 1210.49 1562.31 1208.72 1560.87 1206.94 1559.43 1205.08 1557.26 1203.12 1554.36 1201.39 1557.63 1199.73 1560.73 1198.16 1563.67 1196.59 1566.61 1194.73 1569.17 1192.57 1571.34 1190.41 1573.52 1187.59 1575.08 1184.09 1576.03 1188.88 1572.04 1192.37 1568.2 1194.55 1564.51 1196.74 1560.82 1198.61 1557.15 1200.15 1553.49 1200.93 1551.71 1201.85 1550.79 1202.9 1550.73 1203.96 1550.67 1205.09 1551.59 1206.31 1553.49 1207.11 1554.79 1208.23 1556.04 1209.68 1557.23 1211.13 1558.42 1212.72 1558.68 1214.45 1558.01 1216.31 1557.05 1217.4 1555.63 1217.71 1553.75 1218.02 1551.88 1217.92 1549.99 1217.42 1548.1 1217.04 1546.36 1216.24 1544.93 1215.03 1543.81 1213.82 1542.69 1212.3 1542.38 1210.46 1542.9 1208.63 1543.41 1206.58 1545.26 1204.33 1548.43 1203.52 1549.39 1203.08 1549.24 1203 1548.01 1202.92 1546.77 1203.43 1545.33 1204.55 1543.7 1207.05 1540.71 1209.57 1539.27 1212.1 1539.36ZM1387.14 1539.31C1386.03 1539.43 1384.81 1539.91 1383.48 1540.72 1383.6 1540.72 1383.72 1540.73 1383.86 1540.74 1383.99 1540.75 1384.08 1540.78 1384.14 1540.83 1384.39 1541.1 1384.02 1541.42 1383.02 1541.81 1382.02 1542.19 1380.89 1542.58 1379.62 1542.98 1378.35 1543.37 1377.44 1543.72 1376.88 1544.03 1374.22 1545.67 1372.52 1547.81 1371.78 1550.47 1371.05 1553.12 1370.97 1555.91 1371.57 1558.82 1372.16 1561.73 1373.13 1564.39 1374.46 1566.8 1376.25 1569.67 1378.53 1571.25 1381.29 1571.56 1384.05 1571.87 1386.75 1571.22 1389.41 1569.59 1392.06 1567.97 1394.13 1565.68 1395.61 1562.73 1397.09 1559.79 1397.45 1556.48 1396.69 1552.83 1396.16 1550.4 1395.37 1547.94 1394.32 1545.44 1393.27 1542.94 1391.87 1541.12 1390.11 1539.98 1389.23 1539.41 1388.24 1539.19 1387.14 1539.31ZM1598.06 1537.44C1595.05 1542.88 1592.64 1548.03 1590.83 1552.89 1589.02 1557.75 1588.02 1562.69 1587.82 1567.69 1587.92 1570.5 1588.7 1571.99 1590.16 1572.17 1591.61 1572.34 1593.11 1571.47 1594.64 1569.56 1597.96 1565.23 1600 1560.6 1600.76 1555.64 1601.53 1550.69 1600.63 1544.62 1598.06 1537.44ZM1518.35 1537.11C1520.74 1537.31 1522.94 1537.95 1524.94 1539.03 1528.94 1541.21 1531.79 1544.33 1533.49 1548.39 1535.18 1552.46 1535.37 1556.63 1534.04 1560.91 1532.7 1565.18 1529.5 1568.73 1524.42 1571.54 1521.23 1573.14 1517.58 1574.4 1513.46 1575.32 1509.35 1576.23 1505.45 1576.71 1501.76 1576.75 1498.07 1576.79 1495.27 1576.31 1493.36 1575.3 1491.45 1574.3 1491.09 1572.67 1492.3 1570.44 1492.43 1572.01 1493.99 1572.9 1496.98 1573.09 1499.96 1573.28 1503.28 1573.2 1506.93 1572.86 1512.87 1572.37 1518 1570.88 1522.3 1568.39 1526.61 1565.9 1529.41 1562.72 1530.71 1558.84 1532.01 1554.96 1531.12 1550.68 1528.05 1546.01 1526.4 1543.62 1524.04 1541.8 1520.97 1540.55 1517.9 1539.3 1514.47 1538.77 1510.67 1538.96 1509.08 1539.01 1508.28 1538.94 1508.26 1538.75 1508.25 1538.55 1509.02 1538.26 1510.56 1537.87 1513.35 1537.17 1515.95 1536.92 1518.35 1537.11ZM1324.35 1537.11C1326.74 1537.31 1328.94 1537.95 1330.94 1539.03 1334.94 1541.21 1337.79 1544.33 1339.49 1548.39 1341.18 1552.46 1341.37 1556.63 1340.04 1560.91 1338.7 1565.18 1335.5 1568.73 1330.42 1571.54 1327.23 1573.14 1323.58 1574.4 1319.46 1575.32 1315.35 1576.23 1311.45 1576.71 1307.76 1576.75 1304.07 1576.79 1301.27 1576.31 1299.36 1575.3 1297.45 1574.3 1297.09 1572.67 1298.3 1570.44 1298.43 1572.01 1299.99 1572.9 1302.98 1573.09 1305.96 1573.28 1309.28 1573.2 1312.93 1572.86 1318.87 1572.37 1324 1570.88 1328.3 1568.39 1332.61 1565.9 1335.41 1562.72 1336.71 1558.84 1338.01 1554.96 1337.12 1550.68 1334.05 1546.01 1332.4 1543.62 1330.04 1541.8 1326.97 1540.55 1323.9 1539.3 1320.47 1538.77 1316.67 1538.96 1315.08 1539.01 1314.28 1538.94 1314.26 1538.75 1314.25 1538.55 1315.02 1538.26 1316.56 1537.87 1319.35 1537.17 1321.95 1536.92 1324.35 1537.11ZM1273.19 1536.68C1273.4 1536.68 1273.6 1536.74 1273.79 1536.87 1274.17 1537.14 1274.37 1537.32 1274.4 1537.44 1274.11 1541.43 1273.88 1545.01 1273.69 1548.18 1273.5 1551.35 1273.09 1554.54 1272.47 1557.75 1271.84 1560.96 1270.72 1564.64 1269.12 1568.79 1266.86 1574.2 1263.91 1578.12 1260.27 1580.55 1256.63 1582.98 1253.12 1583.77 1249.75 1582.93 1246.38 1582.09 1243.97 1579.46 1242.51 1575.06 1242.02 1573.53 1241.73 1571.94 1241.63 1570.29 1241.53 1568.63 1241.57 1566.85 1241.74 1564.94 1242.41 1566.21 1242.88 1567.49 1243.16 1568.77 1243.43 1570.06 1243.76 1571.31 1244.16 1572.53 1245.55 1576.25 1247.51 1578.59 1250.04 1579.54 1252.57 1580.49 1255.25 1580.1 1258.07 1578.37 1260.89 1576.64 1263.44 1573.63 1265.71 1569.34 1266.93 1566.99 1267.88 1564.68 1268.56 1562.42 1269.23 1560.15 1269.77 1557.49 1270.16 1554.44 1270.55 1551.39 1270.94 1547.52 1271.32 1542.83 1271.4 1541.47 1271.51 1540.25 1271.63 1539.16 1271.76 1538.06 1272.06 1537.31 1272.53 1536.89 1272.76 1536.75 1272.98 1536.68 1273.19 1536.68ZM1388.77 1536.01C1391.02 1535.91 1392.87 1536.9 1394.34 1538.98 1395.8 1541.07 1397.24 1544.18 1398.66 1548.32 1400.53 1553.97 1400.42 1559.09 1398.35 1563.69 1396.27 1568.3 1392.56 1571.82 1387.23 1574.28 1383.18 1575.99 1379.64 1575.78 1376.62 1573.65 1373.59 1571.52 1371.35 1568.42 1369.9 1564.35 1368.45 1560.27 1368.06 1556.18 1368.75 1552.06 1369.25 1548.57 1370.55 1545.86 1372.65 1543.92 1374.74 1541.97 1378.25 1540.91 1383.15 1540.72 1383.36 1539.14 1383.99 1537.97 1385.05 1537.21 1386.11 1536.45 1387.35 1536.05 1388.77 1536.01ZM1289.07 1534.04C1289.62 1534.08 1289.9 1534.36 1289.9 1534.91 1289.62 1541.81 1289.32 1548.68 1289 1555.52 1288.68 1562.37 1288.36 1569.02 1288.03 1575.48 1287.16 1573.62 1286.53 1570.68 1286.14 1566.66 1285.75 1562.65 1285.57 1558.34 1285.59 1553.75 1285.61 1549.16 1285.8 1545.07 1286.15 1541.48 1286.5 1537.89 1286.98 1535.59 1287.59 1534.58 1288.03 1534.19 1288.52 1534.01 1289.07 1534.04ZM1480.8 1533.99C1482.76 1534.18 1484.62 1535.18 1486.39 1536.98 1489.63 1540.64 1491.19 1544.39 1491.06 1548.22 1490.92 1552.06 1489.07 1555.5 1485.51 1558.55 1484.73 1558.43 1484.72 1557.77 1485.48 1556.57 1486.24 1555.37 1486.84 1554.38 1487.27 1553.6 1488.43 1550.37 1488.51 1547.29 1487.49 1544.38 1486.48 1541.46 1484.86 1539.37 1482.63 1538.11 1480.41 1536.85 1478.07 1537.1 1475.6 1538.85 1474.34 1539.67 1473.23 1540.71 1472.27 1541.99 1471.32 1543.27 1471.14 1545.52 1471.75 1548.76 1473.06 1555.53 1472.93 1561.51 1471.37 1566.68 1469.81 1571.85 1467.52 1576.05 1464.51 1579.29 1461.51 1582.52 1458.5 1584.63 1455.48 1585.61 1453.89 1586.18 1451.79 1586.63 1449.17 1586.94 1446.55 1587.25 1444.03 1586.96 1441.62 1586.05 1440.04 1585.26 1439.3 1584.67 1439.42 1584.27 1439.54 1583.87 1440.46 1583.77 1442.17 1583.97 1447.91 1584.7 1452.8 1583.91 1456.86 1581.57 1460.91 1579.24 1464.04 1575.99 1466.24 1571.83 1468.44 1567.66 1469.62 1563.2 1469.78 1558.44 1469.78 1556.02 1469.56 1553.77 1469.11 1551.69 1468.66 1549.61 1468.29 1547.71 1468.02 1546.01 1467.88 1544.91 1467.94 1543.85 1468.18 1542.83 1468.43 1541.8 1469.03 1540.77 1469.99 1539.73 1473.17 1536.44 1476.11 1534.55 1478.81 1534.08 1479.48 1533.96 1480.15 1533.93 1480.8 1533.99ZM1555.62 1533.46C1556.33 1533.42 1557.06 1533.43 1557.82 1533.48 1563.05 1534.05 1567 1536.24 1569.65 1540.05 1572.31 1543.86 1573.64 1548.19 1573.65 1553.05 1573.56 1557.16 1572.69 1560.85 1571.06 1564.13 1569.42 1567.41 1567.53 1569.73 1565.41 1571.08 1566.81 1568.01 1567.98 1565.31 1568.92 1562.97 1569.86 1560.64 1570.45 1558.32 1570.69 1556.02 1571.13 1551.17 1570.22 1546.93 1567.98 1543.32 1565.74 1539.7 1562.5 1537.45 1558.26 1536.56 1554.58 1536.02 1551.71 1536.68 1549.65 1538.54 1547.6 1540.39 1546.65 1542.7 1546.82 1545.46 1546.73 1545.71 1546.47 1545.35 1546.04 1544.4 1545.6 1543.45 1545.54 1542.08 1545.83 1540.29 1546.39 1537.96 1547.77 1536.19 1549.97 1534.99 1551.62 1534.09 1553.5 1533.58 1555.62 1533.46ZM1630.16 1532.71C1633.17 1532.72 1635.9 1533.76 1638.36 1535.81 1641.64 1538.55 1644.21 1542.3 1646.09 1547.04 1647.96 1551.79 1648.91 1556.72 1648.95 1561.84 1648.77 1566.04 1647.64 1569.2 1645.56 1571.33 1643.47 1573.46 1641.49 1574.48 1639.61 1574.38 1638.87 1574.39 1638.88 1574.13 1639.65 1573.61 1640.41 1573.1 1641.39 1572.29 1642.58 1571.19 1645.1 1568.42 1646.22 1564.73 1645.91 1560.13 1645.61 1555.53 1644.34 1551.05 1642.09 1546.69 1639.85 1542.34 1637.07 1539.14 1633.77 1537.09 1631.03 1535.71 1628.29 1535.48 1625.55 1536.39 1622.81 1537.31 1620.68 1539.41 1619.15 1542.7 1618.6 1543.91 1618.21 1545.27 1617.99 1546.77 1617.77 1548.28 1617.72 1549.97 1617.83 1551.83 1617.88 1553.03 1617.63 1553.36 1617.08 1552.84 1616.53 1552.32 1616.03 1551.26 1615.57 1549.65 1615.12 1548.04 1615.07 1546.2 1615.41 1544.13 1616.05 1541.11 1617.41 1538.66 1619.46 1536.81 1621.52 1534.95 1624.05 1533.69 1627.06 1533.04 1628.12 1532.81 1629.16 1532.7 1630.16 1532.71ZM1352.38 1531.39C1353.53 1531.22 1354.41 1531.47 1355 1532.14 1355.59 1532.81 1355.88 1534.25 1355.89 1536.44 1355.91 1538.05 1355.88 1539.98 1355.78 1542.25 1355.69 1544.52 1355.39 1546.73 1354.9 1548.89 1354.4 1551.04 1353.56 1552.76 1352.38 1554.03ZM1236.38 1531.39C1237.53 1531.22 1238.41 1531.47 1239 1532.14 1239.59 1532.81 1239.88 1534.25 1239.89 1536.44 1239.91 1538.05 1239.88 1539.98 1239.78 1542.25 1239.69 1544.52 1239.39 1546.73 1238.9 1548.89 1238.4 1551.04 1237.56 1552.76 1236.38 1554.03ZM1617.82 1516.17C1618.26 1516.12 1618.52 1516.19 1618.6 1516.37 1618.77 1516.73 1617.97 1517.52 1616.2 1518.74 1612.36 1521.35 1609.22 1523.82 1606.78 1526.15 1604.33 1528.47 1602.49 1530.48 1601.24 1532.16 1600.42 1533.19 1600.11 1533.96 1600.32 1534.47 1600.53 1534.98 1600.91 1535.97 1601.47 1537.44 1603.12 1542.05 1603.96 1546.93 1603.98 1552.08 1604 1557.23 1602.83 1562.03 1600.48 1566.48 1599.11 1569.06 1597.5 1571.32 1595.64 1573.26 1593.77 1575.21 1591.61 1576.2 1589.14 1576.25 1587.37 1576.17 1586.14 1574.71 1585.46 1571.87 1584.79 1569.03 1584.77 1565.62 1585.41 1561.64 1585.99 1558.28 1587.24 1554.18 1589.13 1549.33 1591.03 1544.48 1593.34 1539.85 1596.08 1535.46 1596.53 1534.6 1596.43 1533.43 1595.78 1531.97 1595.14 1530.5 1594.3 1529.05 1593.29 1527.62 1592.27 1526.19 1591.44 1525.1 1590.79 1524.35 1590.06 1523.33 1589.88 1522.66 1590.25 1522.34 1590.63 1522.01 1591.36 1522.17 1592.44 1522.81 1593.97 1523.91 1595.22 1525.33 1596.2 1527.08 1597.18 1528.83 1598.02 1530.23 1598.71 1531.28 1599.75 1530.04 1601.11 1528.46 1602.8 1526.53 1604.48 1524.6 1606.44 1522.72 1608.66 1520.88 1610.89 1519.04 1613.33 1517.63 1615.98 1516.65 1616.77 1516.37 1617.38 1516.21 1617.82 1516.17Z" stroke="#FA5B60" stroke-width="3" stroke-linejoin="round" stroke-miterlimit="10" fill="#FA5B60" fill-rule="evenodd"/><text fill="#000000" fill-opacity="0" font-family="Arial,Arial_MSFontService,sans-serif" font-size="70.9047" direction="rtl" writing-mode="rl-tb" x="1648.95" y="1578.2">הערכת סיכונים</text></g></svg>