<?xml version="1.0" encoding="UTF-8"?>
<svg id="Layer_1" xmlns="http://www.w3.org/2000/svg" version="1.1" xmlns:xlink="http://www.w3.org/1999/xlink" viewBox="0 0 329.22 291.67">
  <!-- Generator: Adobe Illustrator 29.1.0, SVG Export Plug-In . SVG Version: 2.1.0 Build 142)  -->
  <defs>
    <style>
      .st0 {
        stroke-width: .16px;
      }

      .st0, .st1, .st2, .st3, .st4 {
        fill: none;
      }

      .st0, .st3 {
        stroke: #fff;
        stroke-miterlimit: 8;
      }

      .st5 {
        clip-path: url(#clippath-6);
      }

      .st6 {
        clip-path: url(#clippath-7);
      }

      .st7 {
        clip-path: url(#clippath-17);
      }

      .st8 {
        fill: #f7e9d8;
      }

      .st8, .st9, .st10, .st11 {
        fill-rule: evenodd;
      }

      .st1 {
        clip-path: url(#clippath-15);
      }

      .st1, .st4 {
        clip-rule: evenodd;
      }

      .st12 {
        clip-path: url(#clippath-18);
      }

      .st13 {
        clip-path: url(#clippath-4);
      }

      .st14 {
        clip-path: url(#clippath-9);
      }

      .st15 {
        clip-path: url(#clippath-10);
      }

      .st16 {
        fill: #fff;
      }

      .st9 {
        fill: #accb57;
      }

      .st17 {
        fill: #395829;
      }

      .st18 {
        clip-path: url(#clippath-11);
      }

      .st3 {
        stroke-width: .22px;
      }

      .st19 {
        clip-path: url(#clippath-1);
      }

      .st20 {
        clip-path: url(#clippath-5);
      }

      .st21 {
        clip-path: url(#clippath-8);
      }

      .st22 {
        clip-path: url(#clippath-3);
      }

      .st23 {
        clip-path: url(#clippath-12);
      }

      .st10 {
        fill: #d4eef9;
        opacity: .41;
      }

      .st24 {
        clip-path: url(#clippath-14);
      }

      .st25 {
        clip-path: url(#clippath-19);
      }

      .st26 {
        fill: #b9cccd;
      }

      .st27 {
        clip-path: url(#clippath-16);
      }

      .st28 {
        clip-path: url(#clippath-2);
      }

      .st29 {
        clip-path: url(#clippath-13);
      }

      .st11 {
        fill: #91d8f5;
      }

      .st30 {
        fill: #e03549;
      }

      .st31 {
        clip-path: url(#clippath);
      }
    </style>
    <clipPath id="clippath">
      <polygon class="st4" points="18.03 266.61 311.19 266.61 311.19 37.53 18.03 37.53 18.03 266.61 18.03 266.61"/>
    </clipPath>
    <clipPath id="clippath-1">
      <polygon class="st4" points="18.03 266.61 311.19 266.61 311.19 37.53 18.03 37.53 18.03 266.61 18.03 266.61"/>
    </clipPath>
    <clipPath id="clippath-2">
      <polygon class="st4" points="18.03 266.61 311.19 266.61 311.19 37.53 18.03 37.53 18.03 266.61 18.03 266.61"/>
    </clipPath>
    <clipPath id="clippath-3">
      <polygon class="st4" points="18.03 266.61 311.19 266.61 311.19 37.53 18.03 37.53 18.03 266.61 18.03 266.61"/>
    </clipPath>
    <clipPath id="clippath-4">
      <polygon class="st4" points="18.03 266.61 311.19 266.61 311.19 37.53 18.03 37.53 18.03 266.61 18.03 266.61"/>
    </clipPath>
    <clipPath id="clippath-5">
      <rect class="st2" x="18.03" y="37.53" width="293.16" height="229.08"/>
    </clipPath>
    <clipPath id="clippath-6">
      <polygon class="st4" points="18.03 266.61 311.19 266.61 311.19 37.53 18.03 37.53 18.03 266.61 18.03 266.61"/>
    </clipPath>
    <clipPath id="clippath-7">
      <rect class="st2" x="18.03" y="37.53" width="293.16" height="229.08"/>
    </clipPath>
    <clipPath id="clippath-8">
      <polygon class="st4" points="18.03 266.61 311.19 266.61 311.19 37.53 18.03 37.53 18.03 266.61 18.03 266.61"/>
    </clipPath>
    <clipPath id="clippath-9">
      <rect class="st2" x="18.03" y="37.53" width="293.16" height="229.08"/>
    </clipPath>
    <clipPath id="clippath-10">
      <polygon class="st4" points="18.03 266.61 311.19 266.61 311.19 37.53 18.03 37.53 18.03 266.61 18.03 266.61"/>
    </clipPath>
    <clipPath id="clippath-11">
      <rect class="st2" x="18.03" y="37.53" width="293.16" height="229.08"/>
    </clipPath>
    <clipPath id="clippath-12">
      <polygon class="st4" points="18.03 266.61 311.19 266.61 311.19 37.53 18.03 37.53 18.03 266.61 18.03 266.61"/>
    </clipPath>
    <clipPath id="clippath-13">
      <rect class="st2" x="18.03" y="37.53" width="293.16" height="229.08"/>
    </clipPath>
    <clipPath id="clippath-14">
      <polygon class="st4" points="18.03 266.61 311.19 266.61 311.19 37.53 18.03 37.53 18.03 266.61 18.03 266.61"/>
    </clipPath>
    <clipPath id="clippath-15">
      <polygon class="st4" points="18.03 266.61 311.19 266.61 311.19 37.53 18.03 37.53 18.03 266.61 18.03 266.61"/>
    </clipPath>
    <clipPath id="clippath-16">
      <polygon class="st1" points="78.15 51.81 142.11 51.81 142.11 146.85 78.15 146.85 78.15 51.81 78.15 51.81"/>
    </clipPath>
    <clipPath id="clippath-17">
      <polygon class="st2" points="78.15 146.85 142.11 146.85 142.11 51.81 78.15 51.81 78.15 146.85 78.15 146.85"/>
    </clipPath>
    <clipPath id="clippath-18">
      <polygon class="st4" points="18.03 266.61 311.19 266.61 311.19 37.53 18.03 37.53 18.03 266.61 18.03 266.61"/>
    </clipPath>
    <clipPath id="clippath-19">
      <polygon class="st4" points="18.03 266.61 311.19 266.61 311.19 37.53 18.03 37.53 18.03 266.61 18.03 266.61"/>
    </clipPath>
  </defs>
  <g>
    <path class="st10" d="M23.58,88.93S66.68,15.83,131.33,44.18c64.65,28.34,73.88-28.35,140.08,13.43,66.19,41.76,40.03,125.31-9.24,143.22-49.25,16.41-44.64,67.13-130.84,65.63-86.2-1.5-109.28-74.59-100.05-101.44,9.24-26.85-26.17-34.31-7.69-76.09h0Z"/>
    <path class="st3" d="M23.58,88.93S66.68,15.83,131.33,44.18c64.65,28.34,73.88-28.35,140.08,13.43,66.19,41.76,40.03,125.31-9.24,143.22-49.25,16.41-44.64,67.13-130.84,65.63-86.2-1.5-109.28-74.59-100.05-101.44,9.24-26.85-26.17-34.31-7.69-76.09h0Z"/>
    <g class="st31">
      <path class="st11" d="M61.98,106.14s31.38-53.25,78.45-32.59c47.07,20.64,53.79-20.64,101.99,9.78,48.18,30.42,29.14,91.27-6.72,104.31-35.86,11.95-32.5,48.9-95.25,47.81-62.75-1.08-79.57-54.33-72.84-73.89,6.72-19.56-19.05-24.98-5.61-55.42h-.01Z"/>
      <path class="st0" d="M61.98,106.14s31.38-53.25,78.45-32.59c47.07,20.64,53.79-20.64,101.99,9.78,48.18,30.42,29.14,91.27-6.72,104.31-35.86,11.95-32.5,48.9-95.25,47.81-62.75-1.08-79.57-54.33-72.84-73.89,6.72-19.56-19.05-24.98-5.61-55.42h-.01Z"/>
      <g class="st19">
        <path class="st8" d="M66.09,107.91s30.11-51.05,75.27-31.26c45.16,19.79,51.61-19.79,97.84,9.38,46.24,29.18,27.96,87.53-6.45,100.03-34.41,11.47-31.18,46.89-91.4,45.85-60.22-1.04-76.34-52.11-69.89-70.86,6.45-18.75-18.28-23.97-5.37-53.14h-.01Z"/>
        <g class="st28">
          <path class="st8" d="M83.43,115.66s24.8-42.08,62.02-25.77c37.21,16.32,42.53-16.32,80.63,7.74,38.1,24.06,23.03,72.15-5.32,82.46-28.35,9.45-25.69,38.65-75.31,37.79-49.62-.86-62.9-42.95-57.6-58.4,5.32-15.46-15.05-19.75-4.43-43.81h0Z"/>
          <g class="st22">
            <path class="st9" d="M87.94,117.73s23.44-39.75,58.57-24.33c35.15,15.42,40.17-15.42,76.15,7.3,35.99,22.72,21.76,68.14-5.02,77.87-26.78,8.93-24.27,36.5-71.13,35.7-46.86-.81-59.41-40.56-54.39-55.16,5.02-14.6-14.23-18.66-4.18-41.37h0Z"/>
            <g class="st13">
              <g class="st20">
                <text/>
              </g>
              <g class="st5">
                <g class="st6">
                  <text/>
                </g>
                <g class="st21">
                  <g class="st14">
                    <text/>
                  </g>
                  <g class="st15">
                    <g class="st18">
                      <text/>
                    </g>
                    <g class="st23">
                      <g class="st29">
                        <text/>
                      </g>
                      <g class="st24">
                        <g class="st27">
                          <g class="st7">
                            <path class="st26" d="M82.11,52.82c1.29,0,2.34,1.06,2.34,2.36v89.22c0,1.3-1.05,2.36-2.34,2.36h0c-1.29,0-2.34-1.06-2.34-2.36V55.18c0-1.3,1.05-2.36,2.34-2.36h0Z"/>
                            <path class="st30" d="M141.97,104.62c-26.67-7.39-35.04,1.5-48.71,1.5-7.7,0-11.98-1.8-13.51-2.61-.4-.21-.65-.62-.65-1.08v-42.38c0-.34.35-.55.65-.39,1.52.81,5.81,2.62,13.51,2.62,14.99,0,22.04-8.89,48.71-1.5v43.85h0Z"/>
                          </g>
                        </g>
                        <g class="st12">
                          <text/>
                          <g class="st25">
                            <text/>
                          </g>
                        </g>
                      </g>
                    </g>
                  </g>
                </g>
              </g>
            </g>
          </g>
        </g>
      </g>
    </g>
  </g>
  <path class="st16" d="M109.69,93.93c-1.37.03-2.61-.09-3.71-.38-1.11-.28-2.1-.69-2.97-1.22-.87-.53-1.62-1.14-2.26-1.82l2.49-3.56c.79.73,1.68,1.34,2.64,1.83.96.49,2.02.72,3.18.69,1.29-.03,2.33-.34,3.12-.94.79-.6,1.18-1.42,1.15-2.46-.02-.78-.23-1.45-.65-2.02s-1.14-1-2.16-1.3-2.48-.43-4.36-.38l-.09-3.94c1.58-.04,2.82-.22,3.71-.55.89-.33,1.53-.77,1.9-1.31.38-.55.56-1.18.54-1.91-.02-.97-.33-1.7-.94-2.21-.6-.51-1.43-.75-2.47-.73-.94.02-1.79.24-2.56.66-.77.42-1.53,1-2.29,1.74l-2.9-3.28c1.16-1.05,2.37-1.87,3.65-2.48,1.27-.61,2.69-.93,4.25-.96,1.72-.04,3.23.19,4.53.7,1.3.51,2.32,1.26,3.07,2.27.75,1,1.14,2.25,1.17,3.76.03,1.34-.32,2.5-1.05,3.47-.73.97-1.77,1.77-3.13,2.39v.16c1,.25,1.9.64,2.69,1.19.79.55,1.42,1.23,1.88,2.05.46.82.71,1.78.73,2.88.04,1.58-.35,2.94-1.17,4.07-.82,1.13-1.93,2-3.34,2.62-1.41.61-2.96.93-4.65.97Z"/>
  <g>
    <path class="st17" d="M137.97,147.33l-.93-3.09,5.74-1.79c.64-.2,1.13-.48,1.47-.84s.57-.82.69-1.36c.13-.54.17-1.19.15-1.95-.03-.75-.1-1.62-.23-2.59-.12-.98-.25-2.07-.4-3.28l4.03-.47c.16,1.36.29,2.63.38,3.82.09,1.19.1,2.3.02,3.31-.08,1.02-.32,1.94-.7,2.77-.38.83-.97,1.57-1.76,2.2-.79.64-1.86,1.17-3.2,1.6l-5.25,1.66ZM140.44,143.64l-3.73-10.3,4.07-.48,3.53,10.32-3.87.46h0ZM159.11,143.84l-1.05-8.95c-.04-.34-.15-.59-.34-.73s-.45-.2-.79-.16l-6.18.73-.35-3,7.34-.86c.75-.09,1.43-.02,2.05.19.62.21,1.14.61,1.56,1.19.42.58.68,1.38.8,2.39l1.03,8.73-4.07.48h0ZM151.75,144.71l-.72-6.16.38-1.57,3.51-.41.18,1.5.72,6.16-4.07.48h0ZM171.14,142.66l-3.3-12.98,3.85-.45,2.33,9.73c1.08-.2,1.95-.51,2.61-.91.66-.4,1.14-.88,1.45-1.43.31-.55.5-1.16.57-1.83s.06-1.36-.03-2.07l-.55-4.25,4.07-.48.5,4.03c.25,2.03.03,3.79-.66,5.3-.69,1.5-1.92,2.71-3.69,3.61s-4.15,1.48-7.15,1.73h0ZM173.03,137.12l-1.25-2.37c.62-.15,1.05-.38,1.3-.7.25-.32.38-.76.39-1.32,0-.56-.04-1.27-.16-2.14l-.2-1.54,3.85-.45.17,1.45c.12,1.03.1,1.99-.06,2.89-.16.9-.55,1.7-1.18,2.4-.63.7-1.58,1.29-2.85,1.78h0ZM185.48,140.74l-1.22-10.34-.55-2.59,4.05-.48.58,2.59,1.22,10.34-4.07.48h0ZM196.62,139.43l-1.05-8.95c-.04-.34-.15-.59-.34-.73-.18-.14-.45-.2-.79-.16l-4.59.54-.35-3,5.75-.68c.75-.09,1.43-.02,2.05.19.62.21,1.14.61,1.56,1.19.42.58.68,1.38.8,2.39l1.03,8.73-4.07.48h0ZM202.22,134.01l-.24-2.08-.42-3.56-.55-2.59,4.05-.48.58,2.59.42,3.56.14,1.41-3.97,1.15h0ZM208.77,138l-.35-3,5.01-.59c.37-.04.69-.15.94-.33.25-.17.45-.39.59-.66.14-.27.24-.56.28-.87.05-.32.05-.64.01-.97l-.21-1.81c-.05-.43-.17-.84-.37-1.22-.2-.38-.46-.67-.81-.88-.34-.21-.76-.29-1.25-.23l-1.21.14-.13,1.6c-.02.38.08.66.28.83s.56.29,1.08.35l-.29,2.53c-1.21.16-2.15.08-2.84-.23-.69-.31-1.17-.77-1.45-1.38-.28-.61-.4-1.3-.37-2.06l.43-4.29,5.15-.61c1.1-.13,2.07,0,2.9.42.83.41,1.5,1.03,2.01,1.85s.84,1.8.97,2.92l.16,1.37c.1.84.07,1.62-.07,2.36s-.42,1.39-.8,1.97-.88,1.04-1.49,1.4c-.61.36-1.32.59-2.14.68l-6.02.71Z"/>
    <path class="st17" d="M126.09,140.38l-1.32-4.66-.52-3.3,3.85-.45.26,3.33-.2,4.83-2.06.24h0ZM131.91,139.69l-1.32-4.66-.52-3.3,3.85-.45.26,3.33-.2,4.83-2.06.24h0Z"/>
    <path class="st17" d="M112.72,149.53l-2.36-10.05,3.67-2.2,1.83,8.25c.65-.12,1.17-.28,1.57-.48.39-.2.68-.43.87-.7.19-.27.3-.58.35-.93.04-.35.04-.72,0-1.13-.04-.41-.1-.85-.17-1.33l-.09-.74c-.04-.37-.14-.67-.28-.9-.14-.23-.31-.39-.5-.5-.19-.11-.41-.14-.65-.12l-6.6.78-.73-2.95,7.27-.86c1.57-.18,2.82.09,3.76.83.94.74,1.52,1.83,1.74,3.29l.11.78c.21,1.38.14,2.58-.21,3.59-.35,1.01-.95,1.87-1.81,2.57s-1.94,1.29-3.24,1.74-2.82.81-4.53,1.05h0Z"/>
    <path class="st17" d="M113.96,176.43l-1.05-8.95c-.04-.34-.15-.59-.34-.73-.18-.14-.45-.2-.79-.16l-6.18.73-.35-3,7.34-.86c.75-.09,1.43-.02,2.05.19.62.21,1.14.61,1.56,1.19.42.58.68,1.38.8,2.39l1.03,8.73-4.07.48h0ZM106.59,177.29l-.72-6.16.38-1.57,3.51-.41.18,1.5.72,6.16-4.07.48h0ZM119.55,175.77l-.35-3,2.93-.34-.7-5.91c-.06-.48-.17-.78-.36-.9-.18-.12-.42-.18-.72-.18h-1.64s.14-3.02.14-3.02l3.34.02c.94,0,1.69.32,2.26.96.57.64.91,1.49,1.04,2.53l1.06,9.02-7.01.82h0ZM128.6,174.7l-1.22-10.34-.55-2.59,4.05-.48.58,2.59,1.22,10.34-4.07.48h0ZM139.91,173.4v-3.04c1.08.1,1.86,0,2.35-.29.5-.29.8-.75.92-1.37.12-.62.12-1.35.02-2.2-.1-.84-.25-1.51-.45-2.03-.2-.52-.48-.89-.81-1.12-.34-.23-.76-.31-1.27-.25-.3.04-.58.13-.84.28-.26.15-.48.36-.64.63-.17.27-.25.61-.24,1.02l-1.04-1.51c.16-1.18.55-2.07,1.15-2.67.6-.59,1.32-.94,2.14-1.03.87-.1,1.63-.04,2.3.18.67.22,1.25.6,1.73,1.13.49.53.88,1.21,1.18,2.04.3.83.52,1.79.64,2.87.19,1.6.04,2.98-.45,4.16-.49,1.18-1.3,2.06-2.42,2.63-1.13.58-2.55.77-4.27.56h0ZM134.58,174l.49-8.75-2.33-4.17,4.23-.5,1.97,4.44-.29,8.5-4.07.48h0ZM154.7,171.66v-3.04c1.08.1,1.86,0,2.35-.29.5-.29.8-.75.92-1.37.12-.62.12-1.35.02-2.2-.1-.84-.25-1.51-.45-2.03-.2-.52-.48-.89-.81-1.12-.34-.23-.76-.31-1.27-.25-.3.04-.58.13-.84.28-.26.15-.48.36-.64.63-.17.27-.25.61-.24,1.02l-1.04-1.51c.16-1.18.55-2.07,1.15-2.67.6-.59,1.32-.94,2.14-1.03.87-.1,1.63-.04,2.3.18.67.22,1.25.6,1.73,1.13.49.53.88,1.21,1.18,2.04.3.83.52,1.79.64,2.87.19,1.6.04,2.98-.45,4.16s-1.3,2.06-2.42,2.63c-1.13.58-2.55.77-4.27.56h0ZM149.37,172.26l.49-8.75-2.33-4.17,4.23-.5,1.97,4.44-.29,8.5-4.07.48h0ZM171.69,169.64l-1.05-8.95c-.04-.34-.15-.59-.34-.73-.18-.14-.45-.2-.79-.16l-6.18.73-.35-3,7.34-.86c.75-.09,1.43-.02,2.05.19.62.21,1.14.61,1.56,1.19s.68,1.38.8,2.39l1.03,8.73-4.07.48h0ZM164.33,170.5l-.72-6.16.38-1.57,3.51-.41.18,1.5.72,6.16-4.07.48h0ZM189.37,167.56l-1.05-8.95c-.04-.34-.15-.59-.34-.73-.18-.14-.45-.2-.79-.16l-6.18.73-.35-3,7.34-.86c.75-.09,1.43-.02,2.05.19.62.21,1.14.61,1.56,1.19.42.58.68,1.38.8,2.39l1.03,8.73-4.07.48h0ZM182,168.42l-.72-6.16.38-1.57,3.51-.41.18,1.5.72,6.16-4.07.48h0ZM200.43,166.28v-3.04c1.08.1,1.86,0,2.35-.29.5-.29.8-.75.92-1.37.12-.62.12-1.35.02-2.2-.1-.84-.25-1.51-.45-2.03-.2-.52-.48-.89-.81-1.12-.34-.23-.76-.31-1.27-.25-.3.04-.58.13-.84.28s-.48.36-.64.63c-.17.27-.25.61-.24,1.02l-1.04-1.51c.16-1.18.55-2.07,1.15-2.67.6-.59,1.32-.94,2.14-1.03.87-.1,1.63-.04,2.3.18.67.22,1.25.6,1.73,1.14s.88,1.21,1.18,2.04c.3.83.52,1.78.64,2.87.19,1.6.04,2.98-.45,4.16-.49,1.18-1.3,2.06-2.42,2.63-1.13.58-2.55.77-4.27.56h0ZM195.1,166.88l.49-8.75-2.33-4.17,4.23-.5,1.98,4.44-.29,8.5-4.07.48h0ZM215.06,164.53l-1.05-8.95c-.04-.34-.15-.59-.34-.73-.18-.14-.45-.2-.79-.16l-4.59.54-.35-3,5.75-.68c.75-.09,1.43-.02,2.05.19.62.21,1.14.61,1.56,1.19.42.58.68,1.38.8,2.39l1.03,8.73-4.07.48h0ZM223.1,163.59l2.68-10.41-6.22.73-.35-3,10.3-1.21.39,3.31-2.72,10.1-4.07.48h0ZM219.55,153.91l-.72-6.09,3.63-.43.72,6.09-3.63.43h0Z"/>
  </g>
</svg>