<svg width="366" height="481" xmlns="http://www.w3.org/2000/svg" xmlns:xlink="http://www.w3.org/1999/xlink" xml:space="preserve" overflow="hidden"><g transform="translate(-419 -3612)"><g><g><g><path d="M14.0157 0C20.0417-1.9697e-15 24.9267 4.88501 24.9267 10.911L24.9267 423.666C24.9267 429.692 20.0417 434.577 14.0157 434.577L14.0157 434.577C7.98977 434.577 3.10475 429.692 3.10475 423.666L3.10475 10.911C3.10475 4.885 7.98977-1.46354e-05 14.0157-1.46354e-05Z" fill="#BACCCE" transform="matrix(-1 0 0 1.00216 769 3657.24)"/><path d="M293 239.642C168.721 205.446 129.69 246.562 65.9982 246.562 30.1161 246.562 10.157 238.223 3.01604 234.497 1.15319 233.522 1.42803e-14 231.615 1.42803e-14 229.486L1.42803e-14 33.4426C1.42803e-14 31.8902 1.64108 30.9145 3.01604 31.6241 10.1126 35.3498 30.0717 43.7326 65.9982 43.7326 135.855 43.7326 168.721 2.61686 293 36.8135L293 239.687Z" fill="#E03448" transform="matrix(-1 0 0 1.00216 769 3657.24)"/></g></g></g><text fill="#FFFFFF" font-family="Assistant ExtraBold,Assistant ExtraBold_MSFontService,sans-serif" font-weight="800" font-size="183" transform="matrix(1 0 0 1 575.365 3840)">5</text><text fill="#FFFFFF" font-family="Assistant ExtraBold,Assistant ExtraBold_MSFontService,sans-serif" font-weight="800" font-size="183" transform="matrix(1 0 0 1 538.675 3840)"> </text></g></svg>