<?xml version="1.0" encoding="UTF-8"?>
<svg id="Layer_1" xmlns="http://www.w3.org/2000/svg" version="1.1" viewBox="0 0 726 937.96">
  <!-- Generator: Adobe Illustrator 29.1.0, SVG Export Plug-In . SVG Version: 2.1.0 Build 142)  -->
  <defs>
    <style>
      .st0 {
        fill: #181818;
        opacity: .14;
      }

      .st0, .st1, .st2, .st3, .st4, .st5 {
        fill-rule: evenodd;
      }

      .st1 {
        fill: #5fb6be;
      }

      .st2 {
        fill: #fff;
      }

      .st3 {
        fill: #fbe4b2;
      }

      .st4 {
        fill: #96995f;
      }

      .st5 {
        fill: #36594e;
      }
    </style>
  </defs>
  <path class="st4" d="M75.68,848.08c-9.61,0-19.2,2.27-27.59,6.94-2.09,1.16-4.13,2.47-6.43,3.15-2.24.67-4.6.72-6.95.72-.39,0-.79,0-1.18,0h-.2c-10.35.03-20.7,1.46-30.66,4.23-.87.25-1.77.52-2.62.86v71.94c0,3.18,2.6,5.75,5.81,5.75h239.04c.13-7.35-.86-14.6-4.91-20.62-2.89-4.3-6.98-7.63-9.96-11.85-2.57-3.63-1.97-7.44-3.79-10.97-2.08-4.03-9.65-6.69-13.49-8.83-5.35-2.98-10.77-5.84-16.25-8.58-3.48-1.73-7.19-3.46-11.04-3.46-.38,0-.75.02-1.14.05-2.32.21-4.52,1.1-6.8,1.55-1.4.28-2.81.39-4.24.39-2.89,0-5.8-.46-8.67-.92-8.09-1.3-16.18-2.59-24.28-3.89-6.24-1-12.68-2.08-17.98-5.49-3.09-1.99-5.64-4.69-8.42-7.12-10.44-9.12-24.37-13.87-38.26-13.87h0Z"/>
  <path class="st4" d="M650.65,848.08c9.61,0,19.2,2.27,27.59,6.94,2.09,1.16,4.13,2.47,6.43,3.15,2.24.67,4.6.72,6.95.72.39,0,.79,0,1.18,0h.2c10.35.03,20.7,1.46,30.66,4.23.87.25,1.77.52,2.62.86v71.94c0,3.18-2.6,5.75-5.81,5.75h-239.04c-.13-7.35.86-14.6,4.91-20.62,2.89-4.3,6.98-7.63,9.96-11.85,2.57-3.63,1.97-7.44,3.79-10.97,2.08-4.03,9.65-6.69,13.49-8.83,5.35-2.98,10.77-5.84,16.25-8.58,3.48-1.73,7.19-3.46,11.04-3.46.38,0,.75.02,1.14.05,2.32.21,4.52,1.1,6.8,1.55,1.4.28,2.81.39,4.24.39,2.89,0,5.8-.46,8.67-.92,8.09-1.3,16.18-2.59,24.28-3.89,6.24-1,12.68-2.08,17.98-5.49,3.09-1.99,5.64-4.69,8.42-7.12,10.44-9.12,24.37-13.87,38.26-13.87h0Z"/>
  <polygon class="st1" points=".05 896.32 726.29 896.32 726.29 941.56 .05 941.56 .05 896.32 .05 896.32"/>
  <path class="st5" d="M560.86,848.08c-5.95,0-11.91.13-17.85.39-3.31,9.91-10.43,18.08-17.95,25.38-8.47,8.2-21.73,11.98-27.47,22.25-.54.98,41.27,1.17,75.45,1.17,23.54,0,43.47-.09,43.47-.09-6.78-7.56-16.45-11.78-24.99-17.3-10.18-6.57-18.98-15.21-25.73-25.22-1.34-1.99-2.65-4.19-2.58-6.58-.78,0-1.56,0-2.35,0h0Z"/>
  <path class="st0" d="M542.55,850c-3.5,9.22-10.27,16.93-17.41,23.84-1.84,1.78-3.91,3.35-6.08,4.83,1.44.83,2.88,1.66,4.33,2.49.35.2.75.4,1.14.4.1,0,.19-.01.29-.04.21-.06.39-.2.59-.3.32-.16.66-.22,1.02-.22.56,0,1.16.15,1.72.27,1,.2,2.02.29,3.04.29,2.46,0,4.95-.5,7.38-1,.45-.09.94-.21,1.22-.56.21-.25.28-.59.36-.91.29-1.19.8-2.33,1.49-3.34-1.02-.12-2.04-.24-3.05-.36.06-.5.4-.97.86-1.19h0s-.04,0-.07,0c-.44,0-.65-.7-.33-1.04.19-.2.46-.28.74-.28.21,0,.43.05.62.12.46.17.87.46,1.35.57.16.04.32.06.47.06,1.15,0,2.18-.97,2.99-1.86h0s-.07,0-.1,0c-.82,0-1.43-.92-1.39-1.74.04-.86.57-1.61,1.08-2.31l2.8-3.87c-.85-.55-1.84-.87-2.86-.92-.09-.84,1.33-1.38,1.08-2.19-.21-.66-1.19-.53-1.81-.84-.66-.32-.89-1.19-.72-1.89.17-.71.65-1.3,1.13-1.86.96-1.14,1.92-2.29,2.88-3.44.2-.24.42-.54.33-.85-.19-.64-1.29-.29-1.78-.74-.14-.13-.21-.31-.36-.44-.19-.17-.46-.19-.71-.21-.82-.06-1.54-.26-2.25-.47h0Z"/>
  <path class="st0" d="M563.57,850.36c-.38.16-.82.25-1.36.26-2.09.04-4.17.08-6.26.12-.1.35-.2.69-.3,1.04-.62-.28-1.27-.57-1.94-.57-.07,0-.13,0-.2,0-.74.07-1.49.69-1.41,1.43.12,1.08,1.6,1.28,2.51,1.89,1.2.79,1.4,2.72.38,3.74-.43.43-1.07.8-1.05,1.4.03.91,1.6,1.43,1.27,2.28-3.86,2.94-4.51,8.83-8.51,11.57-.19.13-.4.28-.44.5-.07.44.52.65.79,1.01.45.59-.09,1.45-.73,1.84-.64.39-1.44.65-1.77,1.32-.54,1.03.58,2.32,1.76,2.36.03,0,.05,0,.08,0,1.14,0,2.15-.77,2.92-1.61.8-.87,1.46-1.86,1.97-2.93.39-.81.71-1.69,1.37-2.31,1.4-1.29,3.82-.92,5.19-2.24,1.96-1.87.31-5.4,1.71-7.71.99-1.64,3.05-2.02,5.07-2.02.52,0,1.03.03,1.52.06.54.92-.34,2.02-1.24,2.59-.9.57-2.01,1.13-2.19,2.18-.08.48.07.96.07,1.45.02,2.74-3.96,3.66-5.16,6.14.4.63,1.27.79,1.83,1.3,1.06.94.71,2.62.87,4.02.22,2.01,1.66,3.72,3.39,4.79,1.73,1.07,3.74,1.59,5.7,2.1,1.75-2.78,3.49-5.56,5.24-8.34,2.59,2.94,5.97,5.2,9.69,6.49,3.21,1.11,6.64,1.49,9.87,2.52,4.67,1.5,8.79,4.31,13.24,6.36,2.63,1.21,5.39,2.14,8.21,2.79-6.72-6.98-15.94-11.08-24.14-16.37-10.16-6.55-18.96-15.17-25.71-25.16-.9-1.34-1.79-2.79-2.24-4.32h0Z"/>
  <path class="st2" d="M263.77,915.88c-1.38,0-2.76.05-4.14.19-1.25.13-2.52.32-3.68.82-1.04.45-1.97,1.12-3.02,1.57-1.59.69-3.36.79-5.09.89-2.83.16-5.66.32-8.49.48,2.39.34,4.84.69,7.26.69,1.98,0,3.94-.23,5.82-.88,1.86-.65,3.59-1.68,5.48-2.23,1.24-.36,2.5-.49,3.77-.49,2.78,0,5.62.65,8.4,1.08,6.73,1.04,13.58.76,20.4.85,8.2.11,16.38.78,24.53,1.64,3.8.4,7.59.9,11.39,1.32.37.04,1.1.21,1.75.21.52,0,.99-.11,1.18-.47.8-1.54-1.45-1.82-2.55-1.82-.14,0-.27,0-.37.01-.3.02-.61.04-.91.04-3.5,0-6.88-1.5-10.37-2-1.52-.22-3.06-.25-4.6-.25-.33,0-.66,0-.98,0-.54,0-1.09,0-1.63,0-11.98,0-23.95-.41-35.89-1.23-2.74-.19-5.5-.4-8.24-.4h0Z"/>
  <path class="st2" d="M718.32,788.44c-.27,0-.55.03-.82.09-4.09.93-4.8,8.43-8.57,8.43-.2,0-.4-.02-.62-.06-1.22-.24-2.11-1.24-3.19-1.85-.68-.38-1.41-.56-2.14-.56-3.33,0-6.75,3.55-5.6,6.88-.48-.34-.98-.49-1.49-.49-1.9,0-3.88,2.08-4.83,4.03-1.13,2.35-2.71,5.28-5.2,5.28-.14,0-.29,0-.44-.03-3.01-.4-4.28-4.93-7.32-4.96h-.04c-2.22,0-3.53,2.41-4.74,4.27-.87,1.35-2.52,2.59-3.96,2.59-.57,0-1.11-.2-1.54-.66-1.41-1.5-.33-4.64-2.2-5.51-.25-.12-.5-.17-.75-.17-1.37,0-2.67,1.57-4.12,2.09-.43.16-.88.22-1.34.22-1.99,0-4.2-1.17-6.01-1.17-.77,0-1.47.21-2.04.83-.93.99-1,2.71-2.22,3.32-.29.15-.58.2-.88.2-1.01,0-2.1-.67-3.15-.92-.33-.08-.65-.11-.97-.11-2.32,0-4.46,1.92-5.64,4.02-1.03,1.83-1.49,4.18-2.92,5.72-.93,1-2.41,3.14-3.84,3.39-.12.02-.24.03-.36.03-1.05,0-2.02-.72-3.02-1.14-.39-.16-.82-.27-1.25-.27-.36,0-.72.08-1.02.28-.6.39-.86,1.18-.75,1.88.11.7.54,1.32,1.08,1.8.47.42,1.08.92.89,1.51-.21.69-1.32.73-1.59,1.4-.13.34,0,.72,0,1.08-.04,1.2-.87,1.61-1.82,1.61-.85,0-1.8-.33-2.35-.73-1.49-1.08-2.74-3.06-4.77-3.12-.03,0-.07,0-.1,0-2.12,0-3.51,2.24-5.34,3.36-1,.61-2.07.87-3.17.87-3.13,0-6.51-2.08-9.37-3.83-2.09-1.28-4.84-2.26-7.25-2.26-2.05,0-3.87.7-4.86,2.52-.46.83-.68,1.86-1.45,2.42-.75.56-1.79.49-2.71.69-2.63.56-4.32,3.32-6.92,3.98-.44.11-.9.16-1.35.16-2.27,0-4.61-1.19-6.86-1.19-.55,0-1.1.07-1.64.25-2.77.93-4.24,4.41-7.12,4.86-.21.03-.42.05-.62.05-1.51,0-2.97-.79-4.44-1.28-.6-.2-1.28-.32-1.94-.32-1.16,0-2.26.37-2.79,1.36,4.3.96,8.59,1.92,12.89,2.88,2.19.49,4.41.98,6.65.98.16,0,.33,0,.5,0,3.67-.12,7.54-1.6,11.08-1.6,1.6,0,3.14.3,4.56,1.17,1.43.87,2.54,2.26,4.08,2.92.73.31,1.47.43,2.22.43,2.94,0,6.04-1.89,9.13-2,.1,0,.2,0,.31,0,4.32,0,8.38,3.34,12.52,3.34.63,0,1.27-.08,1.91-.26,1.92-.55,3.54-1.98,5.51-2.25.25-.03.5-.05.75-.05,2.79,0,5.57,2.01,8.24,2.01.57,0,1.14-.09,1.71-.32,1.12-.45,1.97-1.38,2.92-2.13,2.03-1.63,4.65-2.47,7.26-2.47,2.13,0,4.25.55,6.06,1.68,2.43,1.52,5.02,4.04,7.58,4.04.59,0,1.18-.14,1.77-.45.97-.52,1.64-1.47,2.59-2.03.69-.41,1.4-.58,2.12-.58,3.69,0,7.8,4.41,11.52,4.41.71,0,1.41-.16,2.09-.55,1.42-.81,2.16-2.4,3.23-3.64,1.58-1.84,4.02-2.8,6.45-2.8,1.9,0,3.79.58,5.25,1.79.78.64,1.45,1.42,2.35,1.87.72.36,1.52.48,2.35.48,1.85,0,3.87-.61,5.59-.61,1.18,0,2.21.29,2.95,1.24,1.04,1.35,1.03,3.71,2.7,4.14.15.04.3.06.45.06.75,0,1.5-.43,2.21-.75,1.23-.55,2.51-.78,3.81-.78,3.4,0,6.95,1.55,10.19,2.96,1.26.54,2.6,1.05,3.96,1.44v-61.87c-1.56-.99-3.17-1.92-4.88-2.68-.98-.44-2.04-.84-3.09-.84h0Z"/>
  <path class="st2" d="M25.82,913.12c-.18,0-.37.03-.55.1-1.49.58-.74,2.63-.25,3.71,1.9,4.21,4.27,8.21,7.05,11.89,1.88,2.49,3.97,4.85,6.48,6.71,2.89,2.14,6.26,3.55,9.58,4.94.77.32,1.55.64,2.32.96h106.7c-.6-.26-1.33-.4-2.1-.4-.52,0-1.06.05-1.59.05-.73,0-1.44-.07-2.08-.4-.41-.21-.78-.53-1.24-.65-.4-.11-.82-.06-1.24-.09-1.1-.09-2.05-.77-3.1-1.1-.79-.24-1.62-.29-2.44-.33-2.61-.12-5.22-.25-7.83-.37-.91-.04-1.83-.09-2.74-.13-11.03-.6-22-2.03-32.8-4.3-1.71-.36-3.43-.74-5.18-.75h-.07c-1.61,0-3.23.31-4.83.31-.41,0-.83-.02-1.24-.07-1.97-.25-3.75-1.16-5.62-1.74-.93-.29-1.83-.43-2.81-.48-.01,0-.03,0-.04,0-.22,0-.46.07-.68.07-.13,0-.25-.02-.36-.09-.28-.19-.04-.76-.43-.94-.06-.03-.12-.04-.17-.04-.35,0-.62.53-.93.82-.19.17-.42.25-.67.25-.46,0-.96-.26-1.29-.6-.51-.54-.8-1.25-1.34-1.74-1.1-1-2.81-.83-4.22-1.32-1.59-.55-2.88-1.99-4.56-2.03-.03,0-.05,0-.08,0-.7,0-1.38.24-2.07.38-.52.1-1.04.15-1.57.15-1.02,0-2.04-.16-3.04-.37-1.4-.29-2.78-.68-4.12-1.16-.86-.3-1.74-.65-2.65-.65-.05,0-.09,0-.14,0-.18,0-.37.03-.55.03-.21,0-.42-.03-.61-.14-.41-.24-.52-.77-.77-1.18-.48-.78-1.5-1.11-1.95-1.9-.2-.35-.27-.76-.44-1.13-.56-1.2-2.06-1.6-3.38-1.72-1.32-.12-2.77-.12-3.81-.94-.29-.22-.54-.51-.9-.6-.09-.03-.18-.04-.28-.04-.3,0-.61.11-.91.17-.26.06-.52.09-.79.09-.86,0-1.72-.3-2.38-.86-.32-.27-.65-.62-1.06-.62-.02,0-.04,0-.06,0-.27.02-.5.2-.76.24-.04,0-.09.01-.13.01-.26,0-.52-.12-.76-.23-.1-.04-.19-.08-.29-.12-1.31-.51-2.63-.58-3.98-.95-.68-.18-1.46-.68-2.23-.68h0Z"/>
  <path class="st3" d="M113.33,896.2c-14.43,0-28.89.13-43.42.5-5,.13-10.03.17-15.08.17-13.68,0-27.51-.34-41.22-.34-6.02,0-12.03.07-17.99.26-.56.18-1.11.4-1.63.65v38.26c0,3.17,2.6,5.74,5.81,5.74h128.44c-2.32-.37-4.64-.7-6.98-.99-9.23-1.12-18.54-1.47-27.73-2.83-19.44-2.88-37.87-10.23-56.09-17.52l-16.94-6.78c-1.73-.69-3.67-1.6-4.17-3.38-.97-3.44,3.9-5.34,7.5-5.6,31.65-2.29,63.33-4.58,95.06-4.58,2.57,0,5.15.01,7.72.05,15.37.19,30.74.96,46.11.96,4.47,0,8.94-.06,13.41-.23,11.7-.42,23.37-1.86,34.94-3.62-.25-.03-.5-.04-.74-.04-.64,0-1.29.06-1.93.06-.22,0-.44,0-.67-.03-1.04,0-2.08,0-3.11,0-33.92,0-67.53-.71-101.28-.71h0Z"/>
  <path class="st2" d="M112.77,910.48h0c-.04,1.47,2.49,3.1,3.91,4.04.65.42,1.42.63,2.19.74.72.11,1.43.14,2.16.14,1.8,0,3.62-.24,5.43-.27.13,0,.25,0,.38,0,6.4,0,12.75,2.55,19.05,2.55,1.3,0,2.59-.11,3.88-.37-1.27-1.69-3.78-1.64-5.9-1.83-3.14-.29-6.15-1.48-9.28-1.89-1.17-.15-2.36-.2-3.55-.2-1.97,0-3.96.13-5.91.13-2.6,0-5.14-.23-7.49-1.31-1.68-.78-3.01-1.68-4.88-1.72h0Z"/>
  <path class="st0" d="M725.35,801.04c-1.85,0-3.68.72-4.75,2.3-.17-.04-.34-.06-.51-.06-1.59,0-2.97,1.68-3.06,3.33-.11,1.83.84,3.53,1.77,5.13-.2-.17-.43-.25-.65-.25-.89,0-1.8,1.23-1.89,2.3-.11,1.33,0,3.02-1.19,3.64-.26.13-.5.19-.75.19-2.09,0-3.81-4.33-5.79-4.33-.27,0-.54.08-.82.26-.63.4-.86,1.2-1.01,1.93-.97,4.57-.9,9.36.21,13.89.35,1.45.61,3.38-.73,4.04-.48.24-1.04.22-1.58.28-1.95.22-3.59,1.54-5.47,2.1-.39.11-.81.17-1.23.17-1.63,0-3.31-.83-3.35-2.38-.03-1.08.79-2.11.54-3.16-.21-.92-1.15-1.46-1.99-1.9-1.5-.77-3.34-1.48-4.98-1.48-1.13,0-2.16.34-2.9,1.24-1.66-2.15-1.84-5.07-3.09-7.47-.87-1.64-2.82-2.96-4.52-2.96-.79,0-1.52.28-2.08.93-.54-3.08-3.74-5.09-6.81-5.09-1.45,0-2.87.45-3.96,1.44-.88.79-1.52,1.81-2.11,2.84-1.71,2.92-2.76,7.43.22,9.07-.16-.04-.32-.06-.47-.06-1.39,0-2.48,1.6-2.88,3.04-.43,1.6-.71,3.5-2.15,4.33-.45.26-.93.36-1.43.36-1.12,0-2.31-.54-3.3-1.16-1.28-.79-2.66-1.73-4.13-1.73-.16,0-.33.01-.5.04-1.66.25-2.77,2.77-1.31,3.58-.46.95-1.51,1.39-2.6,1.39-.63,0-1.26-.14-1.81-.41-1.51-.73-2.58-2.1-3.84-3.21-1.01-.89-2.31-1.65-3.61-1.65-.32,0-.63.05-.95.14-1.6.5-2.31,3.06-.83,3.84-1.41.73-2.99,1.12-4.57,1.12-.08,0-.15,0-.23,0h0c.11,1.23.22,2.47.33,3.71-1.17.17-2.42.3-3.65.3-2.65,0-5.2-.6-6.55-2.73-.84-1.32-1.17-3.17-2.63-3.72-.25-.09-.5-.14-.75-.14-1.33,0-2.59,1.24-3.21,2.52-.74,1.52-1.15,3.31-2.47,4.36-.63.5-1.42.74-2.22.74-.99,0-1.98-.37-2.67-1.09-1.23-1.3-1.24-3.55-.03-4.86-.2-.59-.72-.83-1.32-.83-.78,0-1.71.41-2.28.99-.95.96-1.92,2.28-3.22,2.28-.09,0-.17,0-.26-.02-1.87-.25-2.47-3.11-4.34-3.39-.11-.02-.21-.02-.31-.02-1.87,0-2.69,2.68-4.19,3.99-2.78,2.43-8.08-.04-10.41,2.82-.02.02-.03.05-.05.07.66-.08,1.31-.13,1.96-.13,1.59,0,3.12.31,4.52,1.17,1.43.88,2.54,2.27,4.08,2.92.73.31,1.47.44,2.22.44,2.94,0,6.03-1.89,9.13-2,.1,0,.2,0,.31,0,4.32,0,8.39,3.34,12.53,3.34.63,0,1.27-.08,1.91-.26,1.92-.54,3.54-1.97,5.51-2.25.25-.04.5-.05.75-.05,2.79,0,5.58,2.01,8.24,2.01.57,0,1.14-.09,1.71-.32,1.12-.46,1.97-1.38,2.92-2.14,2.03-1.63,4.65-2.47,7.26-2.47,2.13,0,4.25.56,6.06,1.68,2.43,1.52,5.03,4.05,7.58,4.05.59,0,1.18-.14,1.77-.45.97-.52,1.64-1.47,2.59-2.03.69-.41,1.4-.58,2.13-.58,3.69,0,7.8,4.41,11.52,4.41.71,0,1.41-.16,2.09-.55,1.42-.82,2.16-2.4,3.23-3.65,1.58-1.84,4.02-2.8,6.45-2.8,1.9,0,3.79.59,5.25,1.79.78.64,1.45,1.42,2.35,1.88.72.36,1.51.48,2.35.48,1.85,0,3.87-.61,5.59-.61,1.18,0,2.21.29,2.96,1.25,1.04,1.35,1.03,3.71,2.69,4.14.15.04.31.06.46.06.75,0,1.49-.43,2.21-.75,1.23-.55,2.51-.78,3.81-.78,3.4,0,6.96,1.56,10.19,2.96,1.25.55,2.59,1.05,3.96,1.44v-52.73c-.31-.04-.62-.06-.94-.06h0Z"/>
  <path class="st0" d="M155.59,877c.82.65,1.68,1.25,2.56,1.82.7.49,1.44.94,2.17,1.4.74.47,1.01,1.21,1.72,1.67.16.11.33.2.52.28.71.3,1.52.4,2.26.49.23.02.46.05.69.05.17,0,.34-.02.5-.06,1.11-.27,1.52-1.17,2.12-2.03.07-.1.14-.19.25-.24.06-.02.12-.03.18-.03.04,0,.08,0,.12,0,.54.05,1.07.09,1.6.14.07,0,.14.01.19.06.05.04.07.1.09.15.1.25.21.49.33.73.16.31.36.61.66.78.34.19.81.25,1.28.25s.93-.05,1.3-.09c1.08-.1,2.12-.32,3.18-.58,1.2-.3,2.41-.59,3.61-.88.16-.04.32-.08.49-.08.06,0,.13,0,.19.02.17.04.33.14.48.23,1.12.68,2.37,1.18,3.65,1.46.5.11,1.08.22,1.36.65.19.28.2.64.21.97.02.66.04,1.32.06,1.98,0,.22.02.46.19.61.09.07.19.1.3.1.17,0,.36-.06.52-.13,1.1-.46,2.19-.73,3.23-.73,1.32,0,2.58.43,3.78,1.44.52.44.98.97,1.58,1.31.78.45,1.69.54,2.62.54.43,0,.87-.02,1.29-.03.28,0,.56-.01.84-.01,7.99,0,15.6,3.26,22.88,6.68-3.13-2.81-8.59-4.84-11.67-6.56-5.36-2.97-10.78-5.83-16.27-8.56-3.48-1.73-7.2-3.45-11.05-3.45-.38,0-.76.02-1.14.05-2.32.21-4.53,1.09-6.81,1.55-1.4.28-2.82.39-4.24.39-2.89,0-5.81-.46-8.68-.92-3.05-.48-6.09-.97-9.14-1.46h0Z"/>
  <path class="st0" d="M57.42,850.96h0c-3.22,1.06-6.35,2.4-9.33,4.05-2.09,1.16-4.13,2.47-6.42,3.15-2.24.67-4.6.72-6.95.72-.39,0-.79,0-1.18,0h-.2c-10.35.03-20.69,1.46-30.66,4.23-.87.25-1.77.52-2.62.86v2.48c3.54.59,7.07,1.19,10.61,1.78.96.16,2.05.4,2.55,1.24.93,1.56-1.07,3.3-2.86,3.62-1.79.33-3.93.25-5.05,1.67,1.92.36,1.94,3.43.35,4.57-.91.65-2,.85-3.13.85-.82,0-1.66-.11-2.47-.23v29.3c1.87.59,3.9.85,5.91.85,1.05,0,2.09-.07,3.1-.21,5.8-.79,11.42-3.07,17.26-3.07.25,0,.49,0,.74.01,6.43.22,12.37,3.34,18.64,4.76,3.39.77,6.84,1.03,10.32,1.03,4.19,0,8.42-.38,12.59-.73,13.77-1.14,27.57-1.83,41.38-2.08,12.22-.21,24.66-.11,36.37-3.59,3.01-.89,6.04-2.08,8.28-4.27,2.23-2.19,3.48-5.61,2.35-8.51-3.26-1.1-6.52-2.2-9.79-3.3.09-1.22.48-2.41,1.14-3.46-2.72-.61-5.51-.91-8.3-.91-1.12,0-2.25.05-3.37.15-.18,1.93-2.17,3.3-4.07,3.3-.71,0-1.41-.19-2-.63h0c.53.99-.28,2.28-1.35,2.65-.35.12-.72.17-1.09.17-.75,0-1.51-.21-2.23-.45-2.77-.94-5.36-2.37-7.62-4.21-.43,1.29-.87,2.57-1.3,3.85-.3.03-.6.05-.9.05-1.74,0-3.49-.56-4.89-1.6-.09,1.02-.54,2.02-1.26,2.76-1.69-.56-3.38-1.11-5.08-1.67-.65-.21-1.3-.43-1.91-.72-3.66-1.74-5.46-5.91-6.21-9.86-.87.43-1.84.64-2.8.64s-1.84-.19-2.7-.54c-.75-.31-1.5-.7-2.23-.7-.51,0-1.02.19-1.5.75-.41.47-.65,1.11-1.19,1.41-.32.17-.7.2-1.07.2-.79,0-1.64-.12-2.24-.63-.6-.51-.83-1.51-.29-2.09.92-.08,1.82-.39,2.59-.89-1.38-2.39-3.93-4.08-6.69-4.45-.86-.12-1.74-.11-2.6-.28-1.39-.26-2.69-.99-3.64-2.03-1.11,2.57-2.7,6.86-5.28,8.22-2.47,1.29-5.65,1.56-7.51,3.83-.87,1.05-1.3,2.45-2.35,3.32-.4.33-.96.49-1.49.49-.87,0-1.69-.43-1.71-1.27,1.02-1.33,2.08-2.82,2.02-4.48-.02-.66-.38-1.63-.97-2.01-.27-.18-.45-.22-.62-.22-.18,0-.33.05-.56.05-.09,0-.19,0-.31-.03-1.32-.26-2.28-1.18-2.62-2.5-.37-1.47-.11-3.04-.45-4.52-.11-.47-.28-.92-.3-1.41-.06-1.14.83-2.25,1.96-2.45-1.37-1.32-.79-4.01,1.01-4.67,1-.37,2.14-.14,3.19-.31,1.06-.16,2.21-1.04,1.94-2.07-.11-.43-.46-.83-.37-1.27.11-.52.73-.7,1.21-.94.48-.23.91-.89.5-1.22-1.88,0-3.77-.42-5.49-1.19-.08-.23-.12-.48-.12-.72-.03-1.06.55-2.13,1.3-2.92.62-.65,1.35-1.19,2.05-1.75h0Z"/>
  <path class="st0" d="M150.56,880.36h0c.03,1.69-1.67,2.8-3.04,3.79-1.37,1-2.7,2.81-1.77,4.22-2.01.16-4.41.58-5.19,2.43-.29.68-.29,1.45-.42,2.18-.34,1.9-1.54,3.53-2.7,5.08,1.33,1.01,3.13,1.05,4.79,1.26,2.86.37,5.61,1.37,8.44,1.93,2.95.58,5.95.68,8.96.68.81,0,1.62,0,2.43-.02,5.44-.05,10.88-.1,16.33-.15h.12c1.32,0,3.03.19,4.71.19,2.65,0,5.24-.48,6.16-2.92,2.42-6.4-4.08-8.56-9.77-8.56-2.22,0-4.31.33-5.71.86-.88.34-1.87.71-2.78.71-.49,0-.95-.1-1.37-.37-.43-.27-.75-.7-1.19-.97-.54-.34-1.17-.42-1.82-.42-.48,0-.98.04-1.47.04-.11,0-.22,0-.33,0-2.36-.1-4.35-1.68-6.16-3.18-2.73-2.26-5.47-4.53-8.2-6.79h0Z"/>
  <path class="st0" d="M86.22,859.12c-.47.81-.34,1.82-.11,2.72.68,2.77,2.1,5.36,4.07,7.45-.49,0-.93.49-.85.97.05.33.28.59.5.84,1.16,1.28,2.31,2.55,3.46,3.83.68.75,1.37,1.51,1.85,2.41.98,1.83.97,4.01.94,6.07-.35-.08-.71-.17-1.06-.17-.14,0-.28.01-.41.04-.49.1-.94.49-.96.97-.01.38.23.71.47.99.63.71,1.42,1.39,1.56,2.32.21,1.38-1.12,2.63-.99,4.02.05.48.27.96.2,1.44-.05.33-.23.62-.37.91-.4.81-.58,1.71-.54,2.6.25-.01.51-.02.76-.02,2.24,0,4.47.46,6.53,1.32,1.03.44,2.03.98,3.11,1.3,1.12.33,2.29.41,3.46.41.49,0,.97-.01,1.46-.02,1.15-.04,2.39-.08,3.32-.76,1.23-.89.77-1.87.55-3.04-.3-1.6-.13-3.39.15-4.98.11-.64.24-1.36-.13-1.89-.25-.35-.66-.54-1.03-.77-1.34-.81-2.22-2.3-2.28-3.85-.05-1.28.42-2.61-.02-3.81-.46-1.27-1.78-2-2.97-2.67-3.07-1.72-5.93-3.8-8.52-6.16-1.05-.96-2.07-1.99-3.28-2.75-.88-.56-1.87-.98-2.68-1.62-1.64-1.31-2.41-3.37-3.59-5.1-.75-1.09-1.66-2.06-2.57-3.02h0Z"/>
  <path class="st0" d="M88.84,849.52h0c.08.58-.06,1.25-.48,1.97-.14.24-.31.52-.18.77.07.13.21.21.35.28.36.18.72.37,1.08.55.3.15.59.3.89.45.13.06.26.14.32.26.08.17,0,.35,0,.53-.04.44.29.84.68,1.06.39.22.84.3,1.26.44,1.34.43,2.45,1.38,3.37,2.44.91,1.06,1.66,2.25,2.52,3.36.19.25.4.5.66.67.19.13.4.21.56.36.17.16.28.38.37.59.46.99.84,2.02,1.15,3.08.21.72.24,1.87.97,2.31.17.1.37.11.56.12,1.42.09,2.82.42,4.12.99.46.2.93.44,1.26.81.19.21.34.46.57.63.28.21.63.26.99.26.3,0,.62-.03.92-.03.38,0,.74.05,1.02.29.49.42.47,1.15.55,1.78.14,1.1.66,2.1,1.06,3.13.74,1.94-.02,4.19,1.21,5.99.4.58,1.15.97,1.83.97.43,0,.83-.15,1.1-.5.26-.34.34-.78.39-1.21.19-1.9-.22-3.85-1.16-5.52.42-.13.83-.19,1.23-.19,3.59,0,6.55,4.68,10.46,5.08.82-2.29,1.63-4.6,2.45-6.89.18-.52.37-1.06.46-1.6-3.19-.83-6.27-1.97-9.04-3.75-3.1-1.99-5.65-4.69-8.43-7.11-7.11-6.2-15.84-10.37-25.07-12.41h0Z"/>
  <path class="st0" d="M50.01,854.08h0c-.64.32-1.27.65-1.89,1-2.09,1.15-4.13,2.46-6.42,3.13-2.26.68-4.64.72-7.01.72-.37,0-.73,0-1.1,0h-.21c-6.92.02-13.85.67-20.66,1.92.33.98,1.18,2,1.02,3.03-.19,1.18-1.62,1.73-2.83,1.73h-.01c-.09,0-.19,0-.29,0-.3,0-.6.02-.86.16-.27.15-.45.42-.71.57-.19.11-.38.15-.59.15-.52,0-1.07-.28-1.56-.51-.32-.15-.72-.26-1.08-.26-.41,0-.78.14-.96.49-.4-.79-1.11-1.69-1.91-1.69-.13,0-.27.03-.41.08-.6.24-.83.95-.87,1.59-.03.69.12,1.44.63,1.91.25.23.61.36.95.36s.7-.14.9-.42c.21,1.04,1.05,1.87,2.02,2.33.96.46,2.06.59,3.13.66.23.01.46.03.69.03.6,0,1.19-.08,1.7-.36,1.1-.61,1.53-2.02,2.62-2.64.44-.26.92-.35,1.41-.35,1.09,0,2.26.47,3.37.72,1.07.24,2.17.26,3.26.28h.14c.27,0,.55-.02.78-.14.25-.13.43-.35.66-.51.28-.18.62-.26.96-.3.2-.02.4-.04.6-.04,2.75,0,5.4,2.14,5.83,4.84.05.31.09.66.33.85.43.35,1.25.06,1.53.54.13.24.04.52.05.79.03.95,1.22,1.36,2.17,1.52.77.13,1.57.25,2.35.25.56,0,1.12-.06,1.65-.24.17-.06.35-.13.45-.28.26-.37-.12-.85-.24-1.29-.32-1.27,1.68-2.01,1.88-3.3.09-.6-.23-1.19-.27-1.8-.13-1.95,2.54-3.19,2.53-5.13,2.29-.16,4.58-.33,6.87-.51.19-.01.41-.04.53-.19.1-.12.11-.3.1-.46-.03-.81-.17-1.61-.41-2.38-1.02.61-2.21.92-3.39.92-.84,0-1.68-.15-2.46-.47-.32-.17-.28-.67-.03-.93.26-.25.65-.31,1.01-.36.89-.13,1.78-.26,2.68-.39-.03-.29-.06-.58-.08-.86-.06.03-.12.04-.17.04-.25,0-.51-.23-.56-.49-.06-.32.08-.64.22-.94.58-1.17,1.25-2.28,1.96-3.36h0Z"/>
  <path class="st5" d="M19.64,886.96c-.23.66-1.1.78-1.81.78-.47,0-.94,0-1.41,0-2.15,0-4.29-.04-6.44-.1-1.96-.07-3.92-.16-5.88-.26-.35-.02-.7-.03-1.04-.05-.45-.02-.91-.05-1.36-.05-.53,0-1.07.03-1.59.13-.01,0-.03,0-.04,0v11.66c5.83-.13,11.64-.25,17.46-.38,9.44-.22,18.86-.42,28.28-.63,30.5-.67,61.01-1.33,91.52-2.01-8.73-.5-17.45-.98-26.18-1.43-2.28-.12-4.56-.23-6.84-.35-6.32-.33-12.86-1.1-19.18-1.42-.02-.36-.37-.51-.76-.51-.22,0-.45.05-.65.14-.34.15-.75.34-1.11.34-.19,0-.36-.05-.5-.19-.16-.16-.24-.41-.45-.51-.07-.03-.13-.05-.19-.05-.35,0-.7.43-1.08.52-.06.01-.11.02-.16.02-.52,0-.99-.54-1.53-.54-.01,0-.02,0-.03,0-.5.02-.91.5-1.39.5-.04,0-.08,0-.12,0-.44-.07-.68-.56-1.07-.76-.16-.08-.32-.12-.49-.12-.61,0-1.28.44-1.94.48-.03,0-.06,0-.09,0-.62,0-1.24-.34-1.84-.34-.14,0-.28.02-.43.07-.2.07-.37.19-.57.25-.15.05-.3.06-.45.06-.2,0-.41-.03-.62-.06l-3.86-.62c-.13-.02-.26-.04-.39-.04-.15,0-.29.03-.42.1-.93-.59-2.03-.9-3.13-.9-.69,0-1.37.12-2.01.36-.19.07-.38.15-.58.15-.05,0-.1,0-.15-.02-.17-.04-.31-.15-.45-.25-.79-.54-1.8-.61-2.77-.65-1.02-.05-2.04-.1-3.07-.1-.79,0-1.58.03-2.36.1-.29.03-.58.06-.87.06-.36,0-.72-.05-1.03-.23-.19-.11-.36-.26-.58-.32-.08-.02-.15-.03-.23-.03-.3,0-.6.13-.91.13-.02,0-.04,0-.07,0-.65-.04-1.21-.73-1.81-.73-.08,0-.17.01-.25.04-.27.1-.46.34-.73.41-.06.02-.12.02-.18.02-.19,0-.38-.06-.56-.12-.48-.15-.98-.18-1.49-.18-.28,0-.56,0-.84,0-.32,0-.64-.01-.95-.06-1.24-.18-2.48-.36-3.71-.54-1.07-.15-2.15-.31-3.23-.31h-.04c-.16,0-.32,0-.48,0-.48,0-.95-.03-1.35-.28-.17.17-.34.33-.51.5-.99-.18-1.98-.35-2.97-.53-.3-.05-.61-.1-.91-.12-.11,0-.21,0-.32,0-.4,0-.79.04-1.19.04-.16,0-.32,0-.48-.03-.87-.09-1.7-.52-2.56-.52-.09,0-.18,0-.27.02-.3.03-.59.12-.89.13-.02,0-.04,0-.05,0-.53,0-1.06-.28-1.35-.72h0Z"/>
  <path class="st0" d="M324.88,904.48c-4.68,0-8.27.19-8.56.78,4.54,1.09,9.79,1.38,15.05,1.38,4.76,0,9.53-.24,13.82-.32,11.59-.23,23.18-.45,34.76-.69.88-.02,2.09-.61,1.38-.96h0c-10.81.28-21.63.42-32.44.42-.41,0-.82,0-1.23,0-2.51,0-14.39-.61-22.78-.61h0Z"/>
  <path class="st0" d="M726.29,915.04c-7.49,1.04-15.33,1.58-23.17,1.58,1.06,1.43,4.75,2.11,8.08,2.17.27,0,.54,0,.81,0,2.38,0,4.75-.17,7.11-.17.69,0,1.39.02,2.08.05.73.04,1.5.12,2.02.35,1.72.76-.7,2-3.02,2.32-1.69.23-3.4.33-5.12.33-6.06,0-12.22-1.21-18.17-2.08-12.11-1.78-24.97-2.18-37.67-2.56-15.5-.47-30.99-.94-46.5-1.4-1.42-.04-2.86-.09-4.29-.09-1.95,0-3.9.08-5.75.34-3.22.46-6.2,1.59-6.72,3.11,27.29.11,54.59.22,81.9.33,3.24.02,6.58.04,9.6.59,3,.56,5.64,1.79,5.78,3.25-10.54.02-21.1.02-31.64.04-1.67,1.02,2.12,2.04,4.91,2.17,5.39.25,10.77.49,16.16.73.94.04,1.99.11,2.58.44,1.47.83-1.43,1.81-3.73,2.06-13.8,1.47-27.28,1.76-40.91,1.76-7.6,0-15.25-.09-23.01-.1-23.57-.04-47.14-.26-70.72-.39-.24,0-.49,0-.73,0-5.4,0-11.66.35-13.97,2.51h.56c17.93,0,35.85,1.09,53.15,3.22-20.01,3.76-41.34,4.86-63.06,4.86s-42.94-1.06-64.09-1.75c-17.55-.57-35.14-.85-52.73-.85-20.36,0-40.73.38-61.02,1.14-4.16.15-8.46.35-12.1,1.26-1.31.33-2.49.73-3.65,1.16h384.32c7,0,12.68-2.57,12.68-5.74v-20.66h0Z"/>
  <path class="st0" d="M698.33,907.6c-4.22,0-8.39.15-12.46.59-1.95.21-4.18.64-4.56,1.53-.29.69.7,1.36,1.88,1.81,2.99,1.14,7.15,1.35,11.05,1.42,1.43.03,2.87.04,4.3.04,5.98,0,11.95-.22,17.84-.65,1.83-.14,3.87-.24,5.85-.24,1.41,0,2.79.06,4.05.19v-4.02c-.32,0-.64,0-.96,0-8.84,0-18.01-.68-26.99-.68h0Z"/>
  <path class="st0" d="M166.29,896.2c-20.8,0-41.65.13-62.58.5-7.21.13-14.46.17-21.74.17-17.35,0-34.85-.26-52.26-.33-1.46.39-2.92.78-4.37,1.19-4.28,1.21-8.93,2.83-10.34,5.84-.78,1.65-.41,3.45.19,5.14,3.29,9.22,13.32,16.83,25.18,21.78,11.86,4.95,25.49,7.55,39.07,9.54,3.45.51,6.94.98,10.44,1.41h47.73c2.37-.62,4.65-1.87,3.73-3.36-.45-.73-1.56-1.15-2.61-1.47-7.94-2.46-16.91-2.66-25.46-3.79-11.93-1.57-23.16-4.96-34.08-8.58-11.1-3.69-21.99-7.64-32.88-11.59-.78-.28-1.31-1.27-.55-1.29h0s.07,0,.11,0c-.03,0-.05,0-.08,0h-.03c-2.91-.08-5.83-.15-8.75-.23-.9-2.68,3.73-4.78,7.79-4.78.08,0,.17,0,.25,0,4,.09,7.82,1.34,11.82,1.34.1,0,.21,0,.31,0,3.01-.06,5.86-.85,8.78-1.34,3.42-.57,6.93-.73,10.47-.73,4.03,0,8.1.2,12.12.2s8.06-.2,11.93-1.01c2.23-.47,4.38-1.13,6.68-1.41.87-.1,1.74-.15,2.62-.15,2.9,0,5.82.51,8.6,1.11,18.83,4.04,36.75,12.42,56.03,12.42,1.88,0,3.78-.08,5.69-.25-11.64-1.42-23.17-3.23-34.55-5.4,4.79-1.35,9.96-2.04,15.14-2.04,1.17,0,2.34.04,3.5.11-5.18-.82-10.36-1.65-15.54-2.47,5.47-1.93,11.64-2.94,17.8-2.94,2.18,0,4.35.13,6.49.38-2.14-.9-4.3-1.8-6.45-2.69,2.64-.08,5.27-.13,7.91-.13,16.2,0,32.41,1.57,47.96,4.66-1.63-1.56-4.28-2.6-7.07-2.77,3.31-.65,6.75-.83,10.21-.83,2.06,0,4.13.06,6.19.13,26.94.85,53.9,1.7,80.84,2.55-8.73-1.17-17.46-2.34-26.19-3.51,13.75-4.06,31.54-.61,44.87-4.7h0c-1.59,0-3.18,0-4.77,0-4.42.01-8.83.02-13.24.02-49.2,0-97.95-.72-146.92-.72h0Z"/>
  <path class="st0" d="M243.85,912.08c1.53.05,3.06.09,4.59.13h0c-1.53-.08-3.06-.12-4.59-.13h0ZM179.27,904.6c-.28,0-.56.01-.84.04-.09,3.23,20.02,5.46,23.93,5.99,8.44,1.15,17.04,1.73,25.65,1.73,1.08,0,2.16,0,3.25-.03,4.02-.07,8.05-.26,12.07-.26h.53c-15.3-.52-30.53-1.92-45.72-3.31-3.08-.28-6.21-.57-9.08-1.38-2.96-.83-6.44-2.78-9.78-2.78h0ZM248.44,912.21c1.03.06,2.06.14,3.08.24,4.45.46,8.74,1.43,13.16,1.98,6.08.75,12.3.7,18.46,1.08,6.97.42,13.85,1.39,20.82,1.76,2.16.12,4.32.17,6.48.17,6.91,0,13.82-.59,20.51-1.74-1.91-.56-3.95-.73-6.03-.73-1.93,0-3.89.15-5.81.27-4.98.34-9.99.5-14.99.5-10.33,0-20.67-.71-30.79-2.12-2.75-.38-5.5-.82-8.29-1.05-3.68-.31-7.41-.27-11.11-.29-1.84,0-3.67-.04-5.5-.08h0Z"/>
  <path class="st0" d="M75.73,908.68c-.08,0-.16,0-.22.03-2.11.65,1.87,3.62,2.92,3.99,1.42.49,2.97.42,4.46.68,2.73.47,5.18,2,7.89,2.56,2.62.55,5.35.17,8.01.48,2.81.32,5.47,1.39,8.23,2.01,1.19.27,2.43.44,3.66.44,1.62,0,3.21-.31,4.6-1.12-4.98-1.37-10.26-1.02-15.42-1.39-5.83-.43-11.58-1.81-16.96-4.07-1.27-.54-5.66-3.61-7.17-3.61h0Z"/>
  <path class="st0" d="M22.67,907.6c-.72.69-1.19,1.53-1.03,2.5.13.79.69,1.45,1.24,2.03,4.74,4.97,11.12,8.01,17.35,10.93,9.89,4.66,19.81,9.3,30.08,13.07,5.44,1.99,10.97,3.72,16.53,5.31h47.44c-2.32-.37-4.64-.71-6.97-.99-9.22-1.11-18.53-1.46-27.72-2.83-19.43-2.89-37.86-10.25-56.08-17.55l-16.93-6.79c-1.73-.69-3.66-1.61-4.16-3.39-.24-.86-.12-1.62.25-2.29h0Z"/>
  <path class="st3" d="M613,896.2c14.43,0,28.89.13,43.42.5,5,.13,10.03.17,15.08.17,13.68,0,27.51-.34,41.22-.34,6.02,0,12.03.07,17.99.26.56.18,1.11.4,1.63.65v38.26c0,3.17-2.6,5.74-5.81,5.74h-128.44c2.32-.37,4.64-.7,6.98-.99,9.23-1.12,18.54-1.47,27.73-2.83,19.44-2.88,37.87-10.23,56.09-17.52l16.94-6.78c1.73-.69,3.67-1.6,4.17-3.38.97-3.44-3.9-5.34-7.5-5.6-31.65-2.29-63.33-4.58-95.06-4.58-2.57,0-5.15.01-7.72.05-15.37.19-30.74.96-46.11.96-4.47,0-8.94-.06-13.41-.23-11.7-.42-23.37-1.86-34.94-3.62.25-.03.5-.04.74-.04.64,0,1.29.06,1.93.06.22,0,.44,0,.67-.03,1.04,0,2.08,0,3.11,0,33.92,0,67.53-.71,101.28-.71h0Z"/>
  <path class="st0" d="M668.92,850.96h0c3.22,1.06,6.35,2.4,9.33,4.05,2.09,1.16,4.13,2.47,6.42,3.15,2.24.67,4.6.72,6.95.72.39,0,.79,0,1.18,0h.2c10.35.03,20.69,1.46,30.66,4.23.87.25,1.77.52,2.62.86v2.48c-3.54.59-7.07,1.19-10.61,1.78-.96.16-2.05.4-2.55,1.24-.93,1.56,1.07,3.3,2.86,3.62,1.79.33,3.93.25,5.05,1.67-1.92.36-1.94,3.43-.35,4.57.91.65,2,.85,3.13.85.82,0,1.66-.11,2.47-.23v29.3c-1.87.59-3.9.85-5.91.85-1.05,0-2.09-.07-3.1-.21-5.8-.79-11.42-3.07-17.26-3.07-.25,0-.49,0-.74.01-6.43.22-12.37,3.34-18.64,4.76-3.39.77-6.84,1.03-10.32,1.03-4.19,0-8.42-.38-12.59-.73-13.77-1.14-27.57-1.83-41.38-2.08-12.22-.21-24.66-.11-36.37-3.59-3.01-.89-6.04-2.08-8.28-4.27-2.23-2.19-3.48-5.61-2.35-8.51,3.26-1.1,6.52-2.2,9.79-3.3-.09-1.22-.48-2.41-1.14-3.46,2.72-.61,5.51-.91,8.3-.91,1.12,0,2.25.05,3.37.15.18,1.93,2.17,3.3,4.07,3.3.71,0,1.41-.19,2-.63h0c-.53.99.28,2.28,1.35,2.65.35.12.72.17,1.09.17.75,0,1.51-.21,2.23-.45,2.77-.94,5.36-2.37,7.62-4.21.43,1.29.87,2.57,1.3,3.85.3.03.6.05.9.05,1.74,0,3.49-.56,4.89-1.6.09,1.02.54,2.02,1.26,2.76,1.69-.56,3.38-1.11,5.08-1.67.65-.21,1.3-.43,1.91-.72,3.66-1.74,5.46-5.91,6.21-9.86.87.43,1.84.64,2.8.64s1.84-.19,2.7-.54c.75-.31,1.5-.7,2.23-.7.51,0,1.02.19,1.5.75.41.47.65,1.11,1.19,1.41.32.17.7.2,1.07.2.79,0,1.64-.12,2.24-.63.6-.51.83-1.51.29-2.09-.92-.08-1.82-.39-2.59-.89,1.38-2.39,3.93-4.08,6.69-4.45.86-.12,1.74-.11,2.6-.28,1.39-.26,2.69-.99,3.64-2.03,1.11,2.57,2.7,6.86,5.28,8.22,2.47,1.29,5.65,1.56,7.51,3.83.87,1.05,1.3,2.45,2.35,3.32.4.33.96.49,1.49.49.87,0,1.69-.43,1.71-1.27-1.02-1.33-2.08-2.82-2.02-4.48.02-.66.38-1.63.97-2.01.27-.18.45-.22.62-.22.18,0,.33.05.56.05.09,0,.19,0,.31-.03,1.32-.26,2.28-1.18,2.62-2.5.37-1.47.11-3.04.45-4.52.11-.47.28-.92.3-1.41.06-1.14-.83-2.25-1.96-2.45,1.37-1.32.79-4.01-1.01-4.67-1-.37-2.14-.14-3.19-.31-1.06-.16-2.21-1.04-1.94-2.07.11-.43.46-.83.37-1.27-.11-.52-.73-.7-1.21-.94-.48-.23-.91-.89-.5-1.22,1.88,0,3.77-.42,5.49-1.19.08-.23.12-.48.12-.72.03-1.06-.55-2.13-1.3-2.92-.62-.65-1.35-1.19-2.05-1.75h0Z"/>
  <path class="st0" d="M676.33,854.08h0c.64.32,1.27.65,1.89,1,2.09,1.15,4.13,2.46,6.42,3.13,2.26.68,4.64.72,7.01.72.37,0,.73,0,1.1,0h.21c6.92.02,13.85.67,20.66,1.92-.33.98-1.18,2-1.02,3.03.19,1.18,1.62,1.73,2.83,1.73h.01c.09,0,.19,0,.29,0,.3,0,.6.02.86.16.27.15.45.42.71.57.19.11.38.15.59.15.52,0,1.07-.28,1.56-.51.32-.15.72-.26,1.08-.26.41,0,.78.14.96.49.4-.79,1.11-1.69,1.91-1.69.13,0,.27.03.41.08.6.24.83.95.87,1.59.03.69-.12,1.44-.63,1.91-.25.23-.61.36-.95.36s-.7-.14-.9-.42c-.21,1.04-1.05,1.87-2.02,2.33-.96.46-2.06.59-3.13.66-.23.01-.46.03-.69.03-.6,0-1.19-.08-1.7-.36-1.1-.61-1.53-2.02-2.62-2.64-.44-.26-.92-.35-1.41-.35-1.09,0-2.26.47-3.37.72-1.07.24-2.17.26-3.26.28h-.14c-.27,0-.55-.02-.78-.14-.25-.13-.43-.35-.66-.51-.28-.18-.62-.26-.96-.3-.2-.02-.4-.04-.6-.04-2.75,0-5.4,2.14-5.83,4.84-.05.31-.09.66-.33.85-.43.35-1.25.06-1.53.54-.13.24-.04.52-.05.79-.03.95-1.22,1.36-2.17,1.52-.77.13-1.57.25-2.35.25-.56,0-1.12-.06-1.65-.24-.17-.06-.35-.13-.45-.28-.26-.37.12-.85.24-1.29.32-1.27-1.68-2.01-1.88-3.3-.09-.6.23-1.19.27-1.8.13-1.95-2.54-3.19-2.53-5.13-2.29-.16-4.58-.33-6.87-.51-.19-.01-.41-.04-.53-.19-.1-.12-.11-.3-.1-.46.03-.81.17-1.61.41-2.38,1.02.61,2.21.92,3.39.92.84,0,1.68-.15,2.46-.47.32-.17.28-.67.03-.93-.26-.25-.65-.31-1.01-.36-.89-.13-1.78-.26-2.68-.39.03-.29.06-.58.08-.86.06.03.12.04.17.04.25,0,.51-.23.56-.49.06-.32-.08-.64-.22-.94-.58-1.17-1.25-2.28-1.96-3.36h0Z"/>
  <path class="st5" d="M706.7,886.96c.23.66,1.1.78,1.81.78.47,0,.94,0,1.41,0,2.15,0,4.29-.04,6.44-.1,1.96-.07,3.92-.16,5.88-.26.35-.02.7-.03,1.04-.05.45-.02.91-.05,1.36-.05.53,0,1.07.03,1.59.13.01,0,.03,0,.04,0v11.66c-5.83-.13-11.64-.25-17.46-.38-9.44-.22-18.86-.42-28.28-.63-30.5-.67-61.01-1.33-91.52-2.01,8.73-.5,17.45-.98,26.18-1.43,2.28-.12,4.56-.23,6.84-.35,6.32-.33,12.86-1.1,19.18-1.42.02-.36.37-.51.76-.51.22,0,.45.05.65.14.34.15.75.34,1.11.34.19,0,.36-.05.5-.19.16-.16.24-.41.45-.51.07-.03.13-.05.19-.05.35,0,.7.43,1.08.52.06.01.11.02.16.02.52,0,.99-.54,1.53-.54.01,0,.02,0,.03,0,.5.02.91.5,1.39.5.04,0,.08,0,.12,0,.44-.07.68-.56,1.07-.76.16-.08.32-.12.49-.12.61,0,1.28.44,1.94.48.03,0,.06,0,.09,0,.62,0,1.24-.34,1.84-.34.14,0,.28.02.43.07.2.07.37.19.57.25.15.05.3.06.45.06.2,0,.41-.03.62-.06l3.86-.62c.13-.02.26-.04.39-.04.15,0,.29.03.42.1.93-.59,2.03-.9,3.13-.9.69,0,1.37.12,2.01.36.19.07.38.15.58.15.05,0,.1,0,.15-.02.17-.04.31-.15.45-.25.79-.54,1.8-.61,2.77-.65,1.02-.05,2.04-.1,3.07-.1.79,0,1.58.03,2.36.1.29.03.58.06.87.06.36,0,.72-.05,1.03-.23.19-.11.36-.26.58-.32.08-.02.15-.03.23-.03.3,0,.6.13.91.13.02,0,.04,0,.07,0,.65-.04,1.21-.73,1.81-.73.08,0,.17.01.25.04.27.1.46.34.73.41.06.02.12.02.18.02.19,0,.38-.06.56-.12.48-.15.98-.18,1.49-.18.28,0,.56,0,.84,0,.32,0,.64-.01.95-.06,1.24-.18,2.48-.36,3.71-.54,1.07-.15,2.15-.31,3.23-.31h.04c.16,0,.32,0,.48,0,.48,0,.95-.03,1.35-.28.17.17.34.33.51.5.99-.18,1.98-.35,2.97-.53.3-.05.61-.1.91-.12.11,0,.21,0,.32,0,.4,0,.79.04,1.19.04.16,0,.32,0,.48-.03.87-.09,1.7-.52,2.56-.52.09,0,.18,0,.27.02.3.03.59.12.89.13.02,0,.04,0,.05,0,.53,0,1.06-.28,1.35-.72h0Z"/>
</svg>