<svg width="2620" height="4543" xmlns="http://www.w3.org/2000/svg" xmlns:xlink="http://www.w3.org/1999/xlink" xml:space="preserve" overflow="hidden"><defs><clipPath id="clip0"><rect x="-79" y="0" width="2620" height="4543"/></clipPath></defs><g clip-path="url(#clip0)" transform="translate(79 0)"><path d="M2515.69 5.12024C2034.98-0.76817 1598.38 6.19535 1118.85 0 1115.19 0 1110.9 0.512293 1106.28 0.97298 1069.37 81.5142 1046.96 188.937 1070.93 340.087 1152.77 856.514 1348.59 1404.84 1630.37 1315.65 2268.55 1113.6 2320.97 1432.95 2515.65 1516 2517.37 1363.78 2558.32 339.779 2515.65 5.12024Z" fill="#C5E0E6" fill-rule="evenodd" fill-opacity="0.301961"/><path d="M1578.66 1584.4C2067.21 1027.98 2529.01 1621.94 2515.83 1839.92 2492.62 2224.21 2524.59 3434.95 2515.83 3871.32 2507.07 4307.7 2605.7 4411.03 2463.3 4458.16 2160.96 4558.19 1509.93 4498.28 1219.43 4501.48 928.932 4504.68 855.971 4549.1 720.289 4477.38 413.891 4315.44 1050.81 3489.22 1059.63 3403.8 1098.15 3029.9 690.142 2595.81 1027.34 2374.04 1357.86 2156.7 1387.75 1801.85 1578.66 1584.45L1578.66 1584.4Z" fill="#C5E0E6" fill-rule="evenodd" fill-opacity="0.301961"/><path d="M896.122 724.758C1217.71 1439.18 1157.04 2189.61 800.851 2411.18 538.563 2574.32 924.845 3269.38 773.217 3635.43 499.85 4295.3-112.344 5184.71-77.579 3851.18-68.7166 3511.17-81.8493 1712.18-73.7118 1625.76-38.1414 1247.74-77.579 5.00016-77.579 5.00016-77.579 5.00016 591.979 49.0991 896.122 724.758Z" fill="#C5E0E6" fill-rule="evenodd" fill-opacity="0.301961"/></g></svg>