<?xml version="1.0" encoding="UTF-8"?>
<svg id="Layer_1" xmlns="http://www.w3.org/2000/svg" version="1.1" xmlns:xlink="http://www.w3.org/1999/xlink" viewBox="0 0 191 192">
  <!-- Generator: Adobe Illustrator 29.1.0, SVG Export Plug-In . SVG Version: 2.1.0 Build 142)  -->
  <defs>
    <style>
      .st0 {
        fill: #d9d6c1;
      }

      .st1 {
        fill: none;
      }

      .st2 {
        fill: #6a6e8e;
        fill-opacity: .8;
      }

      .st3 {
        fill: #c4c5cd;
      }

      .st3, .st4, .st5 {
        fill-rule: evenodd;
      }

      .st4 {
        fill: #9497ac;
      }

      .st5 {
        fill: #80849e;
      }

      .st6 {
        fill: #c5c2a1;
      }

      .st7 {
        clip-path: url(#clippath);
      }
    </style>
    <clipPath id="clippath">
      <rect class="st1" x="5.4" y="13.9" width="180.2" height="169.1"/>
    </clipPath>
  </defs>
  <g class="st7">
    <g>
      <path class="st0" d="M177.6,118.2c10.9-10.4,10.6-29-.4-39.7-3.2-3.1-11.7-9.7-17.2-11.4,2.8-9.9-.9-23-12.6-29.5-8.8-4.8-18.3-3.7-25.2.2-.4-1.7-.9-3.6-1-3.9-1.7-6.4-5.2-11.4-10.7-15.1-12.8-8.6-30.4-5.6-40.4,6.9-2.2,2.8-4,5.8-5.2,8.9-5.3-3.9-16.2-3-21.9,2.8-5.2,5.3-7.3,16.5-4.5,22.4,0,.2,0,.4-.1.6-8.9.6-16.2,7.1-18.6,16.6-1.3,5.2-.3,11.6,2,16.1-10,4.6-16.8,18.3-13.4,28.7,3.6,11.1,15.3,15.9,21.2,14.3-4.9,6.1-7.2,16-.4,24.2,7.5,8.9,21.5,8.1,27.8,3.2.3,1.4,1,2.8,2.1,4.2,3.7,4.4,9.5,6.1,14.8,4.3,1.8-.7,4.8-1,7.1-1.8.5,0,1.1.2,1.8.4,0,.5,0,1.2.3,1.6,7.7,12.9,29,8.5,34.6,3.7,1.8-1.5,3.5-3.2,3.8-5.5.1-.7,0-1.3,0-1.7,2.3,1.1,5.9,1.8,7.1,2.5,3.1,1.7,6.4,1.7,9.7.9,3.9-1,7.4-4,9.2-7.6,1.3-.7,2.6-1.4,3.9-2.1,6.1-.2,14-2.1,16.8-4.1,7.7-5.1,11.2-12.6,11.2-21.6,0-3.7-1.6-12.2-4-16.7.6-.5,1.3-1,1.8-1.6h0v-.2ZM29.8,135.9c-1.4-.6-1.4-1.3,0,0h0ZM56.8,35.9c-.4,0-.7.2-1,.3.4-.1.7-.2,1-.3ZM55.9,162.4c.4.1.7.4,1.1.5-.3,0-.7-.2-1.1-.5ZM161.3,68.6c.2.2.4.4.7.7-.2-.3-.4-.5-.7-.7Z"/>
      <path class="st6" d="M110,134c-6.1,3.8-12.3,4-18.6,1.4,0,10.9-5.4,18.4-14,20-6.6,1.2-12-.9-13.7-5.5,5,3.1,10.1,3.2,15.1.6,6.1-3.1,10.2-7.8,10.2-15.1s-.5-2.2-1.1-3c-2-2.7-2.9-5.5-2.3-8.9,2.8,6.6,7.6,10.4,14.7,10.2,7-.2,11.4-4.6,14.6-10.6.5,2.4,0,5.5-1.9,7.6-2.6,2.7-2.1,5.5-1.2,8.5,1.8,5.9,7.6,10.2,14,10.5,5.5.3,10.2-1.3,14.3-5.2-1.3,4.9-9.3,10.1-18.2,8-6.8-1.6-13.6-8.4-11.9-18.5h0Z"/>
      <path class="st6" d="M119.4,35.5c-2.2-2.8-4.1-5.9-6.6-8.4-12.5-12.4-32.9-10.4-43.8,4.1-3.5,4.7-5.9,10-7,15.9,0,.6-.3,1.1-.5,1.6-1.2-8.7,1.3-16.2,6.7-23,10-12.5,27.5-15.5,40.3-6.9,5.4,3.6,8.9,8.7,10.7,15.1.1.5.1,1,.2,1.5h0Z"/>
      <path class="st6" d="M156.9,69.9c.3-24.7-22.3-39.2-43.7-25.7,5.5-8.3,19.6-13.6,32.2-6.6,12.9,7.1,16.1,22.3,11.6,32.3h0Z"/>
      <path class="st6" d="M55,70.8c-1.3-.9-2.6-1.8-3.8-2.5-5.2-3.1-10.7-4.3-16.6-2.4-7.5,2.4-12.9,9.8-13.1,18.1,0,2.4.1,4.8.5,7.2.4,2.3,1.2,4.4,1.8,6.6-4.7-2.7-7.7-13.1-5.8-20.7,2.4-9.7,10-16.3,19.1-16.6,7.6-.2,16.1,4.7,17.9,10.5h.1Z"/>
      <path class="st6" d="M157.2,124.2c11.8-2.4,19.4-9.4,21.5-21.5,2.4-14-4.9-23.5-16.3-30.9,5.2,1.1,9.2,3.5,12.6,6.8,11,10.6,11.2,29.2.4,39.7-5.1,4.9-11.2,7-18.2,6h0Z"/>
      <path class="st6" d="M54.4,163.4c-6,5.3-19.4,5.8-27.1-3.3-8.1-9.7-3.3-22,3.4-27.3-.8,2.1-1.6,4.1-2.1,5.9-1.4,4.5-2.1,9.2-.1,13.7,3,6.7,8.3,10.2,15.3,11.1,3.5.4,7,0,10.7-.1h0Z"/>
      <path class="st6" d="M26.4,135.7c-5.9,1.6-16.4-2.9-20-14-3.5-10.7,1.8-22.5,12.4-26.5-6.2,6.6-10,13.8-8.3,22.9,1.8,9.1,7.7,14.3,16,17.6h0Z"/>
      <path class="st6" d="M151.5,158.6c13.9,0,27-14.1,21.7-33.8,3.1,3.5,4.4,7.5,4.4,11.6,0,9.2-3.5,16.5-11.2,21.6-4.3,2.9-10.5,3-14.9.4h0Z"/>
      <path class="st6" d="M112,77.7c3.9-6.7,14.7-9.1,22.5-5,8.3,4.4,12.4,14.7,8.7,23.1-.4-8.3-2.7-15.1-9.8-19.3-7.2-4.1-14.3-2.7-21.3,1.2h0Z"/>
      <path class="st6" d="M101,64.3c-7.7-3.3-14.8-4-21.4.9-6.6,4.8-8.3,11.8-7.8,19.9-4.4-6.1-1.9-17.2,4.8-22.6,7.4-5.9,18.4-5.3,24.4,1.8Z"/>
      <path class="st6" d="M62,35.2c-14.7-3.2-25.7,7-22.7,22.3-4.9-4.7-4.1-14,1.8-20.1,6.1-6.2,16.2-7.3,20.9-2.2h0Z"/>
      <path class="st6" d="M43.7,131.1c-3.5-.2-6.4-2.7-7.7-6.6-2-5.9-.4-12.2,4.3-16.2,3.5-3.1,7.8-3.8,11.7-1.7-6.1.8-10.2,4.1-12,9.7-1.9,5.6-.4,10.6,3.8,14.8h0Z"/>
      <path class="st6" d="M123,166.5c9.8,6.8,23.2-2.3,22-12.3,1.5,1.1,1.8,2.5,1.9,4.1.4,5.8-4.5,12.3-10.6,13.7-3.3.8-6.6.8-9.7-.9-1.8-1-3.2-2.2-3.6-4.5h0Z"/>
      <path class="st6" d="M55.7,158.8c4.4,10.8,12.6,13.3,21.9,6.6-.1,2.9-2.2,5.2-5.6,6.4-5.3,1.8-11.1.2-14.8-4.3-2.4-3-3-6-1.5-8.8h0Z"/>
      <path class="st6" d="M85.1,170.2c9.5,11.5,30,10.5,32.6.7,1.3,1.8,1.3,3.3.7,4.7-1.8,5.5-10.7,8.7-18.8,6.7-4.5-1.1-8.6-2.9-11.8-6.1-1.8-1.8-3-3.8-2.7-6.1h0Z"/>
    </g>
  </g>
  <path class="st5" d="M86,131.6c-.2-.4-1.3-1.6-1-2.4.8-3.2,3-5.8,2.6-7.9-1.5-3.2-7.2-3.5-7.7-8.3.2-.7,1-1.6,1.3-2.2-1.7-3.7,2.8-7.5-.5-11-3.7-4.5-11.1-3.4-14.5-7.4-2.6-3.3-1.9-9.2-4.7-13-2.4-2.8-8.1-3-8.4-6.3v-1.8l-18.8,8.5c-.5-.1,4.3,8.8,3.3,12.3-.2.8-.4,1.6-.4,2.4s0,1.3.2,1.7c.2.4,1,1.4,1.8,1.6.6.2,1.7.6,1.9,1.1,4.4,9.1,15.8,35.2,17.4,39.2,0,0-.4,1-.5,2.1,0,.4.3,1.9.3,2.2.2.3,1.3,1.6,2.2,2,.7.3,1.8.3,2.2,1,1.7,2.4,5.2,11,5.5,10.8l22.7-10.3c-3.3-.7-6.9-.7-10.3-.2-.2-5.5,4.9-8.9,5.3-14.2h0Z"/>
  <path class="st5" d="M142,136.8c1-4.2,9.7-31.4,14-40.5.2-.5,1.3-1,1.8-1.3.7-.4,1.5-1.3,1.7-1.8,0-.4.1-1,0-1.7,0-.8-.3-1.6-.6-2.4-1.3-3.3,2.8-12.7,2.3-12.5l-33.4-11.8c-.4.4-.9.8-1.3,1.3-2,2.6,2,6.6,1.8,10.3-.6,4.7-5.2,8.5-5.5,12.6-.3,5.3,5.8,9.7,5.4,15.4,0,4.9-5.9,4.4-7.2,8.3-.7.3-1.8.4-2.4.7-3,3.8,1,7.9-.2,11.3-1.2,1.8-4.6,2.1-7.3,3.9-.7.3-.7,1.9-.9,2.4-3.9,3.5-10,2.4-13.7,6.5,2.8,2,5.4,4.5,7.2,7.3l30.1,10.7c.4.1,3.1-8.7,4.7-11.2.4-.7,1.4-.8,2.1-1.2.9-.4,1.8-1.8,2.1-2.2,0-.3.1-1.8,0-2.2-.2-1.1-.7-2.1-.7-2.1h-.1Z"/>
  <path class="st4" d="M157.5,88.6h0l-29.5-10.5c-.7,2.3-2.2,4.4-3.5,6.4l30.6,10.9c1.8.7,3.8-.4,4.4-2.2s-.2-3.9-2.1-4.6h0Z"/>
  <path class="st4" d="M38.9,91.5c-1.7.8-2.4,2.9-1.6,4.7s2.9,2.7,4.7,1.8l22.3-10.1c-.6-2.3-1-4.9-2-7l-23.3,10.6h0Z"/>
  <path class="st4" d="M84.9,129.3c.3-1.2.8-2.4,1.3-3.4l-26.4,12c-1.7.8-2.4,2.9-1.6,4.7s2.9,2.7,4.7,1.8l22.6-10.2c.3-.8.5-1.7.6-2.6-.2-.4-1.3-1.6-1-2.4h-.1Z"/>
  <path class="st4" d="M140.6,136.6h0l-26.4-9.3c-1.1.4-2.2.9-3.2,1.6-.7.3-.7,1.9-.9,2.4-.7.6-1.4,1-2.2,1.5l30.3,10.7c1.8.7,3.8-.4,4.4-2.2s-.2-3.9-2.1-4.6h0Z"/>
  <path class="st3" d="M90.9,146.1l-22.7,10.3c-1.7.8-2.4,2.9-1.6,4.7s2.9,2.7,4.7,1.8l28.2-12.8c-2.3-2.1-5.2-3.4-8.4-4.1h0Z"/>
  <path class="st3" d="M133.8,155.7h0l-30.1-10.7c1.8,2.7,3,5.7,3.2,8.8l24.5,8.7c1.8.7,3.8-.4,4.4-2.2s-.2-3.9-2.1-4.6h0Z"/>
  <path class="st3" d="M56,62.1l-25.3,11.4c-1.7.8-2.4,2.9-1.6,4.7s2.9,2.7,4.6,1.8l19.2-8.7c.3-3,1.8-6.1,3.2-9.3h0Z"/>
  <path class="st3" d="M164.2,70h0l-27.5-9.7c-3.2,1.3-6.4,2.6-8.7,4.5l33.8,12c1.8.7,3.8-.4,4.4-2.2s-.2-3.9-2-4.5h0Z"/>
  <path class="st2" d="M159.4,90.2c0-.4-.2-.7-.4-1-1.2-3.2,2.5-12.1,2.3-12.5h.4c1.8.8,3.8-.2,4.4-2.1s-.2-3.9-2-4.5l-5.8-2.1c1.8.7,2.7,2.7,2,4.5s-2.7,2.9-4.4,2.2h-.4c.2.2-3.5,9.1-2.3,12.3.1.4.2.7.4,1,.4.9.6,1.9.2,3h0c-.4,1.3-1.6,2.1-2.7,2.4-.4.2-.7.4-.8.7-3.2,9.6-12,36.7-14,40.5,0,0,.4,1,.7,2.1h0c.2.7.1,1.5,0,2.2h0c-.4,1-1.1,1.8-2.1,2.2h0c-.7.4-1.7.4-2.1,1.2-1.3,2.1-2.7,6.6-4.4,11.3,1.6.7,2.4,2.7,1.8,4.4s-2.7,2.9-4.4,2.2l5.8,2.1c1.8.7,3.8-.4,4.4-2.2s-.1-3.8-1.8-4.4c1.6-4.8,3.1-9.2,4.4-11.3.4-.7,1.4-.8,2.1-1.2h0c.9-.4,1.7-1.2,2.1-2.2h0c.3-.7.3-1.5,0-2.2h0c-.2-1.1-.7-2.1-.7-2.1,1-4.2,9.7-31.4,14-40.5.1-.2.4-.4.8-.7,1.2-.2,2.3-1.1,2.7-2.4h0c.4-1,.2-2.1-.2-3Z"/>
</svg>