<?xml version="1.0" encoding="UTF-8"?>
<svg id="Layer_1" xmlns="http://www.w3.org/2000/svg" version="1.1" viewBox="0 0 191 192">
  <!-- Generator: Adobe Illustrator 29.1.0, SVG Export Plug-In . SVG Version: 2.1.0 Build 142)  -->
  <defs>
    <style>
      .st0 {
        fill: #d9d6c1;
      }

      .st1 {
        stroke-width: 2.7px;
      }

      .st1, .st2, .st3 {
        fill: none;
        stroke: #c5c2a1;
        stroke-miterlimit: 10;
      }

      .st4 {
        fill: #6a6e8e;
        fill-opacity: .8;
      }

      .st2 {
        stroke-width: 1.6px;
      }

      .st3 {
        stroke-width: 2.2px;
      }

      .st5 {
        fill: #c4c5cd;
      }

      .st5, .st6, .st7, .st8 {
        fill-rule: evenodd;
      }

      .st6 {
        fill: #9497ac;
      }

      .st7 {
        fill: #80849e;
      }

      .st8 {
        fill: #63677c;
      }
    </style>
  </defs>
  <path class="st7" d="M150.8,137.6c-1-8.4-2.6-64.2-.6-84,.1-1.1,1.7-2.6,2.6-3.5,1.2-1.1,1.8-3.4,1.9-4.4-.1-.7-.4-1.8-1-3.1-.7-1.5-1.6-2.6-2.7-3.9-4.5-5.4-3.2-25.2-3.9-24.5H37.5c-.8-.7.5,19.2-3.9,24.5-1.1,1.3-2,2.4-2.7,3.9-.6,1.3-.9,2.4-1,3.1,0,1,.7,3.3,1.9,4.4.9.9,2.6,2.4,2.6,3.5.5,19.8-.3,75.6-.6,84,0,0-1.5,1.5-2.6,3.4-.4.7-1.1,3.7-1.3,4.2.2.7,1.1,4,2.4,5.4,1.1,1.2,2.9,2,3.2,3.5,1.1,5.7.4,23.8,1.2,23.8h111.4c.8,0,0-18.1,1.2-23.8.3-1.6,2.1-2.4,3.2-3.5,1.3-1.4,2.2-4.7,2.4-5.4-.2-.5-.9-3.5-1.3-4.2-1.2-1.9-2.6-3.4-2.6-3.4Z"/>
  <path class="st6" d="M148,38.6H36.6c-3.7,0-6.7,3.2-6.7,7.1s3,7.1,6.7,7.1h111.4c3.7,0,6.7-3.2,6.7-7.1s-3-7.1-6.7-7.1h0Z"/>
  <path class="st6" d="M148,138.1H36.6c-3.7,0-6.7,3.2-6.7,7.1s3,7.1,6.7,7.1h111.4c3.7,0,6.7-3.2,6.7-7.1s-3-7.1-6.7-7.1h0Z"/>
  <path class="st5" d="M148,177.9H36.6c-3.7,0-6.7,3.2-6.7,7.1s3,7.1,6.7,7.1h111.4c3.7,0,6.7-3.2,6.7-7.1s-3-7.1-6.7-7.1h0Z"/>
  <path class="st5" d="M148,0H36.6C32.9,0,29.9,3.1,29.9,7s3,7,6.7,7h111.5c3.7,0,6.7-3.1,6.7-7S151.7,0,148,0h0Z"/>
  <path class="st4" d="M152.4,40.3c-.4-.6-.9-1.1-1.4-1.7-4.3-5.2-3.2-23.9-3.9-24.5h.9c3.7,0,6.7-3.1,6.7-7S151.7,0,148,0h-12.1c3.7,0,6.7,3.1,6.7,7s-3,7-6.7,7h-.9c.6.6-.4,19.4,3.9,24.5.5.6.9,1.1,1.4,1.7,1.4,1.3,2.3,3.2,2.3,5.3h0c0,2.7-1.4,5-3.5,6.2-.5.6-1.1,1.2-1.1,1.8.2,19.8,1.7,75.6.6,84,0,0,1.5,1.5,2.6,3.4,0,0,0,0,0,0,.8,1.2,1.3,2.6,1.3,4.1h0c0,2.2-.9,4.1-2.4,5.4h0c-1.1,1.2-2.9,2-3.2,3.6-.9,4.8-.8,13.9-.7,23.8,3.5.2,6.3,3.3,6.3,7s-3,7.1-6.7,7.1h12.1c3.7,0,6.7-3.2,6.7-7.1s-2.8-6.8-6.3-7c0-9.9-.2-19,.7-23.8.3-1.6,2.1-2.4,3.2-3.5h0c1.5-1.3,2.4-3.2,2.4-5.4h0c0-1.5-.5-3-1.3-4.1,0,0,0,0,0,0-1.2-1.9-2.6-3.4-2.6-3.4-1-8.4-2.6-64.2-.6-84,0-.5.6-1.2,1.1-1.8,2.1-1.2,3.5-3.5,3.5-6.2h0c0-2.1-.9-4-2.3-5.3Z"/>
  <path class="st8" d="M41.7,112.5l4.8,4.3-3-44.5-3-2.9,1.2,43.1Z"/>
  <path class="st8" d="M132.6,171.5l-4.8,1.7,3-17.1,3-1.1-1.2,16.5Z"/>
  <path class="st0" d="M131.7,165.1l24.6-6.4c16.6,3.6,21.8-19.7,9.6-27.2,11.6,8.8,26.3-13.6,13.7-25.3,27.9-15.5-1.5-59.8-23.3-41.2-17.2-25.9-40.5,6.8-22.9,18.8-4.5,5.1-4.6,12.4-.3,15.8-21,3-12.3,30.8.9,26.6-5.3,9.6-1.6,16.4,6.6,17.8,1,1.4-9,21.1-9,21.1h0Z"/>
  <path class="st1" d="M158.4,122.3c1,3.5,3.1,6.9,9.1,9.9"/>
  <path class="st1" d="M180.1,107.7c-1.2-2.1-3.1-3.4-7.4-1.8"/>
  <path class="st1" d="M131.7,99.2c1.4,1.3,3.4,2.4,7.2,2.5"/>
  <path class="st1" d="M155.9,64.7c-1.3,3.8-1.3,8.1,3.3,14.6"/>
  <path class="st0" d="M43.5,107.7l-17.2-7.8c-12.2,2.7-15.2-9.1-10.3-13.7-6.2,5.3-15.5-8-10.9-14.3-9.8-11.4-3.3-18,1.5-17.5.9-25.1,29.2-14.8,24.5,1.7,11,1,8.8,17.9.1,15.4,7.8.4,9.6,4.7,8.1,10.4,6.1,3.9,3.6,13.3-.3,13.6-.7.8,4.4,12.2,4.4,12.2h0Z"/>
  <path class="st3" d="M23.9,82.8c-2.1,0-4.9-.5-7.9,3.4"/>
  <path class="st3" d="M31.3,56c-.6,1.6-1.8,3-5.5,3.1"/>
  <path class="st2" d="M14.7,59.6c-2.3-.4-5-1.1-8.1-5.5"/>
</svg>