<svg width="233" height="225" xmlns="http://www.w3.org/2000/svg" xmlns:xlink="http://www.w3.org/1999/xlink" xml:space="preserve" overflow="hidden"><g transform="translate(-1116 -455)"><rect x="1146" y="493" width="174" height="112" fill="#ADB9CA"/><path d="M192.187 150 32.8125 150 32.8125 46.875 192.187 46.875 192.187 150ZM196.875 32.8125 28.125 32.8125C22.9687 32.8125 18.75 37.0312 18.75 42.1875L18.75 154.687C18.75 159.844 22.9687 164.062 28.125 164.062L93.7499 164.062 93.7499 178.125 70.3124 178.125 70.3124 192.187 154.687 192.187 154.687 178.125 131.25 178.125 131.25 164.062 196.875 164.062C202.031 164.062 206.25 159.844 206.25 154.687L206.25 42.1875C206.25 37.0312 202.031 32.8125 196.875 32.8125Z" stroke="#000000" stroke-width="2.34375" transform="matrix(1.03556 0 0 1 1116 455)"/></g></svg>