<?xml version="1.0" encoding="UTF-8"?>
<svg id="Layer_1" xmlns="http://www.w3.org/2000/svg" version="1.1" viewBox="0 0 486.41 504.84">
  <!-- Generator: Adobe Illustrator 29.1.0, SVG Export Plug-In . SVG Version: 2.1.0 Build 142)  -->
  <defs>
    <style>
      .st0 {
        fill: #199f99;
      }

      .st1 {
        fill: #606161;
      }

      .st2 {
        fill: #fffcf2;
      }

      .st3 {
        fill: #1abab3;
      }

      .st4 {
        fill: #ecbe3a;
      }
    </style>
  </defs>
  <ellipse class="st3" cx="245.18" cy="250.39" rx="233.1" ry="240.04"/>
  <path class="st0" d="M296.81,128.89l-11.27,17.99c-10.11-11.12-24.01-17.99-39.35-17.99-30.91,0-55.97,27.87-55.97,62.24,0,24.97,13.22,46.49,32.3,56.41l-64.67,103.3,120.99,137.11c109.64-22.76,167.77-87.91,188.77-181.02l-170.8-178.04Z"/>
  <path class="st2" d="M183.42,215.26s-20.77-107.57,65.62-107.6c87.33-.02,68.8,107.6,68.8,107.6h-25.03c-2.89,0,9.78-74.79-42.81-72.86-51.11,1.88-40.73,70.26-40.48,72.86h-26.1Z"/>
  <rect class="st4" x="152.06" y="215.26" width="194.93" height="135.58" rx="11.01" ry="11.01"/>
  <g>
    <g>
      <polygon class="st1" points="282.82 286.04 233.62 317.42 233.62 254.66 282.82 286.04"/>
      <rect class="st1" x="282.82" y="254.66" width="8.87" height="62.76"/>
    </g>
    <polygon class="st1" points="258.22 286.04 209.02 317.42 209.02 254.66 258.22 286.04"/>
  </g>
</svg>