<?xml version="1.0" encoding="UTF-8"?>
<svg id="Layer_1" xmlns="http://www.w3.org/2000/svg" version="1.1" viewBox="0 0 486.41 504.84">
  <!-- Generator: Adobe Illustrator 29.1.0, SVG Export Plug-In . SVG Version: 2.1.0 Build 142)  -->
  <defs>
    <style>
      .st0 {
        fill: #008194;
      }

      .st1 {
        fill: #dcae7c;
      }

      .st2 {
        fill: #306872;
      }
    </style>
  </defs>
  <ellipse class="st0" cx="245.19" cy="251.39" rx="233.08" ry="240.03"/>
  <path class="st2" d="M203.3,487.55l47.06-148.01-1.17-188.53c-13.12,12.32-43.99,33.13-67.25,47.12-18.27,10.99-35.26,10.74-35.26,10.74,0,0-81.69,57.12-130.84,85.57,17.24,98.03,92.28,175.33,187.45,193.11Z"/>
  <g>
    <path class="st1" d="M387.54,286.18c-4.84,9.1-17.81,26.14-26.13,32.88s-21.55,15-18.7-2.46c43.47-29.96,56.85-85.64,21.21-127.72-3.19-3.77-20.39-18.31-20.81-19.68-4.14-13.4,8.32-9.98,15.78-4.39,35.92,26.92,50.12,80.99,28.65,121.38Z"/>
    <path class="st1" d="M316.54,185.15c11.23-3.33,28.1,21.53,31.97,30.48,8.34,19.29,7.68,39.44-1.53,58.26-3.62,7.39-24.53,36.02-33.37,25.15-5.84-7.19,9.14-14.6,13.92-20.34,17.89-21.49,17.91-49.71,0-71.2-3.54-4.25-24.52-18.34-10.99-22.35Z"/>
    <path class="st1" d="M176.29,276.16c-.01.71-.33.77-1.29.85-5.4,0-11,.25-16.39.2-.69-.05-1.31-.02-1.82.13v-.28c-6.97-.45-13.92-.69-15.83-9.24-1.27-5.67-1.18-45.71.38-50.68,2.38-7.61,9.04-7.58,15.45-8v-.27c.45.12.99.17,1.68.12,4.66-.08,9.4.19,14.05.18,1.06.15,3.84-.49,3.78.87,0,6.86,0,59.27,0,66.12ZM247.49,317.03l-.02.15c-.53,6.09-3.61,13.63-10.39,11.35-1.86-.5-3.78-1.49-4.98-2.79-11.92-11.55-30.14-31.11-40.71-42.82-.97-1.11-1.62-2.28-1.62-3.69,1.32-16.83-3.46-51.56-.31-71.93.43-2.11.94-3.6,2.15-5.24,5.64-7.57,24.43-23.88,32.84-32.26,4.32-4.2,11.12-10.69,17.43-9.31,2.47.62,4.73,3.38,5.15,6.02.02,48.89,4.55,102.44.46,150.53ZM260.42,167.71v-.15c-1-15.39-11.17-27.58-28.31-22.05-3.92,1.22-7.59,4.03-10.25,6.91-9.81,9.86-30.83,33.64-40.66,41.75-5.11,3.58-13.87,1.95-20.45,2.02-1.21.02-2.82-.2-3.98.09v-.08c-18.08,1.04-27.76,7.43-29.18,26.62-.8,10.86-1.36,44.05,2.48,52.64,5.29,11.83,15.24,13.89,26.7,14.54v-.06c.54.12,1.16.12,1.69.12,5.57-.05,13.47-.75,18.32.16,2.06.32,3.61,1.07,5.14,2.39,10.14,8.7,26.48,27.61,34.74,35.65,3.71,3.37,7.03,7.7,11.47,10.26,12.16,7.17,29.15,2.41,31.26-11.19,7.46-48.02,4.63-108,1.01-159.62Z"/>
    <path class="st1" d="M288.37,267.82c1.6-1.95,5.61-3.4,8.29-7.05,8.04-10.9,8.03-24.49,0-35.36-3.38-4.57-15.64-10.19-8.38-17.49,8.9-8.94,23.56,14.88,25.95,22.55,4.6,14.76.27,33.82-11.75,44.2-11.41,9.86-21.5,2.18-14.11-6.87Z"/>
  </g>
</svg>