<?xml version="1.0" encoding="UTF-8"?>
<svg id="Layer_1" xmlns="http://www.w3.org/2000/svg" version="1.1" xmlns:xlink="http://www.w3.org/1999/xlink" viewBox="0 0 277.3 772.1">
  <!-- Generator: Adobe Illustrator 29.2.1, SVG Export Plug-In . SVG Version: 2.1.0 Build 116)  -->
  <defs>
    <style>
      .st0 {
        fill: #9d2d46;
        stroke: #a6304a;
      }

      .st0, .st1, .st2, .st3, .st4, .st5, .st6, .st7, .st8, .st9, .st10, .st11, .st12, .st13, .st14, .st15, .st16, .st17, .st18, .st19, .st20, .st21, .st22, .st23, .st24, .st25 {
        stroke-miterlimit: 10;
      }

      .st0, .st6, .st13, .st18, .st20, .st22 {
        stroke-width: .5px;
      }

      .st1 {
        stroke: #747560;
      }

      .st1, .st2, .st3, .st4, .st12, .st21, .st25 {
        fill: none;
      }

      .st2, .st16 {
        stroke: #000;
      }

      .st26 {
        fill: #fcf8cd;
      }

      .st27 {
        fill: #bfbb9c;
      }

      .st3 {
        stroke: #545628;
      }

      .st3, .st25 {
        stroke-linecap: square;
        stroke-width: 2px;
      }

      .st4 {
        stroke: #783f2f;
        stroke-linecap: round;
      }

      .st28 {
        fill: #6f705c;
      }

      .st5 {
        stroke: #82826c;
      }

      .st5, .st8, .st14, .st20 {
        fill: #878771;
      }

      .st6 {
        fill: #1b8054;
        stroke: #197949;
      }

      .st7, .st8, .st14 {
        stroke-width: .8px;
      }

      .st7, .st8, .st14, .st17, .st20 {
        stroke: #231f20;
      }

      .st7, .st29 {
        fill: #231f20;
      }

      .st8 {
        opacity: .1;
      }

      .st30 {
        fill: #cf9180;
      }

      .st9 {
        fill: #d44569;
      }

      .st9, .st10, .st15, .st19, .st23 {
        stroke-width: .2px;
      }

      .st9, .st10, .st19, .st23 {
        stroke: #c73e5a;
      }

      .st31, .st15 {
        fill: #fff14d;
      }

      .st32 {
        fill: #5d3b41;
      }

      .st33 {
        fill: #636352;
      }

      .st34 {
        fill: #f38e7f;
      }

      .st34, .st35 {
        opacity: .4;
      }

      .st10 {
        fill: #cc4063;
      }

      .st36 {
        fill: #492c31;
      }

      .st37 {
        fill: #fffcfc;
        opacity: .8;
      }

      .st38 {
        fill: #e28577;
      }

      .st39 {
        fill: #1e7d54;
      }

      .st40 {
        fill: #70754d;
      }

      .st11 {
        fill: #81816b;
        stroke: #787963;
      }

      .st12 {
        stroke: #5d3b41;
      }

      .st41 {
        fill: #6e6f5c;
      }

      .st13 {
        fill: #218f64;
        stroke: #198059;
      }

      .st42 {
        fill: #2e0e01;
      }

      .st43 {
        fill: #f4ac94;
      }

      .st44 {
        fill: #787963;
      }

      .st14 {
        opacity: .1;
      }

      .st45 {
        fill: #2c2a14;
      }

      .st15 {
        stroke: #fdef53;
      }

      .st46 {
        fill: #81816c;
      }

      .st47 {
        fill: #393f36;
      }

      .st16 {
        fill: #1e2722;
      }

      .st48 {
        fill: #0e2e19;
      }

      .st49 {
        fill: #7c7c66;
      }

      .st50 {
        fill: #de9783;
      }

      .st17 {
        fill: #6d6e5a;
      }

      .st51, .st19 {
        fill: #df4665;
      }

      .st52 {
        fill: #e47875;
        opacity: .3;
      }

      .st53 {
        fill: #c55d29;
      }

      .st54 {
        fill: #401c21;
      }

      .st55 {
        fill: #b1862d;
      }

      .st18 {
        fill: #249b6c;
        stroke: #219165;
      }

      .st56 {
        fill: #0c0706;
      }

      .st57 {
        fill: #005236;
      }

      .st58 {
        fill: #222620;
      }

      .st59 {
        fill: #f8ac96;
      }

      .st60 {
        opacity: .4;
      }

      .st61 {
        opacity: 1;
      }

      .st62 {
        fill: #777863;
      }

      .st21 {
        opacity: .4;
        stroke: #646553;
      }

      .st22 {
        fill: #12734b;
        stroke: #056139;
      }

      .st63 {
        fill: #b85c5c;
      }

      .st64 {
        fill: #230c0c;
      }

      .st23 {
        fill: #cc3e61;
      }

      .st65 {
        fill: #372325;
      }

      .st66 {
        fill: #605f44;
      }

      .st35 {
        fill: #f2837b;
      }

      .st24 {
        fill: #3d0e24;
        stroke: #3c1225;
      }

      .st67 {
        fill: #ac4727;
      }

      .st25 {
        stroke: #6f705c;
      }
    </style>
  </defs>
  <path class="st59" d="M93.1,274.8c-.5,14.1-1.1,29.8-1.1,29.8l-42.3-31.8c-5.4,2-8.5,1.1-10.7,5.6,17.3,21.5,25.4,32.9,46.1,51,5.2,4.5,14.6,8.4,18.6,8.5,9.9.3,9.2-13.5,10.8-20.2,2.3-10,2.7-41.1,2.7-41.1l-24.2-1.8Z"/>
  <g>
    <path class="st24" d="M190.4,175.8"/>
    <path class="st43" d="M164.6,132.7s4.7,12.4,2.3,20.3c-3.8,12.7-32.2,21-32.3,26.4-.4,17.8,71.2,20,78.9-6.6,1.4-4.9-11.7-2-16.5-20.6-4.8-18.4-6.8-25.7-6.8-25.7l-25.6,6.2Z"/>
    <path class="st11" d="M108.3,395.2c1-21.8,7.3-51.8,7.3-51.8,22.4,1.7,110.7,3.3,119.5,1.6,6.8,2.5,10,51.3,10.5,68.7.9,30.1-15.6,78.4-24,109.9-1.3,3.2-9.2,41.2-9.2,41.2-1.3,5.3,1.6,37.2,0,46.2-3.5,20.1-7.7,44.6-16.3,61.8-2.3,4.6-25.3,3.3-26,.9-2.5-8,1.6-82,1.4-85.6-1-14.4,6.4-122.9.4-158.7-.5,6.1,3.4,36.6,3,45,0,8.2-3.2,66.2-4.2,94,0,1.5,1.6,41.5-1.1,71.2-1.7,18.4,2.6,24.2.3,32.2-.8,2.8-29.7-2.8-29.3-4.3,3.1-12.4-12.6-72.7-8.6-110.9,0,0-11.6-38.2-20.6-104.7-2.3-10-3.1-56.4-3.1-56.4Z"/>
    <ellipse class="st17" cx="165.7" cy="350.6" rx="1.3" ry="5.2" transform="translate(-9.2 4.5) rotate(-1.5)"/>
    <ellipse class="st17" cx="172.4" cy="350.4" rx="1.6" ry="5.2" transform="translate(-9.2 4.7) rotate(-1.5)"/>
    <path class="st66" d="M175.1,346.4c18.5-.5,37.2-2.6,55.7-3.1.2,3.8.3,7.6.5,11.4-18.4.5-29.6,1.5-48,2,0,0-8,.1-10.7,0l-.4-10.4c2.7.1,2.8.1,2.8.1Z"/>
    <path class="st66" d="M112,341.7c19.9-.5,35.6,5.5,53.6,5.1v9c-19.2,1.4-35.3.3-54.9-.8.4-3.8.9-9.5,1.3-13.3Z"/>
    <polyline class="st44" points="236.9 370.7 207.9 372.7 209.5 456.4 230.5 456.2"/>
    <path class="st14" d="M169.3,354.8c-1.9.7-5.4,31.9-2.3,37.4"/>
    <path class="st3" d="M114.3,371.9"/>
    <path class="st3" d="M115.5,360.3"/>
    <path class="st3" d="M134.9,371.3"/>
    <path class="st3" d="M136.2,359.8"/>
    <path class="st3" d="M157.6,370.9"/>
    <path class="st3" d="M158.9,359.3"/>
    <path class="st3" d="M193.5,370.6"/>
    <path class="st3" d="M191.6,359.1"/>
    <path class="st25" d="M221.5,343.7c0,2.5.9,2.6.9,5.5,0,2-.3,3.7-.4,6"/>
    <polyline class="st44" points="105.9 376.1 124.6 374.5 123.3 438 107.3 441.4"/>
    <polygon class="st41" points="235.1 384.8 207.3 386 206.6 373.9 231.4 373.3 235.1 384.8"/>
    <polygon class="st41" points="103.7 387.4 125.3 387.4 125.2 374.2 106 374.7 103.7 387.4"/>
    <polygon class="st41" points="105.5 374.7 125.2 374 125.2 372.9 106 373.4 105.5 374.7"/>
    <polygon class="st41" points="229.9 373.1 206.8 373.6 206.7 372.8 229.3 372.2 229.9 373.1"/>
    <polyline class="st44" points="130.7 466.5 114.2 463.3 119.9 504.5 137.4 506"/>
    <polygon class="st41" points="134.4 475.7 112.8 473.7 112 460.1 128.9 459.4 134.4 475.7"/>
    <polygon class="st56" points="167.6 354.6 170.5 354.5 170.7 346.4 166.9 346.5 167.6 354.6"/>
    <path class="st25" d="M120.2,344.4c0,2.4-.7,2.5-.7,5.2,0,1.9.5,3.4.8,5.6"/>
    <path class="st25" d="M200,344.6c0,2.3.7,2.4.7,5,0,1.8-.2,3.3-.3,5.4"/>
    <path class="st25" d="M146.4,346.4c.1,2.1-.5,2.2-.4,4.7,0,1.7.4,3.1.7,5"/>
    <path class="st1" d="M177.8,422c-3.1,1.3-9.2,1.6-9.3,2.9-1.4-1.2-8.6-1.6-10.8-2.6"/>
    <g class="st60">
      <image width="762" height="334" transform="translate(79.2 305.7) scale(.2)" xlink:href="explain-woman-soldier-1.png"/>
    </g>
    <g>
      <path class="st40" d="M150.2,209.3l47.8,2.1s13.5-33.8-1.2-30.4c-21.8,5-28,5.2-48.7-6.1l2.1,34.4Z"/>
      <path class="st20" d="M235.2,234c.3,1.2.6,2.4.9,3.6-.4-1.1-.8-2.2-1.4-3.2-.2-.4.3.7.5-.5Z"/>
      <path class="st20" d="M110.4,241.3c-.3,1.8-1.1,6.6-.8,12.8-.4-4.4,0-8.6.8-12.8Z"/>
      <path class="st20" d="M110.2,242.2c0-.4.1-.7.2-.9,0,.3-.1.6-.2.9Z"/>
      <path class="st5" d="M92.8,244.8c0-2.2,2.5-25.5,2.6-27.8.3-12.5,15.8-29.2,25.1-33.3,24.6-10.6,38.5-21.2,38.5-20.9l1.4,12.2,13.2,33.9c9.7-11.1,14.5-23.1,22.1-38.7,3.3-2.8,4.2-8.1,4.9-8.3.4-.1,20.9,7.2,47.1,30.1,4.9,7.5,11.3,24.3,10.3,32.5-.2,1.7,2.8,57.3,2,58.1-2.5,2.8-27.8,11.1-30.3,10.9-3.9-.3-4.2-15.8-4.8-19.1-1.8-8.4,1.7-38.7,2.6-39.9-.2,1.1-.2-.4,0,0,.5,1-5.6,30.7-2.3,43.3,0,0,.4,23.5.6,32.5.3,9.5,2.6,32.8,2.6,32.8-13,.9-27,1.7-39.9,2.9-12.8,1.3-30.3.3-43.5.9-12.2.6-21-1.2-30.9-4.7,2.9-3.1,3.7-14,3.9-22.7.3-14.8-2.1-41.2-2.1-41.2-4.3-8.1-5.8-16.1-6.5-23.8-.3-5.3.3-9.7.7-11.9,0-.3,0-.6.2-.9,0-.2,0-.5.2-.7,0,0,0,.3-.2.7,0,.2-.1.6-.2.9-.8,3.9-1,7.9-.7,11.9.3,6.9,2,15.3,7.2,23,1.5,2.2-22.3,2.1-24.5,2.4-3.1.3.7-31.3.6-35Z"/>
      <path class="st33" d="M173.6,208.7c6.5-2.3,12.2-7.6,22.5-13.6-1.5-2.6-2.3-5.4-3.1-8.7-.1-.5.4-.8.9-.6,8.2,2.4,13.9,3,19.1,3.5.6,0,1.4-.5,1.1-1.1-3-5.7-8.2-19.1-14.2-26.9"/>
      <g>
        <path class="st46" d="M140.6,263.7c-8.4-.6-11.8-.8-20.2-1.4-.8,0-4.3-7.5-4.3-7.5,0-1.3,1.1-16.7,1.2-18,10.2,0,20.3,1.2,30.5,1.1-.7,8-1.1,11.5-1.8,19.5l-5.3,6.3Z"/>
        <path class="st62" d="M118.9,240.9l26.2,1.7,2.6-3.9s.8-6.9,1-10.4c-9.8-.7-20.4-1.6-30.3-2.2,0,0-1,10.6-1,10.6l1.6,4.2Z"/>
        <g>
          <ellipse class="st47" cx="132.1" cy="238.5" rx="1.9" ry="2.1" transform="translate(-111.3 361.3) rotate(-87.8)"/>
          <ellipse class="st58" cx="133.2" cy="238.6" rx=".4" ry=".5" transform="translate(-110.4 362.5) rotate(-87.8)"/>
          <ellipse class="st58" cx="131.1" cy="238.5" rx=".4" ry=".5" transform="translate(-112.2 360.3) rotate(-87.8)"/>
        </g>
      </g>
      <g>
        <path class="st8" d="M166.9,346.5c-2.1-11.9-1.1-15.8,0-28,1.6-19,3.9-31.9,1.6-44.5-2.3-12.2-2.2-26.2,0-38.5,1.8-9.6,5.5-18.4,4.9-28"/>
        <g>
          <path class="st47" d="M166.6,211c1.5,0,2.8.9,3.1,2.2.2,1.3-.8,2.4-2.2,2.4s-2.8-.9-3.1-2.2.8-2.4,2.2-2.4Z"/>
          <path class="st58" d="M166.8,211.6c.3,0,.7.2.7.5s-.2.6-.5.6-.7-.2-.7-.5.2-.6.5-.6Z"/>
          <path class="st58" d="M167.2,214c.3,0,.7.2.7.5s-.2.6-.5.6-.7-.2-.7-.5.2-.6.5-.6Z"/>
        </g>
        <g>
          <path class="st47" d="M159.9,253c1.5,0,2.8.9,3.1,2.2.2,1.3-.8,2.4-2.2,2.4-1.5,0-2.8-.9-3.1-2.2-.2-1.3.8-2.4,2.2-2.4Z"/>
          <path class="st58" d="M160,253.6c.3,0,.7.2.7.5s-.2.6-.5.6-.7-.2-.7-.5.2-.6.5-.6Z"/>
          <path class="st58" d="M160.4,255.9c.3,0,.7.2.7.5s-.2.6-.5.6-.7-.2-.7-.5.2-.6.5-.6Z"/>
        </g>
        <g>
          <path class="st47" d="M163.6,296.2c1.5,0,2.8.9,3.1,2.2.2,1.3-.8,2.4-2.2,2.4-1.5,0-2.8-.9-3.1-2.2s.8-2.4,2.2-2.4Z"/>
          <path class="st58" d="M163.8,296.8c.3,0,.7.2.7.5s-.2.6-.5.6-.7-.2-.7-.5.2-.6.5-.6Z"/>
          <path class="st58" d="M164.2,299.1c.3,0,.7.2.7.5s-.2.6-.5.6-.7-.2-.7-.5.2-.6.5-.6Z"/>
        </g>
        <g>
          <path class="st47" d="M157.6,336.4c1.5,0,2.8.9,3.1,2.2.2,1.3-.8,2.4-2.2,2.4-1.5,0-2.8-.9-3.1-2.2-.2-1.3.8-2.4,2.2-2.4Z"/>
          <path class="st58" d="M157.8,337c.3,0,.7.2.7.5s-.2.6-.5.6-.7-.2-.7-.5.2-.6.5-.6Z"/>
          <path class="st58" d="M158.2,339.3c.3,0,.7.2.7.5s-.2.6-.5.6-.7-.2-.7-.5.2-.6.5-.6Z"/>
        </g>
      </g>
      <g>
        <path class="st46" d="M184.5,265.6c8.9,1,12.6,1.4,21.5,2.4.9,0,5.9-6.6,5.9-6.7.1-1.3,1.9-16.8,2-18.1-10.7-2-21.6-2.6-32.3-4.6-.7,8.1-1,11.6-1.6,19.7l4.5,7.2Z"/>
        <path class="st62" d="M211.5,247l-27.8-3.2-2-4.3s.4-7,.9-10.5c10.4,1.1,21.8,2.2,32.3,3.4,0,0-.9,10.8-.9,10.8l-2.5,3.9Z"/>
        <g>
          <ellipse class="st47" cx="198" cy="242.2" rx="2" ry="2.2" transform="translate(-68.7 405.6) rotate(-82.2)"/>
          <ellipse class="st58" cx="196.9" cy="242.1" rx=".5" ry=".5" transform="translate(-69.6 404.4) rotate(-82.2)"/>
          <ellipse class="st58" cx="199.1" cy="242.3" rx=".5" ry=".5" transform="translate(-67.9 406.8) rotate(-82.2)"/>
        </g>
      </g>
      <g>
        <path class="st28" d="M96.5,211.4c4.1-20.1,16.3-26.7,27.3-30,1.1,2,2.7,5.3,3.8,7.3-10,6.6-19.9,14.4-29.2,27.7-.6-1.7-1.3-3.4-1.9-5.1Z"/>
        <path class="st27" d="M96.9,206.8c5.3-15.7,14.9-22.2,23.7-24.4,1,1.8,3.7,7.4,4.7,9.2-7.7,6.3-15.4,11.9-24.1,22.9-.6-1.5-3.7-6.1-4.3-7.6Z"/>
        <polygon class="st48" points="101.6 211.3 103.1 209.6 99.9 204.5 99 207.3 101.6 211.3"/>
        <polygon class="st48" points="103.9 208.1 105.9 205.9 101.7 199.3 100.5 202.9 103.9 208.1"/>
        <polygon class="st48" points="106.9 205.6 109 203.3 104.3 195 102.3 198.5 106.9 205.6"/>
      </g>
      <g>
        <path class="st67" d="M256.2,201.9c-1-5.2-4.7-9.8-7.8-12.7-.8-.8-11-9.2-19-6.7-7.3,2.2-6.6,4.3-12.2,8.9-8.4,9.6,14.7,23.7,22.9,25.7.9.2,1.8.4,2.5.1,3.4-1.3,15.1-6.4,13.5-15.3Z"/>
        <path class="st45" d="M243.7,217.1c1.7-1,10-5.4,7.1-5.9-1.1-.3-3.2,2.2-8.4,5.5-1.1.7.6.8,1.3.3Z"/>
        <g class="st61">
          <polygon class="st55" points="236.4 209.2 230 203.6 239.4 205.2 236.4 209.2"/>
          <path class="st55" d="M237,211.1c-.5.6,1.5,1.1,1.6.8,1.7-1.9,2.9-4.1,3.7-6.6.2-.2-1.5-1.1-1.8-.5-1,2.1-1.7,4.2-3.5,6.3Z"/>
          <path class="st55" d="M237,212.7c-.3.1,1.6.8,1.7.7.9-.4,1.2-1.1,1.1-2,0,0-1.7-.8-1.8-.6-.2.7-.1,1.4-1.1,1.9Z"/>
          <path class="st55" d="M243,206.4c0,.2-1.8-.5-1.8-.6-.2-.8.2-1.5,1.1-2,0,0,1.9.5,1.7.7-.5.6-1.2,1-1.1,1.9Z"/>
          <path class="st55" d="M237.4,203.2c-2.7-1-5.6-.4-6.5,1.2-.9,1.6.5,3.8,3.2,4.7,2.7,1,5.6.4,6.5-1.2s-.5-3.8-3.2-4.7ZM234.4,208.4c-2-.7-3-2.3-2.3-3.5s2.8-1.6,4.8-.9c2,.7,3,2.3,2.3,3.5-.7,1.2-2.8,1.6-4.8.9Z"/>
        </g>
        <g class="st60">
          <image width="441" height="367" transform="translate(182.2 159.7) scale(.2)" xlink:href="explain-woman-soldier-2.png"/>
        </g>
        <g>
          <path class="st53" d="M258.2,200.3c-.8-5.2-1.5-10.8-6-15.2-6.9-6.7-9.5-7.9-16.8-2.7-6.7,4.8-20.7,11-19.8,12,0,1.9,14.3,6.8,35.7,17,4.8,2.3,8.5-.8,6.9-11.2Z"/>
          <path class="st28" d="M257.1,212.1c.4-17.4-7-28.9-25.5-33.3-2,1.3-6.8,3.9-8.8,5.2,11.3,8.5,22,17.9,30.4,31.6,1.3-1.2,2.6-2.3,4-3.5Z"/>
          <path class="st27" d="M257.7,209.1c.6-14.4-7.9-28.3-20.8-28.7-2,1.3-10,5.1-12,6.4,11.8,7.5,19.2,14.4,26.5,26.2,1.3-1.2,4.9-2.7,6.3-3.8Z"/>
          <polygon class="st48" points="251.9 210.5 250.7 209 255.3 206.6 255.6 208.6 251.9 210.5"/>
          <polygon class="st48" points="250 208.1 248.4 206.1 254.4 203 254.7 205.6 250 208.1"/>
          <polygon class="st48" points="247.7 205.3 246 203.3 252.8 199.1 254.2 201.9 247.7 205.3"/>
        </g>
        <g class="st60">
          <image width="436" height="368" transform="translate(179.5 157.8) scale(.2)" xlink:href="explain-woman-soldier-3.png"/>
        </g>
      </g>
      <path class="st33" d="M173.6,208.7c-6.3-3.6-13.2-11.2-22.7-18.5,2.3-1.4,3.8-3.1,5.5-5.1.2-.3-.3-.5-.8-.7-7.9-3.8-10.4-8.1-14.7-12.2-.5-.5,8.4-1.9,18.5-9.7"/>
      <path class="st50" d="M96.2,274.8c-12.3,9.4-1,12.7,20.3,23.8,1.1-6,.6-16.9.6-16.9l-20.9-6.9Z"/>
      <path class="st49" d="M86.6,276.3c-.3,6.3.7,4.9,4.9,7.9,1.5-1.2-2.9-6.3-1-7.8,3.3,3.2,20.5,11.3,26.6,13.4v-12.9c-9.5-3-17.3-5.1-26.1-11-2.1,3.5-4.2,6.2-4.4,10.4Z"/>
      <path class="st29" d="M94.2,278.9c-1.4,2.8-1.9,4.6-1.5,6.5l-3.9-2.9c.5-7.3,1.3-6.1,1.7-6.1l3.7,2.5Z"/>
      <path class="st7" d="M252.2,279.5"/>
      <g>
        <g>
          <path class="st59" d="M239.3,427.3c0,1.7-.4,3.4-.9,5-.9,2.8-2.4,7.4-3.2,8.8-1.3,2.3-3,8-4.4,6.7-1.8-1.8,4.1-15.1,3.1-15.2,0,0-5.3,19.7-9,19.2-4.2-.6,2.6-21,2.5-21,0,0-5.4,26.3-9.8,25.7-3.4-.4,5-29,3.6-29.5,0,0-3.7,26-7.1,26.5-4.9-.8,1.6-25.3,2.1-31s1,13.8-4.4,10.5c-2.3-3.8,2.6-19.7,3.4-20.5,5.8-6.4,5.8-16.2,15.7-16.1,5.5,0,7.2-5,8.4,31Z"/>
          <path class="st30" d="M216.3,421.6c.1-.9-.9,9.5-2,11.6"/>
          <path class="st30" d="M221.3,426.9c.3,1.2-4.2,23.6-5.9,24.6"/>
          <path class="st30" d="M227,430.3c.1,1.2-4.2,21.2-5.9,21.9"/>
          <path class="st30" d="M233.6,432.2c.4,1.1-4.8,17-6.9,17.5"/>
        </g>
        <path class="st59" d="M256.5,280.1c-5.6,28.4-4.4,57.2-10,85.7-3.5,17.9-6.9,26-10.4,43.9-3.8-1.5-10.3-4.1-14.1-5.6,6.3-39.5,6.1-78.6,3.7-113.8l30.8-10.1Z"/>
      </g>
      <path class="st50" d="M253.8,287.7c-.7,11.6-.8,10.4-27.4,18.2-1.5-6-.6-11.1-.6-11.1l28-7.1Z"/>
      <path class="st21" d="M225.9,284.1c-1.3-2.7-2.2-35.5,1.7-49.9"/>
      <path class="st21" d="M116.7,277.1c-1.3-2.7-11.7-24.4-5.8-41.2"/>
      <path class="st29" d="M251.2,287.2c0,3.2,1.9,6.2,1.7,7.9l.7-.5c2.6-6.5,2.9-7.6,3.1-8.7l-5.5,1.3Z"/>
      <path class="st49" d="M261.1,286.7c-1.2,6.4-3.3,5.9-8.1,8.3-1.3-1.4,4-6,2.4-7.8-3.8,2.8-26.1,8.7-32.6,10l2.3-12.7c9.9-1.7,22.6-3.7,32.5-8.5,1.6,3.8,3.7,6.3,3.5,10.6Z"/>
    </g>
    <g>
      <path class="st16" d="M117.7,750.7c-2.5-.8-4.5-2.7-4.2-5.4.4-3.7,1.3-8.1,5.1-10.8,10.8-7.9,19-14,20-18.5,3.5-15.3,3.9-31.7,2-48.9,0,0,19,1.5,29.9,0,4.8,32.3.6,65.3-2.6,78.3-.5.5-1.9.7-1.6,1.4,3.3,9.1-30.3,9.3-48.6,3.9Z"/>
      <path class="st2" d="M142.5,741c-6-8.9-12.2-14-18.7-10.6"/>
      <path class="st2" d="M114,741.9c2.8,10.8,27.6,8.8,52.3,3.4"/>
    </g>
    <g>
      <path class="st16" d="M169,667.1s1,14.1.2,29.5c-.8,14.6-7.3,27.1-8.1,36-.2,7.6,0,14.6,2,19.6,3,1.4,11.7,5.3,23.4,4.3,9.3-.8,15.9-4.2,18.8-6,.5-1.9,1.1-4.8,1.2-8.4.2-5.9-1.2-10.1-3.3-16.9-1.2-3.7-3.1-9.8-5.9-18.9-1-13.3-.9-26.2.8-38.5-9.9,2-17.8,1.4-29-.7Z"/>
      <path class="st2" d="M163.1,735.1c9.2-9,31.2-6.8,35-.6"/>
      <path class="st2" d="M203.1,745.4c-14.6,5.9-29.4,6.4-44.3,1.5"/>
    </g>
    <g>
      <g>
        <path class="st13" d="M215.3,185.4c-.3,2.3-1,4.4-2.1,6.1-.7-2-1.5-4.2-3.1-4.9-.1,0-.2.1-.1.3.5,1.3,1,2.6,1.5,4,.5,1.2,1,2.5.6,4-.3,1.2-1,2.2-1.5,3.1-.6.9-1.2,1.6-2,2-.1-1.4-.4-2.8-.8-4.2-.2-.5-.6-1.1-.9-.3-.1.5,0,1,0,1.5.1.8.2,1.7.1,2.6-.2,1.6-1.1,3.2-2.3,2.9.2-1.2.1-3.1-1-2.9,0,0-.1,0-.1.2,0,1.1.2,2.5-.5,3.2-.6.6-1.4.6-2.1.8-.6.1-1.2.2-1.8.2-.2,0-.3,0-.5,0-.3,0-.3,0-.6-.3-.3-.4-.3-.4-.2-1,0-.2,0-.4,0-.6.2-1.8.3-4.5,1.4-5.6.7-.7,1.8,0,2.3-1.1,0,0,0-.2,0-.3-.7-.4-1.5-.5-2.3-.3.3-1.7,1.3-2.4,2.4-2.5.7,0,1.4,0,2-.7.4-.5.6-1.2,0-1.4-.4-.2-1,0-1.4,0-.5,0-1,.2-1.5.3.4-2.3,1.6-3.7,3.2-4.1,1-.3,2.2-.3,2.9-1.6,0-.1,0-.2,0-.3-1.4-.5-2.9-.3-4.3.5.3-1.5.6-3,1.3-4.2.6-.9,1.6-1.3,1.8-2.6,0-.1,0-.2-.1-.2-.4,0-.7.2-1,.4.7-3.6,2.8-5.9,4.8-8,.6,4.7.2,9.5-.9,14.1-1.2,5.4-2.9,10.7-6,14.4,0,0,0,.2,0,.1,3.2-3.5,5-9.3,6.2-14.7,1-4.4,1.5-9.1.9-13.6,1.7-.6,2.9,1.6,3.8,3.4.8,1.5,1.4,3.3,1.4,5.2-.5-.5-1.1-.8-1.7-1.1-.5-.2-1.4-.5-1.9-.2-.3.2-.4.5-.3,1,.2.6,1,.8,1.4,1,.8.4,1.6,1.1,2.3,1.9.7.9.7,2.2.5,3.5Z"/>
        <path class="st22" d="M213.2,191.4c1.1-1.7,1.9-3.8,2.1-6.1.1-1.3.2-2.6-.5-3.5-.7-.8-1.5-1.5-2.3-1.9-.4-.2-1.2-.3-1.4-1-.2-.4,0-.8.3-1,.5-.3,1.4,0,1.9.2.6.2,1.1.6,1.7,1.1,0-1.9-.7-3.7-1.4-5.2-.9-1.8-2.1-4-3.8-3.4.6,4.5,0,9.2-.9,13.6-1.2,5.4-3,11.3-6.2,14.7,0,0-.1,0,0-.1,3-3.7,4.7-9.1,6-14.4,1-4.6,1.5-9.4.9-14.1-2,2.1-4.1,4.4-4.8,8,.3-.2.7-.3,1-.4,0,0,.1,0,.1.2-.2,1.3-1.3,1.7-1.8,2.6-.7,1.2-1,2.7-1.3,4.2,1.4-.8,2.9-1,4.3-.5,0,0,.1.2,0,.3-.7,1.2-1.9,1.3-2.9,1.6-1.5.4-2.8,1.8-3.2,4.1.5-.1,1-.3,1.5-.3.4,0,1-.2,1.4,0,.6.2.5,1,0,1.4-.6.6-1.3.6-2,.7-1.1.1-2.1.8-2.4,2.5.8-.2,1.5-.2,2.3.3,0,0,0,.2,0,.3-.5,1.1-1.6.4-2.3,1.1-1.2,1.1-1.3,3.8-1.4,5.6,0,.2,0,.4,0,.6,0,.5,0,.6.2,1,.3.4.3.4.6.3.2,0,.3,0,.5,0,.6,0,1.2-.1,1.8-.2.7-.1,1.5-.2,2.1-.8.7-.7.6-2.1.5-3.2,0,0,0-.2.1-.2,1.2-.2,1.2,1.7,1,2.9,1.2.3,2.1-1.3,2.3-2.9,0-.9,0-1.7-.1-2.6,0-.5-.2-1,0-1.5.2-.8.7-.2.9.3.4,1.3.7,2.7.8,4.2.8-.4,1.5-1.1,2-2,.6-.9,1.3-2,1.5-3.1.3-1.4-.2-2.8-.6-4-.5-1.3-1-2.6-1.5-4,0-.2,0-.3.1-.3,1.6.7,2.4,2.9,3.1,4.9ZM211.9,194.4c0,.5-.2.9-.5,1.3,0,0,0,0,0,0,.2-.4.4-.7.5-1.2,0,0,0,0,0,0ZM214.8,184.6c0,0,0,0,0,0,0-.5,0-.9-.2-1.3,0,0,0-.1,0,0,.2.4.3.9.2,1.4ZM214.9,184c0,0-.1,0,0,0,0-.4,0-.9-.3-1.1,0,0,0-.1,0,0,.3.2.5.8.3,1.2ZM211.2,195.6c0,0,0,0,0,0,0-.3,0-.5.1-.8,0,0,0,0,0,0,0,.3,0,.6-.1.8ZM206.8,199.3c0,.5-.2,1-.3,1.4,0,0,0,0,0,0,.2-.4.3-.9.3-1.4,0,0,0,0,0,0ZM206.5,198.7c0,.5,0,1.1-.2,1.5,0,0-.1,0,0,0,.1-.5.2-1,.2-1.5,0,0,0,0,0,0ZM207.9,186.5c0,.4-.2.8-.4,1.1,0,0,0,0,0,0,.2-.3.3-.7.4-1.1,0,0,0,0,0,0ZM207.8,185.5c0,.5-.2.9-.4,1.3,0,0-.1,0,0,0,.1-.4.3-.8.4-1.3,0,0,.1,0,0,0ZM210.4,174.3c0,0,0,0,0,0,0-.4,0-.8.1-1.2,0,0,0,0,0,0,0,.4,0,.8,0,1.2ZM210.3,173.6c0,0,0,0,0,0,0-.4,0-.9,0-1.3,0,0,0,0,0,0,0,.4,0,.9,0,1.3ZM203.6,191.9s0,0,0,0c-.2.2-.4.3-.6.4,0,0,0,0,0-.1.2,0,.4-.2.6-.4ZM200.2,196.7c0,0,0,.1,0,.1-.2,0-.4.2-.6.4,0,0,0,0,0,0,.2-.2.4-.4.6-.4ZM205.1,180.7s0,0,0,.1c-.2,0-.3.2-.4.4,0,0,0,0,0,0,0-.2.2-.4.4-.5ZM205,180.3c0,0,0,0,0,.1-.3.2-.5.5-.7.8,0,0,0,0,0,0,.2-.4.4-.7.7-.9ZM200,196.4s0,.1,0,.1c-.2,0-.4.1-.6.4,0,0,0,0,0,0,.1-.3.4-.5.6-.4Z"/>
        <path class="st22" d="M211.4,195.6c.3-.3.4-.8.5-1.3,0,0,0,0,0,0-.1.5-.3.8-.5,1.2,0,0,0,.1,0,0Z"/>
        <path class="st22" d="M214.7,184.6c0,0,0,0,0,0,0-.5,0-1-.2-1.4,0,0,0,0,0,0,.2.4.2.8.2,1.3Z"/>
        <path class="st22" d="M214.8,184c0,0,0,.1,0,0,.1-.5,0-1-.3-1.2,0,0,0,0,0,0,.3.2.4.7.3,1.1Z"/>
        <path class="st22" d="M211.1,195.5c0,0,0,.1,0,0,0-.3,0-.6.1-.8,0,0,0,0,0,0,0,.3-.1.5-.1.8Z"/>
        <path class="st22" d="M206.5,200.8c.2-.4.3-.9.3-1.4,0,0,0,0,0,0,0,.5-.2,1-.3,1.4,0,0,0,0,0,0Z"/>
        <path class="st22" d="M206.3,200.2c.2-.5.2-1,.2-1.5,0,0,0,0,0,0,0,.5,0,1-.2,1.5,0,0,0,.1,0,0Z"/>
        <path class="st22" d="M207.4,187.7c.2-.3.4-.7.4-1.1,0,0,0,0,0,0,0,.4-.2.8-.4,1.1,0,0,0,.1,0,0Z"/>
        <path class="st22" d="M207.5,186.8c.2-.4.3-.8.4-1.3,0,0,0-.1,0,0,0,.4-.2.9-.4,1.3,0,0,0,.1,0,0Z"/>
        <path class="st22" d="M210.3,174.3c0,0,0,.1,0,0,0-.4,0-.8,0-1.2,0,0,0,0,0,0,0,.4,0,.8-.1,1.2Z"/>
        <path class="st22" d="M210.2,173.6c0,0,0,.1,0,0,0-.4,0-.9,0-1.3,0,0,0,0,0,0,0,.4,0,.9,0,1.3Z"/>
        <path class="st22" d="M203.7,192s0-.1,0,0c-.2.2-.4.3-.6.4,0,0,0,.1,0,.1.2,0,.4-.2.6-.4Z"/>
        <path class="st22" d="M200.2,196.9c0,0,0-.1,0-.1-.2,0-.4.2-.6.4,0,0,0,.1,0,0,.2-.2.4-.3.6-.4Z"/>
        <path class="st22" d="M205.2,180.8s0-.1,0-.1c-.2,0-.3.2-.4.5,0,0,0,.1,0,0,0-.2.2-.4.4-.4Z"/>
        <path class="st22" d="M205,180.4s0-.1,0-.1c-.3.2-.5.5-.7.9,0,0,0,0,0,0,.2-.4.4-.6.7-.8Z"/>
        <path class="st22" d="M200,196.5s0,0,0-.1c-.2,0-.5.1-.6.4,0,0,0,.1,0,0,.1-.3.3-.4.6-.4Z"/>
      </g>
      <g>
        <path class="st22" d="M156.5,229.3c-1.7-1-3.1-2.8-4.1-5.1-.5-1.3-1-2.6-.5-4.1.5-1.3,1.2-2.6,1.9-3.6.4-.5,1.1-1.1,1.2-2,0-.5-.2-.9-.6-.8-.7,0-1.5,1-2,1.5-.6.6-1.1,1.4-1.5,2.2-.5-2.1-.4-4.4,0-6.5.4-2.5,1.1-5.7,3.1-6.1.7,5.2,2.6,9.9,4.9,14,2.9,5,6.5,10.1,10.9,11.8,0,0,.1-.2,0-.2-4.3-2-7.8-6.6-10.6-11.6-2.4-4.2-4.4-9.1-5.1-14.6,2.8,1,5.7,2.1,7.5,5.5-.4,0-.8,0-1.2.3,0,0-.1.2,0,.3.6,1.3,1.8,1,2.7,1.7,1.1.8,1.9,2.2,2.6,3.6-1.7,0-3.3.8-4.8,2.2,0,0,0,.3,0,.3,1.2.8,2.4.2,3.6-.2,1.8-.6,3.5.1,4.6,2.3-.6.2-1.2.4-1.7.6-.5.2-1.1.4-1.5.8-.6.6-.2,1.4.4,1.6.8.3,1.6-.2,2.3-.5,1.3-.6,2.5-.5,3.3,1.1-.9.3-1.7.8-2.4,1.8,0,0,0,.2,0,.3.9.8,1.9-.6,2.8-.3,1.6.4,2.5,3.2,3.2,5.1,0,.2.2.4.2.6.2.6.3.6,0,1.2-.2.6-.2.6-.5.8-.2.1-.4.2-.5.3-.7.3-1.3.7-2,.9-.8.3-1.7.8-2.4.5-1-.3-1.2-1.9-1.5-3.1,0-.1,0-.2-.2-.1-1.3.6-.8,2.6-.3,3.8-1.2,1.1-2.6,0-3.3-1.7-.3-.9-.5-1.9-.6-2.8,0-.6,0-1.2-.3-1.7-.5-.8-.8.2-.8.9,0,1.7,0,3.4.4,5-1,.1-1.9-.3-2.8-.8-.9-.6-1.9-1.3-2.6-2.4-.8-1.3-.6-3.1-.5-4.7.2-1.8.3-3.5.5-5.3,0-.2-.1-.3-.2-.2-1.5,1.8-1.7,4.7-1.9,7.3ZM158.7,231.6c.2.5.5.8.9,1,0,0,0,0,0-.1-.3-.3-.6-.5-.9-1,0,0-.1,0,0,0ZM152.8,223c0,0,.1,0,0,0-.2-.5-.2-1-.2-1.5,0,0,0,0,0,0,0,.5,0,1.1.2,1.6ZM152.5,222.5c0,0,.1,0,0,0-.2-.4-.2-.9,0-1.4,0,0,0-.1,0,0-.3.4-.3,1.1,0,1.5ZM159.8,232.5c0,0,0,0,0,0-.1-.3-.3-.5-.4-.8,0,0,0,0,0,0,.1.3.2.6.4.8ZM165.6,233.7c.2.5.5,1,.8,1.3,0,0,0,0,0,0-.3-.4-.5-.8-.8-1.3,0,0-.1,0,0,0ZM165.7,232.8c.1.6.4,1.1.7,1.5,0,0,.1,0,0-.1-.3-.4-.5-.9-.6-1.4,0,0-.1,0,0,0ZM160.7,220.6c.2.4.5.7.8.9,0,0,0,0,0-.1-.3-.2-.5-.5-.8-.9,0,0-.1,0,0,0ZM160.5,219.5c.2.5.5.8.8,1.2,0,0,.1,0,0-.1-.3-.3-.5-.7-.8-1.2,0,0-.1,0,0,0ZM154.5,209.2c0,0,.1,0,0,0-.1-.4-.3-.8-.5-1.2,0,0-.1,0,0,0,.1.4.3.8.4,1.2ZM154.4,208.3c0,0,.1,0,0,0-.1-.5-.3-.9-.5-1.3,0,0-.1,0,0,0,.1.5.3.9.5,1.3ZM166.9,223.7c0,0,0,.1,0,.1.3,0,.5.1.8,0,0,0,0-.1,0-.1-.3,0-.5,0-.8,0ZM171.9,226.6c0,0,0,.2,0,.1.2,0,.5,0,.7,0,0,0,0,0,0-.1-.3-.2-.5-.2-.8,0ZM161.9,212.5c0,0,0,.1,0,.1.2,0,.4,0,.5.2,0,0,0,0,0,0-.2-.2-.4-.3-.6-.3ZM162,212c0,0,0,.1,0,.1.3,0,.7.2.9.4,0,0,0,0,0,0-.3-.3-.6-.5-1-.5ZM172.1,226.1s0,.1,0,.1c.2-.1.5-.1.7,0,0,0,0,0,0-.1-.2-.2-.5-.3-.8,0Z"/>
        <path class="st22" d="M159.6,232.7c-.4-.2-.7-.6-.9-1,0,0,0-.1,0,0,.2.4.5.7.9,1,0,0,0,.2,0,.1Z"/>
        <path class="st57" d="M152.9,223c0,0,0,.1,0,0-.2-.5-.3-1-.2-1.6,0,0,0,0,0,0,0,.5,0,1,.2,1.5Z"/>
        <path class="st57" d="M152.5,222.4c0,0,0,.2,0,0-.3-.4-.3-1.1,0-1.5,0,0,0,0,0,0-.2.4-.2,1,0,1.4Z"/>
        <path class="st22" d="M159.9,232.4c0,0,0,.2,0,0-.1-.3-.3-.5-.4-.8,0,0,0-.1,0,0,.1.3.3.5.4.8Z"/>
        <path class="st22" d="M166.4,235c-.3-.3-.6-.8-.8-1.3,0,0,0-.2,0,0,.2.5.4.9.8,1.3,0,0,0,.1,0,0Z"/>
        <path d="M166.4,234.3c-.3-.4-.5-.9-.7-1.5,0,0,0-.1,0,0,.1.5.4,1,.6,1.4,0,0,0,.2,0,.1Z"/>
        <path d="M161.5,221.5c-.3-.2-.6-.5-.8-.9,0,0,0-.1,0,0,.2.4.5.7.8.9,0,0,0,.1,0,.1Z"/>
        <path d="M161.3,220.7c-.3-.3-.6-.7-.8-1.2,0,0,0-.2,0,0,.2.4.5.8.8,1.2,0,0,0,.2,0,.1Z"/>
        <path d="M154.6,209.1c0,0,0,.2,0,0-.2-.4-.3-.8-.4-1.2,0,0,0-.1,0,0,.2.4.3.8.5,1.2Z"/>
        <path class="st57" d="M154.5,208.3c0,0,0,.2,0,0-.2-.4-.3-.9-.5-1.3,0,0,0-.2,0,0,.2.4.3.9.5,1.3Z"/>
        <path d="M166.9,223.8c0,0,0-.2,0-.1.3,0,.5,0,.8,0,0,0,0,.1,0,.1-.3,0-.5,0-.8,0Z"/>
        <path d="M172,226.7c0,0,0,0,0-.1.3-.1.5-.1.8,0,0,0,0,.1,0,.1-.2-.1-.5-.1-.7,0Z"/>
        <path class="st57" d="M161.9,212.7c0,0,0-.1,0-.1.2,0,.4,0,.6.3,0,0,0,.1,0,0-.1-.2-.3-.3-.5-.2Z"/>
        <path class="st57" d="M162,212.2c0,0,0-.1,0-.1.4,0,.7.2,1,.5,0,0,0,.1,0,0-.3-.3-.6-.4-.9-.4Z"/>
        <path d="M172.1,226.2s0,0,0-.1c.2-.2.5-.2.8,0,0,0,0,.1,0,.1-.2-.2-.5-.2-.7,0Z"/>
      </g>
      <g>
        <path class="st22" d="M158.6,206.2c0-.8-.6-1.7-1-2.1-.5-.5-1.2-.6-1.8-.6-.6,0-1.2.2-1.8.4-.3,0-.9.4-1.2,0-.6-.7.4-1.5.7-1.7.5-.2,1-.4,1.6-.5.6-.1,1.3,0,1.9,0,.9,0,.1-1.4-.1-1.9-.3-.6-.7-1.3-1.2-1.6-.7-.5-1.3-.2-2,.1-.6.4-1.3.7-1.9,1.1-.3.2-.9.7-1.2.3-.2-.2-.2-.7,0-1.1.3-.6,1-.8,1.4-1,.3-.2,1.1-.4.9-1-.1-.3-.6-.7-.8-.9-2.1-2.1-4.7-2.7-7.2-1.8,0,0,0,0,0,0,.8,2.4,1.7,4.7,2.8,6.9,1.8,3.5,3.9,6.4,6.2,9.2,0,0,0,.1,0,.1-2.4-2.4-4.6-5.7-6.3-9.1-1.2-2.2-2.2-4.7-3.1-7.3-2.3,2.4-3.5,6.6-3,10.6.4-1.2.9-2.3,1.5-3.4.5-.8,1.1-1.6,1.9-1.3,0,0,0,.1,0,.2-.5,1.4-1,2.8-1.6,4.2-.3.7-.6,1.4-.8,2.2-.2.9,0,1.6.3,2.4.8,2.3,1.9,4.5,3.5,5.4,0-2.3.2-4.9,1.7-6.3,0,0,0,0,.1,0,.2.2.3.5.2.9,0,.9-.4,1.8-.6,2.7-.2.9-.6,1.9-.4,2.8.2.9.7,1.4,1.2,1.9.2.2.4.4.6.5.8.3.6-.7.6-1.3,0-1,0-2,0-3.1,0-1.1.2-2.5,1.1-2.8,0,0,.1,0,.1.1.2.7.2,1.5.2,2.2,0,.9-.3,1.7-.4,2.6-.1,1,0,2.4.9,2.6,1,.3.5-1.8.4-2.6,0-.8,0-1.6,0-2.4,0-.3,0-.9.4-1,.2,0,.3.2.4.5.2.7.2,1.7.3,2.5,0,.7.2,1.5.5,2,.5.8,1.5.4,2.1.2.6-.1,1.3-.3,1.8-.6.8-.4.7-2.1.8-3.1,0-.9.3-2.1,0-3-.3-.9-1.1-1.2-1.7-1.4-.6-.2-1.3-.3-1.9-.3-.3,0-.9.2-1.1-.2-.6-.9,1-1.2,1.2-1.2.5-.1,1-.2,1.6-.2.4,0,2.1.5,2.2-.3ZM158.3,205.6c0,.1,0,.1-.1,0,0-.3-.2-.4-.4-.5,0,0,0-.1,0-.1.2,0,.4.3.5.6ZM158.2,210.5c0,0,0,0,0,0,0-.4-.3-.8-.6-.8,0,0,0-.1,0-.1.4,0,.7.4.7.9ZM158.2,210c0,0,0,.1,0,0-.1-.4-.3-.7-.6-.8,0,0,0-.2,0-.1.3.1.6.5.7.9ZM157.1,215c0,0,0,0,0,.1-.3.3-.7.3-1,0,0,0,0-.1,0-.1.3.2.6.1.9,0ZM154.9,199.3c0,0,0,.1,0,.1-.2,0-.4,0-.7,0,0,0,0,0,0,0,.2,0,.4,0,.7,0ZM154.7,198.9s0,.1,0,.1c-.3,0-.6,0-.9.2,0,0,0,0,0-.1.3-.2.6-.3.9-.2ZM152.4,196.9s0,.1,0,.1c-.3-.2-.6-.5-.8-.8,0,0,0-.1,0,0,.3.2.6.5.8.8ZM149.7,212.6c0,0,0,0,0,0-.1.3-.1.6,0,.9,0,0,0,0,0,0,0-.3,0-.7,0-1ZM149.5,211.8c0,0,0,0,0,0-.2.5-.3,1-.3,1.6,0,0,0,0,0,0,0-.6,0-1.1.3-1.6ZM148.7,205.1c0,0,0,.2,0,.1-.2-.2-.4-.4-.6-.7,0,0,0-.2,0-.1.2.3.4.5.6.7ZM148.5,204.3s0,.1,0,0c-.1-.2-.3-.3-.4-.5,0,0,0-.1,0,0,.1.1.3.3.4.5ZM143.2,206.3c0,0,0,0,0,0-.1.2-.2.4-.1.7,0,0,0,.1,0,0,0-.3,0-.6.2-.8ZM143,205.8s0,0,0,0c-.2.3-.3.7-.3,1.2,0,0,0,0,0,0,0-.5.1-.9.3-1.2ZM142.9,197.7s0,0,0,0c-.2.2-.4.6-.5.9,0,0,0,0,0,0,.1-.4.3-.8.6-1ZM142.4,197.6c0,0,0,0,0,0-.2.5-.4.9-.6,1.3,0,0,0,0,0,0,.2-.5.3-.9.5-1.3Z"/>
        <path class="st57" d="M158.2,205.6c0,0,.1,0,.1,0,0-.3-.2-.6-.5-.6,0,0,0,.1,0,.1.2,0,.3.3.4.5Z"/>
        <path class="st57" d="M158.1,210.6c0,0,0,0,0,0,0-.5-.3-.9-.7-.9,0,0,0,.1,0,.1.3,0,.5.4.6.8Z"/>
        <path class="st22" d="M158.1,210c0,0,.1,0,0,0-.1-.4-.4-.7-.7-.9,0,0,0,.1,0,.1.3.1.5.4.6.8Z"/>
        <path class="st22" d="M157.2,215.1c0,0,0-.1,0-.1-.3.2-.6.2-.9,0,0,0,0,0,0,.1.3.2.7.2,1,0Z"/>
        <path class="st22" d="M154.9,199.4c0,0,0-.1,0-.1-.2,0-.4,0-.7,0,0,0,0,0,0,0,.2,0,.4,0,.7,0Z"/>
        <path class="st22" d="M154.7,199c0,0,0-.1,0-.1-.3-.1-.6,0-.9.2,0,0,0,.2,0,.1.3-.2.6-.2.9-.2Z"/>
        <path class="st22" d="M152.3,197s0,0,0-.1c-.3-.3-.5-.5-.8-.8,0,0,0,0,0,0,.3.3.5.5.8.8Z"/>
        <path class="st22" d="M149.7,212.6c0,0,0-.1,0,0-.1.3-.1.7,0,1,0,0,0,0,0,0,0-.3,0-.6,0-.9Z"/>
        <path class="st57" d="M149.6,211.8c0,0,0-.1,0,0-.2.5-.3,1-.3,1.6,0,0,0,0,0,0,0-.6,0-1.1.3-1.6Z"/>
        <path class="st22" d="M148.6,205.3c0,0,0,0,0-.1-.2-.2-.4-.4-.6-.7,0,0-.1,0,0,.1.2.3.4.5.6.7Z"/>
        <path class="st22" d="M148.5,204.4s0,0,0,0c-.1-.2-.3-.3-.4-.5,0,0,0,0,0,0,.1.2.3.3.4.5Z"/>
        <path class="st22" d="M143.2,206.3c0,0,0-.1,0,0-.1.2-.2.5-.2.8,0,0,0,0,0,0,0-.2,0-.5.1-.7Z"/>
        <path class="st57" d="M143,205.9s0-.1,0,0c-.2.4-.3.8-.3,1.2,0,0,0,0,0,0,0-.4.1-.8.3-1.2Z"/>
        <path class="st22" d="M142.9,197.8s0-.1,0,0c-.3.2-.5.6-.6,1,0,0,0,0,0,0,.1-.4.3-.7.5-.9Z"/>
        <path class="st22" d="M142.5,197.7c0,0,0-.1,0,0-.2.4-.4.9-.5,1.3,0,0,0,0,0,0,.2-.4.4-.9.6-1.3Z"/>
      </g>
      <g>
        <path class="st18" d="M134.3,190.2c.2.5.4.9.7,1.3.4.5.8.5,1.2,0,.5-.6,1.1-1.3,1.7-1.8.9-.8,1.9-1.1,2.9-.6.1,0,.1.3,0,.4-1.1.5-2.4,1.4-3,2.9-.9,2,.6,3.5,1.7,4.3.2-1.5.7-2.9,1.5-3.8.4-.5,1.7-1.6,1.8,0,0,0,0,.1,0,.2-1.3,1.2-2,3.4-1.6,5.6.3,2,1.5,3.4,2.8,3.8-1-2-.9-4.9.3-6.7,0,0,.1,0,.2,0,0,0,.2,0,.1.1-.5,3.3.2,7.5,2.9,7.8,1,.1,2-.2,3-.1,1,0,1.9.2,2.8.4-.4-1.3-.4-2.7-.4-4,0-1.8,0-3.6-.5-5.2-1.1-3.7-3.8-4.5-6.2-3.4,0,0-.1,0-.2,0-.7-1.3,1-2.4,1.6-2.7,1.2-.5,2.4-.1,3.6.4-1.1-3.4-3.9-4.7-6.2-2.9-.1,0-.2-.1-.2-.3.5-1.8,1.7-2.9,3-3,1.4-.1,2.7.9,3.9,1.9.3-1.2.4-2.5,0-3.7-.5-1.6-1.5-1.8-2.5-1.7-1.7.1-3.4,1.1-4.8,2.7,0,.1-.2,0-.2-.2.6-3.6,3.3-4.3,5.5-4.3-1.9-2-4.6-1.9-6.4.3-.1.1-.3,0-.2-.2.3-.9.6-1.8,1.1-2.4-1.1.3-2.1,1.2-2.8,2.5,0,2.3.1,4.6.6,6.7,1.1,5,3.4,9.1,6,12.5.1.1,0,.4-.1.3-2.9-3.7-5.3-8.3-6.3-13.8-.3-1.8-.5-3.6-.4-5.4,0,0,0,0,0,0-.9,0-1.8.1-2.6.5.9.5,1.5,1.6,1.7,3.1,0,.2-.1.3-.2.2-1.6-1.5-3.6-.8-4.6,1.5,1.5-.6,3.2,0,4.4,1.5.1.1,0,.4-.1.4-1.3-.2-2.7-.4-3.8.5-1.2.9-2.1,2.9-1.4,4.8Z"/>
        <path class="st22" d="M135.7,185.4c1.2-.8,2.6-.6,3.8-.5.1,0,.2-.2.1-.4-1.2-1.5-2.9-2.1-4.4-1.5,1-2.3,3-3,4.6-1.5,0,0,.2,0,.2-.2-.2-1.4-.8-2.5-1.7-3.1.8-.4,1.7-.6,2.6-.5,0,0,0,0,0,0,0,1.8.1,3.7.4,5.4,1,5.5,3.4,10.1,6.3,13.8.1.1.2-.1.1-.3-2.6-3.4-4.9-7.5-6-12.5-.5-2.2-.7-4.4-.6-6.7.7-1.3,1.7-2.2,2.8-2.5-.5.7-.8,1.5-1.1,2.4,0,.2.1.4.2.2,1.8-2.2,4.5-2.3,6.4-.3-2.2,0-4.9.7-5.5,4.3,0,.2.1.3.2.2,1.4-1.6,3-2.6,4.8-2.7,1.1,0,2.1.2,2.5,1.7.4,1.2.2,2.5,0,3.7-1.2-1.1-2.5-2-3.9-1.9-1.3,0-2.5,1.2-3,3,0,.1,0,.3.2.3,2.3-1.8,5.1-.5,6.2,2.9-1.2-.5-2.4-.8-3.6-.4-.6.2-2.3,1.3-1.6,2.7,0,0,0,0,.2,0,2.4-1.1,5.2-.3,6.2,3.4.5,1.7.5,3.4.5,5.2,0,1.4,0,2.8.4,4-.9-.3-1.9-.4-2.8-.4-1,0-2,.3-3,.1-2.7-.4-3.3-4.5-2.9-7.8,0-.1,0-.2-.1-.1,0,0-.1-.1-.2,0-1.2,1.8-1.3,4.7-.3,6.7-1.3-.3-2.5-1.8-2.8-3.8-.3-2.1.4-4.4,1.6-5.6,0,0,0-.1,0-.2,0-1.6-1.4-.5-1.8,0-.8,1-1.3,2.3-1.5,3.8-1.1-.8-2.5-2.3-1.7-4.3.6-1.5,1.9-2.4,3-2.9.1,0,.1-.3,0-.4-1-.5-2-.2-2.9.6-.6.5-1.1,1.2-1.7,1.8-.4.5-.8.5-1.2,0-.3-.4-.5-.8-.7-1.3-.7-1.9.2-4,1.4-4.8ZM136.3,182.5c.2,0,.4,0,.6,0,0,0,0-.2,0-.2-.2,0-.4,0-.6,0,0,0,0,.1,0,.1ZM137.4,181.7c-.3,0-.5.2-.8.3,0,0,0,.1,0,.1.3-.1.5-.2.8-.3,0,0,0-.1,0-.1ZM142.6,185.6c0,0,0,0,0,0,0,.4.2.8.4,1.1,0,0,.1,0,0,0-.2-.3-.3-.7-.4-1ZM143.5,186.7c-.1-.2-.3-.4-.3-.6,0-.1-.1,0-.1,0,0,.3.2.5.4.7,0,0,.1,0,0-.1ZM146.8,176.9c.3-.2.6-.3.9-.3,0,0,0-.1,0-.1-.3,0-.6.2-.9.3,0,0,0,.2,0,.1ZM146.3,176.4c.2,0,.5,0,.7,0,0,0,0,0,0,0-.2,0-.5,0-.7,0,0,0,0,0,0,0ZM151.5,183c0,0,0,.1,0,0,0-.4,0-.9-.2-1.3,0,0-.1,0,0,0,0,.4.1.8.1,1.2ZM151.2,182.8c0,.1.1,0,.1,0,0-.4,0-.8-.1-1.1,0,0-.1,0-.1,0,0,.4,0,.8.1,1.1ZM149,186.9s0,0,0-.1c-.2-.1-.4-.3-.6-.5,0,0,0,0,0,0,.2.2.4.4.6.5ZM148.1,186c.3-.2.6,0,.7.3,0,0,0,0,0,0-.2-.4-.5-.5-.8-.3,0,0,0,0,0,0ZM152.4,201.6c0-.4.1-.9.2-1.3,0,0,0-.1-.1,0,0,.4-.1.9-.2,1.3,0,0,0,0,0,0ZM152.2,201.1c0-.6,0-1.2.1-1.7,0,0,0,0,0,0,0,.6,0,1.2-.1,1.7,0,0,0,0,0,0ZM144.6,198.6c0,.4,0,.9.1,1.3,0,0,.1,0,0,0-.1-.4-.2-.8-.1-1.2,0,0,0-.1,0,0ZM144.7,198.9c0,.6.2,1.1.4,1.6,0,0,.1,0,0,0-.2-.5-.3-.9-.4-1.5,0,0,0,0,0,0ZM143.5,190.9s0,0,0,0c-.2-.3-.3-.6-.5-1,0,0,0,0,0,0,.2.3.3.6.5.9ZM141,179.4c0-.3,0-.5,0-.8,0,0,0,0,0,0,0,.3,0,.5,0,.8,0,0,0,0,0,0ZM140.7,179.9c0-.4,0-.7,0-1.1,0,0,0,0,0,0,0,.4,0,.7,0,1.1,0,0,0,0,0,0ZM137.9,192.8c-.2.4-.3,1-.2,1.4,0,0,0,0,0,0,0-.5,0-.9.1-1.3,0,0,0-.2,0,0ZM138.4,192.6c-.2.3-.3.8-.3,1.3,0,0,0,0,0,0,0-.5.1-.9.3-1.2,0,0,0-.1,0,0ZM138,188.5c-.2,0-.4.2-.6.3,0,0,0,.1,0,.1.2,0,.4-.2.6-.3,0,0,0-.2,0-.1ZM137.4,189.7c.2-.2.4-.4.7-.5,0,0,0-.1,0-.1-.3,0-.5.3-.7.5,0,0,0,.2,0,.1Z"/>
        <path class="st22" d="M151.5,181.8c0,0-.1,0,0,0,0,.4.1.8.1,1.2,0,0,0,.1,0,0,0-.4,0-.9-.2-1.3Z"/>
        <path class="st22" d="M151.2,181.6c0,0-.1,0-.1,0,0,.4,0,.8.1,1.1,0,.1.1,0,.1,0,0-.4,0-.8-.1-1.1Z"/>
        <path class="st22" d="M147.7,176.6c0,0,0-.1,0-.1-.3,0-.6.2-.9.3,0,0,0,.2,0,.1.3-.2.6-.3.9-.3Z"/>
        <path class="st22" d="M147,176.4s0,0,0,0c-.2,0-.5,0-.7,0,0,0,0,0,0,0,.2,0,.5,0,.7,0Z"/>
        <path class="st22" d="M148.9,186.1c-.2-.4-.5-.5-.8-.3,0,0,0,0,0,0,.3-.2.6,0,.7.3,0,0,0,0,0,0Z"/>
        <path class="st22" d="M149,186.9s0,0,0-.1c-.2-.1-.4-.3-.6-.5,0,0,0,0,0,0,.2.2.4.4.6.5Z"/>
        <path class="st22" d="M152.3,199.3c0,0,0,0,0,0,0,.6,0,1.2-.1,1.7,0,0,0,0,0,0,0-.6,0-1.2.1-1.7Z"/>
        <path class="st22" d="M152.6,200.2c0,0,0-.1-.1,0,0,.4-.1.9-.2,1.3,0,0,0,0,0,0,0-.4.1-.9.2-1.3Z"/>
        <path class="st22" d="M141,178.6c0,0,0,0,0,0,0,.3,0,.5,0,.8,0,0,0,0,0,0,0-.3,0-.5,0-.8Z"/>
        <path class="st22" d="M140.7,178.8c0,0,0,0,0,0,0,.4,0,.7,0,1.1,0,0,0,0,0,0,0-.4,0-.7,0-1.1Z"/>
        <path class="st22" d="M143.4,186.9c0,0,.1,0,0-.1-.1-.2-.3-.4-.3-.6,0-.1-.1,0-.1,0,0,.3.2.5.4.7Z"/>
        <path class="st22" d="M142.6,185.6c0,0,0,0,0,0,0,.4.2.8.4,1.1,0,0,.1,0,0,0-.2-.3-.3-.7-.4-1Z"/>
        <path class="st22" d="M143.5,190.8c-.2-.3-.3-.6-.5-1,0,0,0,0,0,0,.2.3.3.6.5.9,0,0,0,0,0,0Z"/>
        <path class="st22" d="M137.4,181.8s0-.1,0-.1c-.3,0-.5.2-.8.3,0,0,0,.1,0,.1.3-.1.5-.2.8-.3Z"/>
        <path class="st22" d="M136.9,182.5c0,0,0-.2,0-.2-.2,0-.4,0-.6,0,0,0,0,.1,0,.1.2,0,.4,0,.6,0Z"/>
        <path class="st22" d="M144.7,198.6c0,0,0-.1,0,0,0,.4,0,.9.1,1.3,0,0,.1,0,0,0-.1-.4-.2-.8-.1-1.2Z"/>
        <path class="st22" d="M144.8,198.9c0,0,0,0,0,0,0,.6.2,1.1.4,1.6,0,0,.1,0,0,0-.2-.5-.3-.9-.4-1.5Z"/>
        <path class="st22" d="M138.1,188.6c0,0,0-.2,0-.1-.2,0-.4.2-.6.3,0,0,0,.1,0,.1.2,0,.4-.2.6-.3Z"/>
        <path class="st22" d="M138.1,189.2s0-.1,0-.1c-.3,0-.5.3-.7.5,0,0,0,.2,0,.1.2-.2.4-.4.7-.5Z"/>
        <path class="st22" d="M138.5,192.7c0,0,0-.1,0,0-.2.3-.3.8-.3,1.3,0,0,0,0,0,0,0-.5.1-.9.3-1.2Z"/>
        <path class="st22" d="M138,192.8c0,0,0-.2,0,0-.2.4-.3,1-.2,1.4,0,0,0,0,0,0,0-.5,0-.9.1-1.3Z"/>
      </g>
      <g>
        <path d="M137.8,174.7c.3.6.6,1.2.9,1.8,0,.2,0,.4-.2.2-.3-.6-.7-1.3-1-1.9,0,0,.2,0,.2-.1Z"/>
        <path class="st18" d="M135,176.5s.2-.3.2,0c-.4,2.8,0,5.8,2.2,6.7,1,.4,2,.4,3,.6.9.2,1.9.6,2.7,1.2-.2-1.4-.1-2.7,0-4.1.2-1.8.4-3.5,0-5.3-.3-1.6-.8-2.8-1.6-3.6,0-.1.1-.3.2-.4,0,0,0,0,0,0,1.3,1.4,1.8,3.6,1.8,5.8,0,2.6-.8,5.2-.2,7.7,0,.1,0,.3-.2.2-1.2-.8-2.5-1.3-3.9-1.5-1-.2-2.1-.2-3-1-1.7-1.4-2-3.9-1.5-6.4h0Z"/>
        <path class="st22" d="M137.6,174.8c.3.7.6,1.3,1,1.9,0,.2.3,0,.2-.2-.3-.6-.6-1.2-.9-1.8,1.6-.6,3.2-1.1,3.9-2.8.8.8,1.4,2,1.6,3.6.3,1.8.1,3.5,0,5.3-.2,1.4-.3,2.7,0,4.1-.9-.5-1.8-.9-2.7-1.2-1-.3-2-.2-3-.6-2.1-.9-2.6-3.9-2.2-6.7.6-.8,1.5-1.2,2.4-1.6ZM142.6,182.4c.1-.4.2-.8.3-1.3,0,0,0-.1,0,0-.1.4-.2.9-.3,1.3,0,0,0,.1,0,0ZM142.4,181.9c.1-.6.2-1.1.3-1.7,0,0,0-.1,0,0-.1.6-.2,1.1-.3,1.7,0,0,0,.1,0,0ZM135.5,179.5c0,0,.1,0,0,0-.2-.5-.2-1-.2-1.6,0,0,0,0,0,0,0,.6,0,1.1.2,1.6ZM135.2,178.8c0,0,.1,0,0,0,0-.4,0-.8,0-1.2,0,0,0-.1,0,0-.1.4-.1.9,0,1.3Z"/>
        <path d="M135.4,177.5c0,0,0-.1,0,0-.1.4-.1.9,0,1.3,0,0,.1,0,0,0,0-.4,0-.8,0-1.2Z"/>
        <path class="st18" d="M135.4,177.8c0,0,0,0,0,0,0,.6,0,1.1.2,1.6,0,0,.1,0,0,0-.2-.5-.2-1-.2-1.6Z"/>
      </g>
      <g>
        <path class="st22" d="M221.1,172c.1.4.1.9,0,1.4,0,0,0,0,0,0,.1-.4.1-.9,0-1.3,0,0,0,0,0,0-1.7-1.2-3.4-2.1-5.2-3,0,0,0,0,0,0,0,0,0,0,0,0,0,0,0,0,0,0-.1,0-.2-.1-.3-.2-1.3,2.1-2.9,3.9-4.5,5.4-.1.1-.2-.2-.1-.3,1.6-1.5,3.1-3.3,4.4-5.3-.5-.3-1.1-.5-1.6-.8,0,.3,0,.6-.2.9,0,0-.1,0-.2,0-2.3-1.6-5.1-1.3-6.5,2.1-.7,1.6-.9,3.3-1.1,5.1-.1,1.4-.3,2.7-.8,3.9,1,0,1.9,0,2.9.1,1,.2,2,.7,3,.7,2.7.2,3.8-3.8,3.6-7.2,0-.1,0-.2.2,0,0,0,.1,0,.2,0,1,2,.8,4.9-.4,6.7,1.4,0,2.7-1.3,3.2-3.2.6-2,0-4.4-1-5.8,0,0,0-.1,0-.2.2-1.5,1.4-.2,1.8.4.7,1.1,1.1,2.6,1.1,4.1,1-.5,2.4-1.5,2.2-3.2,0,0-.2-.1-.3-.2ZM205.8,177.8c0-.5,0-.9,0-1.4,0,0,0,0,.1,0,0,.5,0,.9,0,1.4,0,0,0,0,0,0ZM206.1,177.4c0-.6,0-1.2,0-1.8,0,0,0,0,0,0,0,.6,0,1.2,0,1.8,0,0,0,0,0,0ZM213.9,176.4c0,.5,0,.9-.2,1.3,0,0-.1,0,0,0,.2-.4.2-.8.2-1.2,0,0,0,0,0,0ZM213.7,176.7c0,0,0,0,0,0,0,.6-.3,1.1-.6,1.5,0,0-.1,0,0,0,.3-.4.4-.9.5-1.4ZM220.8,173c0-.5,0-.9-.2-1.3,0,0,0-.1,0,0,.2.4.2.9.2,1.3,0,0,0,0,0,0Z"/>
        <path d="M215.7,168.9s0,0,0,0c0,0,0,.1,0,0,0,0,0,0,0,0,0,0,0,0,0,0Z"/>
        <path d="M213.8,176.4c0,0,0,0,0,0,0,.5,0,.9-.2,1.3,0,0-.1,0,0,0,.2-.4.2-.8.2-1.2Z"/>
        <path d="M213.7,176.7c0,0,0,0,0,0,0,.6-.3,1.1-.6,1.5,0,0-.1,0,0,0,.3-.4.4-.9.5-1.4Z"/>
        <path d="M220.6,171.8c.2.4.2.8.2,1.3,0,0,0,0,0,0,0-.5,0-1-.2-1.3,0,0,0,0,0,0Z"/>
        <path d="M221.1,171.9c0,0,0,0,0,0,0,0,0,0,0,0,0,0,0,0,0,0Z"/>
        <path d="M221,172s0,0,0,0c.1.4.1.9,0,1.3,0,0,0,.1,0,0,.2-.4.2-.9,0-1.4,0,0,0,0,0,0Z"/>
      </g>
      <g>
        <path class="st18" d="M192.8,201.6c-.2-1.4-.2-2.8.7-3.7.7-.7,1.5-.7,2.3-.6-.5,1.7-.9,3.6-.6,5.5.3,1.7,1.1,3.2,2.3,3.5,0,0,.2-.1.1-.3-1.5-2.7-1.1-6.6.8-8.7-.1,1.6-.1,3.3.3,4.8.2.8,1.2,2.8,1.9,1.6,0,0,0-.1,0-.2-1.1-3-1-6.8,1.1-8.8,1-.9,2-1.3,3.1-1.6.9-.2,1.7-.5,2.4-1.3,0,1.3,0,2.6.2,3.8.2,1.3.5,2.6.6,4,.2,3.6-2.3,5.2-4.4,5.1,0,0,0,.1,0,.2,0,0,0,.2,0,.2,1.3,1.3,3.1,1,4.2-.7,0,1.8-.7,3.6-1.9,4.4-1.3.8-2.8.3-3.7-1.2,0,0,0,0-.1,0-1,.4,0,1.9.3,2.4.7.9,1.7,1.4,2.6,1.3-.3,1.6-1,3.7-2.4,2.9-1-.6-1.8-2.1-2.3-3.5,0-.1-.2,0-.2,0-.2,1.4.2,2.7.8,3.8.4.7.9,1.3,1.4,1.9.3.4.4,1,.2,1.5-.2.4-.4.8-.7,1.1-1.1,1.2-2.5.5-3.2-1-.7-1.4-.8-3.3-.9-5,0-.2-.2-.2-.2,0-.8,1.9-.8,4.1-.2,6.1-1.6-.9-2.3-3.5-1.6-5.9,0-.1,0-.3-.1-.3-.9.5-1.4,1.5-1.6,2.8-.4-1-.6-2.2-.7-3.4,0,0,0,0,0,0,1.1-.2,2.3-.8,3.3-1.5,3.2-2.2,5.7-6.3,7.5-10.7,0-.2-.1-.3-.2-.1-1.7,4.1-3.8,7.8-6.8,10.1-1.3,1-2.6,1.7-4.1,1.9-.9-.7-1.6-1.9-2-3.3.5.5,1.1.9,1.7,1,.1,0,.2-.2.1-.3-1.6-2-2.1-5.6-1.2-8.4.4,2.9,1.2,6.4,3.5,6.5.1,0,.2-.2,0-.3-1.2-1.5-2.1-3.6-2.4-5.9Z"/>
        <path class="st22" d="M193.5,198c-.9.9-.9,2.3-.7,3.7.4,2.3,1.2,4.3,2.4,5.9,0,0,0,.3,0,.3-2.3-.2-3.2-3.6-3.5-6.5-.9,2.8-.4,6.4,1.2,8.4,0,.1,0,.4-.1.3-.6-.2-1.2-.5-1.7-1,.4,1.4,1.1,2.6,2,3.3,1.4-.3,2.8-.9,4.1-1.9,2.9-2.3,5.1-6,6.8-10.1,0-.2.3,0,.2.1-1.8,4.4-4.3,8.5-7.5,10.7-1,.7-2.2,1.2-3.3,1.5,0,0,0,0,0,0,.1,1.2.4,2.3.7,3.4.2-1.3.8-2.3,1.6-2.8.1,0,.2.1.1.3-.7,2.4,0,5,1.6,5.9-.6-1.9-.5-4.2.2-6.1,0-.2.2-.1.2,0,0,1.7.2,3.6.9,5,.7,1.5,2.1,2.3,3.2,1,.3-.3.5-.7.7-1.1.3-.6.2-1.1-.2-1.5-.5-.6-1-1.2-1.4-1.9-.6-1.1-1-2.4-.8-3.8,0-.1.2-.2.2,0,.5,1.4,1.3,2.9,2.3,3.5,1.4.8,2-1.4,2.4-2.9-1,0-1.9-.4-2.6-1.3-.4-.5-1.3-2-.3-2.4,0,0,0,0,.1,0,.9,1.5,2.4,2,3.7,1.2,1.2-.8,1.9-2.6,1.9-4.4-1.1,1.7-2.9,2-4.2.7,0,0,0-.2,0-.2,0,0,0-.2,0-.2,2.1,0,4.6-1.5,4.4-5.1,0-1.4-.4-2.7-.6-4-.2-1.3-.2-2.6-.2-3.8-.7.7-1.6,1-2.4,1.3-1.1.3-2.2.7-3.1,1.6-2.1,2.1-2.2,5.8-1.1,8.8,0,0,0,.2,0,.2-.7,1.1-1.6-.9-1.9-1.6-.5-1.5-.5-3.2-.3-4.8-1.9,2-2.3,5.9-.8,8.7,0,.1,0,.3-.1.3-1.2-.3-2.1-1.8-2.3-3.5-.3-1.9.1-3.7.6-5.5-.8-.1-1.6-.1-2.3.6ZM194.1,198.2s0,0,0-.1c.2-.3.5-.4.8-.4,0,0,0,.1,0,.1-.3,0-.5.2-.7.4ZM194,198.6c0,0,0-.1,0-.1.2-.1.5-.2.7-.3,0,0,0,.1,0,.1-.2.1-.5.2-.7.3ZM191.4,204c0,0,0-.1,0,0,0,.4.2.8.4,1.2,0,0,0,.1,0,0-.2-.4-.3-.8-.4-1.2ZM191.4,205s0,0,0,0c0,.3,0,.6.1,1,0,0,0,0,0,0,0-.3,0-.6-.1-1ZM197.1,201.9c-.2-.3-.2-.8,0-1.1,0,0,0,0,0,0-.2.3-.2.7,0,1,0,0,0,0,0,0ZM197.5,200.5c0,0,0,0,0,0,0,.3-.1.6-.2.9,0,0,0,0,0,0,.1-.3.2-.6.2-.8ZM204.8,194.1c0,0,0-.1,0-.1.4,0,.7,0,1.1-.1,0,0,0,.1,0,.1-.4,0-.7.1-1.1.1ZM205.3,193.6c0,0,0-.1,0-.1.3,0,.6,0,.9,0,0,0,0,.1,0,.1-.3,0-.6,0-.9,0ZM193.7,212.7c0,0,0-.1,0-.1.2,0,.3-.1.5-.2,0,0,0,.1,0,.1-.2,0-.3.1-.5.2ZM193.9,213s0,0,0-.1c.2,0,.4-.1.7-.2,0,0,0,0,0,.1-.2,0-.4.1-.7.2ZM198.4,207.8c0,0,.1,0,0,0,0,.3-.2.5-.4.6,0,0-.1,0,0-.1.1-.1.3-.3.3-.5ZM197.8,209.3s0,0,0,0c.2-.2.4-.4.6-.7,0,0,0,0,0,0-.2.3-.4.5-.6.7ZM200.4,207.9c.2-.3.3-.5.5-.8,0,0,0,0,0,0-.2.3-.3.6-.5.8,0,0,0,0,0,0ZM196.2,216.8c0,0,0-.1,0,0,.1.3.2.7.3,1,0,0,0,.1,0,0-.1-.3-.2-.7-.3-1ZM196.7,217.3c0-.1,0-.1,0,0,0,.3,0,.6,0,.8,0,0,0,0,0,0,0-.3,0-.6-.1-.8ZM205.5,204.3c0,0,0-.1,0-.1.3,0,.5-.1.7-.3,0,0,0,0,0,.1-.2.3-.5.4-.8.4ZM205.7,204.1c0,0,0,0,0-.1.3-.2.6-.4.9-.8,0,0,0,0,0,0-.2.4-.5.7-.9.8ZM200.3,214.8c0,0,0-.1,0,0,0,.2.2.5.3.7,0,0,0,.1,0,0,0-.2-.2-.5-.3-.7ZM200.7,214.7c0,0,0,0,0,0,.1.3.2.6.4.8,0,0,0,.1,0,0-.2-.2-.4-.5-.4-.8ZM202.8,213.6s0-.1,0,0c.3.2.5.3.8.2,0,0,0,0,0,0-.3,0-.6,0-.8-.2ZM203,214.2c0,0,0-.1,0-.1.3.1.6.1.8,0,0,0,0,0,0,.1-.3.2-.6.2-.9,0Z"/>
        <path class="st22" d="M194,198.1s0,.1,0,.1c.2-.2.5-.3.7-.4,0,0,0-.1,0-.1-.3,0-.6.2-.8.4Z"/>
        <path class="st22" d="M194,198.5c0,0,0,.2,0,.1.2,0,.5-.2.7-.3,0,0,0-.2,0-.1-.2.1-.5.2-.7.3Z"/>
        <path class="st22" d="M191.4,204c0,0,0,0,0,0,0,.4.2.8.4,1.2,0,0,.1,0,0,0-.2-.4-.3-.7-.4-1.2Z"/>
        <path d="M191.4,205s0,0,0,0c0,.3,0,.6.1,1,0,0,0,0,0,0,0-.3,0-.6-.1-1Z"/>
        <path d="M197.2,200.8c-.2.3-.2.8,0,1.1,0,0,0,0,0,0-.1-.3-.1-.7,0-1,0,0,0-.1,0,0Z"/>
        <path class="st22" d="M197.6,200.5c0,0,0,0,0,0,0,.3-.1.6-.2.8,0,0,0,.1,0,0,.1-.3.2-.6.2-.9Z"/>
        <path class="st22" d="M204.8,194c0,0,0,.1,0,.1.4,0,.7,0,1.1-.1,0,0,0-.1,0-.1-.4,0-.7,0-1.1.1Z"/>
        <path class="st22" d="M205.3,193.4c0,0,0,.1,0,.1.3,0,.6,0,.9,0,0,0,0-.1,0-.1-.3,0-.6,0-.9,0Z"/>
        <path d="M193.7,212.6c0,0,0,.1,0,.1.2,0,.3,0,.5-.2,0,0,0-.1,0-.1-.2,0-.3.1-.5.2Z"/>
        <path d="M193.9,212.9s0,.1,0,.1c.2,0,.4-.1.7-.2,0,0,0-.1,0-.1-.2,0-.4.1-.7.2Z"/>
        <path d="M198.5,207.9c0,0,0-.2,0,0,0,.2-.2.4-.3.5,0,0,0,.2,0,.1.2-.1.3-.3.4-.6Z"/>
        <path d="M197.8,209.2s0,.1,0,0c.2-.2.4-.4.6-.7,0,0,0-.1,0,0-.2.3-.4.5-.6.7Z"/>
        <path class="st22" d="M200.9,207.1c-.2.3-.3.5-.5.8,0,0,0,.1,0,0,.2-.3.3-.5.5-.8,0,0,0-.1,0,0Z"/>
        <path d="M196.3,216.8c0,0,0,0,0,0,.1.3.2.7.3,1,0,0,0,0,0,0-.1-.3-.2-.7-.3-1Z"/>
        <path d="M196.8,217.3c0-.1-.1,0,0,0,0,.3,0,.6.1.8,0,0,0,0,0,0,0-.3,0-.6,0-.8Z"/>
        <path d="M205.5,204.2c0,0,0,.1,0,.1.3,0,.6-.1.8-.4,0,0,0-.2,0-.1-.2.2-.5.3-.7.3Z"/>
        <path class="st22" d="M205.7,204c0,0,0,.1,0,.1.3-.1.7-.4.9-.8,0,0,0-.1,0,0-.2.4-.5.6-.9.8Z"/>
        <path d="M200.4,214.7c0,0,0,0,0,0,0,.2.2.5.3.7,0,0,0,0,0,0,0-.2-.2-.5-.3-.7Z"/>
        <path d="M200.8,214.6c0,0,0,0,0,0,0,.3.2.6.4.8,0,0,0,0,0,0-.2-.2-.3-.5-.4-.8Z"/>
        <path d="M202.8,213.5s0,0,0,0c.2.2.6.3.8.2,0,0,0,0,0,0-.3,0-.5,0-.8-.2Z"/>
        <path d="M203,214.1c0,0,0,0,0,.1.3.2.6.2.9,0,0,0,0-.1,0-.1-.3.2-.6.2-.8,0Z"/>
      </g>
      <g>
        <path class="st18" d="M177,238.7c-.3.3-1.1.7-1.4.2-.3-.4.6-2,.7-2.4.2-.5.4-1.1.5-1.7,0-.3.5-2-.1-1.8-.3.1-.4.8-.5,1.1-.2.7-.5,1.3-.9,1.9-.3.6-.8,1.2-1.3,1.3-.6,0-1.1-.6-1.5-1.1-.5-.5-1.3-1-1.2-2,0-.7.3-1.5.4-2.1.2-.7.3-1.9.9-2.1.4-.2.8,0,1.2.2.4.2.9.6,1.4.6.2,0,.3,0,.4-.3,0-.4-.2-.6-.3-.8-.4-.4-.8-.7-1.2-.9-.4-.2-1.6-.5-1.1-1.4.4-.8,1.2-.4,1.6.1.4.4.7,1,1.1,1.4.4.3.7.5,1.2.7,0,0,0,0,.1-.1.2-1-.4-1.7-.9-2.2-.5-.5-1-.9-1.5-1.2-.3-.2-.9-.4-.4-1.1.1-.2.3-.3.5-.5.4-.4.9-.7,1.4-.6.5.2.9.9,1.2,1.5.3.5.7,1.2,1.1,1.7.2.2.4.3.5,0,0,0,0,0,0-.1,0-2.1-1.3-3.3-2.4-4.2,1.1-1.4,2.6-1.7,4-1.6.5,0,.9,0,1.3.6.3.5.5,1.1.8,1.7.5,1.1.9,2.2,1.4,3.2,0,0,0,0,.1,0,.4-.7.3-1.7.1-2.5-.3-1-.7-2-1.1-2.9,2.2,1,3.7,4,4,7.3-1.6,0-3.2,0-4.8.4-2.4.5-4.8,1.5-6.9,3.1,0,0,0,.1,0,0,2.3-1.3,4.5-2.5,7-3,1.5-.3,3-.4,4.5-.3,0,0,0,0,0,0-.5,2.9-1.9,5.4-3.7,6.8-.2.1-.5.5-.7.5-.4,0-.2-.9-.2-1.3,0-.5.2-1.3,0-1.8,0-.3-.3-.5-.5-.3-.3.2-.3,1-.3,1.4,0,.8-.1,1.6-.2,2.4,0,.8-.2,1.6-.7,2.2-.4.4-.8.6-1.3.7-.3,0-1.3.3-1-.6.2-.7.5-1.3.7-2,.2-.6.3-1.2.4-1.8,0-.5,0-1.8-.5-1.4-.3.2-.4.9-.4,1.3-.1.7-.3,1.4-.5,2.1-.2.7-.6,1.3-1,1.6Z"/>
        <path class="st22" d="M175.6,238.9c.4.4,1.1,0,1.4-.2.5-.4.8-1,1-1.6.2-.7.4-1.4.5-2.1,0-.4.1-1.1.4-1.3.6-.3.6,1,.5,1.4,0,.6-.2,1.3-.4,1.8-.2.7-.5,1.3-.7,2-.3.9.6.7,1,.6.4,0,.9-.3,1.3-.7.5-.5.6-1.3.7-2.2,0-.8.1-1.6.2-2.4,0-.4,0-1.2.3-1.4.2-.2.5,0,.5.3.2.5,0,1.3,0,1.8,0,.4-.3,1.3.2,1.3.2,0,.5-.3.7-.5,1.8-1.4,3.2-3.9,3.7-6.8,0,0,0,0,0,0-1.5,0-3,0-4.5.3-2.4.5-4.7,1.7-7,3,0,0,0,0,0,0,2.1-1.7,4.6-2.6,6.9-3.1,1.6-.3,3.2-.5,4.8-.4-.3-3.3-1.8-6.2-4-7.3.4.9.8,1.9,1.1,2.9.2.8.3,1.8-.1,2.5,0,0-.1,0-.1,0-.5-1.1-.9-2.2-1.4-3.2-.2-.6-.5-1.2-.8-1.7-.4-.5-.8-.6-1.3-.6-1.4,0-2.9.3-4,1.6,1.1.9,2.3,2.1,2.4,4.2,0,0,0,0,0,.1-.2.2-.4,0-.5,0-.4-.4-.7-1.1-1.1-1.7-.3-.6-.7-1.3-1.2-1.5-.5-.1-1,.2-1.4.6-.1.1-.3.3-.5.5-.5.7.1.9.4,1.1.5.3,1,.7,1.5,1.2.5.5,1.1,1.2.9,2.2,0,0,0,.1-.1.1-.4-.1-.8-.3-1.2-.7-.4-.4-.7-.9-1.1-1.4-.5-.5-1.2-.9-1.6-.1-.5,1,.7,1.2,1.1,1.4.4.2.8.5,1.2.9.2.2.4.4.3.8,0,.2-.2.3-.4.3-.4,0-.9-.4-1.4-.6-.4-.2-.8-.4-1.2-.2-.6.2-.8,1.4-.9,2.1-.2.7-.4,1.4-.4,2.1,0,1,.8,1.5,1.2,2,.4.4.9,1.1,1.5,1.1.5,0,1-.7,1.3-1.3.4-.6.7-1.2.9-1.9.1-.4.2-1,.5-1.1.7-.3.2,1.5.1,1.8-.1.6-.3,1.2-.5,1.7-.1.4-1.1,2-.7,2.4ZM176,238.8c0,0,0-.1,0-.1.2,0,.3,0,.4-.2,0,0,0,0,0,0-.1.2-.3.3-.5.3ZM173.6,236.8s0-.1,0,0c.2,0,.5,0,.7-.3,0,0,0,0,0,0-.2.4-.5.5-.7.4ZM173.9,237s0-.1,0-.1c.2,0,.5,0,.6-.3,0,0,0,0,0,0-.2.3-.4.4-.7.4ZM171.9,234c0,0,0,0,0,0,0-.4.1-.8.4-1.1,0,0,0,0,0,0-.2.3-.3.6-.3,1ZM180.4,237.6c0,0,0,0,0,0,0-.2.2-.5.3-.7,0,0,0,0,0,0,0,.2-.2.5-.2.7ZM180.7,237.7s0,0,0,0c.1-.3.2-.6.3-1,0,0,0,0,0,0,0,.4-.1.7-.3,1ZM182.6,235.9s0,0,0,0c.2-.2.5-.4.7-.6,0,0,0,0,0,0-.2.2-.5.4-.7.6ZM176,227.1c0,0,0,.1,0,0-.1-.2-.2-.4-.4-.4,0,0,0,0,0,0,.2,0,.4.2.5.4ZM176.4,227.3s0,0,0,0c-.2-.4-.4-.7-.7-.9,0,0,0,0,0,0,.3.2.5.5.7.9ZM180,228.9s0,0,0,0c.2-.2.4-.3.6-.4,0,0,0,0,0,.1-.2,0-.4.2-.6.4ZM180.5,229s0,0,0,0c.1,0,.3-.2.4-.2,0,0,0,0,0,0-.1,0-.3.2-.4.2ZM181.6,222.7c0,0,0,0,0,0,0-.2-.1-.3-.3-.4,0,0,0-.1,0,0,.2,0,.3.2.3.5ZM182,222.6s0,0,0,0c-.1-.3-.3-.6-.5-.8,0,0,0,0,0,0,.2.2.4.5.5.8ZM186,225.6c0,0,0,0,0,0,0-.3-.1-.7-.3-.9,0,0,0-.1,0,0,.2.3.3.6.3,1ZM186.2,225.2s0,0,0,0c-.2-.4-.3-.7-.4-1.1,0,0,0,0,0,0,.2.4.3.7.4,1.1Z"/>
        <path class="st22" d="M176,238.7c0,0,0,.1,0,.1.2,0,.4,0,.5-.3,0,0,0-.1,0,0-.1.2-.3.2-.4.2Z"/>
        <path class="st22" d="M173.7,236.7s0,0,0,0c.3.2.6,0,.7-.4,0,0,0-.1,0,0-.1.3-.4.4-.7.3Z"/>
        <path class="st22" d="M173.9,236.9s0,.1,0,.1c.3,0,.5,0,.7-.4,0,0,0-.1,0,0-.2.2-.4.3-.6.3Z"/>
        <path d="M171.8,234c0,0,0,0,0,0,0-.4.1-.8.3-1,0,0,0,0,0,0-.2.3-.4.6-.4,1.1Z"/>
        <path class="st22" d="M180.4,237.6c0,0,0,0,0,0,0-.2.2-.5.2-.7,0,0,0,0,0,0,0,.2-.2.5-.3.7Z"/>
        <path class="st22" d="M180.6,237.6c0,0,0,.1,0,0,.2-.3.3-.6.3-1,0,0,0,0,0,0,0,.4-.1.7-.3,1Z"/>
        <path class="st22" d="M182.6,235.9s0,.1,0,0c.2-.2.5-.4.7-.6,0,0,0,0,0,0-.2.2-.5.4-.7.6Z"/>
        <path d="M175.9,227.1c0,0,0,0,0,0,0-.3-.3-.4-.5-.4,0,0,0,0,0,0,.2,0,.3.2.4.4Z"/>
        <path d="M176.4,227.3s0,0,0,0c-.2-.4-.4-.7-.7-.9,0,0,0,0,0,0,.3.2.5.5.7.9Z"/>
        <path class="st22" d="M180.2,228.9s0,.1,0,0c.1-.2.3-.3.4-.5,0,0,0-.1,0,0-.2.1-.3.3-.5.5Z"/>
        <path class="st22" d="M180.5,228.9s0,.1,0,0c.1,0,.3-.1.4-.2,0,0,0,0,0,0-.1,0-.3.1-.4.2Z"/>
        <path class="st22" d="M181.6,222.7c0,0,0,0,0,0,0-.2-.2-.4-.3-.5,0,0,0,0,0,0,.1,0,.2.2.3.4Z"/>
        <path class="st22" d="M181.9,222.7s0,0,0,0c0-.3-.3-.6-.5-.8,0,0,0,0,0,0,.2.2.4.5.5.8Z"/>
        <path d="M185.9,225.6c0,0,0,0,0,0,0-.4-.1-.7-.3-1,0,0,0,0,0,0,.1.3.2.6.3.9Z"/>
        <path d="M186.1,225.3s0,0,0,0c-.1-.4-.3-.7-.4-1.1,0,0,0,0,0,0,.1.4.3.7.4,1.1Z"/>
      </g>
      <g>
        <path class="st6" d="M198.6,229c.8-.7.8-1.9.7-3.2-.3-2-1-3.9-2-5.3,0,0,0-.3,0-.3,2.1.3,2.7,3.4,2.9,5.9.9-2.4.6-5.6-.8-7.4,0-.1,0-.3.1-.3.5.2,1,.5,1.4,1-.3-1.3-.8-2.3-1.6-3-1.2.1-2.5.7-3.6,1.4-2.6,1.8-4.6,5-6.2,8.4,0,.1-.2,0-.2-.1,1.7-3.8,4-7.2,6.9-8.9.9-.6,1.9-.9,2.9-1.1,0,0,0,0,0,0,0-1.1-.2-2-.5-3-.2,1.1-.7,2-1.5,2.3,0,0-.2-.1-.1-.2.7-2,0-4.3-1.3-5.3.5,1.7.3,3.7-.4,5.3,0,.1-.2,0-.2,0,0-1.5,0-3.1-.6-4.4-.6-1.4-1.8-2.1-2.8-1.1-.2.2-.5.6-.6.9-.2.5-.2.9,0,1.4.4.6.8,1.1,1.2,1.8.5,1,.8,2.1.6,3.4,0,.1-.2.2-.2,0-.4-1.2-1-2.6-1.9-3.2-1.2-.8-1.8,1.1-2.2,2.4.8,0,1.6.5,2.3,1.3.3.4,1.1,1.9.2,2.1,0,0,0,0,0,0-.8-1.3-2.1-1.9-3.2-1.3-1.1.6-1.7,2.1-1.8,3.7,1-1.4,2.6-1.6,3.7-.4,0,0,0,.2,0,.2,0,0,0,.2,0,.2-1.8-.2-4.1,1-4,4.2,0,1.2.3,2.4.4,3.5,0,1.1.1,2.3,0,3.4.7-.6,1.4-.8,2.2-1,1-.2,1.9-.5,2.8-1.2,1.9-1.7,2.1-5,1.2-7.7,0,0,0-.1,0-.2.6-1,1.4.9,1.6,1.6.4,1.3.3,2.8.2,4.3,1.7-1.7,2.2-5.1,1-7.5,0-.1,0-.3.1-.2,1,.3,1.8,1.7,1.9,3.2.2,1.6-.2,3.3-.7,4.8.7.2,1.4.2,2-.4ZM198.1,228.8s0,0,0,0c-.2.2-.4.3-.7.3,0,0,0-.1,0-.1.2,0,.4-.2.7-.3ZM198.1,228.4c0,0,0,0,0,.1-.2.1-.4.2-.6.3,0,0,0,0,0-.1.2,0,.4-.2.6-.3ZM200.6,223.8c0,0,0,0,0,0,0-.4-.2-.7-.3-1,0,0,0-.1,0,0,.1.3.2.7.3,1.1ZM200.6,223s0,0,0,0c0-.3,0-.6,0-.8,0,0,0,0,0,0,0,.3,0,.6,0,.8ZM195.5,225.3c.1.3.1.7,0,1,0,0,0,0,0,0,.1-.3.2-.6,0-.9,0,0,0,0,0,0ZM195.1,226.5c0,0,0,0,0,0,0-.3.1-.5.2-.8,0,0,0,0,0,0,0,.2-.2.5-.2.7ZM188.6,231.7s0,0,0,.1c-.3,0-.6,0-1,0,0,0,0-.1,0-.1.3,0,.6,0,1,0ZM188.1,232.1c0,0,0,.1,0,.1-.3,0-.5,0-.8,0,0,0,0-.1,0-.1.2,0,.5,0,.8,0ZM198.8,216.1s0,0,0,.1c-.1,0-.3,0-.4.1,0,0,0,0,0-.1.1,0,.3,0,.4-.1ZM198.6,215.8s0,0,0,0c-.2,0-.4,0-.6.1,0,0,0,0,0,0,.2,0,.4,0,.6-.1ZM194.6,220.1c0,0-.1,0,0,0,0-.2.2-.4.3-.5,0,0,.1,0,0,.1-.1.1-.2.3-.3.4ZM195.1,218.8s0,0,0,0c-.2.1-.4.3-.5.6,0,0,0,0,0,0,.2-.3.3-.5.6-.6ZM192.8,219.9c-.2.2-.3.5-.5.7,0,0,0,0,0,0,.2-.2.3-.5.5-.7,0,0,0,0,0,0ZM196.8,212.3c0,0,0,0,0,0,0-.3-.2-.6-.2-.9,0,0,0,0,0,0,0,.3.2.6.3.9ZM196.3,211.9c0,0,0,.1,0,0,0-.2,0-.5,0-.7,0,0,0,0,0,0,0,.2,0,.5,0,.7ZM188.3,222.7s0,.1,0,.1c-.2,0-.5,0-.7.3,0,0,0,0,0,0,.2-.2.4-.3.7-.3ZM188.1,222.8s0,0,0,.1c-.3.1-.5.3-.8.6,0,0,0,0,0,0,.2-.3.5-.6.8-.7ZM193.1,213.9c0,0,0,.1,0,0,0-.2-.1-.4-.2-.6,0,0,0-.1,0,0,0,.2.1.4.2.6ZM192.8,213.9c0,0,0,0,0,0,0-.3-.2-.5-.3-.7,0,0,0-.1,0,0,.2.2.3.5.4.8ZM190.9,214.8s0,.1,0,0c-.2-.2-.4-.3-.7-.2,0,0,0,0,0,0,.3,0,.5,0,.7.2ZM190.8,214.2s0,.1,0,0c-.2-.1-.5-.1-.7,0,0,0,0,0,0,0,.2-.2.6-.2.8,0Z"/>
        <path class="st22" d="M198.1,228.9s0-.1,0,0c-.2.1-.4.3-.7.3,0,0,0,.1,0,.1.2,0,.5-.1.7-.3Z"/>
        <path class="st22" d="M198.2,228.5c0,0,0-.1,0-.1-.2,0-.4.2-.6.3,0,0,0,.1,0,.1.2,0,.4-.2.6-.3Z"/>
        <path d="M200.6,223.9c0,0,0,0,0,0,0-.4-.2-.7-.3-1.1,0,0,0,0,0,0,.1.3.2.7.3,1Z"/>
        <path d="M200.6,223s0,0,0,0c0-.3,0-.6,0-.8,0,0,0,0,0,0,0,.3,0,.6,0,.8Z"/>
        <path class="st22" d="M195.5,226.3c.2-.3.2-.7,0-1,0,0,0,0,0,0,.1.3,0,.6,0,.9,0,0,0,.1,0,0Z"/>
        <path class="st22" d="M195.1,226.5c0,0,0,0,0,0,0-.3.1-.5.2-.7,0,0,0,0,0,0-.1.2-.2.5-.2.8Z"/>
        <path class="st22" d="M188.6,231.8s0-.1,0-.1c-.3,0-.6,0-1,0,0,0,0,.1,0,.1.3,0,.6,0,1,0Z"/>
        <path class="st22" d="M188.1,232.3c0,0,0-.1,0-.1-.2,0-.5,0-.8,0,0,0,0,0,0,.1.2,0,.5,0,.8,0Z"/>
        <path d="M198.8,216.2s0-.1,0-.1c-.1,0-.3,0-.4.1,0,0,0,.1,0,.1.1,0,.3,0,.4-.1Z"/>
        <path d="M198.6,215.9s0,0,0,0c-.2,0-.4,0-.6.1,0,0,0,0,0,0,.2,0,.4,0,.6-.1Z"/>
        <path d="M194.5,220c0,0,0,.2,0,0,0-.2.2-.3.3-.4,0,0,0-.2,0-.1-.2.1-.3.3-.3.5Z"/>
        <path d="M195.2,218.9s0-.1,0,0c-.2.1-.4.3-.6.6,0,0,0,.1,0,0,.2-.2.3-.4.5-.6Z"/>
        <path d="M192.4,220.6c.2-.2.3-.4.5-.7,0,0,0-.1,0,0-.2.2-.3.5-.5.7,0,0,0,0,0,0Z"/>
        <path d="M196.7,212.3c0,0,0,0,0,0,0-.3-.2-.6-.3-.9,0,0,0,0,0,0,0,.3.2.6.2.9Z"/>
        <path d="M196.3,211.9c0,0,0,0,0,0,0-.2,0-.5,0-.7,0,0,0,0,0,0,0,.2,0,.5,0,.7Z"/>
        <path d="M188.3,222.8s0-.1,0-.1c-.3,0-.5,0-.7.3,0,0,0,.1,0,0,.2-.2.4-.3.7-.3Z"/>
        <path class="st22" d="M188.1,222.9s0-.1,0-.1c-.3.1-.6.3-.8.7,0,0,0,.1,0,0,.2-.3.5-.5.8-.6Z"/>
        <path d="M193,213.9c0,0,0,0,0,0,0-.2-.1-.4-.2-.6,0,0,0,0,0,0,0,.2.1.4.2.6Z"/>
        <path d="M192.7,214s0,0,0,0c0-.3-.2-.6-.4-.8,0,0,0,0,0,0,.2.2.3.5.3.7Z"/>
        <path d="M190.9,214.8s0,0,0,0c-.2-.2-.5-.3-.7-.2,0,0,0,0,0,0,.3,0,.5,0,.7.2Z"/>
        <path d="M190.7,214.3s0,0,0,0c-.2-.2-.5-.2-.8,0,0,0,0,.1,0,0,.2-.1.5-.1.7,0Z"/>
      </g>
      <g>
        <path class="st23" d="M152.5,191.9c-.3-.7-.9-.9-1.5-.7-.7.2-1.1.9-1.5,1.6.5-.3,1-.4,1.4,0,.5.4.5,1.3.4,2-.1.9-.3,1.7.4,2.3.3.2.6.4.9.8.3.6.4,1.4.2,2.1.1,0,.2,0,.3,0,0,0,0,0,0,0,.4-.7.5-1.5.2-2.3-.2-.5-.5-.8-.7-1.3-.3-.7-.4-1.6-.3-2.4.1-.7.4-1.3,0-1.9ZM151.1,191.4c.3,0,.5,0,.8.3,0,0,0,.1,0,.1-.2-.2-.5-.3-.7-.2,0,0,0,0,0-.1ZM151.4,191.7c.2,0,.5.2.7.4,0,0,0,.1,0,.1-.2-.2-.4-.3-.7-.5,0,0,0,0,0,0Z"/>
        <path class="st23" d="M149.1,192c.2-1.6-.6-2.5-1.6-2.2-.6.2-1,.8-1.7.6-.3,0-.6-.2-.8-.5-.3-.2-.8-.9-1.2-.7-.4.1-.6.7-.7,1.2,0,.3,0,.6-.1.9,0,.4,0,.8,0,1.1.2-.6.5-1.1,1-.9.4.1.5.6.8.9.3.4.7.4,1.1,0,.1-.2.3-.4.4-.6.5-.6,1.2-1.2,1.8-.8.5.3.8,1,.8,1.7,0-.3.1-.5.2-.8ZM148.2,190.1c.2,0,.4.2.6.4,0,0,0,.1,0,.1-.2-.1-.3-.3-.6-.4,0,0,0-.1,0,0Z"/>
        <path class="st31" d="M156.6,197.4c0-.2-.2-.5-.3-.3-.1.2-.1.5-.1.8,0,.2,0,.5,0,.7,0,0,.1-.1.2-.2,0,0,0,0,0,0,0-.2.1-.4.2-.6,0-.1,0-.3,0-.4Z"/>
        <path class="st31" d="M157.6,198.6c-.1-.3-.4-.1-.6,0,0,0-.2.2-.2.3.1,0,.3.1.4.1.1,0,.6,0,.5-.4Z"/>
        <path class="st31" d="M155.8,197.7c-.2-.2-.3.4-.3.6,0,.2,0,.5,0,.7,0,0,0,0,.1,0,0-.4.4-.9.1-1.2Z"/>
        <path class="st19" d="M151.2,194.1c0-1.6-1.2-1.4-1.9-1,0,.2-.2.3-.3.5h0c-.2.5-.3,1.1-.5,1.5-.4,1.3-.9,2.6-1.3,3.8.5-.3,1-.7,1.4-1.2,0,0,.1,0,0,.1-.5.6-1,1-1.5,1.3h0c1.1,0,2.4-.2,3.4-1,0,0,.1,0,0,.1-1,.8-2.1,1.1-3.2,1,0,0,0,0,0,0,1.7.5,3.4.7,5.2.5,0,0,0,0,.1,0,.1-.6.1-1.2,0-1.8-.2-.5-.6-.7-.9-.9-.3-.2-.6-.6-.6-1.1,0-.7.2-1.3.2-2ZM150.8,195.8s0,0,0,0c-.1.2-.1.6,0,.8,0,0,0,.1,0,0-.2-.2-.2-.7,0-.9Z"/>
        <path class="st19" d="M148.8,193.2c0-1.4-.7-2.3-1.7-1.7-.3.2-.6.5-.9.8-.2.2-.3.5-.5.7-.3.3-.5.2-.8,0-.2-.2-.3-.5-.5-.8,0-.1-.2-.3-.3-.4-.6-.4-.8.3-1,.9,0,0,0,.2,0,.3.3,2.2,1.4,3.9,2.4,5.5.3.3.7.6,1,.9-.3-.9-.4-1.9-.5-2.9,0,0,0,0,0,0,0,1,.2,2,.5,3,0,0,0,0,0,0,0,0,0,0,0,0,0,0,0,0,0-.1,0-1.4,0-2.9.4-4.3,0,0,.1,0,.1,0-.2,1.3-.4,2.7-.4,4.1.4-1.1.9-2.3,1.2-3.5.3-.8.5-1.6.8-2.5,0,0,0,0,0,0ZM143.8,193.4c0,0,0,0,0,0,0,.3,0,.6.1.8,0,0,0,.1,0,0-.1-.3-.2-.6-.1-.9ZM143.6,193.7c0,0,0,0,0,0,0,.4.1.8.3,1.1,0,0,0,.1,0,0-.2-.3-.3-.7-.3-1.1Z"/>
        <path class="st31" d="M156.8,199.7c0-.1,0-.4,0-.5-.2,0-.4.2-.6.1,0,0,0,0-.1.1.1.2.3.4.5.4.1,0,.3,0,.3-.2Z"/>
        <path class="st0" d="M155.5,199.4c.2-.1.4-.3.6-.5-1,.7-2.1,1-3.2,1.2,0,0-.1,0-.2,0,0,0,0,0-.1,0-1.9.3-3.9.2-5.6-.7,0,0,0,0,0,0,0,0,0,0,0,0,0,0-.1,0-.2,0,0,0,0,.1,0,.2,0,0,0,0,0,0,0,0,0,0,0,0,0,0,0,0,0,.1,0,0,0,0,0,0,0,0,0,0,0,0,1.9,1.2,4,1.2,6,.6,1-.3,1.9-.7,2.8-1.3Z"/>
        <path class="st19" d="M150.9,195.9c0,0,0-.1,0,0-.2.3-.1.7,0,.9,0,0,0,0,0,0-.1-.2-.1-.5,0-.8Z"/>
        <path class="st19" d="M153.4,200.8s0,0,0,0c-.2,0-.5.2-.7.2-1.9.5-3.8.5-5.7-.5.5.7,1,1.2,1.6,1.5,0,0,0,.2,0,.2-.4-.2-.8-.4-1.1-.7.8,1.1,1.7,2.1,2.6,2.9,0,0,0,.2,0,.2-1.3-1.1-2.5-2.4-3.4-4.1.4,1.4.9,2.8,1.5,4.1.4.8.9,1.7,1.4,2.4.7.9,1.9,1.9,2.3.2.2-.8-.1-1.8.3-2.6.4-.8,1-.1,1.5-.6,1-.8.2-2.4-.3-3.2ZM153.4,201.6c0,0,0-.1,0,0,.2.2.3.5.2.8,0,0,0,0,0,0,0-.3-.1-.5-.2-.7ZM153.1,201.9c0,0,0-.2,0-.1.1.1.2.3.2.5,0,0,0,.1,0,0,0-.2-.1-.3-.2-.4ZM148,203.6c0,0,0-.1,0,0,.1.3.2.6.4.9,0,0,0,.1,0,0-.2-.2-.4-.6-.4-.9ZM148.4,203.9c0,0,0-.1,0,0,.1.3.3.6.5.8,0,0,0,.1,0,0-.2-.2-.3-.5-.5-.9Z"/>
        <path class="st23" d="M154.8,203.3c0-.9-.5-1.7-1-2.2.4.6.7,1.4.5,2.3-.1.4-.4.8-.7,1-.5.3-1.2-.2-1.4.7-.2,1,.2,2.9-.9,3.1-.2,0-.5,0-.7-.2.2.2.4.3.5.4.8.4,1.5,0,1.9-1.1.2-.7.4-1.3.8-1.7.6-.6,1-1.2,1-2.4ZM154,204.7c0,0,.1,0,0,.1-.2.3-.5.6-.8.7,0,0-.1-.2,0-.2.3-.1.5-.3.7-.6ZM153.8,205.5s0,.1,0,.1c-.2,0-.4.1-.6.4,0,0-.1,0,0,0,.2-.2.4-.4.6-.4Z"/>
        <path class="st19" d="M143.9,193.5c0,0,0-.1,0,0,0,.3,0,.6.1.9,0,0,0,0,0,0-.1-.3-.1-.5-.1-.8Z"/>
        <path class="st23" d="M153.5,201.6s0,0,0,0c.1.2.2.4.2.7,0,0,0,0,0,0,0-.3,0-.6-.2-.8Z"/>
        <path class="st19" d="M143.6,193.7c0,0,0,0,0,0,0,.4.1.8.3,1.1,0,0,.1,0,0,0-.1-.3-.2-.7-.3-1.1Z"/>
        <path class="st23" d="M153.2,201.8c0,0-.1,0,0,.1,0,.1.2.3.2.4,0,0,.1,0,0,0,0-.2-.1-.4-.2-.5Z"/>
        <path class="st23" d="M154.1,204.8c0,0,0-.2,0-.1-.2.3-.5.5-.7.6,0,0,0,.2,0,.2.3-.1.6-.3.8-.7Z"/>
        <path class="st23" d="M153.8,205.7s0-.1,0-.1c-.2,0-.5.1-.6.4,0,0,0,.1,0,0,.2-.2.4-.3.6-.4Z"/>
        <path class="st19" d="M146.4,199.8c-1.3-1.2-2.6-2.5-4.1-3.2-.2-.1-.5-.2-.8-.3,0,0,0,0,0,0-.7,0-.8,1.1-.6,1.8,0,.5.3.9.5,1.3.2.4.4.8.4,1.3,0,.5-.2.9-.4,1.3-.3.5-.7,1.1-.4,1.8,0,0,.5.6.8.8,1.2,0,2.3-.8,3.3-1.6.4-.8.8-1.6,1.2-2.4-.6.7-1.4,1.2-2.1,1.3,0,0,0-.2,0-.2,1-.2,1.8-.8,2.5-1.7,0,0,0,0,0,0,0,0,0,0,0,0,0,0,0,0,0,0,0,0,0,0,0,0-.9.3-1.8,0-2.7-.6,0,0,0-.2,0-.1.8.6,1.6.8,2.5.7ZM142.7,204.1c0,0,0,.1,0,.1-.3.1-.7,0-.9-.3,0,0,0-.2,0-.1.3.2.6.3.9.2ZM142,204.3s0,.1,0,.1c-.3,0-.5-.3-.7-.6,0,0,0-.1,0,0,.2.3.4.4.6.5Z"/>
        <path class="st19" d="M146.6,200.7s0,0,0,0c-.5,1.2-1,2.5-.8,4,0,.1,0,.2-.1,0-.2-1.5.3-2.9.9-4.2-.4.8-.8,1.6-1.2,2.3,0,0,0,0,0,.1,0,0-.1,0-.2.1-.6,1.2-1.2,2.4-1.8,3.7-.1.2-.2.5-.3.8,0,.6.2,1.2.6,1.4.3.1.6,0,.9,0,.4,0,.7,0,1,.4.4.5.7,1.3,1.1,1.7.4.4,1,.3,1.3-.3.3-.4.4-1,.4-1.6,0,0,0,0,0,0,0,0,0,0,0-.1,0,0,0,0,0-.1,0,0,0,0,0,0,0-.1,0-.3,0-.4,0-.3,0-.6,0-.9-.1-1.2-.4-2.3-.7-3.4-.4-1-.8-2-1.1-3.1-.1,1,0,1.9.2,2.9,0,0,0,.2-.1,0-.3-1-.4-2.1-.2-3.2ZM147.8,205.5c0,0,0-.1,0,0,.1.3.1.7,0,1.1,0,.1-.1,0-.1,0,0-.3,0-.7,0-1ZM148.1,206.2c0,0,0-.1,0,0,0,.3,0,.7,0,1,0,0,0,0,0,0,0-.3,0-.6,0-.9Z"/>
        <path class="st23" d="M141,196.2c-.4,0-.9,0-1.1.5-.5.8,0,2,0,2.8,0,.9-.2,1.6-.4,2.4-.1.7-.2,1.3.2,1.8.3.4.7.6,1.1.7.2,0,.4,0,.5,0-.2-.1-.4-.3-.5-.4-.6-.8-.1-1.6.3-2.3.3-.5.4-1,.3-1.6,0-.4-.3-.7-.5-1-.2-.4-.4-.8-.4-1.3,0-.6,0-1.6.5-1.8ZM140.1,196.7s0,0,0,0c-.1.2-.2.4-.3.7,0,0,0,0,0,0,0-.3.2-.5.3-.7Z"/>
        <path class="st23" d="M140.1,196.8s0-.1,0,0c-.2.2-.3.5-.3.7,0,0,0,0,0,0,0-.3.2-.5.3-.7Z"/>
        <path class="st23" d="M148.1,203.5c0,0,0,0,0,0,0,.4.2.7.4.9,0,0,0,0,0,0-.2-.3-.3-.6-.4-.9Z"/>
        <path class="st23" d="M148.5,203.8c0,0,0,0,0,0,.1.3.3.6.5.9,0,0,.1,0,0,0-.2-.2-.3-.5-.5-.8Z"/>
        <path class="st23" d="M147.9,205.4c0,0-.1,0,0,0,0,.3.1.6,0,1,0,.1,0,.1.1,0,0-.4,0-.7,0-1.1Z"/>
        <path class="st23" d="M148.2,206.2c0,0-.1,0,0,0,0,.3,0,.6,0,.9,0,0,0,.1,0,0,0-.3.1-.7,0-1Z"/>
        <path class="st23" d="M148.6,208.9s0,0,0,.1c0,.9-.2,1.9-.8,2.4-.7.5-1.3-.3-1.7-1-.4-.6-.7-1.2-1.3-1.2-.4,0-.8.2-1.2,0-.3-.2-.5-.7-.6-1.2-.3.7-.4,1.6-.2,2.3.4.9,1.3.6,1.9.5.4,0,.9,0,1.2.3.3.3.4.9.8,1.2.5.4,1.1,0,1.4-.5.5-.7.5-1.8.5-2.8ZM143,209.1c0,0,0,0,0,0,0,.3.1.6.3.8,0,0,0,.1,0,0-.2-.2-.3-.5-.3-.9ZM142.9,209.6c0,0,0-.1.1,0,0,.3.2.6.4.8,0,0,0,.1,0,.1-.2-.1-.5-.5-.5-.9Z"/>
      </g>
      <g>
        <path class="st31" d="M139.6,174.3s0,0,0,0c0,0,0,.2,0,.2-.2,0-.5-.1-.6-.3,0,0,.1,0,.2,0,.1.1.3.1.5.2Z"/>
        <path class="st19" d="M138.3,194.4c.2.6.7.9,1.1,1,1,.1,1.7-1,2-2.2,0-.3,0-.6,0-.9,0,0-.1,0-.2,0-.3,0-.6-.2-.7-.5-.4-.7-.4-1.7,0-2.4-.5.4-1.3.6-1.6-.1-.3-.7,0-1.5.4-2.1-.9.4-1.7.6-2.5.5-.8.9-1.1,2.4-.2,3.5.4.6,1.2.7,1.5,1.5.2.5.1,1.2.3,1.7ZM136.8,190.8c0,0,0,.2,0,0-.2-.3-.3-.6-.3-1,0,0,0-.1,0,0,0,.3.2.6.3.9Z"/>
        <path class="st19" d="M142.3,196.5c.7.9,1.6.4,2.2-.3.4-.5.8-1,1.3-1.1.6,0,1.3.3,1.9-.2.7-.6.8-1.9.6-3-.2-1.1-.8-1.9-1.4-2.7,0,0,0,0,0,0-.2-.2-.5-.3-.7-.5.3.7.3,1.6-.3,1.8-.4.2-.7-.2-1-.6.1,1,0,2.2-.5,2.7-.8.7-1.3-.3-1.5-1.4-.2.6-.6,1-1.2.9,0,.3,0,.6,0,1,0,1.1,0,2.6.5,3.4ZM142.7,196.4c-.2,0-.4-.4-.4-.7,0,0,0,0,0,0,0,.3.1.6.3.6,0,0,0,0,0,0ZM147.8,192.3c0,0,0,0,0,0,0-.4,0-.8,0-1.1,0,0,0-.1,0,0,.2.4.2.8,0,1.2ZM148.1,192c0,0,0,0,0,0,0-.4-.1-.7-.2-1.1,0,0,0,0,0,0,0,.4.1.7.2,1.1Z"/>
        <path class="st9" d="M140.8,191.8c.2.3.6.4.7-.1.2-2,.7-4,1.3-5.6,0,0,0,0,0,0-.2-.2-.4-.4-.5-.6-.7.6-1.7,1.2-2.7,1.7-.3.4-.8,1.3-.6,2,.3.9,1.2.3,1.6,0,.1-.1.2.1.1.3,0,0,0,0,0,0,0,0,0,0,0,.1-.3.5-.4,1.2-.3,1.8,0,.2.2.5.3.6ZM139.6,188.9c0,0,0,0,0,0,0-.4,0-.8.2-1.1,0,0,0,0,0,0-.2.3-.3.6-.2,1ZM139.4,188.4c0,0,0,0,0,0,0-.3.1-.6.3-.8,0,0,0,0,0,0-.1.2-.2.4-.2.7Z"/>
        <path class="st9" d="M143.3,191.8c.4.9,1.1.9,1.4-.1.2-.7.2-1.6,0-2.4-.1-.3-.2-.5-.2-.7,0-.1.1-.2.2,0,.3.5.4,1.2.8,1.6.3.3.7.2.8-.4,0-.4,0-.8-.2-1.2,0,0,0,0,0,0-.9-.7-1.7-1.4-2.5-2.3,0,0,0,0,0,0-.1,0-.3,0-.4,0-.6,1.8-1,3.7-1.2,5.7.5,0,.9-.5,1-1.2,0-.2,0-.3,0-.4,0,0,0-.1,0-.1,0-.1.1-.2.2,0,0,0,0,0,0,0,0,0,0,0,0,0,0,0,0,0,0,0,0,0,0,0,0,0,0,.5,0,1,.2,1.4Z"/>
        <path class="st19" d="M134.6,183.3c-.5,2.2.9,3.6,2.2,4,0,0,0,0,0,0,0,0,.1,0,.1,0,.2,0,.4,0,.5,0,.5,0,1.1-.2,1.6-.4-.3-.1-.5-.5-.6-.9-.1-.7.2-1.2.6-1.5-.6-.3-1.4-.9-1.3-1.9.2-1.1.9-1.1,1.5-.9-.3-.7-.7-1.9,0-2.3.4-.3.7,0,1,.5,0-.3-.2-.7-.2-1.1-.4-.9-1-1.7-1.7-2.2-.7-.4-1.7-.5-2.1.5-.5.9-.2,2.3-.6,3.3-.3,1-.9,1.7-1.1,2.7ZM139.6,178.4c0,0,0,.1,0,0-.2-.2-.4-.4-.6-.5,0,0,0-.2,0-.1.2.1.4.3.6.6ZM139.8,178.5s0,.1,0,0c-.2-.3-.5-.5-.7-.8,0,0,0-.2,0-.1.2.3.5.6.7.9Z"/>
        <path class="st9" d="M138.9,185.9c0,.6.3.9.7.8,0,0,0,0,.1,0,.8-.4,1.7-1,2.4-1.6-.2-.3-.3-.6-.4-.9-.3-.7-.6-1.5-.8-2.3-.1-.4-.2-.8-.3-1.3,0-.2-.2-.3-.3-.5-.3-.4-.3-.4-.7,0-.4.4-.3.5-.2,1,0,.3.2.5.3.8,0,.1,0,.3-.1.3-.2,0-.5-.2-.7-.2-.5,0-1.1.5-.6,1.4.2.5.8.8,1.2.9.1,0,.1.3,0,.4-.4.2-.7.5-.7,1.2Z"/>
        <path class="st19" d="M146.6,188.5c.3.2.6.4.9.6.6.3,1.3.7,1.8.1.7-.7.7-2,.4-3-.2-.6-.4-1.2-.3-1.9,0-.8.5-1.5.5-2.3,0-1.3-1-1.9-1.8-2-.7,0-1.4.3-2.1.8-.2.3-.3.6-.5.8.4-.2.9-.3,1,.2,0,.3,0,.7-.2.9-.2.2-.4.5-.6.7.8-.2,2.3-.1,2.2,1.4,0,1.3-1.2,1.6-2,1.5.4.3.8.9.8,1.5,0,.2-.1.4-.3.6ZM148.5,189.2s0-.1,0-.1c.2,0,.5,0,.7-.2,0,0,0,0,0,.1-.2.1-.5.2-.7.2ZM148.5,188.9s0,0,0,0c.2,0,.3-.1.5-.2,0,0,0,0,0,0-.2,0-.3.1-.5.2ZM146.6,182.8s0,0,0-.1c.2,0,.3-.2.4-.5,0,0,0,0,0,0,0,.3-.2.6-.4.6Z"/>
        <path class="st9" d="M146.3,188.2c.3.3.4-.2.4-.5,0-.2-.1-.4-.2-.5-.2-.4-.5-.6-.8-.8,0,0,0,0,0,0,0,0,0,0,0,0-.1,0,0-.4,0-.3.7.2,1.9.3,2.2-1,.3-1.5-1.5-1.4-2.1-1.2,0,0,0,0,0,0,0,0,0,0-.1,0,0,0-.2-.1-.1-.2.3-.5.7-.7,1-1.2.2-.4,0-.7-.4-.6-.1,0-.2,0-.3,0-.1,0-.2,0-.3.1-.6.7-1.2,1.3-1.9,1.7.3.4.6.9.6,1.4,0,.4,0,.8-.3,1,.8.8,1.6,1.6,2.4,2.2,0,0,0,0,.1,0Z"/>
        <path class="st26" d="M139.8,173.4c0,.1,0,.3,0,.5,0,0,0,0,0,0,0-.2,0-.3,0-.5Z"/>
        <path class="st26" d="M142.9,185.1s0,0,0,0c0,0,0,0,0,0Z"/>
        <path class="st0" d="M139.9,173.8c.1,1.7.4,3.4.8,4.9.3,1.1.7,2.1,1.2,3,.3.5.6.9.9,1.4.3.4.9,1,1.1,1.7,0,0,0,0,0,0,0,.5,0,.8-.3,1-.3.2-.5,0-.8-.2-.3-.3-.4-.7-.6-1.1-.3-.6-.5-1.1-.7-1.7-.4-1.1-.7-2.2-1-3.4-.4-1.8-.6-3.7-.6-5.6,0,0,0,0,0,0ZM142.9,185.1s0,0,0,0c0,0,0,0,0,.1.2.2.4.2.6,0,0,0,0-.1,0,0-.2,0-.3,0-.5,0,.1,0,.2,0,.3,0,0,0,0-.1,0-.1-.2,0-.4-.1-.5-.4,0,0-.1,0,0,0,0,.1.2.2.3.3Z"/>
        <path class="st51" d="M142.7,184.8c.1.3.4.4.6.4,0,0,0-.1,0-.1-.2,0-.4-.1-.5-.4,0,0-.1,0,0,0Z"/>
        <path class="st9" d="M142.7,182.6c.1.2.4.4.6.7.3-.2.5-.4.8-.6.3-.5.6-1.1.8-1.7.1-.3.5-1.4-.3-1.2-.2,0-.5.7-.7.8,0,.1-.2,0-.2-.2.2-.5.1-1.3,0-1.8-.3-.9-.9-1.1-1.4-.5-.7.7-.8,2-.5,3.1.3.5.6.9.9,1.4Z"/>
        <path class="st19" d="M140.5,176.5c.2-.8.5-1.4,1-1.7.6-.4,1.1-.1,1.6.2.4.2.8.4,1.3.4.5,0,1.1,0,1.6.3,1.3,1,.8,3.5,0,4.8-.4.7-.9,1.3-1.4,1.8.4-.7.9-1.7.6-2.4-.3-.8-.8-.3-1.2.3.1-1.3-.4-2.9-1.4-2.5-.9.3-1.3,1.8-1.2,3-.2-.4-.3-.8-.5-1.3-.3-.9-.5-1.8-.6-2.8,0,0,0,0,.1,0ZM146,180.4c.2-.3.2-.6.2-1,0,0,0,0,0,0,0,.3,0,.7-.2.9,0,0,0,.1,0,0ZM145.7,180.4c0-.3,0-.6,0-.9,0,0,0,0,0,0,0,.3,0,.6,0,.9,0,0,0,0,0,0Z"/>
        <path class="st31" d="M139,173.7c0-.2.1-.2.3-.1.1,0,.3.3.4.3-.2,0-.3.2-.5.2-.1,0-.2-.2-.1-.4Z"/>
        <path class="st31" d="M139.6,173.9s0,0,0,0c0,.1,0,.3,0,.4h0s0,0,0,0c-.1,0-.3,0-.5-.2.2,0,.3-.1.5-.2Z"/>
        <path class="st31" d="M140.5,174.2c.1,0,.4,0,.4.3,0,.2-.2.3-.3.3-.2,0-.3-.2-.4-.3,0,0,0,0,0,0,0,0,0-.2,0-.3.1,0,.3,0,.4,0Z"/>
        <path class="st31" d="M141,172.9s0,0,0,.2c0,.4-.2.6-.4.6-.2,0-.3,0-.5,0,.3-.2.6-.4.9-.7Z"/>
        <path class="st31" d="M140.1,173.6c0-.2,0-.4,0-.6.3,0,.8-.4.9,0-.3.3-.6.5-.9.7,0,0,0,0,0,0Z"/>
        <path class="st51" d="M142.8,185.1c.3.3.6.3.7,0,0,0,0-.2,0-.2-.2.2-.4.1-.7-.1,0,0,0,.1,0,.2Z"/>
      </g>
      <g>
        <path class="st18" d="M161.2,228.8c2.6-.2,4.1-3.7,4.5-7.1.7.2,1.5.4,2.2.6-1.4,1-1.9,3.1-2.3,5.1,0,0,0,.2,0,.2,1.5-.3,2.1-3.3,2.4-5.2.4.2.8.3,1.2.5,1.4.7,2.6,1.7,3.7,3,0,0,.2,0,0-.2-1.3-2-3.1-3.1-5-3.8.5-2.3-1.1-4.1-1.8-5.9,0-.1-.2,0-.2,0,0,2,.5,4.1,1.4,5.6-.6-.2-1.1-.3-1.7-.5.2-1.5-.4-2.8-1.1-3.9-.5-.7-1-1.2-1.4-1.9-.5-.7-.9-1.5-1.2-2.3,0-.1-.2,0-.2,0,.3,3.3,1.8,6,3.6,7.9,0,0,0,0,0,0,0,0,0,0,0,0-.8-.2-1.6-.3-2.4-.5,0,0,0,0,0,0,0,0,0,0,0,0-.3-1.1-.7-2.1-1.1-3.2-.3-1-.7-2-1.1-3-.9-1.8-2.2-2.9-3.3-4.4,0-.1-.2,0-.2.2.7,4.4,2.7,8.2,5.3,10.4-.7-.1-1.3-.2-2-.3-.5,0-1-.2-1.5-.2.2-1.8-.7-3.3-1.6-4.5-1.2-1.5-2.2-3.1-3.1-5.1,0-.1-.2,0-.2,0,.1,1.9.6,3.7,1.3,5.2.8,1.6,2,2.9,3.1,4.2-.9-.1-1.8-.3-2.6-.8h0c.8.6,1.6.8,2.4,1-2.6.5-5,1.6-7.4,3.3,0,0,0,.3,0,.3,1.8,0,3.6,0,5.3-.7.7-.3,1.4-.6,1.9-1.2.2-.3.9-.9.8-1.4,0,0,0,0,0,0,0,0,0,0,0,0,.3,0,.6,0,.9.1.7.1,1.4.3,2.2.4-2.8,1.3-4.2,6.5-7.3,6.8-.1,0-.1.2,0,.3,3.4.9,6.5-2.5,7.8-7,.7.1,1.4.3,2.1.4.1,0,.2,0,.4,0-.8.9-1.6,1.8-2.2,3.1-.6,1.4-1.1,2.9-2,3.9,0,0,0,.3,0,.3ZM162.6,221.1c-1.2,4-3.9,7.1-6.9,6.8,2.8-.9,4.2-5.6,6.9-6.8ZM161.5,228.4c.6-.8,1.1-1.9,1.5-3,.7-1.6,1.5-2.7,2.5-3.8-.4,3.1-1.7,6.4-4,6.8ZM167.9,222.5c-.3,1.7-.8,4.3-2.1,4.7.4-1.9.9-3.7,2.1-4.7ZM155.6,223.1c-1.3.3-2.7.5-4,.4,2.4-1.7,4.9-2.7,7.5-3.1.1.7-1.4,1.7-1.6,1.9-.6.4-1.2.6-1.9.7ZM168,221.9s0,0,0,0c-.9-1.5-1.5-3.2-1.6-5.2.8,1.6,1.9,3.2,1.6,5.3ZM164.1,216.8c.9,1.1,1.8,2.5,1.7,4.3-1.7-1.7-3.1-4.2-3.5-7.2.5,1.1,1.1,2,1.8,2.8ZM159.1,220.1s0,0,0,0c-1-1.3-2.2-2.6-3.1-4.1-.7-1.3-1.2-2.9-1.4-4.6.6,1.4,1.4,2.7,2.2,3.8,1,1.3,2.3,2.7,2.2,5ZM160.7,214.8c.8,1.8,1.4,3.8,2.2,5.7-2.6-2.1-4.5-5.7-5.2-9.8,1,1.4,2.3,2.4,3.1,4.1Z"/>
        <path class="st39" d="M155.7,227.9c3,.3,5.7-2.8,6.9-6.8-2.7,1.2-4.1,5.9-6.9,6.8ZM160.9,224.6s0,0,0,0c.2-.2.3-.5.4-.9,0,0,0,0,0,0,0,.4-.2.7-.4.9ZM160.5,224.5s0,0,0,0c.2-.2.3-.4.4-.7,0,0,0,0,0,0-.1.3-.3.5-.4.7Z"/>
        <path class="st39" d="M163,225.4c-.4,1.1-.8,2.2-1.5,3,2.3-.4,3.6-3.7,4-6.8-1,1.1-1.8,2.3-2.5,3.8ZM163.1,226.4s0,0,0,0c.1-.3.3-.6.5-.8,0,0,0,0,0,0-.2.3-.3.6-.5.8ZM163.2,225.7s0,0,0,0c0-.3.2-.5.3-.7,0,0,0,0,0,0-.1.2-.2.4-.3.6Z"/>
        <path d="M163,226.3s0,.1,0,0c.2-.3.3-.5.5-.8,0,0,0-.1,0,0-.2.3-.3.5-.5.8Z"/>
        <path d="M163.1,225.7s0,0,0,0c0-.2.2-.5.3-.6,0,0,0,0,0,0-.2.2-.3.4-.3.7Z"/>
        <path class="st39" d="M165.8,227.2c1.3-.4,1.8-3,2.1-4.7-1.2,1-1.7,2.9-2.1,4.7ZM167,225.3s0,0,0,0c0-.2.2-.4.2-.7,0,0,0,0,0,0,0,.2-.1.5-.2.7ZM166.8,225.4s0,0,0,0c0-.2.1-.3.2-.5,0,0,0,0,0,0,0,.2-.1.3-.2.5Z"/>
        <path d="M166.9,225.3s0,0,0,0c0-.2.2-.4.2-.7,0,0,0,0,0,0,0,.2-.2.4-.2.7Z"/>
        <path d="M166.7,225.3s0,0,0,0c0-.2.1-.3.2-.5,0,0,0,0,0,0,0,.2-.1.3-.2.5Z"/>
        <path d="M160.8,224.5s0,.1,0,0c.2-.2.3-.5.4-.9,0,0,0,0,0,0,0,.3-.2.6-.4.9Z"/>
        <path d="M160.5,224.4s0,.1,0,0c.2-.2.3-.4.4-.7,0,0,0-.1,0,0-.1.3-.3.5-.4.7Z"/>
        <path class="st18" d="M151.6,223.5c1.3,0,2.7,0,4-.4.6-.2,1.3-.4,1.9-.7.3-.2,1.8-1.2,1.6-1.9-2.6.4-5.2,1.4-7.5,3.1ZM156.5,222.4s0,0,0,0c.2-.1.4-.2.6-.3,0,0,0,0,0,0-.2,0-.4.2-.6.3ZM156.1,222.4s0,0,0,0c.2-.1.4-.2.5-.3,0,0,0,0,0,0-.2.1-.3.2-.5.3Z"/>
        <path class="st39" d="M168,221.9s0,0,0,0c.3-2.1-.9-3.7-1.6-5.3,0,2,.7,3.7,1.6,5.2Z"/>
        <path class="st18" d="M156.5,222.3s0,.1,0,0c.2,0,.4-.2.6-.3,0,0,0,0,0,0-.2,0-.4.2-.6.3Z"/>
        <path class="st18" d="M156.1,222.3s0,.1,0,0c.2,0,.4-.2.5-.3,0,0,0-.1,0,0-.2.1-.4.2-.5.3Z"/>
        <path class="st39" d="M165.8,221.1c0-1.8-.8-3.2-1.7-4.3-.7-.9-1.3-1.8-1.8-2.8.4,3,1.9,5.4,3.5,7.2ZM165.2,219.5c0,0,0,.1,0,0-.1-.3-.2-.7-.3-1,0,0,0,0,0,0,.1.3.2.7.3,1ZM165.3,218.9c0,0,0,0,0,0,0-.3-.2-.6-.4-.7,0,0,0,0,0,0,.2.1.4.4.4.8Z"/>
        <path class="st18" d="M159.1,220.1s0,0,0,0c.1-2.2-1.2-3.6-2.2-5-.9-1.1-1.6-2.4-2.2-3.8.2,1.7.6,3.3,1.4,4.6.9,1.6,2,2.8,3.1,4.1ZM157.5,217.4s0,.1,0,0c-.2-.2-.3-.5-.5-.7,0,0,0-.1,0,0,.2.2.4.5.5.7ZM157.1,217.2s0,0,0,0c-.1-.2-.2-.4-.4-.6,0,0,0,0,0,0,.1.2.2.4.4.6Z"/>
        <path d="M165.2,219.5c0,0,0,0,0,0-.1-.3-.2-.7-.3-1,0,0,0,0,0,0,.1.3.2.7.3,1Z"/>
        <path d="M165.2,219c0,0,0,0,0,0,0-.4-.2-.6-.4-.8,0,0,0,0,0,0,.2.1.3.4.4.7Z"/>
        <path d="M156,219.5c0,0,0,0,0,0h0c0-.1,0-.2,0-.2,0,0,0,0,0,0,0,0,0,0,0,0-.9-1.5-1.9-3.2-3-4.3-1.2-1.1-2.7-1.7-3.9-2.9,0,0-.2,0-.2.2,1.3,4.2,4.2,6.2,7.1,7.3,0,0,0,0,0,0ZM152.5,214.9c1.2,1,2.2,2.7,3.2,4.2-2.6-1.1-5.2-2.9-6.5-6.6,1,1,2.2,1.5,3.3,2.4Z"/>
        <path class="st18" d="M162.9,220.5c-.7-1.9-1.3-3.9-2.2-5.7-.8-1.7-2-2.7-3.1-4.1.8,4.2,2.7,7.7,5.2,9.8ZM159.4,214.7s0,.1,0,0c-.2-.3-.4-.6-.5-1.1,0,0,0,0,0,0,0,.4.2.7.4,1ZM159,214.6c0,0,0,.1,0,0,0-.3-.2-.5-.3-.8,0,0,0-.1,0,0,0,.3.2.5.3.8Z"/>
        <path class="st18" d="M157.5,217.5s0,0,0,0c-.2-.3-.3-.5-.5-.7,0,0,0,0,0,0,.2.3.3.5.5.7Z"/>
        <path d="M154.1,217.5c0,0,0,0,0,0-.2-.4-.5-.8-.8-1.2,0,0,0,0,0,0,.3.4.5.7.8,1.2Z"/>
        <path class="st18" d="M157.1,217.3s0,0,0,0c-.1-.2-.2-.4-.4-.6,0,0,0,0,0,0,.1.2.2.4.4.6Z"/>
        <path class="st18" d="M155.7,219.1c-1-1.5-1.9-3.1-3.2-4.2-1.1-.9-2.3-1.4-3.3-2.4,1.3,3.6,3.9,5.4,6.5,6.6ZM154.2,217.5c0,0,0,.1,0,0-.2-.4-.5-.8-.8-1.2,0,0,0-.1,0,0,.3.4.5.7.8,1.2ZM153.9,216.6c0,0,0,.1,0,0-.1-.2-.3-.5-.5-.6,0,0,0-.1,0,0,.2.2.4.4.5.7Z"/>
        <path class="st57" d="M153.8,216.7c0,0,0,0,0,0-.1-.3-.3-.5-.5-.7,0,0,0,0,0,0,.2.2.3.4.5.6Z"/>
        <path class="st18" d="M159.4,214.8s0,0,0,0c-.2-.3-.3-.6-.4-1,0,0,0,0,0,0,0,.4.2.8.5,1.1Z"/>
        <path class="st18" d="M159,214.7c0,0,0,0,0,0,0-.3-.2-.5-.3-.8,0,0,0,0,0,0,0,.3.2.5.3.8Z"/>
      </g>
      <g>
        <path class="st19" d="M170.9,218.1c-.6.3-.9.9-1.2,1.6-.1.4-.3.7-.6.8-.4.2-.8,0-1.2,0-.6,0-1.2.6-1.5,1.4-.2.8-.2,1.6.1,2.3.2.3.4.6.7.9,1.2.4,2.2,1.4,3.2,2.4-.6-1-1.2-2.1-1.6-3.3,0-.1,0-.3.1-.1.4.6.8,1.2,1.2,1.7-.2-.6-.3-1.2-.4-1.8,0-.1,0-.2.1,0,.3.6.6,1.1,1,1.7,0-.5,0-1,0-1.5,0-.1,0-.1.1,0,.2.3.4.9.4,1.4.3-.8.7-1.6.9-2.5,0-.1.1,0,.2,0,0,.7,0,1.4-.1,2,0-.1.1-.2.2-.3.6-1,1-2.2,1.3-3.4,0,0,0,0,0,0-.1-.3-.4-.5-.4-.9,0-.2,0-.4.1-.5,0,0,0,0,0,0-.4-1.5-1.6-2.2-2.6-1.7ZM171.9,218.3s0,0,0,0c.2,0,.4,0,.6.2,0,0,0,0,0,0-.2-.1-.4-.2-.6-.2ZM171.5,218.7c0,0,0-.1,0-.1.2,0,.5,0,.7.1,0,0,0,.1,0,.1-.2,0-.5,0-.7-.1ZM166.8,221.8c0,0,0,0,0,0,0,.3,0,.6,0,.9,0,0,0,.1,0,0-.2-.3-.2-.7,0-1ZM166.6,222.4s0,0,0,0c0,.3,0,.6,0,.9,0,0,0,0,0,0-.1-.3-.2-.6-.1-1Z"/>
        <path class="st19" d="M171.9,218.2s0,0,0,0c.2,0,.4,0,.6.2,0,0,0,0,0,0-.2-.1-.4-.2-.6-.2Z"/>
        <path class="st19" d="M171.5,218.6c0,0,0,.1,0,.1.2,0,.4.1.7.1,0,0,0,0,0-.1-.2,0-.4-.1-.7-.1Z"/>
        <path d="M166.9,221.8c0,0,0-.1,0,0-.1.3,0,.7,0,1,0,0,0,0,0,0-.1-.3-.2-.6,0-.9Z"/>
        <path class="st31" d="M174.6,217.8c-.2,0-.2.4-.2.6,0,.1,0,.3,0,.4,0,0,0,0,0,0,0,0,0,0,0,0,0-.1.2-.3.2-.5,0-.2,0-.6-.2-.5Z"/>
        <path d="M166.6,222.4s0,0,0,0c0,.3,0,.7.1,1,0,0,0,0,0,0-.1-.3-.1-.6,0-.9Z"/>
        <path class="st31" d="M174.3,218.4c0-.1-.2,0-.2,0,0,.1,0,.3,0,.5,0,.2.1.4.2.5,0-.2,0-.3,0-.5,0-.1,0-.3,0-.5,0,0,0,0,0,0Z"/>
        <path class="st31" d="M174,219.2c0,0-.1,0-.1,0,0,0,0,.1,0,.2,0,0,0,.1,0,.2,0,0,0,.2,0,.2,0,.2.2.3.3.4,0-.2,0-.4.1-.6,0-.1-.2-.2-.3-.4Z"/>
        <path class="st31" d="M174.8,218.9c0,0-.2.2-.2.2,0,.1,0,.3,0,.4.2,0,.4-.1.5-.4,0-.2-.1-.3-.2-.3Z"/>
        <path class="st31" d="M174.9,219.6c-.1,0-.2,0-.3,0,0,.1,0,.3,0,.4.2,0,.4-.1.6-.4,0,0-.1,0-.2,0Z"/>
        <path class="st31" d="M173.8,220c-.3.2,0,.8.2,1.1,0-.2.1-.4.1-.6,0,0,0,0,0,0-.2,0-.3-.2-.4-.4Z"/>
        <path class="st19" d="M167.1,225.3c-.8-.3-1.7-.3-2.4.4-.7.7-.8,1.9-.4,2.9.3.7.7,1.3.9,2.1.2.9.1,2.1.5,2.9.4.8,1.2,1,1.9.8.7-.3,1.2-.9,1.7-1.6,0-.3.2-.6.3-.8.2-.8.5-1.5.8-2.2-.7,1.1-1.7,1.9-2.8,2.2,0,0-.1-.1,0-.2.6-.6,1.1-1.2,1.7-1.7-.4.3-.9.4-1.4.4,0,0,0-.1,0-.2.4-.3.9-.7,1.3-1-.4,0-.9,0-1.3.1,0,0,0,0,0-.1.4-.6,1-1,1.6-.9-.5-.3-1.1-.4-1.7-.4,0,0-.1-.2,0-.2.8-.4,1.7-.4,2.5,0-.8-.8-1.7-1.6-2.6-2.1,0,0,0,.1,0,0,0,0-.1-.1-.2-.2-.1,0-.2,0-.3-.1ZM164.6,226.7c0-.4.1-.8.4-.9,0,0,0,0,0,.1-.2.2-.4.5-.3.8,0,0,0,0,0,0ZM164.8,226.4c0-.2.2-.5.4-.6,0,0,0,0,0,0-.2.1-.3.3-.4.5,0,0,0,0,0,0Z"/>
        <path d="M165,225.8c-.3.1-.4.5-.4.9,0,0,0,0,0,0,0-.4.1-.6.3-.8,0,0,0-.1,0-.1Z"/>
        <path class="st31" d="M174.9,220.2c-.1,0-.2,0-.3,0,0,.1,0,.2,0,.4.1.1.3.2.5.1,0,0,.1-.1.1-.2,0,0,0,0,0-.1,0,0,0,0,0,0,0,0-.1,0-.2,0,0,0,0,0,0,0Z"/>
        <path d="M165.2,225.8c-.2,0-.3.3-.4.6,0,0,0,0,0,0,.1-.2.3-.4.4-.5,0,0,0-.1,0,0Z"/>
        <path class="st31" d="M174.5,220.8c0,.2,0,.3,0,.5.1,0,.3.2.5,0s.2-.2.2-.4c-.2,0-.4,0-.5-.2Z"/>
        <path class="st19" d="M175.3,220.4c0,.1,0,.2,0,.3,0,0,0,.1,0,.2,0,.2,0,.5-.1.6-.2.2-.5.1-.7,0-.2,1.3-.5,2.6-1,3.8.2-.2.5-.2.7-.2,0,0,0,.1,0,.2-.3.4-.6.8-1,1.2.3-.3.8-.4,1.1-.3,0,0,0,.1,0,.2-.4.3-.8.8-1.2,1.2.5,0,1,0,1.5-.4,0,0,.1,0,0,.1-.4.6-.8,1.1-1.3,1.4.7.1,1.4.2,2.2,0,0,0,0,0,0,0,0,0,0,0,0,0,0,0,.1,0,0,.1-.5.7-1.4.8-2,.8,0,0,0,0-.1,0,.7.3,1.4.6,2.1.9.7.2,1.4.5,2.1,0,.7-.4,1.1-1.6.6-2.5-.5-1-1.6-1.5-1.5-3,0-1.1.4-2,.1-3-.2-1.1-1-1.8-1.7-1.5ZM176,220.9s0-.1,0-.1c.3,0,.5.2.6.5,0,0,0,0,0,0-.2-.3-.4-.4-.6-.5ZM176.9,230s0-.1,0,0c.2.1.3.1.5,0,0,0,0,0,0,0-.2.1-.4.1-.6,0ZM176.9,230.4s0-.1,0,0c.2,0,.4,0,.5-.1,0,0,0,0,0,0-.2.1-.4.2-.6.1Z"/>
        <path class="st0" d="M174.4,219.7c-.2,1.4-.6,2.7-1.2,3.9-.3.7-.7,1.4-1.2,2-.4.6-1.2,1.2-1.3,2.1,0,0,0,0,0,0,0,0,0,0,0,0,0,0,0,.2,0,.2,0,0,0,.2,0,.3.8,1.5,2.6-3.4,2.9-4.2.4-1.4.7-2.9.8-4.4Z"/>
        <path class="st19" d="M176,220.8s0,0,0,.1c.2,0,.4.2.6.5,0,0,0,0,0,0-.2-.3-.4-.5-.6-.5Z"/>
        <path class="st51" d="M171.2,224.9c0-.2-.1-.3-.2-.5,0,.4,0,.9-.1,1.3,0,0,0,0,0,0,0,0,0,0,0,0,0,.1,0,.2-.1.1-.3-.5-.6-1-.9-1.5,0,.5.2,1,.3,1.5v.2c.2,0,.1.2,0,.2-.4-.3-.7-.7-1-1.2.4.9.8,1.8,1.3,2.6,0-.3.3-.6.5-.9.3-.4.6-.7.8-1.1.3-.7.5-1.5.5-2.3-.3.9-.6,1.7-1,2.5,0,0,0,0,0,0,0,0,0,0,0,0,0,0,0,0,0,0,0,0-.1,0,0,0,0,0,0,0,0,0,0-.3,0-.6,0-.8Z"/>
        <path class="st51" d="M170.6,228c-.8-.4-1.6-.6-2.4-.4.5,0,1,.3,1.5.6,0,0,0,0,0,.1,0,0,0,0,0,0-.6,0-1.1.1-1.5.6.4,0,.8-.1,1.2,0,0,0,0,0,0,0h0s0,0,0,.1c-.4.4-.8.7-1.2,1,.5,0,1-.3,1.5-.6,0,0,0,0,0,0,0,0,0,0,0,0,0,0,0,0,0,0-.6.6-1.1,1.2-1.7,1.8,1.1-.5,1.9-1.3,2.7-2.5,0,0,0-.1,0-.2,0,0,0,0,0,0,0,0,0,0,0,0,0,0,0,0,0,0,0,0,0-.1,0-.2,0,0,0,0,0-.1,0-.1,0-.2,0-.3Z"/>
        <path class="st51" d="M173.9,225.2c-.3,0-.5.2-.7.4,0,0,0,0,0,0-.2.4-.9,2.2-1.6,3,.5.2.9.4,1.4.6.8.1,1.6,0,2.3-.5-.7.2-1.6.2-2.3,0,0,0,0-.2,0-.2,0,0,0,0,0,0,.5-.2.9-.6,1.3-1.1-.4.2-.9.3-1.4.2,0,0,0,0,0,0,0,0,0,0,0,0,0,0,0,0,0,0,.3-.5.7-1,1.2-1.3-.4,0-.7.1-1,.4,0,0-.1,0,0-.1,0,0,0,0,0,0,0,0,0,0,0,0,.3-.4.6-.8.9-1.2Z"/>
        <path class="st51" d="M171.5,228.8s0,0,0,0c-.2.1-.3.2-.4.2-.3,1.1-.4,2,0,3,0-.4,0-.8.2-1.1,0,0,0,0,0,0,0,0,0,0,.1,0,.1.4.2.8.3,1.2,0-.4,0-1,0-1.4,0,0,0,0,0,0h0s0,0,0-.1c0-.1,0-.2.1-.1.2.4.5.8.7,1.2-.1-.5-.3-1-.4-1.5,0,0,0,0,0,0,0,0,0,0,0,0,0,0,0-.2,0-.1.6.2,1.1.7,1.5,1.3-.4-.9-1-1.6-1.7-2.1,0,0-.1,0-.2,0,0,0,0,0,0,0,0,0,0,0,0,0Z"/>
        <path class="st19" d="M172.7,229.3c-.1,0-.3,0-.4-.1.7.6,1.3,1.6,1.6,2.7,0,.1,0,.2-.1.1-.5-.9-1.1-1.5-1.7-1.9.3.6.5,1.3.6,2,0,.1,0,.2-.1.1-.3-.5-.6-1-.9-1.6h0s0,0,0,0c0,.3,0,.6,0,.8,0,.3,0,.6,0,.8,0,.1-.1.2-.1,0-.1-.4-.2-.9-.3-1.3,0,.4,0,.8-.1,1.2,0,0,0,.1-.1,0-.3-.8-.5-1.8-.3-2.7-.3.7-.6,1.4-.8,2.2,0,.2-.1.4-.2.5,0,0,0,0,0,0,0,0,0,0,0,.1-.2.7-.4,1.4-.5,2.2-.1,1.2.3,2.3,1.2,2.6.8.3,1.4-.5,2.1-1,.4-.4.9-.6,1.4-.5.7.1,1.3.2,1.9-.7,1-1.7.2-4-1-4.9-.2,0-.4-.2-.5-.2-.5-.2-.9-.4-1.4-.6ZM169.6,235.6c0,0,0-.1,0,0,0,.3.2.5.3.7,0,0,0,.1,0,0-.2-.2-.3-.5-.4-.8ZM169.6,236.1s0,0,0,0c.1.3.2.5.4.6,0,0,0,0,0,0-.2-.1-.4-.4-.5-.7Z"/>
        <path class="st19" d="M176.9,229.9s0,0,0,0c.2.1.4.1.6,0,0,0,0-.1,0,0-.2,0-.3,0-.5,0Z"/>
        <path class="st19" d="M176.9,230.3s0,0,0,0c.2,0,.4,0,.6-.1,0,0,0-.1,0,0-.2,0-.3.1-.5.1Z"/>
        <path class="st19" d="M169.7,235.6c0,0,0,0,0,0,0,.3.2.6.4.8,0,0,0,0,0,0-.2-.2-.3-.4-.3-.7Z"/>
        <path class="st19" d="M169.6,236.1s0,0,0,0c0,.3.3.5.5.7,0,0,0,0,0,0-.2-.2-.3-.4-.4-.6Z"/>
        <path class="st19" d="M170.8,234.9c-.1.2-.2.6,0,.8,0,0,0,0,0,0,0-.2,0-.5,0-.7,0,0,0-.1,0,0Z"/>
        <path class="st19" d="M174.8,234.4c0,0,0,0,0,0,0-.4-.1-.8-.3-1.1,0,0,0,0,0,0,.1.3.2.7.3,1.1Z"/>
      </g>
      <g>
        <path class="st19" d="M168.7,222.8c0,1.3-1,1.9-1.7,1.8-1.5-.2-2.8-1.6-4.1-2.6,0,0,0,0,0,0,0,0,0-.1,0-.2,0,0,0,0,0,0,0,0,0,0,0,0,.6-.3,1.2-.3,1.7,0,0,0,0-.1,0-.1-.6-.3-1.2-.3-1.8,0,0,0,0,0,0,0,0,0,0,0,0,0,.7-.7,1.4-1,2.3-.9,0,0,0-.1,0-.1-.8-.2-1.7.2-2.4,1,0,0,0,0,0,0,0,0,0,0,0,0,.3-.6.6-1.3.9-1.9.3-.5.6-1,.9-1.4,0,.1,0,.2-.1.4,0,0,0,0,0,0,0-.3.2-.5.4-.7,0,0,0,0,0,0,.1-.1.2-.2.4-.3.6-.5,1.5-.8,2.2-.3.3.3.6.8.6,1.4,0,.8-.5,1.3-.9,1.8,0,0,0,.2,0,.2.6.4,1.5,1,1.5,2.2ZM168.3,223.6c.1-.3.2-.6.2-.9,0,0,0,0,0,0,0,.3,0,.6-.2.9,0,0,0,0,0,0ZM168.2,223.1s0,0,0,0c0-.2,0-.5,0-.7,0,0,0,0,0,0,0,.2,0,.4,0,.6ZM165.3,217.9s0,0,0,0c-.2,0-.3.2-.4.4,0,0,0,0,0,0,0-.2.2-.3.4-.4Z"/>
        <path class="st19" d="M167,227.3c0,.7,0,1.6-.6,1.8-.4.2-.9-.2-1.2-.5,0,0-.2,0-.1.1.3.9-.3,1.9-1,2-.8,0-1.3-.9-1.6-1.9-.5-1.9-.3-4.3,0-6.2,0,0,0,0,0,0,0,0,0,0,0,0,0,.9.4,1.8.9,2.5,0,0,.1,0,0-.1-.5-.7-.7-1.5-.9-2.4,0,0,0,0,0,0,0,0,0,0,0,0,.3.5.7,1,1.1,1.2,0,0,0,0,0-.1-.4-.3-.8-.7-1.1-1.2,0,0,0,0,0,0,0,0,0,0,0,0,0,0,0-.1,0-.2,0,0,0,0,0,0,0,0,0,0,0,0,0,0,0,0,0,0,.9.8,1.8,1.5,2.7,2.1.2,0,.3.2.5.3h0s0,0,0,0c0,0,0,0,0,0,.2.4.4.7.6,1.1.2.5.3,1.1.4,1.8ZM166.1,225.6s0,0,0,0c-.1-.3-.3-.4-.6-.6,0,0,0,0,0,0,.2.1.4.3.5.5ZM165.8,225s0,0,0,0c-.1-.2-.3-.3-.5-.3,0,0,0,0,0,0,.2,0,.3.2.4.3ZM164.1,229.9s0,0,0,0c-.1,0-.3,0-.4-.1,0,0,0,0,0,0,.1.1.3.2.4.1ZM163.8,230.2s0,0,0,0c-.2,0-.4,0-.5-.2,0,0,0,0,0,0,.1.2.3.3.5.2Z"/>
        <path class="st19" d="M164.6,214.1c.7.6.3,2,0,2.8-.6,1.5-1.3,3-1.9,4.5,0,0,0,0,0,0,0,0,0,0,0,0,.1-1.1.3-2.1.6-3.2,0,0,0-.1,0,0-.3,1-.5,2-.6,3.1-.2-.9-.2-1.8-.2-2.8,0,0,0,0-.1,0,0,.8,0,1.7.1,2.5-.2-.7-.5-1.4-.9-2.1,0,0,0,0,0,0-.5-1.1-.6-2.5-.5-3.8,0-.8.3-2.1,1-1.6.4.2.7,1,1,1.4,0,0,0,0,.1,0,.4-.6,1-1.1,1.6-.6ZM164.9,215.2c0-.2,0-.5-.2-.7,0,0,0,0,0,0,.1.1.2.3.1.6,0,0,0,0,0,0ZM161.3,215.3c0,0,0,0,0,0,0-.3,0-.6,0-.9,0,0,0,0,0,0,0,.3-.1.6-.1,1ZM161.2,215.7s0,0,0,0c0-.3,0-.6,0-.9,0,0,0,0,0,0,0,.3,0,.7,0,1Z"/>
        <path class="st19" d="M162.1,227.5s0,0,0,0c-.2,1-.4,2.4-1.3,2.1-.8-.3-1.4-1.5-1.2-2.7,0,0,0-.2-.1-.1-.4,0-.8.2-1.1-.3-.2-.3,0-.9,0-1.2.2-.6.4-1.2.8-1.6.6-.5,1.3-.9,2-1,.4,0,.8,0,1.1,0-.8.4-1.6,1.3-2,2.4,0,0,0,.1,0,0,.5-1.1,1.2-1.9,2-2.3,0,0,0,0,0,.1,0,0,0,0,0,0-.4.6-.7,1.4-.8,2.2,0,0,0,.1,0,0,.2-.8.4-1.5.7-2.2,0,0,0,0,0,0-.2,1.3-.3,2.7-.2,4,0,.2,0,.4,0,.6ZM158.9,225.2s0,0,0,0c-.2.1-.2.4-.2.7,0,0,0,0,0,0,0-.2,0-.4.2-.6ZM158.5,226.1c0,0,0,0,0,0,0-.3,0-.6.1-.8,0,0,0,0,0,0-.1.3-.2.6-.1.9Z"/>
        <path class="st0" d="M162.7,222.2s0,0,0,0c-.5.5-1.3.2-1.9.3-.6.2-1.2.5-1.8,1-.6.5-1.1,1.1-1.6,1.8-.3.4-.5.7-.8,1.1,0,0,0,0,0,0-.1.2-.3.4-.4.6.7-1.5,1.4-2.9,2.5-3.9.5-.5,1.1-1,1.8-1.3.3-.2,1.4-.7,2-.5,0,0,0,.1,0,.2,0,0,0,0,0,0,0,0,0,0,0,0,0,0,.1.1.1.2,0,0,0,0,0,0,0,0,0,0,0,0,0,0,0,0,0,0,0,0,0,.2,0,.3,0,0,0,0,0,0ZM162.5,221.8s0,0,0,0c-.1-.2-.3-.2-.5-.2,0,0,0,0,0,0,.2,0,.3.1.4.2Z"/>
        <path class="st19" d="M162.2,221s0,0,0,0c-.2,0-.4,0-.6,0-.8.2-1.6.6-2.4,1.2,0,0-.2.2-.3.2,0,0,0,0,0,0-.6-.1-1.6-.1-1.7-1.4,0-1.2.8-1.7,1.4-2.1,0,0,0-.1,0-.2-.4-.6-1.1-2.3,0-2.7.7-.3,1.4.5,1.8,1.1.8,1,1.3,2.3,1.8,3.6-.7-.9-1.5-1.7-2.3-2.2,0,0,0,0,0,0,.8.7,1.5,1.4,2.3,2.2-.7-.3-1.4-.5-2.1-.6,0,0,0,.1,0,.1.7.2,1.4.3,2.1.6,0,0,0,0,0,0ZM160.6,218.1s0,0,0,0c-.1-.3-.3-.4-.5-.5,0,0,0,0,0,0,.2,0,.4.3.5.5ZM160.6,217.8s0,0,0,0c-.1-.3-.3-.4-.5-.5,0,0,0,0,0,0,.2,0,.4.2.5.5Z"/>
        <path class="st31" d="M157.1,226.8c0,.2-.1.4-.2.3,0-.1,0-.2-.1-.3,0,0,0-.1,0-.2,0-.1.1-.2.2-.3,0,.1.2.3.2.5Z"/>
        <path class="st31" d="M156.6,226.7c.1.3.3.5.2.9,0,.2-.2.3-.3.1,0-.2,0-.4,0-.6,0,0,0-.1,0-.2,0,0,.1-.2.2-.3Z"/>
        <path class="st31" d="M156.3,227.8c0,.2,0,.3,0,.4-.2.2-.2-.2-.2-.4,0-.1,0-.2,0-.3,0,0,0,0,0,0,0,0,.1-.2.2-.2,0,0,0,.1,0,.2,0,.1,0,.3,0,.4Z"/>
        <path class="st31" d="M156.5,225.9h0c0,.2-.2.4-.2.6,0,0,0,0,0,0-.1-.1-.2-.2-.4-.2,0,0-.1-.1-.1-.2,0-.2.2-.3.3-.3.1,0,.3.1.4.2,0,0,0,0,0,0Z"/>
        <path class="st31" d="M156.2,226.5s0,0,0,0c0,.2-.2.4-.2.6,0,0,0,0,0,0,0,0,0,0,0,0,0,0,0,0,0,0,0,0,0,0,0,0-.1-.1-.3-.2-.5-.2,0,0,0,0,0,0,0-.1,0-.2,0-.2.2-.1.3-.1.5,0,0,0,.1,0,.2.1,0,0,0,0,0,0Z"/>
        <path class="st31" d="M155.9,227.5c0,.2,0,.4-.1.6,0,.1-.1.2-.2.3-.1.1-.3,0-.3-.2,0-.4.3-.7.6-.8,0,0,0,0,0,0,0,0,0,0,0,0,0,0,0,0,0,0Z"/>
        <path class="st31" d="M155.8,227.1s0,0,.1,0c0,0,0,0,0,.1,0,0,0,0-.1,0-.2,0-.4.2-.6,0-.2-.2,0-.5.2-.5,0,0,0,0,0,0,.1.1.3.2.4.1Z"/>
      </g>
      <g>
        <path class="st19" d="M189.2,213.2c-.2,2,1.3,2.8,2.4,2.8,2.2-.1,4.3-2,6.2-3.3,0,0,0,0,.1,0,0,0,0-.2,0-.2,0,0,0,0-.1,0,0,0,0,0,0,0-.8-.5-1.7-.5-2.5-.2,0,0-.1-.2,0-.2.9-.4,1.8-.3,2.6.3,0,0,0,0,0,0,0,0,0,0,0,0-1-1.1-2-1.6-3.3-1.6,0,0,0-.2,0-.2,1.2-.1,2.5.5,3.4,1.7,0,0,0,0,0,0,0,0,0,0,0,0-.4-1-.7-1.9-1.1-2.9-.4-.8-.8-1.5-1.3-2.1,0,.2.1.3.1.5,0,0,0,0,0,0,0-.5-.3-.8-.6-1,0,0,0-.1,0-.1-.2-.2-.3-.4-.5-.5-.9-.8-2.1-1.4-3.1-.7-.5.3-1,1.1-1,1.9,0,1.1.6,2,1.1,2.7,0,0,0,.3,0,.3-1,.6-2.2,1.3-2.4,3.1ZM189.8,214.5c-.2-.4-.3-.8-.2-1.3,0,0,0,0,0,0,0,.4,0,.9.2,1.3,0,0,0,.1,0,0ZM190,213.8c0,0,0,0,0,0,0-.3,0-.7.2-1,0,0,0,0,0,0,0,.3-.1.6-.1.9ZM194.6,206.6c0,0,0-.1,0-.1.3,0,.5.3.6.7,0,0,0,.1,0,0-.1-.3-.3-.5-.6-.6Z"/>
        <path class="st19" d="M191.5,220.1c0,1,0,2.3.7,2.7.6.3,1.3-.2,1.8-.5,0,0,.2,0,.2.2-.5,1.3.3,2.9,1.3,3,1.1.1,2-1.2,2.5-2.6.8-2.7.7-6.2.4-9.1,0,0,0,0,0,0,0,0,0,0,0,0-.2,1.4-.7,2.6-1.4,3.5,0,0-.2,0,0-.2.7-.9,1.2-2,1.4-3.4,0,0,0,0,0,0,0,0,0,0,0,0-.4.7-1,1.3-1.7,1.6,0,0-.1-.1,0-.2.6-.4,1.2-.9,1.7-1.6,0,0,0,0,0,0,0,0,0,0,0,0,0,0,0-.2,0-.3,0,0,0,0,0,0,0,0,0-.1,0-.1,0,0,0,0,0,0-1.3,1-2.7,2-4.1,2.7-.2.1-.5.2-.7.3h0s0,0,0,0c0,0,0,0,0,0-.3.6-.7,1-1,1.6-.4.7-.6,1.6-.7,2.5ZM192.8,217.6c0,0-.1,0,0-.1.2-.4.5-.6.9-.7,0,0,0,.1,0,.1-.3.1-.6.4-.8.7ZM193.3,216.8s0,0,0,0c.2-.3.4-.4.7-.4,0,0,0,0,0,0-.3,0-.5.2-.7.4ZM195.5,224.2c0,0,0-.1,0-.1.2,0,.4,0,.6-.1,0,0,0,0,0,0-.2.1-.4.2-.6.2ZM195.8,224.6c0,0,0-.1,0-.1.3.1.5,0,.7-.3,0,0,.1,0,0,.1-.2.3-.5.4-.8.3Z"/>
        <path class="st19" d="M195.8,201.1c-1.1.8-.5,2.9-.1,4,.8,2.3,1.7,4.5,2.5,6.8,0,0,0,0,.1,0,0,0,0,0,0,0-.1-1.6-.3-3.2-.6-4.8,0-.1.1-.2.1,0,.4,1.5.6,3.1.6,4.6.3-1.3.5-2.6.5-4.1,0-.1.1-.1.1,0,0,1.2,0,2.5-.4,3.7.4-1,.9-2,1.4-2.9,0,0,0,0,0,0,.8-1.5,1.1-3.6,1.1-5.4,0-1.1-.3-3.1-1.4-2.5-.6.3-1.1,1.4-1.5,2,0,0-.1,0-.2,0-.6-.9-1.4-1.7-2.3-1.1ZM195.4,202.7c0-.4,0-.7.3-.9,0,0,.1,0,0,.1-.2.2-.3.5-.3.8,0,0,0,0,0,0ZM200.6,203.2c0,.1-.1,0-.1,0,0-.5,0-.9,0-1.4,0,0,0-.1,0,0,0,.5.1.9,0,1.4ZM200.8,203.9c0,0,0,0,0,0,0-.4.1-.9.1-1.4,0,0,0,0,0,0,0,.5,0,1-.1,1.4Z"/>
        <path class="st19" d="M198.5,220.9s0,0,0,0c.2,1.5.4,3.6,1.8,3.2,1.1-.3,2.2-2.1,1.9-3.8,0-.1,0-.2.2-.2.5.2,1.2.4,1.6-.3.3-.5.2-1.3,0-1.8-.2-.9-.5-1.8-1-2.4-.9-.8-1.9-1.4-2.9-1.7-.5-.1-1.1,0-1.6-.2,1.2.7,2.2,2.1,2.8,3.7,0,.1,0,.2-.1,0-.6-1.6-1.5-2.9-2.7-3.7,0,0,0,.1,0,.2,0,0,0,0,0,0,.5.9.9,2.1,1,3.3,0,.1-.1.2-.1,0-.2-1.2-.5-2.2-.9-3.2,0,0,0,0,0,0,.2,2,.2,4,0,5.9,0,.3,0,.5,0,.8ZM203.4,218s0-.1,0,0c.2.2.3.6.2,1,0,0,0,0,0,0,0-.3,0-.7-.2-.9ZM204,219.4c0,0-.1,0,0,0,0-.4,0-.8,0-1.2,0,0,0-.1,0,0,.2.4.2.8.1,1.3Z"/>
        <path class="st0" d="M198.1,213.2s0,0,0,0c.8.7,1.9.4,2.8.7.9.3,1.7.9,2.5,1.6.8.8,1.6,1.7,2.2,2.8.4.6.7,1.1,1.1,1.7,0,0,0,0,0,0,.2.3.4.6.5,1-.8-2.3-1.9-4.4-3.3-6-.8-.9-1.6-1.6-2.5-2.2-.5-.3-2-1.2-2.9-1,0,0,0,.2-.1.3,0,0-.1,0-.1,0,0,0,0,0,0,0,0,0-.2.2-.2.3,0,0,0,0,0,0,0,0,0,.1,0,.1,0,0,0,0,0,0,0,.1,0,.3,0,.5,0,0,0,0,0,.1ZM198.4,212.6s0,0,0-.1c.2-.2.5-.3.7-.3,0,0,0,.1,0,.1-.2,0-.5.1-.7.3Z"/>
        <path class="st19" d="M198.9,211.5s0,0-.1.1c.3,0,.6,0,.9,0,1.2.4,2.3,1.1,3.4,2.1.1.1.3.2.4.4,0,0,0,0,0,0,.9,0,2.4,0,2.6-1.8.2-1.7-1-2.6-1.9-3.2,0,0-.1-.2,0-.3.6-.9,1.7-3.2.3-3.9-.9-.5-2.1.5-2.7,1.4-1.2,1.4-2,3.3-2.9,5.1,1.1-1.2,2.3-2.3,3.5-3,0,0,.1,0,0,.1-1.2,1-2.3,1.9-3.5,2.9,1-.3,2.1-.6,3.1-.6,0,0,0,.2,0,.2-1.1.2-2.1.3-3.1.6,0,0,0,0,0,0ZM201.4,207.4s0,0,0,0c.2-.4.5-.6.8-.7,0,0,0,0,0,0-.3.1-.5.3-.8.6ZM201.4,207c0,0,0,0,0,0,.2-.4.5-.6.8-.7,0,0,0,0,0,.1-.3,0-.5.3-.7.6Z"/>
        <path class="st31" d="M205.9,220.5c0,.3.1.6.3.5,0-.2.1-.3.2-.4,0,0,0-.2,0-.3,0-.2-.2-.3-.3-.5-.1.2-.3.4-.3.7Z"/>
        <path class="st31" d="M206.7,220.5c-.2.4-.5.8-.3,1.3,0,.3.3.4.5.2,0-.3,0-.5.2-.8,0,0,0-.2,0-.3,0-.1-.2-.3-.2-.4Z"/>
        <path class="st31" d="M207,222c0,.2,0,.4.1.6.2.3.3-.2.3-.5,0-.2,0-.3,0-.5,0,0,0,0,0,0,0-.1-.2-.2-.3-.4,0,0,0,.2,0,.2,0,.2,0,.4-.1.6Z"/>
        <path class="st31" d="M206.9,219.3h0c.1.3.2.6.3.8,0,0,0,0,0,0,.2-.2.4-.2.6-.2.1,0,.2-.2.2-.3,0-.3-.2-.5-.4-.5-.2,0-.4.2-.6.3,0,0,0,0,0,0Z"/>
        <path class="st31" d="M207.2,220.2s0,0,0,0c.1.3.2.6.3.9,0,0,0,0,0,0,0,0,0,0,0,0,0,0,0,0,0,0,0,0,0,0,0,0,.2-.2.5-.3.7-.3,0,0,0,0,0,0,.1-.2,0-.3,0-.4-.3-.2-.5-.2-.8-.2-.1,0-.2,0-.3.1,0,0,0,0,0,0Z"/>
        <path class="st31" d="M207.6,221.8c0,.3,0,.7.2,1,0,.2.2.4.3.5.2.2.5,0,.4-.3,0-.6-.4-1-.8-1.3,0,0,0,0,0,0,0,0,0,0,0,0,0,0,0,.1,0,.1Z"/>
        <path class="st31" d="M207.7,221.1c0,0-.1,0-.2.1,0,0,0,.1,0,.2,0,0,.1,0,.2.1.3,0,.6.3.8.2.4-.3,0-.7-.3-.7,0,0,0,0,0,0-.2.1-.4.2-.6.2Z"/>
      </g>
      <g>
        <path class="st19" d="M211.1,171.5c0-.4-.1-.8-.3-1.1-.3-.6-.5-1.3-.5-2.1,0-1.5.9-2.6,1.9-2.7,1.3.8,1.7,1.5,2.6,2.2,0,.2-.1.6,0,.8,0,.1,0,.2.1.4-.3-.5-.7-.8-1.2-.9,0,0-.1,0,0,.2.4.7.8,1.4,1.2,2.1-.3-.2-.7-.1-1,0,0,0,0,.1,0,.2.3.2.6.5.9.6-.5.2-.9.4-1.4.6,0,0,0,.2,0,.2.4.1.8.2,1.2.1-.5.4-.9.7-1.5.9,0,0,0,.2,0,.2.9-.2,1.8-.4,2.6-.9-1,.9-1.9,1.9-2.6,3.2-.2.2-.5.4-.8.5-.5.2-1,0-1.4-.6-.4-.6-.4-1.6-.3-2.4.1-.5.4-.9.5-1.5ZM211.1,166.4c-.2.2-.3.4-.3.7,0,0,0,0,0,0,0-.2.2-.5.3-.7,0,0,0,0,0,0ZM211.2,166.9c-.1.3-.2.5-.3.8,0,0,0,.1,0,0,.1-.3.2-.5.3-.8,0,0,0-.1,0,0ZM211.3,175.4c.2.2.4.3.6.2,0,0,0,0,0,0-.2,0-.4,0-.6-.2,0,0,0,0,0,0ZM211.6,175.2s0-.1,0,0c-.2,0-.4,0-.6-.2,0,0,0,0,0,0,.2.3.4.4.6.3Z"/>
        <path d="M211.2,166.5c-.1.2-.2.4-.3.7,0,0,0,0,0,0,0-.3.2-.5.3-.7,0,0,0,0,0,0Z"/>
        <path d="M211.2,167c0,.3-.2.5-.3.8,0,0,0,0,0,0,.1-.3.2-.5.3-.8,0,0,0,0,0,0Z"/>
        <path d="M211,174.8s0,0,0,0c.2.3.4.4.6.3,0,0,0-.1,0,0-.2,0-.4,0-.6-.2Z"/>
        <path d="M211.3,175.3s0,0,0,0c.2.2.4.3.6.2,0,0,0,0,0,0-.2,0-.4,0-.6-.2Z"/>
        <path d="M212.7,178.7c0,.4.2.7.4.8,0,0,0,0,0,0-.2-.1-.3-.4-.4-.7,0,0,0,0,0,0Z"/>
        <path d="M212.8,178.3c0,.3,0,.5.2.8,0,0,0,0,0,0,0-.2-.1-.5-.1-.7,0,0,0,0,0,0Z"/>
        <path class="st0" d="M215.8,168.7c.7,1.4,1.4,3.2.6,3.5,0,0-.1,0-.2,0,0,0,0-.2-.1,0,0,0,0,0,0,0,0,0,0,0,0,0-.4-.5-.6-1.7-.7-2.5-.1-.5-.3-.9-.5-1.4,0-.4,0-.7.9.6Z"/>
        <path class="st10" d="M214.8,171.8s0,0-.1.1c-.3,0-.7,0-1-.1.4-.2.8-.3,1.2-.5,0,0,0-.2,0-.2,0,0,0,0,0,0,0,0,0,0,0,0-.2-.2-.5-.4-.8-.6.1,0,.2,0,.4,0,.2,0,.3.1.5.2,0,0,0,0,0,0,0,0,.1,0,0,0,0,0,0,0,0,0,0,0,0,0,0,0,0,0,0,0,0,0-.3-.8-.7-1.5-1.1-2.2.5.2.9.7,1.2,1.4.1.5.2,1,.3,1.4,0,.3.2.7.4.9-.7.3-1.3.6-2,.7.4-.2.7-.5,1.1-.8,0,0,0-.2,0-.2Z"/>
        <g>
          <path class="st19" d="M213.2,175.8c0-.1.1-.2.2-.4,0,0,.1-.1.2-.2,0,0,0-.1,0-.1.6-1,1.4-1.8,2.2-2.6-.5.9-.8,2.1-.9,3.2,0,.1.1.1.1,0,.2-.7.5-1.4.9-2-.2.7-.2,1.6,0,2.3,0,0,0,0,.1,0,.1-.6.3-1.2.4-1.7,0,.7,0,1.4.1,2,0,0,0,.1.1,0,.2-.6.3-1.2.3-1.9.1.9.3,1.9.4,2.8,0,0,.1.1.1,0,.2-1.4.1-3-.3-4.3.3.6.7,1.3,1,1.9.1.2.3.4.4.6.2.9.4,1.8.3,2.8,0,.9-.5,1.9-1.2,2.1-.6.2-1.3-.3-1.9-.4-.6,0-1.1.3-1.6.4-.8.2-1.5-.4-1.6-1.5-.2-1.1.2-2.3.7-3.2ZM212.8,178.3c0,0,0,0,0,0,0,.3,0,.5.2.8,0,0,0,0,0,0,0-.2-.1-.5-.1-.7ZM213.1,179.5s0,0,0,0c-.2-.1-.3-.4-.4-.7,0,0,0,0,0,0,0,.4.2.7.4.8Z"/>
          <path class="st10" d="M217.2,176.8c-.1-.9-.3-1.9-.4-2.8,0,0,0,0,0,0,0,0,0,0,0,0,0,0,0,0,0,0,0,.7,0,1.4-.2,2.1,0-.6,0-1.3-.1-1.9,0,0,0,0,0,0,0,0,0,0,0,0,0,0,0,0,0,0-.2.5-.3,1.1-.4,1.6-.1-.7,0-1.5.2-2.2,0,0,0,0,0-.1,0,0,0,0,0,0-.4.5-.7,1.1-.9,1.7.2-1.1.6-2.1,1.1-2.9,0,0,.1,0,.2,0,0,0,0,0,0,0,0,0,0,0,.1,0,0,0,0,0,0,0,0,0,0,0,0,0,0,0,0,0,0,0,0,0,0,.1,0,.2.4,1.4.6,2.8.5,4.3Z"/>
        </g>
        <path class="st19" d="M215.2,167.9c.5.2,1.8,1.3,2.5,1.7-.3.5-.6,1-.8,1.5-.1-.7-.6-2.5-1.7-3.2Z"/>
        <path class="st10" d="M216.9,171.4s0,0,0,0c0,0,0,0,0,0,0,0,0,0,0,0,0,0,0-.1.1-.2.4-.5.9-.9,1.4-1.1,0,0,.1,0,.2,0-.4.3-.7.7-.9,1.1,0,0,0,.1,0,0,0,0,0,0,0,0,0,0,0,0,0,0,.4,0,.7,0,1.1,0-.3.1-.7.3-1,.5,0,0,0,.2,0,.2,0,0,0,0,0,0h0s0,0,0,0c.3,0,.6.2.8.5-.3,0-.6,0-.8,0,0,0,0,0,0,.1,0,0,0,0,0,0,.2.2.4.4.6.6-.7,0-1.3-.4-1.8-1.1,0-.2,0-.4,0-.6Z"/>
        <path class="st19" d="M218.9,173.4c0,0,0-.1,0-.2-.2-.2-.5-.4-.7-.6.3,0,.6,0,.9,0,0,0,0-.2,0-.2-.2,0-.3-.2-.5-.3-.2,0-.3-.2-.5-.2,0,0,0,0,0,0h0c.4-.2.8-.4,1.3-.6,0,0,0-.2,0-.2-.5,0-.9,0-1.4,0,.3-.4.6-.7.9-1,1,.5,2,1,2.9,1.6,0,.4,0,.8,0,1.3.1,1,.3,2.1-.1,3-.5,1-1.3,1.1-2,.5-.4-.4-.8-.9-1.1-1.5,0,0,0,0,0-.1,0,0,0,0,0,0,0-.1-.2-.3-.3-.4-.4-.6-.7-1.2-1-1.8.5.5,1.2.7,1.7.6ZM220.5,176.5c.2,0,.4-.2.6-.3,0,0,0,0,0,0-.2.2-.3.3-.5.3,0,0,0,0,0,0ZM220.2,176.3c.2,0,.4,0,.6-.2,0,0,0-.1,0,0-.2.1-.4.2-.5.2s0,0,0,.1Z"/>
      </g>
    </g>
    <g>
      <path class="st63" d="M190.8,126.5c-7.8,15.2-13.1,19.4-23.3,23.7,1-10-3.8-18.8-3.8-18.8l27.2-5Z"/>
      <polygon class="st36" points="157.2 137.2 149.8 151.3 135.4 156.3 121.2 149.3 124.2 94.1 147.5 92.8 157.2 137.2"/>
      <polygon class="st36" points="179.7 153.8 237.8 144.1 236.2 83.6 203.8 84.5 179.7 153.8"/>
      <path class="st32" d="M120.1,141.9c1.1-4.4.3-9.3-.2-14.4-.8-5.6.1-22.6,1.5-37.5l6.4-.3c-1.1,6.3-.7,13.3.7,19.7,7.1-5.2,18.9-10,37.3-13.7.8,5.1,2.8,19.7-1,34.8-5.9,23-27.5,27.5-27.8,26.8-.3-.7,16.3-5.8,19.2-23.9,1.4-8.6,1.5-19.2.8-19.2-.8,0,.6,13.1-3,24.4-5.2,16.1-24.2,19.7-20.7,17.2,2.6-1.9,7-7.5,10.1-16.3-.2.3-.3.7-.5,1-5.2,9.9-6.5,13.4-11.4,14.6-8.4,2.1-21.8-4.1-21.8-4.1,0,0,9.1-4.2,10.3-9.2Z"/>
      <image width="394" height="411" transform="translate(97.4 85.6) scale(.2)" xlink:href="explain-woman-soldier-4.png"/>
      <path class="st43" d="M167.3,32c-11.8-2.2-22.9,6.5-25,8.3-15.9,13.4-13.8,36.7-13.2,41.6,0,.5,0,1-.2,1.5-.4.9-1.1,2.8-1.8,5.3,0,0-1.7,5.7-1.6,11.9,0,6.7,4.9,19.5,16.3,31.7,1.3,1.4,3,2.2,4.9,2.4,8.4.8,20.9.8,34.5-4.5,4.8-1.8,7.5-2.9,9.9-5,20.4-17.1,5-87.7-23.8-93.2Z"/>
      <path class="st34" d="M126.7,93.4c0-1.1.1-2.3.8-3.2-.2-.4-.3-.8-.2-1.2l2.1-5.7c-.6-5.8-.5-11.6.6-17.2-.8,1.6,7.8-1.3,17.6.8l-.7,7.7c-.6,2.4-.8,9.2-3.2,10.5s-5.5,6.3-5.4,8-2.5,4.5-5.7,4.5c-8,.2-5.8-1.8-5.9-4.2Z"/>
      <path class="st52" d="M187.6,80.1l-21.1,1.5c-1.3-.7-2.6-5.2-3.2-7.3l-2-6.5c9.2-1.1,18.3,0,27.2,3.8l-.8,8.5Z"/>
      <path class="st37" d="M166.5,81.6c0,2.6,3.7,4.7,8.2,4.6s8-2.3,7.9-5-2.8-5.6-8.2-5.5-8,3.3-7.9,5.9Z"/>
      <ellipse class="st42" cx="174.9" cy="80.5" rx="4.4" ry="4.8" transform="translate(-2.1 4.7) rotate(-1.5)"/>
      <path class="st64" d="M166.7,80.3c.9-6.4,6.1-6,8.9-6.1s6.3,1.7,8.7,4.4c1.2,1.3,4.6.3,4.6.3.5.2-2.5,4.5-6.6,3.7-.3-7.2-12.1-8.4-15.6-2.3Z"/>
      <path class="st37" d="M145.4,79.7c0,2.6-2.5,4.8-5.8,4.9-3.3,0-6-2-6.1-4.6,0-2.6,1.8-5.8,5.8-5.9s6.1,2.9,6.1,5.5Z"/>
      <ellipse class="st42" cx="140.2" cy="78.7" rx="4.6" ry="4.3" transform="translate(21.2 186.9) rotate(-71.6)"/>
      <path class="st64" d="M145.2,78c-1-6.3-4.8-5.7-6.9-5.6s-4.7,2-6.3,4.8c-.8,1.4-3.4.5-3.4.5-.3.2,2.1,4.4,5.1,3.4,0-7.2,8.6-9,11.6-3Z"/>
      <path class="st54" d="M147.4,61.6v3.3c0,.4-.3.8-.7.7-8.1-.7-12.5-.7-16.8-.5s-.4-.3-.2-.5c3.8-4.2,6.6-4.4,17-3.7.4,0,.7.3.7.7Z"/>
      <path class="st54" d="M161.4,62.9v3.4c0,.4.5.7.9.7,8.3-1,16.3.5,25.9,3.8.4.1.7-.3.4-.6-6.2-6.5-16-9-26.5-7.9-.4,0-.6.4-.6.7Z"/>
      <ellipse class="st35" cx="177.8" cy="97.2" rx="14" ry="7" transform="translate(-2.5 4.7) rotate(-1.5)"/>
      <path class="st38" d="M143.6,93.6c2.2-1.3,4.9-1.7,7.7-2-3,2.3-6,4.6-9,7-.2-.2,2.1,2.2,2.5,2.4,0,0,0,0,0,0,0,0-4.4-.6-4.9-2.5-.4-1.5,3.4-4.9,3.6-5ZM141.7,95.9s0,0,0,0c0,0,0,0,0,0Z"/>
      <path class="st65" d="M167.6,32.4l-26.1,2.9-10.5,32.2c6.6-13.6,20.3-29.4,35.5-32.5s2.9-3,1.2-2.6Z"/>
      <path class="st32" d="M221.9,84.4c0,0,0,.2,0,.3,0-.3.1-.4,0-.3Z"/>
      <path class="st32" d="M181,20.7c27-6.4,35.1-.5,43.1,11,0,0-5.6-12.9-17.9-14.7-14.9-2.1-25.1,3.8-25.1,3.8Z"/>
      <path class="st32" d="M215.9,88.6"/>
      <path class="st32" d="M232,51.5c.4-.2,1.7,13.7,8.1,31,5.2,14.2,8.3,15.3,10,25,2.7,15.7-2.2,29.8-2.5,29.7-.3,0,3.9-12.9,1-27.8-2.1-10.6-5.6-11.7-10.3-24.7-6.1-16.8-6.7-33-6.2-33.2Z"/>
      <path class="st12" d="M164.1,29.9c.9,4.4,3.5,14.4,12,23.6,10.1,10.8,22.1,13.8,26.4,14.6"/>
      <path class="st32" d="M123,75.2c.6-4.6.4-52.9,42.1-56.7,18.3-1.7,41.3-2,55.7,12.4,27.4,27.5,25.3,70.1,24.1,76.3,0,.1,0,.4-.2.9,0,0,.1,3.5-1,6.3-1.9,4.8-5.1,22.6,5.3,29.3-1.3,5-17.9,17.4-25.3,10.2-14.3-13.8-1.8-69.1-1.7-69.2,0,0,0-.1,0-.3,0,0,0,0,0,0,0,0,0,.3,0,.3-10.4,6.1-12.5,72,1.5,70.3,0,0,0,0,0,.2,0,2.1-17.1,7.9-25.2,1.9-1.2-.9-5.3-4.6-4.3-19.2.6-8.9,3.1-24.1,14.6-43-.5,3.3-3.2,15.3-8.5,27-2.8,6.1-7.5,11.7-10.4,16.9-3,5.5-3.2,11.2-6,13.2-6.1,4.4-8.5,0-8.5,0,6.8,1,8.4-3.8,8.7-4.4.3-.5,1.9-8.4,4.9-13.5,7.6-13.1,10.2-26.7,10.2-26.7,3.7-19.1-1.3-35.6-4.1-43.1-15.1-8.6-24.2-20.7-26.3-32.1-27.8,3.6-36.5,22.6-38.3,49.7-1.1,2.4-3.3,6.3-3.7,9.1l-5-1c.5-5.4,1.1-10.5,1.6-14.7Z"/>
    </g>
    <g>
      <path class="st19" d="M192,67.9c0,2,1.6,2.7,2.9,2.6,2.5-.3,4.7-2.3,6.8-3.8,0,0,0,0,.1,0,0,0,0-.2,0-.2,0,0-.1,0-.2,0,0,0,0,0,0,0-1-.4-1.9-.4-2.9,0-.1,0-.1-.2,0-.2,1-.5,2-.5,3,0,0,0,0,0,0,0,0,0,0,0,0,0-1.2-1-2.4-1.4-3.8-1.3,0,0-.1-.2,0-.2,1.4-.2,2.8.3,3.9,1.4,0,0,0,0,0,0,0,0,0,0,0,0-.5-.9-1-1.9-1.5-2.8-.5-.7-1-1.4-1.6-2,0,.2.2.3.2.5,0,0,0,0,0,0-.1-.5-.4-.8-.7-1,0,0,0-.1,0-.1-.2-.2-.4-.3-.6-.5-1.1-.7-2.5-1.2-3.6-.5-.6.4-1,1.1-1,2,0,1.1.8,2,1.5,2.6,0,0,.1.3,0,.3-1.1.6-2.5,1.5-2.5,3.3ZM192.7,69.2c-.2-.4-.4-.8-.4-1.3,0,0,0,0,0,0,0,.4.1.9.3,1.3,0,0,0,.1,0,0ZM192.9,68.4c0,0,0,0,0,0,0-.3,0-.7.1-1,0,0,0,0,0,0,0,.3-.1.6-.1.9ZM197.7,60.8c0,0,0-.1,0-.1.3,0,.6.3.7.6,0,0,0,.1,0,0-.2-.3-.4-.5-.7-.6Z"/>
      <path class="st19" d="M195,74.6c0,1,.1,2.3,1,2.6.7.2,1.4-.3,2-.7.1,0,.3,0,.2.2-.4,1.4.5,2.8,1.6,2.9,1.3,0,2.2-1.3,2.6-2.8.8-2.8.4-6.3-.2-9.1,0,0,0,0,0,0,0,0,0,0,0,0-.1,1.4-.6,2.7-1.4,3.6,0,0-.2,0-.1-.2.8-1,1.2-2.1,1.4-3.5,0,0,0,0,0,0,0,0,0,0,0,0-.5.8-1.1,1.4-1.8,1.8,0,0-.2-.1,0-.2.7-.4,1.3-1,1.8-1.7,0,0,0,0,0,0,0,0,0,0-.1,0,0,0,0-.2,0-.3,0,0,0,0,0,0,0,0,0,0,0-.1,0,0,0,0,0,0-1.4,1.1-2.9,2.2-4.5,3-.3.1-.5.3-.8.4h0s0,0,0,0c0,0,0,0,0,0-.3.6-.7,1.1-1,1.7-.3.8-.6,1.7-.6,2.6ZM196.4,72c0,0-.1,0,0,0,.2-.4.6-.7.9-.8,0,0,0,.1,0,.1-.3.2-.6.4-.9.8ZM196.8,71.1s0,0,0,0c.2-.3.5-.5.8-.5,0,0,0,0,0,0-.3,0-.5.2-.7.5ZM199.8,78.3c0,0,0-.1,0-.1.2,0,.4,0,.6-.2,0,0,0,0,0,0-.2.2-.4.2-.7.2ZM200.2,78.8c0,0,0-.1,0-.1.3,0,.6,0,.8-.3,0,0,.1,0,0,.1-.2.3-.6.5-.9.3Z"/>
      <path class="st19" d="M198.7,55.2c-1.2.9-.4,2.9.1,4,1.1,2.2,2.2,4.3,3.3,6.5,0,0,0,0,.1,0,0,0,0,0,0,0-.2-1.6-.6-3.1-1-4.7,0-.1.1-.2.2,0,.5,1.4.8,3,1,4.6.3-1.4.3-2.7.2-4.1,0-.1.2-.1.2,0,.1,1.2,0,2.5-.2,3.7.4-1.1.9-2.1,1.4-3,0,0,0,0,0,0,.8-1.5,1-3.7.8-5.5-.1-1.1-.6-3.1-1.7-2.4-.6.4-1.1,1.4-1.6,2.1,0,0-.1,0-.2,0-.7-.8-1.7-1.6-2.6-.9ZM198.4,56.9c0-.4,0-.7.3-1,0,0,.1,0,0,.1-.2.2-.3.5-.2.8,0,0,0,.1,0,0ZM204.3,57c0,.1-.1,0-.1,0,0-.5,0-.9-.2-1.4,0,0,0-.1.1,0,.1.5.2.9.2,1.4ZM204.5,57.6c0,0,0,0,0,0,0-.5,0-.9,0-1.4,0,0,0,0,0,0,0,.5,0,1,0,1.4Z"/>
      <path class="st19" d="M203.1,74.8s0,0,0,0c.3,1.5.7,3.5,2.2,3.1,1.3-.4,2.4-2.3,1.9-4,0-.1,0-.2.2-.2.6.1,1.4.3,1.8-.4.3-.5.1-1.3,0-1.8-.3-.9-.7-1.7-1.3-2.3-1.1-.7-2.2-1.3-3.4-1.4-.6,0-1.3,0-1.9,0,1.4.6,2.6,1.9,3.4,3.5,0,.1,0,.2-.1,0-.8-1.6-1.9-2.7-3.3-3.4,0,0,0,.1,0,.2,0,0,0,0,0,0,.6.9,1.2,2,1.3,3.2,0,.1-.1.2-.2,0-.3-1.2-.7-2.2-1.3-3.2,0,0,0,0,0,0,.3,1.9.5,3.9.5,5.9,0,.3,0,.5,0,.8ZM208.4,71.5s0-.1,0,0c.3.2.4.6.3,1,0,0,0,0,0,0,0-.3,0-.7-.3-.9ZM209.1,72.8c0,0-.1,0,0,0,0-.4,0-.8-.2-1.2,0,0,0-.1,0,0,.2.4.3.8.2,1.3Z"/>
      <path class="st0" d="M202,67.1s0,0,0,0c.9.7,2.2.2,3.2.5,1,.2,2,.8,2.9,1.4,1,.7,1.9,1.6,2.7,2.6.5.5.9,1.1,1.4,1.6,0,0,0,0,0,0,.2.3.6,1.1.8,1.4-1.1-2.3-2.6-4.8-4.3-6.3-.9-.8-1.9-1.5-3-1.9-.6-.3-2.4-1.1-3.3-.7,0,0,0,.2-.1.3,0,0-.2,0-.1,0,0,0,0,0,0,0-.1,0-.2.2-.2.3,0,0,0,0,0,0,0,0,0,.1,0,.1,0,0,0,0,0,0,0,.1,0,.3,0,.5,0,0,0,0,0,.1ZM202.4,66.5s-.1,0,0-.1c.2-.2.5-.4.8-.4,0,0,0,.1,0,.1-.3,0-.5.1-.7.3Z"/>
      <path class="st19" d="M202.9,65.4s0,0-.1.1c.4,0,.7,0,1,0,1.4.3,2.7.9,3.9,1.8.2.1.3.2.5.3,0,0,0,0,0,0,1-.2,2.7-.2,2.8-2,0-1.7-1.3-2.5-2.3-3-.1,0-.1-.2,0-.3.6-.9,1.7-3.3.1-3.9-1.1-.4-2.3.7-3,1.6-1.2,1.5-2.1,3.4-2.9,5.3,1.1-1.3,2.5-2.5,3.8-3.3,0,0,.1,0,0,.1-1.3,1.1-2.5,2.1-3.7,3.2,1.1-.4,2.3-.7,3.5-.9,0,0,.1.2,0,.2-1.2.2-2.4.5-3.5.8,0,0,0,0,0,0ZM205.4,61.1s0,0,0,0c.2-.4.5-.6.9-.7,0,0,0,0,0,0-.3.1-.6.4-.8.7ZM205.5,60.7c0,0-.1,0,0,0,.2-.4.5-.6.9-.7,0,0,0,0,0,.1-.3.1-.6.4-.8.7Z"/>
      <path class="st15" d="M211.4,73.8c0,.3.2.6.4.4,0-.2.1-.3.2-.4,0,0,0-.2,0-.3-.1-.2-.2-.3-.4-.5-.1.2-.3.4-.3.7Z"/>
      <path class="st15" d="M212.3,73.8c-.2.4-.5.8-.3,1.3.1.3.4.4.5.2,0-.3,0-.5.1-.8,0,0,0-.2,0-.3-.1-.1-.2-.2-.3-.4Z"/>
      <path class="st15" d="M212.7,75.2c0,.2,0,.4.2.6.3.3.3-.3.4-.5,0-.2,0-.3,0-.5,0,0,0,0,0,0-.1-.1-.2-.2-.3-.3,0,0,0,.2,0,.2,0,.2,0,.4,0,.6Z"/>
      <path class="st15" d="M212.4,72.5h0c.1.3.3.5.4.8,0,0,0,0,0,0,.2-.2.4-.3.6-.3.1,0,.2-.2.2-.3,0-.3-.3-.5-.4-.5-.2,0-.5.2-.7.3,0,0,0,0,0,0Z"/>
      <path class="st15" d="M212.9,73.4s0,0,0,0c.1.3.3.6.4.9,0,0,0,0,0,0,0,0,0,0,0,0,0,0,0,0,0,0,0,0,0,0,0,0,.2-.2.5-.3.8-.3,0,0,0,0,0-.1.1-.2,0-.3,0-.3-.3-.2-.6-.2-.9,0-.1,0-.2.1-.3.2,0,0,0,0,0,0Z"/>
      <path class="st15" d="M213.4,74.9c0,.3,0,.7.2,1,0,.2.2.4.3.5.2.2.5,0,.5-.3,0-.6-.5-1-1-1.2,0,0,0,0,0,0,0,0,0,0,0,0,0,0,0,.1,0,.1Z"/>
      <path class="st15" d="M213.5,74.3c0,0-.1,0-.2.1,0,0,0,.1,0,.2,0,0,.2,0,.2,0,.3,0,.7.3.9,0,.4-.3-.1-.7-.4-.7,0,0,0,0,0,0-.2.2-.4.2-.6.2Z"/>
    </g>
  </g>
  <path class="st59" d="M25.3,277.3s-6.1-4-8-5.4c-2.5-1.9-6.1-4.6-4.5-5.1,2.4-.6,11.6,6.2,11.6,6.2,0,0-14.4-10.8-12.5-13.2,2.2-2.7,16,9.1,16.1,9,0,0-17.6-13.7-15.4-16.4,1.8-2.2,19.3,12.1,20.3,11.4,0,0-16.2-13.5-15.2-16.1,2.6-3,20,12.8,24.4,15.8,4.6,3-5.4-9.6-.5-11.9,4,.2,8.7,14.8,9.1,15.8,2.6,6.3,3.8,7.7,1.9,9.8s-2.4,9.6-6.7,8.8-10.3.4-20.6-8.6Z"/>
  <path class="st30" d="M43.4,263.7c-.7,0-3.3-7.6-3.1-8.8"/>
  <path class="st30" d="M32.9,263.8c-1.1-.4-14.6-13-14.8-14.7"/>
  <path class="st30" d="M28.2,268.6c-1-.4-14.2-10.7-14.1-12.3"/>
  <path class="st30" d="M23.5,272.4c-1-.2-12.1-9.6-11.6-11.3"/>
  <path class="st4" d="M160.6,114.6c-2,.9-3.9,1.5-5.9,1.9-4.7.9-9.4.4-14.1-2"/>
</svg>