<?xml version="1.0" encoding="UTF-8"?>
<svg id="Layer_1" xmlns="http://www.w3.org/2000/svg" version="1.1" xmlns:xlink="http://www.w3.org/1999/xlink" viewBox="0 0 292.4 845">
  <!-- Generator: Adobe Illustrator 29.2.1, SVG Export Plug-In . SVG Version: 2.1.0 Build 116)  -->
  <defs>
    <style>
      .st0 {
        fill: #9d2d46;
        stroke: #a6304a;
      }

      .st0, .st1, .st2, .st3, .st4, .st5, .st6, .st7, .st8, .st9, .st10, .st11, .st12, .st13, .st14, .st15, .st16, .st17, .st18, .st19, .st20, .st21 {
        stroke-miterlimit: 10;
      }

      .st0, .st4, .st11, .st17, .st19 {
        stroke-width: .5px;
      }

      .st1 {
        stroke: #747560;
      }

      .st1, .st2, .st12, .st21 {
        fill: none;
      }

      .st2, .st14 {
        stroke: #000;
      }

      .st22 {
        fill: #fcf8cd;
      }

      .st23 {
        fill: #bfbb9c;
      }

      .st24 {
        fill: #332024;
      }

      .st25 {
        fill: #462e34;
      }

      .st26 {
        fill: #6f705c;
      }

      .st3 {
        stroke: #82826c;
      }

      .st3, .st6 {
        fill: #878771;
      }

      .st4 {
        fill: #1b8054;
        stroke: #197949;
      }

      .st5 {
        fill: #231f20;
      }

      .st5, .st6 {
        stroke-width: .8px;
      }

      .st5, .st6, .st15 {
        stroke: #231f20;
      }

      .st6 {
        opacity: .1;
      }

      .st27 {
        fill: #cf9180;
      }

      .st7 {
        fill: #d44569;
      }

      .st7, .st8, .st18, .st20 {
        stroke: #c73e5a;
        stroke-width: .2px;
      }

      .st28 {
        fill: #fff14d;
      }

      .st29 {
        fill: #636352;
      }

      .st30 {
        fill: #f38e7f;
        opacity: .4;
      }

      .st8 {
        fill: #cc4063;
      }

      .st31 {
        fill: #da6869;
        opacity: .6;
      }

      .st32 {
        fill: #fffcfc;
        opacity: .8;
      }

      .st33 {
        fill: #fff;
      }

      .st9 {
        fill: #f7a698;
        stroke: #e3a18d;
      }

      .st34 {
        fill: #e28577;
      }

      .st35 {
        fill: #1e7d54;
      }

      .st36 {
        fill: #70754d;
      }

      .st10 {
        fill: #81816b;
        stroke: #787963;
      }

      .st37 {
        fill: #c04a56;
        opacity: .7;
      }

      .st38 {
        fill: #6e6f5c;
      }

      .st11 {
        fill: #218f64;
        stroke: #198059;
      }

      .st12 {
        stroke: #cc6c5b;
        stroke-linecap: round;
      }

      .st12, .st39 {
        opacity: .4;
      }

      .st40 {
        fill: #2e0e01;
      }

      .st41 {
        fill: #787963;
      }

      .st42 {
        fill: #994638;
      }

      .st13 {
        stroke: #ba4e55;
      }

      .st13, .st43 {
        fill: #c15259;
        opacity: .4;
      }

      .st44 {
        fill: #2c2a14;
      }

      .st45 {
        fill: #81816c;
      }

      .st46 {
        fill: #393f36;
      }

      .st47 {
        fill: #31242d;
        opacity: .3;
      }

      .st14 {
        fill: #1e2722;
      }

      .st48 {
        fill: #0e2e19;
      }

      .st49 {
        fill: #7c7c66;
      }

      .st15 {
        fill: #6d6e5a;
      }

      .st16 {
        stroke: #e5a290;
      }

      .st16, .st50 {
        fill: #f2ab95;
      }

      .st51, .st18 {
        fill: #df4665;
      }

      .st52 {
        fill: #c55d29;
      }

      .st53 {
        fill: #b1862d;
      }

      .st17 {
        fill: #249b6c;
        stroke: #219165;
      }

      .st54 {
        fill: #0c0706;
      }

      .st55 {
        fill: #005236;
      }

      .st56 {
        fill: #222620;
      }

      .st57 {
        opacity: .4;
      }

      .st58 {
        opacity: 1;
      }

      .st59 {
        fill: #777863;
      }

      .st19 {
        fill: #12734b;
        stroke: #056139;
      }

      .st60 {
        fill: #d7685d;
        opacity: .5;
      }

      .st61 {
        fill: #230c0c;
      }

      .st20 {
        fill: #cc3e61;
      }

      .st62 {
        fill: #f7b295;
      }

      .st63 {
        fill: #b25e4a;
      }

      .st64 {
        fill: #605f44;
      }

      .st65 {
        fill: #ac4727;
      }

      .st66 {
        fill: #e47875;
        opacity: .3;
      }

      .st21 {
        stroke: #6f705c;
        stroke-linecap: square;
        stroke-width: 2px;
      }
    </style>
  </defs>
  <g>
    <g>
      <path class="st14" d="M71.1,830.1c-5.3-.3-10-3.2-12-7.8s-2.4-10,6.1-15.3c14.4-8.9,25.6-15.4,26.9-20.5,4.7-17.7,8.6-25.8,10.1-47.7,0,0,37-11.8,37.5,2.1.5,13.2-6.6,25-8.6,35.7-3.8,20-3.1,32.3-1,41.8.6,3,.2,5.1,0,5.7-2.5,8.9-41.2,7-59.1,6.1Z"/>
      <path class="st2" d="M97.6,815.8c-8.1-10.7-16.5-17-25.2-13.3"/>
      <path class="st2" d="M59.2,815.6c3.8,12.8,37.2,11.6,70.5,6.6"/>
    </g>
    <path class="st14" d="M205.5,731.4s3.7,16.1,2.3,33.6c-1.3,16.6-8.7,30.6-9.7,40.7-.5,8.6-.4,16.6,1.6,22.4,3.2,1.7,12.5,6.4,25.1,5.6,10.1-.6,17.3-4.3,20.5-6.2.6-2.2,1.3-5.5,1.6-9.5.4-6.7-1-11.5-3.1-19.3-1.2-4.3-3.1-11.2-5.8-21.7-.7-15.2-.2-29.8,1.9-43.7-10.7,2-22.3,1-34.3-1.7Z"/>
    <path class="st2" d="M204.9,808.7c9.6-10,31.9-6.8,35.5.3"/>
    <path class="st2" d="M244.9,819.2c-15,6.2-30,6.4-45,.3"/>
  </g>
  <g>
    <path class="st10" d="M253.8,400.6c.6,35.4,5.3,29.8,5.9,65.1.4,27.6,1,93.8-1,122.2-2.5,35.5-7.8,38.5-7.1,46.8,1,13.3,6.4,19,4.6,40.3-.7,7.7-1.4,20.5-3.4,30.7-1.9,9.8-1.4,20.5-4.6,35.9-.7,3.5-4,6-7.5,7.1-8.8,2.5-12.6,1.1-14.1,1.4-5.6,1-8.1-.5-21.5-.7-2.7,0-5.7-2.8-5.7-5.5l-10.5-174.3-.6-97.9c-2.6,32.8-4.6,65.4-10,97.9-4.7,28.1-12.8,56.2-15.1,84.6-.7,8.4-8.1,25.5-8.7,33.9-.7,9.3-4.9,23.6-5.7,33-.7,9.2-3.4,15.5-3.5,24.7,0,3.7-8.9,12.5-12.7,12.6-15,.5-24.6,2.6-39.5-1-7.6-1.9-3.4-14.8-3.4-19.4,0-7.9,1.6-16.8,1.4-22.3-.2-6.8,5.5-21.7,6-33.9.6-14.6,6.3-35.4,7.1-47,2-29.3,3.2-56.2,3.2-56.2,3.2-34.2,12-70.3,12.5-93.8.5-21.5,1.9-50.6,6-85.3l127.9,1.1Z"/>
    <path class="st1" d="M205.3,462.6c-15.5,3.8-19.5.5-35,4.3"/>
    <polyline class="st41" points="255.4 420.3 237.5 420.3 240.6 477.2 259.5 482.2"/>
    <path class="st1" d="M196.5,414.7c-3.5,10.4-4.5,20.8-2.7,31.2"/>
    <polyline class="st41" points="125 421.3 144.5 420.3 141.4 477.2 120.4 480.6"/>
    <polygon class="st38" points="258.7 435.3 236.3 435.9 236 420.3 255.9 420.3 258.7 435.3"/>
    <polygon class="st38" points="122.4 434.3 144.8 435 145.1 419.4 125.1 419.4 122.4 434.3"/>
    <polygon class="st41" points="124.6 420.7 145 420.6 145.1 419.4 125.1 419.4 124.6 420.7"/>
    <polygon class="st41" points="256.4 421.4 236 421.3 236 420.1 255.9 420.1 256.4 421.4"/>
    <g>
      <path class="st5" d="M135.3,431.8"/>
      <ellipse class="st15" cx="183.8" cy="409.2" rx="1.4" ry="4.6" transform="translate(-13.6 6.4) rotate(-1.9)"/>
      <ellipse class="st15" cx="191" cy="409.1" rx="1.8" ry="4.6" transform="translate(-13.8 6.8) rotate(-2)"/>
      <path class="st64" d="M193.9,405.5c19.9-.4,40-2.3,60-2.7.2,3.3.3,6.7.5,10-19.8.4-31.8,1.3-51.6,1.8,0,0-8.6.1-11.5,0l-.4-9.2c2.9.1,3,.1,3,.1Z"/>
      <path class="st64" d="M126,401.4c21.5-.5,38.3,4.9,57.7,4.5v7.9c-20.6,1.3-38,.3-59.1-.7.4-3.4,1-8.3,1.4-11.7Z"/>
      <path class="st21" d="M243.8,403.1c0,2.2.9,2.3,1,4.9,0,1.8-.3,3.2-.5,5.3"/>
      <polygon class="st54" points="185.9 412.8 189 412.7 189.2 405.5 185.1 405.6 185.9 412.8"/>
      <path class="st21" d="M134.9,403.8c0,2.1-.8,2.2-.7,4.6,0,1.7.5,3,.8,4.9"/>
      <path class="st21" d="M220.7,404c0,2,.7,2.1.8,4.4s-.2,2.9-.3,4.8"/>
      <path class="st21" d="M163,405.5c.1,1.9-.5,2-.4,4.1,0,1.5.5,2.7.7,4.4"/>
    </g>
    <g class="st57">
      <image width="203" height="85" transform="translate(88.1 363.2)" xlink:href="explain-man-soldier-1.png"/>
    </g>
  </g>
  <g>
    <path class="st9" d="M155.6,109.3c-.4-10.9-3.7-13-8.4-13s-4.7,11.7-.6,18.7c4.6,8,10.2,9.3,10.6,9,0,0-1.4-10.6-1.6-14.8Z"/>
    <path class="st50" d="M214.1,135.5s-5.3,35,2.6,43.4c6.6,7,10.8,6,10.9,10.2.3,10.7-59.4,14.3-64.3,4.7-1.9-3.8,11.1,2.7,13.6-9.5,3.3-15.6-2.2-33-2.2-33l39.4-15.9Z"/>
    <path class="st37" d="M212.2,145.9c2.8,1.9-19.5,32.1-34.3,27.6,0-6.3-.7-12.2-2.1-18.1l36.4-9.6Z"/>
    <path class="st16" d="M230.4,113.9c-.9,21-17.2,36.8-33,42.7-6.9,1.2-13.9,1.6-20-.2-7.4-4-13.4-15.7-20-29.1-2.7.3-7.7-48.1.1-64.2,7.1-14.6,27.7-13.6,34.4-14.2,1.7-.1,15.4-1.2,17.1,3.5.7,1.7.6,1.9,1.3,4,1.5,4.3,7.7,3.5,10.5,7.8,2.2,3.4.9,6.1,1.3,13.1.4,6,1,8.5,3.9,14.8,0,0,4.9,9.8,4.4,21.9Z"/>
    <path class="st31" d="M225.5,75.6c-4.2-.8-14-12.7-30.8-13.7-25.7-1.5-36.3,21-41.5,22.7s2.4-24.3,2.4-24.3c1.3,3.8,40.5-17.1,58.4-9,16.6,7.5,16.9,25.3,11.6,24.3Z"/>
    <path class="st25" d="M229.2,121.1c-2.1,8.1-5.4,14.8-10.2,19.6l-2.4,3.4c5.5-6.1,13-13.7,16.2-22l-3.6-1Z"/>
    <path class="st9" d="M231,107.8c.5-10.9,3.6-12.3,10.4-13.1,5.8-.7,7.8,10,4.3,18.9-3.5,8.8-15.8,9.1-16.2,8.8,0-.8,1.4-10.4,1.6-14.6Z"/>
    <path class="st12" d="M243.6,99.6c-3.9.4-7,.8-9.3,3.4"/>
    <path class="st43" d="M229.7,116.8c2.1.3,4.3-1.8,4.6-4.4.3-2.6-1.9-6.7-3.2-5.1s-2.2,9.4-1.4,9.5Z"/>
    <g class="st39">
      <path class="st42" d="M229,123.1c.6-3.4.9-6.8.7-10.2.6,3.4.6,6.9.3,10.4h-1Z"/>
    </g>
    <g>
      <path class="st25" d="M125.3,52.7s22.8-2.6,18.5-5.2c-1.5-.9-12.9-10.2-10.2-13.4,3,1.7,25.2-.8,20.7-2.8-1.2-.5-10-9.3-9-11.7,4.5,1.9,11.8,3.9,19.3,3.3,24.1-2.1,28.2-7.2,42.8-3,14.8,4.3,23.9,19.7,23.3,17.5-.5-1.8-6.3-13.6-6.3-13.6,8.5,8.5,11.8,16.6,11.8,16.6,0,0,10.4,3.1,13.6,3.7s.3.5,0,.5c-4.5.6-10,1.8-9.3,3.1,1.3,2.5,7.6,4.9,9.3,12.3,1.8,7.6-1.4,15.9-4.7,22.4-2.7,5.4.4,9.7-1.1,12-1.7,2.7-8.3-.5-10.3,3.3-2.2,4.3-4.1,16.1-4.1,16.1l-3.5-.5s1.4-10.6,0-20.2c-.7-4.7-2.3-4.6-4-9.4-2.8-8.3,1.6-10.5-.9-17.4-1.9-5.3-7.4-4.7-11.5-7.2-1.3-.8-1.4-5-1.4-5,0,0-10.1-8.7-17.7-2-8.3,7.3-23.4,9.3-32.2,11.4-6,16.2-5.6,27.4-4.9,42.2,0,0-2.3-9.6-8.8-20.9-.5-.9,4.1-1,4.1-1l-8.9-9.1c-.5-.5-.7-1.2-.5-1.9.9-3.7,4-5.4,8.4-6.9l5.3-1.2c-17,2.6-29.4-10.1-28.1-12.1Z"/>
      <path class="st47" d="M239.1,95.5s2.9-26.6-2.2-33.9c-3-4.3-17.3-10.5-17.3-10.5.3-10.2-9.4-15.6-23-15.4-32.3.5-27,19.4-46.9,17.8-1.9,2.4,4.7,8.6,3.7,11.5-3.9,11.2-3.1,24.7-.4,38.3-1.5-15.9-2.4-30,5.7-39.5,2.4-2.5,15.2-1.6,29-8.9,2-1.1,6.5-5.9,11.8-4.9,12,2.1,10.4,9.5,10.4,9.5,0,0,8.2,2.3,11.2,6,1.9,2.3-.5,11.6.8,17.3,1.7,7.2,6.2,10.3,4.4,10.7.9,0,0,20.2,0,20.2,0,0,3,.2,3.5.5s2.9-13.9,4.2-16.5c1.2-2.3,4-2.2,5.1-2Z"/>
    </g>
    <g class="st39">
      <path class="st42" d="M154.6,118.1c-.4-4.8-1.1-9.7-.9-14.6.1,4.9,1,9.7,1.7,14.5h-.7Z"/>
    </g>
    <path class="st24" d="M187.1,83.8l.6,5c8.8,0,17.7-2.2,32.5-1.6-4.5-5.1-22.1-5.3-33.1-3.4Z"/>
    <path class="st63" d="M181.1,134.3c2.5-.4,5.1-.1,7.6-.5,2.5-.3,5-.9,7.6-1.2,0,0-.2,0-.2,0,1.4-.7,2.8-1.3,4.3-1.9,0,0,0,0,0,0,0,0-4,2.4-4,2.4-4.9,1.3-10.6,2.3-15.4,1.1h0Z"/>
    <path class="st34" d="M177.7,114.2c1.6-3.2,4.1-5.1,7.2-7.2-1.8,5.1-6.3,8.5-5.1,14.4-.1.4,3.8,2.7,4.5,2.8,0,0,.1,0,.1,0,0,.1-5.8,1.9-7.8-.5-1.6-1.8.9-9.3,1.1-9.5ZM176.5,118.8s0,0,0,0c0,0,0,0,0,0Z"/>
    <path class="st66" d="M227.3,95.6l-30.3,5.7c-1.4,0-7,.9-8-4.2l-1-7.6c6.6.1,25.9-2.8,35.9-1.7l3.4,7.8Z"/>
    <path class="st30" d="M157.3,104.3c-1.5-4.2-1.5-8.6-1.3-12.9-.6,1.3,10-3.3,19.8-1.3l.5,5.7c-.2,1.7.4,5.8-1,7.6-6,.7-11.9,1-17.9,1.1,0-.1,0-.2,0-.2Z"/>
    <g>
      <path class="st32" d="M195.4,99.9c.2,3,4.4,5.2,9.5,4.9s9-2.9,8.9-5.9c-.2-3-3.4-6.3-9.5-5.9s-9,4-8.8,7Z"/>
      <ellipse class="st40" cx="203.9" cy="97.8" rx="4.6" ry="4.5"/>
      <path class="st61" d="M195.5,98.4c1.8-6.9,8.1-6.4,11.8-5.9s7,4.4,6.3,7.4c-.2-7.8-13.3-9.9-18.1-1.5Z"/>
    </g>
    <g>
      <path class="st32" d="M174.4,101c.2,2.7-2.7,5-6.3,5.2-3.6.2-6.7-1.8-6.9-4.4-.2-2.7,1.8-5.9,6.2-6.1s6.8,2.7,6.9,5.4Z"/>
      <ellipse class="st40" cx="168.5" cy="100.3" rx="4.3" ry="4.3"/>
      <path class="st61" d="M174.2,99.6c-1.9-5.9-6.4-4.9-8.9-4.2s-4.6,4.5-3.8,7.1c-.6-6.9,8.6-10,12.8-2.9Z"/>
    </g>
    <path class="st13" d="M154.6,116.1c-3.2,1.2-7.2-6.8-7.4-9.9-.2-3.1,6.1-3.8,6.2-1.4,0,1.5,1.5,11.2,1.2,11.3Z"/>
    <ellipse class="st33" cx="207.7" cy="96.2" rx="1.6" ry="1.6"/>
    <ellipse class="st33" cx="171.7" cy="98.9" rx="1.6" ry="1.6"/>
  </g>
  <path class="st36" d="M157.6,236.8l64.6,3-.9-55.3s-22.7,17.5-50.6,1.4l-13.1,51Z"/>
  <path class="st62" d="M274.3,298.8c-2.7,29,4.5,53.7,1.9,82.7-2.1,22.6-7.8,45.1-9.9,67.7-7.4,2.3-14.7,4.7-22.1,7l4.4-138.7,25.6-18.7Z"/>
  <path class="st60" d="M283.6,288.9c-12.8,8.4-34.6,27-38,40.7,9.2-6.2,32.5-11.6,32.7-12.1l5.2-28.5Z"/>
  <path class="st62" d="M93.7,282.3c-1.7,14.3-5.6,27.7-8.3,38l-39.2-36.9c-7-1.5-10.6,4.7-12.7,9.2,17.3,21.5,30.4,43.9,51.2,62,5.2,4.5,14.3,6.9,18.3,7,9.9.3,13.5-18.1,13.5-18.1l7.5-43.1-30.3-18.2Z"/>
  <path class="st62" d="M13.9,277.5s-5.5-6.6-7.1-8.8c-2.2-2.9-5.2-7.3-3-7.1,3.1.3,11,11.1,11,11.1,0,0-12.4-17-9-18.7,3.8-1.9,15,15.9,15.2,15.8,0,0-14.9-21.2-11-23.2,3.1-1.6,17.7,20.2,19.2,19.9,0,0-13.2-20.5-10.9-22.8,4.5-2.1,18.1,21.3,22.1,26.1,4.2,5-2.1-12.2,4.8-12.6,4.8,1.8,3.8,18.9,3.8,20.1.3,7.7,1.1,9.5-2.2,10.9s-7.2,9-12,6.5-12.5-3.6-20.8-17.1Z"/>
  <path class="st27" d="M41.7,270.4c-.9-.2-.5-9.2.3-10.4"/>
  <path class="st27" d="M29.1,266.4c-1.2-.9-11.6-19.4-11-21.2"/>
  <path class="st27" d="M21.3,269.5c-1-.9-12.2-16.8-11.3-18.3"/>
  <path class="st27" d="M13.9,271.7c-1.1-.6-10.1-14.8-8.8-16.4"/>
  <path class="st62" d="M272.1,471.2s-1.1,10.5-1.1,13.4c0,3.9-2.2,7.2-3.9,5.9-2.6-1.8,1.2-15.1,1.2-15.1,0,0-3.8,23.4-7.8,23.4-4.6,0,.7-23.6.6-23.5,0,0-5.5,30-10.2,30s2.4-30.3.9-30.8c0,0-1.6,26.6-5.1,27.7-5.3-.2-2.2-29.8-2.6-36.5-.4-6.9,2.9,17.6-3.3,14.6-3-4.1,0-25,.6-26.2,5.2-8.3,3.6-19.7,14.3-21.1,6-.8,9.2-6.8,16.6,38.2Z"/>
  <path class="st27" d="M243.9,464.8c.6.7,1.2,13-.3,13.8"/>
  <path class="st27" d="M251.5,472.7c.5,1.4-1.4,26.2-3.1,27.7"/>
  <path class="st27" d="M260.5,475.3c.3,1.3-3.9,23.2-5.7,24.3"/>
  <path class="st27" d="M266.3,476.1c.6,1.2-1.7,19.9-3.8,20.8"/>
  <path class="st60" d="M119.9,324.4c.4-2.1,2.6-14.9,2.9-16.6.5-2.5-7.8-5.9-11.7-9-6.2-4.9-11.6-6.3-17.3-8.4-3.3,8.6-4.1,13.6-4.2,14.7.8-6.1,20,10.7,30.4,19.3Z"/>
  <path class="st3" d="M121.5,191.3c-17.5,8.9-27.5,59.9-31.7,87.7,9.4,8.7,24.3,14.5,35.2,19.8l2.9-33.2c-1.9,55.7-12.4,115.4-10.2,132,.3,2.4,2.3,4.3,4.8,4.7s6.4,1.6,13.4,2.1c1,0,4.9,1.5,11.9,2s14.7-1.6,17.3-1.4c11.2.7,11.7-.1,21.1.6,14.2,1,18.3,1.3,24.4.9,7.9-.6,9.5-1.1,22.5-3.6,7.5-1.4,19.2,2.1,22.8-2.7,3-4,.9-5.1.4-9.9-.6-5.4,0-11.4-3.6-18.4l-6.5-78.3,3.3,39.9c1.6-12.4,9.3-14.7,22.1-29.3,2.4,3.1,7.8,5.1,6.8,13.3,5.3-3.3,7.9-11.6,8.1-19.1l-2.6-19.7c-5.7-21.8-6.5-53.2-7.4-59.1-2.7-19.8-19.3-32.5-20.3-32.8l-42.4-10.5c.2,4.3,1.6,1,.3,3.8-8.1,18-15.5,36.7-24.8,49.5l-11.2-42.4-.6-8.9c0-.3-32.8,1.1-55.9,12.8Z"/>
  <path class="st49" d="M84.4,290.1c0,3.9.5,4.6,5.6,9.3,1.5-1.6,3.2-6,5.1-7.9,5.2,1.9,19.1,15.4,27,20.7,2.3-4.4,1.9-9.3,2-14.3-11.1-6.6-25.4-11.5-34.1-19.7-3.9,4.2-4.9,8.2-5.6,11.9Z"/>
  <path class="st6" d="M186.2,405.5c-1.1-13.9-.6-34.3,1.5-48.2,3.2-21.4,1.9-38.6.7-53.3-1.2-14.3-1-28.6.6-42.8,1.2-11.1.7-22.2.4-33.3"/>
  <polyline class="st5" points="89.7 298.5 90.6 299.4 94.6 291.7 93.3 291.4"/>
  <path class="st6" d="M262.7,225.7c-6.9,11.4-15.2,34.7-15.2,34.7,0,0-2.1,3.3-4.8,5.7"/>
  <path class="st49" d="M278.3,317.4c12.8-11.6,6.3-23.2,6.3-23.2l-36.6,7.7,2.3,24.9c15.8-17.8,25.7-25.3,28.1-9.4Z"/>
  <polygon class="st45" points="130.1 268.7 166 266 166 291.7 130.8 292.1 130.1 268.7"/>
  <path class="st59" d="M132.5,273.3l31.2-1.2,2.4-5.8s-.4-6.8-.5-10.2c-11.7.5-23.3,1-35,1.5,0,0-.3,10.4-.3,10.4l2.4,5.3Z"/>
  <g>
    <ellipse class="st46" cx="147.9" cy="267.1" rx="2.9" ry="2.4"/>
    <ellipse class="st56" cx="149.3" cy="267.2" rx=".7" ry=".6"/>
    <ellipse class="st56" cx="146.5" cy="267.2" rx=".7" ry=".6"/>
  </g>
  <g>
    <ellipse class="st46" cx="181.7" cy="249.6" rx="2.3" ry="2.2"/>
    <ellipse class="st56" cx="181.7" cy="248.5" rx=".5" ry=".5"/>
    <ellipse class="st56" cx="181.9" cy="250.6" rx=".5" ry=".5"/>
  </g>
  <g>
    <ellipse class="st46" cx="179.4" cy="289.6" rx="2.3" ry="2.2"/>
    <ellipse class="st56" cx="179.3" cy="288.5" rx=".5" ry=".5"/>
    <ellipse class="st56" cx="179.6" cy="290.6" rx=".5" ry=".5"/>
  </g>
  <ellipse class="st46" cx="181.6" cy="335.2" rx="2.3" ry="2.2"/>
  <ellipse class="st56" cx="181.6" cy="334.1" rx=".5" ry=".5"/>
  <ellipse class="st56" cx="181.8" cy="336.2" rx=".5" ry=".5"/>
  <ellipse class="st46" cx="179.3" cy="377.4" rx="2.3" ry="2.2"/>
  <ellipse class="st56" cx="179.3" cy="376.3" rx=".5" ry=".5"/>
  <ellipse class="st56" cx="179.5" cy="378.4" rx=".5" ry=".5"/>
  <polygon class="st45" points="245.6 271.4 209.4 268.5 209.4 296.5 245 296.9 245.6 271.4"/>
  <path class="st59" d="M243.2,276.5l-31.5-1.3-2.4-6.3s.4-7.4.6-11.1c11.8.6,23.6,1.1,35.4,1.7,0,0,.3,11.3.3,11.3l-2.4,5.8Z"/>
  <g>
    <ellipse class="st46" cx="227.7" cy="269.7" rx="2.9" ry="2.6"/>
    <ellipse class="st56" cx="226.2" cy="269.8" rx=".7" ry=".6"/>
    <ellipse class="st56" cx="229.1" cy="269.8" rx=".7" ry=".6"/>
  </g>
  <g>
    <path class="st65" d="M274.6,206c-1.2-5.4-5.2-9.9-8.4-12.7-.9-.8-11.5-8.9-19.5-6-7.2,2.7-6.5,4.8-12,9.8-8.1,10.4,15.9,23.8,24.2,25.4.9.2,1.8.3,2.6,0,3.4-1.6,15-7.5,13-16.6Z"/>
    <path class="st44" d="M262.6,222.5c1.7-1.1,9.9-6.2,6.9-6.5-1.2-.3-3.1,2.5-8.2,6.2-1,.8.6.8,1.3.3Z"/>
    <g class="st58">
      <polygon class="st53" points="254.9 214.7 248.2 209.2 257.8 210.4 254.9 214.7"/>
      <path class="st53" d="M255.6,216.6c-.5.6,1.5,1,1.7.8,1.7-2.1,2.8-4.4,3.5-7,.2-.2-1.6-1.1-1.9-.4-.9,2.2-1.5,4.5-3.3,6.7Z"/>
      <path class="st53" d="M255.6,218.2c-.3.2,1.7.7,1.8.6.9-.5,1.2-1.2,1.1-2.1,0,0-1.8-.7-1.8-.5-.2.7,0,1.5-1,2Z"/>
      <path class="st53" d="M261.5,211.4c0,.3-1.8-.4-1.8-.5-.2-.9.2-1.6,1.1-2.1,0,0,1.9.4,1.8.6-.5.6-1.2,1.1-1,2Z"/>
      <path class="st53" d="M255.6,208.4c-2.7-.9-5.7-.2-6.5,1.6-.9,1.8.7,3.9,3.4,4.8s5.7.2,6.5-1.6-.7-3.9-3.4-4.8ZM252.9,213.9c-2-.6-3.2-2.2-2.5-3.5s2.8-1.8,4.8-1.2,3.2,2.2,2.5,3.5c-.6,1.3-2.8,1.8-4.8,1.2Z"/>
    </g>
    <g class="st57">
      <image width="107" height="88" transform="translate(200.1 165.2)" xlink:href="explain-man-soldier-2.png"/>
    </g>
    <g>
      <path class="st52" d="M276.6,204.2c-1-5.4-3.4-12.8-8.1-16.5s-8.8-4.9-16.3-.4c-7.1,4.3-20,12-19,13.1,0,2,14.8,6.2,36.8,15.8,4.9,2.1,8.5-1.3,6.5-12Z"/>
      <path class="st26" d="M275.9,216.5c-.3-18.1-9.7-29.1-28.5-32.7-2,1.4-5.3,3.9-7.3,5.3,11.7,8.2,23,17.4,32,31.1,1.3-1.3,2.6-2.5,3.9-3.8Z"/>
      <path class="st23" d="M276.5,213.4c0-15-10.4-28.4-23.5-28.2-1.9,1.5-8.6,5.3-10.5,6.7,8.7,7.9,19.9,13.9,27.8,25.7,1.3-1.3,4.9-3,6.2-4.3Z"/>
      <polygon class="st48" points="270.7 215.2 269.4 213.7 273.9 211 274.3 213 270.7 215.2"/>
      <polygon class="st48" points="268.6 212.7 266.9 210.8 272.8 207.2 273.3 209.9 268.6 212.7"/>
      <polygon class="st48" points="266.2 210 264.3 208 271 203.3 272.5 206.2 266.2 210"/>
    </g>
    <g class="st57">
      <image width="106" height="88" transform="translate(197.1 163.2)" xlink:href="explain-man-soldier-3.png"/>
    </g>
  </g>
  <path class="st5" d="M280,316.7c-2,1.6-4.7,2.7-6.7,2.5l-.5-10,6.9-4.5.4,12Z"/>
  <path class="st29" d="M189.3,229.1c7.4-3.1,13.9-10,25.7-17.8-1.7-3.4-2.5-7.1-3.5-11.3-.1-.6.4-1,1-.8,9.3,3.1,15.8,3.8,21.8,4.6.7,0,1.6-.7,1.3-1.4-3.4-7.4-15.3-20.8-22-31"/>
  <path class="st29" d="M189.3,229.1c-6.3-4.8-13.1-14.7-22.5-24.4,2.4-1.9,4-4.3,5.8-7.1.3-.4-.2-.6-.8-1-7.9-5-12.4-6.7-18-7.6s11.4-9.3,24.1-17.1"/>
  <g>
    <path class="st26" d="M106,210.5c8.1-21,21.4-25.5,32.9-26.7.7,2.4,1.6,6.4,2.3,8.8-11.2,5-22.5,11.4-34.3,23.8-.3-2-.6-4-.9-5.9Z"/>
    <path class="st23" d="M107.3,205.6c8.3-15.9,19.1-20.8,28.2-21.4.6,2.2,2.2,8.9,2.8,11-8.8,5.2-17.6,9.6-28.3,19.6-.3-1.8-2.5-7.5-2.7-9.2Z"/>
    <polygon class="st48" points="111.1 211.5 112.9 209.9 110.7 203.7 109.3 206.5 111.1 211.5"/>
    <polygon class="st48" points="114 208.5 116.4 206.4 113.5 198.3 111.7 202.1 114 208.5"/>
    <polygon class="st48" points="117.4 206.4 120 204.4 117 194.3 114.3 197.7 117.4 206.4"/>
  </g>
  <path class="st6" d="M125.9,228.6c1.9,13.2.6,37.9.6,37.9,0,0,.7,3.9,2.2,7.1"/>
  <path class="st60" d="M82.9,318.8c2.2,2.7,5,4.8,8.8,6.1v-1.2c-2.9-1-5.6-2.8-8.3-5.7"/>
  <g>
    <g>
      <path class="st11" d="M231.1,191.8c-.4-.3-1.3-.6-1.4-1.4-.1-.5.1-1,.5-1.2.7-.3,1.6.2,2.2.6.6.4,1.2.9,1.7,1.6.3-2.5-.2-4.8-.8-6.9-.7-2.4-1.8-5.4-3.8-4.8,0,5.8-1.4,11.8-3.2,17.2-2.2,6.7-5.2,13.9-9.4,17.9,0,0-.1-.1,0-.2,4-4.3,6.9-10.9,9.1-17.6,1.9-5.7,3.2-11.8,3.2-17.8-2.6,2.4-5.4,5.1-6.8,9.6.4-.2.8-.3,1.2-.3,0,0,.1.1.1.3-.4,1.6-1.7,2-2.5,3.1-1,1.4-1.6,3.3-2.1,5.1,1.7-.8,3.4-.9,5,0,0,0,.1.2,0,.4-1,1.5-2.4,1.4-3.6,1.6-1.8.3-3.5,1.9-4.2,4.8.6-.1,1.2-.2,1.8-.2.5,0,1.2-.2,1.6,0,.7.4.4,1.3-.2,1.8-.7.7-1.6.6-2.4.6-1.3,0-2.6.7-3.1,2.9.9-.2,1.8,0,2.5.7,0,0,0,.2,0,.3-.8,1.3-1.9.3-2.8,1-1.5,1.3-2.1,4.6-2.5,6.9,0,.3-.1.5-.2.8-.1.7-.2.7.1,1.3.3.5.2.5.6.5.2,0,.4,0,.6,0,.7,0,1.4,0,2.1,0,.8,0,1.7,0,2.5-.7.9-.8,1-2.6,1.1-4,0-.1,0-.2.1-.2,1.4,0,1.1,2.4.7,3.9,1.3.5,2.6-1.4,3-3.4.2-1.1.3-2.2.2-3.3,0-.6,0-1.3.1-1.9.4-1,.8-.2.9.5.3,1.7.3,3.6.2,5.4,1-.4,1.8-1.2,2.6-2.3.8-1.1,1.7-2.3,2.2-3.8.6-1.8.3-3.5,0-5.1-.4-1.8-.8-3.5-1.1-5.3,0-.2,0-.4.2-.3,1.7,1.1,2.3,4,2.7,6.7,1.5-2,2.7-4.5,3.4-7.5.4-1.6.7-3.3,0-4.5-.7-1.2-1.5-2.1-2.4-2.8Z"/>
      <path class="st19" d="M231.1,191.8c-.4-.3-1.3-.6-1.4-1.4-.1-.5.1-1,.5-1.2.7-.3,1.6.2,2.2.6.6.4,1.2.9,1.7,1.6.3-2.5-.2-4.8-.8-6.9-.7-2.4-1.8-5.4-3.8-4.8,0,5.8-1.4,11.8-3.2,17.2-2.2,6.7-5.2,13.9-9.4,17.9,0,0-.1-.1,0-.2,4-4.3,6.9-10.9,9.1-17.6,1.9-5.7,3.2-11.8,3.2-17.8-2.6,2.4-5.4,5.1-6.8,9.6.4-.2.8-.3,1.2-.3,0,0,.1.1.1.3-.4,1.6-1.7,2-2.5,3.1-1,1.4-1.6,3.3-2.1,5.1,1.7-.8,3.4-.9,5,0,0,0,.1.2,0,.4-1,1.5-2.4,1.4-3.6,1.6-1.8.3-3.5,1.9-4.2,4.8.6-.1,1.2-.2,1.8-.2.5,0,1.2-.2,1.6,0,.7.4.4,1.3-.2,1.8-.7.7-1.6.6-2.4.6-1.3,0-2.6.7-3.1,2.9.9-.2,1.8,0,2.5.7,0,0,0,.2,0,.3-.8,1.3-1.9.3-2.8,1-1.5,1.3-2.1,4.6-2.5,6.9,0,.3-.1.5-.2.8-.1.7-.2.7.1,1.3.3.5.2.5.6.5.2,0,.4,0,.6,0,.7,0,1.4,0,2.1,0,.8,0,1.7,0,2.5-.7.9-.8,1-2.6,1.1-4,0-.1,0-.2.1-.2,1.4,0,1.1,2.4.7,3.9,1.3.5,2.6-1.4,3-3.4.2-1.1.3-2.2.2-3.3,0-.6,0-1.3.1-1.9.4-1,.8-.2.9.5.3,1.7.3,3.6.2,5.4,1-.4,1.8-1.2,2.6-2.3.8-1.1,1.7-2.3,2.2-3.8.6-1.8.3-3.5,0-5.1-.4-1.8-.8-3.5-1.1-5.3,0-.2,0-.4.2-.3,1.7,1.1,2.3,4,2.7,6.7,1.5-2,2.7-4.5,3.4-7.5.4-1.6.7-3.3,0-4.5-.7-1.2-1.5-2.1-2.4-2.8ZM221.7,192.2c0,0,0,0,0,0,.2-.5.6-.8.9-1,0,0,0,.1,0,.2-.3.2-.6.5-.9.9ZM222.7,191.8c-.2,0-.4.2-.5.5,0,0,0,0,0,0,.1-.3.3-.5.5-.6,0,0,0,.1,0,.1ZM224.8,198.2c0-.1.1,0,.1,0-.2.6-.4,1.1-.6,1.6,0,0-.1,0,0,0,.2-.5.4-1,.6-1.6ZM224.1,200.8c.3-.4.5-.8.6-1.3,0,0,.1,0,0,0-.1.5-.4,1-.7,1.4,0,0,0,0,0,0ZM218.3,206.3c.3,0,.5-.2.8-.4,0,0,0,0,0,.1-.3.2-.5.4-.8.4,0,0,0-.1,0-.1ZM213.5,211.6c0,0,0,0,0,0,.2-.4.5-.5.8-.5,0,0,0,.1,0,.1-.3,0-.5.1-.7.4ZM214.5,211.6c-.2,0-.5.1-.7.4,0,0-.1,0,0,0,.2-.3.5-.5.8-.4,0,0,0,.1,0,.1ZM220.8,216.7c.2-.6.4-1.2.5-1.8,0-.1.1-.1.1,0,0,.7-.2,1.3-.5,1.9,0,0-.1,0,0,0ZM220.9,217.5c0,0,0,0,0,0,.3-.5.4-1.1.6-1.7,0,0,.1,0,0,0-.1.7-.3,1.3-.6,1.8ZM228.1,210.1c-.2.6-.4,1.1-.8,1.5,0,0,0,0,0-.1.3-.4.6-.9.7-1.5,0,0,.1,0,0,0ZM227.4,210.5c0,0,0,0,0,0,0,.4-.2.7-.3,1,0,0-.1,0,0,0,0-.3.2-.7.3-1ZM229.5,183.4c0-.5.2-1.1.3-1.6,0,0,.1,0,0,0,0,.5-.2,1.1-.3,1.6,0,.1-.1,0,0,0ZM229.6,184.3c0,.1-.1,0-.1,0,0-.5.2-1,.3-1.5,0,0,0,0,0,0,0,.5-.2,1-.3,1.5ZM233,198.1c0,0-.1,0,0,0,.1-.6.1-1.1,0-1.7,0,0,0-.1,0,0,.2.5.2,1.1,0,1.8ZM233.2,197.3c0,0-.1,0,0,0,.2-.5.1-1.1-.1-1.4,0,0,0-.2,0-.1.3.3.4,1,.2,1.6Z"/>
      <path class="st19" d="M227.3,211.6c.3-.4.6-.9.8-1.5,0,0,0-.1,0,0-.2.6-.4,1-.7,1.5,0,0,0,.2,0,.1Z"/>
      <path class="st19" d="M232.9,198c0,0,0,.1,0,0,.1-.6.1-1.2,0-1.8,0,0,0,0,0,0,.1.5.1,1.1,0,1.7Z"/>
      <path class="st19" d="M233.1,197.2c0,0,0,.2,0,0,.2-.6.1-1.3-.2-1.6,0,0,0,0,0,.1.3.3.3.9.1,1.4Z"/>
      <path class="st19" d="M227.1,211.5c0,0,0,.1,0,0,.1-.3.2-.7.3-1,0,0,0,0,0,0,0,.3-.2.7-.3,1Z"/>
      <path class="st19" d="M220.9,217.5c.3-.5.5-1.1.6-1.8,0,0,0-.1,0,0-.1.6-.3,1.2-.6,1.7,0,0,0,.1,0,0Z"/>
      <path class="st19" d="M220.9,216.8c.3-.6.4-1.2.5-1.9,0-.1,0-.1-.1,0,0,.6-.2,1.3-.5,1.8,0,0,0,.2,0,0Z"/>
      <path class="st19" d="M224.1,200.9c.3-.4.5-.8.7-1.4,0-.1,0-.1,0,0-.2.5-.4.9-.6,1.3,0,0,0,.1,0,0Z"/>
      <path class="st19" d="M224.3,199.9c.3-.5.5-1,.6-1.6,0-.1,0-.1-.1,0-.2.6-.4,1.1-.6,1.6,0,0,0,.2,0,0Z"/>
      <path class="st19" d="M229.5,184.3c0,.1,0,.2.1,0,.1-.5.2-1,.3-1.5,0,0,0-.1,0,0-.1.5-.2,1-.3,1.5Z"/>
      <path class="st19" d="M229.8,181.8c-.1.5-.2,1.1-.3,1.6,0,.1,0,.1,0,0,.1-.5.2-1.1.3-1.6,0,0,0-.1,0,0Z"/>
      <path class="st19" d="M219.1,206c0,0,0-.2,0-.1-.2.2-.5.3-.8.4,0,0,0,.2,0,.1.3,0,.5-.2.8-.4Z"/>
      <path class="st19" d="M214.5,211.6c0,0,0-.1,0-.1-.3,0-.5.2-.8.4,0,0,0,.1,0,0,.2-.2.5-.4.7-.4Z"/>
      <path class="st19" d="M222.7,191.8c0,0,0-.2,0-.1-.2,0-.4.3-.5.6,0,0,0,.1,0,0,.1-.3.3-.4.5-.5Z"/>
      <path class="st19" d="M222.6,191.3c0,0,0-.2,0-.2-.4.2-.7.5-.9,1,0,0,0,.1,0,0,.2-.4.5-.7.9-.9Z"/>
      <path class="st19" d="M214.2,211.1s0-.1,0-.1c-.3,0-.6.1-.8.5,0,0,0,.2,0,0,.2-.3.4-.5.7-.4Z"/>
    </g>
    <g>
      <path class="st19" d="M159.4,246.9c-1.8-1.6-3.1-4-3.8-7.1-.4-1.7-.7-3.5.1-5.3.8-1.6,1.7-3.1,2.8-4.3.5-.6,1.5-1.2,1.7-2.3.1-.7-.1-1.1-.5-1.2-.8,0-1.9,1-2.5,1.6-.7.7-1.4,1.6-2,2.6-.3-2.8.3-5.6,1-8.3.9-3.1,2.2-7.1,4.5-7.3,0,6.7,1.4,13,3.4,18.5,2.5,6.8,5.8,13.9,10.6,16.6,0,0,.2-.2,0-.3-4.6-3.2-7.8-9.6-10.3-16.3-2.1-5.7-3.6-12.2-3.5-19.3,3,1.6,6.2,3.5,7.7,8.1-.5,0-.9,0-1.4.2,0,0-.2.2-.1.4.5,1.7,1.9,1.6,2.8,2.5,1.1,1.2,1.8,3.1,2.4,5-2-.2-3.9.5-5.8,2.2-.1,0-.1.3,0,.4,1.2,1.2,2.7.6,4.1.2,2.1-.5,4,.7,4.9,3.6-.7.1-1.4.3-2.1.5-.6.2-1.3.3-1.9.8-.8.7-.5,1.7.2,2.1.8.5,1.8,0,2.7-.4,1.5-.6,3-.3,3.6,1.9-1.1.2-2.1.8-3,1.9,0,.1,0,.3,0,.4.9,1.1,2.2-.5,3.2,0,1.7.8,2.3,4.4,2.8,6.9,0,.3.1.6.2.9.1.7.2.8-.2,1.6-.3.7-.3.7-.7.9-.2.1-.4.2-.7.3-.8.3-1.6.6-2.4.9-.9.3-2,.8-2.9.3-1-.5-1.1-2.5-1.2-4.1,0-.1,0-.2-.2-.2-1.6.5-1.3,3.2-.9,4.9-1.5,1.2-3-.4-3.5-2.6-.2-1.2-.3-2.4-.2-3.7,0-.7.1-1.6-.1-2.2-.4-1-1,.1-1.1,1-.3,2.1-.4,4.3-.4,6.4-1.1,0-2.1-.6-3-1.5-.9-.9-2-1.9-2.5-3.4-.7-1.8-.2-4,.2-6,.5-2.2.9-4.4,1.4-6.6,0-.3,0-.4-.2-.3-2,2.1-2.7,5.7-3.3,9ZM161.6,250.1c.2.6.5,1.1.9,1.4,0,0,.1-.1,0-.2-.3-.4-.6-.8-.8-1.4,0,0-.1,0,0,0ZM156.2,238.3c0,0,.1,0,0,0-.1-.6-.1-1.3,0-1.9,0,0,0-.1,0,0-.2.7-.2,1.4,0,2ZM155.9,237.5c0,0,.1,0,.1-.1-.2-.5-.1-1.2.2-1.7,0,0,0-.2,0-.1-.4.5-.5,1.4-.2,2ZM162.7,251.3c0,0,.1,0,0-.1,0-.4-.2-.7-.3-1.1,0,0-.1,0,0,0,0,.4.2.8.3,1.1ZM169.1,253.7c.1.7.4,1.3.7,1.8,0,0,0,0,0-.1-.3-.5-.5-1.1-.7-1.8,0-.1-.1,0-.1,0ZM169.4,252.5c0,.8.2,1.5.5,2,0,0,.1,0,.1-.1-.3-.6-.4-1.2-.5-1.9,0-.1-.1,0-.1,0ZM165.7,236.3c.2.6.4,1,.8,1.3,0,0,.1,0,0-.1-.3-.3-.5-.7-.7-1.2,0,0-.1,0-.1,0ZM165.5,234.9c.2.6.4,1.1.7,1.6,0,0,.1,0,0-.1-.3-.5-.5-1-.7-1.6,0-.1-.2,0-.1,0ZM160.3,220.8c0,.1.1,0,.1,0-.1-.5-.2-1.1-.3-1.6,0,0-.1,0,0,0,0,.5.2,1.1.3,1.6ZM160.4,219.8c0,.1.1,0,.1,0,0-.6-.2-1.2-.3-1.8,0-.1-.1,0-.1,0,0,.6.2,1.2.3,1.8ZM172.2,241.1c0,0-.1.1,0,.2.3.2.6.2.9.2,0,0,0-.2,0-.2-.3,0-.6,0-.9-.2ZM177.5,245.5c0,0,0,.2,0,.2.3,0,.6,0,.8.1,0,0,.1,0,0-.1-.3-.2-.6-.3-.9-.2ZM168.3,226.2c0,0,0,.2,0,.2.2,0,.4.1.5.4,0,0,.1,0,0-.1-.1-.3-.4-.5-.6-.4ZM168.4,225.5c0,0,0,.2,0,.2.4,0,.7.3,1,.7,0,0,0,0,0-.1-.3-.4-.6-.7-1-.8ZM177.7,244.9c0,0,0,.2,0,.1.3-.1.6,0,.8.2,0,0,.1,0,0-.1-.2-.3-.6-.4-.9-.2Z"/>
      <path class="st19" d="M162.5,251.5c-.4-.3-.7-.8-.9-1.4,0,0,0-.2,0,0,.2.6.5,1,.8,1.4,0,0,0,.2,0,.2Z"/>
      <path class="st55" d="M156.3,238.2c0,0,0,.2,0,0-.2-.6-.1-1.4,0-2,0,0,.1,0,0,0-.2.7-.2,1.3,0,1.9Z"/>
      <path class="st55" d="M156,237.4c0,0,0,.2-.1.1-.2-.6-.1-1.4.2-2,0,0,0,0,0,.1-.3.5-.4,1.2-.2,1.7Z"/>
      <path class="st19" d="M162.8,251.2c0,0,0,.2,0,.1-.1-.3-.2-.7-.3-1.1,0,0,0-.1,0,0,.1.3.2.7.3,1.1Z"/>
      <path class="st19" d="M169.8,255.5c-.3-.5-.6-1.1-.7-1.8,0-.1,0-.2.1,0,.2.7.4,1.2.7,1.8,0,0,0,.2,0,.1Z"/>
      <path d="M169.9,254.6c-.3-.6-.5-1.3-.5-2,0-.1.1-.2.1,0,0,.7.2,1.4.5,1.9,0,0,0,.2-.1.1Z"/>
      <path d="M166.4,237.6c-.3-.3-.6-.7-.8-1.3,0-.1,0-.2.1,0,.2.5.4.9.7,1.2,0,0,0,.2,0,.1Z"/>
      <path d="M166.2,236.5c-.3-.5-.5-1-.7-1.6,0-.1,0-.2.1,0,.2.6.4,1.1.7,1.6,0,0,0,.2,0,.1Z"/>
      <path d="M160.4,220.7c0,.1,0,.2-.1,0-.1-.5-.2-1.1-.3-1.6,0,0,0-.2,0,0,.1.5.2,1.1.3,1.6Z"/>
      <path class="st55" d="M160.5,219.7c0,.1,0,.2-.1,0-.1-.6-.2-1.2-.3-1.8,0-.1,0-.2.1,0,.1.6.2,1.2.3,1.8Z"/>
      <path d="M172.1,241.2c0,0,0-.2,0-.2.3.1.6.2.9.2,0,0,0,.2,0,.2-.3,0-.6,0-.9-.2Z"/>
      <path d="M177.5,245.7c0,0,0-.1,0-.2.3-.1.6,0,.9.2,0,0,0,.2,0,.1-.2-.2-.5-.2-.8-.1Z"/>
      <path class="st55" d="M168.3,226.4c0,0,0-.2,0-.2.2,0,.5.1.6.4,0,0,0,.2,0,.1-.1-.3-.3-.4-.5-.4Z"/>
      <path class="st55" d="M168.4,225.7c0,0,0-.2,0-.2.4,0,.8.3,1,.8,0,0,0,.2,0,.1-.3-.4-.6-.6-1-.7Z"/>
      <path d="M177.7,245c0,0,0-.1,0-.1.3-.2.7-.1.9.2,0,0,0,.2,0,.1-.2-.3-.5-.3-.8-.2Z"/>
    </g>
    <g>
      <path class="st19" d="M165.5,217.6c.2-1-.4-2.3-.8-2.8-.5-.7-1.2-1-1.9-1-.7,0-1.4,0-2.2.2-.4,0-1.1.4-1.4,0-.6-1,.6-1.9,1.1-2,.6-.2,1.3-.4,1.9-.4.7,0,1.4.2,2.2.2,1,0,.4-1.8.2-2.4-.3-.9-.6-1.7-1.1-2.2-.7-.7-1.5-.5-2.3,0-.8.4-1.6.8-2.4,1.1-.4.2-1.1.8-1.4.3-.2-.3-.1-1,0-1.4.4-.7,1.2-.8,1.7-1.1.4-.2,1.3-.3,1.1-1.2-.1-.5-.5-.9-.7-1.2-2-2.9-4.9-4.2-7.9-3.3,0,0,0,0,0,0,.5,3.2,1.2,6.3,2.1,9.3,1.5,4.8,3.5,8.8,5.6,12.7,0,0,0,.2,0,.1-2.4-3.4-4.3-7.9-5.8-12.5-1-3-1.8-6.3-2.3-9.7-3,2.7-5.1,7.9-5.1,13.1.7-1.4,1.4-2.9,2.2-4.1.7-1,1.5-1.9,2.4-1.4,0,0,0,.2,0,.3-.8,1.7-1.6,3.4-2.4,5.1-.4.9-.9,1.8-1.2,2.7-.3,1.1-.2,2.1,0,3.1.5,3,1.4,5.9,3.2,7.4.4-3,1.1-6.2,2.9-7.8,0,0,0,0,.1,0,.2.3.2.7.1,1.2-.2,1.1-.8,2.3-1.1,3.3-.4,1.1-1,2.3-.9,3.6,0,1.1.6,1.9,1.1,2.6.2.2.4.5.6.7.9.5.8-.8.9-1.6,0-1.3.2-2.6.5-3.9.3-1.3.7-3.1,1.7-3.4,0,0,.1,0,.1.2,0,.9,0,1.9-.1,2.8-.2,1.1-.6,2.1-.8,3.2-.3,1.3-.4,3.1.6,3.5,1.1.5.8-2.3.9-3.2,0-1,.2-2,.4-3,0-.4.2-1.2.6-1.2.3,0,.4.3.4.7.1,1,0,2.2,0,3.2,0,.9,0,1.9.3,2.6.5,1.1,1.6.7,2.4.6.7-.1,1.5-.1,2.2-.5.9-.5,1.1-2.6,1.4-3.9.2-1.2.6-2.7.4-3.8-.2-1.1-1.1-1.6-1.7-2-.7-.4-1.4-.6-2.2-.6-.4,0-1,.2-1.3-.4-.5-1.2,1.3-1.4,1.6-1.4.6,0,1.2,0,1.8,0,.4,0,2.3,1,2.5,0ZM165.3,216.8c0,.1-.1.2-.1,0,0-.3-.2-.6-.4-.7,0,0,0-.2,0-.2.3,0,.4.4.4.9ZM164.3,223.1c0,0,0,.1,0,0,0-.6-.2-1-.6-1.2,0,0,0-.2,0-.2.4.1.7.6.6,1.3ZM164.4,222.4c0,0,0,.2-.1,0,0-.5-.3-.9-.6-1.1,0,0,0-.2,0-.2.3.2.6.7.6,1.2ZM162.4,228.6c0,0,.1.1,0,.1-.4.3-.8.2-1.2,0,0,0,0-.2,0-.1.3.3.7.3,1.1,0ZM162.3,208.3c0,0,0,.2,0,.2-.2,0-.5,0-.7,0,0,0,0-.1,0-.1.3,0,.5,0,.8,0ZM162.2,207.7c0,0,0,.2,0,.2-.3,0-.7,0-1,0,0,0,0-.1,0-.2.4-.2.7-.3,1.1,0ZM159.9,204.9c0,0,0,.2,0,.1-.3-.4-.6-.7-.8-1.1,0,0,0-.2,0-.1.3.3.6.7.8,1.1ZM154.3,224.5c0,0,.1,0,0,0-.2.4-.2.8-.2,1.2,0,0,0,0,0,0,0-.4,0-.9.2-1.3ZM154.3,223.5c0,0,0,0,0,0-.3.6-.5,1.3-.6,2,0,0,0,0,0,0,0-.8.2-1.4.6-2ZM154.3,214.9c0,0,0,.2,0,.1-.2-.3-.4-.6-.6-1,0,0,0-.2,0-.1.2.4.4.7.6,1ZM154.3,213.8c0,0,0,.2,0,0-.1-.2-.2-.4-.4-.7,0,0,0-.1,0,0,.1.2.3.4.4.7ZM147.9,215.5c0,0,.1,0,0,.1-.2.2-.3.5-.3.8,0,0,0,.1,0,0,0-.4.1-.7.3-1ZM147.7,214.9c0,0,0,0,0,0-.3.4-.4.9-.6,1.5,0,0,0,0,0,0,0-.6.3-1.1.6-1.5ZM148.9,204.6s0,0,0,.1c-.3.3-.6.6-.7,1.1,0,0-.1,0,0,0,.2-.5.5-.9.8-1.2ZM148.4,204.4c0,0,.1,0,0,0-.3.6-.6,1.1-.9,1.6,0,0,0,0,0,0,.3-.5.5-1.1.8-1.6Z"/>
      <path class="st55" d="M165.1,216.8c0,.1.1,0,.1,0,0-.4-.2-.8-.4-.9,0,0-.1.1,0,.2.2.1.3.4.4.7Z"/>
      <path class="st55" d="M164.2,223.1c0,0,0,0,0,0,0-.7-.2-1.2-.6-1.3,0,0,0,.1,0,.2.3.1.6.6.6,1.2Z"/>
      <path class="st19" d="M164.3,222.5c0,0,.1,0,.1,0,0-.6-.3-1-.6-1.2,0,0-.1.1,0,.2.3.2.5.6.6,1.1Z"/>
      <path class="st19" d="M162.5,228.8c0,0,0-.2,0-.1-.4.2-.8.2-1.1,0,0,0,0,0,0,.1.4.3.8.3,1.2,0Z"/>
      <path class="st19" d="M162.3,208.5c0,0,0-.1,0-.2-.2,0-.5,0-.8,0,0,0,0,.1,0,.1.2,0,.5,0,.7,0Z"/>
      <path class="st19" d="M162.2,207.9c0,0,0-.1,0-.2-.3-.2-.7-.1-1.1,0,0,0,0,.2,0,.2.4-.2.7-.2,1,0Z"/>
      <path class="st19" d="M159.8,205c0,0,.1,0,0-.1-.3-.4-.5-.8-.8-1.1,0,0,0,0,0,.1.3.4.5.8.8,1.1Z"/>
      <path class="st19" d="M154.3,224.6c0,0,0-.2,0,0-.2.4-.3.8-.2,1.3,0,0,0,0,0,0,0-.4,0-.8.2-1.2Z"/>
      <path class="st55" d="M154.3,223.5c0,0,0-.1,0,0-.3.6-.5,1.3-.6,2,0,0,0,0,0,0,0-.7.2-1.4.6-2Z"/>
      <path class="st19" d="M154.3,215c0,0,.1,0,0-.1-.2-.3-.4-.6-.6-1,0,0-.1,0,0,.1.2.4.3.7.6,1Z"/>
      <path class="st19" d="M154.2,213.9c0,0,.1,0,0,0-.1-.2-.2-.5-.4-.7,0,0,0,0,0,0,.1.2.2.4.4.7Z"/>
      <path class="st19" d="M147.9,215.6c0,0,0-.2,0-.1-.2.2-.3.6-.3,1,0,.1,0,0,0,0,0-.3.1-.6.3-.8Z"/>
      <path class="st55" d="M147.8,215c0,0,0-.1,0,0-.3.4-.5,1-.6,1.5,0,0,0,0,0,0,.1-.5.3-1,.6-1.5Z"/>
      <path class="st19" d="M148.9,204.7s0-.2,0-.1c-.3.2-.6.7-.8,1.2,0,0,0,.1,0,0,.2-.5.4-.9.7-1.1Z"/>
      <path class="st19" d="M148.5,204.5c0,0,0-.1,0,0-.3.5-.6,1.1-.8,1.6,0,0,0,0,0,0,.3-.5.6-1.1.9-1.6Z"/>
    </g>
    <g>
      <path class="st17" d="M159.8,179.6c0,0-.1-.2-.2-.2-.2,0-.4.1-.6.2.3,0,.5,0,.7,0Z"/>
      <path class="st17" d="M156.9,186.1c1.6,0,3,1.5,4.1,3,.5-1.5.9-3.2.6-4.7-.3-2.1-1.4-2.5-2.6-2.6-2,0-4.1,1-5.9,2.8-.1.1-.3,0-.2-.3.5-1.8,1.3-3,2.3-3.7-1.7.4-3.4.7-5.2,1-.1,1.9-.2,3.7,0,5.5.4,6.5,2.4,12,4.9,16.8,0,.2,0,.5-.2.3-2.7-5.1-4.8-11.3-5-18.5,0-1.4,0-2.7,0-4.1-.5,0-1,.1-1.4.2,0,.4.1.9.1,1.4,0,.2-.2.3-.3.2-1.6-2.1-4-1.5-5.5,1.2,1.9-.5,3.6.4,4.8,2.5,0,.2,0,.5-.2.4-1.4-.4-3-.8-4.5,0-1.6.9-2.8,3.4-2.4,6,.1.6.3,1.2.6,1.7.3.7.8.7,1.3.2.7-.7,1.4-1.5,2.2-2.1,1.2-.8,2.4-1.1,3.4-.3.1,0,0,.4,0,.5-1.3.5-2.9,1.5-3.9,3.3-1.3,2.4.1,4.5,1.2,5.7.4-1.9,1.2-3.6,2.3-4.7.6-.6,2.2-1.8,2.1.2,0,0,0,.2,0,.2-1.6,1.3-2.8,4.1-2.7,6.9,0,2.6,1.2,4.6,2.6,5.2-.8-2.7-.2-6.4,1.4-8.5,0,0,.2,0,.2,0,0,0,.2,0,.1.2-1,4.1-1,9.5,2,10.4,1.1.3,2.3,0,3.5.2,1.1.1,2.1.5,3.2,1-.2-1.7,0-3.4.1-5.2.3-2.3.5-4.5.2-6.7-.6-4.8-3.7-6.2-6.6-5.2,0,0-.1,0-.2-.1-.6-1.8,1.5-2.9,2.2-3.2,1.4-.4,2.8.2,4,1-.7-4.5-3.7-6.6-6.6-4.6-.1,0-.2-.2-.2-.4.8-2.3,2.4-3.4,3.9-3.4Z"/>
      <path class="st19" d="M156.9,186.1c1.6,0,3,1.5,4.1,3,.5-1.5.9-3.2.6-4.7-.3-2.1-1.4-2.5-2.6-2.6-2,0-4.1,1-5.9,2.8-.1.1-.3,0-.2-.3.5-1.8,1.3-3,2.3-3.7-1.7.4-3.4.7-5.2,1-.1,1.9-.2,3.7,0,5.5.4,6.5,2.4,12,4.9,16.8,0,.2,0,.5-.2.3-2.7-5.1-4.8-11.3-5-18.5,0-1.4,0-2.7,0-4.1-.5,0-1,.1-1.4.2,0,.4.1.9.1,1.4,0,.2-.2.3-.3.2-1.6-2.1-4-1.5-5.5,1.2,1.9-.5,3.6.4,4.8,2.5,0,.2,0,.5-.2.4-1.4-.4-3-.8-4.5,0-1.6.9-2.8,3.4-2.4,6,.1.6.3,1.2.6,1.7.3.7.8.7,1.3.2.7-.7,1.4-1.5,2.2-2.1,1.2-.8,2.4-1.1,3.4-.3.1,0,0,.4,0,.5-1.3.5-2.9,1.5-3.9,3.3-1.3,2.4.1,4.5,1.2,5.7.4-1.9,1.2-3.6,2.3-4.7.6-.6,2.2-1.8,2.1.2,0,0,0,.2,0,.2-1.6,1.3-2.8,4.1-2.7,6.9,0,2.6,1.2,4.6,2.6,5.2-.8-2.7-.2-6.4,1.4-8.5,0,0,.2,0,.2,0,0,0,.2,0,.1.2-1,4.1-1,9.5,2,10.4,1.1.3,2.3,0,3.5.2,1.1.1,2.1.5,3.2,1-.2-1.7,0-3.4.1-5.2.3-2.3.5-4.5.2-6.7-.6-4.8-3.7-6.2-6.6-5.2,0,0-.1,0-.2-.1-.6-1.8,1.5-2.9,2.2-3.2,1.4-.4,2.8.2,4,1-.7-4.5-3.7-6.6-6.6-4.6-.1,0-.2-.2-.2-.4.8-2.3,2.4-3.4,3.9-3.4ZM161.1,185.5c0-.1,0-.2.1,0,.1.5,0,1.1,0,1.7,0,.1-.1,0-.1,0,0-.5,0-1.1,0-1.6ZM160.8,185.3c0-.1.1-.1.1,0,0,.5,0,1,0,1.5,0,.1-.1.1-.1,0,0-.5,0-1,0-1.5ZM144.5,184.3c-.2,0-.5,0-.7-.1,0,0,0-.2,0-.2.2,0,.5,0,.7,0,0,0,0,.2,0,.2ZM145.1,183.5c-.3.1-.6.2-1,.3,0,0,0-.1,0-.1.3,0,.6-.2,1-.3,0,0,0,.1,0,.2ZM144.7,193.1c-.3.1-.6.3-.8.6,0,0-.1,0,0-.1.3-.3.6-.5.9-.6,0,0,0,.1,0,.1ZM144.9,192.3c-.2,0-.5.2-.7.3,0,0,0-.1,0-.1.2,0,.5-.2.7-.3,0,0,0,.1,0,.2ZM143.6,199.3c0-.6.1-1.3.4-1.8,0,0,.1,0,0,.1-.3.5-.4,1.1-.4,1.7,0,0,0,.1,0,0ZM144.7,197.5c-.3.4-.5.9-.6,1.5,0,0,0,0,0,0,0-.6.3-1.2.6-1.6,0,0,.1,0,0,0ZM150.7,196c-.1-.4-.3-.8-.4-1.3,0,0,0-.2,0,0,.1.4.3.8.4,1.3,0,0,0,.1,0,0ZM150.7,207.6c-.1-.5,0-1.1,0-1.7,0-.1.1,0,0,0-.1.5-.1,1.1,0,1.6,0,.1,0,.2-.1,0ZM151,208.4c-.2-.6-.3-1.3-.2-2,0-.1.1-.1.1,0,0,.7,0,1.3.2,2,0,0,0,.2,0,0ZM159.6,209.2c-.1.6-.3,1.1-.4,1.7,0,.1-.1,0,0,0,.1-.6.2-1.1.4-1.7,0-.1.1,0,.1,0ZM159.3,207.9c0-.1.1,0,0,0-.1.7-.3,1.5-.4,2.2,0,.1-.1,0,0,0,.1-.7.3-1.5.4-2.2ZM157.6,191.6c-.2-.2-.4-.4-.6-.7,0,0,0-.2,0-.1.2.3.4.5.6.7,0,0,0,.2,0,.1ZM156.7,190.2c.3-.2.8,0,.9.4,0,0,0,.2,0,0-.2-.4-.5-.6-.8-.4,0,0,0,0,0-.1ZM150.7,190.5c-.2-.4-.3-.9-.3-1.4,0,0,0-.1,0,0,0,.5.1,1,.3,1.4,0,0,0,.2,0,0ZM151.2,190.8c-.2-.2-.3-.6-.3-.9,0-.1.1-.2.1,0,0,.3.1.6.3.8,0,0,0,.3-.1.2Z"/>
      <path class="st19" d="M159.8,179.6c0,0-.1-.2-.2-.2-.2,0-.4.1-.6.2.3,0,.5,0,.7,0Z"/>
      <path class="st19" d="M161.2,185.4c0,0-.1,0-.1,0,0,.5,0,1,0,1.6,0,.1,0,.2.1,0,0-.6.1-1.2,0-1.7Z"/>
      <path class="st19" d="M161,185.3c0-.1-.1-.1-.1,0,0,.5,0,1,0,1.5,0,.1.1.1.1,0,0-.5,0-1,0-1.5Z"/>
      <path class="st19" d="M157.6,190.7c-.1-.5-.6-.7-.9-.4,0,0,0,.1,0,.1.3-.2.6,0,.8.4,0,0,.1,0,0,0Z"/>
      <path class="st19" d="M157.6,191.6s0,0,0-.1c-.2-.2-.4-.4-.6-.7,0,0-.1,0,0,.1.2.3.4.6.6.7Z"/>
      <path class="st19" d="M159.4,208c0-.1,0-.1,0,0-.1.7-.3,1.5-.4,2.2,0,.1,0,.1,0,0,.1-.7.3-1.5.4-2.2Z"/>
      <path class="st19" d="M159.6,209.2c0-.1,0-.2-.1,0-.2.6-.3,1.1-.4,1.7,0,.1,0,.1,0,0,.1-.6.3-1.1.4-1.7Z"/>
      <path class="st19" d="M151.2,190.8c0,0,.2,0,.1-.2-.1-.2-.2-.5-.3-.8,0-.1-.1,0-.1,0,0,.4.1.7.3.9Z"/>
      <path class="st19" d="M150.5,189c0,0,0,0,0,0,0,.5.1,1,.3,1.4,0,0,.1,0,0,0-.2-.4-.2-.9-.3-1.4Z"/>
      <path class="st19" d="M150.7,195.9c-.1-.4-.3-.9-.4-1.3,0,0-.1,0,0,0,.1.4.3.9.4,1.3,0,0,0,0,0,0Z"/>
      <path class="st19" d="M145.1,183.5c0,0,0-.2,0-.2-.3,0-.6.2-1,.3,0,0,0,.2,0,.1.3,0,.6-.2,1-.3Z"/>
      <path class="st19" d="M144.5,184.3c0,0,.1-.2,0-.2-.2,0-.5,0-.7,0,0,0,0,.2,0,.2.2,0,.5,0,.7.1Z"/>
      <path class="st19" d="M150.8,205.9c0-.1,0-.1,0,0-.2.6-.2,1.1,0,1.7,0,0,.1,0,.1,0,0-.5,0-1.1,0-1.6Z"/>
      <path class="st19" d="M150.9,206.4c0-.1,0-.1-.1,0,0,.7,0,1.4.2,2,0,0,.1,0,0,0-.2-.6-.2-1.3-.2-2Z"/>
      <path class="st19" d="M144.9,192.3c0,0,0-.2,0-.2-.2,0-.5.2-.7.3,0,0,0,.2,0,.1.2,0,.5-.2.7-.3Z"/>
      <path class="st19" d="M144.7,193.1c0,0,0-.2,0-.1-.3,0-.6.3-.9.6,0,0,0,.2,0,.1.3-.3.5-.4.8-.6Z"/>
      <path class="st19" d="M144.7,197.5c0,0,0-.2,0,0-.3.4-.5,1-.6,1.6,0,0,0,0,0,0,0-.6.3-1.1.6-1.5Z"/>
      <path class="st19" d="M144.1,197.7c0,0,0-.2,0-.1-.3.5-.5,1.2-.4,1.8,0,0,0,0,0,0,0-.6.1-1.2.4-1.7Z"/>
    </g>
    <g>
      <path class="st17" d="M152.4,181.3c-.1.6-.3,1.2-.4,1.7-.4,1.7-.8,3.5-.7,5.2-.9-.8-1.9-1.4-2.9-1.9-1.1-.5-2.3-.6-3.3-1.2-.9-.6-1.5-1.5-1.8-2.7-.1,0-.3,0-.4,0,.2.9.6,1.7,1.1,2.4.9,1.1,2.1,1.3,3.3,1.7,1.5.5,2.9,1.3,4.2,2.5,0,0,.2,0,.2-.3-.2-2.5.6-5,1.1-7.4-.1,0-.2,0-.3,0Z"/>
      <path class="st19" d="M143.2,182.4c.3,1.2.8,2.2,1.8,2.7,1,.6,2.2.8,3.3,1.2,1,.4,2,1.1,2.9,1.9,0-1.8.3-3.5.7-5.2.1-.6.3-1.2.4-1.7-3,.6-6,.9-9.1,1.1ZM150.8,184.2c.2-.7.4-1.4.6-2.1,0,0,.1,0,0,0-.2.7-.4,1.4-.6,2.1,0,0-.1,0,0,0ZM151.6,183.5c-.2.5-.4,1.1-.6,1.6,0,0-.1,0,0,0,.2-.5.4-1.1.6-1.6,0-.1.1,0,.1,0Z"/>
    </g>
    <g>
      <path class="st19" d="M242,184.6c0,0-.1,0,0,0,.2-.5.3-1.1.2-1.7,0,0,0,0,0,0-.9-1-1.9-1.9-3-2.7-1.3-.4-2.7-.6-4.1-.8-1.5,1.9-3.2,3.5-4.9,4.9-.2.1-.2-.2,0-.4,1.6-1.3,3.1-2.9,4.6-4.6-2.7-.4-5.8-.2-8.3-.7-.3.4-.3.4-.5.9-1,1.9-1.5,4.1-2,6.3-.4,1.7-.8,3.4-1.6,4.9,1.1,0,2.2.2,3.2.6,1.1.4,2.2,1.2,3.3,1.4,3.1.6,4.9-4.4,5.3-8.6,0-.2.1-.2.2,0,0,0,.1-.1.2,0,.9,2.7.2,6.4-1.5,8.5,1.6.1,3.2-1.3,4.1-3.6,1-2.5.8-5.6-.3-7.6,0,0,0-.2,0-.2.5-1.9,1.7,0,2,.8.6,1.5.8,3.5.6,5.4,1.3-.5,3-1.6,3-3.8,0-.1-.2-.2-.3-.3,0,.6,0,1.2-.2,1.7ZM224,188.1c0,.1-.1,0-.1,0,0-.6,0-1.2.2-1.7,0-.1.1-.1.1,0,0,.6-.1,1.2-.2,1.7ZM224.4,187.6c0,.1-.1,0-.1,0,.1-.7.2-1.5.3-2.2,0-.1.1,0,0,0-.1.7-.2,1.5-.3,2.2ZM232.1,189.5c.4-.5.6-1,.8-1.7,0-.1.1,0,0,0-.2.7-.5,1.3-.9,1.8,0,0-.1,0,0-.1ZM232.8,189c0,0-.1,0,0,0,.2-.4.4-1,.5-1.5,0-.1.1,0,.1,0,0,.6-.2,1.1-.5,1.6ZM241.7,184.2c0,0,0,0,0,0,.1-.6,0-1.1,0-1.6,0,0,0-.1,0,0,.2.5.1,1.2,0,1.7Z"/>
      <path class="st19" d="M235.1,179.3c1.4.2,2.7.4,4.1.8"/>
      <path d="M233.2,187.4c0-.1.1,0,.1,0,0,.6-.2,1.1-.5,1.6,0,0-.1,0,0,0,.2-.4.4-1,.5-1.5Z"/>
      <path d="M233,187.8c0-.1.1,0,0,0-.2.7-.5,1.3-.9,1.8,0,0-.1,0,0-.1.4-.5.6-1,.8-1.7Z"/>
      <path d="M241.6,182.5c.1.5.1,1.1,0,1.6,0,0,0,0,0,0,.1-.6.2-1.2,0-1.7,0,0-.1,0,0,0Z"/>
      <path d="M242.2,182.8c0,0,0,0,0,0,0,0,0,0,0,.1,0,0,0,0,0-.1Z"/>
      <path d="M242.1,182.8s0,0,0,0c0,.6,0,1.1-.2,1.7,0,0,0,.1,0,0,.2-.5.3-1.2.2-1.7,0,0,0,0,0-.1Z"/>
    </g>
    <g>
      <path class="st17" d="M205.3,216.7c0-1.8.2-3.5,1.3-4.6.9-.8,1.8-.7,2.7-.4-.8,2.1-1.6,4.5-1.5,6.9,0,2.2.8,4.2,2.1,4.7.1,0,.3-.2.2-.3-1.3-3.7-.2-8.6,2.3-10.9-.4,2-.7,4.2-.4,6.2.2,1,.9,3.7,1.9,2.4,0,0,0-.2,0-.3-.7-4,0-8.8,2.7-11.1,1.2-1.1,2.5-1.4,3.8-1.6,1-.2,2-.4,3-1.3-.2,1.6-.4,3.3-.4,4.9,0,1.7.1,3.4,0,5.2-.3,4.7-3.4,6.3-5.8,5.9,0,0-.1.2,0,.3,0,0,0,.2,0,.3,1.3,1.9,3.4,1.7,4.9-.3-.3,2.3-1.4,4.5-2.8,5.3-1.6.9-3.2,0-4-2,0,0,0,0-.1,0-1.1.3-.4,2.4,0,3.1.7,1.3,1.7,2,2.8,2.1-.6,2-1.7,4.6-3.2,3.4-1.1-.9-1.7-2.9-2.1-4.8,0-.2-.2-.1-.3,0-.4,1.8-.2,3.5.3,4.9.4,1,.8,1.8,1.3,2.7.3.6.3,1.3,0,2-.3.5-.6,1-1,1.3-1.4,1.4-2.9.2-3.5-1.8-.6-1.9-.4-4.3-.2-6.5,0-.2-.2-.3-.3-.1-1.2,2.3-1.6,5.2-1.2,7.7-1.6-1.4-2.1-4.8-.9-7.7,0-.2,0-.4-.1-.3-1.1.5-1.9,1.7-2.3,3.3-.3-1.4-.4-2.8-.3-4.4,0,0,0,0,0,0,1.3-.2,2.7-.7,4-1.4,4.1-2.4,7.5-7.2,10.3-12.6.1-.2,0-.4-.2-.2-2.6,5-5.6,9.4-9.3,11.9-1.6,1.1-3.3,1.8-4.9,1.9-.9-1.1-1.6-2.6-1.7-4.5.5.7,1.1,1.2,1.8,1.6.1,0,.3-.2.2-.4-1.5-2.8-1.5-7.4,0-10.9,0,3.7.4,8.3,3,8.8.1,0,.2-.3.1-.4-1.1-2.1-1.8-4.9-1.8-7.8Z"/>
      <path class="st19" d="M206.6,212.1c-1.2,1-1.4,2.8-1.3,4.6,0,3,.7,5.7,1.8,7.8,0,.1,0,.4-.1.4-2.7-.5-3.1-5-3-8.8-1.5,3.5-1.5,8.1,0,10.9,0,.2,0,.5-.2.4-.7-.3-1.3-.8-1.8-1.6.2,1.9.8,3.5,1.7,4.5,1.7-.1,3.3-.8,4.9-1.9,3.7-2.5,6.7-7,9.3-11.9.1-.2.3,0,.2.2-2.8,5.4-6.2,10.2-10.3,12.6-1.3.8-2.7,1.3-4,1.4,0,0,0,0,0,0,0,1.5,0,3,.3,4.4.4-1.6,1.2-2.8,2.3-3.3.1,0,.2.2.1.3-1.1,2.9-.7,6.3.9,7.7-.4-2.6,0-5.4,1.2-7.7,0-.2.3-.1.3.1-.2,2.2-.3,4.6.2,6.5.6,2,2.1,3.2,3.5,1.8.4-.3.7-.8,1-1.3.4-.7.4-1.4,0-2-.5-.8-.9-1.7-1.3-2.7-.5-1.4-.7-3.2-.3-4.9,0-.2.2-.2.3,0,.3,1.8,1,3.9,2.1,4.8,1.4,1.2,2.6-1.5,3.2-3.4-1.1,0-2.1-.8-2.8-2.1-.4-.7-1.1-2.8,0-3.1,0,0,0,0,.1,0,.8,2,2.4,2.9,4,2,1.5-.8,2.6-3,2.8-5.3-1.5,2-3.6,2.2-4.9.3,0,0,0-.2,0-.3,0,0,0-.3,0-.3,2.4.3,5.5-1.3,5.8-5.9.1-1.7,0-3.5,0-5.2,0-1.6.2-3.3.4-4.9-.9.8-2,1.1-3,1.3-1.3.2-2.6.5-3.8,1.6-2.7,2.3-3.4,7.1-2.7,11.1,0,0,0,.2,0,.3-1,1.3-1.7-1.3-1.9-2.4-.3-2,0-4.2.4-6.2-2.5,2.3-3.6,7.3-2.3,10.9,0,.2,0,.4-.2.3-1.3-.5-2.1-2.6-2.1-4.7,0-2.4.7-4.8,1.5-6.9-.9-.3-1.8-.4-2.7.4ZM207.2,212.5c0,0,0,0,0-.1.3-.3.6-.4,1-.4,0,0,0,.2,0,.2-.3,0-.6.2-.9.4ZM207.1,213c0,0,0-.1,0-.2.3-.1.6-.2.8-.3,0,0,0,.1,0,.2-.3.1-.6.3-.8.3ZM203.2,219.5c0,0,0-.1,0,0,0,.5.1,1,.2,1.5,0,0,0,.2,0,0-.1-.5-.2-1-.2-1.6ZM203.1,220.7c0,0,0,0,0,0,0,.4,0,.8,0,1.2,0,0,0,0,0,0,0-.4,0-.8,0-1.2ZM210.1,217.7c-.1-.4,0-1.1.2-1.5,0,0,0,0,0,.1-.2.4-.3.9-.2,1.3,0,0,0,0,0,0ZM210.8,215.9c0,0,0,0,0,0,0,.4-.2.8-.4,1.1,0,0-.1,0,0,0,.2-.3.3-.7.4-1ZM220.1,208.8c0,0,0-.1,0-.1.4,0,.9,0,1.3,0,0,0,0,.1,0,.2-.4,0-.9,0-1.3,0ZM220.7,208.1c0,0,0-.2,0-.2.3,0,.7,0,1,.1,0,0,0,.2,0,.2-.3,0-.7,0-1-.1ZM204.5,230.9c0,0,0-.1,0-.2.2,0,.4-.1.6-.1,0,0,0,.1,0,.2-.2,0-.4,0-.6.1ZM204.7,231.3s0-.1,0-.1c.3,0,.5-.1.8-.1,0,0,0,.1,0,.1-.3,0-.5.1-.8.1ZM210.6,225.4c0-.1.1,0,.1.1-.1.3-.3.6-.5.7,0,0-.1-.1,0-.2.2-.1.3-.4.5-.6ZM209.7,227.1s0,0,0-.1c.3-.2.5-.5.8-.8,0,0,0,0,0,.1-.2.4-.5.6-.8.8ZM212.9,225.7c.2-.3.5-.7.7-1,0,0,0,0,0,0-.2.3-.5.7-.7,1,0,0,0,0,0,0ZM206.7,236.5c0,0,0-.1,0,0,0,.4.1.9.2,1.3,0,0,0,.1,0,0,0-.4-.1-.9-.2-1.3ZM207.2,237.2c0-.1.1-.2.1,0,0,.4,0,.7,0,1.1,0,0,0,.1,0,0,0-.4,0-.7,0-1.1ZM219.3,221.9c0,0,0-.2,0-.2.3,0,.6,0,.9-.3,0,0,0,0,0,.1-.3.3-.6.4-1,.4ZM219.6,221.7c0,0,0-.1,0-.1.4-.2.8-.5,1.1-.9,0,0,.1,0,0,.1-.3.5-.7.8-1.1.9ZM211.7,234.5c0,0,0-.2,0,0,0,.3.1.6.2.9,0,0,0,.1,0,0,0-.3-.1-.6-.2-.9ZM212.2,234.4c0,0,0-.1,0,0,0,.4.2.8.4,1.1,0,0,0,.2,0,.1-.2-.3-.3-.7-.4-1.1ZM214.7,233.3c0,0,0-.2,0-.1.3.3.5.4.9.4,0,0,0,0,0,.1-.3,0-.7,0-.9-.4ZM214.8,234.1c0,0,0-.2,0-.1.3.2.6.2,1,0,0,0,0,0,0,.1-.4.3-.8.2-1,0Z"/>
      <path class="st19" d="M207.2,212.3c0,0,0,.2,0,.1.3-.2.6-.4.9-.4,0,0,0-.2,0-.2-.3,0-.7.1-1,.4Z"/>
      <path class="st19" d="M207.1,212.8c0,0,0,.2,0,.2.3,0,.6-.2.8-.3,0,0,0-.2,0-.2-.3,0-.6.2-.8.3Z"/>
      <path class="st19" d="M203.3,219.5c0,0,0,0,0,0,0,.6,0,1.1.2,1.6,0,0,.1,0,0,0-.1-.5-.2-1-.2-1.5Z"/>
      <path d="M203.1,220.7c0,0,0,0,0,0,0,.4,0,.8,0,1.2,0,0,0,0,0,0,0-.4,0-.8,0-1.2Z"/>
      <path d="M210.3,216.2c-.3.4-.4,1-.2,1.5,0,0,0,0,0,0-.1-.4,0-.9.2-1.3,0,0,0-.2,0-.1Z"/>
      <path class="st19" d="M210.9,215.9c0,0,0-.1,0,0,0,.4-.2.7-.4,1,0,0,0,.1,0,0,.2-.3.3-.7.4-1.1Z"/>
      <path class="st19" d="M220.1,208.6c0,0,0,.1,0,.1.4,0,.9,0,1.3,0,0,0,0-.2,0-.2-.4,0-.8,0-1.3,0Z"/>
      <path class="st19" d="M220.8,208c0,0,0,.2,0,.2.3,0,.7,0,1,.1,0,0,0-.1,0-.2-.3,0-.6-.1-1-.1Z"/>
      <path d="M204.5,230.8c0,0,0,.2,0,.2.2,0,.4,0,.6-.1,0,0,0-.2,0-.2-.2,0-.4,0-.6.1Z"/>
      <path d="M204.7,231.2s0,.1,0,.1c.3,0,.5,0,.8-.1,0,0,0-.1,0-.1-.3,0-.5,0-.8.1Z"/>
      <path d="M210.7,225.5c0-.1,0-.2-.1-.1-.1.3-.3.5-.5.6,0,0,0,.2,0,.2.2-.1.4-.4.5-.7Z"/>
      <path d="M209.7,227s0,.2,0,.1c.3-.2.6-.4.8-.8,0,0,0-.2,0-.1-.2.3-.5.6-.8.8Z"/>
      <path class="st19" d="M213.6,224.7c-.2.3-.5.6-.7,1,0,0,0,.2,0,0,.2-.3.5-.6.7-1,0,0,0-.1,0,0Z"/>
      <path d="M206.8,236.5c0,0,0,0,0,0,0,.4.1.9.2,1.3,0,0,0,0,0,0,0-.4-.1-.9-.2-1.3Z"/>
      <path d="M207.3,237.2c0-.1-.1-.1-.1,0,0,.4,0,.7,0,1.1,0,0,0,0,0,0,0-.4,0-.7,0-1.1Z"/>
      <path d="M219.3,221.7c0,0,0,.1,0,.2.3,0,.7,0,1-.4,0,0,0-.2,0-.1-.3.2-.6.4-.9.3Z"/>
      <path class="st19" d="M219.5,221.5c0,0,0,.2,0,.1.4-.1.8-.4,1.1-.9,0,0,0-.2,0-.1-.3.4-.7.7-1.1.9Z"/>
      <path d="M211.8,234.4c0,0-.1,0,0,0,0,.3.1.6.2.9,0,0,0,0,0,0,0-.3-.1-.6-.2-.9Z"/>
      <path d="M212.2,234.4c0,0,0,0,0,0,0,.4.2.8.4,1.1,0,0,.1,0,0-.1-.2-.3-.3-.7-.4-1.1Z"/>
      <path d="M214.8,233.2s0,0,0,.1c.2.3.6.5.9.4,0,0,0-.1,0-.1-.3,0-.6-.1-.9-.4Z"/>
      <path d="M214.9,234c0,0-.1,0,0,.1.3.3.7.3,1,0,0,0,0-.2,0-.1-.3.2-.7.1-1,0Z"/>
    </g>
    <g>
      <path class="st17" d="M181.4,261.7c-.4.3-1.3.7-1.7.1-.3-.6,1-2.4,1.2-2.9.3-.7.6-1.4.9-2.1.1-.3.9-2.5.1-2.3-.4.1-.6.9-.8,1.4-.4.9-.8,1.6-1.3,2.3-.5.7-1.1,1.5-1.7,1.4-.6,0-1.1-.9-1.5-1.6-.4-.7-1.3-1.5-1.1-2.7.2-.9.5-1.8.8-2.7.3-.9.7-2.4,1.4-2.6.5-.1.9.2,1.3.4.5.3.9.8,1.4,1,.2,0,.4,0,.5-.3.2-.4-.1-.8-.3-1.1-.4-.5-.8-1-1.2-1.3-.4-.3-1.8-.8-1-2,.6-1,1.4-.3,1.8.4.4.6.6,1.3,1,1.9.4.5.8.8,1.2,1,0,0,.1,0,.1-.1.4-1.2-.2-2.2-.7-2.9-.5-.7-1-1.2-1.5-1.7-.3-.3-.9-.6-.3-1.5.2-.2.4-.4.6-.5.5-.4,1.2-.8,1.7-.6.6.3.9,1.3,1.2,2.1.3.7.5,1.7.9,2.3.2.3.4.4.6.2,0,0,0,0,0-.1.2-2.7-.9-4.3-2.1-5.7,1.5-1.6,3.3-1.8,4.9-1.5.6,0,1.1.2,1.4.9.3.6.4,1.5.6,2.2.4,1.4.7,2.9,1.1,4.3,0,0,0,.1.1,0,.6-.8.6-2.1.5-3.2-.2-1.3-.4-2.6-.8-3.8,2.3,1.6,3.6,5.6,3.4,9.8-1.8-.3-3.7-.4-5.5-.1-2.8.3-5.7,1.2-8.4,3,0,0,0,.2,0,.1,2.8-1.4,5.6-2.5,8.4-2.8,1.8-.2,3.5,0,5.2.2,0,0,0,0,0,0-1,3.6-3,6.7-5.3,8.2-.2.2-.6.5-.9.5-.5,0,0-1.2,0-1.7.1-.7.5-1.7.4-2.3,0-.4-.3-.7-.6-.5-.4.2-.5,1.2-.6,1.7-.2,1-.4,2.1-.6,3.1-.2,1-.5,2.1-1.2,2.6-.5.4-1,.6-1.6.7-.4,0-1.5.2-1-.9.4-.8.8-1.6,1.1-2.4.3-.7.5-1.5.7-2.3.1-.6.4-2.3-.4-1.9-.4.2-.5,1.1-.7,1.6-.3.9-.6,1.8-.9,2.6-.4.8-.8,1.5-1.4,1.9Z"/>
      <path class="st19" d="M179.7,261.8c.4.6,1.2.2,1.7-.1.6-.4,1-1.1,1.4-1.9.4-.8.7-1.7.9-2.6.1-.5.3-1.4.7-1.6.7-.4.5,1.3.4,1.9-.2.8-.4,1.6-.7,2.3-.3.9-.8,1.6-1.1,2.4-.5,1.1.6,1,1,.9.5,0,1.1-.2,1.6-.7.6-.6.9-1.6,1.2-2.6.2-1,.4-2.1.6-3.1.1-.5.2-1.5.6-1.7.3-.2.5.1.6.5.1.7-.2,1.7-.4,2.3,0,.5-.5,1.6,0,1.7.3,0,.7-.3.9-.5,2.3-1.5,4.3-4.5,5.3-8.2,0,0,0,0,0,0-1.7-.3-3.4-.4-5.2-.2-2.9.3-5.6,1.5-8.4,2.8,0,0,0,0,0-.1,2.7-1.8,5.6-2.7,8.4-3,1.8-.2,3.7-.2,5.5.1.2-4.3-1.1-8.2-3.4-9.8.3,1.2.6,2.5.8,3.8.1,1.1.1,2.3-.5,3.2,0,0-.1,0-.1,0-.4-1.4-.7-2.9-1.1-4.3-.2-.7-.3-1.6-.6-2.2-.3-.7-.8-.8-1.4-.9-1.6-.3-3.4,0-4.9,1.5,1.1,1.4,2.3,3.1,2.1,5.7,0,0,0,.1,0,.1-.2.2-.4,0-.6-.2-.4-.6-.6-1.5-.9-2.3-.3-.8-.6-1.8-1.2-2.1-.5-.2-1.2.1-1.7.6-.2.2-.4.3-.6.5-.7.9,0,1.2.3,1.5.5.5,1.1,1.1,1.5,1.7.5.7,1.1,1.7.7,2.9,0,0,0,.1-.1.1-.5-.2-.9-.5-1.2-1-.4-.5-.7-1.3-1-1.9-.4-.7-1.2-1.3-1.8-.4-.7,1.2.6,1.6,1,2,.4.4.8.8,1.2,1.3.2.2.4.6.3,1.1-.1.3-.3.3-.5.3-.5-.1-1-.7-1.4-1-.4-.3-.8-.6-1.3-.4-.7.2-1.1,1.7-1.4,2.6-.3.8-.7,1.8-.8,2.7-.2,1.2.6,2,1.1,2.7.4.6.9,1.5,1.5,1.6.6,0,1.3-.7,1.7-1.4.5-.7.9-1.5,1.3-2.3.2-.4.4-1.2.8-1.4.8-.3,0,1.9-.1,2.3-.3.7-.5,1.4-.9,2.1-.2.5-1.5,2.4-1.2,2.9ZM180.2,261.7c0,0,0-.2,0-.2.2,0,.4,0,.5-.2,0,0,0,0,0,.1-.2.3-.4.4-.6.3ZM177.8,258.8s0-.1,0-.1c.3.2.6,0,.8-.3,0,0,.1,0,0,0-.2.4-.6.6-.9.4ZM178.1,259.1s0-.1,0-.1c.3,0,.5,0,.8-.3,0,0,.1,0,0,.1-.3.3-.6.5-.9.4ZM176.2,255c0,0,0,0,0,0,0-.6.3-1,.6-1.3,0,0,0,0,0,0-.3.3-.5.8-.5,1.3ZM185.4,260.8c0,0,0,0,0,0,.1-.3.3-.6.4-.8,0,0,0,0,0,0-.1.3-.3.6-.4.9ZM185.7,260.9c0,0,0,0,0,0,.2-.4.4-.7.5-1.2,0,0,.1,0,0,0,0,.5-.2.9-.5,1.3ZM188.1,259s0,0,0-.1c.3-.2.6-.4.9-.6,0,0,0,0,0,0-.3.2-.6.4-.9.6ZM182,246.7c0,0,0,.1,0,0,0-.3-.2-.5-.4-.6,0,0,0-.1,0,0,.2,0,.4.3.5.6ZM182.5,247c0,0,0,.1,0,0-.1-.5-.3-.9-.6-1.2,0,0,0,0,0,0,.3.3.5.7.6,1.2ZM186.3,249.6c0,0,0,0,0-.1.2-.2.5-.3.7-.4,0,0,0,.1,0,.1-.2,0-.5.2-.7.4ZM186.9,249.9s0,0,0-.1c.2,0,.3-.2.5-.2,0,0,0,0,0,0-.2,0-.3.2-.5.2ZM189.2,241.9c0,0,0,.1,0,0,0-.2-.1-.5-.2-.6,0,0,0-.2,0-.1.2.1.3.4.3.7ZM189.5,241.9c0,0,0,0,0,0,0-.4-.2-.8-.4-1.1,0,0,0-.1,0,0,.2.3.4.6.4,1.1ZM193.6,246.3c0,0,0,0,0,0,0-.4,0-.8-.1-1.2,0,0,0-.1,0,0,.1.4.2.8.1,1.3ZM193.9,245.8c0,0,0,.1,0,0-.1-.5-.2-1-.3-1.5,0,0,0,0,0,0,.1.5.2.9.3,1.4Z"/>
      <path class="st19" d="M180.2,261.6c0,0-.1.1,0,.2.2.1.4,0,.6-.3,0,0,0-.2,0-.1-.2.2-.3.3-.5.2Z"/>
      <path class="st19" d="M177.8,258.7s0,0,0,.1c.3.2.7,0,.9-.4,0,0,0-.1,0,0-.2.4-.5.5-.8.3Z"/>
      <path class="st19" d="M178.1,258.9s0,.1,0,.1c.3,0,.6,0,.9-.4,0,0,0-.2,0-.1-.2.3-.5.4-.8.3Z"/>
      <path d="M176.1,255c0,0,0,0,0,0,0-.5.3-1,.5-1.3,0,0,0-.1,0,0-.3.3-.5.8-.6,1.3Z"/>
      <path class="st19" d="M185.3,260.8c0,0,0,.1,0,0,.1-.3.3-.6.4-.9,0,0,0-.1,0,0-.1.3-.3.6-.4.8Z"/>
      <path class="st19" d="M185.7,260.8c0,0,0,.1,0,0,.2-.3.4-.8.5-1.3,0,0,0-.1,0,0-.1.5-.3.8-.5,1.2Z"/>
      <path class="st19" d="M188.1,258.9s0,.1,0,.1c.3-.2.6-.4.9-.6,0,0,0-.1,0,0-.3.2-.6.4-.9.6Z"/>
      <path d="M182,246.8c0,0,0,0,0,0,0-.3-.2-.6-.5-.6,0,0,0,0,0,0,.2,0,.3.3.4.6Z"/>
      <path d="M182.4,247.1c0,0,0,0,0,0-.1-.6-.3-1-.6-1.2,0,0,0,0,0,0,.3.3.5.7.6,1.2Z"/>
      <path class="st19" d="M186.5,249.7c0,0,0,.2,0,.1.2-.2.4-.4.6-.5,0,0,0-.2,0-.1-.2.1-.4.3-.6.5Z"/>
      <path class="st19" d="M186.8,249.8s0,.1,0,.1c.2,0,.3-.1.5-.2,0,0,0-.1,0,0-.2,0-.3.1-.5.2Z"/>
      <path class="st19" d="M189.1,242c0,0,0,0,0,0,0-.3-.1-.5-.3-.7,0,0,0,0,0,.1.1.1.2.3.2.6Z"/>
      <path class="st19" d="M189.5,242c0,0,0,0,0,0,0-.5-.2-.8-.4-1.1,0,0,0,0,0,0,.2.3.3.6.4,1.1Z"/>
      <path d="M193.5,246.3c0,0,0,0,0,0,0-.5,0-.9-.1-1.3,0,0,0,0,0,0,.1.4.2.8.1,1.2Z"/>
      <path d="M193.8,245.9c0,0,0,0,0,0,0-.5-.2-1-.3-1.4,0,0,0,0,0,0,0,.5.2,1,.3,1.5Z"/>
    </g>
    <g>
      <path class="st4" d="M207.5,252.4c1-.8,1.3-2.3,1.3-3.9,0-2.6-.5-5.1-1.4-7,0-.1,0-.4.1-.3,2.3.6,2.5,4.7,2.4,8,1.4-3,1.5-7,.3-9.6,0-.2,0-.4.2-.3.6.3,1.1.8,1.5,1.5-.1-1.7-.6-3.1-1.4-4.1-1.4,0-2.9.5-4.3,1.3-3.3,1.9-6,5.7-8.4,9.9,0,.2-.3,0-.2-.2,2.5-4.6,5.7-8.6,9.3-10.4,1.2-.6,2.3-.9,3.5-1,0,0,0,0,0,0,0-1.3,0-2.6-.2-3.9-.4,1.4-1.2,2.4-2.1,2.8-.1,0-.2-.2,0-.3,1.1-2.5.8-5.5-.6-6.9.3,2.3-.2,4.8-1.3,6.7,0,.2-.2,0-.2-.1.2-1.9.4-4,0-5.8-.5-1.8-1.7-3-3-1.8-.3.3-.6.7-.9,1.1-.4.6-.4,1.2-.1,1.7.4.8.8,1.6,1,2.4.4,1.3.6,2.8.2,4.4,0,.2-.2.2-.2,0-.2-1.6-.8-3.5-1.7-4.3-1.2-1.2-2.3,1.1-2.9,2.8,1,.2,1.8.8,2.4,2,.3.6.9,2.5-.1,2.7,0,0,0,0-.1,0-.7-1.8-2-2.7-3.4-2.1-1.3.6-2.3,2.5-2.6,4.5,1.3-1.6,3.2-1.7,4.3,0,0,0,0,.2,0,.2,0,0,0,.2,0,.2-2.1-.5-4.8.7-5.2,4.8-.2,1.5,0,3-.1,4.6,0,1.4-.2,2.9-.5,4.3.8-.7,1.7-.8,2.6-.9,1.1-.1,2.3-.3,3.4-1.1,2.4-1.9,3.1-6.1,2.6-9.6,0,0,0-.2,0-.2.9-1.1,1.5,1.3,1.6,2.2.2,1.8,0,3.7-.5,5.5,2.2-1.9,3.3-6.1,2.3-9.5,0-.2,0-.3.2-.3,1.1.6,1.7,2.4,1.7,4.3,0,2.1-.7,4.2-1.5,6,.7.3,1.6.4,2.4-.2ZM206.9,252c0,0,0,0,0,.1-.3.2-.6.3-.8.3,0,0,0-.1,0-.1.3,0,.5-.1.8-.3ZM207.1,251.6c0,0,0,.1,0,.2-.2.1-.5.2-.7.2,0,0,0-.1,0-.2.2,0,.5-.2.7-.2ZM210.6,246.1c0,0,0,.1,0,0,0-.5,0-.9-.2-1.4,0,0,0-.1,0,0,0,.4.2.9.2,1.4ZM210.8,245s0,0,0,0c0-.4,0-.7,0-1.1,0,0,0,0,0,0,0,.4,0,.7,0,1.1ZM204.6,247.3c.1.4,0,1-.2,1.3,0,0,0,0,0,0,.2-.3.3-.8.2-1.1,0,0,0,0,0,0ZM203.9,248.8c0,0,0,0,0,0,0-.3.2-.7.4-.9,0,0,0,0,0,0-.1.3-.3.6-.4.9ZM195.7,254.4c0,0,0,.1,0,.1-.4,0-.7,0-1.1,0,0,0,0-.1,0-.1.4,0,.7,0,1.1,0ZM195.1,254.9c0,0,0,.2,0,.2-.3,0-.6-.1-.8-.2,0,0,0-.1,0-.1.3,0,.6,0,.9.2ZM209.8,235.9c0,0,0,.1,0,.1-.2,0-.3,0-.5,0,0,0,0-.1,0-.1.2,0,.3,0,.5,0ZM209.6,235.6s0,.1,0,.1c-.2,0-.5,0-.7,0,0,0,0-.1,0-.1.2,0,.5,0,.7,0ZM204.4,240.4c0,0-.1,0,0-.1.1-.3.3-.5.5-.6,0,0,.1.1,0,.2-.2.1-.3.3-.4.5ZM205.2,238.9s0,0,0,.1c-.3.2-.5.4-.7.7,0,0,0,0,0,0,.2-.3.5-.5.7-.7ZM202.4,240c-.2.3-.4.5-.6.8,0,0,0,0,0,0,.2-.3.4-.5.6-.8,0,0,0,0,0,0ZM208,230.8c0,0,0,.1,0,0,0-.4,0-.8-.1-1.2,0,0,0-.1,0,0,0,.4.1.8.1,1.2ZM207.6,230.2c0,.1-.1.1-.1,0,0-.3,0-.6,0-.9,0,0,0,0,0,0,0,.3,0,.6,0,.9ZM196.7,242.9c0,0,0,.1,0,.1-.3,0-.5,0-.8.2,0,0,0,0,0-.1.3-.3.6-.3.8-.2ZM196.5,243c0,0,0,.1,0,.1-.4.1-.7.4-1,.7,0,0,0,0,0-.1.3-.4.7-.6,1-.7ZM203.6,232.3c0,0,0,.1,0,0,0-.3,0-.6-.1-.8,0,0,0-.1,0,0,0,.3.1.6.1.8ZM203.2,232.3c0,0,0,0,0,0,0-.4-.1-.7-.3-1,0,0,0-.1,0,0,.2.3.3.6.3,1ZM201,233.1s0,.1,0,0c-.2-.3-.5-.4-.8-.4,0,0,0,0,0,0,.3,0,.6,0,.8.4ZM200.9,232.4c0,0,0,.2,0,.1-.2-.2-.5-.3-.8-.1,0,0,0,0,0-.1.3-.2.7-.1.9.1Z"/>
      <path class="st19" d="M207,252.2c0,0,0-.2,0-.1-.3.1-.5.3-.8.3,0,0,0,.1,0,.1.3,0,.6,0,.8-.3Z"/>
      <path class="st19" d="M207.1,251.7c0,0,0-.2,0-.2-.2,0-.5.1-.7.2,0,0,0,.2,0,.2.2,0,.5-.1.7-.2Z"/>
      <path d="M210.6,246.1c0,0,0,0,0,0,0-.5,0-1-.2-1.4,0,0-.1,0,0,0,0,.4.1.9.2,1.4Z"/>
      <path d="M210.7,245s0,0,0,0c0-.4,0-.7,0-1.1,0,0,0,0,0,0,0,.4,0,.7,0,1.1Z"/>
      <path class="st19" d="M204.3,248.5c.3-.3.3-.9.2-1.3,0,0,0,0,0,0,0,.4,0,.8-.2,1.1,0,0,0,.1,0,0Z"/>
      <path class="st19" d="M203.9,248.7c0,0,0,.1,0,0,0-.3.2-.6.4-.9,0,0,0-.1,0,0-.2.3-.3.6-.4.9Z"/>
      <path class="st19" d="M195.7,254.5c0,0,0-.1,0-.1-.4,0-.7,0-1.1,0,0,0,0,.1,0,.1.4,0,.7,0,1.1,0Z"/>
      <path class="st19" d="M195,255.1c0,0,0-.1,0-.2-.3,0-.6-.1-.9-.2,0,0,0,.1,0,.1.3,0,.6.1.8.2Z"/>
      <path d="M209.8,236.1c0,0,0-.1,0-.1-.2,0-.3,0-.5,0,0,0,0,.1,0,.1.2,0,.3,0,.5,0Z"/>
      <path d="M209.6,235.7s0-.1,0-.1c-.2,0-.5,0-.7,0,0,0,0,.1,0,.1.2,0,.5,0,.7,0Z"/>
      <path d="M204.3,240.3c0,.1,0,.2,0,.1.1-.2.3-.4.4-.5,0,0,0-.2,0-.2-.2.1-.4.3-.5.6Z"/>
      <path d="M205.2,239s0-.1,0-.1c-.3.1-.5.4-.7.7,0,0,0,.2,0,0,.2-.3.4-.5.7-.7Z"/>
      <path d="M201.7,240.8c.2-.3.4-.5.6-.8,0,0,0-.1,0,0-.2.3-.4.5-.6.8,0,0,0,.1,0,0Z"/>
      <path d="M208,230.9c0,0,0,0,0,0,0-.4,0-.8-.1-1.2,0,0,0,0,0,0,0,.4,0,.8.1,1.2Z"/>
      <path d="M207.5,230.2c0,.1,0,.1.1,0,0-.3,0-.6,0-.9,0,0,0,0,0,0,0,.3,0,.6,0,.9Z"/>
      <path d="M196.7,243c0,0,0-.1,0-.1-.3,0-.6,0-.8.2,0,0,0,.2,0,.1.3-.2.5-.3.8-.2Z"/>
      <path class="st19" d="M196.5,243.2c0,0,0-.1,0-.1-.4,0-.7.3-1,.7,0,0,0,.2,0,.1.3-.3.6-.6,1-.7Z"/>
      <path d="M203.5,232.4c0,0,0,0,0,0,0-.3-.1-.6-.1-.8,0,0,0,0,0,0,0,.3,0,.6.1.8Z"/>
      <path d="M203.2,232.4c0,0,0,0,0,0,0-.4-.1-.7-.3-1,0,0-.1,0,0,0,.1.3.2.6.3,1Z"/>
      <path d="M200.9,233.2s0,0,0,0c-.2-.3-.5-.4-.8-.4,0,0,0,0,0,0,.3,0,.5.1.8.4Z"/>
      <path d="M200.8,232.5s.1,0,0-.1c-.2-.3-.6-.4-.9-.1,0,0,0,.1,0,.1.3-.1.6,0,.8.1Z"/>
    </g>
    <g>
      <path class="st20" d="M160.8,198.5c-.2-1-.9-1.3-1.6-1.2-.8.2-1.4,1-2,1.9.6-.3,1.2-.3,1.7.1.6.5.4,1.7.2,2.6-.3,1.2-.6,2.2,0,3,.3.4.7.6.9,1.1.3.8.2,1.8,0,2.7.1,0,.3,0,.4,0,0,0,0,0,0,0,.5-.8.8-1.9.6-2.9-.1-.6-.4-1.1-.6-1.7-.3-1-.2-2.1,0-3.2.3-.8.6-1.6.4-2.4ZM159.3,197.7c.3,0,.6.1.8.4,0,0,0,.2,0,.1-.2-.3-.5-.4-.8-.4,0,0,0-.1,0-.1ZM159.5,198.1c.3.1.5.4.7.6,0,0,0,.2,0,.1-.2-.2-.5-.5-.7-.7,0,0,0-.1,0,0Z"/>
      <path class="st20" d="M156.9,198.2c.5-2-.3-3.3-1.5-3-.7.2-1.3.8-2,.6-.3-.1-.6-.4-.9-.7-.3-.4-.8-1.2-1.2-1.1-.4,0-.8.8-1,1.4-.1.4-.2.8-.3,1.2,0,.5-.1,1-.1,1.4.3-.7.7-1.4,1.2-1.1.4.2.5.8.8,1.2.3.5.8.7,1.2.2.2-.2.4-.5.6-.7.6-.6,1.6-1.3,2.2-.8.5.4.7,1.4.7,2.3.1-.3.2-.6.3-1ZM156.2,195.7c.2.1.5.3.6.6,0,0,0,.2,0,.1-.2-.2-.3-.4-.6-.6,0,0,0-.1,0-.1Z"/>
      <path class="st28" d="M164.6,206.2c0-.3-.1-.6-.3-.4-.2.2-.2.6-.3.9,0,.3,0,.6-.1.9,0,0,.2-.1.2-.2,0,0,0,0,0,0,.1-.2.2-.5.3-.7,0-.1.1-.4.1-.5Z"/>
      <path class="st28" d="M165.5,207.7c0-.4-.4-.2-.7-.1-.1.1-.2.2-.3.3.1.1.3.2.4.2.1,0,.6,0,.6-.4Z"/>
      <path class="st28" d="M163.7,206.4c-.2-.2-.4.5-.4.7,0,.3,0,.6,0,.9,0,0,.1,0,.2,0,0-.4.6-1.1.3-1.5Z"/>
      <path class="st18" d="M159,201.2c.3-2-1.1-2-2-1.5-.1.2-.3.4-.4.6h0c-.3.7-.6,1.3-.8,1.9-.7,1.6-1.4,3.2-2.1,4.7.6-.4,1.2-.8,1.8-1.3,0,0,.1.1,0,.2-.6.7-1.3,1.1-2,1.5h0c1.3.3,2.7.1,4.1-.8,0,0,.1.1,0,.2-1.3.9-2.6,1.2-3.9.8,0,0,0,0,0,0,1.9.8,3.8,1.4,5.8,1.3,0,0,0,0,.1,0,.3-.7.4-1.5.2-2.3-.2-.7-.5-.9-.9-1.3-.3-.4-.6-.8-.5-1.5,0-.9.4-1.7.5-2.6ZM158.3,203.2c0,0,.1,0,0,.1-.2.3-.2.7,0,1,0,0,0,.1,0,0-.2-.3-.1-.9,0-1.2Z"/>
      <path class="st18" d="M156.4,199.7c.2-1.8-.4-3-1.6-2.4-.4.2-.8.5-1.1.9-.2.3-.4.6-.7.9-.4.3-.7.2-.9-.2-.2-.3-.3-.7-.5-1,0-.2-.2-.4-.3-.5-.6-.5-1,.3-1.3,1,0,.1,0,.2,0,.3,0,2.9.9,5.2,1.8,7.4.3.4.7.9,1,1.3-.2-1.2-.2-2.4,0-3.7,0-.1.1-.1.1,0-.1,1.3,0,2.6,0,3.8,0,0,0,0,0,0,0,0,0,0,0,0,0,0,0,0,.1-.1.2-1.9.5-3.7,1.1-5.4,0-.1.1,0,.1,0-.5,1.7-.8,3.4-1.1,5.1.7-1.4,1.3-2.8,2-4.2.4-1,.9-2,1.3-3,0,0,0,0,0-.1ZM150.7,199.3c0,0,.1,0,0,0,0,.4,0,.7,0,1.1,0,0,0,.2,0,0,0-.4,0-.8,0-1.2ZM150.3,199.6c0,0,0,0,0,0,0,.5,0,1,.1,1.4,0,0,0,.2,0,0-.1-.5-.2-1-.1-1.5Z"/>
      <path class="st28" d="M164.4,209.1c.1-.2.1-.5,0-.6-.2-.1-.5.2-.7,0,0,0-.1,0-.2.1.1.3.3.5.5.6.1,0,.3,0,.4-.2Z"/>
      <path class="st0" d="M163,208.6c.3-.2.5-.3.7-.5-1.2.7-2.6,1-3.8,1.1,0,0-.1,0-.2,0,0,0-.1,0-.1,0-2.2.1-4.4-.3-6.3-1.7,0,0,0,0,0,0,0,0,0,0,0,0,0,.1-.1.1-.2,0,0,0,0,.2-.1.3,0,0,0,0,0,0,0,0,0,0,0,0,0,0,0,.1,0,.2,0,0,0,0,0,0,0,0,0,0,0,0,2,1.7,4.3,2.1,6.7,1.7,1.1-.2,2.3-.6,3.4-1.3Z"/>
      <path class="st18" d="M158.3,203.3c0,0,0-.2,0-.1-.2.3-.3.9,0,1.2,0,0,0,0,0,0-.1-.3,0-.7,0-1Z"/>
      <path class="st18" d="M160.4,210s0,0,0,0c-.3,0-.6.1-.8.2-2.2.4-4.5,0-6.4-1.4.4.9.9,1.6,1.6,2.1,0,0,0,.3,0,.2-.4-.2-.8-.6-1.1-1.1.8,1.5,1.6,2.9,2.6,4.1,0,0,0,.3-.1.2-1.3-1.5-2.4-3.5-3.3-5.7.3,1.9.6,3.7,1.1,5.4.3,1,.7,2.3,1.2,3.3.7,1.2,1.9,2.6,2.6.6.4-1.1.1-2.3.7-3.3.6-1,1.1,0,1.8-.5,1.3-.9.6-3,.2-4.2ZM160.3,211.1c0,0,0-.2,0-.1.2.3.2.7.2,1,0,0,0,0,0,0,0-.4,0-.7-.2-1ZM159.9,211.4c0,0,0-.2,0-.1.1.1.2.4.2.7,0,.1-.1.2-.1,0,0-.2,0-.4-.2-.6ZM153.8,212.8c0,0,0-.1,0,0,0,.4.2.8.3,1.2,0,0,0,.2,0,0-.2-.3-.3-.8-.3-1.3ZM154.2,213.3c0,0,0-.1,0,0,0,.4.2.8.4,1.1,0,0,0,.2,0,.1-.2-.3-.3-.7-.4-1.2Z"/>
      <path class="st20" d="M161.6,213.4c.1-1.2-.3-2.2-.7-2.9.3.9.5,1.9.2,3-.2.5-.5,1-.9,1.1-.6.3-1.4-.4-1.8.7-.4,1.3-.2,3.8-1.5,3.9-.3,0-.6,0-.8-.3.2.2.4.4.5.6.8.7,1.7.3,2.3-1.2.3-.8.6-1.6,1.2-2.1.8-.7,1.4-1.4,1.5-2.9ZM160.5,215.1c0,0,.1,0,0,.1-.3.4-.6.6-1,.7,0,0-.1-.2,0-.2.3,0,.6-.3.9-.7ZM160.1,216.1s0,.1,0,.2c-.3,0-.5,0-.7.4,0,0-.1,0,0-.1.2-.3.5-.5.8-.4Z"/>
      <path class="st18" d="M150.8,199.3c0,0,0-.1,0,0-.1.4-.1.8,0,1.2,0,0,.1,0,0,0,0-.3,0-.7,0-1.1Z"/>
      <path class="st20" d="M160.4,211c0,0-.1,0,0,.1.1.3.2.6.2,1,0,0,0,0,0,0,0-.4,0-.8-.2-1Z"/>
      <path class="st18" d="M150.4,199.5c0,0,0,0,0,0,0,.5,0,1,.1,1.5,0,0,.1,0,0,0-.1-.4-.2-.9-.1-1.4Z"/>
      <path class="st20" d="M160,211.2c0,0-.1,0,0,.1,0,.2.1.3.2.6,0,.1.1,0,.1,0,0-.3,0-.5-.2-.7Z"/>
      <path class="st20" d="M160.6,215.2c0,0,0-.2,0-.1-.3.3-.6.6-.9.7,0,0,0,.3,0,.2.4,0,.7-.3,1-.7Z"/>
      <path class="st20" d="M160.1,216.3s0-.1,0-.2c-.3,0-.6.1-.8.4,0,0,0,.2,0,.1.2-.3.5-.3.7-.4Z"/>
      <path class="st18" d="M152.6,207.7c-1.3-1.7-2.6-3.5-4.2-4.6-.2-.2-.6-.4-.9-.5,0,0,0,0,0,0-.8,0-1.1,1.3-1,2.3,0,.7.2,1.1.4,1.7.2.5.4,1.1.3,1.8,0,.6-.4,1.1-.7,1.6-.4.6-.9,1.3-.7,2.2,0,.1.4.8.8,1.1,1.3.1,2.7-.7,4-1.5.6-.9,1.2-1.9,1.7-2.8-.8.8-1.7,1.3-2.6,1.3,0,0,0-.2,0-.2,1.1-.2,2.1-.8,3.1-1.8,0,0,0,0,0,0,0,0,0,0,0-.1,0,0,0,0,0,0,0,0,0,0,0,0-1.1.2-2.1-.2-2.9-1.2,0,0,0-.3,0-.2.8.9,1.7,1.3,2.7,1.2ZM147.7,212.6c0,0,0,.2,0,.2-.4.1-.7,0-1-.5,0,0,0-.2,0-.1.3.3.6.4.9.4ZM146.8,212.8s0,.1,0,.1c-.3,0-.5-.4-.7-.8,0,0,0-.1,0,0,.2.4.4.5.7.7Z"/>
      <path class="st18" d="M152.7,208.9s0,0,0,0c-.8,1.5-1.5,3-1.5,5,0,.1-.1.2-.1,0,0-2,.8-3.7,1.6-5.2-.6.9-1.2,1.9-1.7,2.8,0,0,0,.1,0,.2,0,0-.1.1-.2.2-.9,1.4-1.8,2.9-2.6,4.4-.2.3-.3.6-.5,1-.1.8,0,1.6.5,1.9.3.2.7,0,1,0,.4,0,.8.2,1.1.6.4.7.6,1.7,1,2.3.4.6,1.1.5,1.6-.2.4-.5.6-1.2.7-1.9,0,0,0,0,0-.1,0,0,0-.1,0-.2,0,0,0-.1,0-.2,0,0,0,0,0,0,0-.2,0-.4.1-.6,0-.4,0-.8,0-1.1,0-1.5,0-3-.3-4.4-.3-1.3-.6-2.7-.7-4.1-.3,1.2-.3,2.5-.2,3.7,0,.1-.1.2-.1,0-.2-1.3-.1-2.8.3-4.1ZM153.2,215.2c0-.1,0-.2.1,0,0,.4,0,.9,0,1.4,0,.1-.2,0-.1,0,.1-.4.1-.8,0-1.2ZM153.5,216.2c0-.1,0-.1.1,0,0,.4,0,.9-.2,1.2,0,0-.1,0,0,0,.1-.4.2-.8.2-1.1Z"/>
      <path class="st20" d="M147,202.4c-.5-.1-1,0-1.4.5-.7.9-.4,2.5-.4,3.6,0,1.1-.5,2-.8,3.1-.3.8-.4,1.7,0,2.4.3.6.7.9,1.2,1.1.2,0,.4.2.6.2-.2-.2-.4-.5-.5-.6-.5-1.1.1-2.1.7-2.9.4-.6.6-1.2.6-2.1,0-.5-.3-.9-.4-1.3-.2-.5-.3-1.1-.3-1.7,0-.8.3-2,.8-2.2ZM145.9,202.9s0,0,0,0c-.2.3-.3.5-.5.8,0,0,0,0,0,0,.1-.3.3-.7.5-.9Z"/>
      <path class="st20" d="M145.9,203c0,0,0-.1,0,0-.2.2-.4.5-.5.9,0,0,0,.1,0,0,.1-.3.3-.6.5-.8Z"/>
      <path class="st20" d="M153.9,212.7c0,0,0,0,0,0,0,.5.1.9.3,1.3,0,0,.1,0,0,0-.2-.4-.3-.8-.3-1.2Z"/>
      <path class="st20" d="M154.3,213.2c0,0,0,0,0,0,0,.4.2.8.4,1.2,0,0,.1,0,0-.1-.2-.3-.3-.7-.4-1.1Z"/>
      <path class="st20" d="M153.4,215.1c0-.1-.1,0-.1,0,0,.4,0,.8,0,1.2,0,.1,0,.2.1,0,.1-.5.2-.9,0-1.4Z"/>
      <path class="st20" d="M153.6,216.1c0-.1-.1,0-.1,0,0,.4,0,.8-.2,1.1,0,0,0,.1,0,0,.2-.4.2-.8.2-1.2Z"/>
      <path class="st20" d="M153.6,219.6s0,0,0,.1c0,1.2-.5,2.5-1.3,2.9-.9.5-1.4-.5-1.8-1.6-.3-.9-.6-1.6-1.3-1.7-.4,0-.9.2-1.3-.2-.3-.3-.5-1-.5-1.6-.4.9-.7,2-.5,2.9.3,1.3,1.3.9,2,.9.5,0,1,0,1.4.6.3.5.3,1.2.7,1.6.5.5,1.3.2,1.7-.4.6-.9.9-2.2,1-3.5ZM147.2,219.1c0,0,.1,0,0,0,0,.4,0,.8.2,1,0,0,0,.2,0,.1-.2-.3-.3-.7-.2-1.1ZM147,219.7c0-.1.1-.1.1,0,0,.4,0,.8.3,1,0,0,0,.2,0,.1-.3-.2-.5-.7-.4-1.2Z"/>
    </g>
    <g>
      <path class="st18" d="M144.2,199.8c.2.7.6,1.2,1.1,1.4,1.1.3,2.1-1,2.6-2.5,0-.4.1-.8.2-1.2,0,0-.1,0-.2,0-.3,0-.6-.3-.8-.7-.4-.9-.2-2.2.3-3.1-.6.4-1.6.6-1.8-.4-.2-.9.3-1.9.8-2.6-1,.4-2.1.5-2.9.2-1,1-1.6,2.9-.8,4.5.4.8,1.2,1,1.4,2.1.1.7,0,1.5.1,2.2ZM143.1,194.9c0,.1,0,.2-.1,0-.1-.4-.2-.8-.2-1.3,0-.1,0-.2,0,0,0,.4.1.8.2,1.2Z"/>
      <path class="st18" d="M148.4,203c.6,1.2,1.8.8,2.6-.1.6-.6,1-1.2,1.7-1.2.7,0,1.4.6,2.2,0,.9-.6,1.3-2.4,1.2-3.7-.1-1.5-.6-2.6-1.2-3.7,0,0,0,0,0,0-.3-.2-.5-.5-.7-.8.2.9.1,2.1-.6,2.3-.5.2-.8-.3-1.1-.9,0,1.4-.3,2.8-1,3.4-1,.8-1.4-.6-1.5-2-.3.7-.9,1.2-1.5,1,0,.4-.2.8-.2,1.2-.2,1.4-.5,3.2,0,4.4ZM148.9,202.9c-.3-.1-.4-.5-.3-1,0,0,0,0,0,0,0,.4,0,.7.3.9,0,0,0,.1,0,.1ZM155.4,198.3c0,0-.1,0,0,0,.1-.5.2-1,0-1.4,0,0,0-.2,0,0,.1.5,0,1,0,1.6ZM155.8,198c0,0,0,.1,0,0,0-.5,0-1,0-1.4,0,0,0,0,0,0,0,.5,0,1,0,1.4Z"/>
      <path class="st7" d="M147.5,196.7c.2.4.6.5.9,0,.5-2.5,1.4-5,2.4-7,0,0,0,0,0,0-.2-.2-.4-.5-.5-.9-.9.6-2.1,1.3-3.3,1.8-.5.5-1.1,1.5-1,2.4.2,1.1,1.3.6,1.8.1.1-.1.3.2.1.3,0,0,0,0,0,0,0,0,0,0,0,.1-.4.6-.7,1.4-.6,2.2,0,.3.1.6.2.9ZM146.6,192.8c0,0,0,0,0,0,0-.5.2-1,.5-1.3,0,0,0,0,0,0-.2.3-.4.8-.4,1.2ZM146.4,192.2c0,0,0,0,0,0,0-.4.2-.7.4-.9,0,0,0,0,0,0-.2.2-.3.5-.4.9Z"/>
      <path class="st7" d="M150.3,197.1c.3,1.2,1.1,1.2,1.6,0,.4-.9.4-2,.4-3,0-.3-.1-.7-.1-1,0-.2.2-.2.2,0,.2.7.3,1.6.7,2.1.3.4.8.3,1-.4.2-.5,0-1.1,0-1.5,0,0,0,0,0,0-.9-1-1.7-2-2.4-3.3,0,0,0,0,0,0-.2,0-.4,0-.5,0-1,2.3-1.8,4.6-2.3,7.1.6.2,1.2-.5,1.4-1.3,0-.2,0-.4,0-.6,0,0,0-.1,0-.2,0-.2.2-.2.2,0,0,0,0,0,0,.1,0,0,0,0,0,0,0,0,0,0,0,0,0,0,0,0,0,.1,0,.6,0,1.3,0,1.8Z"/>
      <path class="st18" d="M147.3,182.1c-1.4.2-2.8.3-4.1.4-.5.8-1,1.6-1.4,2.6-.9,2.7.4,4.8,1.9,5.4,0,0,0,0,0,0,0,0,.1,0,.1.1.2,0,.4.1.6.1.6,0,1.2,0,1.9-.3-.3-.2-.5-.7-.5-1.2,0-.9.4-1.5.9-1.9-.6-.5-1.4-1.3-1.1-2.5.3-1.3,1.2-1.2,1.9-.9-.1-.5-.2-1.1-.2-1.7Z"/>
      <path class="st7" d="M148.7,181.8c-.3-.5-.3-.5-.8,0-.1.1-.2.2-.3.3.3,0,.7,0,1-.1,0,0,0,0,0-.1Z"/>
      <path class="st7" d="M149.1,184.1c0-.5-.1-1.1-.2-1.7,0-.2-.1-.4-.2-.5-.3,0-.7,0-1,.1-.2.3-.2.4,0,1,0,.4.2.7.3,1.1,0,.2,0,.4-.2.3-.2-.2-.5-.3-.8-.4-.5,0-1.3.5-.9,1.7.2.6.8,1.1,1.2,1.3.1,0,.1.4,0,.5-.5.1-.9.6-.9,1.4,0,.8.2,1.2.7,1.1,0,0,0,0,.1.1,1-.4,2.1-1,3-1.7-.1-.4-.2-.9-.3-1.3-.2-1-.4-2-.6-3.1Z"/>
      <path class="st18" d="M154.7,193.4c.3.3.6.6.9.9.6.5,1.3,1,2.1.4.9-.7,1.1-2.5,1-3.8,0-.8-.2-1.6,0-2.4.2-1.1.8-1.8.9-2.9,0-1.6-.8-2.6-1.7-2.8-.8-.2-1.7.2-2.5.7-.2.3-.5.7-.7.9.5-.2,1.1-.2,1.1.5,0,.4-.2.8-.4,1.1-.2.3-.5.6-.8.8.9-.2,2.6.2,2.3,2.1-.3,1.6-1.6,1.9-2.5,1.7.4.5.8,1.2.7,2.1,0,.3-.2.6-.4.7ZM156.7,194.5c0,0,0-.2,0-.2.3,0,.5,0,.8-.1,0,0,0,.1,0,.2-.3.1-.6.2-.8.1ZM156.7,194.1s0-.1,0-.1c.2,0,.4,0,.6-.1,0,0,0,0,0,.1-.2,0-.4,0-.6.1ZM155.5,186.1c0,0,0-.1,0-.1.2,0,.4-.3.5-.6,0,0,.1,0,0,0,0,.4-.3.7-.6.7Z"/>
      <path class="st7" d="M154.3,192.9c.2.5.5-.2.5-.6,0-.3-.1-.5-.2-.7-.2-.5-.5-.9-.8-1.2,0,0,0,0,0,0,0,0,0,0,0,0-.1,0,0-.5.1-.4.7.4,2.2.6,2.6-1,.5-1.8-1.5-2-2.2-1.9,0,0,0,0,0,0,0,0,0,0-.1,0-.1,0-.2-.2,0-.3.4-.5,1-.8,1.3-1.4.3-.5,0-.9-.3-.9-.1,0-.2,0-.4,0-.1,0-.3,0-.4,0-.8.8-1.6,1.4-2.4,1.9.3.6.5,1.2.4,1.8,0,.6-.2,1-.5,1.2.8,1.1,1.5,2.2,2.4,3.2,0,0,.1,0,.1,0Z"/>
      <path class="st22" d="M151,188.5s0,0,0,0c0,0,0,0,0,0Z"/>
      <path class="st51" d="M151.2,188.6c0,0-.1,0-.2-.1,0,0,.1,0,.2.1Z"/>
      <path class="st0" d="M150.2,184c-.3-.7-.5-1.4-.6-2.2-.2,0-.3,0-.5,0,.1,1.2.3,2.4.5,3.5.2.8.3,1.6.5,2.3.1.5.3,1.1.5,1.4.2.4.5.6.9.4.3-.2.5-.6.5-1.2,0,0,0,0,0-.1,0-.9-.7-1.8-1-2.3-.3-.6-.6-1.2-.9-1.9ZM151.4,188.6c0,0-.1,0-.2,0,.1,0,.2,0,.4,0,0,0,0,.1,0,.1-.2.1-.5,0-.6-.2,0,0,0-.2,0-.1,0,0,0,0,0,0-.1,0-.2-.2-.2-.4,0,0,0-.2,0,0,.1.3.3.5.5.5,0,0,0,.1,0,.1Z"/>
      <path class="st51" d="M150.7,188c.1.4.4.6.6.6,0,0,0-.1,0-.1-.2,0-.4-.2-.5-.5,0,0-.1,0,0,0Z"/>
      <path class="st7" d="M153.7,182.1c-.2,0-.7.8-.9,1-.1.1-.3,0-.2-.2.2-.5.3-1.1.3-1.7-.8.2-1.7.3-2.5.5-.1.6-.1,1.2,0,1.8.2.7.5,1.3.8,1.9.1.3.3.6.5,1,.3-.2.7-.4,1-.7.5-.6.9-1.3,1.2-2,.2-.4.8-1.7-.2-1.5Z"/>
      <path class="st18" d="M150.1,182.5c0-.3,0-.6.1-.8,0,0-.2,0-.3,0,0,.3.1.5.2.8Z"/>
      <path class="st18" d="M153.2,181.1c0,.4,0,.8-.1,1.1.5-.6,1.2-1.2,1.4-.2.2.9-.5,2.1-1.1,3,.7-.6,1.3-1.3,1.9-2.1.4-.6.8-1.6,1.1-2.5-1,.3-2.1.5-3.1.7ZM154.8,182.9c0,0-.1,0,0,0,.1-.4.2-.7.2-1.1,0,0,0,0,0,0,0,.4,0,.8-.2,1.2ZM155.2,182.9c0,0-.1,0,0,0,.2-.3.4-.7.4-1.1,0,0,0,0,0,0,0,.5-.2.9-.4,1.2Z"/>
      <path class="st51" d="M150.8,188.5c.3.5.6.5.8.2,0,0,0-.2,0-.2-.2.2-.5,0-.7-.2,0,0-.1.1,0,.2Z"/>
    </g>
    <g>
      <path class="st17" d="M164.9,246.8c3,.1,5.2-4.2,6.3-8.5.8.3,1.6.7,2.4,1.1-1.7,1.1-2.7,3.6-3.4,6.2,0,.1,0,.2,0,.2,1.8-.2,2.9-3.9,3.6-6.3.4.3.9.5,1.3.9,1.5,1.1,2.7,2.6,3.8,4.4,0,.1.2,0,.1-.2-1.2-2.7-3.1-4.4-5.1-5.5.9-2.8-.5-5.4-1.1-7.7,0-.2-.2,0-.2,0-.3,2.5-.1,5.3.7,7.3-.6-.3-1.2-.6-1.9-.8.4-1.9,0-3.7-.6-5.1-.4-.9-.9-1.7-1.3-2.6-.4-.9-.7-2-1-3,0-.2-.2-.1-.2,0-.2,4.2,1.1,7.9,2.8,10.5,0,0,0,0,0,0,0,0,0,0,0,0-.9-.3-1.8-.6-2.7-.9,0,0,0,0,0,0,0,0,0,0,0,0-.2-1.4-.5-2.8-.7-4.2-.2-1.3-.5-2.7-.8-3.9-.7-2.5-2.1-4-3.1-6.1,0-.2-.2,0-.2.2.1,5.7,1.7,10.9,4.4,14-.7-.2-1.5-.5-2.2-.7-.6-.2-1.1-.3-1.7-.5.6-2.3-.3-4.4-1.1-5.9-1.1-2.1-2-4.3-2.7-6.9,0-.2-.2-.1-.2,0-.2,2.4,0,4.8.7,6.8.7,2.2,1.8,3.9,2.8,5.7-1-.3-2-.7-2.9-1.4v.2c.7.7,1.6,1.1,2.5,1.4-3,.2-6,1.3-8.9,3.1-.1,0,0,.3,0,.3,2,.4,4.1.5,6.2-.1.8-.2,1.6-.6,2.4-1.3.3-.3,1.1-1,1.1-1.7,0,0,0,0,0,0,0,0,0,0,0,0,.3.1.6.2,1,.3.8.3,1.6.5,2.4.8-3.4,1.2-5.8,7.7-9.5,7.7-.1,0-.2.3,0,.3,3.7,1.6,7.9-2.3,10-7.8.8.3,1.6.5,2.3.8.1,0,.3.1.4.2-1.1,1-2.1,2.1-3,3.6-.9,1.6-1.7,3.6-2.9,4.7-.1,0,0,.3,0,.4ZM167.7,237.2c-1.9,4.9-5.5,8.6-8.9,7.7,3.3-.8,5.6-6.5,8.9-7.7ZM165.3,246.4c.9-.9,1.5-2.3,2.2-3.6,1-1.9,2.2-3.2,3.4-4.6-1,3.9-2.9,7.9-5.6,8.1ZM173.5,239.7c-.6,2.1-1.6,5.4-3.1,5.8.7-2.3,1.6-4.6,3.1-5.8ZM159.4,238.8c-1.6.2-3.1.2-4.6,0,3-1.8,6-2.8,9.1-2.8,0,.9-1.8,2-2.2,2.2-.7.4-1.5.6-2.3.7ZM173.8,239.1s0,0,0,0c-.8-2.1-1.2-4.3-1-6.9.6,2.2,1.7,4.3,1,7ZM170.1,232c.8,1.6,1.6,3.4,1.3,5.7-1.7-2.4-2.9-5.7-2.9-9.6.4,1.4,1,2.7,1.6,3.9ZM163.8,235.4s0,0,0,0c-1-1.8-2.1-3.6-2.9-5.7-.6-1.8-.9-3.9-.8-6.1.5,1.9,1.2,3.6,2,5.2.9,1.8,2.2,3.8,1.7,6.6ZM166.6,228.9c.7,2.4,1,5.1,1.6,7.6-2.6-3-4.2-7.8-4.4-13.3,1,1.9,2.2,3.4,2.9,5.7Z"/>
      <path class="st35" d="M158.8,244.9c3.4.8,7-2.8,8.9-7.7-3.3,1.2-5.6,6.9-8.9,7.7ZM165.2,241.4s0,0,0-.1c.2-.3.4-.6.6-1,0,0,.1,0,0,0-.1.5-.3.8-.6,1.1ZM164.8,241.2s0,0,0-.1c.2-.2.4-.5.6-.8,0,0,.1,0,0,0-.2.3-.4.6-.6.8Z"/>
      <path class="st35" d="M167.5,242.8c-.7,1.3-1.3,2.6-2.2,3.6,2.7-.2,4.7-4.2,5.6-8.1-1.3,1.3-2.5,2.6-3.4,4.6ZM167.4,244c0,0,0,0,0,0,.2-.3.4-.7.7-1,0,0,0,0,0,0-.2.3-.4.7-.7,1ZM167.6,243.2c0,0,0,0,0,0,.1-.3.3-.6.5-.8,0,0,0,0,0,0-.2.2-.3.5-.5.8Z"/>
      <path d="M167.4,243.9c0,0,0,.1,0,0,.2-.3.4-.7.7-1,0,0,0-.1,0,0-.2.3-.4.7-.7,1Z"/>
      <path d="M167.5,243.1c0,0,0,.1,0,0,.1-.3.3-.6.5-.8,0,0,0-.1,0,0-.2.2-.4.5-.5.8Z"/>
      <path class="st35" d="M170.4,245.4c1.5-.4,2.5-3.6,3.1-5.8-1.5,1.1-2.4,3.4-3.1,5.8ZM172,243.2c0,0,0,0,0,0,.1-.3.2-.5.4-.8,0,0,0,0,0,0-.1.3-.2.6-.4.8ZM171.8,243.2c0,0,0,0,0,0,0-.2.2-.4.3-.6,0,0,0,0,0,0,0,.2-.2.4-.3.6Z"/>
      <path d="M172,243.2c0,0,0,.1,0,0,.1-.3.2-.5.4-.8,0,0,0,0,0,0-.1.3-.3.5-.4.8Z"/>
      <path d="M171.7,243.2c0,0,0,.1,0,0,.1-.2.2-.4.3-.6,0,0,0,0,0,0,0,.2-.2.4-.3.6Z"/>
      <path d="M165.1,241.3c0,0,0,.2,0,.1.3-.3.5-.7.6-1.1,0,0,0-.1,0,0-.1.4-.3.8-.6,1Z"/>
      <path d="M164.7,241.1s0,.2,0,.1c.2-.2.4-.5.6-.8,0,0,0-.2,0,0-.2.3-.4.6-.6.8Z"/>
      <path class="st17" d="M154.7,238.8c1.5.2,3.1.3,4.6,0,.8-.1,1.5-.3,2.3-.7.3-.2,2.2-1.3,2.2-2.2-3,0-6.1,1-9.1,2.8ZM160.5,238s0,0,0-.1c.3-.1.5-.2.8-.2,0,0,0,0,0,.1-.3,0-.5.2-.8.3ZM160.1,237.9c0,0,0,0,0-.1.2-.1.4-.2.7-.3,0,0,0,0,0,.1-.2.1-.4.3-.7.3Z"/>
      <path class="st35" d="M173.7,239s0,0,0,0c.7-2.7-.4-4.8-1-7-.2,2.6.2,4.9,1,6.9Z"/>
      <path class="st17" d="M160.5,237.9s0,.1,0,.1c.3,0,.5-.2.8-.3,0,0,0-.1,0-.1-.3,0-.5.1-.8.2Z"/>
      <path class="st17" d="M160.1,237.8c0,0,0,.2,0,.1.2,0,.4-.2.7-.3,0,0,0-.1,0-.1-.2.1-.4.2-.7.3Z"/>
      <path class="st35" d="M171.3,237.7c.4-2.3-.5-4.2-1.3-5.7-.7-1.2-1.2-2.5-1.6-3.9,0,3.9,1.3,7.2,2.9,9.6ZM170.9,235.5c0,0,0,.1,0,0,0-.4-.2-.9-.2-1.3,0,0,0-.1,0,0,0,.4.2.9.2,1.3ZM171.1,234.8c0,0,0,.1,0,0,0-.4-.1-.8-.3-1,0,0,0-.1,0,0,.2.2.4.6.4,1Z"/>
      <path class="st17" d="M163.8,235.4s0,0,0,0c.5-2.8-.8-4.8-1.7-6.6-.8-1.6-1.5-3.3-2-5.2,0,2.2.2,4.3.8,6.1.7,2.1,1.9,3.9,2.9,5.7ZM162.5,231.8c0,0,0,.1,0,0-.2-.3-.3-.7-.5-1,0,0,0-.1,0,0,.2.3.3.7.5,1ZM162,231.5s0,0,0,0c-.1-.3-.2-.6-.3-.8,0,0,0,0,0,0,.1.3.2.6.3.9Z"/>
      <path d="M170.9,235.6c0,0,0,0,0,0,0-.4-.1-.9-.2-1.3,0,0,0,0,0,0,0,.4.1.9.2,1.3Z"/>
      <path d="M171,234.8c0,0,0,0,0,0,0-.5-.1-.8-.4-1,0,0,0,0,0,0,.2.2.3.6.3,1Z"/>
      <path d="M160.4,234.3c0,0,.1,0,0,0v-.2s0,0,0,0c0,0,0,0,0-.1,0,0,0,0-.1,0-.8-2.1-1.6-4.3-2.8-5.9-1.2-1.6-2.8-2.5-3.9-4.3,0,0-.2,0-.2.2.8,5.5,3.8,8.5,6.9,10.4,0,0,0,0,0,.1ZM157.2,227.9c1.2,1.5,2,3.7,2.9,5.8-2.8-1.8-5.5-4.5-6.3-9.3,1,1.4,2.3,2.2,3.4,3.5Z"/>
      <path class="st17" d="M168.1,236.5c-.5-2.5-.9-5.2-1.6-7.6-.7-2.3-1.9-3.8-2.9-5.7.2,5.4,1.8,10.2,4.4,13.3ZM165.1,228.6c0,0,0,.1,0,0-.2-.4-.3-.9-.4-1.4,0,0,0-.1,0,0,0,.5.2.9.3,1.3ZM164.6,228.4c0,0,0,.2,0,0,0-.3-.1-.7-.2-1,0,0,0-.1,0,0,0,.3.1.7.2,1Z"/>
      <path class="st17" d="M162.4,231.9c0,0,0,0,0,0-.1-.4-.3-.7-.5-1,0,0,0,0,0,0,.2.3.3.7.5,1Z"/>
      <path d="M158.6,231.4c0,0,.1,0,0,0-.2-.6-.4-1.1-.7-1.6,0,0-.1,0,0,.1.3.5.5,1,.7,1.6Z"/>
      <path class="st17" d="M162,231.5s0,0,0,0c-.1-.3-.2-.6-.3-.9,0,0,0,0,0,0,.1.3.2.6.3.8Z"/>
      <path class="st17" d="M160.1,233.6c-.9-2-1.7-4.3-2.9-5.8-1.1-1.3-2.4-2.2-3.4-3.5.9,4.8,3.6,7.5,6.3,9.3ZM158.7,231.4c0,0,0,.1,0,0-.2-.6-.4-1.1-.7-1.6,0,0,0-.2,0-.1.3.5.5,1,.7,1.6ZM158.4,230.2c0,0,0,.2,0,0-.1-.3-.2-.6-.4-.9,0,0,0-.2,0-.1.2.2.4.6.5.9Z"/>
      <path class="st55" d="M158.4,230.3c0,0,.1,0,0,0,0-.4-.3-.7-.5-.9,0,0,0,0,0,.1.2.3.3.6.4.9Z"/>
      <path class="st17" d="M165,228.7c0,0,0,0,0,0-.2-.4-.3-.9-.3-1.3,0,0,0,0,0,0,0,.5.2,1,.4,1.4Z"/>
      <path class="st17" d="M164.6,228.5c0,0,0,0,0,0,0-.3-.1-.7-.2-1,0,0,0,0,0,0,0,.3.1.7.2,1Z"/>
    </g>
    <g>
      <path class="st18" d="M177.6,234.6c-.7.3-1.2,1-1.6,1.9-.2.4-.5.9-.8,1-.5.2-.9-.2-1.3-.2-.7,0-1.5.5-1.9,1.5-.4.9-.5,2-.2,2.9.2.5.4.8.6,1.2,1.3.7,2.3,2.1,3.3,3.5-.6-1.4-1-2.9-1.3-4.5,0-.2.1-.3.2-.2.3.9.7,1.6,1.1,2.3-.1-.8-.2-1.5-.2-2.4,0-.1.1-.2.2,0,.3.8.6,1.6.8,2.4,0-.6.2-1.3.3-1.9,0-.1.1-.1.2,0,.2.5.3,1.1.2,1.8.5-1,1-2,1.5-3.1,0-.1.2,0,.2,0,0,.9-.2,1.8-.5,2.6,0-.1.2-.3.3-.4.8-1.2,1.5-2.6,2.1-4.1,0,0,0,0,0,0-.1-.4-.4-.7-.3-1.2,0-.2,0-.5.2-.6,0,0,0,0,0-.1-.3-1.9-1.4-3.1-2.7-2.5ZM178.7,235s0-.1,0-.1c.2,0,.5.1.6.4,0,0,0,.1,0,0-.2-.2-.4-.3-.6-.3ZM178.2,235.4c0,0,0-.2,0-.2.3,0,.5.2.7.3,0,0,0,.1,0,.1-.3,0-.5-.2-.7-.3ZM172.4,238.6c0,0,.1,0,0,0-.1.4-.2.8,0,1.2,0,0,0,.1,0,0-.1-.4-.1-.9,0-1.3ZM172,239.4c0,0,0,0,0,0-.1.4-.1.8,0,1.2,0,0,0,.1,0,0-.1-.4,0-.8,0-1.3Z"/>
      <path class="st18" d="M178.7,234.9s0,.1,0,.1c.2,0,.4.1.6.3,0,0,0,0,0,0-.2-.2-.4-.3-.6-.4Z"/>
      <path class="st18" d="M178.3,235.3c0,0,0,.1,0,.2.2.1.5.2.7.3,0,0,0-.1,0-.1-.2-.1-.5-.2-.7-.3Z"/>
      <path d="M172.4,238.7c0,0,0-.1,0,0-.2.4-.2.9,0,1.3,0,0,.1,0,0,0-.1-.4,0-.8,0-1.2Z"/>
      <path class="st28" d="M181.9,234.7c-.2,0-.3.5-.3.8,0,.2,0,.4,0,.5,0,0,0,0,0,0,0,0,0,0,0,0,.1-.2.2-.3.3-.6,0-.2.1-.7-.1-.6Z"/>
      <path d="M172.1,239.5c0,0,0,0,0,0-.1.4-.1.9,0,1.3,0,0,0,0,0,0,0-.4,0-.8,0-1.2Z"/>
      <path class="st28" d="M181.4,235.4c0-.2-.2-.1-.3,0,0,.2,0,.4,0,.6,0,.2.1.5.2.7,0-.2.1-.4.2-.6,0-.2,0-.4,0-.6,0,0,0,0,0,0Z"/>
      <path class="st28" d="M181,236.4c0,0-.1,0-.1,0,0,0-.1.1-.1.2,0,0,0,.2,0,.2,0,.1,0,.2,0,.3,0,.3.1.5.3.6,0-.3.2-.5.2-.8,0-.2-.2-.3-.2-.5Z"/>
      <path class="st28" d="M182,236.1c-.1,0-.2.2-.3.3,0,.2,0,.4,0,.5.2,0,.5,0,.6-.5,0-.3,0-.4-.2-.4Z"/>
      <path class="st28" d="M182,237.1c-.1,0-.3,0-.4,0,0,.2,0,.4,0,.5.2,0,.5,0,.7-.4,0,0-.1,0-.2-.1Z"/>
      <path class="st28" d="M180.6,237.4c-.4.3,0,1,0,1.4,0-.3.2-.5.3-.8,0,0,0,0,0,0-.2-.1-.3-.3-.3-.6Z"/>
      <path class="st18" d="M172.1,243.2c-.8-.4-1.9-.7-2.8.1-.9.8-1.2,2.3-.9,3.7.2.9.6,1.8.7,2.8,0,1.2-.2,2.6.1,3.8.3,1.1,1.2,1.5,2,1.2.8-.2,1.5-1,2.2-1.8.1-.3.3-.7.4-1,.4-.9.8-1.9,1.3-2.7-1,1.3-2.3,2.1-3.5,2.4,0,0-.1-.2,0-.3.7-.6,1.5-1.3,2.2-2-.5.3-1.1.4-1.6.3,0,0,0-.2,0-.2.5-.4,1.1-.8,1.7-1.1-.5,0-1,0-1.5,0,0,0,0-.1,0-.2.6-.7,1.3-1.1,1.9-.9-.6-.5-1.2-.7-1.9-.8,0,0-.1-.2,0-.3,1-.4,2-.3,2.9.3-.8-1.1-1.6-2.3-2.6-3,0,0,0,.2,0,.1,0-.1-.1-.2-.2-.3-.1,0-.2-.1-.3-.2ZM169.1,244.6c0-.5.3-1,.6-1.1,0,0,0,0,0,.1-.3.2-.5.5-.5,1,0,0,0,0,0,0ZM169.4,244.2c.1-.3.4-.6.6-.7,0,0,0,0,0,.1-.2.2-.4.3-.6.6,0,0,0,0,0,0Z"/>
      <path d="M169.7,243.5c-.3.1-.5.6-.6,1.1,0,0,0,0,0,0,0-.5.3-.8.5-1,0,0,0-.2,0-.1Z"/>
      <path class="st28" d="M181.8,237.8c-.1,0-.2,0-.4,0,0,.2,0,.3-.1.5.1.2.3.3.5.2,0,0,.2-.1.2-.3,0,0,0-.1,0-.2,0,0,0,0,0,0,0,0-.1-.1-.2,0,0,0,0,0,0,0Z"/>
      <path d="M170,243.6c-.2,0-.4.4-.6.7,0,0,0,0,0,0,.2-.3.3-.4.6-.6,0,0,0-.1,0-.1Z"/>
      <path class="st28" d="M181.3,238.5c0,.2-.1.4-.2.6.1.1.3.2.5.2s.2-.3.2-.5c-.2,0-.4,0-.6-.3Z"/>
      <path class="st18" d="M182.3,238.1c0,.1,0,.3,0,.4,0,0,0,.2-.1.2,0,.2,0,.6-.2.8-.3.3-.5,0-.7-.1-.4,1.6-1,3.2-1.7,4.7.3-.2.6-.2.8-.2,0,0,0,.2,0,.2-.4.4-.9.9-1.3,1.4.4-.3.9-.4,1.3-.2,0,0,0,.2,0,.2-.5.4-1,.9-1.6,1.3.6.2,1.2.1,1.8-.3,0,0,.1.1,0,.2-.5.8-1.1,1.3-1.7,1.5.8.2,1.6.4,2.4.4,0,0,0,0,0,0,0,0,0,0,.1,0,0,0,.1,0,0,.2-.7.8-1.7.8-2.4.7,0,0-.1,0-.2,0,.8.5,1.5,1,2.3,1.4.7.4,1.5.8,2.3.4.8-.4,1.5-1.8,1.1-3.1-.4-1.4-1.6-2.1-1.3-4,.2-1.4.8-2.4.6-3.9-.1-1.4-.8-2.4-1.7-2.1ZM183,238.9c0,0,0-.2,0-.1.3,0,.5.4.6.8,0,0,0,.1,0,0-.1-.3-.3-.6-.6-.7ZM182.6,250.6s0-.2,0-.1c.2.2.4.2.6,0,0,0,0,.1,0,.1-.2.1-.4,0-.6-.1ZM182.5,251s0-.1,0-.1c.2,0,.4,0,.6,0,0,0,0,0,0,.1-.2.1-.5.2-.7,0Z"/>
      <path class="st0" d="M181.4,237.2c-.5,1.7-1.2,3.4-2,4.9-.5.9-1,1.7-1.6,2.4-.6.7-1.5,1.4-1.9,2.5,0,0,0,0,0,0,0,0,0,0,0,0,0,0,0,.2,0,.2,0,.1,0,.2,0,.3.6,2.1,3.5-4,3.9-5,.7-1.7,1.2-3.6,1.7-5.5Z"/>
      <path class="st18" d="M183.1,238.7c0,0,0,.1,0,.1.2.1.5.3.6.7,0,0,0,0,0,0-.1-.4-.3-.7-.6-.8Z"/>
      <path class="st51" d="M176.9,243.2c0-.2,0-.5-.1-.7,0,.6-.2,1.2-.3,1.7,0,0,0,0,0,0,0,0,0,0,0,0,0,.2-.1.3-.2.1-.3-.6-.5-1.4-.7-2.1,0,.7,0,1.3.1,2v.2c.2.1,0,.3,0,.2-.4-.5-.7-1-.9-1.6.3,1.2.7,2.4,1.1,3.5.2-.4.4-.8.7-1.1.4-.4.7-.8,1.1-1.3.5-.9.8-1.8.9-2.9-.5,1-1,2.1-1.5,3,0,0,0,0,0,0,0,0,0,0,0,0,0,0,0,0,0,0,0,0-.1,0,0-.1,0,0,0,0,0,0,0-.4,0-.7,0-1.1Z"/>
      <path class="st51" d="M175.7,247.2c-.8-.7-1.7-1-2.7-.8.6.2,1.1.5,1.6,1,0,0,0,.1,0,.2,0,0,0,.1,0,0-.6-.2-1.2,0-1.8.6.5,0,1,0,1.4,0,0,0,0,0,0,0h0c0,0,0,.1,0,.2-.5.4-1,.8-1.6,1.1.6,0,1.2-.2,1.8-.6,0,0,0,0,0,.1,0,0,0,0,0,0,0,0,0,0,0,.1-.7.7-1.5,1.4-2.2,2,1.3-.4,2.4-1.4,3.5-2.8,0,0,0-.1.1-.2,0,0,0,0,0-.1,0,0,0,0,0,0,0,0,0,0,0-.1,0,0,0-.2,0-.3,0,0,0-.1,0-.1,0-.1,0-.3,0-.4Z"/>
      <path class="st51" d="M180,244.1c-.3,0-.5.2-.8.4,0,0,0,0,0,0-.3.5-1.4,2.6-2.3,3.5.5.3,1,.7,1.5,1,.9.3,1.9.3,2.7-.3-.9.1-1.8,0-2.6-.4,0,0,0-.2,0-.2,0,0,0,0,0,0,.6-.2,1.1-.6,1.6-1.2-.5.3-1.1.3-1.6,0,0,0,0,0,0,0,0,0,0,0,0,0,0,0,0,0,0,0,.4-.6,1-1.1,1.5-1.5-.4,0-.8,0-1.2.4,0,0-.1,0,0-.2,0,0,0,0,0,0,0,0,0,0,0-.1.4-.5.8-1,1.3-1.4Z"/>
      <path class="st51" d="M176.6,248.3s0,0,0,0c-.2.1-.4.2-.5.2-.5,1.3-.7,2.5-.5,3.9.1-.5.2-1,.4-1.4,0,0,0,0,0,0,0,0,.1,0,.1,0,0,.5.1,1,.2,1.6.2-.5.2-1.2.2-1.8,0,0,0,0,0,0h0c0,0,0-.1,0-.2,0-.1,0-.3.1-.1.2.5.4,1.1.6,1.7,0-.7-.2-1.3-.3-2,0,0,0,0,0,0,0,0,0,0,0,0,0,0,0-.2,0-.2.6.4,1.1,1,1.5,1.8-.3-1.2-.9-2.2-1.6-2.9,0,0-.1,0-.2-.1,0,0,0,0,0,0,0,0,0,0,0,0Z"/>
      <path class="st18" d="M177.9,249.2c-.2,0-.3-.1-.4-.2.7.9,1.2,2.2,1.4,3.7,0,.2-.1.3-.2.1-.4-1.2-1-2-1.7-2.7.2.8.3,1.7.4,2.6,0,.2-.1.2-.2.1-.3-.7-.5-1.4-.8-2.1h0s0,0,0,0c0,.4,0,.7,0,1.1,0,.4-.1.7-.2,1.1,0,.1-.1.2-.2,0,0-.6-.1-1.1-.2-1.7,0,.5-.2,1.1-.3,1.6,0,.1-.1.1-.2,0-.2-1-.3-2.4,0-3.5-.4.9-.9,1.8-1.3,2.7,0,.2-.2.4-.3.7,0,0,0,0,0,.1,0,0,0,0,0,.1-.4.9-.7,1.8-.9,2.7-.3,1.6,0,3,.9,3.5.9.5,1.7-.4,2.5-1,.6-.5,1.1-.7,1.7-.4.8.3,1.5.4,2.2-.7,1.4-2.1.8-5-.3-6.4-.2-.1-.4-.3-.6-.4-.5-.3-1-.6-1.5-1ZM173.4,256.7c0,0,0-.1,0,0,0,.4.1.7.3,1,0,0,0,.1,0,0-.2-.3-.3-.6-.3-1ZM173.2,257.3c0,0,0,0,0,0,0,.4.2.7.4.9,0,0,0,.1,0,0-.2-.2-.4-.5-.4-.9Z"/>
      <path class="st18" d="M182.6,250.4s0,0,0,.1c.2.2.4.2.6.1,0,0,0-.2,0-.1-.2,0-.4,0-.6,0Z"/>
      <path class="st18" d="M182.6,250.9s0,0,0,.1c.2,0,.4,0,.7,0,0,0,0-.1,0-.1-.2.1-.4.1-.6,0Z"/>
      <path class="st18" d="M173.5,256.7c0,0,0,0,0,0,0,.4.1.7.3,1,0,0,0,0,0,0-.1-.3-.2-.6-.3-1Z"/>
      <path class="st18" d="M173.3,257.3c0,0,0,0,0,0,0,.4.2.7.4.9,0,0,0,0,0,0-.2-.2-.3-.5-.4-.9Z"/>
      <path class="st18" d="M174.8,255.9c-.2.3-.3.7-.2,1,0,0,0,0,0,0,0-.3,0-.7.2-.9,0,0,0-.2,0,0Z"/>
      <path class="st18" d="M179.5,255.9c0,.1.1,0,.1,0,0-.5,0-1-.2-1.4,0,0-.1,0,0,0,0,.5.1.9.2,1.4Z"/>
    </g>
    <g>
      <path class="st18" d="M174.4,240.2c-.1,1.7-1.4,2.2-2.2,2-1.6-.5-3-2.4-4.3-3.9,0,0,0,0,0,0,0,0,0-.1,0-.2,0,0,0,0,.1,0,0,0,0,0,0,0,.7-.3,1.4-.2,2,.3,0,0,.1-.1,0-.2-.6-.5-1.3-.6-2.1-.2,0,0,0,0,0,0,0,0,0,0,0,0,.9-.8,1.8-1,2.7-.8,0,0,0-.2,0-.2-.9-.3-2,0-2.8.9,0,0,0,0,0,0,0,0,0,0,0,0,.4-.8.9-1.5,1.3-2.3.4-.6.8-1.2,1.3-1.6,0,.1-.1.3-.2.4,0,0,0,0,0,0,.1-.4.3-.7.6-.8,0,0,0,0,0-.1.2-.1.3-.3.5-.4.8-.5,1.8-.9,2.5-.1.3.4.6,1.1.5,1.8-.1,1-.8,1.6-1.3,2.1,0,0-.1.2,0,.3.7.7,1.5,1.5,1.4,3.1ZM173.8,241.3c.2-.3.3-.7.4-1.1,0,0,0,0,0,0,0,.4-.2.7-.4,1.1,0,0,0,.1,0,0ZM173.8,240.6c0,0,0,0,0,0,0-.3,0-.6,0-.9,0,0,0,0,0,0,0,.3,0,.5,0,.8ZM171.2,233.6s0-.1,0-.1c-.2,0-.4.2-.6.5,0,0,0,.1,0,0,.1-.2.3-.4.5-.4Z"/>
      <path class="st18" d="M171.7,245.8c0,.8-.3,2-.9,2.2-.5.1-.9-.4-1.3-.8,0,0-.2,0-.2.2.1,1.2-.6,2.4-1.4,2.4-.9,0-1.4-1.4-1.5-2.7-.2-2.5.4-5.5,1-7.9,0,0,0,0,0,0,0,0,0,0,0,0,0,1.2.1,2.4.6,3.3,0,0,.1,0,0-.1-.4-.9-.6-2-.6-3.2,0,0,0,0,0,0,0,0,0,0,0,0,.2.7.6,1.3,1,1.7,0,0,.1,0,0-.1-.4-.5-.8-1-1-1.6,0,0,0,0,0,0,0,0,0,0,0,0,0,0,0-.2,0-.2,0,0,0,0,0,0,0,0,0,0,0-.1,0,0,0,0,0,0,.9,1.1,1.8,2.2,2.8,3,.2.1.3.3.5.4h0s0,0,0,0c0,0,0,0,0,0,.1.6.4,1,.5,1.5.2.7.2,1.5.1,2.3ZM171,243.4c0,0,0,0,0,0-.1-.4-.3-.6-.6-.8,0,0,0,0,0,.1.2.2.4.4.5.8ZM170.8,242.6s0,0,0,0c-.1-.3-.3-.4-.5-.5,0,0,0,0,0,0,.2,0,.3.2.4.5ZM168,248.6s0,0,0-.1c-.2,0-.3,0-.4-.2,0,0,0,0,0,0,.1.2.3.2.4.2ZM167.7,249s0-.1,0-.1c-.2,0-.4,0-.5-.3,0,0,0,0,0,0,.1.3.3.5.6.4Z"/>
      <path class="st18" d="M171.1,228.6c.7.9,0,2.6-.5,3.5-1,1.8-2,3.6-2.9,5.4,0,0,0,0,0,0,0,0,0,0,0,0,.3-1.4.7-2.7,1.2-4,0,0,0-.2,0,0-.5,1.2-.9,2.5-1.2,3.9,0-1.2,0-2.4.2-3.6,0-.1,0-.1-.1,0-.2,1.1-.3,2.2-.3,3.2-.1-1-.4-1.9-.6-2.8,0,0,0,0,0,0-.4-1.4-.3-3.3,0-4.9.2-1,.7-2.6,1.4-1.9.4.4.6,1.4.9,1.9,0,0,0,0,.1,0,.6-.7,1.3-1.2,1.9-.6ZM171.2,230.1c0-.3,0-.6,0-.9,0,0,0,0,0,0,.1.2.1.5,0,.7,0,0,0,0,0,0ZM167.1,229.7c0,0,0,0,0,0,0-.4.2-.8.3-1.2,0,0,0-.1,0,0-.1.4-.2.8-.3,1.2ZM166.9,230.2c0,0,0,0,0,0,0-.4,0-.8.1-1.2,0,0,0,0,0,0,0,.4-.1.8-.1,1.2Z"/>
      <path class="st18" d="M166.1,245.3s0,0,0,0c-.3,1.3-.8,3-1.8,2.5-.8-.4-1.4-2.2-.9-3.6,0-.1,0-.2,0-.2-.4,0-1,.1-1.2-.5-.2-.5,0-1.1.2-1.6.3-.8.7-1.5,1.1-1.9.8-.6,1.7-.9,2.5-.9.4,0,.9.2,1.3,0-1,.4-2,1.4-2.7,2.7,0,0,0,.2,0,0,.7-1.3,1.6-2.2,2.6-2.7,0,0,0,0,0,.1,0,0,0,0,0,0-.5.7-1,1.6-1.2,2.7,0,.1,0,.2,0,0,.3-1,.7-1.8,1.2-2.6,0,0,0,0,0,0-.4,1.7-.8,3.4-.9,5.1,0,.2,0,.5,0,.7ZM162.8,241.9s0-.1,0,0c-.2.1-.3.5-.3.8,0,0,0,0,0,0,0-.3.1-.6.3-.7ZM162.2,243c0,0,0,0,0,0,0-.4,0-.7.2-1,0,0,0-.1,0,0-.2.3-.3.7-.3,1.1Z"/>
      <path class="st0" d="M167.6,238.6s0,0,0,0c-.7.5-1.5,0-2.2.1-.7.1-1.5.5-2.2,1-.7.5-1.4,1.2-2.1,2-.4.4-.7.8-1.1,1.3,0,0,0,0,0,0-.2.2-.4.5-.6.7,1-1.9,2.1-3.5,3.4-4.6.7-.6,1.5-1.1,2.2-1.4.4-.2,1.7-.7,2.3-.3,0,0,0,.2,0,.2,0,0,.1,0,.1,0,0,0,0,0,0,0,0,0,.1.2.1.3,0,0,0,0,0,0,0,0,0,.1,0,.1,0,0,0,0,0,0,0,.1,0,.3,0,.4,0,0,0,0,0,.1ZM167.4,238.1s0,0,0,0c-.1-.2-.3-.4-.5-.4,0,0,0,.1,0,.1.2,0,.3.2.5.4Z"/>
      <path class="st18" d="M167.2,237.1s0,0,0,.1c-.2-.1-.5-.1-.7,0-1,.1-1.9.6-2.9,1.2-.1,0-.2.2-.4.3,0,0,0,0,0,0-.7-.2-1.8-.4-1.7-2,.1-1.5,1.1-2.1,1.9-2.4,0,0,.1-.2,0-.3-.3-.9-.9-3,.3-3.4.8-.3,1.5.8,1.9,1.6.7,1.4,1.1,3.2,1.5,4.9-.7-1.2-1.4-2.4-2.3-3.2,0,0,0,0,0,.1.8,1,1.5,2,2.2,3.1-.7-.5-1.5-.8-2.3-1.1,0,0,0,.2,0,.2.8.3,1.6.6,2.3,1,0,0,0,0,0,0ZM165.9,233.1s0,0,0,0c-.1-.3-.3-.6-.5-.7,0,0,0,0,0,0,.2.1.4.4.5.7ZM165.9,232.7c0,0,0,0,0,0-.1-.4-.3-.6-.5-.7,0,0,0,0,0,0,.2.1.4.4.5.7Z"/>
      <path class="st28" d="M160.5,243.6c0,.2-.2.5-.3.3,0-.1,0-.3,0-.4,0,0,0-.2,0-.2,0-.1.2-.2.3-.4,0,.2.2.4.1.7Z"/>
      <path class="st28" d="M159.9,243.5c0,.3.3.7,0,1.1-.1.2-.3.3-.4.1,0-.2,0-.5,0-.7,0,0,0-.2,0-.2,0,0,.2-.2.2-.3Z"/>
      <path class="st28" d="M159.5,244.8c0,.2,0,.4-.2.5-.2.2-.2-.3-.2-.5,0-.1,0-.3,0-.4,0,0,0,0,0,0,0,0,.2-.2.2-.3,0,0,0,.1,0,.2,0,.2,0,.4,0,.5Z"/>
      <path class="st28" d="M160,242.4h0c-.1.2-.2.5-.4.7,0,0,0,0,0,0,0-.2-.2-.3-.4-.3,0,0-.1-.2,0-.3,0-.2.2-.4.4-.4.2,0,.3.2.4.3,0,0,0,0,0,0Z"/>
      <path class="st28" d="M159.6,243.2s0,0,0,0c-.1.2-.2.5-.3.7,0,0,0,0,0,0,0,0,0,0,0,0,0,0,0,0,0,0,0,0,0,0,0,0-.1-.2-.3-.3-.5-.3,0,0,0,0,0-.1,0-.2,0-.2.1-.3.2-.1.4-.1.6,0,0,0,.1.1.2.2,0,0,0,0,0,0Z"/>
      <path class="st28" d="M159.1,244.5c0,.3-.1.6-.3.8,0,.1-.2.3-.3.4-.2.2-.4,0-.3-.3.1-.5.5-.8.8-1,0,0,0,0,0,0,0,0,0,0,0,0,0,0,0,.1,0,.1Z"/>
      <path class="st28" d="M159,243.9s0,0,.1.1c0,0,0,.1,0,.2,0,0-.1,0-.2,0-.2,0-.5.2-.6,0-.2-.3.2-.6.3-.6,0,0,0,0,0,0,.1.2.3.2.4.2Z"/>
    </g>
    <g>
      <path class="st18" d="M199.3,230.9c-.5,2.5,1,3.8,2.3,3.9,2.5.1,5.2-1.9,7.6-3.4,0,0,0,0,.1,0,0-.1,0-.2,0-.3,0,0-.1,0-.2,0,0,0,0,0,0,0-.9-.7-1.8-.9-2.9-.6-.1,0-.1-.2,0-.3,1.1-.4,2.1-.1,3,.7,0,0,0,0,0,0,0,0,0,0,0,0-.9-1.5-2.1-2.3-3.5-2.5,0,0,0-.3,0-.3,1.4,0,2.7,1,3.6,2.7,0,0,0,0,0,0,0,0,0,0,0,0-.3-1.3-.5-2.6-.8-3.9-.3-1-.7-2-1.1-2.9,0,.2,0,.4,0,.7,0,0,0,.1,0,0,0-.6-.2-1.1-.5-1.4,0,0,0-.1,0-.2-.2-.3-.3-.5-.5-.7-.9-1.1-2.2-2.1-3.5-1.4-.6.4-1.3,1.2-1.4,2.3-.2,1.4.4,2.6.9,3.6,0,.1,0,.4,0,.4-1.2.6-2.8,1.4-3.2,3.6ZM199.7,232.7c-.1-.5-.2-1.1,0-1.7,0,0,.1,0,0,0,0,.6,0,1.1,0,1.7,0,0,0,.1,0,0ZM200.1,231.7c0,0,0,0,0,0,0-.4.1-.8.3-1.2,0,0,0,0,0,0-.2.3-.3.7-.3,1.1ZM206.5,223.2c0,0,0-.2,0-.2.3.2.5.5.6.9,0,0,0,.1,0,0,0-.4-.3-.7-.5-.8Z"/>
      <path class="st18" d="M200.8,240c-.2,1.2-.4,2.9.4,3.5.6.4,1.5,0,2.1-.4.1,0,.2.1.2.3-.7,1.7-.1,3.7,1,4,1.3.3,2.5-1.2,3.2-3,1.4-3.4,1.8-7.8,1.9-11.5,0,0,0,0,0-.1,0,0,0,0,0,0-.4,1.7-1.2,3.2-2.2,4.2,0,0-.2-.1,0-.2,1-1.1,1.7-2.4,2.2-4.1,0,0,0,0,0,0,0,0,0,0,0,0-.6.9-1.4,1.6-2.2,1.9,0,0-.1-.2,0-.2.8-.4,1.5-1,2.1-1.8,0,0,0,0,0,0,0,0,0,0,0-.1,0-.1,0-.3,0-.3,0,0,0,0,0-.1,0,0,0-.1,0-.2,0,0,0,0,0,0-1.7,1.1-3.4,2.2-5.1,2.9-.3.1-.6.2-.9.3h0s0,0,0,0c0,0,0,0,0,0-.4.7-.9,1.2-1.4,1.9-.5.9-.9,2-1.2,3.1ZM202.7,237c0,0-.1,0,0-.1.3-.4.7-.7,1.1-.8,0,0,0,.1,0,.2-.4.1-.7.4-1,.8ZM203.4,236c0,0,0,0,0,0,.3-.3.6-.5.9-.5,0,0,0,0,0,0-.3,0-.6.2-.8.5ZM204.7,245.8c0,0,0-.2,0-.1.2,0,.4,0,.7,0,0,0,0,0,0,.1-.2.1-.5.2-.7.1ZM205,246.4c0,0,0-.2,0-.2.3.2.6.1.9-.2,0,0,.1,0,0,.1-.3.4-.7.5-1,.2Z"/>
      <path class="st18" d="M208.8,216.4c-1.4.9-1.1,3.6-.8,5.1.6,3,1.2,6,1.8,9,0,0,0,0,.1,0,0,0,0,0,0,0,.1-2.1.1-4.1,0-6.1,0-.1.2-.2.2,0,.2,1.9.2,4,0,6,.6-1.6.9-3.3,1.2-5.1,0-.2.2-.1.2,0-.1,1.6-.5,3.2-1,4.6.6-1.3,1.3-2.5,2.1-3.6,0,0,0,0,0,0,1.1-1.8,1.9-4.5,2.1-6.8.1-1.4.1-4-1.2-3.4-.7.3-1.4,1.6-2,2.3,0,0-.2,0-.2,0-.5-1.2-1.4-2.4-2.4-1.7ZM208.1,218.4c0-.5.2-.9.5-1.1,0,0,.1,0,0,.1-.2.2-.4.6-.4,1,0,0,0,.1,0,0ZM213.9,219.8c0,.1-.1,0-.1,0,0-.6.1-1.2.1-1.8,0-.1.1-.1.1,0,0,.6,0,1.2-.1,1.8ZM213.9,220.6c0,0,0,0,0,0,.2-.6.3-1.1.4-1.7,0,0,0,0,0,0,0,.6-.2,1.2-.4,1.8Z"/>
      <path class="st18" d="M208.7,242.1s0,0,0,.1c0,1.9-.1,4.6,1.5,4.4,1.4-.2,2.9-2.3,2.8-4.6,0-.2.1-.3.2-.2.6.3,1.3.7,1.9-.1.4-.6.4-1.6.4-2.3,0-1.2-.3-2.3-.7-3.2-.9-1.2-1.9-2.1-3.1-2.5-.6-.2-1.3-.2-1.8-.5,1.2,1.1,2.2,2.9,2.6,5.1,0,.2-.1.2-.2,0-.5-2.2-1.3-3.9-2.5-5.1,0,0,0,.1,0,.2,0,0,0-.1.1,0,.4,1.3.7,2.8.6,4.4,0,.2-.2.2-.2,0,0-1.5-.2-2.9-.6-4.3,0,0,0,0,0,0,0,2.5-.4,5.1-.9,7.6,0,.3-.1.7-.2,1ZM214.8,239c0,0,0-.2,0-.1.2.3.3.8.1,1.3,0,0,0,0,0,0,.1-.4,0-.8-.1-1.1ZM215.2,240.9c0,.1-.1,0,0,0,.2-.5.2-1,0-1.5,0,0,0-.1,0,0,.1.5.1,1.1,0,1.7Z"/>
      <path class="st0" d="M209.4,232.1s0,0,0,0c.8,1.1,2.1.8,3.1,1.3,1,.5,1.8,1.4,2.6,2.5.8,1.1,1.5,2.4,2.1,3.8.3.8.7,1.5,1,2.3,0,0,0,0,0,.1.2.4.3.9.5,1.3-.6-3.1-1.4-5.9-2.8-8.2-.7-1.2-1.6-2.3-2.5-3.1-.5-.5-2.1-1.9-3.1-1.6,0,.1-.1.2-.2.3,0,.1-.2,0-.1-.1,0,0,0,0,0,0-.1,0-.2.2-.3.4,0,0,0,0,0,0,0,0,0,.2,0,.2,0,0,0,0,0,0,0,.2-.1.4-.1.6,0,0,0,.1,0,.1ZM209.9,231.4c0,0,0,0,0-.2.3-.3.6-.3.9-.3,0,0,0,.2,0,.2-.3,0-.5,0-.8.3Z"/>
      <path class="st18" d="M210.7,230.1s0,0-.1.1c.4,0,.7,0,1,.2,1.3.7,2.5,1.8,3.5,3.1.1.2.3.4.4.5,0,0,0,0,0,0,1.1,0,2.7.3,3.2-2,.5-2.1-.7-3.5-1.6-4.3,0,0,0-.3,0-.4.8-1.1,2.5-3.8,1-4.9-1-.7-2.4.4-3.3,1.3-1.6,1.7-2.8,3.9-4.1,6.1,1.4-1.3,3-2.6,4.5-3.3,0,0,.1.1,0,.2-1.5,1.1-3,2.1-4.4,3.2,1.2-.3,2.5-.4,3.7-.3,0,0,0,.3,0,.3-1.2,0-2.4.1-3.7.3,0,0,0,0,0-.1ZM214.1,225.3s0,0,0,0c.3-.4.6-.7,1-.7,0,0,0,.1,0,.1-.3.1-.7.4-1,.7ZM214.2,224.7c0,0-.1,0,0,0,.3-.4.6-.7,1-.7,0,0,0,.1,0,.1-.3,0-.7.3-1,.7Z"/>
      <path class="st28" d="M217.2,242.6c0,.3,0,.8.3.6,0-.2.2-.4.3-.5,0-.1,0-.2.1-.3,0-.2-.2-.4-.3-.7-.2.2-.4.5-.5.9Z"/>
      <path class="st28" d="M218.1,242.7c-.3.4-.7.9-.6,1.5,0,.4.3.6.5.3,0-.3.2-.7.3-1,0-.1,0-.3,0-.4,0-.2-.1-.4-.2-.5Z"/>
      <path class="st28" d="M218.2,244.7c0,.3,0,.6,0,.7.2.4.4-.3.5-.6,0-.2,0-.4,0-.6,0,0,0,0,0,0,0-.2-.2-.3-.2-.5,0,0,0,.2-.1.3,0,.3,0,.5-.2.7Z"/>
      <path class="st28" d="M218.5,241.2h0c0,.4.2.7.2,1.1,0,0,0,0,0,0,.2-.2.5-.3.7-.2.1,0,.2-.2.3-.4,0-.4-.1-.6-.3-.7-.2,0-.5.1-.7.3,0,0,0,0,0,0Z"/>
      <path class="st28" d="M218.7,242.4s0,0,0,0c0,.4.1.8.2,1.2,0,0,0,0,0,0,0,0,0,0,0,0,0,0,0-.1,0,0,0,0,0,0,0,0,.3-.2.6-.3.8-.2,0,0,0,0,.1-.1.2-.2.1-.3,0-.5-.3-.3-.5-.4-.8-.3-.1,0-.2,0-.3.1,0,0,0,0,0,0Z"/>
      <path class="st28" d="M218.9,244.5c0,.4,0,.8,0,1.2,0,.2.1.5.2.7.2.3.5.2.6-.3,0-.8-.3-1.4-.7-1.7,0,0,0,0,0,0,0,0,0,0,0,0,0,0,0,.1,0,.1Z"/>
      <path class="st28" d="M219.2,243.7c0,0-.2,0-.3.1,0,0,0,.2,0,.3,0,0,.2,0,.2.2.3.2.6.5.9.3.5-.3,0-.9-.2-1,0,0,0,0,0,0-.2.2-.5.2-.7.1Z"/>
    </g>
    <g>
      <path class="st18" d="M232.9,182.9c.6-.2,1.2-.6,1.8-.9-.5,0-.9-.2-1.4-.4,0,0,0-.2,0-.3.6-.2,1.1-.4,1.7-.5-.3-.2-.6-.6-.9-.9,0,0,0-.2,0-.2.3-.2.8-.2,1.1.1,0-.1,0-.3-.1-.4-1.5-.2-3.1-.4-4.6-.5,0,.2.1.4.2.7.1.4.2.9.2,1.4-.1.7-.5,1.2-.8,1.8-.3,1-.4,2.2,0,3,.3.8.9,1.2,1.5,1,.3,0,.6-.3,1-.6,1-1.6,2.3-2.7,3.5-3.7-1,.4-2.1.7-3.1.7-.1,0-.1-.2,0-.3ZM230.2,185.1c0,0,0-.1,0,0,.1.3.4.5.6.4,0,0,0,.1,0,.1-.3,0-.5,0-.7-.4ZM231.1,186.2c-.3,0-.5,0-.7-.4,0,0,0-.1,0,0,.2.2.4.4.6.4,0,0,0,0,0,0Z"/>
      <path d="M230.2,185.1c0,0,0,0,0,0,.1.4.4.5.7.4,0,0,0-.1,0-.1-.2,0-.5,0-.6-.4Z"/>
      <path d="M230.5,185.7s0,0,0,0c.2.3.4.4.7.4,0,0,0,0,0,0-.2,0-.5-.1-.6-.4Z"/>
      <path d="M231.5,190.2c0,.5,0,.9.3,1.1,0,0,0,0,0-.1-.2-.2-.3-.6-.3-1,0,0,0,0,0,0Z"/>
      <path d="M231.7,189.8c0,.3,0,.7,0,1,0,0,0,0,0,0,0-.3,0-.6,0-.9,0,0,0,0,0,0Z"/>
      <path class="st0" d="M236,179.4c0,.9,0,2.1.4,2.7,0,0,0,0,0,0,0,0,0,0,0,0,0,0,.1,0,.1.1,0,0,.1.1.2.1.7-.2.6-1.5.3-2.9-.4,0-.7-.1-1.1-.2Z"/>
      <path class="st8" d="M235.8,179.4c-.1,0-.3,0-.4,0,0,.2.1.5.2.7,0,0,0,0,0,0,0,0,0,0,0,0,0,0,0,0,0,0,0,0,0,.2,0,0,0,0,0,0,0,0-.2-.1-.3-.3-.6-.4-.1,0-.3,0-.4,0,.3.3.5.5.8.9,0,0,0,0,0,0,0,0,0,0,0,0,.1,0,.1.2,0,.3-.5.2-1,.4-1.5.5.4.2.8.3,1.1.3,0,0,.1,0,.2-.1,0,0,.1.1,0,.2-.4.4-.9.7-1.3.9.8-.1,1.6-.3,2.4-.6-.1-.3-.2-.8-.3-1.2,0-.5,0-1-.1-1.6Z"/>
      <g>
        <path class="st18" d="M232.5,186.6c0-.1.2-.3.3-.4,0,0,.2-.1.3-.2,0,0,0-.2,0-.2.9-1.2,1.9-2.1,2.9-3-.7,1-1.3,2.5-1.5,3.9,0,.1,0,.2.1,0,.4-.9.8-1.7,1.3-2.4-.4.9-.5,2-.4,2.9,0,0,.1,0,.1,0,.2-.7.5-1.5.7-2.2,0,.9-.1,1.8-.2,2.6,0,.1,0,.2.1,0,.3-.7.5-1.5.6-2.4,0,1.2,0,2.4,0,3.6,0,.1.1.2.2,0,.5-1.8.6-3.8.4-5.5.3.9.6,1.7.9,2.5.1.3.2.6.3.9,0,1.2.1,2.4-.1,3.6-.3,1.2-.9,2.4-1.7,2.5-.8.2-1.4-.6-2.1-.8-.6-.1-1.3.2-1.9.3-.9.2-1.6-.7-1.6-2.2,0-1.5.6-2.9,1.3-3.9ZM231.8,189.8c0,0,0,0,0,0,0,.3,0,.7,0,1,0,0,0,0,0,0,0-.3,0-.6,0-.9ZM231.9,191.3s0,0,0-.1c-.2-.2-.3-.6-.3-1,0,0,0,0,0,0,0,.5,0,.9.3,1.1Z"/>
        <path class="st8" d="M237,188.5c0-1.2,0-2.4,0-3.7,0,0,0,0,0,0,0,0,0,0,0,0,0,0,0,0,0,0,0,1-.2,1.8-.5,2.7,0-.8.1-1.7.2-2.5,0,0,0,0-.1,0,0,0,0,0,0,0,0,0,0,0,0,0-.3.6-.5,1.3-.7,2,0-1,.2-1.9.6-2.7,0,0,0-.1,0-.1,0,0,0-.1,0,0-.5.6-.9,1.3-1.3,2,.4-1.4,1-2.5,1.7-3.6,0,0,.1.1.2.1,0,0,0,0,0,0,0,0,.1,0,.2,0,0,0,0,0,0,0,0,0,0,0,0,0,0,0,0,0,0,0,0,0,0,.1,0,.2.3,1.8.2,3.7-.1,5.6Z"/>
      </g>
      <path class="st18" d="M238.4,179.9c-.3,0-.7-.2-1-.2.1.6.2,1.2.2,1.5.3-.4.6-.9.9-1.3Z"/>
      <path class="st8" d="M239.7,180.1c0,0-.1,0-.2-.1-.1,0-.2.1-.3.2.1,0,.2,0,.3.1,0,0,.1,0,.2-.1Z"/>
      <path class="st8" d="M239.9,181.6c-.4,0-.8-.1-1.2-.1,0,0,0,0,0,0,0,0,0,0,0,0,0,0-.1,0,0-.1.3-.5.7-.9,1.1-1.2-.1,0-.2,0-.3-.1-.5.3-1,.6-1.4,1.1,0,0-.1.2-.2.2,0,0,0,0,0,0,0,0,0,0,0,.1,0,0,0,0,0,0,0,.3,0,.6-.2.8.5,1,1,1.7,1.9,1.7-.2-.3-.4-.6-.6-.9,0,0,0,0,0,0,0,0,0-.2,0-.2.3,0,.6,0,.9.2-.2-.4-.6-.6-.9-.7,0,0,0,0,0,0h0s0,0-.1,0c0,0,0-.2,0-.2.4-.2.8-.3,1.2-.4Z"/>
      <path class="st18" d="M239.9,180.2s0,0-.1,0c.2,0,.3.1.5.2-.1,0-.2-.2-.4-.2Z"/>
      <path class="st18" d="M240.3,180.5c-.2,0-.3-.1-.5-.2-.4.3-.7.6-1.1,1,.6-.1,1.1,0,1.6.1,0,0,0,.2,0,.3-.5.2-1,.4-1.5.5h0s0,0,0,0c.2,0,.4.2.6.4.2.1.3.4.5.5,0,0,0,.3,0,.2-.3,0-.7,0-1-.2.2.3.5.6.7.8,0,0,0,.2,0,.2-.7,0-1.4-.2-1.9-1,.3.8.5,1.7.9,2.5,0,.2.1.4.2.6,0,0,0,0,0,0,0,0,0,.1,0,.2.3.7.6,1.5,1,2,.7.9,1.6.8,2.4-.4.7-1.1.6-2.5.6-3.8,0-.6,0-1.1.2-1.6-.9-.9-1.8-1.6-2.7-2.2ZM240.6,188.2c0,0,0-.1,0-.1.2,0,.4,0,.6-.1,0,0,0,0,0,.1-.2.1-.5.2-.7.1ZM241.5,188.2c-.2.2-.5.4-.7.4,0,0,0,0,0,0,.2,0,.5-.1.7-.3,0,0,0,0,0,0Z"/>
    </g>
  </g>
  <path class="st24" d="M172.8,84.2s.9,3.9.9,3.9c-10,.6-14.6,1.3-19.9,3.2,0-3.3,8-8.7,19.1-7Z"/>
</svg>