<?xml version="1.0" encoding="UTF-8"?>
<svg id="Layer_1" xmlns="http://www.w3.org/2000/svg" version="1.1" xmlns:xlink="http://www.w3.org/1999/xlink" viewBox="0 0 277.3 857">
  <!-- Generator: Adobe Illustrator 29.2.1, SVG Export Plug-In . SVG Version: 2.1.0 Build 116)  -->
  <defs>
    <style>
      .st0 {
        fill: #9d2d46;
        stroke: #a6304a;
      }

      .st0, .st1, .st2, .st3, .st4, .st5, .st6, .st7, .st8, .st9, .st10, .st11, .st12, .st13, .st14, .st15, .st16, .st17, .st18, .st19, .st20 {
        stroke-miterlimit: 10;
      }

      .st0, .st4, .st9, .st15, .st16 {
        stroke-width: .5px;
      }

      .st1 {
        stroke: #747560;
      }

      .st1, .st2, .st14, .st20 {
        fill: none;
      }

      .st2, .st12 {
        stroke: #000;
      }

      .st21 {
        fill: #fcf8cd;
      }

      .st22 {
        fill: #bfbb9c;
      }

      .st23 {
        fill: #332024;
      }

      .st24 {
        fill: #462e34;
      }

      .st25, .st26 {
        fill: #6f705c;
      }

      .st3 {
        stroke: #82826c;
      }

      .st3, .st11 {
        fill: #878771;
      }

      .st27 {
        fill: #31242d;
      }

      .st27, .st5, .st26, .st11, .st28, .st29, .st30, .st31, .st14, .st32, .st33, .st34, .st35 {
        isolation: isolate;
      }

      .st27, .st35 {
        opacity: .3;
      }

      .st4 {
        fill: #1b8054;
        stroke: #197949;
      }

      .st36 {
        fill: #cf9180;
      }

      .st37 {
        fill: #fff14d;
      }

      .st38 {
        fill: #636352;
      }

      .st39 {
        fill: #fff;
      }

      .st5 {
        stroke: #ba4e55;
      }

      .st5, .st40, .st14, .st33, .st34 {
        opacity: .4;
      }

      .st5, .st33 {
        fill: #c15259;
      }

      .st6 {
        fill: #f7a698;
        stroke: #e3a18d;
      }

      .st26, .st32 {
        opacity: .8;
      }

      .st41 {
        fill: #e28577;
      }

      .st42 {
        fill: #1e7d54;
      }

      .st43 {
        fill: #70754d;
      }

      .st7 {
        fill: #81816b;
        stroke: #787963;
      }

      .st8 {
        fill: #d44569;
      }

      .st8, .st17, .st18, .st19 {
        stroke: #c73e5a;
        stroke-width: .2px;
      }

      .st44 {
        fill: #6e6f5c;
      }

      .st9 {
        fill: #218f64;
        stroke: #198059;
      }

      .st10 {
        fill: #231f20;
      }

      .st10, .st11 {
        stroke-width: .8px;
      }

      .st10, .st11, .st45, .st46 {
        stroke: #231f20;
      }

      .st11 {
        opacity: .1;
      }

      .st47 {
        fill: #2e0e01;
      }

      .st48 {
        fill: #787963;
      }

      .st49 {
        fill: #994638;
      }

      .st50 {
        fill: #2c2a14;
      }

      .st51 {
        fill: #81816c;
      }

      .st52 {
        fill: #393f36;
      }

      .st12 {
        fill: #1e2722;
      }

      .st53 {
        fill: #0e2e19;
      }

      .st54 {
        fill: #7c7c66;
      }

      .st13 {
        stroke: #e5a290;
      }

      .st13, .st55 {
        fill: #f2ab95;
      }

      .st56, .st17 {
        fill: #df4665;
      }

      .st29 {
        fill: #c04a56;
        opacity: .7;
      }

      .st57 {
        fill: #c55d29;
      }

      .st30 {
        fill: #da6869;
        opacity: .6;
      }

      .st31, .st58 {
        fill: #d7685d;
      }

      .st31, .st59 {
        opacity: .5;
      }

      .st60 {
        fill: #b1862d;
      }

      .st14 {
        stroke: #cc6c5b;
        stroke-linecap: round;
      }

      .st15 {
        fill: #249b6c;
        stroke: #219165;
      }

      .st61 {
        fill: #0c0706;
      }

      .st32 {
        fill: #fffcfc;
      }

      .st62 {
        fill: #005236;
      }

      .st63 {
        fill: #222620;
      }

      .st64 {
        fill: #777863;
      }

      .st16 {
        fill: #12734b;
        stroke: #056139;
      }

      .st45 {
        stroke-miterlimit: 10;
        stroke-width: 1px;
      }

      .st45, .st46 {
        fill: #6d6e5a;
      }

      .st65 {
        fill: #230c0c;
      }

      .st66 {
        fill: #f7b295;
      }

      .st67 {
        fill: #b25e4a;
      }

      .st68 {
        fill: #605f44;
      }

      .st18 {
        fill: #cc3e61;
      }

      .st46 {
        stroke-miterlimit: 10;
        stroke-width: 1px;
      }

      .st34 {
        fill: #f38e7f;
      }

      .st19 {
        fill: #cc4063;
      }

      .st69 {
        fill: #ac4727;
      }

      .st35 {
        fill: #e47875;
      }

      .st20 {
        stroke: #6f705c;
        stroke-linecap: square;
        stroke-width: 2px;
      }
    </style>
  </defs>
  <g>
    <g>
      <path class="st12" d="M25.4,828c-5.3-.3-10-3.2-12-7.8s-2.4-10,6.1-15.3c14.4-8.9,25.6-15.4,26.9-20.5,4.7-17.7,8.6-25.8,10.1-47.7,0,0,37-11.8,37.5,2.1.5,13.2-6.6,25-8.6,35.7-3.8,20-3.1,32.3-1,41.8.6,3,.2,5.1,0,5.7-2.5,8.9-41.2,7-59.1,6.1h0Z"/>
      <path class="st2" d="M51.8,813.7c-8.1-10.7-16.5-17-25.2-13.3"/>
      <path class="st2" d="M13.4,813.4c3.8,12.8,37.2,11.6,70.5,6.6"/>
    </g>
    <path class="st12" d="M159.7,729.2s3.7,16.1,2.3,33.6c-1.3,16.6-8.7,30.6-9.7,40.7-.5,8.6-.4,16.6,1.6,22.4,3.2,1.7,12.5,6.4,25.1,5.6,10.1-.6,17.3-4.3,20.5-6.2.6-2.2,1.3-5.5,1.6-9.5.4-6.7-1-11.5-3.1-19.3-1.2-4.3-3.1-11.2-5.8-21.7-.7-15.2-.2-29.8,1.9-43.7-10.7,2-22.3,1-34.3-1.7v-.2Z"/>
    <path class="st2" d="M159.1,806.5c9.6-10,31.9-6.8,35.5.3"/>
    <path class="st2" d="M199.1,817c-15,6.2-30,6.4-45,.3"/>
  </g>
  <g>
    <path class="st7" d="M208,398.5c.6,35.4,5.3,29.8,5.9,65.1.4,27.6,1,93.8-1,122.2-2.5,35.5-7.8,38.5-7.1,46.8,1,13.3,6.4,19,4.6,40.3-.7,7.7-1.4,20.5-3.4,30.7-1.9,9.8-1.4,20.5-4.6,35.9-.7,3.5-4,6-7.5,7.1-8.8,2.5-12.6,1.1-14.1,1.4-5.6,1-8.1-.5-21.5-.7-2.7,0-5.7-2.8-5.7-5.5l-10.5-174.3-.6-97.9c-2.6,32.8-4.6,65.4-10,97.9-4.7,28.1-12.8,56.2-15.1,84.6-.7,8.4-8.1,25.5-8.7,33.9-.7,9.3-4.9,23.6-5.7,33-.7,9.2-3.4,15.5-3.5,24.7,0,3.7-8.9,12.5-12.7,12.6-15,.5-24.6,2.6-39.5-1-7.6-1.9-3.4-14.8-3.4-19.4,0-7.9,1.6-16.8,1.4-22.3-.2-6.8,5.5-21.7,6-33.9.6-14.6,6.3-35.4,7.1-47,2-29.3,3.2-56.2,3.2-56.2,3.2-34.2,12-70.3,12.5-93.8.5-21.5,1.9-50.6,6-85.3l127.9,1.1h0Z"/>
    <path class="st1" d="M159.5,460.4c-15.5,3.8-19.5.5-35,4.3"/>
    <polyline class="st48" points="209.7 418.1 191.8 418.1 194.9 475 213.7 480"/>
    <path class="st1" d="M150.7,412.6c-3.5,10.4-4.5,20.8-2.7,31.2"/>
    <polyline class="st48" points="79.3 419.1 98.7 418.1 95.6 475 74.6 478.4"/>
    <polygon class="st44" points="212.9 433.1 190.5 433.8 190.2 418.1 210.2 418.1 212.9 433.1"/>
    <polygon class="st44" points="76.6 432.2 99 432.8 99.3 417.2 79.4 417.2 76.6 432.2"/>
    <polygon class="st48" points="78.9 418.6 99.3 418.5 99.3 417.2 79.4 417.2 78.9 418.6"/>
    <polygon class="st48" points="210.7 419.3 190.3 419.1 190.2 417.9 210.2 417.9 210.7 419.3"/>
    <g>
      <path class="st10" d="M89.5,429.6"/>
      <ellipse class="st45" cx="137.9" cy="407.1" rx="1.4" ry="4.6" transform="translate(-13.4 4.8) rotate(-1.9)"/>
      <ellipse class="st46" cx="145.6" cy="406.8" rx="1.8" ry="4.6" transform="translate(-14.1 5.3) rotate(-2)"/>
      <path class="st68" d="M148.1,403.4c19.9-.4,40-2.3,60-2.7.2,3.3.3,6.7.5,10-19.8.4-31.8,1.3-51.6,1.8,0,0-8.6.1-11.5,0l-.4-9.2c2.9.1,3,.1,3,.1h0Z"/>
      <path class="st68" d="M80.3,399.3c21.5-.5,38.3,4.9,57.7,4.5v7.9c-20.6,1.3-38,.3-59.1-.7.4-3.4,1-8.3,1.4-11.7h0Z"/>
      <path class="st20" d="M198,401c0,2.2.9,2.3,1,4.9s-.3,3.2-.5,5.3"/>
      <polygon class="st61" points="140.1 410.6 143.2 410.6 143.4 403.4 139.3 403.5 140.1 410.6"/>
      <path class="st20" d="M89.1,401.7c0,2.1-.8,2.2-.7,4.6,0,1.7.5,3,.8,4.9"/>
      <path class="st20" d="M174.9,401.8c0,2,.7,2.1.8,4.4s-.2,2.9-.3,4.8"/>
      <path class="st20" d="M117.3,403.4c0,1.9-.5,2-.4,4.1,0,1.5.5,2.7.7,4.4"/>
    </g>
    <g class="st40">
      <image class="st28" width="843" height="349" transform="translate(42.6 361.3) scale(.2)" xlink:href="question-man-soldier-1.png"/>
    </g>
  </g>
  <g>
    <path class="st6" d="M111.3,115.4c-.4-10.9-3.7-13-8.4-13s-4.7,11.7-.6,18.7c4.6,8,10.2,9.3,10.6,9,0,0-1.4-10.6-1.6-14.8h0Z"/>
    <path class="st55" d="M169.9,141.6s-1.9,26.4,6,34.8c6.6,7,7.4,14.6,7.5,18.8.3,10.7-59.4,14.3-64.3,4.7-1.9-3.8,11.1,2.7,13.6-9.5,3.3-15.6-2.2-33-2.2-33l39.4-15.9h0Z"/>
    <path class="st29" d="M168,152.1c2.8,1.9-19.5,32.1-34.3,27.6,0-6.3-.7-12.2-2.1-18.1l36.4-9.6h0Z"/>
    <path class="st13" d="M186.2,120.1c-.9,21-17.2,36.8-33,42.7-6.9,1.2-13.9,1.6-20-.2-7.4-4-13.4-15.7-20-29.1-2.7.3-7.7-48.1,0-64.2,7.1-14.6,27.7-13.6,34.4-14.2,1.7,0,15.4-1.2,17.1,3.5.7,1.7.6,1.9,1.3,4,1.5,4.3,7.7,3.5,10.5,7.8,2.2,3.4.9,6.1,1.3,13.1.4,6,1,8.5,3.9,14.8,0,0,4.9,9.8,4.4,21.9h0Z"/>
    <path class="st30" d="M181.2,81.7c-4.2-.8-14-12.7-30.8-13.7-25.7-1.5-36.3,21-41.5,22.7-5.7,1.8,2.4-24.3,2.4-24.3,1.3,3.8,40.5-17.1,58.4-9,16.6,7.5,16.9,25.3,11.6,24.3h-.1Z"/>
    <path class="st24" d="M185,127.2c-2.1,8.1-5.4,14.8-10.2,19.6l-2.4,3.4c5.5-6.1,13-13.7,16.2-22l-3.6-1Z"/>
    <path class="st6" d="M186.8,114c.5-10.9,3.6-12.3,10.4-13.1s7.8,10,4.3,18.9c-3.5,8.8-15.8,9.1-16.2,8.8,0-.8,1.4-10.4,1.6-14.6h-.1Z"/>
    <path class="st14" d="M199.3,105.8c-3.9.4-7,.8-9.3,3.4"/>
    <path class="st33" d="M185.5,122.9c2.1.3,4.3-1.8,4.6-4.4s-1.9-6.7-3.2-5.1-2.2,9.4-1.4,9.5h0Z"/>
    <g class="st40">
      <path class="st49" d="M184.7,129.2c.6-3.4.9-6.8.7-10.2.6,3.4.6,6.9.3,10.4h-1v-.2Z"/>
    </g>
    <g>
      <path class="st24" d="M81,58.9s22.8-2.6,18.5-5.2c-1.5-.9-12.9-10.2-10.2-13.4,3,1.7,25.2-.8,20.7-2.8-1.2-.5-10-9.3-9-11.7,4.5,1.9,11.8,3.9,19.3,3.3,24.1-2.1,28.2-7.2,42.8-3,14.8,4.3,23.9,19.7,23.3,17.5-.5-1.8-6.3-13.6-6.3-13.6,8.5,8.5,11.8,16.6,11.8,16.6,0,0,10.4,3.1,13.6,3.7s.3.5,0,.5c-4.5.6-10,1.8-9.3,3.1,1.3,2.5,7.6,4.9,9.3,12.3,1.8,7.6-1.4,15.9-4.7,22.4-2.7,5.4.4,9.7-1.1,12-1.7,2.7-8.3-.5-10.3,3.3-2.2,4.3-4.1,16.1-4.1,16.1l-3.5-.5s1.4-10.6,0-20.2c-.7-4.7-2.3-4.6-4-9.4-2.8-8.3,1.6-10.5-.9-17.4-1.9-5.3-7.4-4.7-11.5-7.2-1.3-.8-1.4-5-1.4-5,0,0-10.1-8.7-17.7-2-8.3,7.3-23.4,9.3-32.2,11.4-6,16.2-5.6,27.4-4.9,42.2,0,0-2.3-9.6-8.8-20.9-.5-.9,4.1-1,4.1-1l-8.9-9.1c-.5-.5-.7-1.2-.5-1.9.9-3.7,4-5.4,8.4-6.9l5.3-1.2c-17,2.6-29.4-10.1-28.1-12.1h.3Z"/>
      <path class="st27" d="M194.8,101.6s2.9-26.6-2.2-33.9c-3-4.3-17.3-10.5-17.3-10.5.3-10.2-9.4-15.6-23-15.4-32.3.5-27,19.4-46.9,17.8-1.9,2.4,4.7,8.6,3.7,11.5-3.9,11.2-3.1,24.7-.4,38.3-1.5-15.9-2.4-30,5.7-39.5,2.4-2.5,15.2-1.6,29-8.9,2-1.1,6.5-5.9,11.8-4.9,12,2.1,10.4,9.5,10.4,9.5,0,0,8.2,2.3,11.2,6,1.9,2.3-.5,11.6.8,17.3,1.7,7.2,6.2,10.3,4.4,10.7.9,0,0,20.2,0,20.2,0,0,3,.2,3.5.5s2.9-13.9,4.2-16.5c1.2-2.3,4-2.2,5.1-2v-.2Z"/>
    </g>
    <g class="st40">
      <path class="st49" d="M110.3,124.3c-.4-4.8-1.1-9.7-.9-14.6,0,4.9,1,9.7,1.7,14.5h-.8Z"/>
    </g>
    <path class="st23" d="M130.1,90.6l.9,4.7c-11.2-2.5-15.3-.7-19.9,3.2,0-4.3,8.6-13,19-7.8h0Z"/>
    <path class="st23" d="M142.8,89.9l.6,5c8.8,0,17.7-2.2,32.5-1.6-4.5-5.1-22.1-5.3-33.1-3.4h0Z"/>
    <path class="st67" d="M145.1,145.4c1.7-1.4,3.7-2.3,6.1-3.2.6-.2,1.2-.4,1.8-.6h3l-2.9.6c-1,.5-2.1,1-3.2,1.4-1.5.5-3.3,1.2-4.8,1.7h0Z"/>
    <path class="st41" d="M133.4,120.3c1.6-3.2,4.1-5.1,7.2-7.2-1.8,5.1-6.3,8.5-5.1,14.4-.1.4,3.8,2.7,4.5,2.8h.1c0,.1-5.8,1.9-7.8-.5-1.6-1.8.9-9.3,1.1-9.5ZM132.3,125h0Z"/>
    <path class="st35" d="M183,101.8l-30.3,5.7c-1.4,0-7,.9-8-4.2l-1-7.6c6.6,0,25.9-2.8,35.9-1.7,0,0,3.4,7.8,3.4,7.8Z"/>
    <path class="st34" d="M113.1,110.4c-1.5-4.2-1.5-8.6-1.3-12.9-.6,1.3,10-3.3,19.8-1.3l.5,5.7c-.2,1.7.4,5.8-1,7.6-6,.7-11.9,1-17.9,1.1v-.2h0Z"/>
    <g>
      <path class="st32" d="M151.1,106.1c.2,3,4.4,5.2,9.5,4.9s9-2.9,8.9-5.9c-.2-3-3.4-6.3-9.5-5.9s-9,4-8.8,7h0Z"/>
      <ellipse class="st47" cx="159.6" cy="103.9" rx="4.6" ry="4.5"/>
      <path class="st65" d="M151.2,104.5c1.8-6.9,8.1-6.4,11.8-5.9s7,4.4,6.3,7.4c-.2-7.8-13.3-9.9-18.1-1.5Z"/>
    </g>
    <g>
      <path class="st32" d="M130.2,107.1c.2,2.7-2.7,5-6.3,5.2-3.6.2-6.7-1.8-6.9-4.4-.2-2.7,1.8-5.9,6.2-6.1s6.8,2.7,6.9,5.4h.1Z"/>
      <circle class="st47" cx="124.3" cy="106.4" r="4.3"/>
      <path class="st65" d="M130,105.7c-1.9-5.9-6.4-4.9-8.9-4.2-2.8.8-4.6,4.5-3.8,7.1-.6-6.9,8.6-10,12.8-2.9h0Z"/>
    </g>
    <path class="st5" d="M110.3,122.2c-3.2,1.2-7.2-6.8-7.4-9.9s6.1-3.8,6.2-1.4c0,1.5,1.5,11.2,1.2,11.3Z"/>
    <circle class="st39" cx="163.5" cy="102.3" r="1.6"/>
    <circle class="st39" cx="127.4" cy="105" r="1.6"/>
  </g>
  <path class="st43" d="M118,237.8l64.6,3-.9-55.3s-22.7,17.5-50.6,1.4l-13.1,51h0Z"/>
  <path class="st66" d="M73,291.1c0,32.8-8.3,69.8-8.3,102.6v51.5c4.5-.9,15.6-3.3,20.1-4.3l16.6-126.8-28.3-23h0Z"/>
  <path class="st31" d="M90.3,325.7c4.6-12.2-3.2-19.2-16.6-23.1-2.8,8.6-2.3,14.3-2.3,14.3l18.9,8.9h0Z"/>
  <path class="st66" d="M59.3,472.2s1.1,10.5,1.1,13.4,2.2,7.2,3.9,5.9c2.6-1.8-1.2-15.1-1.2-15.1,0,0,3.8,23.4,7.8,23.4s-.7-23.6-.6-23.5c0,0,5.5,30,10.2,30s-2.4-30.3-.9-30.8c0,0,1.6,26.6,5.1,27.7,5.3-.2,2.2-29.8,2.6-36.5.4-6.9-2.9,17.6,3.3,14.6,3-4.1,0-25-.6-26.2-5.2-8.3-3.6-19.7-14.3-21.1-6-.8-9.2-6.8-16.6,38.2h.2Z"/>
  <path class="st36" d="M87.5,465.8c-.6.7-1.2,13,.3,13.8"/>
  <path class="st36" d="M79.9,473.7c-.5,1.4,1.4,26.2,3.1,27.7"/>
  <path class="st36" d="M70.9,476.3c-.3,1.3,3.9,23.2,5.7,24.3"/>
  <path class="st36" d="M65.1,477.1c-.6,1.2,1.7,19.9,3.8,20.8"/>
  <polygon class="st3" points="206.5 294.7 206.5 294.7 206.5 294.5 206.5 294.7"/>
  <path class="st3" d="M86.3,300.9c0,1.5-.2,2.9-.4,4.4h0l.3-4.4Z"/>
  <path class="st3" d="M228.8,280.1s2-6.5,3.4-11.3c1.4-4.9.7-11.9,1.4-16.6,2.5-15.5,3.9-26.9,3.2-31.5-2.7-19.8-19.3-32.5-20.3-32.8l-42.4-10.5c.2,4.3,1.6,1,.3,3.8-8.1,18-15.5,36.7-24.8,49.5l-11.2-42.4-.6-8.9c0-.3-32.8,1.1-55.9,12.8-17.5,8.9-19.7,65.4-23.9,93.2,9.4,8.7,17.1,14.5,27.9,19.8,0-1.5.2-2.9.4-4.4l2.1-34.3c-.4,11.4-1.1,23-2.1,34.3l-.3,4.4h0c-3.6,42.3-9.4,80.6-7.7,93.3.3,2.4,2.3,4.3,4.8,4.7,2.9.5,6.4,1.6,13.4,2.1,1,0,4.9,1.5,11.9,2,5.8.4,14.7-1.6,17.3-1.4,11.2.7,11.7-.1,21.1.6,14.2,1,18.3,1.3,24.4.9,7.9-.6,9.5-1.1,22.5-3.6,7.5-1.4,19.2,2.1,22.8-2.7,3-4,.9-5.1.4-9.9-.6-5.4-.7-19-.7-27.4l-.3-25.4,1.8-36.6,11.4-21.7h-.2Z"/>
  <path class="st54" d="M53.7,295.6c1.6,7,10.6,14.2,17,20.6,1.4-1.5,0-10.4,1.8-12.3,3,4.3,9,9.3,14.7,12.3l-1.2-15.4c-8.8-4.2-19.8-9.1-28-17.1-3.4,3.7-5.5,6.6-4.3,11.9Z"/>
  <path class="st11" d="M146.6,406.5c-1.1-13.9-.6-34.3,1.5-48.2,3.2-21.4,1.9-38.6.7-53.3-1.2-14.3-1-28.6.6-42.8,1.2-11.1.7-22.2.4-33.3"/>
  <path class="st10" d="M62.9,308l8.5,8.2,1-12.1s-1.8-3.1-4.9-1.1c-1.4.9-4.6,4.9-4.6,4.9h0Z"/>
  <path class="st11" d="M197.1,224.5c-6.1,11.1-7,24.4-8.3,26.7"/>
  <polygon class="st51" points="90.5 269.7 126.3 267 126.4 292.7 91.1 293.1 90.5 269.7"/>
  <path class="st64" d="M92.8,274.3l31.2-1.2,2.4-5.8s-.4-6.8-.5-10.2c-11.7.5-23.3,1-35,1.5l-.3,10.4,2.4,5.3h-.2Z"/>
  <g>
    <ellipse class="st52" cx="108.2" cy="268.1" rx="2.9" ry="2.4"/>
    <ellipse class="st63" cx="109.7" cy="268.2" rx=".7" ry=".6"/>
    <ellipse class="st63" cx="106.8" cy="268.2" rx=".7" ry=".6"/>
  </g>
  <g>
    <ellipse class="st52" cx="142.1" cy="250.6" rx="2.3" ry="2.2"/>
    <circle class="st63" cx="142.1" cy="249.5" r=".5"/>
    <circle class="st63" cx="142.3" cy="251.6" r=".5"/>
  </g>
  <g>
    <ellipse class="st52" cx="139.8" cy="290.6" rx="2.3" ry="2.2"/>
    <circle class="st63" cx="139.7" cy="289.5" r=".5"/>
    <circle class="st63" cx="139.9" cy="291.7" r=".5"/>
  </g>
  <ellipse class="st52" cx="142" cy="336.2" rx="2.3" ry="2.2"/>
  <circle class="st63" cx="141.9" cy="335.1" r=".5"/>
  <circle class="st63" cx="142.1" cy="337.3" r=".5"/>
  <ellipse class="st52" cx="139.7" cy="378.4" rx="2.3" ry="2.2"/>
  <circle class="st63" cx="139.7" cy="377.3" r=".5"/>
  <circle class="st63" cx="139.9" cy="379.4" r=".5"/>
  <polygon class="st51" points="206 272.4 169.7 269.5 169.7 297.5 205.3 297.9 206 272.4"/>
  <path class="st64" d="M203.6,277.5l-31.5-1.3-2.4-6.3s.4-7.4.6-11.1c11.8.6,23.6,1.1,35.4,1.7l.3,11.3-2.4,5.8h0Z"/>
  <g>
    <ellipse class="st52" cx="188.1" cy="270.7" rx="2.9" ry="2.6"/>
    <ellipse class="st63" cx="186.6" cy="270.8" rx=".7" ry=".6"/>
    <ellipse class="st63" cx="189.5" cy="270.8" rx=".7" ry=".6"/>
  </g>
  <g>
    <path class="st69" d="M235,207c-1.2-5.4-5.2-9.9-8.4-12.7-.9-.8-11.5-8.9-19.5-6-7.2,2.7-6.5,4.8-12,9.8-8.1,10.4,15.9,23.8,24.2,25.4.9.2,1.8.3,2.6,0,3.4-1.6,15-7.5,13-16.6h0Z"/>
    <path class="st50" d="M222.9,223.5c1.7-1.1,9.9-6.2,6.9-6.5-1.2-.3-3.1,2.5-8.2,6.2-1,.8.6.8,1.3.3Z"/>
    <g>
      <polygon class="st60" points="215.3 215.7 208.5 210.2 218.1 211.4 215.3 215.7"/>
      <path class="st60" d="M216,217.6c-.5.6,1.5,1,1.7.8,1.7-2.1,2.8-4.4,3.5-7,.2-.2-1.6-1.1-1.9-.4-.9,2.2-1.5,4.5-3.3,6.7h0Z"/>
      <path class="st60" d="M216,219.2c-.3.2,1.7.7,1.8.6.9-.5,1.2-1.2,1.1-2.1,0,0-1.8-.7-1.8-.5-.2.7,0,1.5-1,2h-.1Z"/>
      <path class="st60" d="M221.8,212.4c0,.3-1.8-.4-1.8-.5-.2-.9.2-1.6,1.1-2.1,0,0,1.9.4,1.8.6-.5.6-1.2,1.1-1,2h-.1Z"/>
      <path class="st60" d="M216,209.4c-2.7-.9-5.7-.2-6.5,1.6s.7,3.9,3.4,4.8,5.7.2,6.5-1.6-.7-3.9-3.4-4.8ZM213.2,214.9c-2-.6-3.2-2.2-2.5-3.5s2.8-1.8,4.8-1.2,3.2,2.2,2.5,3.5-2.8,1.8-4.8,1.2Z"/>
    </g>
    <g class="st40">
      <image class="st28" width="443" height="362" transform="translate(160.4 166.6) scale(.2)" xlink:href="question-man-soldier-2.png"/>
    </g>
    <g>
      <path class="st57" d="M237,205.2c-1-5.4-3.4-12.8-8.1-16.5-5.1-4-8.8-4.9-16.3-.4s-20,12-19,13.1c0,2,14.8,6.2,36.8,15.8,4.9,2.1,8.5-1.3,6.5-12h.1Z"/>
      <path class="st25" d="M236.3,217.5c-.3-18.1-9.7-29.1-28.5-32.7-2,1.4-5.3,3.9-7.3,5.3,11.7,8.2,23,17.4,32,31.1,1.3-1.3,2.6-2.5,3.9-3.8h0Z"/>
      <path class="st22" d="M236.8,214.4c0-15-10.4-28.4-23.5-28.2-1.9,1.5-8.6,5.3-10.5,6.7,8.7,7.9,19.9,13.9,27.8,25.7,1.3-1.3,4.9-3,6.2-4.3h0Z"/>
      <polygon class="st53" points="231 216.2 229.7 214.7 234.3 212 234.6 214 231 216.2"/>
      <polygon class="st53" points="228.9 213.7 227.3 211.8 233.1 208.2 233.6 210.9 228.9 213.7"/>
      <polygon class="st53" points="226.5 211 224.7 209 231.4 204.3 232.9 207.2 226.5 211"/>
    </g>
    <g class="st40">
      <image class="st28" width="439" height="363" transform="translate(157.6 164.8) scale(.2)" xlink:href="question-man-soldier-3.png"/>
    </g>
  </g>
  <path class="st38" d="M149.6,230.1c7.4-3.1,13.9-10,25.7-17.8-1.7-3.4-2.5-7.1-3.5-11.3-.1-.6.4-1,1-.8,9.3,3.1,15.8,3.8,21.8,4.6.7,0,1.6-.7,1.3-1.4-3.4-7.4-15.3-20.8-22-31"/>
  <path class="st38" d="M149.6,230.1c-6.3-4.8-13.1-14.7-22.5-24.4,2.4-1.9,4-4.3,5.8-7.1.3-.4-.2-.6-.8-1-7.9-5-12.4-6.7-18-7.6s11.4-9.3,24.1-17.1"/>
  <g>
    <path class="st25" d="M66.3,211.5c8.1-21,21.4-25.5,32.9-26.7.7,2.4,1.6,6.4,2.3,8.8-11.2,5-22.5,11.4-34.3,23.8-.3-2-.6-4-.9-5.9h0Z"/>
    <path class="st22" d="M67.6,206.6c8.3-15.9,19.1-20.8,28.2-21.4.6,2.2,2.2,8.9,2.8,11-8.8,5.2-17.6,9.6-28.3,19.6-.3-1.8-2.5-7.5-2.7-9.2h0Z"/>
    <polygon class="st53" points="71.4 212.5 73.3 210.9 71.1 204.7 69.6 207.5 71.4 212.5"/>
    <polygon class="st53" points="74.3 209.5 76.7 207.5 73.9 199.4 72 203.1 74.3 209.5"/>
    <polygon class="st53" points="77.8 207.4 80.3 205.4 77.4 195.3 74.6 198.7 77.8 207.4"/>
  </g>
  <path class="st11" d="M86.3,229.6c1.9,13.2.6,37.9.6,37.9,0,0,.7,3.9,2.2,7.1"/>
  <g>
    <g>
      <path class="st9" d="M193.9,194.6c-.4-.3-1.3-.6-1.4-1.5,0-.6.1-1,.5-1.2.7-.3,1.6.3,2.2.6.6.4,1.2.9,1.7,1.6.3-2.5,0-4.8-.6-6.9-.6-2.4-1.7-5.4-3.7-4.9-.2,5.8-1.7,11.7-3.6,17.1-2.4,6.7-5.5,13.8-9.8,17.7,0,0-.1-.1,0-.2,4.1-4.2,7.1-10.7,9.5-17.3,2-5.6,3.5-11.7,3.7-17.8-2.7,2.3-5.5,4.9-7,9.4.4-.2.8-.3,1.2-.3,0,0,.1.1.1.3-.5,1.6-1.7,2-2.6,3.1-1,1.4-1.7,3.3-2.2,5.1,1.7-.8,3.4-.8,5,0,0,0,.1.2,0,.4-1.1,1.4-2.4,1.4-3.6,1.5-1.8.2-3.5,1.8-4.4,4.6.6,0,1.2-.2,1.8-.2s1.2-.1,1.6.1c.7.4.3,1.3-.2,1.8-.8.7-1.6.5-2.4.5-1.3,0-2.6.7-3.2,2.8.9-.2,1.8,0,2.5.7v.3c-.8,1.3-1.9.3-2.8,1-1.5,1.2-2.2,4.6-2.7,6.9,0,.3-.1.5-.2.8-.1.7-.2.7,0,1.3.3.5.2.5.6.5h2.7c.8,0,1.7,0,2.5-.6.9-.8,1.1-2.6,1.2-4,0-.1,0-.2.2-.2,1.4,0,1,2.4.6,3.9,1.3.6,2.6-1.3,3.1-3.3.3-1.1.3-2.2.3-3.3s0-1.3.2-1.9c.4-1,.8-.2.9.5.2,1.7.2,3.6,0,5.4,1-.3,1.9-1.2,2.7-2.2s1.8-2.3,2.3-3.7c.7-1.7.3-3.5,0-5.1-.3-1.8-.7-3.5-1-5.3,0-.2,0-.4.2-.3,1.6,1.2,2.2,4.1,2.6,6.8,1.6-1.9,2.9-4.5,3.6-7.4.4-1.6.8-3.2,0-4.5-.6-1.2-1.4-2.1-2.3-2.9l.2.3Z"/>
      <path class="st16" d="M193.9,194.6c-.4-.3-1.3-.6-1.4-1.5,0-.6.1-1,.5-1.2.7-.3,1.6.3,2.2.6.6.4,1.2.9,1.7,1.6.3-2.5,0-4.8-.6-6.9-.6-2.4-1.7-5.4-3.7-4.9-.2,5.8-1.7,11.7-3.6,17.1-2.4,6.7-5.5,13.8-9.8,17.7,0,0-.1-.1,0-.2,4.1-4.2,7.1-10.7,9.5-17.3,2-5.6,3.5-11.7,3.7-17.8-2.7,2.3-5.5,4.9-7,9.4.4-.2.8-.3,1.2-.3,0,0,.1.1.1.3-.5,1.6-1.7,2-2.6,3.1-1,1.4-1.7,3.3-2.2,5.1,1.7-.8,3.4-.8,5,0,0,0,.1.2,0,.4-1.1,1.4-2.4,1.4-3.6,1.5-1.8.2-3.5,1.8-4.4,4.6.6,0,1.2-.2,1.8-.2s1.2-.1,1.6.1c.7.4.3,1.3-.2,1.8-.8.7-1.6.5-2.4.5-1.3,0-2.6.7-3.2,2.8.9-.2,1.8,0,2.5.7v.3c-.8,1.3-1.9.3-2.8,1-1.5,1.2-2.2,4.6-2.7,6.9,0,.3-.1.5-.2.8-.1.7-.2.7,0,1.3.3.5.2.5.6.5h2.7c.8,0,1.7,0,2.5-.6.9-.8,1.1-2.6,1.2-4,0-.1,0-.2.2-.2,1.4,0,1,2.4.6,3.9,1.3.6,2.6-1.3,3.1-3.3.3-1.1.3-2.2.3-3.3s0-1.3.2-1.9c.4-1,.8-.2.9.5.2,1.7.2,3.6,0,5.4,1-.3,1.9-1.2,2.7-2.2s1.8-2.3,2.3-3.7c.7-1.7.3-3.5,0-5.1-.3-1.8-.7-3.5-1-5.3,0-.2,0-.4.2-.3,1.6,1.2,2.2,4.1,2.6,6.8,1.6-1.9,2.9-4.5,3.6-7.4.4-1.6.8-3.2,0-4.5-.6-1.2-1.4-2.1-2.3-2.9l.2.3ZM184.5,194.8h0c.3-.5.6-.8.9-1v.2c-.3.2-.6.5-.9.9h0ZM185.4,194.4c-.2,0-.4.2-.5.5h0c.1-.3.3-.5.5-.6h0ZM187.4,200.9c0-.1.1,0,.1,0-.2.6-.4,1.1-.7,1.6,0,0-.1,0,0,0,.2-.5.5-1,.6-1.6h0ZM186.6,203.5c.3-.4.5-.8.7-1.3,0,0,.1,0,0,0-.2.5-.4,1-.7,1.3h0ZM180.8,208.8c.3,0,.5-.2.8-.4h0c-.3.3-.5.5-.8.5h0ZM175.8,213.9h0c.2-.4.5-.5.8-.4h0c-.2.1-.5.1-.7.5h-.1ZM176.8,214c-.2,0-.5.1-.7.4h0c.2-.3.5-.4.8-.4h0c0,.1-.1,0-.1,0ZM183,219.2c.2-.6.4-1.2.5-1.8,0-.1.1-.1.1,0,0,.7-.3,1.3-.5,1.9,0,0-.1,0,0,0h-.1ZM183.1,220.1h0c.3-.5.5-1.1.6-1.7,0,0,.1,0,0,0-.1.7-.4,1.2-.7,1.8h0ZM190.5,212.8c-.2.6-.5,1.1-.8,1.5h0c.3-.5.6-1,.8-1.5,0,0,.1,0,0,0ZM189.7,213.2h0c0,.3-.2.7-.3,1,0,0-.1,0,0,0,0-.3.2-.7.3-1ZM192.5,186.2c.1-.5.2-1.1.3-1.6,0,0,.1,0,0,0-.1.5-.2,1.1-.3,1.6,0,.1-.1,0,0,0ZM192.6,187.1c0,.1-.1,0-.1,0,.1-.5.2-1,.4-1.5,0,0,.1,0,0,0-.1.5-.2,1-.3,1.5h0ZM195.6,200.9s-.1,0,0,0c.1-.6.1-1.1,0-1.7,0,0,0-.1,0,0,.1.5.1,1.2,0,1.8h0ZM195.9,200.2s-.1,0,0,0c.2-.5.1-1.1-.1-1.4,0,0,0-.2,0-.1.3.3.4,1,.1,1.6h0Z"/>
      <path class="st16" d="M189.6,214.4c.4-.4.6-.9.8-1.5,0,0,0-.1,0,0-.2.6-.5,1-.8,1.4,0,0,0,.2,0,.1Z"/>
      <path class="st16" d="M195.5,200.9s0,.1,0,0c.2-.6.2-1.2,0-1.8h0c.1.5.1,1.1,0,1.7h0Z"/>
      <path class="st16" d="M195.8,200.1s0,.2,0,0c.2-.6.1-1.3-.1-1.6h0c.2.4.3,1,.1,1.5h0Z"/>
      <path class="st16" d="M189.4,214.2s0,.1,0,0c.1-.3.2-.7.3-1h0c-.1.3-.2.7-.3,1Z"/>
      <path class="st16" d="M183.1,220.1c.3-.5.5-1.1.7-1.8,0,0,0-.1,0,0-.2.6-.4,1.2-.6,1.7,0,0,0,.1,0,0h0Z"/>
      <path class="st16" d="M183,219.3c.3-.6.5-1.2.5-1.9s0-.1-.1,0c0,.6-.3,1.3-.5,1.8,0,0,0,.2,0,0h.1Z"/>
      <path class="st16" d="M186.7,203.5c.3-.4.6-.8.7-1.3q0-.1,0,0c-.2.5-.4.9-.7,1.3,0,0,0,.1,0,0Z"/>
      <path class="st16" d="M186.9,202.5c.3-.5.5-1,.7-1.6q0-.1-.1,0c-.2.6-.4,1.1-.6,1.6,0,0,0,.2,0,0h0Z"/>
      <path class="st16" d="M192.5,187.1c0,.1,0,.2.1,0,.1-.5.2-1,.3-1.5,0,0,0-.1,0,0-.1.5-.2,1-.4,1.5h0Z"/>
      <path class="st16" d="M192.8,184.5c-.1.5-.2,1.1-.3,1.6,0,.1,0,.2,0,0,.1-.5.2-1.1.3-1.6,0,0,0-.1,0,0Z"/>
      <path class="st16" d="M181.6,208.5s0-.2,0-.1c-.2.2-.5.3-.8.4,0,0,0,.2,0,.1.3,0,.5-.2.8-.4Z"/>
      <path class="st16" d="M176.8,214h0c-.3-.1-.5,0-.8.3,0,0,0,.1,0,0,.2-.2.5-.4.7-.4h.1Z"/>
      <path class="st16" d="M185.4,194.4s0-.2,0-.1c-.2,0-.4.3-.5.6,0,0,0,.1,0,0,.1-.3.3-.4.5-.5Z"/>
      <path class="st16" d="M185.4,193.9v-.2c-.4.2-.7.5-.9,1,0,0,0,.1,0,0,.3-.4.6-.7.9-.9h0Z"/>
      <path class="st16" d="M176.5,213.5h0c-.3-.1-.6-.1-.8.3,0,0,0,.2,0,0,.2-.3.5-.4.7-.4h.1Z"/>
    </g>
    <g>
      <path class="st16" d="M120.8,247.9c-1.7-1.6-3-4.1-3.7-7.2-.4-1.7-.6-3.5.2-5.3.8-1.6,1.8-3.1,2.9-4.2.5-.6,1.5-1.2,1.8-2.3.2-.7,0-1.1-.5-1.2-.8,0-1.9,1-2.6,1.6-.8.7-1.5,1.6-2.1,2.6-.2-2.8.4-5.6,1.2-8.3.9-3.1,2.3-7,4.7-7.2-.2,6.7,1.1,13.1,3,18.6,2.3,6.9,5.4,14,10.2,16.8,0,0,.2-.2,0-.2-4.5-3.3-7.5-9.8-9.9-16.6-2-5.8-3.2-12.3-3-19.4,2.9,1.7,6.1,3.6,7.5,8.3-.5,0-.9,0-1.4.1,0,0-.2.2-.1.4.4,1.7,1.9,1.6,2.8,2.6,1.1,1.2,1.7,3.2,2.2,5.1-1.9-.3-4,.4-5.8,2-.1,0-.2.3,0,.4,1.2,1.3,2.7.6,4.1.4,2.1-.4,4,.8,4.8,3.7-.7.1-1.4.3-2.1.5-.6.2-1.3.3-1.9.8-.8.7-.5,1.7.1,2.1.8.5,1.8,0,2.7-.3,1.5-.5,3-.2,3.6,2-1.1.2-2.1.8-3,1.8v.4c.8,1.2,2.2-.5,3.2,0,1.7.8,2.2,4.5,2.7,7,0,.3.1.6.1.9.1.7.2.8-.2,1.6-.4.7-.3.7-.7.9-.2.1-.4.2-.7.3-.8.3-1.6.6-2.4.8-.9.2-2,.7-2.9.2-1-.6-1.1-2.6-1.1-4.2s0-.2-.2-.2c-1.6.5-1.4,3.2-1,4.8-1.6,1.2-3-.5-3.4-2.7-.2-1.2-.2-2.5-.1-3.7,0-.7.2-1.6,0-2.2-.4-1-1,.1-1.1,1-.4,2.1-.5,4.3-.5,6.4-1.1,0-2.1-.6-3-1.5s-1.9-2-2.5-3.4c-.6-1.8,0-4,.3-6,.5-2.2,1-4.4,1.6-6.6,0-.3,0-.4-.2-.3-2,2-2.8,5.6-3.5,8.9h-.1ZM123,251.2c.2.6.5,1.2.8,1.5,0,0,0-.1,0-.2-.3-.4-.6-.8-.8-1.4,0,0,0,0,0,0h0ZM117.8,239.2s0,0,0,0c0-.6,0-1.3,0-1.9,0,0,0-.1,0,0-.2.7-.3,1.4,0,2h0ZM117.6,238.4s0,0,0-.1c-.2-.5,0-1.2.2-1.7,0,0,0-.2,0-.1-.4.5-.5,1.4-.3,2h0ZM124,252.4h0c0-.4-.2-.7-.3-1.1,0,0,0,0,0,0,0,.4.2.8.3,1.1h0ZM130.4,254.9c.1.7.3,1.3.6,1.8h0c-.3-.6-.5-1.2-.6-1.9,0-.1-.1,0-.1,0h.1ZM130.7,253.8c0,.8.2,1.5.5,2,0,0,.1,0,.1-.1-.2-.6-.4-1.2-.5-2,0-.1-.1,0-.1,0h0ZM127.4,237.5c.2.6.4,1,.7,1.3,0,0,.1,0,0-.1-.3-.3-.5-.7-.7-1.2h0,0ZM127.3,236c.2.6.4,1.1.7,1.6,0,0,.1,0,.1-.1-.3-.5-.5-1-.6-1.6,0-.1-.2,0,0,0h-.1ZM122.4,221.9c0,.1,0,0,0,0,0-.5-.2-1.1-.3-1.6,0,0,0,0,0,0,0,.5.2,1.1.3,1.6h0ZM122.5,220.8c0,.1,0,0,0,0,0-.6-.2-1.2-.3-1.8,0-.1,0,0,0,0,0,.6.2,1.2.3,1.8ZM133.7,242.4s-.1.1,0,.2c.3.2.6.2.9.2v-.2c-.3,0-.6,0-.9-.2ZM138.9,247v.2c.3,0,.6,0,.8.2,0,0,.1,0,0-.1-.3-.2-.6-.3-.9-.2h0ZM130.2,227.4v.2c.2,0,.4.1.5.4,0,0,.1,0,0-.1-.1-.3-.3-.5-.6-.4h.1ZM130.4,226.8v.2c.4,0,.7.3,1,.7h0c-.3-.5-.6-.8-1-.9h0ZM139.2,246.4s0,.2,0,.1c.3-.1.6,0,.8.2,0,0,.1,0,0-.1-.2-.3-.6-.4-.9-.2h0Z"/>
      <path class="st16" d="M123.8,252.6c-.4-.3-.7-.8-.8-1.5,0,0,0-.2,0,0,.2.6.5,1,.8,1.4v.2h0Z"/>
      <path class="st62" d="M117.9,239.1s0,.2,0,0c0-.6,0-1.4,0-2,0,0,0,0,0,0-.2.6-.2,1.3,0,1.9h0Z"/>
      <path class="st62" d="M117.7,238.3s0,.2,0,.1c-.2-.6,0-1.4.3-2h0c-.3.6-.4,1.3-.2,1.8h0Z"/>
      <path class="st16" d="M124.1,252.3s0,.2,0,0c0-.3-.2-.7-.3-1.1,0,0,0-.1,0,0,0,.3.2.7.3,1.1h0Z"/>
      <path class="st16" d="M131,256.7c-.3-.5-.5-1.1-.6-1.8,0-.1,0-.2.1,0,.1.7.3,1.3.6,1.8,0,0,0,.2,0,.1h-.1Z"/>
      <path d="M131.2,255.8c-.3-.6-.4-1.3-.5-2,0-.1.1-.2.1,0,0,.7.2,1.4.5,2,0,0,0,.2-.1.1h0Z"/>
      <path d="M128.1,238.8c-.3-.3-.6-.7-.7-1.3,0-.1,0-.2,0,0,.2.5.4.9.7,1.2,0,0,0,.2,0,.1h-.1Z"/>
      <path d="M127.9,237.7c-.3-.5-.5-1-.7-1.6,0-.1,0-.2,0,0,.2.6.4,1.1.6,1.6,0,0,0,.2,0,.1h0Z"/>
      <path d="M122.5,221.8c0,.1,0,.2,0,0,0-.5-.2-1.1-.3-1.6,0,0,0-.2,0,0,0,.5.2,1.1.3,1.6h0Z"/>
      <path class="st62" d="M122.6,220.7c0,.1,0,.2,0,0,0-.6-.2-1.2-.3-1.8,0-.1,0-.2,0,0,0,.6.2,1.2.3,1.8Z"/>
      <path d="M133.7,242.6v-.2c.3.1.6.2.9.2v.2c-.3,0-.6,0-.9-.2Z"/>
      <path d="M138.9,247.2v-.2c.3-.1.6,0,.9.2,0,0,0,.2,0,.1-.2-.2-.5-.2-.8-.2h0Z"/>
      <path class="st62" d="M130.2,227.6v-.2c.2,0,.5.1.6.4,0,0,0,.2,0,.1-.1-.3-.3-.4-.5-.4h-.1Z"/>
      <path class="st62" d="M130.3,227v-.2c.4,0,.8.3,1,.8,0,0,0,.2,0,.1-.3-.4-.6-.6-1-.7h0Z"/>
      <path d="M139.2,246.5h0c.3-.3.7-.2.9,0,0,0,0,.2,0,.1-.2-.3-.5-.3-.8-.2h0Z"/>
    </g>
    <g>
      <path class="st16" d="M127.7,218.8c.3-1-.3-2.3-.7-2.8-.5-.7-1.2-1-1.9-1.1-.7,0-1.4,0-2.2.2-.4,0-1.1.4-1.4-.1-.5-1,.7-1.8,1.2-2,.6-.2,1.3-.4,1.9-.4s1.4.2,2.2.3c1,.1.4-1.8.2-2.4-.2-.9-.6-1.7-1.1-2.3-.7-.7-1.5-.5-2.3-.2s-1.6.7-2.4,1.1c-.4.2-1.1.7-1.4.2-.2-.3,0-1,0-1.4.4-.7,1.3-.8,1.8-1,.4-.2,1.4-.3,1.2-1.2,0-.5-.5-.9-.7-1.2-2-3-4.8-4.3-7.8-3.5h0c.5,3.2,1.1,6.3,1.9,9.3,1.4,4.8,3.2,8.8,5.3,12.8,0,0,0,.2,0,.1-2.3-3.4-4.1-8-5.4-12.6-.9-3-1.6-6.3-2.1-9.8-3,2.7-5.3,7.8-5.5,13,.7-1.4,1.5-2.8,2.3-4,.7-1,1.6-1.8,2.4-1.3v.3c-.9,1.7-1.7,3.4-2.6,5-.4.9-1,1.7-1.3,2.7-.4,1.1-.2,2.1,0,3.1.4,3,1.3,6,3,7.5.5-2.9,1.2-6.2,3.1-7.7h0c.2.3.2.7,0,1.2-.3,1.1-.8,2.2-1.2,3.3-.4,1.1-1,2.3-1,3.6s.6,2,1.1,2.6c.2.2.4.6.6.7.9.5.9-.8.9-1.6,0-1.3.3-2.6.6-3.9.3-1.3.8-3.1,1.8-3.3,0,0,0,0,0,.2,0,.9,0,1.9-.2,2.8-.2,1.1-.6,2.1-.9,3.2-.3,1.3-.4,3.1.5,3.5,1.1.5.9-2.2,1-3.2,0-1,.2-2,.5-3,0-.4.3-1.2.6-1.2s.3.4.4.7c0,1,0,2.2,0,3.2s0,1.9.2,2.6c.4,1.1,1.6.7,2.4.6.7,0,1.5-.1,2.2-.4.9-.4,1.2-2.6,1.4-3.8.3-1.2.7-2.6.5-3.8-.2-1.1-1-1.7-1.7-2-.7-.4-1.4-.6-2.1-.7-.4,0-1,.2-1.3-.4-.5-1.2,1.3-1.3,1.6-1.4h1.8c.4,0,2.2,1,2.5,0h-.3ZM127.4,218c0,.1,0,.2,0,0,0-.3-.2-.6-.3-.7v-.2c.3,0,.4.5.4.9ZM126.3,224.3h0c0-.6-.2-1.1-.5-1.2v-.2c.4.1.7.7.6,1.3h0ZM126.4,223.6s0,.1,0,0c0-.5-.2-.9-.5-1.1v-.2c.3.2.5.7.6,1.2h0ZM124.3,229.7v.2c-.4.3-.8.2-1.2,0,0,0,0-.2,0-.1.3.3.7.3,1.1,0h0ZM124.7,209.4v.2c-.2,0-.5,0-.7-.1h0c.3-.1.5-.1.7-.1h0ZM124.7,208.8v.2h-1v-.2c.4-.2.7-.2,1.1,0h0ZM122.4,205.9s0,.2,0,.1c-.3-.4-.5-.7-.8-1.1,0,0,0-.2,0-.1.3.4.5.7.8,1.1ZM116.3,225.4s0,0,0,0c-.2.4-.3.7-.2,1.2h0c0-.4,0-.9.2-1.3h0ZM116.3,224.4h0c-.3.6-.5,1.2-.6,2h0c0-.8.3-1.4.6-2ZM116.6,215.8s0,.2,0,.1c-.2-.3-.4-.6-.6-1,0,0,0-.2,0-.1,0,.4.3.7.5,1h0ZM116.5,214.7s0,.2,0,0c0-.2-.2-.4-.3-.7,0,0,0-.1,0,0,0,.2.2.4.4.7h0ZM110.1,216.3h0c-.2.3-.3.6-.3.9,0,0,0,.1,0,0,0-.4,0-.7.3-1h0ZM109.9,215.6h0c-.3.4-.5.9-.6,1.4h0c0-.6.3-1.1.6-1.5h0ZM111.4,205.4h0c-.3.4-.6.7-.8,1.2,0,0,0,0,0,0,.2-.5.5-.9.8-1.2h0ZM110.9,205.2s0,0,0,0c-.3.5-.6,1.1-.9,1.6h0c.3-.5.6-1.1.9-1.6Z"/>
      <path class="st62" d="M127.3,218c0,.1,0,0,0,0,0-.4-.2-.8-.4-.9,0,0,0,.1,0,.2.2.1.3.4.3.7Z"/>
      <path class="st62" d="M126.2,224.3h0c0-.7-.2-1.2-.6-1.3v.2c.3.1.5.6.5,1.2h0Z"/>
      <path class="st16" d="M126.3,223.6h0c0-.6-.3-1-.6-1.2,0,0,0,.1,0,.2.3.2.5.6.5,1.1h0Z"/>
      <path class="st16" d="M124.4,229.9v-.2c-.4.2-.8.2-1.1,0h0c.3.4.7.5,1.2.1h0Z"/>
      <path class="st16" d="M124.7,209.6v-.2h-.7c.2.1.5.1.7.2h0Z"/>
      <path class="st16" d="M124.6,209v-.2c-.3-.2-.7-.2-1.1,0v.2c.4-.1.7-.1,1,0h0Z"/>
      <path class="st16" d="M122.3,206.1s0,0,0-.1c-.3-.4-.5-.8-.8-1.1h0c.3.5.5.9.8,1.2Z"/>
      <path class="st16" d="M116.3,225.5s0-.2,0,0c-.2.4-.3.8-.2,1.3h0c0-.4,0-.8.2-1.2h0Z"/>
      <path class="st62" d="M116.4,224.5s0-.1,0,0c-.3.6-.6,1.3-.6,2h0c0-.7.3-1.4.6-2Z"/>
      <path class="st16" d="M116.5,215.9s0,0,0-.1c-.2-.3-.4-.6-.5-1,0,0,0,0,0,.1,0,.4.3.7.6,1h0Z"/>
      <path class="st16" d="M116.5,214.8s0,0,0,0c0-.2-.2-.5-.4-.7h0c0,.2.2.5.3.7h0Z"/>
      <path class="st16" d="M110.2,216.4s0-.2,0-.1c-.2.2-.3.6-.3,1s0,0,0,0c0-.3,0-.6.3-.8h0Z"/>
      <path class="st62" d="M110,215.7s0-.1,0,0c-.3.4-.5.9-.6,1.5h0c0-.5.3-1,.6-1.4h0Z"/>
      <path class="st16" d="M111.4,205.5s0-.2,0-.1c-.3.2-.6.7-.8,1.2,0,0,0,.1,0,0,.2-.5.5-.8.8-1.1h0Z"/>
      <path class="st16" d="M111,205.3s0-.1,0,0c-.3.5-.6,1.1-.9,1.6h0c.3-.5.6-1,.9-1.6Z"/>
    </g>
    <g>
      <path class="st15" d="M122.9,180.7s0-.2-.2-.2c-.2,0-.4.1-.6.2h.8Z"/>
      <path class="st15" d="M119.8,187.1c1.6.1,2.9,1.6,4,3.1.5-1.5.9-3.1.8-4.7-.2-2.1-1.3-2.6-2.6-2.6-2-.1-4.1.9-5.9,2.6,0,.1-.3,0-.2-.3.5-1.8,1.4-3,2.4-3.7-1.7.4-3.4.7-5.2.9-.2,1.9-.3,3.7-.2,5.5.3,6.5,2.1,12.1,4.5,16.9,0,.2,0,.5-.2.3-2.6-5.1-4.5-11.4-4.6-18.6,0-1.4,0-2.7.2-4.1-.5,0-1,.1-1.5.2v1.4c0,.2-.2.3-.3.2-1.5-2.2-4-1.6-5.5,1.1,1.9-.5,3.6.5,4.7,2.6,0,.2,0,.5-.2.4-1.4-.4-2.9-.9-4.5,0s-2.9,3.3-2.5,5.9c0,.6.3,1.2.5,1.7.3.7.8.8,1.3.2.7-.7,1.5-1.5,2.3-2,1.2-.8,2.4-1.1,3.4-.3,0,0,0,.4,0,.5-1.3.5-3,1.4-4,3.2-1.4,2.4,0,4.5,1.1,5.7.5-1.9,1.3-3.5,2.4-4.6.6-.6,2.3-1.8,2.1.3v.2c-1.6,1.3-2.9,4-2.9,6.8s1,4.6,2.5,5.3c-.8-2.7,0-6.4,1.7-8.4h.2s.2,0,0,.2c-1.1,4.1-1.2,9.5,1.8,10.4,1.1.3,2.3.2,3.5.3,1.1.2,2.1.5,3.1,1-.2-1.7,0-3.4.3-5.2.3-2.3.6-4.5.4-6.7-.5-4.8-3.5-6.3-6.4-5.3,0,0,0,0-.2-.1-.5-1.8,1.5-2.9,2.3-3.1,1.4-.4,2.8.2,4,1.1-.6-4.5-3.5-6.7-6.5-4.7,0,0-.2-.2-.2-.4.9-2.2,2.5-3.4,4-3.3h0Z"/>
      <path class="st16" d="M119.8,187.1c1.6.1,2.9,1.6,4,3.1.5-1.5.9-3.1.8-4.7-.2-2.1-1.3-2.6-2.6-2.6-2-.1-4.1.9-5.9,2.6,0,.1-.3,0-.2-.3.5-1.8,1.4-3,2.4-3.7-1.7.4-3.4.7-5.2.9-.2,1.9-.3,3.7-.2,5.5.3,6.5,2.1,12.1,4.5,16.9,0,.2,0,.5-.2.3-2.6-5.1-4.5-11.4-4.6-18.6,0-1.4,0-2.7.2-4.1-.5,0-1,.1-1.5.2v1.4c0,.2-.2.3-.3.2-1.5-2.2-4-1.6-5.5,1.1,1.9-.5,3.6.5,4.7,2.6,0,.2,0,.5-.2.4-1.4-.4-2.9-.9-4.5,0s-2.9,3.3-2.5,5.9c0,.6.3,1.2.5,1.7.3.7.8.8,1.3.2.7-.7,1.5-1.5,2.3-2,1.2-.8,2.4-1.1,3.4-.3,0,0,0,.4,0,.5-1.3.5-3,1.4-4,3.2-1.4,2.4,0,4.5,1.1,5.7.5-1.9,1.3-3.5,2.4-4.6.6-.6,2.3-1.8,2.1.3v.2c-1.6,1.3-2.9,4-2.9,6.8s1,4.6,2.5,5.3c-.8-2.7,0-6.4,1.7-8.4h.2s.2,0,0,.2c-1.1,4.1-1.2,9.5,1.8,10.4,1.1.3,2.3.2,3.5.3,1.1.2,2.1.5,3.1,1-.2-1.7,0-3.4.3-5.2.3-2.3.6-4.5.4-6.7-.5-4.8-3.5-6.3-6.4-5.3,0,0,0,0-.2-.1-.5-1.8,1.5-2.9,2.3-3.1,1.4-.4,2.8.2,4,1.1-.6-4.5-3.5-6.7-6.5-4.7,0,0-.2-.2-.2-.4.9-2.2,2.5-3.4,4-3.3h0ZM124.1,186.6c0-.1,0-.2,0,0v1.7c0,.1,0,0,0,0v-1.6h0ZM123.8,186.3c0-.1,0-.1,0,0v1.5c0,.1,0,.1,0,0v-1.5ZM107.5,185c-.2,0-.5,0-.7-.1v-.2h.7v.2h0ZM108.2,184.2c-.3,0-.6.2-1,.3h0c.3-.1.6-.3,1-.4v.2h0ZM107.5,193.7c-.3.1-.6.3-.9.5h0c.3-.4.6-.6.9-.7h0v.2ZM107.7,193c-.2,0-.5.2-.7.3h0c.2-.1.5-.3.7-.4v.2h0ZM106.2,200c0-.6,0-1.3.4-1.8,0,0,0,0,0,.1-.3.5-.4,1.1-.4,1.6,0,0,0,.1,0,0h0ZM107.3,198.2c-.3.4-.5.9-.6,1.5h0c0-.6.3-1.2.6-1.6,0,0,0,0,0,0h0ZM113.4,196.8c0-.4-.3-.8-.4-1.3,0,0,0-.2,0,0,0,.4.3.9.4,1.3,0,0,0,.1,0,0ZM113.1,208.4c0-.5,0-1.1,0-1.7,0-.1,0,0,0,0,0,.5-.2,1.1,0,1.6q0,.1,0,0h0ZM113.4,209.3c-.2-.6-.2-1.3-.2-2s0-.1,0,0c0,.7,0,1.3.2,2,0,0,0,.2,0,0h0ZM122,210.2c0,.6-.3,1.1-.5,1.7,0,.1,0,0,0,0,0-.6.3-1.1.4-1.7,0-.1,0,0,0,0ZM121.7,209c0-.1,0,0,0,0,0,.7-.3,1.5-.5,2.2,0,.1,0,0,0,0,.2-.7.3-1.5.5-2.2ZM120.4,192.6c-.2-.2-.4-.4-.6-.7,0,0,0-.2,0-.1.2.3.4.5.6.7,0,0,0,.2,0,.1ZM119.5,191.2c.4-.2.8,0,.9.5,0,0,0,.2,0,0-.2-.4-.5-.6-.8-.5h0c0-.1,0,0,0,0ZM113.6,191.3c-.2-.4-.2-.9-.2-1.5,0,0,0-.1,0,0,0,.5,0,1,.2,1.4,0,0,0,.2,0,0h0ZM114.1,191.6c-.2-.2-.3-.6-.3-.9s0-.2,0,0c0,.3,0,.6.2.8,0,0,0,.3,0,.2h.1Z"/>
      <path class="st16" d="M122.9,180.7s0-.2-.2-.2c-.2,0-.4.1-.6.2h.8Z"/>
      <path class="st16" d="M124.2,186.5h0v1.6c0,.1,0,.2,0,0,0-.6.2-1.1,0-1.7h0Z"/>
      <path class="st16" d="M123.9,186.3c0-.1,0-.1,0,0v1.5c0,.1,0,.1,0,0v-1.5Z"/>
      <path class="st16" d="M120.4,191.7c0-.5-.5-.7-.9-.5h0c.3,0,.6.1.8.6,0,0,0,0,0,0h0Z"/>
      <path class="st16" d="M120.4,192.6h0c-.2-.3-.4-.5-.6-.8,0,0,0,0,0,.1.2.3.3.6.6.7Z"/>
      <path class="st16" d="M121.8,209q0-.1,0,0c-.2.7-.3,1.5-.5,2.2q0,.1,0,0c.2-.7.3-1.5.5-2.2Z"/>
      <path class="st16" d="M122,210.2c0-.1,0-.2,0,0-.2.6-.3,1.1-.4,1.7q0,.1,0,0c.2-.6.3-1.1.5-1.7Z"/>
      <path class="st16" d="M114.1,191.6s.2,0,0-.2-.2-.5-.2-.8,0,0,0,0c0,.4,0,.7.3.9h-.1Z"/>
      <path class="st16" d="M113.4,189.8h0c0,.5,0,1,.2,1.5,0,0,0,0,0,0,0-.4-.2-.9-.2-1.4h0Z"/>
      <path class="st16" d="M113.5,196.7c0-.4-.2-.9-.4-1.3,0,0,0,0,0,0,0,.4.2.9.4,1.3h0Z"/>
      <path class="st16" d="M108.2,184.2v-.2c-.3,0-.6.2-1,.3,0,0,0,.2,0,.1.3,0,.6-.2,1-.3h0Z"/>
      <path class="st16" d="M107.5,185s0-.2,0-.2h-.7v.2c.2,0,.5,0,.7.1h0Z"/>
      <path class="st16" d="M113.3,206.8q0-.1,0,0c-.2.6-.2,1.1,0,1.7h0c0-.5,0-1.1,0-1.6h0Z"/>
      <path class="st16" d="M113.3,207.2q0-.1,0,0c0,.7,0,1.4.2,2,0,0,0,0,0,0-.2-.6-.2-1.3-.2-2h0Z"/>
      <path class="st16" d="M107.7,193v-.2c-.2,0-.5.2-.7.3,0,0,0,.2,0,.1.2,0,.5-.2.7-.3h0Z"/>
      <path class="st16" d="M107.5,193.7s0-.2,0-.1c-.3,0-.6.3-.9.6,0,0,0,.2,0,.1.3-.3.6-.4.9-.5h0Z"/>
      <path class="st16" d="M107.3,198.2s0-.2,0,0c-.3.4-.5,1-.6,1.6h0c0-.6.3-1.1.6-1.5h0Z"/>
      <path class="st16" d="M106.8,198.3s0-.2,0-.1c-.3.5-.5,1.2-.4,1.8h0c0-.6.2-1.2.4-1.6h0Z"/>
    </g>
    <g>
      <path class="st15" d="M115.5,182.1c0,.6-.3,1.2-.4,1.7-.4,1.7-.9,3.4-.8,5.2-.9-.8-1.9-1.5-2.9-1.9-1.1-.5-2.3-.6-3.3-1.3-.9-.6-1.4-1.6-1.7-2.8h-.4c.2.9.5,1.7,1,2.4.9,1.1,2.1,1.4,3.2,1.8,1.5.5,2.9,1.4,4.1,2.6,0,0,.2,0,.2-.3,0-2.5.7-4.9,1.3-7.4h-.3,0Z"/>
      <path class="st16" d="M106.3,183c.3,1.2.8,2.2,1.7,2.8,1,.7,2.2.8,3.3,1.3,1,.5,2,1.1,2.9,1.9,0-1.8.4-3.5.8-5.2.2-.6.3-1.2.4-1.7-3,.5-6.1.8-9.2.9h0ZM113.8,185.1c.2-.7.5-1.4.7-2.1,0,0,0,0,0,0-.2.7-.5,1.4-.7,2.1,0,0,0,0,0,0ZM114.6,184.3c-.2.5-.4,1-.6,1.6,0,0,0,0,0,0,.2-.5.4-1.1.6-1.6,0-.1,0,0,0,0h0Z"/>
    </g>
    <g>
      <path class="st16" d="M205,187.7s-.1,0,0,0c.2-.5.3-1.1.2-1.7h0c-.9-1-1.9-1.9-2.9-2.8-1.3-.4-2.7-.7-4-.9-1.6,1.8-3.3,3.4-5,4.8-.2.1-.2-.3,0-.4,1.6-1.3,3.2-2.8,4.7-4.4-2.7-.4-5.8-.3-8.3-.9q-.3.4-.5.9c-1,1.9-1.6,4-2.2,6.3-.4,1.7-.9,3.4-1.7,4.8,1.1,0,2.2.3,3.2.7,1.1.4,2.1,1.2,3.3,1.5,3.1.7,5-4.2,5.5-8.5,0-.2.1-.2.2,0,0,0,.2-.1.2,0,.8,2.7,0,6.4-1.7,8.4,1.6.1,3.3-1.2,4.2-3.5,1-2.5.9-5.6,0-7.6v-.2c.6-1.9,1.7,0,2,.8.6,1.5.7,3.5.5,5.4,1.3-.5,3-1.5,3.1-3.7,0-.1-.2-.2-.3-.3,0,.6,0,1.2-.3,1.7l-.2-.4ZM186.8,190.8c0,.1-.1,0-.1,0,0-.6.1-1.2.2-1.7,0-.1.1-.1.1,0,0,.6-.2,1.2-.2,1.7ZM187.3,190.2c0,.1-.1,0-.1,0,.1-.7.3-1.5.4-2.2,0-.1.1,0,0,0-.1.7-.3,1.5-.4,2.2h.1ZM195,192.3c.4-.5.7-1,.9-1.7,0-.1.1,0,0,0-.2.7-.5,1.3-.9,1.8,0,0-.1,0,0-.1ZM195.6,191.9s-.1,0,0-.1c.2-.4.4-.9.5-1.5,0-.1.1,0,.1,0,0,.6-.2,1.1-.5,1.6h-.1ZM204.7,187.3h0c.1-.6.1-1.1,0-1.6,0,0,0-.1,0,0,.1.5.1,1.2,0,1.7h0Z"/>
      <path class="st16" d="M198.2,182.2c1.4.2,2.7.5,4,.9"/>
      <path d="M196.1,190.3c0-.1.1,0,.1,0,0,.6-.2,1.1-.5,1.6,0,0-.1,0,0-.1.2-.4.4-.9.5-1.5h-.1Z"/>
      <path d="M195.9,190.7c0-.1.1,0,0,0-.2.7-.5,1.3-.9,1.8,0,0-.1,0,0-.1.4-.5.7-1,.9-1.7Z"/>
      <path d="M204.6,185.6c0,.5.1,1.1,0,1.6h0c.1-.6.2-1.2,0-1.7,0,0-.1,0,0,0h0Z"/>
      <path d="M205.2,185.9h0q0,.1,0,0Z"/>
      <path d="M205.1,185.9h0c0,.6,0,1.1-.2,1.7,0,0,0,.1,0,0,.3-.5.4-1.2.3-1.7h0c0-.1-.1,0-.1,0Z"/>
    </g>
    <g>
      <path class="st15" d="M167.4,218.8c0-1.8.3-3.5,1.5-4.5.9-.7,1.9-.6,2.7-.3-.9,2.1-1.7,4.4-1.7,6.8s.7,4.2,2,4.8c.1,0,.3-.2.2-.3-1.2-3.7,0-8.6,2.6-10.9-.5,2-.8,4.2-.5,6.2.1,1,.8,3.7,1.8,2.4v-.3c-.6-4,.2-8.8,2.9-11.1,1.3-1,2.6-1.3,3.9-1.5,1-.2,2-.4,3-1.2-.3,1.6-.5,3.3-.5,4.9s0,3.4-.1,5.2c-.5,4.7-3.6,6.2-6,5.8,0,0-.1.2,0,.3v.3c1.2,1.9,3.4,1.8,4.9-.2-.3,2.3-1.5,4.5-3,5.3-1.6.8-3.2-.1-4-2.1h-.1c-1.2.3-.4,2.4,0,3.1.7,1.3,1.6,2,2.7,2.1-.7,1.9-1.8,4.6-3.3,3.3-1-.9-1.6-3-1.9-4.8,0-.2-.2-.1-.3,0-.4,1.8-.3,3.5.2,4.9.3,1,.8,1.8,1.2,2.7.3.6.3,1.3-.1,2-.3.5-.6,1-1,1.3-1.5,1.4-2.9.2-3.4-1.9-.5-1.9-.3-4.3,0-6.5,0-.2-.2-.3-.3-.1-1.2,2.2-1.7,5.1-1.4,7.7-1.6-1.4-2-4.9-.8-7.7,0-.2,0-.4-.1-.3-1.1.5-1.9,1.7-2.4,3.3-.2-1.4-.3-2.9-.2-4.4h0c1.3-.1,2.7-.6,4-1.3,4.1-2.3,7.7-7,10.6-12.4.1-.2,0-.4-.2-.2-2.7,4.9-5.9,9.3-9.6,11.7-1.6,1-3.3,1.7-5,1.8-.9-1.1-1.5-2.7-1.6-4.6.5.7,1,1.3,1.7,1.6.1,0,.3-.2.2-.4-1.5-2.9-1.3-7.5.2-10.9-.1,3.7.2,8.3,2.8,8.9.1,0,.2-.3.2-.4-1.1-2.2-1.7-4.9-1.6-7.9l-.2-.2Z"/>
      <path class="st16" d="M168.9,214.3c-1.2,1-1.4,2.7-1.5,4.5,0,3,.6,5.7,1.6,7.9,0,.1,0,.4-.2.4-2.6-.6-2.9-5.1-2.8-8.9-1.6,3.4-1.7,8-.2,10.9,0,.2,0,.4-.2.4-.7-.3-1.2-.9-1.7-1.6.1,1.9.7,3.5,1.6,4.6,1.7,0,3.4-.7,5-1.8,3.7-2.4,6.9-6.8,9.6-11.7.1-.2.3,0,.2.2-2.9,5.3-6.5,10.1-10.6,12.4-1.3.7-2.7,1.2-4,1.3h0c0,1.5,0,3,.2,4.4.4-1.6,1.3-2.8,2.4-3.3.1,0,.2.2.1.3-1.2,2.9-.9,6.3.8,7.7-.3-2.6.2-5.4,1.4-7.7.1-.2.3-.1.3.1-.2,2.2-.5,4.6,0,6.5.5,2,2,3.2,3.4,1.9.4-.3.7-.8,1-1.3.4-.7.4-1.3.1-2-.4-.9-.9-1.7-1.2-2.7-.5-1.5-.7-3.2-.2-4.9,0-.2.2-.2.3,0,.3,1.8.9,3.9,1.9,4.8,1.4,1.2,2.6-1.4,3.3-3.3-1.1-.1-2.1-.9-2.7-2.1-.3-.7-1.1-2.8,0-3.1h.1c.8,2,2.4,3,4,2.1,1.5-.8,2.6-2.9,3-5.3-1.5,1.9-3.7,2.1-4.9.2v-.6c2.4.4,5.5-1.1,6-5.8.2-1.7,0-3.5.1-5.2,0-1.6.3-3.3.5-4.9-1,.8-2,1-3,1.2-1.3.2-2.6.5-3.9,1.5-2.8,2.3-3.6,7-2.9,11.1v.3c-1,1.3-1.7-1.4-1.8-2.4-.3-2,0-4.2.5-6.2-2.6,2.3-3.7,7.2-2.6,10.9,0,.2,0,.4-.2.3-1.3-.6-2-2.6-2-4.8s.8-4.7,1.7-6.8c-.9-.3-1.8-.4-2.7.3l.2.2ZM169.5,214.7h0c.3-.4.6-.5,1-.5v.2c-.3,0-.6.2-.9.4h-.1ZM169.4,215.2v-.2c.3-.1.6-.2.8-.3v.2c-.3.1-.6.2-.8.3ZM165.3,221.6s0-.1,0,0c0,.5,0,1,.2,1.5,0,0,0,.2,0,0-.1-.5-.2-1-.2-1.6h0ZM165.2,222.8h0v1.2h0v-1.2ZM172.3,219.9c-.1-.5,0-1.1.3-1.4h0c-.2.5-.3,1-.2,1.4h-.1ZM173,218.2h0c0,.4-.2.8-.4,1.1,0,0-.1,0,0,0,.2-.3.3-.7.4-1h0ZM182.4,211.3h0c.4-.1.9-.1,1.3-.1v.2h-1.3ZM183.1,210.7v-.2c.3,0,.7,0,1,.2v.2c-.3,0-.7,0-1-.1h0ZM166.4,233.1v-.2c.2,0,.4,0,.6-.1v.2c-.2,0-.4,0-.6.1ZM166.5,233.5h0c.3-.1.5-.1.8-.2h0c-.3.1-.5.1-.8.2ZM172.5,227.7c0-.1.1,0,0,.1-.1.3-.3.5-.5.7,0,0-.1-.1,0-.2.2-.1.3-.3.5-.6ZM171.6,229.4h0c.3-.3.6-.5.8-.9h0c-.2.5-.5.7-.8.9ZM174.8,228.1c.2-.3.5-.6.7-.9h0c-.2.3-.5.6-.7,1h0ZM168.4,238.7s0-.1,0,0c0,.4.1.9.2,1.3,0,0,0,.1,0,0,0-.4-.1-.9-.2-1.3ZM168.9,239.4c0-.1.1-.2.1,0v1.1h0v-1.1h-.1ZM181.3,224.4v-.2c.3,0,.6,0,.9-.3h0c-.3.4-.6.5-1,.4h.1ZM181.6,224.2h0c.4-.3.8-.5,1.1-1,0,0,.1,0,0,.1-.3.5-.7.8-1.2.9h0ZM173.4,236.8s0-.2,0,0c0,.3.1.6.2.9,0,0,0,.1,0,0,0-.3-.1-.6-.2-.9ZM173.9,236.7s0-.1,0,0c0,.4.2.8.3,1.1,0,0,0,.2,0,.1-.2-.3-.3-.7-.3-1.1h0ZM176.5,235.7s0-.2,0-.1c.3.3.5.5.9.4h0c-.3.1-.7.1-.9-.3ZM176.6,236.5s0-.2,0-.1c.3.2.6.3,1,.1h0c-.4.4-.8.3-1,0Z"/>
      <path class="st16" d="M169.5,214.5s0,.2,0,.1c.3-.2.6-.3.9-.4v-.2c-.3,0-.7.1-1,.4h.1Z"/>
      <path class="st16" d="M169.4,215v.2c.3,0,.6-.2.8-.3v-.2c-.3,0-.6.2-.8.3Z"/>
      <path class="st16" d="M165.4,221.6h0c0,.6,0,1.1.2,1.6,0,0,.1,0,0,0-.1-.5-.2-1-.2-1.5h0Z"/>
      <path d="M165.2,222.8h0v1.2h0v-1.2Z"/>
      <path d="M172.5,218.5c-.3.4-.4,1-.3,1.4h0c-.1-.4,0-.9.2-1.3,0,0,0-.2,0-.1h.1Z"/>
      <path class="st16" d="M173,218.2s0-.1,0,0c-.1.4-.2.7-.4,1,0,0,0,.1,0,0,.2-.3.3-.7.4-1.1h0Z"/>
      <path class="st16" d="M182.4,211.2h0c.4.1.9.1,1.3.1v-.2h-1.3Z"/>
      <path class="st16" d="M183.1,210.5v.2c.3,0,.7,0,1,.1v-.2c-.3,0-.6-.1-1-.2h0Z"/>
      <path d="M166.4,232.9v.2c.2,0,.4,0,.6-.1v-.2c-.2,0-.4,0-.6.1Z"/>
      <path d="M166.5,233.3h0c.3.1.5.1.8,0h0c-.3-.1-.5-.1-.8,0Z"/>
      <path d="M172.6,227.8c0-.1,0-.2,0-.1-.1.3-.3.5-.5.6v.2c.2-.1.4-.4.5-.7Z"/>
      <path d="M171.6,229.3s0,.2,0,.1c.3-.2.6-.4.8-.8,0,0,0-.2,0-.1-.2.3-.5.6-.8.8Z"/>
      <path class="st16" d="M175.6,227.1c-.3.3-.5.6-.7.9,0,0,0,.2,0,0,.2-.3.5-.6.7-1,0,0,0-.1,0,0h0Z"/>
      <path d="M168.5,238.7h0c0,.4.1.9.2,1.3h0c0-.4-.1-.9-.2-1.3Z"/>
      <path d="M169,239.4c0-.1-.1-.1-.1,0v1.1h0v-1.1h.1Z"/>
      <path d="M181.3,224.2v.2c.3,0,.7,0,1-.3,0,0,0-.2,0-.1-.3.2-.6.4-.9.3h-.1Z"/>
      <path class="st16" d="M181.6,224.1s0,.2,0,.1c.4-.1.8-.4,1.2-.9,0,0,0-.2,0-.1-.3.4-.7.7-1.1.9h0Z"/>
      <path d="M173.5,236.7s-.1,0,0,0c0,.3.1.6.2.9h0c0-.3-.1-.6-.2-.9Z"/>
      <path d="M174,236.7h0c0,.5.2.8.3,1.1,0,0,.1,0,0-.1-.2-.3-.3-.7-.3-1.1h0Z"/>
      <path d="M176.6,235.6h0c.2.5.6.6.9.5h0c-.3-.1-.6-.2-.9-.5Z"/>
      <path d="M176.6,236.4s-.1,0,0,.1c.3.3.7.4,1,.1,0,0,0-.2,0-.1-.3.2-.7.1-1-.1Z"/>
    </g>
    <g>
      <path class="st15" d="M142.4,263.2c-.4.3-1.3.6-1.7,0-.3-.6,1-2.4,1.3-2.9.3-.7.6-1.4.9-2.1.1-.3,1-2.5.2-2.2-.4.1-.6.9-.8,1.3-.4.8-.9,1.6-1.4,2.3-.5.6-1.1,1.4-1.8,1.4s-1.1-1-1.5-1.6c-.4-.7-1.3-1.5-1-2.7.2-.9.6-1.8.9-2.6.3-.9.8-2.3,1.5-2.5.5-.1.9.2,1.3.5.4.3.9.9,1.4,1,.2,0,.4,0,.5-.3.2-.4,0-.8-.2-1.1-.3-.5-.7-1-1.2-1.4-.4-.4-1.8-.9-1-2,.6-.9,1.4-.3,1.8.4.4.6.6,1.4,1,1.9.3.5.7.8,1.2,1,0,0,.1,0,.1-.1.4-1.2-.2-2.2-.6-3-.4-.7-.9-1.3-1.5-1.8-.3-.3-.9-.6-.2-1.5.2-.2.4-.4.6-.5.5-.4,1.2-.8,1.7-.5.6.3.8,1.3,1.1,2.1.3.7.5,1.7.9,2.3s.4.4.6.2h0c.3-2.7-.8-4.5-1.9-5.9,1.5-1.6,3.3-1.7,4.9-1.4.5.1,1.1.2,1.4,1,.3.6.4,1.5.6,2.3.3,1.5.7,2.9,1,4.4,0,0,0,.1.1,0,.6-.8.7-2.1.6-3.1-.1-1.3-.4-2.6-.7-3.8,2.3,1.7,3.5,5.7,3.2,9.9-1.8-.4-3.7-.4-5.5-.3-2.8.3-5.7,1.1-8.5,2.8,0,0,0,.2,0,.1,2.8-1.3,5.6-2.4,8.5-2.6,1.8-.2,3.5,0,5.2.4h0c-1.1,3.6-3.2,6.6-5.5,8-.2.2-.7.5-.9.5-.5,0,0-1.2,0-1.7.2-.7.5-1.7.4-2.3,0-.4-.3-.7-.6-.5-.4.2-.5,1.2-.6,1.7-.2,1-.5,2-.7,3.1-.3,1-.6,2-1.2,2.6-.5.4-1.1.6-1.6.6s-1.5.2-1-.9c.4-.8.8-1.5,1.2-2.4.3-.7.6-1.5.8-2.3.2-.6.4-2.2-.3-1.9-.4.2-.6,1.1-.7,1.5-.3.9-.6,1.8-1,2.6-.4.8-.9,1.5-1.5,1.9h.2Z"/>
      <path class="st16" d="M140.8,263.3c.3.6,1.2.3,1.7,0,.6-.4,1.1-1.1,1.5-1.9s.7-1.7,1-2.6c.2-.4.4-1.4.7-1.5.7-.3.5,1.3.3,1.9-.2.8-.5,1.6-.8,2.3-.4.9-.8,1.6-1.2,2.4-.6,1.1.6,1,1,.9.5,0,1.1-.2,1.6-.6.7-.6,1-1.6,1.2-2.6s.5-2,.7-3.1c.1-.5.2-1.5.6-1.7.3-.2.5.2.6.5,0,.7-.3,1.7-.4,2.3-.1.5-.6,1.6,0,1.7.3,0,.7-.3.9-.5,2.3-1.4,4.4-4.4,5.5-8h0c-1.7-.4-3.4-.5-5.2-.4-2.9.3-5.7,1.3-8.5,2.6h0c2.7-1.9,5.7-2.6,8.5-2.9,1.8-.2,3.7-.1,5.5.3.3-4.3-.9-8.2-3.2-9.9.3,1.2.5,2.5.7,3.8,0,1.1,0,2.3-.6,3.1h-.1c-.3-1.5-.7-2.9-1-4.4-.2-.7-.3-1.6-.6-2.3s-.8-.9-1.4-1c-1.6-.3-3.4-.2-4.9,1.4,1.1,1.4,2.2,3.1,1.9,5.8h0c-.3.3-.4.1-.6,0-.4-.6-.6-1.6-.9-2.3-.3-.8-.5-1.8-1.1-2.1-.5-.3-1.2.1-1.7.5-.2.1-.4.3-.6.5-.7.9,0,1.2.2,1.5.5.5,1,1.1,1.5,1.8s1,1.7.6,3c0,0,0,.1-.1.1-.4-.2-.8-.5-1.2-1-.4-.6-.6-1.3-1-1.9-.4-.7-1.2-1.4-1.8-.4-.8,1.1.6,1.6,1,2s.8.8,1.2,1.4c.1.2.4.6.2,1.1-.1.3-.3.3-.5.3-.5-.1-1-.7-1.4-1s-.8-.6-1.3-.5c-.7.2-1.1,1.6-1.5,2.5-.3.8-.7,1.8-.9,2.6-.3,1.2.6,2,1,2.7.4.6.8,1.5,1.5,1.6.6,0,1.3-.7,1.8-1.4.5-.7,1-1.4,1.4-2.3.2-.4.4-1.2.8-1.3.8-.3,0,1.9-.2,2.2-.3.7-.6,1.4-.9,2.1-.2.5-1.6,2.3-1.3,2.9h-.2ZM141.2,263.3v-.2c.2,0,.4,0,.5-.2h0c-.2.4-.4.4-.6.3h.1ZM138.9,260.2h0c.3.1.6-.1.8-.4,0,0,.1,0,0,0-.3.4-.6.6-.9.3h0ZM139.2,260.5s0-.2,0-.1c.3,0,.5,0,.8-.3,0,0,.1,0,0,.1-.3.3-.6.4-.9.3h0ZM137.5,256.4h0c0-.6.3-1,.6-1.3h0c-.3.3-.5.7-.6,1.2h0ZM146.5,262.5h0c.1-.3.3-.6.4-.8h0c-.1.3-.3.6-.4.8ZM146.8,262.6h0c.2-.4.4-.7.5-1.2,0,0,.1,0,0,0,0,.5-.3.9-.5,1.2ZM149.3,260.7h0c.3-.3.6-.5.9-.7h0c-.3.2-.6.4-.9.6h0ZM143.5,248.3s0,.1,0,0c0-.3-.2-.5-.4-.6,0,0,0-.1,0,0,.2,0,.4.3.5.6h-.1ZM143.9,248.6s0,.1,0,0c-.1-.5-.3-1-.6-1.2h0c.3.3.5.7.6,1.3h0ZM147.7,251.3h0c.2-.3.5-.4.7-.5h0c-.2.1-.5.3-.7.5ZM148.2,251.6h0c.2-.1.3-.3.5-.3h0c-.2,0-.3.2-.5.2h0ZM150.7,243.7s0,.1,0,0c0-.2,0-.5-.2-.6,0,0,0-.2,0-.1.2.1.3.4.3.7h-.1ZM151.1,243.7h0c0-.4-.2-.8-.4-1.1,0,0,0-.1,0,0,.2.3.3.7.4,1.1ZM155,248.2h0c0-.4,0-.8-.1-1.2,0,0,0-.1,0,0,.1.4.2.8.1,1.3h0ZM155.4,247.7s0,.1,0,0c-.1-.5-.2-1-.3-1.5h0c.1.5.2,1,.3,1.4h0Z"/>
      <path class="st16" d="M141.3,263.1s-.1.1,0,.2c.2.1.4,0,.6-.2,0,0,0-.2,0-.1-.2.2-.3.3-.5.2h-.1Z"/>
      <path class="st16" d="M139,260.1h0c.3.3.7.1.9-.2,0,0,0-.1,0,0-.2.4-.5.5-.8.3h0Z"/>
      <path class="st16" d="M139.2,260.4h0c.3.2.6.1.9-.2,0,0,0-.2,0-.1-.2.3-.5.4-.8.3h0Z"/>
      <path d="M137.4,256.4h0c0-.5.3-.9.6-1.2,0,0,0-.1,0,0-.3.3-.5.8-.6,1.3h0Z"/>
      <path class="st16" d="M146.4,262.4s0,.1,0,0c.1-.3.3-.6.4-.8,0,0,0-.1,0,0-.1.3-.3.5-.4.8Z"/>
      <path class="st16" d="M146.7,262.5s0,.1,0,0c.3-.3.4-.8.5-1.2,0,0,0-.1,0,0-.1.5-.3.8-.5,1.2Z"/>
      <path class="st16" d="M149.2,260.6h0c.3-.1.6-.3.9-.5,0,0,0-.1,0,0-.3.2-.6.4-.9.6h0Z"/>
      <path d="M143.4,248.4h0c0-.3-.2-.6-.5-.6h0c.2,0,.3.3.4.6h.1Z"/>
      <path d="M143.9,248.7h0c0-.6-.3-1-.6-1.3h0c.3.3.5.7.6,1.2h0Z"/>
      <path class="st16" d="M147.8,251.4h0c.2,0,.4-.3.6-.4,0,0,0-.2,0-.1-.2.1-.4.3-.6.5Z"/>
      <path class="st16" d="M148.2,251.5h0c.2.1.3,0,.5,0,0,0,0-.1,0,0-.2,0-.3.1-.5.2h0Z"/>
      <path class="st16" d="M150.6,243.7h0c0-.3-.1-.5-.3-.7h0c.1.2.2.4.2.7h.1Z"/>
      <path class="st16" d="M151,243.7h0c0-.5-.2-.8-.4-1.1h0c.2.3.3.7.4,1.1Z"/>
      <path d="M155,248.2h0c0-.5,0-.9-.1-1.3h0c.1.4.2.8.1,1.2h0Z"/>
      <path d="M155.3,247.7h0c0-.5-.2-1-.3-1.4h0c0,.5.2,1,.3,1.5h0Z"/>
    </g>
    <g>
      <path class="st4" d="M168.8,254.6c1.1-.8,1.3-2.3,1.4-3.9.1-2.6-.4-5.1-1.2-7.1,0-.1,0-.4.1-.3,2.3.7,2.4,4.7,2.2,8,1.5-2.9,1.7-7,.5-9.6,0-.2,0-.4.2-.3.6.3,1.1.8,1.5,1.5,0-1.7-.5-3.1-1.3-4.1-1.4,0-2.9.4-4.4,1.2-3.3,1.9-6.2,5.5-8.7,9.7-.1.2-.3,0-.2-.2,2.7-4.5,5.9-8.5,9.5-10.2,1.2-.5,2.4-.9,3.5-.9h0c.1-1.3.1-2.6,0-3.9-.4,1.4-1.2,2.4-2.2,2.7-.1,0-.2-.2,0-.3,1.1-2.5.9-5.5-.4-6.9.2,2.3-.3,4.8-1.4,6.7,0,.2-.2,0-.2-.1.2-1.9.5-4,.1-5.8s-1.6-3-2.9-1.9c-.3.3-.6.7-.9,1.1-.4.6-.4,1.2-.1,1.7.4.8.7,1.6,1,2.5.4,1.3.5,2.8,0,4.4,0,.2-.2.2-.2,0-.2-1.6-.7-3.5-1.5-4.4-1.2-1.2-2.3,1.1-2.9,2.7.9.2,1.8.9,2.3,2.1.3.6.8,2.6-.2,2.7h-.1c-.6-1.8-2-2.8-3.4-2.2-1.3.6-2.4,2.4-2.7,4.4,1.4-1.6,3.2-1.6,4.3.2v.4c-2.1-.5-4.8.6-5.3,4.7-.2,1.5-.1,3-.2,4.6-.1,1.4-.3,2.9-.6,4.3.9-.7,1.7-.8,2.6-.9,1.1,0,2.3-.2,3.4-1.1,2.5-1.8,3.3-6,2.8-9.6v-.2c.9-1.1,1.4,1.3,1.5,2.3.2,1.8-.2,3.7-.6,5.4,2.3-1.8,3.5-6.1,2.5-9.4,0-.2,0-.3.2-.3,1.1.6,1.7,2.4,1.6,4.4,0,2.1-.9,4.1-1.7,5.9.7.3,1.6.5,2.4-.1h-.3ZM168.2,254.2h0c-.3.3-.6.4-.8.4h0c.3-.1.5-.2.8-.4ZM168.4,253.8v.2c-.2,0-.5.2-.7.2v-.2c.2,0,.5-.2.7-.2ZM172.1,248.4s0,.1,0,0c0-.5,0-.9-.1-1.4,0,0,0-.1,0,0,0,.4.1.9.1,1.4ZM172.2,247.3h0v-1.1h0v1.1ZM166,249.4c.1.4,0,1-.3,1.3h0c.2-.3.3-.7.2-1.1h0v-.2ZM165.3,250.9h0c0-.3.2-.6.4-.9h0c-.2.3-.3.6-.4.9ZM156.9,256.3h0c-.4.1-.7.1-1.1.1h0c.4-.1.7-.1,1.1-.1ZM156.3,256.8v.2c-.3,0-.6-.1-.8-.2h0c.3-.1.6-.1.8.1h0ZM171.5,238.2h0c-.2.1-.3.1-.5.1h0c.2-.1.3-.1.5-.1ZM171.3,237.9h0c-.2.1-.5.1-.7.1h0c.2-.1.5-.1.7-.1ZM166,242.6s-.1,0,0-.1c.1-.3.3-.5.5-.6,0,0,.1.1,0,.2-.2.1-.3.3-.4.5h-.1ZM166.8,241.1h0c-.3.2-.5.5-.7.7h0c.2-.3.5-.5.7-.7h0ZM164,242.1c-.2.3-.4.5-.7.8h0c.2-.3.4-.5.7-.8h0ZM169.9,233.1s0,.1,0,0c0-.4,0-.8-.1-1.2,0,0,0-.1,0,0,0,.4,0,.8.1,1.2ZM169.5,232.5c0,.1-.1.1-.1,0v-.9h0v.9h.1ZM158.2,244.8h0c-.3.1-.5.1-.8.3h0c.3-.3.6-.4.8-.3ZM158,245h0c-.4.2-.7.4-1,.8h0c.3-.5.7-.7,1-.8ZM165.4,234.4s0,.1,0,0c0-.3,0-.6-.1-.8,0,0,0-.1,0,0,0,.3,0,.6.1.8ZM165,234.5h0c0-.4-.1-.7-.3-1,0,0,0-.1,0,0,.1.3.3.6.3,1ZM162.7,235.2s0,.1,0,0c-.2-.3-.4-.4-.7-.4h0c.3,0,.6.1.8.4h-.1ZM162.7,234.4s0,.2,0,.1c-.2-.2-.5-.3-.8-.2h0c.3-.3.7-.2.9,0h0Z"/>
      <path class="st16" d="M168.3,254.4s0-.2,0-.1c-.3.1-.5.3-.8.3h0c.3.1.6.1.8-.2Z"/>
      <path class="st16" d="M168.4,253.9v-.2c-.2,0-.5.1-.7.2v.2c.2,0,.5-.1.7-.2Z"/>
      <path d="M172,248.4h0c0-.5,0-1-.1-1.4,0,0-.1,0,0,0,0,.4.1.9.1,1.4Z"/>
      <path d="M172.2,247.3h0v-1.1h0v1.1Z"/>
      <path class="st16" d="M165.7,250.7c.3-.3.4-.9.3-1.3h0c0,.4,0,.8-.2,1.1,0,0,0,.1,0,0v.2Z"/>
      <path class="st16" d="M165.3,250.9s0,.1,0,0c.1-.3.2-.6.4-.9,0,0,0-.1,0,0-.2.3-.3.6-.4.9Z"/>
      <path class="st16" d="M156.9,256.4h0c-.4-.1-.7-.1-1.1-.1h0c.4.1.7.1,1.1.1Z"/>
      <path class="st16" d="M156.3,257v-.2c-.3,0-.6-.1-.8-.2h0c.3.1.6.3.8.3h0Z"/>
      <path d="M171.5,238.3h0c-.2-.1-.3-.1-.5-.1h0c.2.1.3.1.5.1Z"/>
      <path d="M171.3,238h0c-.2-.1-.5-.1-.7-.1h0c.2.1.5.1.7.1Z"/>
      <path d="M165.9,242.5s0,.2,0,.1c.1-.2.3-.4.4-.5v-.2c-.2.1-.4.3-.5.6h.1Z"/>
      <path d="M166.8,241.2h0c-.3,0-.5.2-.7.6,0,0,0,.2,0,0,.2-.3.5-.5.7-.6h0Z"/>
      <path d="M163.3,242.8c.2-.3.4-.5.7-.8,0,0,0-.1,0,0-.2.3-.4.5-.7.8,0,0,0,.1,0,0Z"/>
      <path d="M169.8,233.1h0c0-.4,0-.8-.1-1.2h0c0,.4,0,.8.1,1.2Z"/>
      <path d="M169.4,232.5q0,.1.1,0v-.9h0v.9h-.1Z"/>
      <path d="M158.2,245h0c-.3-.1-.6-.1-.8,0,0,0,0,.2,0,.1.3-.2.5-.3.8-.2Z"/>
      <path class="st16" d="M158,245.1h0c-.4-.1-.7.2-1,.6,0,0,0,.2,0,.1.3-.3.6-.6,1-.7Z"/>
      <path d="M165.3,234.5h0c0-.3,0-.6-.1-.8h0c0,.3,0,.6.1.8Z"/>
      <path d="M164.9,234.5h0c0-.4-.1-.7-.3-1,0,0-.1,0,0,0,.1.3.2.6.3,1Z"/>
      <path d="M162.7,235.3h0c-.2-.3-.5-.5-.8-.4h0c.3,0,.5.2.7.4h.1Z"/>
      <path d="M162.6,234.6s.1,0,0-.1c-.2-.3-.6-.4-.9-.2h0c.3,0,.6.1.8.3h0Z"/>
    </g>
    <g>
      <path class="st18" d="M123.4,199.6c-.2-1-.9-1.4-1.5-1.2-.8.2-1.4,1-2.1,1.8.6-.2,1.2-.3,1.7.1.6.6.4,1.7,0,2.6-.3,1.1-.7,2.2,0,3,.3.4.6.6.8,1.2.3.8.2,1.8,0,2.7h.4c.5-.8.8-1.9.6-2.9,0-.6-.4-1.1-.5-1.7-.2-1-.2-2.1.2-3.1.3-.8.6-1.5.4-2.4h0ZM122,198.7c.3,0,.6.1.8.5,0,0,0,.2,0,.1-.2-.3-.5-.4-.8-.4h0v-.2ZM122.2,199.2c.3.1.5.4.7.7,0,0,0,.2,0,.1-.2-.2-.4-.5-.7-.7,0,0,0-.1,0,0h0Z"/>
      <path class="st18" d="M119.6,199.1c.6-2-.2-3.3-1.4-3.1-.7.1-1.3.8-2,.5-.3-.1-.6-.4-.9-.7-.3-.4-.8-1.2-1.2-1.2s-.8.8-1,1.3c0,.4-.2.8-.3,1.2,0,.5-.2,1-.2,1.4.3-.7.7-1.3,1.3-1,.4.2.5.8.7,1.3.3.5.8.7,1.2.3s.4-.5.6-.6c.6-.6,1.6-1.3,2.2-.7.5.4.7,1.4.6,2.3,0-.3.2-.6.3-1h.1ZM118.9,196.6c.2.1.5.3.6.6,0,0,0,.2,0,.1-.2-.2-.3-.5-.5-.6h0c0-.1,0-.1,0-.1Z"/>
      <path class="st37" d="M127.1,207.3c0-.3,0-.6-.3-.4-.2.2-.2.6-.3.9,0,.3,0,.6-.2.9,0,0,.2-.1.3-.2h0c0-.2.2-.5.3-.7,0-.1,0-.4,0-.5h0Z"/>
      <path class="st37" d="M127.9,208.9c0-.4-.4-.2-.7-.1,0,.1-.2.2-.3.3,0,.1.3.2.4.2s.6,0,.6-.4Z"/>
      <path class="st37" d="M126.1,207.6c-.2-.2-.4.5-.5.7v.9h.2c0-.4.7-1.1.4-1.5h0Z"/>
      <path class="st17" d="M121.5,202.2c.4-2-1.1-2-2-1.6,0,.2-.3.4-.4.6h0c-.3.7-.6,1.3-.9,1.9-.7,1.6-1.5,3.1-2.2,4.6.6-.3,1.2-.8,1.8-1.3,0,0,0,.1,0,.2-.6.6-1.3,1.1-2,1.4h0c1.3.3,2.7.2,4.1-.7,0,0,0,.1,0,.2-1.3.8-2.6,1.1-3.9.7h0c1.9.9,3.7,1.5,5.8,1.5h0c.3-.7.4-1.5.2-2.3,0-.7-.5-.9-.8-1.3-.3-.4-.6-.8-.5-1.5,0-.9.4-1.7.6-2.5h.1ZM120.8,204.2s0,0,0,.1c-.2.3-.2.7,0,1,0,0,0,.1,0,0-.2-.3,0-.9,0-1.2h0Z"/>
      <path class="st17" d="M119,200.6c.2-1.8-.4-3-1.6-2.5-.4.2-.8.5-1.1.9-.2.3-.5.6-.7.8-.4.3-.7.2-.9-.2-.2-.3-.3-.7-.5-1.1,0-.2-.2-.4-.3-.5-.6-.5-1,.3-1.3,1v.3c0,2.9.8,5.2,1.7,7.4.3.5.6.9.9,1.4,0-1.2,0-2.4,0-3.7,0-.1,0-.1,0,0,0,1.3,0,2.6,0,3.8h0c.2-1.9.6-3.8,1.2-5.5,0-.1,0,0,0,0-.5,1.7-.9,3.4-1.2,5.1l2.1-4.2c.4-1,.9-2,1.3-3h0c0-.1.1,0,.1,0ZM113.3,200.1s0,0,0,0c0,.4,0,.7,0,1.1,0,0,0,.2,0,0v-1.2h0ZM112.9,200.4h0c0,.5,0,1,0,1.4,0,0,0,.2,0,0,0-.5,0-1,0-1.5h0Z"/>
      <path class="st37" d="M126.8,210.3c0-.2.2-.5,0-.6s-.5.2-.7,0c0,0,0,0-.2.1,0,.3.3.5.5.6,0,0,.3,0,.4-.1Z"/>
      <path class="st0" d="M125.4,209.7c.3-.1.5-.3.8-.5-1.3.7-2.6.9-3.9,1h-.3c-2.2,0-4.4-.4-6.3-1.8h0c0,.1,0,.1-.2,0,0,0,0,.2,0,.3h0v.2h0c1.9,1.8,4.3,2.2,6.7,1.8,1.1-.2,2.3-.6,3.4-1.2v.2Z"/>
      <path class="st17" d="M120.8,204.4s0-.2,0-.1c-.2.3-.3.9,0,1.2h0c0-.3,0-.7,0-1h0Z"/>
      <path class="st17" d="M122.8,211.1h0c-.3,0-.6.1-.9.2-2.3.4-4.5,0-6.3-1.6.4.9.9,1.7,1.6,2.1,0,0,0,.3,0,.2-.4-.3-.8-.6-1.1-1.1.7,1.5,1.5,2.9,2.5,4.2,0,0,0,.3,0,.2-1.3-1.6-2.3-3.5-3.1-5.8.2,1.9.5,3.7,1,5.4.3,1.1.6,2.3,1.1,3.3s1.8,2.7,2.6.7c.4-1,.2-2.3.8-3.2.6-1,1.1,0,1.8-.5,1.3-.9.7-3,.3-4.2h-.2ZM122.6,212.1s0-.2,0-.1c0,.3.2.7,0,1.1h0c0-.4,0-.7,0-1ZM122.3,212.4s0-.2,0-.1c0,.2.2.4.2.7s0,.2,0,0,0-.4,0-.6h0ZM116.1,213.7s0-.1,0,0c0,.4.2.8.3,1.2,0,0,0,.2,0,0-.2-.3-.3-.8-.3-1.3h0ZM116.5,214.2s0-.1,0,0c0,.4.2.8.4,1.1,0,0,0,.2,0,.1-.2-.3-.3-.7-.4-1.2h0Z"/>
      <path class="st18" d="M123.9,214.5c0-1.2-.2-2.2-.7-2.9.3.9.5,1.9,0,3-.2.5-.6,1-.9,1.1-.6.3-1.3-.5-1.8.7s-.3,3.8-1.6,3.8-.6-.1-.8-.3c.2.2.3.4.5.6.8.7,1.7.3,2.3-1.1.4-.8.7-1.5,1.2-2,.8-.7,1.4-1.3,1.6-2.8h.2ZM122.7,216.1s0,0,0,.2c-.3.4-.6.6-1,.7,0,0,0-.2,0-.2.3,0,.6-.3.9-.6h0ZM122.3,217.2v.2c-.3,0-.5,0-.7.4,0,0,0,0,0-.1.2-.3.5-.5.8-.4h-.1Z"/>
      <path class="st17" d="M113.4,200.1s0-.1,0,0c0,.4,0,.8,0,1.2,0,0,0,0,0,0v-1.1h0Z"/>
      <path class="st18" d="M122.7,212s0,0,0,.1c0,.3.2.6,0,1h0c0-.4,0-.8,0-1.1Z"/>
      <path class="st17" d="M113,200.4h0v1.5s0,0,0,0c0-.4,0-.9,0-1.4h0Z"/>
      <path class="st18" d="M122.4,212.3s0,0,0,.1c0,.2,0,.3,0,.6s0,0,0,0c0-.3,0-.5-.2-.7h0Z"/>
      <path class="st18" d="M122.8,216.3v-.2c-.3.3-.6.5-.9.6,0,0,0,.3,0,.2.4,0,.7-.3,1-.7h0Z"/>
      <path class="st18" d="M122.3,217.3v-.2c-.3,0-.6.1-.8.4,0,0,0,.2,0,.1.2-.3.5-.3.7-.4h.1Z"/>
      <path class="st17" d="M115,208.6c-1.3-1.8-2.5-3.6-4.1-4.7-.2-.2-.6-.4-.9-.6h0c-.8-.1-1.1,1.3-1.1,2.2s.2,1.2.3,1.7c.2.5.3,1.1.2,1.8,0,.6-.4,1.1-.7,1.5-.4.6-1,1.3-.8,2.2,0,.1.4.8.8,1.1,1.3.1,2.7-.6,4.1-1.4.6-.9,1.2-1.9,1.8-2.8-.8.8-1.8,1.2-2.7,1.2v-.2c1.1-.2,2.2-.7,3.2-1.8h0c-1.1.2-2.1-.3-2.9-1.3,0,0,0-.3,0-.2.8.9,1.7,1.3,2.7,1.3h0ZM110,213.4v.2c-.4.1-.7,0-1-.5,0,0,0-.2,0-.1.3.4.6.5.9.4h0ZM109.1,213.5h0c-.3.1-.5-.3-.7-.7,0,0,0-.1,0,0,.2.4.4.5.6.8h0Z"/>
      <path class="st17" d="M115.1,209.8h0c-.8,1.5-1.6,3-1.7,4.9,0,.1,0,.2,0,0,0-2,.9-3.7,1.8-5.2-.6.9-1.2,1.8-1.8,2.8v.2s0,.1-.2.2c-.9,1.4-1.9,2.9-2.7,4.4-.2.3-.4.6-.5,1,0,.8,0,1.6.4,1.9.3.2.7,0,1,0s.8.2,1.1.7c.4.7.5,1.7,1,2.4.4.6,1.1.5,1.6-.1.4-.5.6-1.2.7-1.9h0v-.5h0c0-.2,0-.4,0-.5v-1.1c0-1.5,0-3,0-4.4-.3-1.3-.5-2.7-.6-4.1-.3,1.2-.4,2.5-.3,3.7,0,.1,0,.2,0,0-.2-1.3,0-2.8.4-4.1v-.3ZM115.5,216.1c0-.1,0-.2,0,0,0,.4,0,.9,0,1.4,0,.1-.2,0,0,0,0-.4,0-.8,0-1.2v-.2ZM115.7,217c0-.1,0-.1,0,0,0,.4,0,.9-.2,1.2,0,0,0,0,0,0,0-.4.2-.7.2-1.1h0Z"/>
      <path class="st18" d="M109.5,203.1c-.5-.1-1,0-1.4.4-.7.9-.4,2.5-.5,3.6,0,1.1-.5,2-.9,3.1-.3.8-.4,1.6-.2,2.4.2.6.7.9,1.1,1.1.2,0,.4.2.6.2-.2-.2-.4-.5-.4-.6-.5-1.1.2-2.1.7-2.9.4-.6.7-1.2.6-2,0-.5-.2-.9-.4-1.3-.2-.5-.2-1.1-.2-1.7s.4-2,.9-2.2h.1ZM108.4,203.6h0c-.2.2-.4.5-.5.8h0c0-.3.3-.6.5-.9h0Z"/>
      <path class="st18" d="M108.5,203.7s0-.1,0,0c-.2.2-.4.5-.5.9,0,0,0,.1,0,0,0-.3.3-.6.5-.8h0Z"/>
      <path class="st18" d="M116.2,213.6h0c0,.5,0,.9.3,1.3,0,0,0,0,0,0,0-.4-.2-.8-.3-1.2h0Z"/>
      <path class="st18" d="M116.6,214.1h0c0,.4.2.8.4,1.2,0,0,0,0,0-.1-.2-.3-.3-.7-.4-1.1h0Z"/>
      <path class="st18" d="M115.6,216c0-.1,0,0,0,0,0,.4,0,.8,0,1.2,0,.1,0,.2,0,0,0-.4.2-.9,0-1.4v.2Z"/>
      <path class="st18" d="M115.8,217c0-.1,0,0,0,0,0,.4,0,.8-.2,1.1,0,0,0,.1,0,0,.2-.4.2-.8.2-1.2h0Z"/>
      <path class="st18" d="M115.7,220.5h0c0,1.3-.5,2.6-1.3,3-.9.5-1.4-.6-1.8-1.6-.3-.9-.6-1.7-1.3-1.7s-.9.1-1.3-.2c-.3-.3-.5-1-.4-1.6-.4.9-.8,1.9-.6,2.8.2,1.3,1.3,1,2,1s1,0,1.4.6c.3.5.3,1.3.6,1.6.5.5,1.2.2,1.7-.4.7-.9,1-2.2,1.1-3.5h0ZM109.4,219.8s0,0,0,0c0,.4,0,.8,0,1,0,0,0,.2,0,.1-.2-.3-.3-.7-.2-1.1h0ZM109.1,220.4c0-.1,0-.1,0,0,0,.4,0,.8.3,1,0,0,0,.2,0,.1-.3-.2-.5-.7-.4-1.2h0Z"/>
    </g>
    <g>
      <path class="st17" d="M106.8,200.4c.2.8.6,1.3,1.1,1.4,1.1.3,2.1-1,2.7-2.4,0-.4,0-.8.2-1.2h-.2c-.3,0-.6-.3-.7-.7-.4-.9,0-2.2.4-3.1-.7.4-1.6.6-1.8-.4-.2-.9.3-1.9.9-2.6-1,.3-2.1.5-3,.1-1,1-1.7,2.9-.9,4.4.4.8,1.2,1.1,1.4,2.2,0,.7,0,1.5,0,2.2h0ZM105.8,195.5c0,.1,0,.2,0,0,0-.4-.2-.8-.2-1.3s0-.2,0,0c0,.4,0,.8.2,1.2h0Z"/>
      <path class="st17" d="M110.9,203.8c.6,1.2,1.8.8,2.6,0,.6-.6,1.1-1.2,1.7-1.2s1.4.7,2.2.1c.9-.6,1.3-2.3,1.3-3.7s-.6-2.6-1.1-3.7h0c-.2-.2-.5-.5-.7-.8.2.9,0,2.1-.7,2.3-.5.1-.8-.3-1-1,0,1.4-.3,2.8-1.1,3.4-1,.7-1.4-.6-1.4-2-.3.7-.9,1.2-1.5,1,0,.4-.2.8-.3,1.2-.3,1.4-.6,3.2,0,4.4ZM111.4,203.7c-.3-.1-.4-.6-.3-1h0c0,.4,0,.7.2.9h0c0,.1.1.1.1.1ZM118,199.3s0,0,0,0c.2-.5.2-1,0-1.4,0,0,0-.2,0,0,0,.5,0,1.1,0,1.6v-.2ZM118.5,198.9s0,.1,0,0v-1.4h0v1.4Z"/>
      <path class="st8" d="M110.2,197.5c.2.4.6.5.9,0,.6-2.5,1.5-4.9,2.5-6.9h0c-.2-.2-.3-.5-.5-.9-.9.6-2.1,1.3-3.3,1.7-.5.5-1.2,1.5-1,2.4.2,1.1,1.3.6,1.8.2.2-.1.2.2,0,.3h0c-.4.7-.7,1.5-.6,2.3,0,.3,0,.6.2.9ZM109.4,193.5h0c0-.5.2-1,.5-1.3h0c-.3.3-.4.8-.4,1.2h0ZM109.2,192.9h0c0-.4.2-.7.4-.9h0c-.2.2-.3.5-.4.9Z"/>
      <path class="st8" d="M113,197.9c.2,1.2,1.1,1.3,1.6,0,.4-.9.5-2,.4-3v-1c0-.2.2-.2.2,0,.2.7.3,1.6.6,2.1.3.4.8.3,1-.3.2-.5,0-1.1,0-1.5h0c-.9-1-1.7-2.1-2.4-3.4h-.5c-1,2.2-1.9,4.6-2.5,7,.6.2,1.2-.4,1.4-1.3v-.8c0-.2.2-.2.2,0h0v.2c0,.6,0,1.3,0,1.8v.2Z"/>
      <path class="st17" d="M110.3,182.8c-1.4.1-2.8.2-4.2.3-.5.8-1.1,1.6-1.4,2.6-1,2.7.3,4.8,1.7,5.5h0s0,0,0,.1c.2,0,.4.1.6.1.6,0,1.2,0,1.9-.2-.3-.2-.5-.7-.5-1.3,0-.9.4-1.5.9-1.9-.6-.5-1.4-1.4-1.1-2.6.4-1.3,1.3-1.2,1.9-.8,0-.5-.2-1.2-.2-1.7h.3Z"/>
      <path class="st8" d="M111.8,182.6q-.3-.5-.8,0c0,.1-.2.2-.3.3h1c0-.1.1-.3.1-.3Z"/>
      <path class="st8" d="M112.2,184.9c0-.5,0-1.1-.2-1.7,0-.2,0-.4-.2-.5h-1c-.2.3-.2.4,0,1,0,.4,0,.7.2,1.1,0,.2,0,.4-.2.3-.2-.2-.5-.4-.7-.4-.5-.1-1.3.4-1,1.7.2.6.8,1.1,1.2,1.3,0,0,0,.4,0,.5-.5.1-.9.6-1,1.4,0,.7,0,1.2.7,1.1h0c1-.3,2.1-.9,3.1-1.5,0-.4-.2-.9-.3-1.3-.2-1-.4-2.1-.5-3.1h0Z"/>
      <path class="st17" d="M117.4,194.3c.3.3.6.6.9.9.6.5,1.3,1.1,2.1.5.9-.7,1.2-2.5,1.1-3.8,0-.8-.2-1.6,0-2.4.2-1.1.9-1.8,1-2.9,0-1.6-.7-2.6-1.6-2.8-.8-.2-1.7.1-2.5.7-.2.3-.5.6-.8.9.5-.2,1.1-.2,1.1.5s-.2.8-.4,1.1c-.2.3-.5.6-.8.8.9-.1,2.6.2,2.2,2.2-.3,1.6-1.6,1.9-2.5,1.6.4.5.8,1.3.6,2.1,0,.3-.2.5-.4.7h0ZM119.4,195.5v-.2c.3,0,.5,0,.8-.1v.2c-.3.1-.6.2-.8.1ZM119.5,195.1h0c.2-.1.4-.1.6-.2h0c-.2.1-.4.1-.6.2ZM118.4,187.1h0c.2-.1.4-.4.5-.7,0,0,0,0,0,0,0,.4-.3.7-.6.7h0Z"/>
      <path class="st8" d="M117.1,193.8c.2.5.5-.1.5-.6s0-.5-.2-.7c-.2-.5-.5-.9-.8-1.2h0c0,0,0-.5,0-.4.7.4,2.2.7,2.7-.9.6-1.8-1.4-2-2.1-1.9h0c0,0-.2-.2,0-.3.4-.5,1-.8,1.3-1.4.3-.5,0-.9-.3-.9h-.8c-.8.8-1.6,1.4-2.5,1.9.3.6.5,1.2.4,1.8,0,.6-.2,1-.5,1.2.7,1.2,1.5,2.3,2.3,3.2h0v.2Z"/>
      <path class="st21" d="M113.9,189.3h0Z"/>
      <path class="st56" d="M114.1,189.4s0,0-.2-.1c0,0,0,0,.2.1Z"/>
      <path class="st0" d="M113.2,184.8c-.2-.7-.4-1.5-.5-2.2h-.5c0,1.2.2,2.4.4,3.5,0,.8.3,1.6.5,2.3,0,.5.3,1.1.5,1.5s.5.6.8.4c.3-.2.5-.6.5-1.2h0c0-1-.7-2-.9-2.5-.3-.6-.6-1.2-.8-1.9h0ZM114.2,189.5h-.2.3c-.2.2-.5.1-.6,0,0,0,0-.2,0-.1h0c0-.1-.2-.2-.2-.4,0,0,0-.2,0,0,0,.3.3.5.5.6h0c0,.1.2,0,.2,0Z"/>
      <path class="st56" d="M113.6,188.9c0,.4.3.6.6.6h0c-.2-.1-.4-.3-.5-.7,0,0,0,0,0,0h0Z"/>
      <path class="st8" d="M116.8,183c-.2,0-.7.8-.9,1,0,.1-.3,0-.2-.2.2-.5.3-1.1.3-1.7-.8.1-1.7.3-2.5.4,0,.6-.2,1.2,0,1.8.2.7.5,1.3.7,1.9,0,.3.3.6.5,1,.3-.2.7-.4,1-.6.5-.6.9-1.2,1.3-2s.8-1.7,0-1.5h0Z"/>
      <path class="st17" d="M113.1,183.3c0-.3,0-.6,0-.8h-.3c0,.3,0,.5.2.8Z"/>
      <path class="st17" d="M116.3,182c0,.4,0,.8-.2,1.1.5-.6,1.2-1.2,1.4-.1,0,.9-.5,2.1-1.2,2.9.7-.6,1.4-1.3,1.9-2.1.5-.6.9-1.5,1.1-2.5-1,.2-2.1.5-3.2.7h.2ZM117.8,183.8s0,0,0,0c0-.4.2-.7.2-1.1h0c0,.4,0,.8-.2,1.2h0ZM118.2,183.8s0,0,0,0c.2-.3.4-.7.4-1.1h0c0,.5-.2.9-.4,1.2h0Z"/>
      <path class="st56" d="M113.7,189.3c.3.5.6.5.8.2,0,0,0-.3,0-.2-.2.2-.5,0-.7-.3,0,0,0,.1,0,.2h-.1Z"/>
    </g>
    <g>
      <path class="st15" d="M126.3,247.9c3,.2,5.3-4.1,6.5-8.3.8.3,1.6.7,2.4,1.2-1.7,1-2.8,3.6-3.6,6.1v.2c1.8-.1,3-3.8,3.7-6.2.4.3.9.6,1.3.9,1.4,1.1,2.6,2.7,3.7,4.5,0,.1.2,0,.1-.2-1.1-2.7-3-4.4-5-5.6,1-2.8-.4-5.4-.9-7.8,0-.2-.2,0-.2,0-.4,2.5-.2,5.3.6,7.3-.6-.3-1.2-.6-1.8-.9.5-1.9.1-3.7-.5-5.1-.4-.9-.9-1.7-1.3-2.7-.4-.9-.7-2-1-3.1,0-.2-.2-.1-.2,0-.3,4.2.9,7.9,2.6,10.6h0c-.9-.4-1.8-.7-2.7-1h0c-.2-1.4-.4-2.8-.6-4.2-.2-1.3-.4-2.7-.7-3.9-.7-2.5-2-4-2.9-6.2,0-.2-.2,0-.2.2,0,5.7,1.4,10.9,4.1,14.1-.7-.3-1.5-.5-2.2-.8-.6-.2-1.1-.4-1.7-.5.6-2.3-.2-4.4-.9-5.9-1.1-2.1-1.9-4.3-2.5-6.9,0-.2-.2-.1-.2,0-.2,2.4,0,4.8.5,6.8.6,2.2,1.7,4,2.7,5.8-1-.3-2-.7-2.9-1.4v.2c.7.7,1.6,1.1,2.5,1.5-3,.1-6,1.1-9,2.9,0,0,0,.3,0,.3,2,.4,4.1.6,6.2,0,.8-.2,1.7-.6,2.4-1.2.3-.3,1.2-1,1.1-1.7h0c.3.1.6.2,1,.3.8.3,1.6.6,2.4.9-3.5,1.2-6,7.5-9.6,7.4,0,0-.2.3,0,.3,3.7,1.7,7.9-2.1,10.2-7.6.8.3,1.6.6,2.3.9.1,0,.3.1.4.2-1.1,1-2.2,2-3,3.5-1,1.6-1.8,3.6-3,4.6,0,0,0,.3,0,.4h-.1ZM129.4,238.4c-2.1,4.9-5.7,8.4-9.1,7.5,3.3-.7,5.8-6.4,9.1-7.5ZM126.7,247.5c.9-.9,1.6-2.2,2.3-3.5,1-1.9,2.2-3.2,3.6-4.5-1.1,3.9-3.1,7.8-5.8,8h-.1ZM135.2,241.1c-.7,2.1-1.7,5.3-3.3,5.7.8-2.3,1.7-4.6,3.3-5.7ZM121,239.8c-1.6.2-3.1.1-4.6-.2,3-1.7,6.1-2.6,9.1-2.6,0,.9-1.9,2-2.2,2.2-.7.4-1.5.5-2.3.6ZM135.4,240.4h0c-.7-2.1-1.1-4.3-.8-6.9.6,2.2,1.6,4.3.9,7h0ZM131.9,233.3c.8,1.6,1.6,3.5,1.1,5.8-1.6-2.5-2.8-5.8-2.7-9.7.4,1.4.9,2.7,1.5,3.9h0ZM125.6,236.6h0c-.9-1.8-2-3.6-2.7-5.8-.6-1.8-.8-3.9-.7-6.1.5,1.9,1.1,3.6,1.8,5.2.9,1.9,2.1,3.9,1.6,6.7h0ZM128.4,230.1c.6,2.4.9,5.1,1.4,7.6-2.5-3.1-4-7.9-4.1-13.4.9,1.9,2.1,3.4,2.7,5.7h0Z"/>
      <path class="st42" d="M120.3,245.9c3.4.9,7-2.6,9.1-7.5-3.3,1.1-5.8,6.8-9.1,7.5ZM126.7,242.6h0c.2-.4.4-.7.6-1.1,0,0,0,0,0,0,0,.5-.4.8-.6,1.1ZM126.4,242.4h0c.2-.3.4-.6.6-.9,0,0,0,0,0,0-.2.3-.4.6-.6.8h0Z"/>
      <path class="st42" d="M129,244c-.7,1.3-1.4,2.6-2.3,3.5,2.7-.2,4.8-4.1,5.8-8-1.3,1.3-2.5,2.6-3.6,4.5h.1ZM128.9,245.2h0c.2-.3.5-.7.7-1h0c-.2.3-.4.7-.7,1ZM129.1,244.4h0c.1-.3.3-.6.5-.8h0c-.2.2-.4.5-.5.8Z"/>
      <path d="M128.9,245.2s0,.1,0,0c.2-.3.5-.6.7-1,0,0,0-.1,0,0-.2.3-.5.6-.7,1Z"/>
      <path d="M129.1,244.4s0,.1,0,0c.1-.3.3-.6.5-.8,0,0,0-.1,0,0-.2.2-.4.5-.5.8Z"/>
      <path class="st42" d="M131.9,246.7c1.5-.3,2.6-3.5,3.3-5.7-1.5,1.1-2.5,3.4-3.3,5.7ZM133.5,244.6h0c.1-.3.3-.5.4-.8h0c-.1.3-.2.5-.4.8ZM133.3,244.6h0c0-.2.2-.4.3-.6h0c0,.2-.2.4-.3.6Z"/>
      <path d="M133.5,244.5s0,.1,0,0c.1-.3.3-.5.4-.8h0c-.1.3-.3.5-.4.8Z"/>
      <path d="M133.3,244.5s0,.1,0,0c.1-.2.2-.4.3-.6,0,0,0-.1,0,0-.1.2-.2.4-.3.6Z"/>
      <path d="M126.7,242.4s0,.2,0,.1c.3-.3.5-.6.6-1.1,0,0,0-.1,0,0,0,.4-.3.8-.6,1Z"/>
      <path d="M126.3,242.3s0,.2,0,.1c.2-.2.4-.5.6-.8,0,0,0-.2,0,0-.2.3-.4.6-.6.8h0Z"/>
      <path class="st15" d="M116.4,239.7c1.5.3,3.1.3,4.6.2.8,0,1.5-.3,2.3-.6.3-.2,2.2-1.3,2.2-2.2-3,0-6.1.9-9.1,2.6ZM122.2,239.1h0c.3-.1.5-.3.8-.3h0c-.3.1-.5.3-.8.3ZM121.8,239h0c.2-.2.4-.3.7-.4h0c-.2.2-.4.3-.7.4Z"/>
      <path class="st42" d="M135.3,240.4h0c.7-2.6-.3-4.8-.9-7-.3,2.6,0,4.9.8,6.9h0Z"/>
      <path class="st15" d="M122.2,239h0c.3.1.5,0,.8,0h0c-.3-.1-.5,0-.8,0Z"/>
      <path class="st15" d="M121.8,238.9s0,.2,0,.1c.2,0,.4-.2.7-.3h0c-.2-.1-.4,0-.7.2Z"/>
      <path class="st42" d="M133,239c.4-2.3-.4-4.2-1.1-5.8-.6-1.2-1.1-2.5-1.5-3.9,0,3.9,1.1,7.2,2.7,9.7h0ZM132.7,236.8s0,.1,0,0c0-.4-.1-.9-.2-1.3,0,0,0-.1,0,0,0,.4.1.9.2,1.3ZM132.8,236.1s0,.1,0,0c0-.4-.1-.8-.3-1,0,0,0-.1,0,0,.2.2.4.6.4,1.1h0Z"/>
      <path class="st15" d="M125.6,236.6h0c.6-2.8-.7-4.8-1.6-6.7-.8-1.6-1.4-3.3-1.8-5.2,0,2.2,0,4.3.7,6.1.7,2.2,1.8,3.9,2.7,5.8h0ZM124.3,232.9s0,.1,0,0c-.2-.3-.3-.7-.4-1,0,0,0-.1,0,0,.2.3.3.7.5,1h0ZM123.8,232.6h0c0-.3-.2-.6-.3-.9h0c0,.3.2.6.3.9Z"/>
      <path d="M132.6,236.9h0c0-.4-.1-.9-.2-1.3h0c0,.4.1.9.2,1.3Z"/>
      <path d="M132.7,236.1h0c0-.5-.1-.8-.4-1.1h0c.2.2.3.6.3,1h0Z"/>
      <path d="M122.2,235.3s0,0,0,0v-.2h0q0-.1,0-.1c-.7-2.1-1.5-4.4-2.6-5.9-1.2-1.7-2.7-2.6-3.8-4.3,0-.1-.2,0-.2.2.7,5.5,3.6,8.6,6.7,10.5h0c0,.1,0-.2,0-.2ZM119.1,228.8c1.2,1.5,2,3.8,2.8,5.8-2.7-1.9-5.4-4.6-6.1-9.5,1,1.4,2.3,2.3,3.3,3.6h0Z"/>
      <path class="st15" d="M129.8,237.8c-.5-2.5-.7-5.2-1.4-7.6-.6-2.3-1.8-3.8-2.7-5.7,0,5.4,1.6,10.3,4.1,13.4h0ZM127,229.8s0,.1,0,0c-.2-.4-.3-.9-.3-1.4,0,0,0-.1,0,0,0,.5,0,1,.3,1.4ZM126.5,229.6s0,.2,0,0c0-.3,0-.7-.2-1,0,0,0-.1,0,0,0,.3,0,.7.2,1Z"/>
      <path class="st15" d="M124.2,233h0c0-.4-.3-.7-.5-1h0c0,.3.3.7.4,1h0Z"/>
      <path d="M120.4,232.4s0,0,0,0c-.2-.6-.4-1.1-.6-1.6,0,0,0,0,0,.1.2.5.5,1,.6,1.6h0Z"/>
      <path class="st15" d="M123.8,232.6h0c0-.3-.2-.6-.3-.9h0c0,.3.2.6.3.9Z"/>
      <path class="st15" d="M121.9,234.7c-.9-2-1.6-4.3-2.8-5.8-1.1-1.3-2.3-2.2-3.3-3.6.7,4.8,3.4,7.6,6.1,9.5h0ZM120.5,232.4s0,.1,0,0c-.2-.6-.4-1.1-.6-1.6,0,0,0-.2,0-.1.3.5.5,1,.6,1.6h0ZM120.3,231.2s0,.2,0,0c0-.3-.2-.6-.4-.9,0,0,0-.2,0-.1.2.3.4.6.4.9h0Z"/>
      <path class="st62" d="M120.2,231.3s0,0,0,0c0-.4-.3-.7-.4-.9h0c.2.4.3.7.4,1h0Z"/>
      <path class="st15" d="M126.9,229.9h0c-.2-.4-.3-.9-.3-1.4h0c0,.5,0,1,.3,1.4Z"/>
      <path class="st15" d="M126.5,229.6h0c0-.3,0-.7-.2-1h0c0,.3,0,.7.2,1Z"/>
    </g>
    <g>
      <path class="st17" d="M139.4,236.1c-.7.3-1.2,1-1.7,1.9-.2.4-.5.9-.8,1-.5.2-.9-.2-1.3-.2-.7,0-1.5.5-1.9,1.5-.4.9-.5,2-.3,2.9.1.5.4.8.6,1.2,1.2.8,2.3,2.1,3.2,3.6-.5-1.4-.9-2.9-1.2-4.5,0-.2.1-.3.2-.2.3.9.6,1.6,1,2.4,0-.8-.1-1.5-.1-2.4s.1-.2.2,0c.2.8.5,1.6.7,2.4,0-.6.2-1.3.3-1.9,0-.1.1-.1.2,0,.2.5.3,1.2.2,1.8.5-1,1.1-2,1.5-3,0-.1.2,0,.2,0,0,.9-.2,1.8-.5,2.6,0-.1.2-.2.3-.4.8-1.2,1.6-2.6,2.2-4h0c0-.4-.3-.7-.3-1.2s0-.5.2-.6h0c-.2-2-1.4-3.2-2.7-2.7l-.2-.2ZM140.5,236.5h0c.2-.1.5,0,.6.3,0,0,0,.1,0,0-.2-.2-.4-.3-.6-.3h0ZM140,236.9v-.2c.2,0,.5.2.7.3h0c-.3.1-.5,0-.7-.2h0ZM134,240s.1,0,0,0c-.2.4-.2.8,0,1.2,0,0,0,.1,0,0-.1-.4,0-.9.1-1.3h-.1ZM133.7,240.8h0c-.1.4-.1.8,0,1.2,0,0,0,.1,0,0v-1.3h0Z"/>
      <path class="st17" d="M140.5,236.4h0c.2.1.4.3.6.4h0c-.2-.2-.4-.4-.6-.4h0Z"/>
      <path class="st17" d="M140,236.8v.2c.2.1.5.2.7.3h0c-.2-.2-.5-.3-.7-.4h0Z"/>
      <path d="M134.1,240.1s0-.1,0,0c-.2.4-.2.9-.1,1.3,0,0,.1,0,0,0-.1-.4,0-.8,0-1.2h.1Z"/>
      <path class="st37" d="M143.7,236.3c-.2,0-.3.5-.3.8v.5h0c.1-.1.3-.3.3-.6s.1-.7,0-.6h0Z"/>
      <path d="M133.7,240.8h0c-.1.4-.2.9,0,1.3h0v-1.2h0Z"/>
      <path class="st37" d="M143.2,237c0-.2-.2-.1-.3,0v.6c0,.2,0,.5.2.7,0-.2.1-.4.2-.6v-.6h0Z"/>
      <path class="st37" d="M142.7,238h-.1s-.1.1-.1.2v.5c0,.3.1.5.3.6,0-.3.2-.5.3-.8,0-.2-.2-.3-.2-.6h-.2Z"/>
      <path class="st37" d="M143.7,237.7c-.1,0-.2.2-.3.3v.5c.2,0,.5,0,.6-.4,0-.3,0-.4-.2-.4h-.1Z"/>
      <path class="st37" d="M143.7,238.7h-.4c0,.2,0,.4-.1.5.2,0,.5,0,.7-.4,0,0-.1,0-.2-.1Z"/>
      <path class="st37" d="M142.3,238.9c-.4.3,0,1,0,1.4,0-.2.2-.5.3-.8h0c-.2-.1-.3-.4-.3-.6h0Z"/>
      <path class="st17" d="M133.7,244.5c-.8-.5-1.9-.7-2.8,0-1,.8-1.3,2.3-1,3.7.2.9.6,1.8.7,2.8,0,1.2-.3,2.6,0,3.8s1.2,1.5,2,1.3c.8-.2,1.6-1,2.3-1.7.2-.3.3-.7.5-1,.4-.9.9-1.8,1.4-2.7-1.1,1.3-2.3,2.1-3.6,2.3v-.3c.8-.6,1.5-1.3,2.3-1.9-.5.3-1.1.4-1.6.3v-.2c.6-.4,1.1-.8,1.7-1.1h-1.5v-.2c.6-.7,1.3-1,1.9-.9-.6-.5-1.2-.8-1.8-.9v-.3c1-.3,2-.3,2.8.4-.8-1.2-1.6-2.3-2.5-3,0,0,0,.2-.1.1,0-.1-.1-.2-.2-.3-.1,0-.2-.1-.3-.2h-.2ZM130.6,245.9c0-.5.3-1,.6-1.1h0c-.3.3-.5.6-.5,1.1h-.1ZM130.9,245.5c.2-.3.4-.6.6-.6h0c-.2.3-.4.4-.6.7h0Z"/>
      <path d="M131.2,244.8c-.3.1-.6.6-.6,1.1h0c0-.5.3-.8.5-1,0,0,0-.2,0-.1h.1Z"/>
      <path class="st37" d="M143.5,239.4h-.4c0,.2,0,.3-.1.5.1.2.3.3.5.2,0,0,.2-.1.2-.3v-.2h0s0-.1-.2-.1h0Z"/>
      <path d="M131.5,244.9c-.2,0-.4.4-.6.6h0c.2-.3.4-.4.6-.6h0c0-.1,0,0,0,0Z"/>
      <path class="st37" d="M142.9,240.1c0,.2-.1.4-.2.6.1.1.3.3.5.2s.2-.3.3-.5c-.2,0-.4-.1-.6-.3Z"/>
      <path class="st17" d="M143.9,239.7v.4s0,.2-.1.2c0,.2,0,.6-.2.8-.3.3-.5,0-.7-.1-.5,1.6-1.1,3.2-1.8,4.6.3-.2.6-.2.8-.2v.2l-1.3,1.3c.4-.3.9-.4,1.3-.2v.2c-.6.4-1.1.8-1.6,1.3.6.2,1.2.2,1.8-.2,0,0,.1.1,0,.2-.5.7-1.1,1.3-1.8,1.5.8.3,1.6.5,2.4.4h.1s.1,0,0,.2c-.7.8-1.7.8-2.4.7h-.2c.8.5,1.5,1,2.3,1.5.7.4,1.5.9,2.3.5.9-.4,1.5-1.8,1.2-3.1-.4-1.4-1.5-2.1-1.2-4.1.2-1.3.8-2.4.7-3.9,0-1.4-.8-2.4-1.7-2.2h0ZM144.7,240.5s0-.2,0-.1c.3.1.5.4.6.8,0,0,0,.1,0,0-.1-.4-.3-.6-.6-.7ZM143.9,252.2s0-.2,0-.1c.2.2.4.2.6.1h0c-.2.2-.4.1-.6,0ZM143.9,252.6h0c.2-.1.4-.1.6-.1h0c-.2.2-.5.3-.7.1h0Z"/>
      <path class="st0" d="M143.1,238.7c-.5,1.7-1.2,3.4-2.1,4.8-.5.9-1.1,1.7-1.7,2.4-.6.7-1.5,1.4-1.9,2.4h0v.5c.6,2.1,3.6-3.9,4-4.9.8-1.7,1.3-3.6,1.8-5.5v.3Z"/>
      <path class="st17" d="M144.7,240.3h0c.2.2.4.5.6.8h0c-.1-.4-.3-.7-.6-.8Z"/>
      <path class="st56" d="M138.5,244.7c0-.2,0-.5-.1-.7-.1.6-.2,1.1-.4,1.7h0c0,.2-.1.3-.2.1-.3-.7-.5-1.4-.7-2.1v2.2c.2.1,0,.3,0,.2-.3-.5-.6-1-.9-1.7.3,1.2.6,2.4,1,3.5.2-.4.4-.8.7-1.1s.8-.8,1.1-1.3c.5-.8.8-1.8,1-2.8-.5,1-1,2-1.6,3h0s-.1,0,0-.1h0c0-.4.1-.7,0-1.1v.2Z"/>
      <path class="st56" d="M137.1,248.6c-.8-.7-1.7-1-2.6-.9.6.2,1.1.5,1.6,1v.2s0,.1,0,0c-.6-.2-1.2,0-1.8.5.5,0,1,0,1.4.1h0v.2c-.5.4-1.1.7-1.6,1.1.6,0,1.2-.2,1.8-.6h0v.2c-.7.7-1.5,1.3-2.3,2,1.3-.4,2.4-1.3,3.5-2.7,0,0,0-.1.1-.2h0v-.5h0v-.5h0Z"/>
      <path class="st56" d="M141.5,245.6c-.3,0-.6.2-.8.4h0c-.3.5-1.4,2.6-2.4,3.5.5.3,1,.7,1.5,1,.9.3,1.9.3,2.7-.2-.9,0-1.8,0-2.6-.5v-.2h0c.6-.2,1.1-.6,1.6-1.2-.5.2-1.1.3-1.6,0h0c.5-.6,1-1.1,1.6-1.5-.4,0-.8,0-1.2.4,0,0-.1-.1,0-.2h0c.4-.6.9-1,1.3-1.5h-.1Z"/>
      <path class="st56" d="M138,249.7h0c-.2.1-.4.2-.5.2-.5,1.3-.8,2.5-.6,3.9.1-.5.3-1,.4-1.4h.1c0,.5,0,1,.1,1.6.2-.5.2-1.2.3-1.7h0v-.2c0-.1,0-.2.1-.1.2.5.4,1.1.6,1.7,0-.7-.1-1.3-.2-2h0v-.2c.6.4,1.1,1,1.4,1.9-.3-1.2-.8-2.2-1.5-3,0,0-.1,0-.2-.1h0v-.6Z"/>
      <path class="st17" d="M139.3,250.6c-.1,0-.3-.1-.4-.2.7.9,1.2,2.2,1.3,3.7,0,.2-.1.3-.2.1-.4-1.3-.9-2-1.6-2.8.2.8.3,1.7.3,2.6s-.1.2-.2.1c-.2-.7-.5-1.4-.7-2.2h0v1.1c0,.4-.1.7-.2,1.1,0,.1-.2.2-.2,0,0-.6-.1-1.1-.1-1.7-.1.5-.2,1-.4,1.6,0,.1-.1.1-.2,0-.2-1-.2-2.4.2-3.5-.5.9-.9,1.7-1.3,2.6-.1.2-.2.4-.3.7h0v.2c-.4.9-.8,1.7-1,2.7-.4,1.6-.1,3,.8,3.5.9.5,1.7-.3,2.5-1,.6-.4,1.1-.6,1.7-.4.8.3,1.5.5,2.3-.6,1.5-2,1-5-.2-6.5-.2-.1-.4-.3-.6-.4-.5-.3-1-.7-1.4-1v.3ZM134.6,258.1s0-.1,0,0c0,.4,0,.7.2,1,0,0,0,.1,0,0-.1-.3-.2-.6-.3-1h.1ZM134.4,258.7h0c0,.4.2.7.4.9,0,0,0,.1,0,0-.2-.2-.4-.5-.4-.9Z"/>
      <path class="st17" d="M144,252h0c.2.3.4.3.6.2,0,0,0-.2,0-.1-.2,0-.4,0-.6-.1Z"/>
      <path class="st17" d="M143.9,252.5h0c.2.2.4.1.7.1h0c-.2-.1-.4,0-.6-.1h0Z"/>
      <path class="st17" d="M134.7,258h0c0,.4.1.7.3,1h0c-.1-.3-.2-.6-.2-1h-.1Z"/>
      <path class="st17" d="M134.5,258.6h0c0,.4.2.7.4.9h0c-.2-.2-.3-.5-.4-.9Z"/>
      <path class="st17" d="M136,257.3c-.2.3-.3.7-.2,1h0c0-.3,0-.7.2-.9,0,0,0-.2,0,0h0Z"/>
      <path class="st17" d="M140.7,257.4c0,.1.1,0,.1,0,0-.5,0-1-.1-1.4h0c0,.5.1.9.1,1.4h-.1Z"/>
    </g>
    <g>
      <path class="st17" d="M136,241.6c-.2,1.7-1.5,2.2-2.3,1.9-1.6-.5-2.9-2.5-4.2-4h0v-.2h.1c.7-.2,1.4-.1,2,.3,0,0,.1-.1,0-.2-.6-.5-1.3-.6-2.1-.3h0c.9-.7,1.8-1,2.8-.8,0,0,.1-.2,0-.2-.9-.3-2,0-2.9.8h0c.5-.8.9-1.5,1.3-2.3.4-.6.9-1.1,1.3-1.6,0,.1-.1.3-.2.4h0c.1-.4.4-.6.6-.8h0c.2-.2.3-.3.5-.4.8-.5,1.9-.8,2.5,0,.3.4.5,1.1.4,1.8-.2,1-.8,1.6-1.3,2.1,0,0-.1.2,0,.3.6.7,1.5,1.6,1.3,3.1h.2ZM135.4,242.6c.2-.3.4-.7.4-1.1h0c0,.4-.2.7-.4,1.1,0,0,0,.1,0,0ZM135.3,241.9h0v-.9h0v.8h0ZM133,234.9h0c-.2-.1-.4,0-.6.4,0,0,0,.1,0,0,.1-.2.3-.4.5-.4h.1Z"/>
      <path class="st17" d="M133.1,247.1c0,.8-.4,2-1,2.1-.5.1-.9-.4-1.3-.8,0,0-.2,0-.2.2.1,1.2-.7,2.4-1.5,2.3-.9,0-1.4-1.4-1.4-2.7-.2-2.5.5-5.5,1.2-7.9h0c0,1.2,0,2.4.5,3.3,0,0,.1,0,0-.1-.4-.9-.6-2-.5-3.2h0c.2.7.6,1.3,1,1.7,0,0,.1,0,0-.1-.4-.5-.7-1-1-1.7h0v-.2h0c.8,1,1.7,2.1,2.7,3,.2.1.3.3.5.4h0c.1.6.4,1,.5,1.6.1.7.2,1.5,0,2.3l.5-.2ZM132.5,244.7h0c-.1-.4-.3-.6-.5-.8h0c.2.3.4.5.5.9h0ZM132.3,243.9h0c0-.3-.3-.5-.5-.5h0c.2,0,.3.2.4.5h.1ZM129.4,249.9h0c-.2-.1-.3-.1-.4-.3h0c.1.2.3.2.4.2h0ZM129,250.2h0c-.2-.1-.4-.1-.5-.5h0c.1.3.3.5.6.4h-.1Z"/>
      <path class="st17" d="M133,229.9c.7.9,0,2.6-.6,3.5-1,1.8-2,3.5-3,5.3h0c.4-1.4.8-2.7,1.3-4,0,0,0-.2,0,0-.5,1.2-1,2.5-1.3,3.9,0-1.2,0-2.4.3-3.6q0-.1-.1,0c-.3,1.1-.4,2.2-.3,3.2-.1-1-.3-1.9-.6-2.8h0c-.3-1.4-.3-3.3.1-4.9.2-1,.8-2.6,1.5-1.9.4.4.6,1.4.8,2h.1c.6-.7,1.4-1.2,1.9-.5v-.2ZM133,231.4v-.9h0c0,.2.1.5,0,.7h0v.2ZM129,230.9h0c0-.4.2-.8.3-1.2,0,0,0-.1,0,0-.1.4-.2.8-.3,1.2ZM128.8,231.4h0c0-.4,0-.8.1-1.2h0c-.1.4-.2.8-.1,1.2Z"/>
      <path class="st17" d="M127.6,246.5h0c-.4,1.3-.9,3-1.9,2.4-.8-.5-1.3-2.2-.8-3.6v-.2c-.4,0-1,.1-1.2-.6,0-.5,0-1.1.2-1.6.3-.8.7-1.4,1.2-1.9.8-.5,1.7-.9,2.5-.9s.9.2,1.3.1c-1,.4-2,1.4-2.7,2.7,0,0,0,.2,0,0,.8-1.3,1.7-2.2,2.7-2.6h0c-.6.8-1.1,1.7-1.3,2.8,0,.1,0,.2,0,0,.4-1,.7-1.8,1.3-2.6h0c-.5,1.7-.8,3.4-1,5.1v.7l-.3.2ZM124.4,243s0-.1,0,0c-.2.1-.3.5-.4.8h0c0-.3,0-.6.3-.7h0ZM123.7,244.1h0c0-.4,0-.7.3-1,0,0,0-.1,0,0-.2.3-.3.7-.3,1.1h0Z"/>
      <path class="st0" d="M129.3,239.9h0c-.7.5-1.5,0-2.2,0-.7.1-1.5.5-2.2.9-.8.5-1.5,1.2-2.2,2-.4.4-.8.8-1.1,1.3h0c-.2.2-.4.5-.6.7,1-1.8,2.2-3.4,3.5-4.6.7-.6,1.5-1.1,2.3-1.4.4-.2,1.8-.7,2.3-.3v.2h.1s0,.2.1.3h0v.5h0c0,.1,0,.4,0,.4ZM129.1,239.3h0c-.1-.2-.3-.4-.5-.4h0c.2.1.3.3.5.5h0Z"/>
      <path class="st17" d="M128.9,238.3h-.7c-1,.1-2,.5-2.9,1.1,0,0-.2.2-.4.3h0c-.7-.2-1.8-.5-1.7-2.1.2-1.5,1.2-2.1,2-2.4,0,0,0-.2,0-.3-.3-.9-.8-3.1.4-3.4.8-.2,1.5.8,1.9,1.7.7,1.5,1,3.2,1.3,4.9-.6-1.2-1.4-2.4-2.2-3.2h0c.7,1.1,1.5,2.2,2.2,3.3-.7-.5-1.5-.9-2.3-1.1,0,0,0,.2,0,.2.8.3,1.5.7,2.3,1.1h0ZM127.7,234.3h0c0-.3-.3-.6-.5-.7h0c.2.2.4.4.5.7ZM127.7,233.9h0c0-.4-.3-.6-.5-.7h0c.2.1.4.4.5.7Z"/>
      <path class="st37" d="M122,244.7c0,.2-.2.5-.3.3v-.6c0-.1.2-.2.3-.4,0,.2.2.4,0,.7h0Z"/>
      <path class="st37" d="M121.4,244.6c0,.3.2.7,0,1.1,0,.2-.3.3-.4.1v-.9l.3-.3h0Z"/>
      <path class="st37" d="M121,245.8c0,.2,0,.4-.2.5-.2.2-.2-.3-.2-.5v-.4h0l.3-.3v.7h0Z"/>
      <path class="st37" d="M121.5,243.5h0c0,.2-.3.4-.4.7h0c0-.2-.2-.3-.4-.3,0,0,0-.2,0-.3,0-.2.2-.4.4-.3.2,0,.3.2.4.4h0v-.2Z"/>
      <path class="st37" d="M121.1,244.2h0c0,.2-.2.5-.4.7h0c0-.2-.3-.3-.5-.4h0q0-.3,0-.4c.2-.1.4,0,.6,0,0,0,0,.1.2.2h0Z"/>
      <path class="st37" d="M120.6,245.5c0,.3,0,.6-.3.8,0,.1-.2.3-.3.4-.2.2-.4,0-.3-.3,0-.5.5-.8.8-1h0c0,.1.1.1.1.1Z"/>
      <path class="st37" d="M120.5,244.9h0v.3h-.2c-.2,0-.5.2-.6,0-.2-.3.2-.6.4-.6h0c0,.2.3.2.4.2h-.1Z"/>
    </g>
    <g>
      <path class="st17" d="M161.1,232.9c-.6,2.5.9,3.8,2.2,3.9,2.5.2,5.2-1.8,7.7-3.2h.1v-.3h-.2c-.9-.7-1.8-1-2.9-.7-.1,0,0-.2,0-.3,1.1-.4,2.1,0,2.9.8h0c-.9-1.5-2-2.4-3.4-2.6v-.3c1.4,0,2.7,1.1,3.5,2.8h0c-.2-1.3-.5-2.6-.7-3.9-.3-1.1-.6-2-1-2.9v.7s0,.1,0,0c0-.6-.2-1.1-.5-1.4v-.2c-.2-.3-.3-.5-.5-.8-.9-1.1-2.1-2.2-3.4-1.5-.6.3-1.3,1.2-1.5,2.3-.2,1.4.3,2.7.8,3.6v.4c-1.2.6-2.8,1.3-3.3,3.5h.2ZM161.5,234.7c-.1-.5-.2-1.1,0-1.7,0,0,.1,0,0,0v1.7s0,.1,0,0ZM161.9,233.8h0c0-.4.2-.8.4-1.2h0c-.2.3-.3.7-.3,1.1h0ZM168.5,225.4s0-.2,0-.1c.3.2.5.5.6,1,0,0,0,.1,0,0,0-.4-.3-.7-.5-.9h-.1Z"/>
      <path class="st17" d="M162.4,242.1c-.3,1.2-.5,2.9.3,3.5.6.5,1.5,0,2.1-.4.1,0,.2.1.2.3-.8,1.6-.2,3.7.9,4,1.3.4,2.5-1.2,3.3-2.9,1.5-3.3,2-7.8,2.2-11.5h0c-.5,1.6-1.3,3.1-2.3,4.1,0,0-.2-.1,0-.2,1-1,1.7-2.4,2.3-4.1h0c-.6.9-1.4,1.5-2.2,1.8,0,0-.1-.2,0-.2.8-.4,1.5-.9,2.2-1.7h0v-.4h0v-.3h0c-1.7,1.1-3.4,2.1-5.2,2.7-.3.1-.6.2-.9.3h0c-.4.7-1,1.2-1.4,1.9-.5.9-1,2-1.2,3.1h-.3ZM164.4,239.1s-.1,0,0-.1c.3-.4.7-.7,1.1-.8v.2c-.4.1-.7.4-1,.8h-.1ZM165,238.1h0c.3-.3.6-.5.9-.4h0c-.3,0-.6.2-.8.4h0ZM166.1,248s0-.2,0-.1h.7c-.2.2-.5.3-.7.1ZM166.5,248.6s0-.2,0-.1c.3.2.6.1.9-.2,0,0,.1,0,0,.1-.3.4-.7.5-1,.2h.1Z"/>
      <path class="st17" d="M171,218.6c-1.4.8-1.1,3.6-.9,5.1.5,3,1.1,6,1.6,9h.1c.2-2.1.2-4.1.2-6.1s.2-.2.2,0c.1,1.9,0,4-.2,6,.6-1.6,1-3.3,1.3-5.1,0-.2.2-.1.2,0-.2,1.6-.6,3.2-1.1,4.6.6-1.3,1.4-2.4,2.2-3.5h0c1.1-1.8,2-4.4,2.2-6.7.2-1.4.2-4-1.1-3.4-.7.3-1.5,1.5-2.1,2.2h-.2c-.5-1.2-1.3-2.4-2.4-1.8v-.3ZM170.2,220.6c0-.5.2-.9.5-1.1,0,0,.1,0,0,.2-.2.2-.4.6-.4,1,0,0,0,.1,0,0h-.1ZM176,222.2c0,.1-.1,0-.1,0,0-.6.1-1.2.2-1.8,0-.1.1-.1.1,0,0,.6,0,1.2-.2,1.8ZM176,223h0c.2-.6.3-1.1.4-1.7h0c0,.6-.2,1.2-.4,1.8h0Z"/>
      <path class="st17" d="M170.2,244.3h0c0,2-.2,4.7,1.4,4.5,1.4-.2,2.9-2.3,2.9-4.5s.1-.3.2-.2c.6.3,1.3.7,1.9,0,.4-.5.5-1.6.4-2.3,0-1.2-.2-2.4-.7-3.2-.8-1.2-1.9-2.1-3-2.6-.6-.2-1.3-.2-1.8-.5,1.2,1.1,2.1,3,2.4,5.2,0,.2-.1.2-.2,0-.4-2.2-1.2-3.9-2.4-5.1v.2s0-.1.1,0c.4,1.3.6,2.8.5,4.4,0,.2-.2.2-.2,0,0-1.5-.1-2.9-.4-4.3h0c-.2,2.5-.5,5.1-1.1,7.6,0,.3-.2.7-.2,1l.2-.2ZM176.4,241.4s0-.2,0-.1c.2.3.2.8,0,1.3h0c.1-.4,0-.8,0-1.1h0ZM176.7,243.3c0,.1-.1,0,0,0,.2-.5.2-1,.1-1.5,0,0,0-.1,0,0,.1.5,0,1.1-.1,1.7v-.2Z"/>
      <path class="st0" d="M171.2,234.4h0c.7,1.1,2.1.8,3,1.4,1,.6,1.8,1.5,2.5,2.5.8,1.1,1.4,2.5,2,3.9.3.8.6,1.6.9,2.4h0c.2.5.3,1,.4,1.4-.5-3.1-1.3-5.9-2.6-8.2-.7-1.2-1.5-2.3-2.4-3.2s-2.1-1.9-3.1-1.7c0,.1-.1.2-.2.3,0,.1-.2,0-.1-.1h0c-.1,0-.2.2-.3.4h0v.2h0c0,.2-.1.4-.1.6h0q0,.1,0,.1ZM171.7,233.7v-.2c.3-.3.6-.3.9-.3v.2c-.3,0-.5,0-.8.2h0Z"/>
      <path class="st17" d="M172.5,232.4h-.1c.4.1.7.1,1,.3,1.3.7,2.4,1.8,3.4,3.2.1.2.3.4.4.5h0c1.1,0,2.7.4,3.3-1.9.5-2.1-.6-3.5-1.5-4.4v-.4c.8-1,2.6-3.7,1.1-4.9-1-.8-2.4.3-3.4,1.3-1.6,1.6-2.9,3.8-4.2,6,1.4-1.3,3-2.5,4.6-3.2,0,0,.1.1,0,.2-1.5,1-3,2-4.5,3.1,1.2-.3,2.5-.4,3.7-.2v.3c-1.2,0-2.4,0-3.7.2h0c0-.1-.1-.1-.1-.1ZM176,227.7h0c.3-.4.7-.6,1-.7h0c-.4.1-.7.4-1,.8h0ZM176.2,227.1s-.1,0,0,0c.3-.4.7-.7,1-.7h0c-.3.1-.7.4-1,.8h0Z"/>
      <path class="st37" d="M178.8,245c0,.3,0,.8.3.7,0-.2.2-.4.3-.5,0-.1,0-.2.1-.3,0-.2-.2-.4-.2-.7-.2.2-.4.5-.5.8h0Z"/>
      <path class="st37" d="M179.6,245.2c-.3.4-.7.9-.6,1.5,0,.4.3.6.5.4,0-.3.2-.7.3-1v-.4c0-.2-.1-.4-.2-.5Z"/>
      <path class="st37" d="M179.6,247.2v.7c.2.4.4-.2.5-.6v-.6h0c0-.2-.1-.3-.2-.5,0,0,0,.2-.1.3,0,.3-.1.5-.2.7h0Z"/>
      <path class="st37" d="M180.1,243.6h0c0,.4.1.7.2,1.1h0c.2-.2.5-.2.7-.2s.2-.2.3-.4c0-.4-.1-.6-.3-.7-.2,0-.5.1-.7.3h-.2Z"/>
      <path class="st37" d="M180.2,244.9h0c0,.4.1.8.1,1.2h0s0-.1,0,0h0c.3-.2.6-.3.9-.2h.1c.2-.3.1-.4,0-.6-.3-.3-.5-.4-.8-.3-.1,0-.2,0-.3.1h0v-.2Z"/>
      <path class="st37" d="M180.4,247v1.2c0,.2.1.5.2.7.2.3.5.2.6-.3,0-.8-.3-1.4-.7-1.8h0c0,.1-.1.2-.1.2Z"/>
      <path class="st37" d="M180.7,246.2s-.2,0-.3.1v.3l.2.2c.3.2.6.5.9.3.5-.3,0-.9-.2-1h0c-.2.2-.5.2-.7,0h.1Z"/>
    </g>
    <g>
      <path class="st17" d="M195.9,185.8c.6-.2,1.2-.5,1.8-.9-.5,0-.9-.2-1.4-.4v-.3c.6-.2,1.1-.4,1.7-.5-.3-.2-.6-.6-.9-.9v-.2c.3-.2.8-.1,1.1.1,0-.1,0-.3-.1-.4-1.5-.3-3.1-.4-4.6-.7,0,.2,0,.4.2.7.1.4.2.9.1,1.4-.1.7-.6,1.2-.8,1.8-.4,1-.5,2.2-.2,3s.8,1.2,1.5,1c.3,0,.6-.3,1-.5,1-1.6,2.3-2.7,3.6-3.6-1,.4-2.1.6-3.1.7-.1,0-.1-.2,0-.3h0ZM193.1,187.9s0-.1,0,0c.1.3.3.5.6.4h0c-.3.1-.5.1-.7-.3h0ZM194,189c-.3,0-.5,0-.7-.4,0,0,0-.1,0,0,.2.2.4.4.6.4h0Z"/>
      <path d="M193.2,187.9h0c.1.4.4.5.7.4h0c-.3-.1-.5-.1-.6-.5h0Z"/>
      <path d="M193.4,188.5h0c.2.3.4.4.7.4h0c-.2,0-.5-.1-.6-.4h0Z"/>
      <path d="M194.3,193c0,.5,0,.9.3,1.1h0c-.2-.3-.3-.7-.3-1.1h0Z"/>
      <path d="M194.5,192.6v1h0v-.9h0Z"/>
      <path class="st0" d="M199.1,182.4c0,.9,0,2.1.4,2.7h0s.1,0,.1.1c0,0,.1.1.2.1.7-.2.6-1.5.4-2.9-.4,0-.7-.1-1.1-.2v.2Z"/>
      <path class="st19" d="M198.9,182.4h-.4c0,.2.1.5.2.7h0s0,.2,0,0h0c-.2-.1-.3-.3-.6-.4h-.4c.3.3.5.6.7.9h0c.1,0,.1.2,0,.3-.5.2-1,.3-1.5.5.4.2.7.3,1.1.4,0,0,.1,0,.2-.1,0,0,.1.1,0,.2-.4.4-.9.6-1.4.9.8,0,1.6-.3,2.4-.6-.1-.3-.2-.8-.2-1.2v-1.6h-.1Z"/>
      <g>
        <path class="st17" d="M195.5,189.5c0-.1.2-.3.3-.4,0,0,.2-.1.3-.2v-.2c.9-1.2,1.9-2,3-2.9-.8,1-1.3,2.5-1.6,3.9,0,.1,0,.2.1,0,.4-.9.9-1.7,1.4-2.4-.4.9-.6,1.9-.5,2.9h.1c.2-.7.5-1.4.8-2.1-.1.9-.2,1.8-.3,2.6,0,.1,0,.2.1,0,.3-.7.5-1.5.7-2.3v3.6c0,.1.1.2.2,0,.5-1.8.7-3.7.5-5.5.2.9.5,1.7.8,2.5.1.3.2.6.3.9,0,1.2,0,2.4-.2,3.6-.3,1.2-.9,2.3-1.7,2.5s-1.4-.6-2.1-.8c-.6-.2-1.3.2-1.9.3-.9.1-1.6-.7-1.5-2.2,0-1.5.7-2.8,1.4-3.9h-.2ZM194.6,192.6h0v1h0v-.9h0ZM194.7,194.1h0c-.2-.3-.3-.7-.3-1.1h0c0,.5,0,.9.3,1.1Z"/>
        <path class="st19" d="M199.9,191.4v-3.7h0c0,.9-.3,1.8-.6,2.7,0-.8.2-1.7.2-2.5h-.1c-.3.6-.5,1.3-.8,2,0-1,.2-1.9.6-2.7h0c0-.1,0-.2,0-.1-.5.6-1,1.2-1.4,2,.4-1.4,1-2.5,1.8-3.5,0,0,.1.1.2.1h.2v.2c.2,1.9.1,3.7-.3,5.6h.2Z"/>
      </g>
      <path class="st17" d="M201.4,182.9c-.3,0-.7-.2-1-.3,0,.6.1,1.2.1,1.5.3-.4.6-.8.9-1.3h0Z"/>
      <path class="st19" d="M202.8,183.1s-.1,0-.2-.1c-.1,0-.2,0-.3.2.1,0,.2,0,.3.1,0,0,.1,0,.2-.1h0Z"/>
      <path class="st19" d="M202.9,184.7c-.4-.1-.8-.1-1.2-.2h0s-.1,0,0-.1c.3-.5.7-.8,1.1-1.1-.1,0-.2,0-.3-.1-.5.2-1,.6-1.4,1.1l-.2.2h0c0,.4,0,.7-.2.9.5,1,1,1.7,1.8,1.7-.2-.3-.4-.6-.6-.9h0v-.2c.3,0,.6.1.9.2-.2-.4-.6-.6-.8-.8h-.1v-.2c.4-.2.8-.3,1.2-.4h-.2Z"/>
      <path class="st17" d="M203,183.3h-.1c.2,0,.3.1.5.2-.1,0-.2-.2-.3-.3h0Z"/>
      <path class="st17" d="M203.3,183.5c-.2,0-.3-.1-.5-.2-.4.3-.7.6-1.1,1,.6-.1,1.1,0,1.6.2v.3c-.5.2-1,.4-1.5.5h0c.2,0,.4.2.6.4.2.2.3.4.5.5,0,0,0,.3,0,.2-.3,0-.7-.1-1-.2.2.3.5.6.7.9v.2c-.7,0-1.4-.3-1.9-1,.2.8.5,1.7.8,2.5,0,.2.1.4.2.6h0v.2c.3.7.6,1.5,1,2,.7.9,1.6.8,2.4-.3.7-1.1.7-2.5.7-3.8s.1-1.1.3-1.6c-.8-.9-1.7-1.6-2.7-2.3h-.1ZM203.4,191.3h0c.2-.1.4-.1.7-.2h0c-.2.2-.5.3-.7.2ZM204.4,191.3c-.2.2-.5.4-.7.3h0c.2,0,.5-.1.7-.3h0Z"/>
    </g>
  </g>
  <path class="st31" d="M155.3,177.4c0-13.8,13.3-17.8,8.8-20.2-4.3-2.2-9.5,9.1-18.9,7.6-13.5-2.2-24.8-27.4-30.1-23.8-3.5,2.4,15.6,23.9,12.3,23.9-8.4,0-7,4.4-8.2,4.6-2,1.3-3.8,2.8-3.6,5.6-.2.7-3,2.9-.4,5.8,3.1,3.3,5,6.1,9.3,8.3,2.4,1.2,11.8,11.2,14.7,12.4,3.2,1.4,5.9,11,9.1,24.1,7.7-.5,14.1.2,21.8-.6-8.3-20.5-14.9-41.9-14.9-47.9v.2Z"/>
  <path class="st26" d="M213.3,296.9c6.9,2.9,13.1-2.6,15.7-9.4,2.7-7.1,1.3-11.8,1.9-14.2-7.2-3.3-9.5-13.3-19.2-15.8-5.7-2.7-16.1-6.2-21.9-8.9-.7,1.1-1.1,3.7-2,6-1.1,2.8-.6,6.8.4,7.9,7.8,8.8,29.5,29.5,25,34.3h.1Z"/>
  <path class="st66" d="M213.3,281.4c-2.4-5.8-11-19-17.2-18.1-1.3.2-8.1,1.5-8.1,1.5-7.8-21.2-34.2-76.9-34.2-87.4s13.3-17.8,8.8-20.2c-4.3-2.2-9.5,9.1-18.9,7.6-13.5-2.2-24.8-27.4-30.1-23.8-3.5,2.4,15.6,23.9,12.3,23.9-8.4,0-7,4.4-8.2,4.6-2,1.3-3.8,2.8-3.6,5.6-.2.7-3,2.9-.4,5.8,3.1,3.3,5,6.1,9.3,8.3,2.4,1.2,14,10.1,16.1,12.4,6.7,7.7,13.5,58.4,25.5,89.4,4.8,12.5,14.1,22.4,19.5,22.2,3,0,28-13.3,29.9-15.3,0,0,.9-12.8-.7-16.6h0Z"/>
  <g class="st59">
    <path class="st58" d="M187.4,262.5c5.2,5.3,11.2,11.9,9.7,20h0c-.5-3.8-1.2-7.4-3-10.8-1.7-3.3-4.6-6.3-6.6-9.2h0Z"/>
  </g>
  <path class="st31" d="M117.9,170.3c4.3,1.5,8.3,3.5,11.2,6.1l-.4-.2c-3.2-2.1-4.9-2.9-9.8-5.3"/>
  <path class="st31" d="M114,174.8c4.3,1.6,8.3,3.5,11.2,6.2l-.4-.2c-3.2-2.1-4.9-2.9-9.8-5.4"/>
  <path class="st31" d="M210.4,280.1c-3.3-7.8-11-16.9-14.4-3.2,9.5,11.3,14.4,23.8,12.2,24.9,0,0,12.2,1.6,2.2-21.7h0Z"/>
  <path class="st54" d="M212.9,299.4c7.1,2.9,13.3-2.5,15.9-9.3,2.7-7.1.4-13.1.9-15.5-7.3-3.4-11.4-11.3-18.7-14.7-5.8-2.7-16.4-6.3-22.2-9.1-.7,1.1-1.1,3.7-2,6-1.1,2.8-.5,6.9.4,7.9,7.9,8.9,30.1,29.8,25.7,34.6h0Z"/>
  <path d="M30.8,337.3c-.3.2-.6.3-1,.3-.4,0-.6-.2-.9-.5-.2-.2-.3-.4-.5-.6-.1-.2-.3-.4-.5-.6-.7-1.4-1.1-2.9-1.2-4.4s0-3,.2-4.5.5-2.9.7-4.3c.2-1.3.4-2.6.4-3.7s-.2-2.1-.7-2.9c-.5-.9-1.1-1.4-1.9-1.7s-1.6-.3-2.5-.1-1.7.6-2.5,1.1c-1.5,1.1-2.3,2.2-2.7,3.5-.3,1.3-.2,2.7.4,4.4.1.5.2,1,0,1.4,0,.4-.4.8-.8,1.1l-6.6,4.8c-.4.3-.8.4-1.2.3-.5,0-.8-.4-1.2-.8-1-1.5-1.7-3.2-2-5-.3-1.9-.3-3.8.2-5.9s1.4-4.2,2.8-6.2,3.4-4,5.9-5.8c2.7-2,5.2-3.3,7.5-4,2.3-.7,4.3-.8,6.1-.5s3.3.9,4.6,1.8c1.3.9,2.3,1.8,2.9,2.9.9,1.3,1.5,2.7,1.8,4.1s.4,2.8.3,4.2-.2,2.8-.4,4.2-.3,2.7-.4,4c0,1.3,0,2.5.4,3.7.1.3.2.6.3.9,0,.3.2.6.4.9,0,.7.1,1.2,0,1.6,0,.4-.3.7-.7,1.1l-7.6,5.5ZM39.3,348.8c-.4.3-.8.4-1.3.3s-.8-.3-1.1-.7l-4.5-6.2c-.3-.4-.4-.8-.3-1.2,0-.5.3-.8.7-1.1l7-5.1c.4-.3.8-.4,1.3-.3.5,0,.8.3,1.1.7l4.5,6.2c.3.4.4.8.3,1.3,0,.5-.3.8-.7,1.1l-7,5.1Z"/>
  <path d="M234.7,61.6c-.5-.1-.9-.4-1.2-.8-.3-.4-.4-.9-.3-1.4,0-.4.2-.7.2-1.1,0-.3.2-.7.2-1.1.8-2.1,2-4,3.5-5.5,1.5-1.6,3.1-2.9,4.9-4.1,1.8-1.2,3.5-2.3,5.2-3.3,1.7-1,3.1-2.1,4.4-3.2,1.3-1.1,2.1-2.3,2.4-3.6.4-1.4.4-2.6,0-3.7-.5-1.1-1.2-2-2.3-2.8-1.1-.8-2.2-1.3-3.6-1.6-2.5-.5-4.6-.4-6.3.5s-3.1,2.4-4.2,4.6c-.4.6-.9,1.1-1.4,1.4-.5.3-1.2.4-2,.2l-11.5-2.5c-.6-.1-1.1-.5-1.5-1.1-.3-.6-.4-1.2-.3-2,.6-2.5,1.7-4.8,3.4-7,1.7-2.1,3.8-4,6.5-5.5s5.8-2.5,9.4-2.9c3.6-.4,7.5-.2,11.9.7,4.7,1,8.5,2.4,11.4,4.2,2.9,1.8,5.1,3.8,6.5,6,1.4,2.2,2.3,4.4,2.6,6.6s.2,4.2-.3,5.9c-.5,2.2-1.4,4.2-2.6,5.8-1.2,1.6-2.6,3.1-4.1,4.4-1.6,1.3-3.2,2.5-4.8,3.6s-3.2,2.3-4.6,3.4-2.6,2.5-3.5,3.9c-.2.4-.4.8-.7,1.2-.2.4-.4.8-.6,1.2-.6.7-1.2,1.2-1.6,1.6-.5.3-1.1.4-1.8.2l-13.2-2.8ZM230.6,81.6c-.7-.1-1.2-.5-1.6-1-.3-.5-.4-1.1-.3-1.8l2.3-10.8c.1-.6.5-1.1,1-1.5.5-.4,1.2-.5,1.8-.3l12.1,2.6c.7.1,1.2.5,1.6,1.1.4.6.5,1.2.4,1.8l-2.3,10.8c-.1.7-.5,1.2-1.1,1.5-.6.3-1.2.4-1.9.3l-12.1-2.6Z"/>
</svg>