<svg width="258" height="211" xmlns="http://www.w3.org/2000/svg" xmlns:xlink="http://www.w3.org/1999/xlink" xml:space="preserve" overflow="hidden"><defs><clipPath id="clip0"><rect x="-7" y="936" width="258" height="211"/></clipPath></defs><g clip-path="url(#clip0)" transform="translate(7 -936)"><path d="M51.6787 154.217C53.1983 150.423 43.1492 148.175 43.3935 144.58 43.8231 138.167 61.3207 137.828 82.278 136.444 118.974 134.015 124.048 127.331 144.96 128.521 164.891 129.656 166.207 137.778 185.12 143.725 216.682 153.652 252.062 144.422 256.3 160.857 258.28 168.54 205.145 174.239 202.328 178.847 200.419 181.972 206.629 184.279 205.941 188.055 204.182 197.71 171.041 199.04 166.632 199.189 139.845 200.107 139.234 200.279 115.636 194.477 102.715 191.302 103.281 190.891 73.0385 195.02 62.397 196.471 54.1208 194.007 42.3261 186.124 23.0648 173.253 1.03565 180.258 0.0452251 174.135-1.77282 162.865 49.3225 160.101 51.6787 154.217Z" fill="#C1C286" transform="matrix(1 0 0 1.05467 -7 936.208)"/><path d="M53.3249 151.762C54.8444 147.967 44.7954 145.72 45.0396 142.124 45.4693 135.711 62.9669 135.372 83.9242 133.988 120.62 131.56 125.694 124.875 146.606 126.065 166.537 127.2 167.853 135.322 186.766 141.27 218.329 151.196 253.708 141.966 257.946 158.401 259.927 166.085 206.792 171.783 203.974 176.391 202.066 179.516 208.275 181.823 207.588 185.599 205.828 195.255 172.687 196.584 168.278 196.734 141.491 197.652 140.881 197.824 117.282 192.021 104.361 188.846 104.927 188.435 74.6847 192.564 64.0432 194.016 55.767 191.551 43.9723 183.668 24.7065 170.797 2.67732 177.802 1.6869 171.674-0.131153 160.404 50.9641 157.641 53.3204 151.757Z" fill="#D5D6A2" transform="matrix(1 0 0 1.05467 -7 936.208)"/><path d="M179.937 119.865C179.078 113.189 177.798 68.7602 179.453 53.0128 179.544 52.1309 180.855 50.9325 181.633 50.2134 182.61 49.3089 183.171 47.4909 183.229 46.6904 183.116 46.1477 182.899 45.2296 182.393 44.1985 181.809 43.0136 181.05 42.1045 180.145 41.0734 176.414 36.8042 177.495 20.9935 176.853 21.5362L85.29 21.5362C84.6432 20.9935 85.7287 36.8042 81.9976 41.0734 81.0976 42.1045 80.3333 43.0136 79.7499 44.1985 79.2434 45.2296 79.0218 46.1477 78.9132 46.6904 78.972 47.4909 79.5328 49.3089 80.5097 50.2134 81.2876 50.9325 82.6669 52.1264 82.6895 53.0128 83.092 68.7647 82.4634 113.194 82.2056 119.865 82.2056 119.937 80.9755 121.077 79.9986 122.61 79.6414 123.17 79.0715 125.549 78.9132 125.92 79.0534 126.49 79.8403 129.099 80.9077 130.212 81.7986 131.139 83.2955 131.795 83.5533 133.034 84.4895 137.538 83.888 151.943 84.5302 151.943L177.617 151.943C178.264 151.943 177.658 137.538 178.594 133.034 178.852 131.795 180.349 131.139 181.239 130.212 182.307 129.099 183.089 126.49 183.234 125.92 183.076 125.545 182.506 123.17 182.149 122.61 181.172 121.072 179.951 119.932 179.942 119.865Z" fill="#80849E" fill-rule="evenodd" transform="matrix(1 0 0 1.05467 -7 936.208)"/><path d="M177.612 41.0734 84.5257 41.0734C81.4232 41.0734 78.9087 43.5879 78.9087 46.6904 78.9087 49.7928 81.4232 52.3073 84.5257 52.3073L177.612 52.3073C180.715 52.3073 183.229 49.7928 183.229 46.6904 183.229 43.5879 180.715 41.0734 177.612 41.0734Z" fill="#9497AC" fill-rule="evenodd" transform="matrix(1 0 0 1.05467 -7 936.208)"/><path d="M177.612 120.308 84.5257 120.308C81.4232 120.308 78.9087 122.822 78.9087 125.925 78.9087 129.027 81.4232 131.542 84.5257 131.542L177.612 131.542C180.715 131.542 183.229 129.027 183.229 125.925 183.229 122.822 180.715 120.308 177.612 120.308Z" fill="#9497AC" fill-rule="evenodd" transform="matrix(1 0 0 1.05467 -7 936.208)"/><path d="M177.612 151.947 84.5257 151.947C81.4232 151.947 78.9087 154.462 78.9087 157.564 78.9087 160.667 81.4232 163.181 84.5257 163.181L177.612 163.181C180.715 163.181 183.229 160.667 183.229 157.564 183.229 154.462 180.715 151.947 177.612 151.947Z" fill="#C4C5CD" fill-rule="evenodd" transform="matrix(1 0 0 1.05467 -7 936.208)"/><path d="M177.64 10.3565 84.4985 10.3565C81.4097 10.3565 78.9087 12.8575 78.9087 15.9464 78.9087 19.0352 81.4097 21.5362 84.4985 21.5362L177.64 21.5362C180.728 21.5362 183.229 19.0352 183.229 15.9464 183.229 12.8575 180.728 10.3565 177.64 10.3565Z" fill="#C4C5CD" fill-rule="evenodd" transform="matrix(1 0 0 1.05467 -7 936.208)"/><path d="M181.28 42.4437C180.932 41.987 180.557 41.5438 180.145 41.0734 176.536 36.9444 177.432 22.0156 176.911 21.5362L177.64 21.5362C180.728 21.5362 183.229 19.0352 183.229 15.9464 183.229 12.8575 180.728 10.3565 177.64 10.3565L167.55 10.3565C170.639 10.3565 173.14 12.8575 173.14 15.9464 173.14 19.0352 170.639 21.5362 167.55 21.5362L166.822 21.5362C167.342 22.0156 166.446 36.9444 170.055 41.0734 170.467 41.5438 170.842 41.987 171.19 42.4437 172.384 43.4749 173.14 44.9944 173.14 46.6904L173.14 46.6904C173.14 48.8024 171.973 50.6385 170.254 51.5973 169.852 52.0948 169.359 52.5787 169.368 53.0128 169.562 68.7647 170.815 113.194 169.852 119.865 169.843 119.932 171.082 121.077 172.059 122.61 172.059 122.614 172.068 122.623 172.068 122.628 172.742 123.555 173.14 124.69 173.14 125.92L173.14 125.92C173.14 127.639 172.366 129.176 171.15 130.203 171.15 130.203 171.15 130.203 171.145 130.208 170.254 131.135 168.757 131.79 168.5 133.03 167.713 136.833 167.848 144.105 167.907 151.961 170.829 152.16 173.135 154.588 173.135 157.56 173.135 160.662 170.621 163.177 167.518 163.177L177.608 163.177C180.71 163.177 183.225 160.662 183.225 157.56 183.225 154.588 180.914 152.16 177.997 151.961 177.934 144.105 177.798 136.833 178.589 133.03 178.847 131.79 180.344 131.135 181.235 130.208 181.235 130.208 181.235 130.208 181.239 130.203 182.456 129.172 183.229 127.639 183.229 125.92L183.229 125.92C183.229 124.69 182.827 123.555 182.158 122.628 182.158 122.623 182.149 122.614 182.149 122.61 181.172 121.072 179.951 119.932 179.942 119.865 179.082 113.189 177.802 68.7602 179.458 53.0128 179.503 52.5787 179.946 52.0948 180.344 51.5973 182.067 50.6385 183.229 48.8024 183.229 46.6904L183.229 46.6904C183.229 44.9899 182.47 43.4703 181.28 42.4437Z" fill="#6A6E8E" fill-opacity="0.76" transform="matrix(1 0 0 1.05467 -7 936.208)"/><path d="M22.9472 141.315C18.9855 132.451 15.7609 121.9 18.5242 112.231 19.6005 108.603 21.8121 105.32 24.6024 102.819 27.126 100.318 30.6626 98.4007 30.744 94.5837 30.8435 87.8859 20.7493 83.7614 18.9991 75.7927 17.4659 69.8727 20.591 63.9076 24.6612 59.774 19.9307 65.9653 17.5835 73.5993 23.0467 80.1434 25.9999 83.9558 30.5721 86.6874 32.4038 91.4089 33.6113 94.534 32.7927 98.1746 30.432 100.513 27.6777 103.308 24.5753 105.302 22.5085 108.563 16.4438 118.046 19.8764 131.261 22.9517 141.319L22.9517 141.319Z" fill="#D5D6A2" transform="matrix(1 0 0 1.05467 -7 936.208)"/><path d="M60.6785 105.298C61.2483 102.982 61.981 100.703 62.9036 98.5002 64.6266 94.1586 67.4306 90.1381 67.6838 85.3759 67.9235 78.357 64.794 71.7044 61.4247 65.6985 58.078 59.5298 53.0942 53.0264 53.0174 45.6864 53.0671 33.3218 65.816 34.7102 67.6205 22.011 68.6969 15.0102 67.1004 7.86464 63.8895 1.54218 68.7376 9.08119 71.4511 21.0297 66.7567 29.2561 65.4814 31.436 63.6633 33.2269 61.8227 34.7645 59.1273 37.0303 56.5087 39.079 55.6223 42.4528 53.6867 50.4124 59.8011 57.8022 63.2518 64.6945 65.5447 68.9275 67.5482 73.4229 68.516 78.1761 69.6511 83.0649 69.2803 88.0035 66.7839 92.4446 64.5045 96.655 62.1573 100.73 60.674 105.298L60.674 105.298Z" fill="#D5D6A2" transform="matrix(1 0 0 1.05467 -7 936.208)"/><path d="M201.243 115.966C202.482 109.047 203.626 102.068 203.775 95.0541 203.807 91.6079 203.671 88.1482 202.83 84.8061 202.418 83.1644 201.867 81.5906 201.08 80.1072 199.936 77.8504 197.891 75.5214 197.389 72.7898 196.81 69.9903 197.281 66.9829 198.335 64.3779 199.718 61.0267 201.853 58.2001 203.355 54.9937 206.443 48.6757 206.122 41.3312 203.667 34.8097 206.19 39.4905 207.361 45.1256 206.48 50.4486 205.824 55.7761 202.192 60.4976 200.329 65.1558 199.167 68.2265 198.864 71.7405 200.392 74.5174 201.116 75.96 202.21 77.4299 203.038 79.0941 203.884 80.7494 204.517 82.5222 204.906 84.3176 206.973 94.6877 204.318 106.039 201.243 115.966L201.243 115.966Z" fill="#D5D6A2" transform="matrix(1 0 0 1.05467 -7 936.208)"/><path d="M237.052 133.676C235.704 127.924 236.202 121.922 237.097 116.143 238.576 106.324 242.076 96.0535 242.89 86.1628 243.474 76.1816 236.188 75.3133 233.058 67.8512 231.919 64.8708 232.122 61.7367 232.398 58.6614 233.067 52.746 235.365 47.2647 236.586 41.5392 237.509 37.3469 237.83 32.9872 237.468 28.7134 236.866 24.4487 234.989 20.4372 233.294 16.4755 232.104 13.8072 230.874 11.1525 229.739 8.45257 229.174 7.10034 228.631 5.73454 228.197 4.33256 227.799 2.93963 227.328 1.45625 227.668 0.00904502 227.41 1.46077 227.962 2.89893 228.432 4.25568 228.943 5.61695 229.549 6.94657 230.169 8.26714 231.421 10.8992 232.778 13.4906 234.067 16.1227 235.966 20.1071 238.029 24.1231 238.77 28.5551 239.349 33.0053 239.182 37.5006 238.354 41.9056 237.328 47.6491 235.13 53.153 234.56 58.9102 234.365 60.9815 234.275 63.1025 234.605 65.1603 236.22 73.3099 245.843 74.2098 245.02 86.3075 244.053 96.352 240.254 106.532 238.255 116.369 237.074 122.053 236.233 127.887 237.056 133.69L237.056 133.69Z" fill="#D5D6A2" transform="matrix(1 0 0 1.05467 -7 936.208)"/></g></svg>