<?xml version="1.0" encoding="UTF-8"?>
<svg id="Layer_1" xmlns="http://www.w3.org/2000/svg" version="1.1" xmlns:xlink="http://www.w3.org/1999/xlink" viewBox="0 0 277.3 772.1">
  <!-- Generator: Adobe Illustrator 29.2.1, SVG Export Plug-In . SVG Version: 2.1.0 Build 116)  -->
  <defs>
    <style>
      .st0 {
        stroke: #646553;
      }

      .st0, .st1, .st2, .st3, .st4, .st5, .st6, .st7, .st8, .st9, .st10, .st11, .st12, .st13, .st14, .st15, .st16, .st17, .st18, .st19, .st20, .st21, .st22, .st23, .st24 {
        stroke-miterlimit: 10;
      }

      .st0, .st2, .st3, .st4, .st5, .st9, .st24 {
        fill: none;
      }

      .st0, .st25, .st26, .st27 {
        opacity: .4;
      }

      .st0, .st13, .st28, .st29, .st30, .st26, .st27, .st31 {
        isolation: isolate;
      }

      .st1 {
        fill: #9d2d46;
        stroke: #a6304a;
      }

      .st1, .st7, .st11, .st17, .st18, .st19 {
        stroke-width: .5px;
      }

      .st2 {
        stroke: #747560;
      }

      .st3, .st14 {
        stroke: #000;
      }

      .st32 {
        fill: #fcf8cd;
      }

      .st33 {
        fill: #bfbb9c;
      }

      .st34 {
        fill: #6d6e5a;
        stroke-miterlimit: 10;
        stroke-width: 1px;
      }

      .st34, .st12, .st13, .st18 {
        stroke: #231f20;
      }

      .st4 {
        stroke: #545628;
      }

      .st4, .st24 {
        stroke-linecap: square;
        stroke-width: 2px;
      }

      .st5 {
        stroke: #783f2f;
        stroke-linecap: round;
      }

      .st35 {
        fill: #6f705c;
      }

      .st6 {
        stroke: #82826c;
      }

      .st6, .st13, .st18 {
        fill: #878771;
      }

      .st7 {
        fill: #1b8054;
        stroke: #197949;
      }

      .st36 {
        fill: #cf9180;
      }

      .st37, .st16 {
        fill: #fff14d;
      }

      .st38 {
        fill: #5d3b41;
      }

      .st39 {
        fill: #636352;
      }

      .st40 {
        fill: #492c31;
      }

      .st41 {
        fill: #e28577;
      }

      .st42 {
        fill: #1e7d54;
      }

      .st43 {
        fill: #70754d;
      }

      .st8 {
        fill: #81816b;
        stroke: #787963;
      }

      .st9 {
        stroke: #5d3b41;
      }

      .st10 {
        fill: #d44569;
      }

      .st10, .st16, .st20, .st21, .st23 {
        stroke-width: .2px;
      }

      .st10, .st20, .st21, .st23 {
        stroke: #c73e5a;
      }

      .st44 {
        fill: #6e6f5c;
      }

      .st11 {
        fill: #218f64;
        stroke: #198059;
      }

      .st12, .st13 {
        stroke-width: .8px;
      }

      .st12, .st45 {
        fill: #231f20;
      }

      .st13 {
        opacity: .1;
      }

      .st46 {
        fill: #2e0e01;
      }

      .st47 {
        fill: #f4ac94;
      }

      .st48 {
        fill: #787963;
      }

      .st49 {
        fill: #2c2a14;
      }

      .st50 {
        fill: #81816c;
      }

      .st51 {
        fill: #393f36;
      }

      .st14 {
        fill: #1e2722;
      }

      .st52 {
        fill: #0e2e19;
      }

      .st53 {
        fill: #7c7c66;
      }

      .st54 {
        fill: #de9783;
      }

      .st55, .st20 {
        fill: #df4665;
      }

      .st56 {
        fill: #c55d29;
      }

      .st29, .st57 {
        fill: #d7685d;
      }

      .st29, .st58 {
        opacity: .5;
      }

      .st59 {
        fill: #401c21;
      }

      .st15 {
        stroke: #eda590;
      }

      .st15, .st60 {
        fill: #f8ac96;
      }

      .st16 {
        stroke: #fdef53;
      }

      .st61 {
        fill: #b1862d;
      }

      .st17 {
        fill: #249b6c;
        stroke: #219165;
      }

      .st62 {
        fill: #0c0706;
      }

      .st30 {
        fill: #fffcfc;
        opacity: .8;
      }

      .st63 {
        fill: #005236;
      }

      .st64 {
        fill: #222620;
      }

      .st26 {
        fill: #f2837b;
      }

      .st65 {
        fill: #777863;
      }

      .st19 {
        fill: #12734b;
        stroke: #056139;
      }

      .st66 {
        fill: #b85c5c;
      }

      .st67 {
        fill: #230c0c;
      }

      .st68 {
        fill: #372325;
      }

      .st69 {
        fill: #605f44;
      }

      .st21 {
        fill: #cc3e61;
      }

      .st27 {
        fill: #f38e7f;
      }

      .st22 {
        fill: #3d0e24;
        stroke: #3c1225;
      }

      .st23 {
        fill: #cc4063;
      }

      .st70 {
        fill: #ac4727;
      }

      .st31 {
        fill: #e47875;
        opacity: .3;
      }

      .st24 {
        stroke: #6f705c;
      }
    </style>
  </defs>
  <path class="st22" d="M149.9,175.8"/>
  <path class="st47" d="M124.2,132.7s4.7,12.4,2.3,20.3c-3.8,12.7-32.2,21-32.3,26.4-.4,17.8,71.2,20,78.9-6.6,1.4-4.9-11.7-2-16.5-20.6-4.8-18.4-6.8-25.7-6.8-25.7l-25.6,6.2h0Z"/>
  <path class="st8" d="M67.8,395.2c1-21.8,7.3-51.8,7.3-51.8,22.4,1.7,104.1,1.4,113-.4,2.8,7.1,13.6,53.3,14.1,70.7.9,30.1-12.6,78.4-21,109.9-1.3,3.2-9.2,41.2-9.2,41.2-1.3,5.3,1.6,37.2,0,46.2-3.5,20.1-7.7,44.6-16.3,61.8-2.3,4.6-25.3,3.3-26,.9-2.5-8,1.6-82,1.4-85.6-1-14.4,6.4-122.9.4-158.7-.5,6.1,3.4,36.6,3,45,0,8.2-3.2,66.2-4.2,94,0,1.5,1.6,41.5-1.1,71.2-1.7,18.4,2.6,24.2.3,32.2-.8,2.8-29.7-2.8-29.3-4.3,3.1-12.4-12.6-72.7-8.6-110.9,0,0-11.6-38.2-20.6-104.7-2.3-10-3.1-56.4-3.1-56.4v-.3Z"/>
  <ellipse class="st34" cx="125.1" cy="350.6" rx="1.3" ry="5.2" transform="translate(-9.1 3.4) rotate(-1.5)"/>
  <ellipse class="st34" cx="131.9" cy="350.4" rx="1.6" ry="5.2" transform="translate(-9.1 3.6) rotate(-1.5)"/>
  <path class="st69" d="M134.6,346.4c18.5-.5,37.2-2.6,55.7-3.1.2,3.8,1.6,7.9,1.7,11.7-18.4.5-30.8,1.2-49.2,1.7,0,0-8,.1-10.7,0l-.4-10.4c2.7.1,2.8.1,2.8.1h0Z"/>
  <path class="st69" d="M71.6,341.7c19.9-.5,35.6,5.5,53.6,5.1v9c-19.2,1.4-35.3.3-54.9-.8.4-3.8.9-9.5,1.3-13.3h0Z"/>
  <polyline class="st48" points="196.5 370.7 167.4 372.7 169 456.4 190 456.2"/>
  <path class="st13" d="M128.9,354.8c-1.9.7-5.4,31.9-2.3,37.4"/>
  <path class="st4" d="M73.8,371.9"/>
  <path class="st4" d="M75.1,360.3"/>
  <path class="st4" d="M94.4,371.3"/>
  <path class="st4" d="M95.7,359.8"/>
  <path class="st4" d="M117.1,370.9"/>
  <path class="st4" d="M118.4,359.3"/>
  <path class="st4" d="M153,370.6"/>
  <path class="st4" d="M151.1,359.1"/>
  <path class="st24" d="M181,343.7c0,2.5.9,2.6.9,5.5s-.3,3.7-.4,6"/>
  <polyline class="st48" points="65.5 376.1 84.2 374.5 82.9 438 66.9 441.4"/>
  <polygon class="st44" points="194.6 384.8 166.9 386 166.2 373.9 190.9 373.3 194.6 384.8"/>
  <polygon class="st44" points="63.2 387.4 84.8 387.4 84.8 374.2 65.5 374.7 63.2 387.4"/>
  <polygon class="st44" points="65.1 374.7 84.7 374 84.8 372.9 65.5 373.4 65.1 374.7"/>
  <polygon class="st44" points="189.5 373.1 166.3 373.6 166.2 372.8 188.9 372.2 189.5 373.1"/>
  <polyline class="st48" points="90.2 466.5 73.8 463.3 79.4 504.5 96.9 506"/>
  <polygon class="st44" points="93.9 475.7 72.3 473.7 71.5 460.1 88.4 459.4 93.9 475.7"/>
  <polygon class="st62" points="127.2 354.6 130 354.5 130.2 346.4 126.5 346.5 127.2 354.6"/>
  <path class="st24" d="M79.8,344.4c0,2.4-.7,2.5-.7,5.2s.5,3.4.8,5.6"/>
  <path class="st24" d="M159.5,344.6c0,2.3.7,2.4.7,5s-.2,3.3-.3,5.4"/>
  <path class="st24" d="M105.9,346.4c0,2.1-.5,2.2-.4,4.7,0,1.7.4,3.1.7,5"/>
  <path class="st2" d="M137.4,422c-3.1,1.3-9.2,1.6-9.3,2.9-1.4-1.2-8.6-1.6-10.8-2.6"/>
  <g class="st25">
    <image class="st28" width="774" height="351" transform="translate(38.8 305.7) scale(.2)" xlink:href="question-woman-soldier-1.png"/>
  </g>
  <path class="st43" d="M109.7,209.3l47.8,2.1s13.5-33.8-1.2-30.4c-21.8,5-28,5.2-48.7-6.1l2.1,34.4h0Z"/>
  <path class="st18" d="M194.7,234c.3,1.2.6,2.4.9,3.6-.4-1.1-.8-2.2-1.4-3.2-.2-.4.3.7.5-.5h0Z"/>
  <path class="st18" d="M69.9,241.3c-.3,1.8-1.1,6.6-.8,12.8-.4-4.4,0-8.6.8-12.8Z"/>
  <path class="st18" d="M69.7,242.2c0-.4,0-.7.2-.9,0,.3,0,.6-.2.9Z"/>
  <path class="st6" d="M52.4,244.8c0-2.2,2.5-25.5,2.6-27.8.3-12.5,15.8-29.2,25.1-33.3,24.6-10.6,38.5-21.2,38.5-20.9l1.4,12.2,13.2,33.9c9.7-11.1,14.5-23.1,22.1-38.7,3.3-2.8,4.2-8.1,4.9-8.3.4-.1,31.9,13.8,43.8,28.5,7.2,9,9.7,21.4,7.8,28.8-3.1,12.3-11.7,36-14.2,37.3,0,0-12.4,44.6-12.2,53.6.2,7.9,3.5,26.5,4.6,32.4.2,1-.6,2-1.6,2-12.7.7-28.9,3.4-41.2,4.5-12.8,1.3-29.9-1-43.1-.3-11.2.5-20.9-1.9-30-4.6-1.2-.4-1.9-1.8-1.3-2.9,2.4-4.8,4.6-14.6,4.7-22,.3-14.8-2.1-41.2-2.1-41.2-4.3-8.1-5.8-16.1-6.5-23.8-.3-5.3.3-9.7.7-11.9,0-.3,0-.6.2-.9,0-.2,0-.5.2-.7,0,0,0,.3-.2.7,0,.2,0,.6-.2.9-.8,3.9-1,7.9-.7,11.9.3,6.9,2,15.3,7.2,23,1.5,2.2-22.3,2.1-24.5,2.4-3.1.3.7-31.3.6-35l.2.2Z"/>
  <path class="st39" d="M133.1,208.7c6.5-2.3,12.2-7.6,22.5-13.6-1.5-2.6-2.3-5.4-3.1-8.7-.1-.5.4-.8.9-.6,8.2,2.4,13.9,3,19.1,3.5.6,0,1.4-.5,1.1-1.1-3-5.7-8.2-19.1-14.2-26.9"/>
  <g>
    <path class="st50" d="M100.2,263.7c-8.4-.6-11.8-.8-20.2-1.4-.8,0-4.3-7.5-4.3-7.5,0-1.3,1.1-16.7,1.2-18,10.2,0,20.3,1.2,30.5,1.1-.7,8-1.1,11.5-1.8,19.5l-5.3,6.3h0Z"/>
    <path class="st65" d="M78.5,240.9l26.2,1.7,2.6-3.9s.8-6.9,1-10.4c-9.8-.7-20.4-1.6-30.3-2.2l-1,10.6,1.6,4.2h0Z"/>
    <g>
      <ellipse class="st51" cx="91.6" cy="238.4" rx="1.9" ry="2.1" transform="translate(-150.1 320.8) rotate(-87.8)"/>
      <ellipse class="st64" cx="92.7" cy="238.6" rx=".4" ry=".5" transform="translate(-149.3 322.1) rotate(-87.8)"/>
      <ellipse class="st64" cx="90.7" cy="238.4" rx=".4" ry=".5" transform="translate(-151 319.9) rotate(-87.8)"/>
    </g>
  </g>
  <g>
    <path class="st13" d="M126.5,346.5c-2.1-11.9-1.1-15.8,0-28,1.6-19,3.9-31.9,1.6-44.5-2.3-12.2-2.2-26.2,0-38.5,1.8-9.6,5.5-18.4,4.9-28"/>
    <g>
      <path class="st51" d="M126.2,211c1.5,0,2.8.9,3.1,2.2s-.8,2.4-2.2,2.4-2.8-.9-3.1-2.2c-.2-1.3.8-2.4,2.2-2.4Z"/>
      <path class="st64" d="M126.3,211.6c.3,0,.7.2.7.5s-.2.6-.5.6-.7-.2-.7-.5.2-.6.5-.6Z"/>
      <path class="st64" d="M126.7,214c.3,0,.7.2.7.5s-.2.6-.5.6-.7-.2-.7-.5.2-.6.5-.6Z"/>
    </g>
    <g>
      <path class="st51" d="M119.4,253c1.5,0,2.8.9,3.1,2.2.2,1.3-.8,2.4-2.2,2.4s-2.8-.9-3.1-2.2c-.2-1.3.8-2.4,2.2-2.4h0Z"/>
      <path class="st64" d="M119.6,253.6c.3,0,.7.2.7.5s-.2.6-.5.6-.7-.2-.7-.5.2-.6.5-.6Z"/>
      <path class="st64" d="M120,255.9c.3,0,.7.2.7.5s-.2.6-.5.6-.7-.2-.7-.5.2-.6.5-.6Z"/>
    </g>
    <g>
      <path class="st51" d="M123.2,296.2c1.5,0,2.8.9,3.1,2.2.2,1.3-.8,2.4-2.2,2.4s-2.8-.9-3.1-2.2c-.2-1.3.8-2.4,2.2-2.4Z"/>
      <path class="st64" d="M123.4,296.8c.3,0,.7.2.7.5s-.2.6-.5.6-.7-.2-.7-.5.2-.6.5-.6Z"/>
      <path class="st64" d="M123.8,299.1c.3,0,.7.2.7.5s-.2.6-.5.6-.7-.2-.7-.5.2-.6.5-.6Z"/>
    </g>
    <g>
      <path class="st51" d="M117.2,336.4c1.5,0,2.8.9,3.1,2.2s-.8,2.4-2.2,2.4-2.8-.9-3.1-2.2c-.2-1.3.8-2.4,2.2-2.4Z"/>
      <path class="st64" d="M117.4,337c.3,0,.7.2.7.5s-.2.6-.5.6-.7-.2-.7-.5.2-.6.5-.6Z"/>
      <path class="st64" d="M117.8,339.3c.3,0,.7.2.7.5s-.2.6-.5.6-.7-.2-.7-.5.2-.6.5-.6Z"/>
    </g>
  </g>
  <g>
    <path class="st50" d="M144.1,265.6c8.9,1,12.6,1.4,21.5,2.4.9,0,5.9-6.6,5.9-6.7.1-1.3,1.9-16.8,2-18.1-10.7-2-21.6-2.6-32.3-4.6-.7,8.1-1,11.6-1.6,19.7l4.5,7.2h0Z"/>
    <path class="st65" d="M171.1,247l-27.8-3.2-2-4.3s.4-7,.9-10.5c10.4,1.1,21.8,2.2,32.3,3.4l-.9,10.8-2.5,3.9h0Z"/>
    <g>
      <ellipse class="st51" cx="157.6" cy="242.2" rx="2" ry="2.2" transform="translate(-103.7 365.5) rotate(-82.2)"/>
      <circle class="st64" cx="156.5" cy="242.2" r=".5"/>
      <circle class="st64" cx="158.7" cy="242.5" r=".5"/>
    </g>
  </g>
  <g>
    <path class="st35" d="M56,211.4c4.1-20.1,16.3-26.7,27.3-30,1.1,2,2.7,5.3,3.8,7.3-10,6.6-19.9,14.4-29.2,27.7-.6-1.7-1.3-3.4-1.9-5.1h0Z"/>
    <path class="st33" d="M56.4,206.8c5.3-15.7,14.9-22.2,23.7-24.4,1,1.8,3.7,7.4,4.7,9.2-7.7,6.3-15.4,11.9-24.1,22.9-.6-1.5-3.7-6.1-4.3-7.6h0Z"/>
    <polygon class="st52" points="61.1 211.3 62.6 209.6 59.4 204.5 58.5 207.3 61.1 211.3"/>
    <polygon class="st52" points="63.4 208.1 65.4 205.9 61.2 199.3 60.1 202.9 63.4 208.1"/>
    <polygon class="st52" points="66.4 205.6 68.5 203.3 63.9 195 61.8 198.5 66.4 205.6"/>
  </g>
  <g>
    <path class="st70" d="M203.9,188.4c-2.4-4.7-7.1-8.2-10.5-10.2-.9-.5-12.2-6.2-18.4-2.1-5.6,3.7-4.4,5.5-7.8,11.1-4.3,11,19.9,19.1,27.6,19.2.8,0,1.7,0,2.2-.5,2.5-2,11-9.5,6.9-17.5Z"/>
    <path class="st49" d="M197.7,205.6c1.1-1.3,7-7.4,4.3-7.1-1.1,0-2.1,2.8-5.5,7.1s.7.6,1.2,0Z"/>
    <g>
      <polygon class="st61" points="189.1 199.8 181.8 195.9 190.4 195.3 189.1 199.8"/>
      <path class="st61" d="M190.2,201.4c-.3.7,1.6.7,1.7.4.9-2.2,1.2-4.6,1.2-7.1s-1.7-.7-1.7,0c-.2,2.2-.2,4.4-1.1,6.7h0Z"/>
      <path class="st61" d="M190.6,202.9c-.2.2,1.6.4,1.7.3.6-.6.7-1.3.4-2.1,0,0-1.7-.4-1.7-.2,0,.7.3,1.4-.3,2h0Z"/>
      <path class="st61" d="M193.9,195.6c.1.2-1.7,0-1.7-.1-.4-.8-.2-1.5.4-2.1,0,0,1.8,0,1.7.3-.2.6-.8,1.2-.3,2h0Z"/>
      <path class="st61" d="M188,193.9c-2.6-.3-4.9.8-5.2,2.6s1.6,3.5,4.2,3.8,4.9-.8,5.2-2.6-1.6-3.5-4.2-3.8ZM187.1,199.4c-1.9-.2-3.3-1.5-3.1-2.8s1.9-2.2,3.9-1.9c1.9.2,3.3,1.5,3.1,2.8s-1.9,2.2-3.9,1.9Z"/>
    </g>
    <g class="st25">
      <image class="st28" width="439" height="334" transform="translate(133.5 154.6) scale(.2)" xlink:href="question-woman-soldier-2.png"/>
    </g>
    <g>
      <path class="st56" d="M205.1,186.4c-2.3-4.8-4.6-9.9-9.8-13-8-4.8-10.6-5.3-15.3,1.2-4.3,6-14.5,15-13.3,15.8.6,1.8,14.4,3.2,35.9,8.1,4.8,1.1,7-2.7,2.5-12.1Z"/>
      <path class="st35" d="M207.7,197.8c-5-16.5-14.9-25.8-32.1-25.8-1.3,1.6-4.7,5.2-6,6.9,12.3,5.5,24.4,12,35.8,23,.8-1.4,1.6-2.8,2.4-4.2h-.1Z"/>
      <path class="st33" d="M207.4,194.9c-3.9-13.8-15.5-25-26.7-22.5-1.3,1.7-7,7-8.3,8.7,12.4,4.5,20.9,9.3,30.8,18.8.8-1.4,3.4-3.6,4.2-5Z"/>
      <polygon class="st52" points="202.8 197.5 201.3 196.4 204.5 193.1 205.4 194.9 202.8 197.5"/>
      <polygon class="st52" points="200.4 195.6 198.5 194.1 202.6 189.8 203.7 192.2 200.4 195.6"/>
      <polygon class="st52" points="197.6 193.5 195.5 192 200 186.5 202.1 188.9 197.6 193.5"/>
    </g>
    <g class="st25">
      <image class="st28" width="436" height="334" transform="translate(130.5 153.8) scale(.2)" xlink:href="question-woman-soldier-3.png"/>
    </g>
  </g>
  <path class="st39" d="M133.1,208.7c-6.3-3.6-13.2-11.2-22.7-18.5,2.3-1.4,3.8-3.1,5.5-5.1.2-.3-.3-.5-.8-.7-7.9-3.8-10.4-8.1-14.7-12.2-.5-.5,8.4-1.9,18.5-9.7"/>
  <g>
    <g>
      <path class="st60" d="M58.5,424.8c0,1.6.2,3.3.6,4.9.7,2.8,1.9,7.2,2.7,8.7,1.2,2.3,2.5,7.9,3.8,6.6,1.8-1.7-3.3-14.8-2.3-14.9,0,0,4.2,19.3,7.6,19s-1.6-20.6-1.5-20.5c0,0,4,25.8,8.1,25.3,3.2-.3-3.5-28.4-2.2-28.9,0,0,2.4,25.4,5.6,26,4.6-.6-.5-24.7-.7-30.2-.2-5.7-1.4,13.4,3.7,10.4,2.3-3.6-1.6-19.2-2.3-20.1-5.2-6.4-4.7-15.9-14-16.1-5.2-.1-6.5-5.1-9.1,29.9h0Z"/>
      <path class="st36" d="M80.2,419.9c0-.8.4,9.3,1.4,11.4"/>
      <path class="st36" d="M75.4,424.9c-.3,1.2,3,23.1,4.6,24.2"/>
      <path class="st36" d="M69.8,428c-.2,1.1,3.1,20.7,4.7,21.5"/>
      <path class="st36" d="M63.6,429.8c-.4,1,3.9,16.7,5.8,17.3"/>
    </g>
    <path class="st60" d="M50,275.8c4.1,27.9,0,61,4.2,88.8,2.6,17.6,5.4,25.5,8,43.1,3.6-1.4,9.8-3.7,13.4-5.1-4.3-38.6-2.6-76.7,1-110.9l-26.7-15.9h.1Z"/>
  </g>
  <path class="st54" d="M55.7,274.8c-12.3,9.4-2,12.7,19.3,23.8,1.1-6,2.5-16.6,2.5-16.6l-21.8-7.1h0Z"/>
  <path class="st53" d="M44.6,275.2c0,6.3,2.2,6.1,6.5,9.1,1.5-1.2-2.9-6.3-1-7.8,3.3,3.2,21.9,10.4,28.1,12.5l-1.6-12c-9.4-3-17.9-5.7-26.8-11.5-2.1,3.5-4.7,5.6-5.2,9.8h0Z"/>
  <path class="st45" d="M53.7,278.9c-1.4,2.8-1.9,4.6-1.5,6.5l-3.9-2.9c.5-7.3,1.4-5,1.7-6.1l3.7,2.5Z"/>
  <path class="st12" d="M211.8,279.5"/>
  <path class="st0" d="M171.3,228.8c.9-3.9,4.2-12.1,9.3-18.4"/>
  <path class="st0" d="M76.2,277.1c-1.3-2.7-11.7-24.4-5.8-41.2"/>
  <g>
    <path class="st14" d="M77.2,750.7c-2.5-.8-4.5-2.7-4.2-5.4.4-3.7,1.3-8.1,5.1-10.8,10.8-7.9,19-14,20-18.5,3.5-15.3,3.9-31.7,2-48.9,0,0,19,1.5,29.9,0,4.8,32.3.6,65.3-2.6,78.3-.5.5-1.9.7-1.6,1.4,3.3,9.1-30.3,9.3-48.6,3.9Z"/>
    <path class="st3" d="M102.1,741c-6-8.9-12.2-14-18.7-10.6"/>
    <path class="st3" d="M73.6,741.9c2.8,10.8,27.6,8.8,52.3,3.4"/>
  </g>
  <g>
    <path class="st14" d="M128.5,667.1s1,14.1.2,29.5c-.8,14.6-7.3,27.1-8.1,36-.2,7.6,0,14.6,2,19.6,3,1.4,11.7,5.3,23.4,4.3,9.3-.8,15.9-4.2,18.8-6,.5-1.9,1.1-4.8,1.2-8.4.2-5.9-1.2-10.1-3.3-16.9-1.2-3.7-3.1-9.8-5.9-18.9-1-13.3-.9-26.2.8-38.5-9.9,2-17.8,1.4-29-.7h-.1Z"/>
    <path class="st3" d="M122.7,735.1c9.2-9,31.2-6.8,35-.6"/>
    <path class="st3" d="M162.6,745.4c-14.6,5.9-29.4,6.4-44.3,1.5"/>
  </g>
  <g>
    <g>
      <path class="st11" d="M174.9,185.4c-.3,2.3-1,4.4-2.1,6.1-.7-2-1.5-4.2-3.1-4.9-.1,0-.2.1-.1.3.5,1.3,1,2.6,1.5,4,.5,1.2,1,2.5.6,4-.3,1.2-1,2.2-1.5,3.1-.6.9-1.2,1.6-2,2-.1-1.4-.4-2.8-.8-4.2-.2-.5-.6-1.1-.9-.3-.1.5,0,1,0,1.5.1.8.2,1.7.1,2.6-.2,1.6-1.1,3.2-2.3,2.9.2-1.2.1-3.1-1-2.9,0,0-.1,0-.1.2,0,1.1.2,2.5-.5,3.2s-1.4.6-2.1.8c-.6.1-1.2.2-1.8.2h-.5q-.3,0-.6-.3t-.2-1v-.6c.2-1.8.3-4.5,1.4-5.6.7-.7,1.8,0,2.3-1.1v-.3c-.7-.4-1.5-.5-2.3-.3.3-1.7,1.3-2.4,2.4-2.5.7,0,1.4,0,2-.7.4-.5.6-1.2,0-1.4-.4-.2-1,0-1.4,0s-1,.2-1.5.3c.4-2.3,1.6-3.7,3.2-4.1,1-.3,2.2-.3,2.9-1.6v-.3c-1.4-.5-2.9-.3-4.3.5.3-1.5.6-3,1.3-4.2.6-.9,1.6-1.3,1.8-2.6,0-.1,0-.2-.1-.2-.4,0-.7.2-1,.4.7-3.6,2.8-5.9,4.8-8,.6,4.7.2,9.5-.9,14.1-1.2,5.4-2.9,10.7-6,14.4,0,0,0,.2,0,.1,3.2-3.5,5-9.3,6.2-14.7,1-4.4,1.5-9.1.9-13.6,1.7-.6,2.9,1.6,3.8,3.4.8,1.5,1.4,3.3,1.4,5.2-.5-.5-1.1-.8-1.7-1.1-.5-.2-1.4-.5-1.9-.2-.3.2-.4.5-.3,1,.2.6,1,.8,1.4,1,.8.4,1.6,1.1,2.3,1.9.7.9.7,2.2.5,3.5h.2Z"/>
      <path class="st19" d="M172.7,191.4c1.1-1.7,1.9-3.8,2.1-6.1.1-1.3.2-2.6-.5-3.5-.7-.8-1.5-1.5-2.3-1.9-.4-.2-1.2-.3-1.4-1-.2-.4,0-.8.3-1,.5-.3,1.4,0,1.9.2.6.2,1.1.6,1.7,1.1,0-1.9-.7-3.7-1.4-5.2-.9-1.8-2.1-4-3.8-3.4.6,4.5,0,9.2-.9,13.6-1.2,5.4-3,11.3-6.2,14.7,0,0-.1,0,0-.1,3-3.7,4.7-9.1,6-14.4,1-4.6,1.5-9.4.9-14.1-2,2.1-4.1,4.4-4.8,8,.3-.2.7-.3,1-.4,0,0,.1,0,.1.2-.2,1.3-1.3,1.7-1.8,2.6-.7,1.2-1,2.7-1.3,4.2,1.4-.8,2.9-1,4.3-.5,0,0,.1.2,0,.3-.7,1.2-1.9,1.3-2.9,1.6-1.5.4-2.8,1.8-3.2,4.1.5-.1,1-.3,1.5-.3s1-.2,1.4,0c.6.2.5,1,0,1.4-.6.6-1.3.6-2,.7-1.1.1-2.1.8-2.4,2.5.8-.2,1.5-.2,2.3.3v.3c-.5,1.1-1.6.4-2.3,1.1-1.2,1.1-1.3,3.8-1.4,5.6v.6c0,.5,0,.6.2,1q.3.4.6.3h.5c.6,0,1.2-.1,1.8-.2.7-.1,1.5-.2,2.1-.8s.6-2.1.5-3.2c0,0,0-.2.1-.2,1.2-.2,1.2,1.7,1,2.9,1.2.3,2.1-1.3,2.3-2.9,0-.9,0-1.7-.1-2.6,0-.5-.2-1,0-1.5.2-.8.7-.2.9.3.4,1.3.7,2.7.8,4.2.8-.4,1.5-1.1,2-2,.6-.9,1.3-2,1.5-3.1.3-1.4-.2-2.8-.6-4-.5-1.3-1-2.6-1.5-4,0-.2,0-.3.1-.3,1.6.7,2.4,2.9,3.1,4.9h-.2ZM171.4,194.4c0,.5-.2.9-.5,1.3h0c.2-.4.4-.7.5-1.2h0ZM174.3,184.6h0c0-.5,0-.9-.2-1.3,0,0,0-.1,0,0,.2.4.3.9.2,1.4h0ZM174.4,184s-.1,0,0,0c0-.4,0-.9-.3-1.1,0,0,0-.1,0,0,.3.2.5.8.3,1.2h0ZM170.7,195.6h0c0-.3,0-.5.1-.8h0c0,.3,0,.6-.1.8ZM166.3,199.3c0,.5-.2,1-.3,1.4h0c.2-.4.3-.9.3-1.4h0ZM166.1,198.7c0,.5,0,1.1-.2,1.5,0,0-.1,0,0,0,.1-.5.2-1,.2-1.5h0ZM167.4,186.5c0,.4-.2.8-.4,1.1h0c.2-.3.3-.7.4-1.1h0ZM167.4,185.5c0,.5-.2.9-.4,1.3,0,0-.1,0,0,0,.1-.4.3-.8.4-1.3,0,0,.1,0,0,0ZM169.9,174.3h0c0-.4,0-.8.1-1.2h0v1.2h-.1ZM169.8,173.6h0v-1.3h0v1.3ZM163.2,191.9h0c-.2.2-.4.3-.6.4h0c.2-.1.4-.3.6-.5h0ZM159.8,196.7h0c-.2.1-.4.3-.6.5h0c.2-.2.4-.4.6-.4h0ZM164.7,180.7h0c-.2.1-.3.3-.4.5h0c0-.2.2-.4.4-.5ZM164.6,180.3h0c-.3.3-.5.6-.7.9h0c.2-.4.4-.7.7-.9h0ZM159.5,196.4h0c-.2.1-.4.2-.6.5h0c.1-.3.4-.5.6-.4h0Z"/>
      <path class="st19" d="M170.9,195.6c.3-.3.4-.8.5-1.3h0c-.1.5-.3.8-.5,1.2,0,0,0,.1,0,0h0Z"/>
      <path class="st19" d="M174.2,184.6h0c0-.5,0-1-.2-1.4h0c.2.4.2.8.2,1.3h0Z"/>
      <path class="st19" d="M174.3,184s0,.1,0,0c.1-.5,0-1-.3-1.2h0c.3.2.4.7.3,1.1h0Z"/>
      <path class="st19" d="M170.7,195.5s0,.1,0,0c0-.3,0-.6.1-.8h0c0,.3-.1.5-.1.8Z"/>
      <path class="st19" d="M166,200.8c.2-.4.3-.9.3-1.4h0c0,.5-.2,1-.3,1.4h0Z"/>
      <path class="st19" d="M165.9,200.2c.2-.5.2-1,.2-1.5h0c0,.5,0,1-.2,1.5,0,0,0,.1,0,0Z"/>
      <path class="st19" d="M167,187.7c.2-.3.4-.7.4-1.1h0c0,.4-.2.8-.4,1.1,0,0,0,.1,0,0Z"/>
      <path class="st19" d="M167,186.8c.2-.4.3-.8.4-1.3,0,0,0-.1,0,0,0,.4-.2.9-.4,1.3,0,0,0,.1,0,0Z"/>
      <path class="st19" d="M169.8,174.3s0,.1,0,0v-1.2h0c0,.4,0,.8-.1,1.2h.1Z"/>
      <path class="st19" d="M169.7,173.6s0,.1,0,0v-1.3h0v1.3Z"/>
      <path class="st19" d="M163.2,192s0-.1,0,0c-.2.2-.4.3-.6.4h0c.2.1.4,0,.6-.3h0Z"/>
      <path class="st19" d="M159.8,196.9h0c-.2-.1-.4,0-.6.3,0,0,0,.1,0,0,.2-.2.4-.3.6-.4h0Z"/>
      <path class="st19" d="M164.7,180.8h0c-.2-.1-.3,0-.4.4,0,0,0,.1,0,0,0-.2.2-.4.4-.4Z"/>
      <path class="st19" d="M164.6,180.4h0c-.3,0-.5.4-.7.8h0c.2-.4.4-.6.7-.8h0Z"/>
      <path class="st19" d="M159.5,196.5h0c-.2-.1-.5,0-.6.3,0,0,0,.1,0,0,.1-.3.3-.4.6-.4h0Z"/>
    </g>
    <g>
      <path class="st19" d="M116,229.3c-1.7-1-3.1-2.8-4.1-5.1-.5-1.3-1-2.6-.5-4.1.5-1.3,1.2-2.6,1.9-3.6.4-.5,1.1-1.1,1.2-2,0-.5-.2-.9-.6-.8-.7,0-1.5,1-2,1.5-.6.6-1.1,1.4-1.5,2.2-.5-2.1-.4-4.4,0-6.5.4-2.5,1.1-5.7,3.1-6.1.7,5.2,2.6,9.9,4.9,14,2.9,5,6.5,10.1,10.9,11.8,0,0,.1-.2,0-.2-4.3-2-7.8-6.6-10.6-11.6-2.4-4.2-4.4-9.1-5.1-14.6,2.8,1,5.7,2.1,7.5,5.5-.4,0-.8,0-1.2.3,0,0,0,.2,0,.3.6,1.3,1.8,1,2.7,1.7,1.1.8,1.9,2.2,2.6,3.6-1.7,0-3.3.8-4.8,2.2v.3c1.2.8,2.4.2,3.6-.2,1.8-.6,3.5.1,4.6,2.3-.6.2-1.2.4-1.7.6-.5.2-1.1.4-1.5.8-.6.6-.2,1.4.4,1.6.8.3,1.6-.2,2.3-.5,1.3-.6,2.5-.5,3.3,1.1-.9.3-1.7.8-2.4,1.8v.3c.9.8,1.9-.6,2.8-.3,1.6.4,2.5,3.2,3.2,5.1,0,.2.2.4.2.6.2.6.3.6,0,1.2q-.2.6-.5.8c-.2.1-.4.2-.5.3-.7.3-1.3.7-2,.9-.8.3-1.7.8-2.4.5-1-.3-1.2-1.9-1.5-3.1,0-.1,0-.2-.2-.1-1.3.6-.8,2.6-.3,3.8-1.2,1.1-2.6,0-3.3-1.7-.3-.9-.5-1.9-.6-2.8,0-.6,0-1.2-.3-1.7-.5-.8-.8.2-.8.9,0,1.7,0,3.4.4,5-1,.1-1.9-.3-2.8-.8-.9-.6-1.9-1.3-2.6-2.4-.8-1.3-.6-3.1-.5-4.7.2-1.8.3-3.5.5-5.3,0-.2,0-.3-.2-.2-1.5,1.8-1.7,4.7-1.9,7.3h.3ZM118.3,231.6c.2.5.5.8.9,1h0c-.3-.4-.6-.6-.9-1.1,0,0,0,0,0,0h0ZM112.3,223s0,0,0,0c-.2-.5-.2-1-.2-1.5h0c0,.5,0,1.1.2,1.6h0ZM112,222.5s0,0,0,0c-.2-.4-.2-.9,0-1.4,0,0,0-.1,0,0-.3.4-.3,1.1,0,1.5h0ZM119.4,232.5h0c0-.3-.3-.5-.4-.8h0c0,.3.2.6.4.8ZM125.2,233.7c.2.5.5,1,.8,1.3h0c-.3-.4-.5-.8-.8-1.3,0,0,0,0,0,0ZM125.3,232.8c0,.6.4,1.1.7,1.5,0,0,0,0,0-.1-.3-.4-.5-.9-.6-1.4,0,0,0,0,0,0h0ZM120.3,220.6c.2.4.5.7.8.9h0c-.3-.3-.5-.6-.8-1,0,0,0,0,0,0h0ZM120,219.5c.2.5.5.8.8,1.2,0,0,0,0,0-.1-.3-.3-.5-.7-.8-1.2,0,0,0,0,0,0h0ZM114,209.2s0,0,0,0c0-.4-.3-.8-.5-1.2,0,0,0,0,0,0,0,.4.3.8.4,1.2h0ZM113.9,208.3s0,0,0,0c0-.5-.3-.9-.5-1.3,0,0,0,0,0,0,0,.5.3.9.5,1.3ZM126.4,223.7h0c.3.1.5.2.8.1h0c-.3-.1-.5-.1-.8-.1ZM131.5,226.6s0,.2,0,.1h.7c-.3-.3-.5-.3-.8-.1h.1ZM121.5,212.5h0c.2.1.4.1.5.3h0c-.2-.2-.4-.3-.6-.3h0ZM121.5,212h0c.3.1.7.3.9.5h0c-.3-.3-.6-.5-1-.5h0ZM131.6,226.1h0c.2,0,.5,0,.7.1h0c-.2-.3-.5-.4-.8-.1h.1Z"/>
      <path class="st19" d="M119.2,232.7c-.4-.2-.7-.6-.9-1,0,0,0-.1,0,0,.2.4.5.7.9,1,0,0,0,.2,0,.1h0Z"/>
      <path class="st63" d="M112.4,223s0,.1,0,0c-.2-.5-.3-1-.2-1.6h0c0,.5,0,1,.2,1.5h0Z"/>
      <path class="st63" d="M112.1,222.4s0,.2,0,0c-.3-.4-.3-1.1,0-1.5h0c-.2.4-.2,1,0,1.4h0Z"/>
      <path class="st19" d="M119.4,232.4s0,.2,0,0c0-.3-.3-.5-.4-.8,0,0,0-.1,0,0,0,.3.3.5.4.8Z"/>
      <path class="st19" d="M125.9,235c-.3-.3-.6-.8-.8-1.3,0,0,0-.2,0,0,.2.5.4.9.8,1.3,0,0,0,.1,0,0Z"/>
      <path d="M125.9,234.3c-.3-.4-.5-.9-.7-1.5,0,0,0-.1,0,0,0,.5.4,1,.6,1.4,0,0,0,.2,0,.1h0Z"/>
      <path d="M121.1,221.5c-.3-.2-.6-.5-.8-.9,0,0,0-.1,0,0,.2.4.5.7.8.9h0c0,.1,0,0,0,0Z"/>
      <path d="M120.8,220.7c-.3-.3-.6-.7-.8-1.2,0,0,0-.2,0,0,.2.4.5.8.8,1.2,0,0,0,.2,0,.1h0Z"/>
      <path d="M114.1,209.1s0,.2,0,0c-.2-.4-.3-.8-.4-1.2,0,0,0-.1,0,0,.2.4.3.8.5,1.2h0Z"/>
      <path class="st63" d="M114,208.3s0,.2,0,0c-.2-.4-.3-.9-.5-1.3,0,0,0-.2,0,0,.2.4.3.9.5,1.3Z"/>
      <path d="M126.4,223.8s0-.2,0-.1h.8c-.3.1-.5.1-.8.1Z"/>
      <path d="M131.5,226.7h0c.3-.2.5-.2.8-.1h0c-.2,0-.5,0-.7.1h-.1Z"/>
      <path class="st63" d="M121.5,212.7h0c.2-.1.4-.1.6.2,0,0,0,.1,0,0,0-.2-.3-.3-.5-.2h0Z"/>
      <path class="st63" d="M121.5,212.2h0c.4-.1.7,0,1,.4,0,0,0,.1,0,0-.3-.3-.6-.4-.9-.4h0Z"/>
      <path d="M131.7,226.2h0c.2-.3.5-.3.8-.1h0c-.2,0-.5,0-.7.1h-.1Z"/>
    </g>
    <g>
      <path class="st19" d="M118.1,206.2c0-.8-.6-1.7-1-2.1-.5-.5-1.2-.6-1.8-.6s-1.2.2-1.8.4c-.3,0-.9.4-1.2,0-.6-.7.4-1.5.7-1.7.5-.2,1-.4,1.6-.5s1.3,0,1.9,0c.9,0,0-1.4,0-1.9-.3-.6-.7-1.3-1.2-1.6-.7-.5-1.3-.2-2,.1-.6.4-1.3.7-1.9,1.1-.3.2-.9.7-1.2.3-.2-.2-.2-.7,0-1.1.3-.6,1-.8,1.4-1,.3-.2,1.1-.4.9-1s-.6-.7-.8-.9c-2.1-2.1-4.7-2.7-7.2-1.8h0c.8,2.4,1.7,4.7,2.8,6.9,1.8,3.5,3.9,6.4,6.2,9.2h0c-2.4-2.3-4.6-5.6-6.3-9-1.2-2.2-2.2-4.7-3.1-7.3-2.3,2.4-3.5,6.6-3,10.6.4-1.2.9-2.3,1.5-3.4.5-.8,1.1-1.6,1.9-1.3v.2c-.5,1.4-1,2.8-1.6,4.2-.3.7-.6,1.4-.8,2.2-.2.9,0,1.6.3,2.4.8,2.3,1.9,4.5,3.5,5.4,0-2.3.2-4.9,1.7-6.3h0c.2.2.3.5.2.9,0,.9-.4,1.8-.6,2.7s-.6,1.9-.4,2.8c.2.9.7,1.4,1.2,1.9s.4.4.6.5c.8.3.6-.7.6-1.3v-3.1c0-1.1.2-2.5,1.1-2.8,0,0,0,0,0,.1.2.7.2,1.5.2,2.2s-.3,1.7-.4,2.6c0,1,0,2.4.9,2.6,1,.3.5-1.8.4-2.6v-2.4c0-.3,0-.9.4-1,.2,0,.3.2.4.5.2.7.2,1.7.3,2.5,0,.7.2,1.5.5,2,.5.8,1.5.4,2.1.2.6-.1,1.3-.3,1.8-.6.8-.4.7-2.1.8-3.1,0-.9.3-2.1,0-3s-1.1-1.2-1.7-1.4-1.3-.3-1.9-.3-.9.2-1.1-.2c-.6-.9,1-1.2,1.2-1.2.5-.1,1-.2,1.6-.2s2.1.5,2.2-.3v.5ZM117.8,205.6q0,.1,0,0c0-.3-.2-.4-.4-.5h0c.2-.1.4.2.5.5ZM117.7,210.5h0c0-.4-.3-.8-.6-.8h0c.4-.1.7.3.7.8h0ZM117.7,210s0,.1,0,0c0-.4-.3-.7-.6-.8,0,0,0-.2,0-.1.3.1.6.5.7.9h0ZM116.7,215h0c-.3.4-.7.4-1,.1h0c.3,0,.6,0,.9-.1h0ZM114.4,199.3h0c-.2.1-.4.1-.7.1h.7ZM114.3,198.9h0c-.3.1-.6.1-.9.3h0c.3-.3.6-.4.9-.3ZM111.9,196.9h0c-.3,0-.6-.4-.8-.7,0,0,0-.1,0,0,.3.2.6.5.8.8h0ZM109.2,212.6h0c0,.3,0,.6,0,.9h0v-1h0ZM109.1,211.8h0c-.2.5-.3,1-.3,1.6h0c0-.6,0-1.1.3-1.6ZM108.2,205.1s0,.2,0,.1c-.2-.2-.4-.4-.6-.7,0,0,0-.2,0-.1.2.3.4.5.6.7ZM108,204.3s0,.1,0,0c0-.2-.3-.3-.4-.5,0,0,0-.1,0,0,0,.1.3.3.4.5ZM102.7,206.3h0c0,.2-.2.4,0,.7,0,0,0,.1,0,0,0-.3,0-.6.2-.8h0ZM102.5,205.8h0c-.2.3-.3.7-.3,1.2h0c0-.5,0-.9.3-1.2ZM102.4,197.7h0c-.2.2-.4.6-.5.9h0c0-.4.3-.8.6-1h0ZM102,197.6h0c-.2.5-.4.9-.6,1.3h0c.2-.5.3-.9.5-1.3h0Z"/>
      <path class="st63" d="M117.7,205.6h0c0-.3-.2-.6-.5-.6h0c.2.1.3.4.4.6Z"/>
      <path class="st63" d="M117.6,210.6h0c0-.5-.3-.9-.7-.9h0c.3.1.5.5.6.9h0Z"/>
      <path class="st19" d="M117.6,210s0,0,0,0c0-.4-.4-.7-.7-.9h0c.3.2.5.5.6.9h0Z"/>
      <path class="st19" d="M116.7,215.1h0c-.3,0-.6,0-.9-.1h0c.3.3.7.3,1,.1h0Z"/>
      <path class="st19" d="M114.4,199.4h0c-.2-.1-.4-.1-.7-.1h.7Z"/>
      <path class="st19" d="M114.3,199h0c-.3-.2-.6-.1-.9,0,0,0,0,.2,0,.1.3-.2.6-.2.9-.2Z"/>
      <path class="st19" d="M111.9,197h0c-.3-.4-.5-.6-.8-.9h0l.8.8h0Z"/>
      <path class="st19" d="M109.3,212.6s0-.1,0,0c0,.3,0,.7,0,1h0v-.9h0Z"/>
      <path class="st63" d="M109.1,211.8s0-.1,0,0c-.2.5-.3,1-.3,1.6h0c0-.6,0-1.1.3-1.6Z"/>
      <path class="st19" d="M108.2,205.3h0c-.2-.3-.4-.5-.6-.8,0,0,0,0,0,.1.2.3.4.5.6.7Z"/>
      <path class="st19" d="M108,204.4h0c0-.2-.3-.3-.4-.5h0c0,.2.3.3.4.5Z"/>
      <path class="st19" d="M102.8,206.3s0-.1,0,0c0,.2-.2.5-.2.8h0c0-.2,0-.5,0-.7h0Z"/>
      <path class="st63" d="M102.6,205.9s0-.1,0,0c-.2.4-.3.8-.3,1.2h0c0-.4,0-.8.3-1.2Z"/>
      <path class="st19" d="M102.4,197.8s0-.1,0,0c-.3.2-.5.6-.6,1h0c0-.4.3-.7.5-.9h0Z"/>
      <path class="st19" d="M102,197.7s0-.1,0,0c-.2.4-.4.9-.5,1.3h0c.2-.4.4-.9.6-1.3h0Z"/>
    </g>
    <g>
      <path class="st17" d="M93.9,190.2c.2.5.4.9.7,1.3.4.5.8.5,1.2,0,.5-.6,1.1-1.3,1.7-1.8.9-.8,1.9-1.1,2.9-.6,0,0,0,.3,0,.4-1.1.5-2.4,1.4-3,2.9-.9,2,.6,3.5,1.7,4.3.2-1.5.7-2.9,1.5-3.8.4-.5,1.7-1.6,1.8,0v.2c-1.3,1.2-2,3.4-1.6,5.6.3,2,1.5,3.4,2.8,3.8-1-2-.9-4.9.3-6.7h.2s.2,0,0,.1c-.5,3.3.2,7.5,2.9,7.8,1,.1,2-.2,3-.1,1,0,1.9.2,2.8.4-.4-1.3-.4-2.7-.4-4s0-3.6-.5-5.2c-1.1-3.7-3.8-4.5-6.2-3.4h-.2c-.7-1.3,1-2.4,1.6-2.7,1.2-.5,2.4-.1,3.6.4-1.1-3.4-3.9-4.7-6.2-2.9,0,0-.2-.1-.2-.3.5-1.8,1.7-2.9,3-3,1.4-.1,2.7.9,3.9,1.9.3-1.2.4-2.5,0-3.7-.5-1.6-1.5-1.8-2.5-1.7-1.7.1-3.4,1.1-4.8,2.7,0,.1-.2,0-.2-.2.6-3.6,3.3-4.3,5.5-4.3-1.9-2-4.6-1.9-6.4.3,0,.1-.3,0-.2-.2.3-.9.6-1.8,1.1-2.4-1.1.3-2.1,1.2-2.8,2.5,0,2.3,0,4.6.6,6.7,1.1,5,3.4,9.1,6,12.5,0,.1,0,.4,0,.3-2.9-3.7-5.3-8.3-6.3-13.8-.3-1.8-.5-3.6-.4-5.4h0c-.9,0-1.8.1-2.6.5.9.5,1.5,1.6,1.7,3.1,0,.2,0,.3-.2.2-1.6-1.5-3.6-.8-4.6,1.5,1.5-.6,3.2,0,4.4,1.5,0,.1,0,.4,0,.4-1.3-.2-2.7-.4-3.8.5-1.2.9-2.1,2.9-1.4,4.8l-.3-.4Z"/>
      <path class="st19" d="M95.3,185.4c1.2-.8,2.6-.6,3.8-.5,0,0,.2-.2,0-.4-1.2-1.5-2.9-2.1-4.4-1.5,1-2.3,3-3,4.6-1.5,0,0,.2,0,.2-.2-.2-1.4-.8-2.5-1.7-3.1.8-.4,1.7-.6,2.6-.5h0c0,1.8,0,3.7.4,5.4,1,5.5,3.4,10.1,6.3,13.8,0,.1.2-.1,0-.3-2.6-3.4-4.9-7.5-6-12.5-.5-2.2-.7-4.4-.6-6.7.7-1.3,1.7-2.2,2.8-2.5-.5.7-.8,1.5-1.1,2.4,0,.2,0,.4.2.2,1.8-2.2,4.5-2.3,6.4-.3-2.2,0-4.9.7-5.5,4.3,0,.2,0,.3.2.2,1.4-1.6,3-2.6,4.8-2.7,1.1,0,2.1.2,2.5,1.7.4,1.2.2,2.5,0,3.7-1.2-1.1-2.5-2-3.9-1.9-1.3,0-2.5,1.2-3,3,0,.1,0,.3.2.3,2.3-1.8,5.1-.5,6.2,2.9-1.2-.5-2.4-.8-3.6-.4-.6.2-2.3,1.3-1.6,2.7h.2c2.4-1.1,5.2-.3,6.2,3.4.5,1.7.5,3.4.5,5.2s0,2.8.4,4c-.9-.3-1.9-.4-2.8-.4s-2,.3-3,.1c-2.7-.4-3.3-4.5-2.9-7.8,0-.1,0-.2,0-.1,0,0,0-.1-.2,0-1.2,1.8-1.3,4.7-.3,6.7-1.3-.3-2.5-1.8-2.8-3.8-.3-2.1.4-4.4,1.6-5.6v-.2c0-1.6-1.4-.5-1.8,0-.8,1-1.3,2.3-1.5,3.8-1.1-.8-2.5-2.3-1.7-4.3.6-1.5,1.9-2.4,3-2.9,0,0,0-.3,0-.4-1-.5-2-.2-2.9.6-.6.5-1.1,1.2-1.7,1.8-.4.5-.8.5-1.2,0-.3-.4-.5-.8-.7-1.3-.7-1.9.2-4,1.4-4.8l.3.4ZM95.8,182.5h.6v-.2h-.6v.2ZM96.9,181.7c-.3,0-.5.2-.8.3h0c.3,0,.5,0,.8-.2h0ZM102.2,185.6h0c0,.4.2.8.4,1.1,0,0,0,0,0,0-.2-.3-.3-.7-.4-1h0ZM103,186.7c0-.2-.3-.4-.3-.6s0,0,0,0c0,.3.2.5.4.7,0,0,0,0,0-.1h0ZM106.3,176.9c.3-.2.6-.3.9-.3h0c-.3-.1-.6,0-.9.2,0,0,0,.2,0,.1ZM105.8,176.4h.7-.7ZM111.1,183s0,.1,0,0c0-.4,0-.9-.2-1.3,0,0,0,0,0,0,0,.4,0,.8,0,1.2h0ZM110.8,182.8c0,.1,0,0,0,0,0-.4,0-.8,0-1.1h0c0,.4,0,.8,0,1.1ZM108.5,186.9h0c-.2-.2-.4-.4-.6-.6h0c.2.2.4.4.6.5h0ZM107.6,186c.3-.2.6,0,.7.3h0c-.2-.4-.5-.5-.8-.3h.1ZM112,201.6c0-.4,0-.9.2-1.3,0,0,0-.1,0,0,0,.4,0,.9-.2,1.3h0ZM111.7,201.1c0-.6,0-1.2,0-1.7h0c0,.6,0,1.2,0,1.7h0ZM104.2,198.6c0,.4,0,.9,0,1.3,0,0,0,0,0,0,0-.4-.2-.8,0-1.2,0,0,0-.1,0,0h0ZM104.2,198.9c0,.6.2,1.1.4,1.6,0,0,0,0,0,0-.2-.5-.3-.9-.4-1.5h0ZM103,190.9h0c-.2-.3-.3-.6-.5-1h0c.2.3.3.6.5.9h0ZM100.5,179.4v-.8h0v.8h0ZM100.2,179.9v-1.1h0v1.1h0ZM97.4,192.8c-.2.4-.3,1-.2,1.4h0c0-.5,0-.9,0-1.3,0,0,0-.2,0,0h0ZM97.9,192.6c-.2.3-.3.8-.3,1.3h0c0-.5,0-.9.3-1.2,0,0,0-.1,0,0h0ZM97.6,188.5c-.2,0-.4.2-.6.3h0c.2.1.4,0,.6-.2,0,0,0-.2,0-.1ZM96.9,189.7c.2-.2.4-.4.7-.5h0c-.3-.1-.5.2-.7.4,0,0,0,.2,0,.1Z"/>
      <path class="st19" d="M111,181.8s0,0,0,0c0,.4,0,.8,0,1.2,0,0,0,.1,0,0,0-.4,0-.9-.2-1.3h0Z"/>
      <path class="st19" d="M110.8,181.6h0c0,.4,0,.8,0,1.1,0,.1,0,0,0,0,0-.4,0-.8,0-1.1Z"/>
      <path class="st19" d="M107.2,176.6h0c-.3-.1-.6,0-.9.2,0,0,0,.2,0,.1.3-.2.6-.3.9-.3Z"/>
      <path class="st19" d="M106.5,176.4h-.7.7Z"/>
      <path class="st19" d="M108.4,186.1c-.2-.4-.5-.5-.8-.3h0c.3-.2.6,0,.7.3h.1Z"/>
      <path class="st19" d="M108.5,186.9h0c-.2-.2-.4-.4-.6-.6h0c.2.2.4.4.6.5h0Z"/>
      <path class="st19" d="M111.8,199.3h0c0,.6,0,1.2,0,1.7h0c0-.6,0-1.2,0-1.7Z"/>
      <path class="st19" d="M112.2,200.2s0-.1,0,0c0,.4,0,.9-.2,1.3h0c0-.4,0-.9.2-1.3h0Z"/>
      <path class="st19" d="M100.5,178.6h0v.8h0v-.8Z"/>
      <path class="st19" d="M100.2,178.8h0v1.1h0v-1.1Z"/>
      <path class="st19" d="M103,186.9s0,0,0-.1c0-.2-.3-.4-.3-.6s0,0,0,0c0,.3.2.5.4.7h0Z"/>
      <path class="st19" d="M102.2,185.6h0c0,.4.2.8.4,1.1,0,0,0,0,0,0-.2-.3-.3-.7-.4-1h0Z"/>
      <path class="st19" d="M103.1,190.8c-.2-.3-.3-.6-.5-1h0c.2.3.3.6.5.9h0Z"/>
      <path class="st19" d="M96.9,181.8h0c-.3-.1-.5,0-.8.2h0c.3,0,.5,0,.8-.2Z"/>
      <path class="st19" d="M96.5,182.5v-.2h-.6c.2.1.4.1.6.1h0Z"/>
      <path class="st19" d="M104.2,198.6s0-.1,0,0c0,.4,0,.9,0,1.3,0,0,0,0,0,0,0-.4-.2-.8,0-1.2h0Z"/>
      <path class="st19" d="M104.3,198.9h0c0,.6.2,1.1.4,1.6,0,0,0,0,0,0-.2-.5-.3-.9-.4-1.5h0Z"/>
      <path class="st19" d="M97.6,188.6s0-.2,0-.1c-.2,0-.4.2-.6.3h0c.2.1.4,0,.6-.2Z"/>
      <path class="st19" d="M97.6,189.2h0c-.3-.1-.5.2-.7.4,0,0,0,.2,0,.1.2-.2.4-.4.7-.5Z"/>
      <path class="st19" d="M98,192.7s0-.1,0,0c-.2.3-.3.8-.3,1.3h0c0-.5,0-.9.3-1.2h0Z"/>
      <path class="st19" d="M97.5,192.8s0-.2,0,0c-.2.4-.3,1-.2,1.4h0c0-.5,0-.9,0-1.3h0Z"/>
    </g>
    <g>
      <path d="M97.4,174.7l.9,1.8c0,.2,0,.4-.2.2-.3-.6-.7-1.3-1-1.9,0,0,.2,0,.2-.1h0Z"/>
      <path class="st17" d="M94.6,176.5s.2-.3.2,0c-.4,2.8,0,5.8,2.2,6.7,1,.4,2,.4,3,.6.9.2,1.9.6,2.7,1.2-.2-1.4,0-2.7,0-4.1.2-1.8.4-3.5,0-5.3-.3-1.6-.8-2.8-1.6-3.6,0-.1,0-.3.2-.4h0c1.3,1.4,1.8,3.6,1.8,5.8s-.8,5.2-.2,7.7c0,.1,0,.3-.2.2-1.2-.8-2.5-1.3-3.9-1.5-1-.2-2.1-.2-3-1-1.7-1.4-2-3.9-1.5-6.4h.3Z"/>
      <path class="st19" d="M97.1,174.8c.3.7.6,1.3,1,1.9,0,.2.3,0,.2-.2l-.9-1.8c1.6-.6,3.2-1.1,3.9-2.8.8.8,1.4,2,1.6,3.6.3,1.8,0,3.5,0,5.3-.2,1.4-.3,2.7,0,4.1-.9-.5-1.8-.9-2.7-1.2-1-.3-2-.2-3-.6-2.1-.9-2.6-3.9-2.2-6.7.6-.8,1.5-1.2,2.4-1.6h-.3ZM102.1,182.4c0-.4.2-.8.3-1.3,0,0,0-.1,0,0,0,.4-.2.9-.3,1.3,0,0,0,.1,0,0ZM102,181.9c0-.6.2-1.1.3-1.7,0,0,0-.1,0,0,0,.6-.2,1.1-.3,1.7,0,0,0,.1,0,0ZM95.1,179.5s0,0,0,0c-.2-.5-.2-1-.2-1.6h0c0,.6,0,1.1.2,1.6ZM94.8,178.8s0,0,0,0v-1.2s0-.1,0,0c0,.4,0,.9,0,1.3h0Z"/>
      <path d="M94.9,177.5s0-.1,0,0c0,.4,0,.9,0,1.3,0,0,0,0,0,0v-1.2h0Z"/>
      <path class="st17" d="M95,177.8h0c0,.6,0,1.1.2,1.6,0,0,0,0,0,0-.2-.5-.2-1-.2-1.6Z"/>
    </g>
    <g>
      <path class="st19" d="M180.7,172c.1.4.1.9,0,1.4h0c.1-.4.1-.9,0-1.3h0c-1.7-1.2-3.4-2.1-5.2-3h0c-.1,0-.2-.1-.3-.2-1.3,2.1-2.9,3.9-4.5,5.4-.1.1-.2-.2-.1-.3,1.6-1.5,3.1-3.3,4.4-5.3-.5-.3-1.1-.5-1.6-.8,0,.3,0,.6-.2.9h-.2c-2.3-1.6-5.1-1.3-6.5,2.1-.7,1.6-.9,3.3-1.1,5.1-.1,1.4-.3,2.7-.8,3.9,1,0,1.9,0,2.9.1,1,.2,2,.7,3,.7,2.7.2,3.8-3.8,3.6-7.2,0-.1,0-.2.2,0h.2c1,2,.8,4.9-.4,6.7,1.4,0,2.7-1.3,3.2-3.2.6-2,0-4.4-1-5.8v-.2c.2-1.5,1.4-.2,1.8.4.7,1.1,1.1,2.6,1.1,4.1,1-.5,2.4-1.5,2.2-3.2,0,0-.2-.1-.3-.2h-.4ZM165.4,177.8v-1.4h.1v1.4h-.1ZM165.7,177.4v-1.8h0v1.8h0ZM173.4,176.4c0,.5,0,.9-.2,1.3,0,0-.1,0,0,0,.2-.4.2-.8.2-1.2h0ZM173.2,176.7h0c0,.6-.3,1.1-.6,1.5,0,0-.1,0,0,0,.3-.4.4-.9.5-1.4h.1ZM180.3,173c0-.5,0-.9-.2-1.3,0,0,0-.1,0,0,.2.4.2.9.2,1.3h0Z"/>
      <path d="M175.3,168.9h0s0,.1,0,0h0Z"/>
      <path d="M173.3,176.4h0c0,.5,0,.9-.2,1.3,0,0-.1,0,0,0,.2-.4.2-.8.2-1.2h0Z"/>
      <path d="M173.2,176.7h0c0,.6-.3,1.1-.6,1.5,0,0-.1,0,0,0,.3-.4.4-.9.5-1.4h.1Z"/>
      <path d="M180.1,171.8c.2.4.2.8.2,1.3h0c0-.5,0-1-.2-1.3h0Z"/>
      <path d="M180.6,171.9h0Z"/>
      <path d="M180.6,172h0c.1.4.1.9,0,1.3,0,0,0,.1,0,0,.2-.4.2-.9,0-1.4h0Z"/>
    </g>
    <g>
      <path class="st17" d="M152.4,201.6c-.2-1.4-.2-2.8.7-3.7s1.5-.7,2.3-.6c-.5,1.7-.9,3.6-.6,5.5.3,1.7,1.1,3.2,2.3,3.5,0,0,.2-.1.1-.3-1.5-2.7-1.1-6.6.8-8.7-.1,1.6-.1,3.3.3,4.8.2.8,1.2,2.8,1.9,1.6v-.2c-1.1-3-1-6.8,1.1-8.8,1-.9,2-1.3,3.1-1.6.9-.2,1.7-.5,2.4-1.3,0,1.3,0,2.6.2,3.8.2,1.3.5,2.6.6,4,.2,3.6-2.3,5.2-4.4,5.1v.4c1.3,1.3,3.1,1,4.2-.7,0,1.8-.7,3.6-1.9,4.4-1.3.8-2.8.3-3.7-1.2h-.1c-1,.4,0,1.9.3,2.4.7.9,1.7,1.4,2.6,1.3-.3,1.6-1,3.7-2.4,2.9-1-.6-1.8-2.1-2.3-3.5,0-.1-.2,0-.2,0-.2,1.4.2,2.7.8,3.8.4.7.9,1.3,1.4,1.9.3.4.4,1,.2,1.5-.2.4-.4.8-.7,1.1-1.1,1.2-2.5.5-3.2-1-.7-1.4-.8-3.3-.9-5,0-.2-.2-.2-.2,0-.8,1.9-.8,4.1-.2,6.1-1.6-.9-2.3-3.5-1.6-5.9,0-.1,0-.3-.1-.3-.9.5-1.4,1.5-1.6,2.8-.4-1-.6-2.2-.7-3.4h0c1.1-.2,2.3-.8,3.3-1.5,3.2-2.2,5.7-6.3,7.5-10.7,0-.2-.1-.3-.2-.1-1.7,4.1-3.8,7.8-6.8,10.1-1.3,1-2.6,1.7-4.1,1.9-.9-.7-1.6-1.9-2-3.3.5.5,1.1.9,1.7,1,.1,0,.2-.2.1-.3-1.6-2-2.1-5.6-1.2-8.4.4,2.9,1.2,6.4,3.5,6.5.1,0,.2-.2,0-.3-1.2-1.5-2.1-3.6-2.4-5.9v.3Z"/>
      <path class="st19" d="M153,198c-.9.9-.9,2.3-.7,3.7.4,2.3,1.2,4.3,2.4,5.9v.3c-2.3-.2-3.2-3.6-3.5-6.5-.9,2.8-.4,6.4,1.2,8.4,0,.1,0,.4-.1.3-.6-.2-1.2-.5-1.7-1,.4,1.4,1.1,2.6,2,3.3,1.4-.3,2.8-.9,4.1-1.9,2.9-2.3,5.1-6,6.8-10.1,0-.2.3,0,.2.1-1.8,4.4-4.3,8.5-7.5,10.7-1,.7-2.2,1.2-3.3,1.5h0c.1,1.2.4,2.3.7,3.4.2-1.3.8-2.3,1.6-2.8.1,0,.2.1.1.3-.7,2.4,0,5,1.6,5.9-.6-1.9-.5-4.2.2-6.1,0-.2.2-.1.2,0,0,1.7.2,3.6.9,5,.7,1.5,2.1,2.3,3.2,1,.3-.3.5-.7.7-1.1.3-.6.2-1.1-.2-1.5-.5-.6-1-1.2-1.4-1.9-.6-1.1-1-2.4-.8-3.8,0-.1.2-.2.2,0,.5,1.4,1.3,2.9,2.3,3.5,1.4.8,2-1.4,2.4-2.9-1,0-1.9-.4-2.6-1.3-.4-.5-1.3-2-.3-2.4h.1c.9,1.5,2.4,2,3.7,1.2,1.2-.8,1.9-2.6,1.9-4.4-1.1,1.7-2.9,2-4.2.7v-.4c2.1,0,4.6-1.5,4.4-5.1,0-1.4-.4-2.7-.6-4-.2-1.3-.2-2.6-.2-3.8-.7.7-1.6,1-2.4,1.3-1.1.3-2.2.7-3.1,1.6-2.1,2.1-2.2,5.8-1.1,8.8v.2c-.7,1.1-1.6-.9-1.9-1.6-.5-1.5-.5-3.2-.3-4.8-1.9,2-2.3,5.9-.8,8.7,0,.1,0,.3-.1.3-1.2-.3-2.1-1.8-2.3-3.5-.3-1.9.1-3.7.6-5.5-.8-.1-1.6-.1-2.3.6v-.3ZM153.6,198.2h0c.2-.4.5-.5.8-.5h0c-.3.1-.5.3-.7.5h-.1ZM153.6,198.6h0c.2-.2.5-.3.7-.4h0c-.2.2-.5.3-.7.4ZM150.9,204s0-.1,0,0c0,.4.2.8.4,1.2,0,0,0,.1,0,0-.2-.4-.3-.8-.4-1.2ZM150.9,205h0c0,.3,0,.6.1,1h0c0-.3,0-.6-.1-1ZM156.7,201.9c-.2-.3-.2-.8,0-1.1h0c-.2.3-.2.7,0,1h0ZM157.1,200.5h0c0,.3-.1.6-.2.9h0c.1-.3.2-.6.2-.8h0ZM164.3,194.1h0c.4-.1.7-.1,1.1-.2h0c-.4.1-.7.2-1.1.2ZM164.8,193.6h0c.3-.1.6-.1.9-.1h0c-.3.1-.6.1-.9.1ZM153.3,212.7h0c.2-.1.3-.2.5-.3h0c-.2.1-.3.2-.5.3ZM153.5,213h0c.2-.1.4-.2.7-.3h0c-.2.1-.4.2-.7.3ZM157.9,207.8s.1,0,0,0c0,.3-.2.5-.4.6,0,0-.1,0,0-.1s.3-.3.3-.5h0ZM157.3,209.3h0c.2-.2.4-.4.6-.7h0c-.2.3-.4.5-.6.7ZM159.9,207.9c.2-.3.3-.5.5-.8h0c-.2.3-.3.6-.5.8h0ZM155.8,216.8s0-.1,0,0c.1.3.2.7.3,1,0,0,0,.1,0,0-.1-.3-.2-.7-.3-1ZM156.2,217.3q0-.1,0,0v.8h0c0-.3,0-.6-.1-.8h.1ZM165,204.3h0c.3-.1.5-.2.7-.4h0c-.2.4-.5.5-.8.5h.1ZM165.3,204.1h0c.3-.3.6-.5.9-.9h0c-.2.4-.5.7-.9.8h0ZM159.9,214.8s0-.1,0,0c0,.2.2.5.3.7,0,0,0,.1,0,0,0-.2-.2-.5-.3-.7ZM160.2,214.7h0c.1.3.2.6.4.8,0,0,0,.1,0,0-.2-.2-.4-.5-.4-.8ZM162.4,213.6s0-.1,0,0c.3.2.5.3.8.2h0c-.3,0-.6,0-.8-.2ZM162.5,214.2h0c.3,0,.6,0,.8-.1h0c-.3.3-.6.3-.9.1h0Z"/>
      <path class="st19" d="M153.6,198.1h0c.2,0,.5-.2.7-.3h0c-.3-.1-.6,0-.8.3h.1Z"/>
      <path class="st19" d="M153.5,198.5s0,.2,0,.1c.2,0,.5-.2.7-.3,0,0,0-.2,0-.1-.2.1-.5.2-.7.3Z"/>
      <path class="st19" d="M151,204h0c0,.4.2.8.4,1.2,0,0,.1,0,0,0-.2-.4-.3-.7-.4-1.2Z"/>
      <path d="M151,205h0c0,.3,0,.6.1,1h0c0-.3,0-.6-.1-1Z"/>
      <path d="M156.7,200.8c-.2.3-.2.8,0,1.1h0c-.1-.3-.1-.7,0-1,0,0,0-.1,0,0h0Z"/>
      <path class="st19" d="M157.1,200.5h0c0,.3-.1.6-.2.8,0,0,0,.1,0,0,.1-.3.2-.6.2-.9h0Z"/>
      <path class="st19" d="M164.3,194h0c.4.1.7.1,1.1,0h0c-.4-.1-.7-.1-1.1,0Z"/>
      <path class="st19" d="M164.8,193.4h0c.3.1.6.1.9.1h0c-.3-.1-.6-.1-.9-.1Z"/>
      <path d="M153.3,212.6h0c.2.1.3.1.5,0h0c-.2-.1-.3,0-.5,0Z"/>
      <path d="M153.5,212.9h0c.2.1.4,0,.7,0h0c-.2-.1-.4,0-.7,0Z"/>
      <path d="M158,207.9s0-.2,0,0-.2.4-.3.5c0,0,0,.2,0,.1.2-.1.3-.3.4-.6h0Z"/>
      <path d="M157.3,209.2s0,.1,0,0c.2-.2.4-.4.6-.7,0,0,0-.1,0,0-.2.3-.4.5-.6.7Z"/>
      <path class="st19" d="M160.4,207.1c-.2.3-.3.5-.5.8,0,0,0,.1,0,0,.2-.3.3-.5.5-.8,0,0,0-.1,0,0Z"/>
      <path d="M155.8,216.8h0c.1.3.2.7.3,1h0c-.1-.3-.2-.7-.3-1Z"/>
      <path d="M156.3,217.3c0-.1-.1,0,0,0,0,.3,0,.6.1.8h0v-.8h-.1Z"/>
      <path d="M165,204.2h0c.3.1.6,0,.8-.3,0,0,0-.2,0-.1-.2.2-.5.3-.7.3h-.1Z"/>
      <path class="st19" d="M165.2,204h0c.3,0,.7-.3.9-.7,0,0,0-.1,0,0-.2.4-.5.6-.9.8h0Z"/>
      <path d="M159.9,214.7h0c0,.2.2.5.3.7h0c0-.2-.2-.5-.3-.7Z"/>
      <path d="M160.3,214.6h0c0,.3.2.6.4.8h0c-.2-.2-.3-.5-.4-.8Z"/>
      <path d="M162.4,213.5h0c.2.2.6.3.8.2h0c-.3,0-.5,0-.8-.2Z"/>
      <path d="M162.6,214.1h0c.3.3.6.3.9.1h0c-.3,0-.6,0-.8-.1h0Z"/>
    </g>
    <g>
      <path class="st17" d="M136.6,238.7c-.3.3-1.1.7-1.4.2-.3-.4.6-2,.7-2.4.2-.5.4-1.1.5-1.7,0-.3.5-2-.1-1.8-.3.1-.4.8-.5,1.1-.2.7-.5,1.3-.9,1.9-.3.6-.8,1.2-1.3,1.3-.6,0-1.1-.6-1.5-1.1-.5-.5-1.3-1-1.2-2,0-.7.3-1.5.4-2.1.2-.7.3-1.9.9-2.1.4-.2.8,0,1.2.2s.9.6,1.4.6.3,0,.4-.3c0-.4-.2-.6-.3-.8-.4-.4-.8-.7-1.2-.9s-1.6-.5-1.1-1.4c.4-.8,1.2-.4,1.6.1.4.4.7,1,1.1,1.4.4.3.7.5,1.2.7h.1c.2-1.1-.4-1.8-.9-2.3s-1-.9-1.5-1.2c-.3-.2-.9-.4-.4-1.1.1-.2.3-.3.5-.5.4-.4.9-.7,1.4-.6.5.2.9.9,1.2,1.5.3.5.7,1.2,1.1,1.7.2.2.4.3.5,0h0c0-2.2-1.3-3.4-2.4-4.3,1.1-1.4,2.6-1.7,4-1.6.5,0,.9,0,1.3.6.3.5.5,1.1.8,1.7.5,1.1.9,2.2,1.4,3.2h.1c.4-.7.3-1.7.1-2.5-.3-1-.7-2-1.1-2.9,2.2,1,3.7,4,4,7.3-1.6,0-3.2,0-4.8.4-2.4.5-4.8,1.5-6.9,3.1,0,0,0,.1,0,0,2.3-1.3,4.5-2.5,7-3,1.5-.3,3-.4,4.5-.3h0c-.5,2.9-1.9,5.4-3.7,6.8-.2.1-.5.5-.7.5-.4,0-.2-.9-.2-1.3s.2-1.3,0-1.8c0-.3-.3-.5-.5-.3-.3.2-.3,1-.3,1.4,0,.8-.1,1.6-.2,2.4,0,.8-.2,1.6-.7,2.2-.4.4-.8.6-1.3.7-.3,0-1.3.3-1-.6.2-.7.5-1.3.7-2,.2-.6.3-1.2.4-1.8,0-.5,0-1.8-.5-1.4-.3.2-.4.9-.4,1.3-.1.7-.3,1.4-.5,2.1-.2.7-.6,1.3-1,1.6h0Z"/>
      <path class="st19" d="M135.1,238.9c.4.4,1.1,0,1.4-.2.5-.4.8-1,1-1.6.2-.7.4-1.4.5-2.1,0-.4.1-1.1.4-1.3.6-.3.6,1,.5,1.4,0,.6-.2,1.3-.4,1.8-.2.7-.5,1.3-.7,2-.3.9.6.7,1,.6.4,0,.9-.3,1.3-.7.5-.5.6-1.3.7-2.2,0-.8.1-1.6.2-2.4,0-.4,0-1.2.3-1.4.2-.2.5,0,.5.3.2.5,0,1.3,0,1.8s-.3,1.3.2,1.3.5-.3.7-.5c1.8-1.4,3.2-3.9,3.7-6.8h0c-1.5,0-3,0-4.5.3-2.4.5-4.7,1.7-7,3h0c2.1-1.7,4.6-2.6,6.9-3.1,1.6-.3,3.2-.5,4.8-.4-.3-3.3-1.8-6.2-4-7.3.4.9.8,1.9,1.1,2.9.2.8.3,1.8-.1,2.5h-.1c-.5-1.1-.9-2.2-1.4-3.2-.2-.6-.5-1.2-.8-1.7-.4-.5-.8-.6-1.3-.6-1.4,0-2.9.3-4,1.6,1.1.9,2.3,2.1,2.4,4.2h0c-.2.3-.4.1-.5.1-.4-.4-.7-1.1-1.1-1.7-.3-.6-.7-1.3-1.2-1.5-.5-.1-1,.2-1.4.6l-.5.5c-.5.7.1.9.4,1.1.5.3,1,.7,1.5,1.2s1.1,1.2.9,2.2c0,0,0,.1-.1.1-.4-.1-.8-.3-1.2-.7s-.7-.9-1.1-1.4c-.5-.5-1.2-.9-1.6-.1-.5,1,.7,1.2,1.1,1.4.4.2.8.5,1.2.9s.4.4.3.8c0,.2-.2.3-.4.3-.4,0-.9-.4-1.4-.6-.4-.2-.8-.4-1.2-.2-.6.2-.8,1.4-.9,2.1-.2.7-.4,1.4-.4,2.1,0,1,.8,1.5,1.2,2,.4.4.9,1.1,1.5,1.1s1-.7,1.3-1.3c.4-.6.7-1.2.9-1.9.1-.4.2-1,.5-1.1.7-.3.2,1.5.1,1.8-.1.6-.3,1.2-.5,1.7-.1.4-1.1,2-.7,2.4h0ZM135.6,238.8h0c.2-.1.3-.1.4-.3h0c-.1.2-.3.3-.5.3h.1ZM133.2,236.8s0-.1,0,0c.2,0,.5,0,.7-.3h0c-.2.4-.5.5-.7.4h0ZM133.5,237h0c.2-.1.5-.1.6-.4h0c-.2.3-.4.4-.7.4h0ZM131.4,234h0c0-.4.1-.8.4-1.1h0c-.2.3-.3.6-.3,1h0ZM140,237.6h0c0-.2.2-.5.3-.7h0c0,.2-.2.5-.2.7h-.1ZM140.2,237.7h0c.1-.3.2-.6.3-1h0c0,.4-.1.7-.3,1ZM142.1,235.9h0c.2-.2.5-.4.7-.6h0c-.2.2-.5.4-.7.6ZM135.5,227.1s0,.1,0,0c-.1-.2-.2-.4-.4-.4h0c.2,0,.4.2.5.4h-.1ZM136,227.3h0c-.2-.4-.4-.7-.7-.9h0c.3.2.5.5.7.9ZM139.6,228.9h0c.2-.2.4-.3.6-.4h0c-.2.1-.4.3-.6.5h0ZM140.1,229h0c.1,0,.3-.2.4-.2h0c-.1,0-.3.2-.4.2ZM141.2,222.7h0c0-.2-.1-.3-.3-.4,0,0,0-.1,0,0,.2,0,.3.2.3.5h0ZM141.5,222.6h0c-.1-.3-.3-.6-.5-.8h0c.2.2.4.5.5.8ZM145.5,225.6h0c0-.3-.1-.7-.3-.9,0,0,0-.1,0,0,.2.3.3.6.3,1h0ZM145.7,225.2h0c-.2-.4-.3-.7-.4-1.1h0c.2.4.3.7.4,1.1Z"/>
      <path class="st19" d="M135.6,238.7h0c.2.1.4.1.5-.2,0,0,0-.1,0,0-.1.2-.3.2-.4.2h-.1Z"/>
      <path class="st19" d="M133.2,236.7h0c.3.2.6,0,.7-.4,0,0,0-.1,0,0-.1.3-.4.4-.7.3h0Z"/>
      <path class="st19" d="M133.5,236.9h0c.3.1.5.1.7-.3,0,0,0-.1,0,0-.2.2-.4.3-.6.3h0Z"/>
      <path d="M131.4,234h0c0-.4.1-.8.3-1h0c-.2.3-.4.6-.4,1.1h0Z"/>
      <path class="st19" d="M139.9,237.6h0c0-.2.2-.5.2-.7h0c0,.2-.2.5-.3.7h.1Z"/>
      <path class="st19" d="M140.2,237.6s0,.1,0,0c.2-.3.3-.6.3-1h0c0,.4-.1.7-.3,1Z"/>
      <path class="st19" d="M142.1,235.9s0,.1,0,0c.2-.2.5-.4.7-.6h0c-.2.2-.5.4-.7.6Z"/>
      <path d="M135.5,227.1h0c0-.3-.3-.4-.5-.4h0c.2,0,.3.2.4.4h.1Z"/>
      <path d="M135.9,227.3h0c-.2-.4-.4-.7-.7-.9h0c.3.2.5.5.7.9Z"/>
      <path class="st19" d="M139.7,228.9s0,.1,0,0c.1-.2.3-.3.4-.5,0,0,0-.1,0,0-.2.1-.3.3-.5.5h.1Z"/>
      <path class="st19" d="M140,228.9s0,.1,0,0c.1,0,.3-.1.4-.2h0c-.1,0-.3.1-.4.2Z"/>
      <path class="st19" d="M141.1,222.7h0c0-.2-.2-.4-.3-.5h0c.1,0,.2.2.3.4h0Z"/>
      <path class="st19" d="M141.5,222.7h0c0-.3-.3-.6-.5-.8h0c.2.2.4.5.5.8Z"/>
      <path d="M145.4,225.6h0c0-.4-.1-.7-.3-1h0c.1.3.2.6.3.9h0Z"/>
      <path d="M145.6,225.3h0c-.1-.4-.3-.7-.4-1.1h0c.1.4.3.7.4,1.1Z"/>
    </g>
    <g>
      <path class="st7" d="M158.1,229c.8-.7.8-1.9.7-3.2-.3-2-1-3.9-2-5.3v-.3c2.1.3,2.7,3.4,2.9,5.9.9-2.4.6-5.6-.8-7.4,0-.1,0-.3.1-.3.5.2,1,.5,1.4,1-.3-1.3-.8-2.3-1.6-3-1.2.1-2.5.7-3.6,1.4-2.6,1.8-4.6,5-6.2,8.4,0,.1-.2,0-.2-.1,1.7-3.8,4-7.2,6.9-8.9.9-.6,1.9-.9,2.9-1.1h0c0-1.1-.2-2-.5-3-.2,1.1-.7,2-1.5,2.3,0,0-.2-.1-.1-.2.7-2,0-4.3-1.3-5.3.5,1.7.3,3.7-.4,5.3,0,.1-.2,0-.2,0,0-1.5,0-3.1-.6-4.4-.6-1.4-1.8-2.1-2.8-1.1s-.5.6-.6.9c-.2.5-.2.9,0,1.4.4.6.8,1.1,1.2,1.8.5,1,.8,2.1.6,3.4,0,.1-.2.2-.2,0-.4-1.2-1-2.6-1.9-3.2-1.2-.8-1.8,1.1-2.2,2.4.8,0,1.6.5,2.3,1.3.3.4,1.1,1.9.2,2.1h0c-.8-1.3-2.1-1.9-3.2-1.3-1.1.6-1.7,2.1-1.8,3.7,1-1.4,2.6-1.6,3.7-.4v.4c-1.8-.2-4.1,1-4,4.2,0,1.2.3,2.4.4,3.5,0,1.1.1,2.3,0,3.4.7-.6,1.4-.8,2.2-1,1-.2,1.9-.5,2.8-1.2,1.9-1.7,2.1-5,1.2-7.7v-.2c.6-1,1.4.9,1.6,1.6.4,1.3.3,2.8.2,4.3,1.7-1.7,2.2-5.1,1-7.5,0-.1,0-.3.1-.2,1,.3,1.8,1.7,1.9,3.2.2,1.6-.2,3.3-.7,4.8.7.2,1.4.2,2-.4h.1ZM157.6,228.8h0c-.2.2-.4.3-.7.3h0c.2-.1.4-.3.7-.4h0ZM157.7,228.4h0c-.2.2-.4.3-.6.4h0c.2-.1.4-.3.6-.4ZM160.2,223.8h0c0-.4-.2-.7-.3-1,0,0,0-.1,0,0,.1.3.2.7.3,1.1h0ZM160.2,223h0v-.8h0v.8ZM155.1,225.3c.1.3.1.7,0,1h0c.1-.3.2-.6,0-.9h0ZM154.7,226.5h0c0-.3.1-.5.2-.8h0c0,.2-.2.5-.2.7h0ZM148.1,231.7h0c-.3.1-.6.1-1,.1h0c.3-.1.6-.1,1-.1ZM147.7,232.1h0c-.3.1-.5.1-.8.1h0c.2-.1.5-.1.8-.1ZM158.3,216.1h0c-.1.1-.3.1-.4.2h0c.1-.1.3-.1.4-.2ZM158.2,215.8h0c-.2,0-.4,0-.6.1h0c.2,0,.4,0,.6-.1ZM154.2,220.1s-.1,0,0,0c0-.2.2-.4.3-.5,0,0,.1,0,0,.1s-.2.3-.3.4ZM154.7,218.8h0c-.2.1-.4.3-.5.6h0c.2-.3.3-.5.6-.6h-.1ZM152.4,219.9c-.2.2-.3.5-.5.7h0c.2-.2.3-.5.5-.7h0ZM156.3,212.3h0c0-.3-.2-.6-.2-.9h0c0,.3.2.6.3.9h-.1ZM155.9,211.9s0,.1,0,0v-.7h0v.7ZM147.8,222.7h0c-.2.1-.5.1-.7.4h0c.2-.2.4-.3.7-.3h0ZM147.6,222.8h0c-.3.2-.5.4-.8.7h0c.2-.3.5-.6.8-.7h0ZM152.6,213.9s0,.1,0,0c0-.2-.1-.4-.2-.6,0,0,0-.1,0,0,0,.2.1.4.2.6ZM152.3,213.9h0c0-.3-.2-.5-.3-.7,0,0,0-.1,0,0,.2.2.3.5.4.8h0ZM150.4,214.8s0,.1,0,0c-.2-.2-.4-.3-.7-.2h0c.3,0,.5,0,.7.2ZM150.3,214.2s0,.1,0,0c-.2-.1-.5-.1-.7,0h0c.2-.2.6-.2.8,0h-.1Z"/>
      <path class="st19" d="M157.7,228.9s0-.1,0,0c-.2.1-.4.3-.7.3h0c.2.1.5,0,.7-.2h0Z"/>
      <path class="st19" d="M157.7,228.5h0c-.2-.1-.4,0-.6.2h0c.2.1.4,0,.6-.2Z"/>
      <path d="M160.1,223.9h0c0-.4-.2-.7-.3-1.1h0c.1.3.2.7.3,1h0Z"/>
      <path d="M160.1,223h0v-.8h0v.8Z"/>
      <path class="st19" d="M155,226.3c.2-.3.2-.7,0-1h0c.1.3,0,.6,0,.9,0,0,0,.1,0,0h0Z"/>
      <path class="st19" d="M154.6,226.5h0c0-.3.1-.5.2-.7h0c-.1.2-.2.5-.2.8h0Z"/>
      <path class="st19" d="M148.1,231.8h0c-.3-.1-.6-.1-1-.1h0c.3.1.6.1,1,.1Z"/>
      <path class="st19" d="M147.7,232.3h0c-.2-.1-.5-.1-.8-.1h0c.2.1.5.1.8.1Z"/>
      <path d="M158.4,216.2h0c-.1-.1-.3-.1-.4,0h0c.1.1.3.1.4,0Z"/>
      <path d="M158.2,215.9h0c-.2,0-.4,0-.6.1h0c.2,0,.4,0,.6-.1Z"/>
      <path d="M154.1,220s0,.2,0,0,.2-.3.3-.4c0,0,0-.2,0-.1-.2.1-.3.3-.3.5Z"/>
      <path d="M154.7,218.9s0-.1,0,0c-.2.1-.4.3-.6.6,0,0,0,.1,0,0,.2-.2.3-.4.5-.6h.1Z"/>
      <path d="M151.9,220.6c.2-.2.3-.4.5-.7,0,0,0-.1,0,0-.2.2-.3.5-.5.7h0Z"/>
      <path d="M156.2,212.3h0c0-.3-.2-.6-.3-.9h0c0,.3.2.6.2.9h.1Z"/>
      <path d="M155.8,211.9h0v-.7h0v.7Z"/>
      <path d="M147.8,222.8h0c-.3-.1-.5-.1-.7.2,0,0,0,.1,0,0,.2-.2.4-.3.7-.3h0Z"/>
      <path class="st19" d="M147.6,222.9h0c-.3,0-.6.2-.8.6,0,0,0,.1,0,0,.2-.3.5-.5.8-.6h0Z"/>
      <path d="M152.6,213.9h0c0-.2-.1-.4-.2-.6h0c0,.2.1.4.2.6Z"/>
      <path d="M152.3,214h0c0-.3-.2-.6-.4-.8h0c.2.2.3.5.3.7h0Z"/>
      <path d="M150.4,214.8h0c-.2-.2-.5-.3-.7-.2h0c.3,0,.5,0,.7.2Z"/>
      <path d="M150.3,214.3h0c-.2-.2-.5-.2-.8,0,0,0,0,.1,0,0,.2-.1.5-.1.7,0h.1Z"/>
    </g>
    <g>
      <path class="st21" d="M112,191.9c-.3-.7-.9-.9-1.5-.7-.7.2-1.1.9-1.5,1.6.5-.3,1-.4,1.4,0,.5.4.5,1.3.4,2,0,.9-.3,1.7.4,2.3.3.2.6.4.9.8.3.6.4,1.4.2,2.1h.3c.4-.7.5-1.5.2-2.3-.2-.5-.5-.8-.7-1.3-.3-.7-.4-1.6-.3-2.4,0-.7.4-1.3,0-1.9l.2-.2ZM110.7,191.4c.3,0,.5,0,.8.3h0c-.2,0-.5-.2-.7,0h0c0-.1-.1-.2-.1-.2ZM110.9,191.7c.2,0,.5.2.7.4h0c-.2,0-.4-.2-.7-.4h0Z"/>
      <path class="st21" d="M108.6,192c.2-1.6-.6-2.5-1.6-2.2-.6.2-1,.8-1.7.6-.3,0-.6-.2-.8-.5-.3-.2-.8-.9-1.2-.7-.4.1-.6.7-.7,1.2,0,.3,0,.6,0,.9v1.1c.2-.6.5-1.1,1-.9.4.1.5.6.8.9.3.4.7.4,1.1,0,0-.2.3-.4.4-.6.5-.6,1.2-1.2,1.8-.8.5.3.8,1,.8,1.7,0-.3,0-.5.2-.8h0ZM107.7,190.1c.2,0,.4.2.6.4h0c-.2,0-.3-.2-.6-.3,0,0,0-.1,0,0h0Z"/>
      <path class="st37" d="M116.2,197.4c0-.2-.2-.5-.3-.3,0,.2,0,.5,0,.8v.7s0-.1.2-.2h0c0-.2,0-.4.2-.6,0-.1,0-.3,0-.4Z"/>
      <path class="st37" d="M117.1,198.6c0-.3-.4-.1-.6,0,0,0-.2.2-.2.3,0,0,.3.1.4.1s.6,0,.5-.4h-.1Z"/>
      <path class="st37" d="M115.4,197.7c-.2-.2-.3.4-.3.6v.7h0c0-.4.4-.9,0-1.2h.1Z"/>
      <path class="st20" d="M110.7,194.1c0-1.6-1.2-1.4-1.9-1,0,.2-.2.3-.3.5h0c-.2.5-.3,1.1-.5,1.5-.4,1.3-.9,2.6-1.3,3.8.5-.3,1-.7,1.4-1.2,0,0,0,0,0,.1-.5.6-1,1-1.5,1.3h0c1.1,0,2.4-.2,3.4-1,0,0,0,0,0,.1-1,.8-2.1,1.1-3.2,1h0c1.7.5,3.4.7,5.2.5h0c0-.6,0-1.2,0-1.8-.2-.5-.6-.7-.9-.9s-.6-.6-.6-1.1.2-1.3.2-2v.2ZM110.4,195.8h0c0,.2,0,.6,0,.8,0,0,0,.1,0,0-.2-.2-.2-.7,0-.9h0Z"/>
      <path class="st20" d="M108.3,193.2c0-1.4-.7-2.3-1.7-1.7-.3.2-.6.5-.9.8s-.3.5-.5.7c-.3.3-.5.2-.8,0-.2-.2-.3-.5-.5-.8,0-.1-.2-.3-.3-.4-.6-.4-.8.3-1,.9v.3c.3,2.2,1.4,3.9,2.4,5.5.3.3.7.6,1,.9-.3-.9-.4-1.9-.5-2.9h0c0,1,.2,2,.5,3h0c0-1.5,0-3,.4-4.4h0c-.2,1.3-.4,2.7-.4,4.1.4-1.1.9-2.3,1.2-3.5.3-.8.5-1.6.8-2.5h.2ZM103.4,193.4h0c0,.3,0,.6,0,.8,0,0,0,.1,0,0,0-.3-.2-.6,0-.9h0ZM103.1,193.7h0c0,.4,0,.8.3,1.1,0,0,0,.1,0,0-.2-.3-.3-.7-.3-1.1Z"/>
      <path class="st37" d="M116.3,199.7v-.5c-.2,0-.4.2-.6.1h0c0,.3.3.5.5.5s.3,0,.3-.2h-.1Z"/>
      <path class="st1" d="M115.1,199.4c.2-.1.4-.3.6-.5-1,.7-2.1,1-3.2,1.2h-.3c-1.9.3-3.9.2-5.6-.7h-.2v.2h0c1.9,1.3,4,1.3,6,.7,1-.3,1.9-.7,2.8-1.3v.4Z"/>
      <path class="st20" d="M110.4,195.9s0-.1,0,0c-.2.3,0,.7,0,.9h0c0-.2,0-.5,0-.8h0Z"/>
      <path class="st20" d="M113,200.8h0c-.2,0-.5.2-.7.2-1.9.5-3.8.5-5.7-.5.5.7,1,1.2,1.6,1.5v.2c-.4-.2-.8-.4-1.1-.7.8,1.1,1.7,2.1,2.6,2.9v.2c-1.3-1.1-2.5-2.4-3.4-4.1.4,1.4.9,2.8,1.5,4.1.4.8.9,1.7,1.4,2.4.7.9,1.9,1.9,2.3.2.2-.8,0-1.8.3-2.6s1-.1,1.5-.6c1-.8.2-2.4-.3-3.2h0ZM113,201.6s0-.1,0,0c.2.2.3.5.2.8h0c0-.3,0-.5-.2-.7h0ZM112.7,201.9s0-.2,0-.1c0,.1.2.3.2.5,0,0,0,.1,0,0,0-.2,0-.3-.2-.4ZM107.5,203.6s0-.1,0,0c0,.3.2.6.4.9,0,0,0,.1,0,0-.2-.2-.4-.6-.4-.9ZM107.9,203.9s0-.1,0,0c0,.3.3.6.5.8,0,0,0,.1,0,0-.2-.2-.3-.5-.5-.9h0Z"/>
      <path class="st21" d="M114.3,203.3c0-.9-.5-1.7-1-2.2.4.6.7,1.4.5,2.3,0,.4-.4.8-.7,1-.5.3-1.2-.2-1.4.7-.2,1,.2,2.9-.9,3.1-.2,0-.5,0-.7-.2.2.2.4.3.5.4.8.4,1.5,0,1.9-1.1.2-.7.4-1.3.8-1.7.6-.6,1-1.2,1-2.4h0ZM113.6,204.7s0,0,0,.1c-.2.3-.5.6-.8.7,0,0,0-.2,0-.2.3-.1.5-.3.7-.6h.1ZM113.4,205.5h0c-.2.1-.4.2-.6.5,0,0,0,0,0,0,.2-.2.4-.4.6-.4h0Z"/>
      <path class="st20" d="M103.5,193.5s0-.1,0,0c0,.3,0,.6,0,.9h0c0-.3,0-.5,0-.8h0Z"/>
      <path class="st21" d="M113,201.6h0c0,.2.2.4.2.7h0c0-.3,0-.6-.2-.8h0Z"/>
      <path class="st20" d="M103.2,193.7h0c0,.4,0,.8.3,1.1,0,0,0,0,0,0,0-.3-.2-.7-.3-1.1Z"/>
      <path class="st21" d="M112.7,201.8s0,0,0,.1c0,.1.2.3.2.4,0,0,0,0,0,0,0-.2,0-.4-.2-.5Z"/>
      <path class="st21" d="M113.6,204.8s0-.2,0-.1c-.2.3-.5.5-.7.6v.2c.3-.1.6-.3.8-.7h-.1Z"/>
      <path class="st21" d="M113.4,205.7h0c-.2-.1-.5,0-.6.3,0,0,0,.1,0,0,.2-.2.4-.3.6-.4h0Z"/>
      <path class="st20" d="M105.9,199.8c-1.3-1.2-2.6-2.5-4.1-3.2-.2-.1-.5-.2-.8-.3h0c-.7,0-.8,1.1-.6,1.8,0,.5.3.9.5,1.3.2.4.4.8.4,1.3s-.2.9-.4,1.3c-.3.5-.7,1.1-.4,1.8,0,0,.5.6.8.8,1.2,0,2.3-.8,3.3-1.6l1.2-2.4c-.6.7-1.4,1.2-2.1,1.3v-.2c1-.2,1.8-.8,2.5-1.7h0c-.9.3-1.8,0-2.7-.6,0,0,0-.2,0-.1.8.6,1.6.8,2.5.7v-.2ZM102.2,204.1h0c-.3.2-.7.1-.9-.2,0,0,0-.2,0-.1.3.2.6.3.9.2h0ZM101.5,204.3h0c-.3.1-.5-.2-.7-.5,0,0,0-.1,0,0,.2.3.4.4.6.5h0Z"/>
      <path class="st20" d="M106.2,200.7h0c-.5,1.2-1,2.5-.8,4,0,.1,0,.2,0,0-.2-1.5.3-2.9.9-4.2-.4.8-.8,1.6-1.2,2.3h0c0,.1,0,.1-.2.2-.6,1.2-1.2,2.4-1.8,3.7,0,.2-.2.5-.3.8,0,.6.2,1.2.6,1.4.3.1.6,0,.9,0s.7,0,1,.4c.4.5.7,1.3,1.1,1.7s1,.3,1.3-.3c.3-.4.4-1,.4-1.6h0v-.2h0v-1.3c0-1.2-.4-2.3-.7-3.4-.4-1-.8-2-1.1-3.1,0,1,0,1.9.2,2.9,0,0,0,.2,0,0-.3-1-.4-2.1-.2-3.2h0ZM107.3,205.5s0-.1,0,0c0,.3,0,.7,0,1.1,0,.1,0,0,0,0v-1h0ZM107.6,206.2s0-.1,0,0v1h0v-.9h0Z"/>
      <path class="st21" d="M100.5,196.2c-.4,0-.9,0-1.1.5-.5.8,0,2,0,2.8s-.2,1.6-.4,2.4c0,.7-.2,1.3.2,1.8.3.4.7.6,1.1.7h.5c-.2-.1-.4-.3-.5-.4-.6-.8,0-1.6.3-2.3.3-.5.4-1,.3-1.6,0-.4-.3-.7-.5-1-.2-.4-.4-.8-.4-1.3s0-1.6.5-1.8v.2ZM99.6,196.7h0c0,.2-.2.4-.3.7h0c0-.3.2-.5.3-.7Z"/>
      <path class="st21" d="M99.7,196.8s0-.1,0,0c-.2.2-.3.5-.3.7h0c0-.3.2-.5.3-.7Z"/>
      <path class="st21" d="M107.6,203.5h0c0,.4.2.7.4.9h0c-.2-.3-.3-.6-.4-.9Z"/>
      <path class="st21" d="M108,203.8h0c0,.3.3.6.5.9,0,0,0,0,0,0-.2-.2-.3-.5-.5-.8h0Z"/>
      <path class="st21" d="M107.4,205.4s0,0,0,0c0,.3,0,.6,0,1q0,.1,0,0v-1.1h0Z"/>
      <path class="st21" d="M107.7,206.2s0,0,0,0v.9s0,.1,0,0c0-.3,0-.7,0-1h0Z"/>
      <path class="st21" d="M108.1,208.9h0c0,1-.2,2-.8,2.5-.7.5-1.3-.3-1.7-1-.4-.6-.7-1.2-1.3-1.2s-.8.2-1.2,0c-.3-.2-.5-.7-.6-1.2-.3.7-.4,1.6-.2,2.3.4.9,1.3.6,1.9.5.4,0,.9,0,1.2.3.3.3.4.9.8,1.2.5.4,1.1,0,1.4-.5.5-.7.5-1.8.5-2.8h0ZM102.5,209.1h0c0,.3,0,.6.3.8,0,0,0,.1,0,0-.2-.2-.3-.5-.3-.9h0ZM102.4,209.6s0-.1,0,0c0,.3.2.6.4.8h0c-.2,0-.5-.4-.5-.8h0Z"/>
    </g>
    <g>
      <path class="st37" d="M99.1,174.3h0v.2c-.2,0-.5-.1-.6-.3h.2c0,.1.3.1.5.2h0Z"/>
      <path class="st20" d="M97.9,194.4c.2.6.7.9,1.1,1,1,.1,1.7-1,2-2.2v-.9h-.2c-.3,0-.6-.2-.7-.5-.4-.7-.4-1.7,0-2.4-.5.4-1.3.6-1.6-.1-.3-.7,0-1.5.4-2.1-.9.4-1.7.6-2.5.5-.8.9-1.1,2.4-.2,3.5.4.6,1.2.7,1.5,1.5.2.5,0,1.2.3,1.7h-.1ZM96.4,190.8s0,.2,0,0c-.2-.3-.3-.6-.3-1,0,0,0-.1,0,0,0,.3.2.6.3.9h0Z"/>
      <path class="st20" d="M101.8,196.5c.7.9,1.6.4,2.2-.3.4-.5.8-1,1.3-1.1.6,0,1.3.3,1.9-.2.7-.6.8-1.9.6-3-.2-1.1-.8-1.9-1.4-2.7h0c-.2-.2-.5-.3-.7-.5.3.7.3,1.6-.3,1.8-.4.2-.7-.2-1-.6,0,1,0,2.2-.5,2.7-.8.7-1.3-.3-1.5-1.4-.2.6-.6,1-1.2.9v1c0,1.1,0,2.6.5,3.4h0ZM102.2,196.4c-.2,0-.4-.4-.4-.7h0c0,.3,0,.6.3.6h0ZM107.3,192.3h0v-1.1s0-.1,0,0c.2.4.2.8,0,1.2h0ZM107.7,192h0c0-.4,0-.7-.2-1.1h0c0,.4,0,.7.2,1.1Z"/>
      <path class="st10" d="M100.4,191.8c.2.3.6.4.7-.1.2-2,.7-4,1.3-5.6h0c-.2-.2-.4-.4-.5-.6-.7.6-1.7,1.2-2.7,1.7-.3.4-.8,1.3-.6,2,.3.9,1.2.3,1.6,0,0-.1.2.1,0,.3h0c-.3.6-.4,1.3-.3,1.9,0,.2.2.5.3.6v-.2ZM99.2,188.9h0c0-.4,0-.8.2-1.1h0c-.2.3-.3.6-.2,1h0ZM98.9,188.4h0c0-.3,0-.6.3-.8h0c0,.2-.2.4-.2.7h-.1Z"/>
      <path class="st10" d="M102.8,191.8c.4.9,1.1.9,1.4-.1.2-.7.2-1.6,0-2.4,0-.3-.2-.5-.2-.7s0-.2.2,0c.3.5.4,1.2.8,1.6.3.3.7.2.8-.4,0-.4,0-.8-.2-1.2h0c-.9-.7-1.7-1.4-2.5-2.3h-.4c-.6,1.8-1,3.7-1.2,5.7.5,0,.9-.5,1-1.2v-.4h0c0-.2,0-.3.2-.1h0c0,.5,0,1,.2,1.4h-.1Z"/>
      <path class="st20" d="M94.2,183.3c-.5,2.2.9,3.6,2.2,4h.6c.5,0,1.1-.2,1.6-.4-.3-.1-.5-.5-.6-.9,0-.7.2-1.2.6-1.5-.6-.3-1.4-.9-1.3-1.9.2-1.1.9-1.1,1.5-.9-.3-.7-.7-1.9,0-2.3.4-.3.7,0,1,.5,0-.3-.2-.7-.2-1.1-.4-.9-1-1.7-1.7-2.2-.7-.4-1.7-.5-2.1.5-.5.9-.2,2.3-.6,3.3-.3,1-.9,1.7-1.1,2.7v.2ZM99.1,178.4s0,.1,0,0c-.2-.2-.4-.4-.6-.5,0,0,0-.2,0-.1.2.1.4.3.6.6ZM99.4,178.5s0,.1,0,0c-.2-.3-.5-.5-.7-.8,0,0,0-.2,0-.1.2.3.5.6.7.9h0Z"/>
      <path class="st10" d="M98.4,185.9c0,.6.3.9.7.8h0c.8-.4,1.7-1,2.4-1.6-.2-.3-.3-.6-.4-.9-.3-.7-.6-1.5-.8-2.3,0-.4-.2-.8-.3-1.3,0-.2-.2-.3-.3-.5q-.3-.4-.7,0c-.4.4-.3.5-.2,1,0,.3.2.5.3.8,0,.1,0,.3,0,.3-.2,0-.5-.2-.7-.2-.5,0-1.1.5-.6,1.4.2.5.8.8,1.2.9,0,0,0,.3,0,.4-.4.2-.7.5-.7,1.2h0Z"/>
      <path class="st20" d="M106.2,188.5c.3.2.6.4.9.6.6.3,1.3.7,1.8.1.7-.7.7-2,.4-3-.2-.6-.4-1.2-.3-1.9,0-.8.5-1.5.5-2.3,0-1.3-1-1.9-1.8-2-.7,0-1.4.3-2.1.8-.2.3-.3.6-.5.8.4-.2.9-.3,1,.2,0,.3,0,.7-.2.9s-.4.5-.6.7c.8-.2,2.3-.1,2.2,1.4,0,1.3-1.2,1.6-2,1.5.4.3.8.9.8,1.5s0,.4-.3.6h.2ZM108.1,189.2h0c.2-.1.5-.1.7-.3h0c-.2.2-.5.3-.7.3ZM108,188.9h0c.2,0,.3-.1.5-.2h0c-.2,0-.3.1-.5.2ZM106.1,182.8h0c.2-.1.3-.3.4-.6h0c0,.3-.2.6-.4.6Z"/>
      <path class="st10" d="M105.8,188.2c.3.3.4-.2.4-.5s0-.4-.2-.5c-.2-.4-.5-.6-.8-.8h0c0,0,0-.4,0-.3.7.2,1.9.3,2.2-1,.3-1.5-1.5-1.4-2.1-1.2h0s-.2-.1,0-.2c.3-.5.7-.7,1-1.2.2-.4,0-.7-.4-.6h-.3c0,0-.2,0-.3.1-.6.7-1.2,1.3-1.9,1.7.3.4.6.9.6,1.4s0,.8-.3,1c.8.8,1.6,1.6,2.4,2.2h0-.2Z"/>
      <path class="st32" d="M99.4,173.4v.5h0v-.5Z"/>
      <path class="st32" d="M102.5,185.1h0Z"/>
      <path class="st1" d="M99.4,173.8c0,1.7.4,3.4.8,4.9.3,1.1.7,2.1,1.2,3,.3.5.6.9.9,1.4.3.4.9,1,1.1,1.7h0c0,.5,0,.8-.3,1s-.5,0-.8-.2c-.3-.3-.4-.7-.6-1.1-.3-.6-.5-1.1-.7-1.7-.4-1.1-.7-2.2-1-3.4-.4-1.8-.6-3.7-.6-5.6h0ZM102.5,185.1h0c.2.3.4.3.6.1,0,0,0-.1,0,0h-.5.3c-.2-.1-.4-.2-.5-.5,0,0,0,0,0,0,0,.1.2.2.3.3h-.2Z"/>
      <path class="st55" d="M102.2,184.8c0,.3.4.4.6.4h0c-.2-.1-.4-.2-.5-.5,0,0,0,0,0,0h0Z"/>
      <path class="st10" d="M102.3,182.6c0,.2.4.4.6.7.3-.2.5-.4.8-.6.3-.5.6-1.1.8-1.7,0-.3.5-1.4-.3-1.2-.2,0-.5.7-.7.8,0,.1-.2,0-.2-.2.2-.5,0-1.3,0-1.8-.3-.9-.9-1.1-1.4-.5-.7.7-.8,2-.5,3.1.3.5.6.9.9,1.4Z"/>
      <path class="st20" d="M100.1,176.5c.2-.8.5-1.4,1-1.7.6-.4,1.1-.1,1.6.2.4.2.8.4,1.3.4s1.1,0,1.6.3c1.3,1,.8,3.5,0,4.8-.4.7-.9,1.3-1.4,1.8.4-.7.9-1.7.6-2.4-.3-.8-.8-.3-1.2.3,0-1.3-.4-2.9-1.4-2.5-.9.3-1.3,1.8-1.2,3-.2-.4-.3-.8-.5-1.3-.3-.9-.5-1.8-.6-2.8h.2ZM105.5,180.4c.2-.3.2-.6.2-1h0c0,.3,0,.7-.2.9,0,0,0,.1,0,0h0ZM105.2,180.4v-.9h0v.9h0Z"/>
      <path class="st37" d="M98.5,173.7c0-.2,0-.2.3-.1,0,0,.3.3.4.3-.2,0-.3.2-.5.2s-.2-.2,0-.4h-.1Z"/>
      <path class="st37" d="M99.2,173.9h0v.4h0c0,0-.3,0-.5-.2.2,0,.3-.1.5-.2Z"/>
      <path class="st37" d="M100.1,174.2c0,0,.4,0,.4.3s-.2.3-.3.3c-.2,0-.3-.2-.4-.3h0v-.3h.4,0Z"/>
      <path class="st37" d="M100.6,172.9v.2c0,.4-.2.6-.4.6h-.5c.3-.2.6-.4.9-.7h0Z"/>
      <path class="st37" d="M99.7,173.6v-.6c.3,0,.8-.4.9,0-.3.3-.6.5-.9.7h0Z"/>
      <path class="st55" d="M102.4,185.1c.3.3.6.3.7,0v-.2c-.2.2-.4.1-.7-.1v.2h0Z"/>
    </g>
    <g>
      <path class="st17" d="M120.7,228.8c2.6-.2,4.1-3.7,4.5-7.1.7.2,1.5.4,2.2.6-1.4,1-1.9,3.1-2.3,5.1v.2c1.5-.3,2.1-3.3,2.4-5.2.4.2.8.3,1.2.5,1.4.7,2.6,1.7,3.7,3,0,0,.2,0,0-.2-1.3-2-3.1-3.1-5-3.8.5-2.3-1.1-4.1-1.8-5.9,0-.1-.2,0-.2,0,0,2,.5,4.1,1.4,5.6-.6-.2-1.1-.3-1.7-.5.2-1.5-.4-2.8-1.1-3.9-.5-.7-1-1.2-1.4-1.9-.5-.7-.9-1.5-1.2-2.3,0-.1-.2,0-.2,0,.3,3.3,1.8,6,3.6,7.9h0c-.8-.2-1.6-.3-2.4-.5h0c-.3-1.1-.7-2.1-1.1-3.2-.3-1-.7-2-1.1-3-.9-1.8-2.2-2.9-3.3-4.4,0-.1-.2,0-.2.2.7,4.4,2.7,8.2,5.3,10.4-.7-.1-1.3-.2-2-.3-.5,0-1-.2-1.5-.2.2-1.8-.7-3.3-1.6-4.5-1.2-1.5-2.2-3.1-3.1-5.1,0-.1-.2,0-.2,0,0,1.9.6,3.7,1.3,5.2.8,1.6,2,2.9,3.1,4.2-.9-.1-1.8-.3-2.6-.8h0c.8.6,1.6.8,2.4,1-2.6.5-5,1.6-7.4,3.3v.3c1.8,0,3.6,0,5.3-.7.7-.3,1.4-.6,1.9-1.2.2-.3.9-.9.8-1.4h0c.3,0,.6,0,.9.1.7.1,1.4.3,2.2.4-2.8,1.3-4.2,6.5-7.3,6.8,0,0,0,.2,0,.3,3.4.9,6.5-2.5,7.8-7,.7.1,1.4.3,2.1.4h.4c-.8.9-1.6,1.8-2.2,3.1-.6,1.4-1.1,2.9-2,3.9v.3l.4.3ZM122.1,221.1c-1.2,4-3.9,7.1-6.9,6.8,2.8-.9,4.2-5.6,6.9-6.8ZM121.1,228.4c.6-.8,1.1-1.9,1.5-3,.7-1.6,1.5-2.7,2.5-3.8-.4,3.1-1.7,6.4-4,6.8ZM127.5,222.5c-.3,1.7-.8,4.3-2.1,4.7.4-1.9.9-3.7,2.1-4.7ZM115.2,223.1c-1.3.3-2.7.5-4,.4,2.4-1.7,4.9-2.7,7.5-3.1,0,.7-1.4,1.7-1.6,1.9-.6.4-1.2.6-1.9.7h0ZM127.6,221.9h0c-.9-1.5-1.5-3.2-1.6-5.2.8,1.6,1.9,3.2,1.6,5.3h0ZM123.6,216.8c.9,1.1,1.8,2.5,1.7,4.3-1.7-1.7-3.1-4.2-3.5-7.2.5,1.1,1.1,2,1.8,2.8h0ZM118.6,220.1h0c-1-1.3-2.2-2.6-3.1-4.1-.7-1.3-1.2-2.9-1.4-4.6.6,1.4,1.4,2.7,2.2,3.8,1,1.3,2.3,2.7,2.2,5h.1ZM120.3,214.8c.8,1.8,1.4,3.8,2.2,5.7-2.6-2.1-4.5-5.7-5.2-9.8,1,1.4,2.3,2.4,3.1,4.1h0Z"/>
      <path class="st42" d="M115.3,227.9c3,.3,5.7-2.8,6.9-6.8-2.7,1.2-4.1,5.9-6.9,6.8ZM120.4,224.6h0c.2-.2.3-.5.4-.9h0c0,.4-.2.7-.4.9ZM120.1,224.5h0c.2-.2.3-.4.4-.7h0c0,.3-.3.5-.4.7Z"/>
      <path class="st42" d="M122.6,225.4c-.4,1.1-.8,2.2-1.5,3,2.3-.4,3.6-3.7,4-6.8-1,1.1-1.8,2.3-2.5,3.8ZM122.6,226.4h0c0-.3.3-.6.5-.8h0c-.2.3-.3.6-.5.8ZM122.7,225.7h0c0-.3.2-.5.3-.7h0l-.3.6h0Z"/>
      <path d="M122.6,226.3s0,.1,0,0c.2-.3.3-.5.5-.8,0,0,0-.1,0,0-.2.3-.3.5-.5.8Z"/>
      <path d="M122.6,225.7h0c0-.2.2-.5.3-.6h0c-.2.2-.3.4-.3.7h0Z"/>
      <path class="st42" d="M125.4,227.2c1.3-.4,1.8-3,2.1-4.7-1.2,1-1.7,2.9-2.1,4.7ZM126.5,225.3h0c0-.2.2-.4.2-.7h0c0,.2,0,.5-.2.7ZM126.3,225.4h0c0-.2,0-.3.2-.5h0c0,.2,0,.3-.2.5Z"/>
      <path d="M126.5,225.3h0c0-.2.2-.4.2-.7h0c0,.2-.2.4-.2.7Z"/>
      <path d="M126.3,225.3h0c0-.2,0-.3.2-.5h0c0,.2,0,.3-.2.5Z"/>
      <path d="M120.4,224.5s0,.1,0,0c.2-.2.3-.5.4-.9h0c0,.3-.2.6-.4.9Z"/>
      <path d="M120,224.4s0,.1,0,0c.2-.2.3-.4.4-.7,0,0,0-.1,0,0,0,.3-.3.5-.4.7Z"/>
      <path class="st17" d="M111.1,223.5c1.3,0,2.7,0,4-.4.6-.2,1.3-.4,1.9-.7.3-.2,1.8-1.2,1.6-1.9-2.6.4-5.2,1.4-7.5,3.1h0ZM116.1,222.4h0c.2-.1.4-.2.6-.3h0c-.2,0-.4.2-.6.3ZM115.7,222.4h0c.2-.1.4-.2.5-.3h0c-.2.1-.3.2-.5.3Z"/>
      <path class="st42" d="M127.5,221.9h0c.3-2.1-.9-3.7-1.6-5.3,0,2,.7,3.7,1.6,5.2h0Z"/>
      <path class="st17" d="M116,222.3s0,.1,0,0c.2,0,.4-.2.6-.3h0c-.2,0-.4.2-.6.3Z"/>
      <path class="st17" d="M115.7,222.3s0,.1,0,0c.2,0,.4-.2.5-.3,0,0,0-.1,0,0-.2.1-.4.2-.5.3Z"/>
      <path class="st42" d="M125.4,221.1c0-1.8-.8-3.2-1.7-4.3-.7-.9-1.3-1.8-1.8-2.8.4,3,1.9,5.4,3.5,7.2h0ZM124.8,219.5s0,.1,0,0c0-.3-.2-.7-.3-1h0c0,.3.2.7.3,1ZM124.8,218.9h0c0-.3-.2-.6-.4-.7h0c.2.1.4.4.4.8h0Z"/>
      <path class="st17" d="M118.6,220.1h0c0-2.2-1.2-3.6-2.2-5-.9-1.1-1.6-2.4-2.2-3.8.2,1.7.6,3.3,1.4,4.6.9,1.6,2,2.8,3.1,4.1h-.1ZM117.1,217.4s0,.1,0,0c-.2-.2-.3-.5-.5-.7,0,0,0-.1,0,0,.2.2.4.5.5.7ZM116.6,217.2h0c0-.2-.2-.4-.4-.6h0c0,.2.2.4.4.6Z"/>
      <path d="M124.7,219.5h0c0-.3-.2-.7-.3-1h0c0,.3.2.7.3,1Z"/>
      <path d="M124.7,219h0c0-.4-.2-.6-.4-.8h0c.2.1.3.4.4.7h0Z"/>
      <path d="M115.6,219.5h0v-.2h0c-.9-1.5-1.9-3.2-3-4.3-1.2-1.1-2.7-1.7-3.9-2.9,0,0-.2,0-.2.2,1.3,4.2,4.2,6.2,7.1,7.3h0ZM112.1,214.9c1.2,1,2.2,2.7,3.2,4.2-2.6-1.1-5.2-2.9-6.5-6.6,1,1,2.2,1.5,3.3,2.4h0Z"/>
      <path class="st17" d="M122.4,220.5c-.7-1.9-1.3-3.9-2.2-5.7-.8-1.7-2-2.7-3.1-4.1.8,4.2,2.7,7.7,5.2,9.8h0ZM119,214.7s0,.1,0,0c-.2-.3-.4-.6-.5-1.1h0c0,.4.2.7.4,1h0ZM118.6,214.6s0,.1,0,0c0-.3-.2-.5-.3-.8,0,0,0-.1,0,0,0,.3.2.5.3.8Z"/>
      <path class="st17" d="M117,217.5h0c-.2-.3-.3-.5-.5-.7h0c.2.3.3.5.5.7Z"/>
      <path d="M113.7,217.5h0c-.2-.4-.5-.8-.8-1.2h0c.3.4.5.7.8,1.2Z"/>
      <path class="st17" d="M116.6,217.3h0c0-.2-.2-.4-.4-.6h0c0,.2.2.4.4.6Z"/>
      <path class="st17" d="M115.2,219.1c-1-1.5-1.9-3.1-3.2-4.2-1.1-.9-2.3-1.4-3.3-2.4,1.3,3.6,3.9,5.4,6.5,6.6h0ZM113.7,217.5s0,.1,0,0c-.2-.4-.5-.8-.8-1.2,0,0,0-.1,0,0,.3.4.5.7.8,1.2ZM113.4,216.6s0,.1,0,0c0-.2-.3-.5-.5-.6,0,0,0-.1,0,0,.2.2.4.4.5.7h0Z"/>
      <path class="st63" d="M113.3,216.7h0c0-.3-.3-.5-.5-.7h0c.2.2.3.4.5.6h0Z"/>
      <path class="st17" d="M118.9,214.8h0c-.2-.3-.3-.6-.4-1h0c0,.4.2.8.5,1.1h0Z"/>
      <path class="st17" d="M118.5,214.7h0c0-.3-.2-.5-.3-.8h0c0,.3.2.5.3.8Z"/>
    </g>
    <g>
      <path class="st20" d="M130.5,218.1c-.6.3-.9.9-1.2,1.6-.1.4-.3.7-.6.8-.4.2-.8,0-1.2,0-.6,0-1.2.6-1.5,1.4-.2.8-.2,1.6,0,2.3.2.3.4.6.7.9,1.2.4,2.2,1.4,3.2,2.4-.6-1-1.2-2.1-1.6-3.3,0-.1,0-.3.1-.1.4.6.8,1.2,1.2,1.7-.2-.6-.3-1.2-.4-1.8,0-.1,0-.2.1,0,.3.6.6,1.1,1,1.7v-1.5q0-.1.1,0c.2.3.4.9.4,1.4.3-.8.7-1.6.9-2.5,0-.1.1,0,.2,0,0,.7,0,1.4-.1,2,0-.1.1-.2.2-.3.6-1,1-2.2,1.3-3.4h0c-.1-.3-.4-.5-.4-.9s0-.4.1-.5h0c-.4-1.5-1.6-2.2-2.6-1.7v-.2ZM131.4,218.3h0c.2,0,.4,0,.6.2h0c-.2-.1-.4-.2-.6-.2ZM131.1,218.7h0c.2-.1.5-.1.7,0h0c-.2.1-.5.1-.7,0ZM126.3,221.8h0v.9s0,.1,0,0c-.2-.3-.2-.7,0-1h0ZM126.1,222.4h0v.9h0c0-.3-.2-.6,0-1h0Z"/>
      <path class="st20" d="M131.4,218.2h0c.2,0,.4,0,.6.2h0c-.2-.1-.4-.2-.6-.2Z"/>
      <path class="st20" d="M131.1,218.6h0c.2.1.4.2.7.2h0c-.2-.1-.4-.2-.7-.2Z"/>
      <path d="M126.4,221.8s0-.1,0,0c0,.3,0,.7,0,1h0c0-.3-.2-.6,0-.9h0Z"/>
      <path class="st37" d="M134.2,217.8c-.2,0-.2.4-.2.6v.4h0c0-.1.2-.3.2-.5s0-.6-.2-.5h.2Z"/>
      <path d="M126.2,222.4h0c0,.3,0,.7,0,1h0c0-.3,0-.6,0-.9h0Z"/>
      <path class="st37" d="M133.8,218.4c0-.1-.2,0-.2,0v.5c0,.2.1.4.2.5v-1h0Z"/>
      <path class="st37" d="M133.6,219.2h-.1v.6c0,.2.2.3.3.4,0-.2,0-.4.1-.6,0-.1-.2-.2-.3-.4h0Z"/>
      <path class="st37" d="M134.4,218.9l-.2.2v.4c.2,0,.4-.1.5-.4,0-.2-.1-.3-.2-.3h-.1Z"/>
      <path class="st37" d="M134.5,219.6h-.3v.4c.2,0,.4-.1.6-.4h-.3Z"/>
      <path class="st37" d="M133.3,220c-.3.2,0,.8.2,1.1,0-.2.1-.4.1-.6h0c-.2,0-.3-.2-.4-.4h0Z"/>
      <path class="st20" d="M126.6,225.3c-.8-.3-1.7-.3-2.4.4-.7.7-.8,1.9-.4,2.9.3.7.7,1.3.9,2.1.2.9,0,2.1.5,2.9.4.8,1.2,1,1.9.8.7-.3,1.2-.9,1.7-1.6,0-.3.2-.6.3-.8.2-.8.5-1.5.8-2.2-.7,1.1-1.7,1.9-2.8,2.2,0,0,0-.1,0-.2.6-.6,1.1-1.2,1.7-1.7-.4.3-.9.4-1.4.4v-.2c.4-.3.9-.7,1.3-1-.4,0-.9,0-1.3.1h0c.4-.7,1-1.1,1.6-1-.5-.3-1.1-.4-1.7-.4,0,0,0-.2,0-.2.8-.4,1.7-.4,2.5,0-.8-.8-1.7-1.6-2.6-2.1,0,0,0,.1,0,0,0,0,0-.1-.2-.2,0,0-.2,0-.3-.1h-.1ZM124.1,226.7c0-.4,0-.8.4-.9h0c-.2.3-.4.6-.3.9h0ZM124.4,226.4c0-.2.2-.5.4-.6h0c-.2.1-.3.3-.4.5h0Z"/>
      <path d="M124.5,225.8c-.3.1-.4.5-.4.9h0c0-.4,0-.6.3-.8h0c0-.1,0,0,0,0Z"/>
      <path class="st37" d="M134.4,220.2h-.3v.4c.1.1.3.2.5.1,0,0,.1-.1.1-.2h0c0-.1-.1-.1-.2-.1h0v-.2Z"/>
      <path d="M124.8,225.8c-.2,0-.3.3-.4.6h0c0-.2.3-.4.4-.5,0,0,0-.1,0,0h0Z"/>
      <path class="st37" d="M134,220.8v.5c.1,0,.3.2.5,0s.2-.2.2-.4c-.2,0-.4,0-.5-.2h-.2Z"/>
      <path class="st20" d="M134.8,220.4v.5c0,.2,0,.5-.1.6-.2.2-.5.1-.7,0-.2,1.3-.5,2.6-1,3.8.2-.2.5-.2.7-.2v.2c-.3.4-.6.8-1,1.2.3-.3.8-.4,1.1-.3v.2c-.4.3-.8.8-1.2,1.2.5,0,1,0,1.5-.4,0,0,.1,0,0,.1-.4.6-.8,1.1-1.3,1.4.7.1,1.4.2,2.2,0h0s.1,0,0,.1c-.5.7-1.4.8-2,.8h-.1c.7.3,1.4.6,2.1.9.7.2,1.4.5,2.1,0,.7-.4,1.1-1.6.6-2.5-.5-1-1.6-1.5-1.5-3,0-1.1.4-2,.1-3-.2-1.1-1-1.8-1.7-1.5h.2ZM135.6,220.9h0c.3-.1.5,0,.6.4h0c-.2-.3-.4-.4-.6-.5h0ZM136.5,230s0-.1,0,0c.2.1.3.1.5,0h0c-.2.1-.4.1-.6,0h.1ZM136.5,230.4s0-.1,0,0c.2,0,.4,0,.5-.1h0c-.2.1-.4.2-.6.1h.1Z"/>
      <path class="st55" d="M134,219.7c-.2,1.4-.6,2.7-1.2,3.9-.3.7-.7,1.4-1.2,2-.4.6-1.2,1.2-1.3,2.1h0v.5c.8,1.5,2.6-3.4,2.9-4.2.4-1.4.7-2.9.8-4.4h0Z"/>
      <path class="st20" d="M135.6,220.8h0c.2.1.4.3.6.6h0c-.2-.3-.4-.5-.6-.5h0Z"/>
      <path class="st55" d="M130.8,224.9c0-.2-.1-.3-.2-.5,0,.4,0,.9-.1,1.3h0c0,.1,0,.2-.1.1-.3-.5-.6-1-.9-1.5,0,.5.2,1,.3,1.5v.2c.2,0,.1.2,0,.2-.4-.3-.7-.7-1-1.2.4.9.8,1.8,1.3,2.6,0-.3.3-.6.5-.9.3-.4.6-.7.8-1.1.3-.7.5-1.5.5-2.3-.3.9-.6,1.7-1,2.5h0s-.1,0,0,0h0v-.8h-.1Z"/>
      <path class="st55" d="M130.2,228c-.8-.4-1.6-.6-2.4-.4.5,0,1,.3,1.5.6h0c-.6.1-1.1.2-1.5.7.4,0,.8-.1,1.2,0h0c-.4.5-.8.8-1.2,1.1.5,0,1-.3,1.5-.6h0c-.6.6-1.1,1.2-1.7,1.8,1.1-.5,1.9-1.3,2.7-2.5v-.2h0v-.2h0v-.4h0Z"/>
      <path class="st55" d="M133.5,225.2c-.3,0-.5.2-.7.4h0c-.2.4-.9,2.2-1.6,3,.5.2.9.4,1.4.6.8.1,1.6,0,2.3-.5-.7.2-1.6.2-2.3,0v-.2h0c.5-.2.9-.6,1.3-1.1-.4.2-.9.3-1.4.2h0c.3-.5.7-1,1.2-1.3-.4,0-.7.1-1,.4,0,0-.1,0,0-.1h0c.3-.4.6-.8.9-1.2v-.2Z"/>
      <path class="st55" d="M131.1,228.8h0c-.2.1-.3.2-.4.2-.3,1.1-.4,2,0,3,0-.4,0-.8.2-1.1h.1c.1.4.2.8.3,1.2v-1.4h0c0-.2,0-.3.1-.2.2.4.5.8.7,1.2-.1-.5-.3-1-.4-1.5h0s0-.2,0-.1c.6.2,1.1.7,1.5,1.3-.4-.9-1-1.6-1.7-2.1h-.2l-.2-.5Z"/>
      <path class="st20" d="M132.3,229.3c-.1,0-.3,0-.4-.1.7.6,1.3,1.6,1.6,2.7,0,.1,0,.2-.1.1-.5-.9-1.1-1.5-1.7-1.9.3.6.5,1.3.6,2,0,.1,0,.2-.1.1-.3-.5-.6-1-.9-1.6h0v1.6c0,.1-.1.2-.1,0-.1-.4-.2-.9-.3-1.3,0,.4,0,.8-.1,1.2,0,0,0,.1-.1,0-.3-.8-.5-1.8-.3-2.7-.3.7-.6,1.4-.8,2.2,0,.2-.1.4-.2.5h0c-.2.8-.4,1.5-.5,2.3-.1,1.2.3,2.3,1.2,2.6.8.3,1.4-.5,2.1-1,.4-.4.9-.6,1.4-.5.7.1,1.3.2,1.9-.7,1-1.7.2-4-1-4.9-.2,0-.4-.2-.5-.2-.5-.2-.9-.4-1.4-.6l-.3.2ZM129.2,235.6s0-.1,0,0c0,.3.2.5.3.7,0,0,0,.1,0,0-.2-.2-.3-.5-.4-.8h0ZM129.1,236.1h0c.1.3.2.5.4.6h0c-.2-.1-.4-.4-.5-.7h.1Z"/>
      <path class="st20" d="M136.5,229.9h0c.2.1.4.1.6,0,0,0,0-.1,0,0h-.6Z"/>
      <path class="st20" d="M136.5,230.3h0c.2,0,.4,0,.6-.1,0,0,0-.1,0,0-.2,0-.3.1-.5.1h-.1Z"/>
      <path class="st20" d="M129.2,235.6h0c0,.3.2.6.4.8h0c-.2-.2-.3-.4-.3-.7h0Z"/>
      <path class="st20" d="M129.2,236.1h0c0,.3.3.5.5.7h0c-.2-.2-.3-.4-.4-.6h-.1Z"/>
      <path class="st20" d="M130.3,234.9c-.1.2-.2.6,0,.8h0v-.7s0-.1,0,0h0Z"/>
      <path class="st20" d="M134.3,234.4h0c0-.4-.1-.8-.3-1.1h0c.1.3.2.7.3,1.1Z"/>
    </g>
    <g>
      <path class="st20" d="M128.3,222.8c0,1.3-1,1.9-1.7,1.8-1.5-.2-2.8-1.6-4.1-2.6h0v-.2h0c.6-.3,1.2-.3,1.7,0h0c-.6-.4-1.2-.4-1.8-.1h0c.7-.7,1.4-1,2.3-.9h0c-.8-.3-1.7,0-2.4.9h0c.3-.6.6-1.3.9-1.9.3-.5.6-1,.9-1.4,0,.1,0,.2,0,.4h0c0-.3.2-.5.4-.7h0c0-.1.2-.2.4-.3.6-.5,1.5-.8,2.2-.3.3.3.6.8.6,1.4s-.5,1.3-.9,1.8v.2c.6.4,1.5,1,1.5,2.2v-.3ZM127.8,223.6c0-.3.2-.6.2-.9h0c0,.3,0,.6-.2.9h0ZM127.7,223.1h0v-.7h0v.6h0ZM124.8,217.9h0c-.2,0-.3.2-.4.4h0c0-.2.2-.3.4-.4Z"/>
      <path class="st20" d="M126.5,227.3c0,.7,0,1.6-.6,1.8-.4.2-.9-.2-1.2-.5,0,0-.2,0,0,.1.3.9-.3,1.9-1,2-.8,0-1.3-.9-1.6-1.9-.5-1.9-.3-4.3,0-6.2h0c0,.9.4,1.8.9,2.5,0,0,0,0,0-.1-.5-.7-.7-1.5-.9-2.4h0c.3.5.7,1,1.1,1.2h0c-.4-.4-.8-.8-1.1-1.3h0v-.2h0c.9.8,1.8,1.5,2.7,2.1.2,0,.3.2.5.3h0c.2.4.4.7.6,1.1.2.5.3,1.1.4,1.8l.3-.3ZM125.7,225.6h0c0-.3-.3-.4-.6-.6h0c.2.1.4.3.5.5h0ZM125.4,225h0c0-.2-.3-.3-.5-.3h0c.2,0,.3.2.4.3h0ZM123.6,229.9h0c0,0-.3,0-.4-.1h0c0,.1.3.2.4.1ZM123.4,230.2h0c-.2,0-.4,0-.5-.2h0c0,.2.3.3.5.2Z"/>
      <path class="st20" d="M124.2,214.1c.7.6.3,2,0,2.8-.6,1.5-1.3,3-1.9,4.5h0c0-1.1.3-2.1.6-3.2,0,0,0-.1,0,0-.3,1-.5,2-.6,3.1-.2-.9-.2-1.8-.2-2.8h0c0,.8,0,1.7,0,2.5-.2-.7-.5-1.4-.9-2.1h0c-.5-1.1-.6-2.5-.5-3.8,0-.8.3-2.1,1-1.6.4.2.7,1,1,1.4h0c.4-.6,1-1.1,1.6-.6l-.2-.2ZM124.4,215.2c0-.2,0-.5-.2-.7h0c0,.1.2.3,0,.6h0ZM120.8,215.3h0v-.9h0c0,.3,0,.6,0,1h0ZM120.7,215.7h0v-.9h0v1h0Z"/>
      <path class="st20" d="M121.7,227.5h0c-.2,1-.4,2.4-1.3,2.1-.8-.3-1.4-1.5-1.2-2.7,0,0,0-.2,0-.1-.4,0-.8.2-1.1-.3-.2-.3,0-.9,0-1.2.2-.6.4-1.2.8-1.6.6-.5,1.3-.9,2-1h1.1c-.8.4-1.6,1.3-2,2.4,0,0,0,.1,0,0,.5-1.1,1.2-1.9,2-2.3h0c-.4.7-.7,1.5-.8,2.3,0,0,0,.1,0,0,.2-.8.4-1.5.7-2.2h0c-.2,1.3-.3,2.7-.2,4v.6h0ZM118.4,225.2h0c-.2.1-.2.4-.2.7h0c0-.2,0-.4.2-.6h0ZM118,226.1h0c0-.3,0-.6,0-.8h0c0,.3-.2.6,0,.9h0Z"/>
      <path class="st1" d="M122.3,222.2h0c-.5.5-1.3.2-1.9.3-.6.2-1.2.5-1.8,1-.6.5-1.1,1.1-1.6,1.8-.3.4-.5.7-.8,1.1h0c0,.2-.3.4-.4.6.7-1.5,1.4-2.9,2.5-3.9.5-.5,1.1-1,1.8-1.3.3-.2,1.4-.7,2-.5v.2h0s0,.1,0,.2h0v.3h0v.2ZM122,221.8h0c0-.2-.3-.2-.5-.2h0c.2,0,.3.1.4.2h0Z"/>
      <path class="st20" d="M121.7,221h-.6c-.8.2-1.6.6-2.4,1.2,0,0-.2.2-.3.2h0c-.6-.1-1.6-.1-1.7-1.4,0-1.2.8-1.7,1.4-2.1v-.2c-.4-.6-1.1-2.3,0-2.7.7-.3,1.4.5,1.8,1.1.8,1,1.3,2.3,1.8,3.6-.7-.9-1.5-1.7-2.3-2.2h0c.8.7,1.5,1.4,2.3,2.2-.7-.3-1.4-.5-2.1-.6h0c.7.3,1.4.4,2.1.7h0v.2ZM120.2,218.1h0c0-.3-.3-.4-.5-.5h0c.2,0,.4.3.5.5ZM120.2,217.8h0c0-.3-.3-.4-.5-.5h0c.2,0,.4.2.5.5Z"/>
      <path class="st37" d="M116.6,226.8c0,.2,0,.4-.2.3,0-.1,0-.2,0-.3v-.2c0-.1,0-.2.2-.3,0,.1.2.3.2.5h0Z"/>
      <path class="st37" d="M116.1,226.7c0,.3.3.5.2.9,0,.2-.2.3-.3.1v-.8s0-.2.2-.3h0Z"/>
      <path class="st37" d="M115.9,227.8v.4c-.2.2-.2-.2-.2-.4v-.3h0s0-.2.2-.2v.6h0Z"/>
      <path class="st37" d="M116,225.9h0c0,.2-.2.4-.2.6h0c0-.1-.2-.2-.4-.2,0,0,0-.1,0-.2,0-.2.2-.3.3-.3s.3.1.4.2h0Z"/>
      <path class="st37" d="M115.8,226.5h0c0,.2-.2.4-.2.6h0c0-.1-.3-.2-.5-.2h0v-.2c.2-.1.3-.1.5,0,0,0,0,0,.2.1h0v-.3Z"/>
      <path class="st37" d="M115.5,227.5c0,.2,0,.4,0,.6,0,.1,0,.2-.2.3s-.3,0-.3-.2c0-.4.3-.7.6-.8h0Z"/>
      <path class="st37" d="M115.4,227.1h0q0,.1,0,.1c-.2,0-.4.2-.6,0s0-.5.2-.5h0c0,.1.3.2.4.1v.3Z"/>
    </g>
    <g>
      <path class="st20" d="M148.8,213.2c-.2,2,1.3,2.8,2.4,2.8,2.2-.1,4.3-2,6.2-3.3h.1v-.2h-.1c-.8-.5-1.7-.5-2.5-.2,0,0-.1-.2,0-.2.9-.4,1.8-.3,2.6.3h0c-1-1.1-2-1.6-3.3-1.6v-.2c1.2-.1,2.5.5,3.4,1.7h0c-.4-1-.7-1.9-1.1-2.9-.4-.8-.8-1.5-1.3-2.1,0,.2.1.3.1.5h0c0-.5-.3-.8-.6-1h0c-.2-.3-.3-.5-.5-.6-.9-.8-2.1-1.4-3.1-.7-.5.3-1,1.1-1,1.9s.6,2,1.1,2.7v.3c-1,.6-2.2,1.3-2.4,3.1v-.3ZM149.3,214.5c-.2-.4-.3-.8-.2-1.3h0c0,.4,0,.9.2,1.3,0,0,0,.1,0,0ZM149.5,213.8h0c0-.3,0-.7.2-1h0c0,.3-.1.6-.1.9h0ZM154.2,206.6h0c.3-.1.5.2.6.6,0,0,0,.1,0,0-.1-.3-.3-.5-.6-.6h0Z"/>
      <path class="st20" d="M151,220.1c0,1,0,2.3.7,2.7.6.3,1.3-.2,1.8-.5,0,0,.2,0,.2.2-.5,1.3.3,2.9,1.3,3,1.1.1,2-1.2,2.5-2.6.8-2.7.7-6.2.4-9.1h0c-.2,1.4-.7,2.6-1.4,3.5,0,0-.2,0,0-.2.7-.9,1.2-2,1.4-3.4h0c-.4.7-1,1.3-1.7,1.6,0,0-.1-.1,0-.2.6-.4,1.2-.9,1.7-1.6h0v-.3h0c-1.3.9-2.7,1.9-4.1,2.6-.2.1-.5.2-.7.3h0c-.3.6-.7,1-1,1.6-.4.7-.6,1.6-.7,2.5h-.4ZM152.4,217.6s-.1,0,0-.1c.2-.4.5-.6.9-.7h0c-.3.2-.6.5-.8.8h0ZM152.8,216.8h0c.2-.3.4-.4.7-.4h0c-.3,0-.5.2-.7.4ZM155,224.2h0c.2-.1.4-.1.6-.2h0c-.2.1-.4.2-.6.2h0ZM155.4,224.6h0c.3,0,.5-.1.7-.4,0,0,.1,0,0,.1-.2.3-.5.4-.8.3h.1Z"/>
      <path class="st20" d="M155.4,201.1c-1.1.8-.5,2.9-.1,4,.8,2.3,1.7,4.5,2.5,6.8h.1c-.1-1.6-.3-3.2-.6-4.8,0-.1.1-.2.1,0,.4,1.5.6,3.1.6,4.6.3-1.3.5-2.6.5-4.1s.1-.1.1,0c0,1.2,0,2.5-.4,3.7.4-1,.9-2,1.4-2.9h0c.8-1.5,1.1-3.6,1.1-5.4s-.3-3.1-1.4-2.5c-.6.3-1.1,1.4-1.5,2h-.2c-.6-.9-1.4-1.7-2.3-1.1v-.3ZM155,202.7c0-.4,0-.7.3-.9,0,0,.1,0,0,.1-.2.2-.3.5-.3.8h0ZM160.2,203.2c0,.1-.1,0-.1,0v-1.4s0-.1,0,0c0,.5.1.9,0,1.4h.1ZM160.3,203.9h0c0-.4.1-.9.1-1.4h0c0,.5,0,1-.1,1.4Z"/>
      <path class="st20" d="M158.1,220.9h0c.2,1.5.4,3.6,1.8,3.2,1.1-.3,2.2-2.1,1.9-3.8,0-.1,0-.2.2-.2.5.2,1.2.4,1.6-.3.3-.5.2-1.3,0-1.8-.2-.9-.5-1.8-1-2.4-.9-.8-1.9-1.4-2.9-1.7-.5-.1-1.1,0-1.6-.2,1.2.7,2.2,2.1,2.8,3.7,0,.1,0,.2-.1,0-.6-1.6-1.5-2.9-2.7-3.7v.2h0c.5.9.9,2.1,1,3.3,0,.1-.1.2-.1,0-.2-1.2-.5-2.2-.9-3.2h0c.2,2,.2,4,0,5.9v1ZM163,218s0-.1,0,0c.2.2.3.6.2,1h0c0-.3,0-.7-.2-.9h0ZM163.5,219.4s-.1,0,0,0v-1.2s0-.1,0,0c.2.4.2.8.1,1.3h-.1Z"/>
      <path class="st1" d="M157.6,213.2h0c.8.7,1.9.4,2.8.7.9.3,1.7.9,2.5,1.6.8.8,1.6,1.7,2.2,2.8.4.6.7,1.1,1.1,1.7h0c.2.3.4.6.5,1-.8-2.3-1.9-4.4-3.3-6-.8-.9-1.6-1.6-2.5-2.2-.5-.3-2-1.2-2.9-1,0,0,0,.2-.1.3h-.1s-.2.2-.2.3h0v.6h0v.2ZM158,212.6h0c.2-.3.5-.4.7-.4h0c-.2.1-.5.2-.7.4Z"/>
      <path class="st20" d="M158.5,211.5h-.1c.3.1.6.1.9.1,1.2.4,2.3,1.1,3.4,2.1.1.1.3.2.4.4h0c.9,0,2.4,0,2.6-1.8.2-1.7-1-2.6-1.9-3.2,0,0-.1-.2,0-.3.6-.9,1.7-3.2.3-3.9-.9-.5-2.1.5-2.7,1.4-1.2,1.4-2,3.3-2.9,5.1,1.1-1.2,2.3-2.3,3.5-3,0,0,.1,0,0,.1-1.2,1-2.3,1.9-3.5,2.9,1-.3,2.1-.6,3.1-.6v.2c-1.1.2-2.1.3-3.1.6h0ZM160.9,207.4h0c.2-.4.5-.6.8-.7h0c-.3.1-.5.3-.8.6h0ZM161,207h0c.2-.4.5-.6.8-.7h0c-.3.1-.5.4-.7.7h-.1Z"/>
      <path class="st37" d="M165.5,220.5c0,.3.1.6.3.5,0-.2.1-.3.2-.4v-.3c0-.2-.2-.3-.3-.5-.1.2-.3.4-.3.7h.1Z"/>
      <path class="st37" d="M166.3,220.5c-.2.4-.5.8-.3,1.3,0,.3.3.4.5.2,0-.3,0-.5.2-.8v-.3c0-.1-.2-.3-.2-.4h-.2Z"/>
      <path class="st37" d="M166.5,222c0,.2,0,.4.1.6.2.3.3-.2.3-.5v-.5h0c0-.1-.2-.2-.3-.4v.2c0,.2,0,.4-.1.6h0Z"/>
      <path class="st37" d="M166.4,219.3h0c.1.3.2.6.3.8h0c.2-.2.4-.2.6-.2s.2-.2.2-.3c0-.3-.2-.5-.4-.5s-.4.2-.6.3h-.1Z"/>
      <path class="st37" d="M166.8,220.2h0c.1.3.2.6.3.9h0c.2-.2.5-.3.7-.3h0c.1-.2,0-.3,0-.4-.3-.2-.5-.2-.8-.2s-.2,0-.3.1h.1Z"/>
      <path class="st37" d="M167.1,221.8c0,.3,0,.7.2,1,0,.2.2.4.3.5.2.2.5,0,.4-.3,0-.6-.4-1-.8-1.3h0c0,.1,0,.1,0,.1Z"/>
      <path class="st37" d="M167.3,221.1s-.1,0-.2.1v.2s.1,0,.2.1c.3,0,.6.3.8.2.4-.3,0-.7-.3-.7h0c-.2.1-.4.2-.6.2h.1Z"/>
    </g>
    <g>
      <path class="st20" d="M170.7,171.5c0-.4-.1-.8-.3-1.1-.3-.6-.5-1.3-.5-2.1,0-1.5.9-2.6,1.9-2.7,1.3.8,1.7,1.5,2.6,2.2,0,.2-.1.6,0,.8,0,.1,0,.2.1.4-.3-.5-.7-.8-1.2-.9,0,0-.1,0,0,.2.4.7.8,1.4,1.2,2.1-.3-.2-.7-.1-1,0v.2c.3.2.6.5.9.6-.5.2-.9.4-1.4.6v.2c.4.1.8.2,1.2.1-.5.4-.9.7-1.5.9v.2c.9-.2,1.8-.4,2.6-.9-1,.9-1.9,1.9-2.6,3.2-.2.2-.5.4-.8.5-.5.2-1,0-1.4-.6s-.4-1.6-.3-2.4c.1-.5.4-.9.5-1.5ZM170.7,166.4c-.2.2-.3.4-.3.7h0c0-.2.2-.5.3-.7h0ZM170.7,166.9c-.1.3-.2.5-.3.8,0,0,0,.1,0,0,.1-.3.2-.5.3-.8,0,0,0-.1,0,0ZM170.8,175.4c.2.2.4.3.6.2h0c-.2,0-.4,0-.6-.2h0ZM171.1,175.2s0-.1,0,0c-.2,0-.4,0-.6-.2h0c.2.3.4.4.6.3h0Z"/>
      <path d="M170.7,166.5c-.1.2-.2.4-.3.7h0c0-.3.2-.5.3-.7h0Z"/>
      <path d="M170.8,167c0,.3-.2.5-.3.8h0c.1-.3.2-.5.3-.8h0Z"/>
      <path d="M170.5,174.8h0c.2.3.4.4.6.3,0,0,0-.1,0,0-.2,0-.4,0-.6-.2h0Z"/>
      <path d="M170.8,175.3h0c.2.2.4.3.6.2h0c-.2,0-.4,0-.6-.2Z"/>
      <path d="M172.2,178.7c0,.4.2.7.4.8h0c-.2-.1-.3-.4-.4-.7h0Z"/>
      <path d="M172.3,178.3c0,.3,0,.5.2.8h0c0-.2-.1-.5-.1-.7h0Z"/>
      <path class="st1" d="M175.3,168.7c.7,1.4,1.4,3.2.6,3.5h-.2s0-.2-.1,0h0c-.4-.5-.6-1.7-.7-2.5-.1-.5-.3-.9-.5-1.4,0-.4,0-.7.9.6v-.2Z"/>
      <path class="st23" d="M174.4,171.8h-.1c-.3.1-.7.1-1,0,.4-.2.8-.3,1.2-.5v-.2h0c-.2-.2-.5-.4-.8-.6h.4c.2,0,.3.1.5.2h0s.1,0,0,0h0c-.3-.8-.7-1.5-1.1-2.2.5.2.9.7,1.2,1.4.1.5.2,1,.3,1.4,0,.3.2.7.4.9-.7.3-1.3.6-2,.7.4-.2.7-.5,1.1-.8v-.2h0Z"/>
      <g>
        <path class="st20" d="M172.7,175.8c0-.1.1-.2.2-.4l.2-.2h0c.6-1.1,1.4-1.9,2.2-2.7-.5.9-.8,2.1-.9,3.2,0,.1.1.1.1,0,.2-.7.5-1.4.9-2-.2.7-.2,1.6,0,2.3h.1c.1-.6.3-1.2.4-1.7,0,.7,0,1.4.1,2,0,0,0,.1.1,0,.2-.6.3-1.2.3-1.9.1.9.3,1.9.4,2.8,0,0,.1.1.1,0,.2-1.4.1-3-.3-4.3.3.6.7,1.3,1,1.9.1.2.3.4.4.6.2.9.4,1.8.3,2.8,0,.9-.5,1.9-1.2,2.1-.6.2-1.3-.3-1.9-.4-.6,0-1.1.3-1.6.4-.8.2-1.5-.4-1.6-1.5-.2-1.1.2-2.3.7-3.2v.2ZM172.4,178.3h0c0,.3,0,.5.2.8h0c0-.2-.1-.5-.1-.7h0ZM172.6,179.5h0c-.2-.1-.3-.4-.4-.7h0c0,.4.2.7.4.8h0Z"/>
        <path class="st23" d="M176.8,176.8c-.1-.9-.3-1.9-.4-2.8h0c0,.7,0,1.4-.2,2.1,0-.6,0-1.3-.1-1.9h0c-.2.5-.3,1.1-.4,1.6-.1-.7,0-1.5.2-2.2h0c-.4.4-.7,1-.9,1.6.2-1.1.6-2.1,1.1-2.9h.3v.2c.4,1.4.6,2.8.5,4.3h-.1Z"/>
      </g>
      <path class="st20" d="M174.7,167.9c.5.2,1.8,1.3,2.5,1.7-.3.5-.6,1-.8,1.5-.1-.7-.6-2.5-1.7-3.2Z"/>
      <path class="st23" d="M176.4,171.4h0s0-.1.1-.2c.4-.5.9-.9,1.4-1.1h.2c-.4.3-.7.7-.9,1.1,0,0,0,.1,0,0h1.1c-.3.1-.7.3-1,.5v.2h0c.3,0,.6.2.8.5h-.8c.2.3.4.5.6.7-.7,0-1.3-.4-1.8-1.1v-.6h.3Z"/>
      <path class="st20" d="M178.4,173.4v-.2c-.2-.2-.5-.4-.7-.6h.9v-.2c-.2,0-.3-.2-.5-.3-.2,0-.3-.2-.5-.2h0c.4-.2.8-.4,1.3-.6v-.2h-1.4c.3-.4.6-.7.9-1,1,.5,2,1,2.9,1.6v1.3c.1,1,.3,2.1-.1,3-.5,1-1.3,1.1-2,.5-.4-.4-.8-.9-1.1-1.5h0c0-.2-.2-.4-.3-.5-.4-.6-.7-1.2-1-1.8.5.5,1.2.7,1.7.6h0ZM180.1,176.5c.2,0,.4-.2.6-.3h0c-.2.2-.3.3-.5.3h-.1ZM179.8,176.3c.2,0,.4,0,.6-.2,0,0,0-.1,0,0-.2.1-.4.2-.5.2s0,0,0,.1h-.1Z"/>
    </g>
  </g>
  <g>
    <path class="st66" d="M150.3,126.5c-7.8,15.2-13.1,19.4-23.3,23.7,1-10-3.8-18.8-3.8-18.8l27.2-5h0Z"/>
    <polygon class="st40" points="116.7 137.2 109.3 151.3 95 156.3 80.7 149.3 83.8 94.1 107.1 92.8 116.7 137.2"/>
    <polygon class="st40" points="139.3 153.8 197.4 144.1 195.8 83.6 163.4 84.5 139.3 153.8"/>
    <path class="st38" d="M79.6,141.9c1.1-4.4.3-9.3-.2-14.4-.8-5.6,0-22.6,1.5-37.5l6.4-.3c-1.1,6.3-.7,13.3.7,19.7,7.1-5.2,18.9-10,37.3-13.7.8,5.1,2.8,19.7-1,34.8-5.9,23-27.5,27.5-27.8,26.8s16.3-5.8,19.2-23.9c1.4-8.6,1.5-19.2.8-19.2s.6,13.1-3,24.4c-5.2,16.1-24.2,19.7-20.7,17.2,2.6-1.9,7-7.5,10.1-16.3-.2.3-.3.7-.5,1-5.2,9.9-6.5,13.4-11.4,14.6-8.4,2.1-21.8-4.1-21.8-4.1,0,0,9.1-4.2,10.3-9.2h0Z"/>
    <image class="st28" width="395" height="411" transform="translate(56.9 85.6) scale(.2)" xlink:href="question-woman-soldier-4.png"/>
    <path class="st47" d="M126.8,32c-11.8-2.2-22.9,6.5-25,8.3-15.9,13.4-13.8,36.7-13.2,41.6,0,.5,0,1-.2,1.5-.4.9-1.1,2.8-1.8,5.3,0,0-1.7,5.7-1.6,11.9,0,6.7,4.9,19.5,16.3,31.7,1.3,1.4,3,2.2,4.9,2.4,8.4.8,20.9.8,34.5-4.5,4.8-1.8,7.5-2.9,9.9-5,20.4-17.1,5-87.7-23.8-93.2Z"/>
    <path class="st27" d="M86.2,93.4c0-1.1,0-2.3.8-3.2-.2-.4-.3-.8-.2-1.2l2.1-5.7c-.6-5.8-.5-11.6.6-17.2-.8,1.6,7.8-1.3,17.6.8l-.7,7.7c-.6,2.4-.8,9.2-3.2,10.5s-5.5,6.3-5.4,8c0,2.4-2.5,4.5-5.7,4.5-8,.2-5.8-1.8-5.9-4.2Z"/>
    <path class="st31" d="M147.1,80.1l-21.1,1.5c-1.3-.7-2.6-5.2-3.2-7.3l-2-6.5c9.2-1.1,18.3,0,27.2,3.8l-.8,8.5h-.1Z"/>
    <path class="st30" d="M126.1,81.6c0,2.6,3.7,4.7,8.2,4.6,4.4,0,8-2.3,7.9-5,0-2.6-2.8-5.6-8.2-5.5s-8,3.3-7.9,5.9Z"/>
    <ellipse class="st46" cx="134.5" cy="80.6" rx="4.4" ry="4.8" transform="translate(-2.1 3.5) rotate(-1.5)"/>
    <path class="st67" d="M126.2,80.3c.9-6.4,6.1-6,8.9-6.1s6.3,1.7,8.7,4.4c1.2,1.3,4.6.3,4.6.3.5.2-2.5,4.5-6.6,3.7-.3-7.2-12.1-8.4-15.6-2.3Z"/>
    <path class="st30" d="M104.9,79.7c0,2.6-2.5,4.8-5.8,4.9-3.3,0-6-2-6.1-4.6s1.8-5.8,5.8-5.9,6.1,2.9,6.1,5.5h0Z"/>
    <ellipse class="st46" cx="99.6" cy="78.7" rx="4.6" ry="4.3" transform="translate(-6.5 148.4) rotate(-71.6)"/>
    <path class="st67" d="M104.7,78c-1-6.3-4.8-5.7-6.9-5.6s-4.7,2-6.3,4.8-3.4.5-3.4.5c-.3.2,2.1,4.4,5.1,3.4,0-7.2,8.6-9,11.6-3h0Z"/>
    <path class="st59" d="M107,61.6v3.3c0,.4-.3.8-.7.7-8.1-.7-12.5-.7-16.8-.5s-.4-.3-.2-.5c3.8-4.2,6.6-4.4,17-3.7.4,0,.7.3.7.7Z"/>
    <path class="st59" d="M120.9,62.9v3.4c0,.4.5.7.9.7,8.3-1,16.3.5,25.9,3.8s.7-.3.4-.6c-6.2-6.5-16-9-26.5-7.9-.4,0-.6.4-.6.7h0Z"/>
    <ellipse class="st26" cx="137.3" cy="97.3" rx="14" ry="7" transform="translate(-2.5 3.6) rotate(-1.5)"/>
    <path class="st41" d="M103.1,93.6c2.2-1.3,4.9-1.7,7.7-2-3,2.3-6,4.6-9,7-.2-.2,2.1,2.2,2.5,2.4h0s-4.4-.6-4.9-2.5c-.4-1.5,3.4-4.9,3.6-5h.1ZM101.2,95.9h0Z"/>
    <path class="st68" d="M127.1,32.4l-26.1,2.9-10.5,32.2c6.6-13.6,20.3-29.4,35.5-32.5s2.9-3,1.2-2.6h0Z"/>
    <path class="st38" d="M181.5,84.4v.3c0-.3.1-.4,0-.3Z"/>
    <path class="st38" d="M140.5,20.7c27-6.4,35.1-.5,43.1,11,0,0-5.6-12.9-17.9-14.7-14.9-2.1-25.1,3.8-25.1,3.8h-.1Z"/>
    <path class="st38" d="M175.4,88.6"/>
    <path class="st38" d="M191.6,51.5c.4-.2,1.7,13.7,8.1,31,5.2,14.2,8.3,15.3,10,25,2.7,15.7-2.2,29.8-2.5,29.7-.3,0,3.9-12.9,1-27.8-2.1-10.6-5.6-11.7-10.3-24.7-6.1-16.8-6.7-33-6.2-33.2h-.1Z"/>
    <path class="st9" d="M123.7,29.9c.9,4.4,3.5,14.4,12,23.6,10.1,10.8,22.1,13.8,26.4,14.6"/>
    <path class="st38" d="M82.5,75.2c.6-4.6.4-52.9,42.1-56.7,18.3-1.7,41.3-2,55.7,12.4,27.4,27.5,25.3,70.1,24.1,76.3,0,0,0,.4-.2.9,0,0,.1,3.5-1,6.3-1.9,4.8-5.1,22.6,5.3,29.3-1.3,5-17.9,17.4-25.3,10.2-14.3-13.8-1.8-69.1-1.7-69.2v-.3h0v.3c-10.4,6.1-12.5,72,1.5,70.3v.2c0,2.1-17.1,7.9-25.2,1.9-1.2-.9-5.3-4.6-4.3-19.2.6-8.9,3.1-24.1,14.6-43-.5,3.3-3.2,15.3-8.5,27-2.8,6.1-7.5,11.7-10.4,16.9-3,5.5-3.2,11.2-6,13.2-6.1,4.4-8.5,0-8.5,0,6.8,1,8.4-3.8,8.7-4.4.3-.5,1.9-8.4,4.9-13.5,7.6-13.1,10.2-26.7,10.2-26.7,3.7-19.1-1.3-35.6-4.1-43.1-15.1-8.6-24.2-20.7-26.3-32.1-27.8,3.6-36.5,22.6-38.3,49.7-1.1,2.4-3.3,6.3-3.7,9.1l-5-1c.5-5.4,1.1-10.5,1.6-14.7h-.2Z"/>
  </g>
  <g>
    <path class="st20" d="M151.5,67.9c0,2,1.6,2.7,2.9,2.6,2.5-.3,4.7-2.3,6.8-3.8h.1v-.2h-.2c-1-.4-1.9-.4-2.9,0-.1,0-.1-.2,0-.2,1-.5,2-.5,3,0h0c-1.2-1-2.4-1.4-3.8-1.3,0,0-.1-.2,0-.2,1.4-.2,2.8.3,3.9,1.4h0c-.5-.9-1-1.9-1.5-2.8-.5-.7-1-1.4-1.6-2,0,.2.2.3.2.5h0c-.1-.5-.4-.8-.7-1h0c-.2-.3-.4-.4-.6-.6-1.1-.7-2.5-1.2-3.6-.5-.6.4-1,1.1-1,2s.8,2,1.5,2.6c0,0,.1.3,0,.3-1.1.6-2.5,1.5-2.5,3.3h0ZM152.3,69.2c-.2-.4-.4-.8-.4-1.3h0c0,.4.1.9.3,1.3,0,0,0,0,0,0h0ZM152.4,68.4h0c0-.3,0-.7.1-1h0c0,.3-.1.6-.1.9h0ZM157.2,60.8h0c.3,0,.6.2.7.5,0,0,0,0,0,0-.2-.3-.4-.5-.7-.6h0Z"/>
    <path class="st20" d="M154.6,74.6c0,1,.1,2.3,1,2.6.7.2,1.4-.3,2-.7.1,0,.3,0,.2.2-.4,1.4.5,2.8,1.6,2.9,1.3,0,2.2-1.3,2.6-2.8.8-2.8.4-6.3-.2-9.1h0c-.1,1.4-.6,2.7-1.4,3.6,0,0-.2,0-.1-.2.8-1,1.2-2.1,1.4-3.5h0c-.5.8-1.1,1.4-1.8,1.8,0,0-.2,0,0-.2.7-.4,1.3-1,1.8-1.7h-.1v-.3h0c-1.4,1-2.9,2.1-4.5,2.9-.3,0-.5.3-.8.4h0c-.3.6-.7,1.1-1,1.7-.3.8-.6,1.7-.6,2.6v-.2ZM155.9,72s-.1,0,0,0c.2-.4.6-.7.9-.8h0c-.3.3-.6.5-.9.9h0ZM156.4,71.1h0c.2-.3.5-.5.8-.5h0c-.3,0-.5.2-.7.5h-.1ZM159.4,78.3h0c.2,0,.4,0,.6-.3h0c-.2.2-.4.2-.7.2h0ZM159.8,78.8h0c.3,0,.6,0,.8-.4,0,0,.1,0,0,0-.2.3-.6.5-.9.3h0Z"/>
    <path class="st20" d="M158.2,55.2c-1.2.9-.4,2.9.1,4,1.1,2.2,2.2,4.3,3.3,6.5h.1c-.2-1.6-.6-3.1-1-4.7,0,0,.1-.2.2,0,.5,1.4.8,3,1,4.6.3-1.4.3-2.7.2-4.1,0,0,.2,0,.2,0,.1,1.2,0,2.5-.2,3.7.4-1.1.9-2.1,1.4-3h0c.8-1.5,1-3.7.8-5.5-.1-1.1-.6-3.1-1.7-2.4-.6.4-1.1,1.4-1.6,2.1h-.2c-.7-.8-1.7-1.6-2.6-.9v-.3ZM157.9,56.9c0-.4,0-.7.3-1,0,0,.1,0,0,0-.2.2-.3.5-.2.8,0,0,0,0,0,0h-.1ZM163.8,57c0,0-.1,0-.1,0,0-.5,0-.9-.2-1.4,0,0,0,0,.1,0,.1.5.2.9.2,1.4ZM164,57.6h0v-1.4h0v1.4Z"/>
    <path class="st20" d="M162.6,74.8h0c.3,1.5.7,3.5,2.2,3.1,1.3-.4,2.4-2.3,1.9-4,0,0,0-.2.2-.2.6,0,1.4.3,1.8-.4.3-.5.1-1.3,0-1.8-.3-.9-.7-1.7-1.3-2.3-1.1-.7-2.2-1.3-3.4-1.4h-1.9c1.4.6,2.6,1.9,3.4,3.5,0,0,0,.2-.1,0-.8-1.6-1.9-2.7-3.3-3.4v.2h0c.6.9,1.2,2,1.3,3.2,0,0-.1.2-.2,0-.3-1.2-.7-2.2-1.3-3.2h0c.3,1.9.5,3.9.5,5.9v.8h.2ZM168,71.5s0,0,0,0c.3.2.4.6.3,1h0c0-.3,0-.7-.3-.9h0ZM168.7,72.8s-.1,0,0,0c0-.4,0-.8-.2-1.2,0,0,0,0,0,0,.2.4.3.8.2,1.3h0Z"/>
    <path class="st1" d="M161.6,67.1h0c.9.7,2.2.2,3.2.5,1,.2,2,.8,2.9,1.4,1,.7,1.9,1.6,2.7,2.6.5.5.9,1.1,1.4,1.6h0c.2.3.6,1.1.8,1.4-1.1-2.3-2.6-4.8-4.3-6.3-.9-.8-1.9-1.5-3-1.9-.6-.3-2.4-1.1-3.3-.7,0,0,0,.2-.1.3,0,0-.2,0-.1,0h0c-.1,0-.2.2-.2.3h0v.6h0c0,0,0,.2,0,.2ZM161.9,66.5s-.1,0,0,0c.2-.2.5-.4.8-.4h0c-.3,0-.5.2-.7.4h-.1Z"/>
    <path class="st20" d="M162.4,65.4h-.1c.4,0,.7,0,1,0,1.4.3,2.7.9,3.9,1.8.2,0,.3.2.5.3h0c1-.2,2.7-.2,2.8-2,0-1.7-1.3-2.5-2.3-3-.1,0-.1-.2,0-.3.6-.9,1.7-3.3.1-3.9-1.1-.4-2.3.7-3,1.6-1.2,1.5-2.1,3.4-2.9,5.3,1.1-1.3,2.5-2.5,3.8-3.3,0,0,.1,0,0,0-1.3,1.1-2.5,2.1-3.7,3.2,1.1-.4,2.3-.7,3.5-.9,0,0,.1.2,0,.2-1.2.2-2.4.5-3.5.8h-.1ZM164.9,61.1h0c.2-.4.5-.6.9-.7h0c-.3,0-.6.4-.8.7h0ZM165,60.7s-.1,0,0,0c.2-.4.5-.6.9-.7h0c-.3.2-.6.5-.8.8h0Z"/>
    <path class="st16" d="M171,73.8c0,.3.2.6.4.4,0-.2.1-.3.2-.4v-.3c-.1-.2-.2-.3-.4-.5-.1.2-.3.4-.3.7h.1Z"/>
    <path class="st16" d="M171.9,73.8c-.2.4-.5.8-.3,1.3.1.3.4.4.5.2,0-.3,0-.5.1-.8v-.3c-.1,0-.2-.2-.3-.4Z"/>
    <path class="st16" d="M172.2,75.2c0,.2,0,.4.2.6.3.3.3-.3.4-.5v-.5h0c-.1,0-.2-.2-.3-.3v.8h-.3Z"/>
    <path class="st16" d="M172,72.5h0c.1.3.3.5.4.8h0c.2-.2.4-.3.6-.3s.2-.2.2-.3c0-.3-.3-.5-.4-.5-.2,0-.5.2-.7.3h-.1Z"/>
    <path class="st16" d="M172.4,73.4h0c.1.3.3.6.4.9h0c.2-.2.5-.3.8-.3h0c.1-.3,0-.4,0-.4-.3-.2-.6-.2-.9,0-.1,0-.2,0-.3.2h0v-.4Z"/>
    <path class="st16" d="M172.9,74.9c0,.3,0,.7.2,1,0,.2.2.4.3.5.2.2.5,0,.5-.3,0-.6-.5-1-1-1.2h0c0,0,0,0,0,0Z"/>
    <path class="st16" d="M173,74.3s-.1,0-.2,0v.2h.2c.3,0,.7.3.9,0,.4-.3-.1-.7-.4-.7h0c-.2.2-.4.2-.6.2v.2Z"/>
  </g>
  <path class="st5" d="M128,115.8c-1.1,0-2.1,0-3.1.2-2.4.4-4.7,1.3-6.7,3"/>
  <path class="st29" d="M129.3,148.7c-.4-15.6,15.5-16.1,11-18.7-4.3-2.4-9.3,5.2-18.7,3.7-13.4-2.1-22.7-20.1-27.8-15.9-3.4,2.8,13.5,16.4,10.2,16.5-8.3.2-6.8,5.2-7.9,5.5-1.9,1.5-3.6,3.3-3.3,6.4,0,.8-2.9,3.4-.2,6.6,3.1,3.7,5.1,6.8,9.4,9.2,2.4,1.3,12,12.4,14.9,13.7,3.2,1.5,5,12,7.1,26.1,6.3-5.1,9.1-5.1,16.9-6.9-6.7-19.4-11.5-41.2-11.7-46.2h.1Z"/>
  <path class="st15" d="M194.2,263l-25.5-25.7-8,9.4s-31.1-86-31.4-97.9c-.4-15.6,12.4-15.2,8.1-17.7-4.2-2.4-9.1,5.2-18.1,3.7-13-2.1-22-20.1-26.9-15.9-3.3,2.8,13,16.4,9.9,16.5-8,.2-6.6,5.2-7.7,5.5-1.9,1.5-3.5,3.3-3.2,6.4,0,.8-2.8,3.4-.2,6.6,3,3.7,4.9,6.8,9.2,9.2,2.4,1.3,11.7,12.4,14.4,13.7,9.5,4.7,6.2,91.6,36.8,112.9,1.7,1.2,9-.3,15.2-2.9,9.5-4.1,18.9-13.4,27.5-23.7h-.1Z"/>
  <g class="st58">
    <path class="st57" d="M160.7,245.3c2.8,5.8,7,12.1,6.2,18.8-1.3-4.8-2.2-9.6-4.4-14.1l-1.9-4.6h0Z"/>
  </g>
  <path class="st29" d="M94.1,139.9c4.3,1.5,8.3,3.5,11.2,6.1l-.4-.2c-3.2-2.1-4.9-2.9-9.8-5.3"/>
  <path class="st29" d="M91,147.2c4.3,1.6,8.3,3.5,11.2,6.2l-.4-.2c-3.2-2.1-4.9-2.9-9.8-5.4"/>
  <path class="st29" d="M196,262l-27.2-24.7s-5.5,5.2-5.7,6.4c10.5,8.6,28.4,23,25.6,26.8l7.3-8.5h0Z"/>
  <path class="st53" d="M192.8,263.7c9.6-4.2,10-10.7,8.9-14.9l-29.9-22c-3.6,2.8-6.2,10-8,13.8,0,0,16.2,16.7,29,23.2h0Z"/>
  <path d="M37.3,166.1c-.3.2-.6.3-1,.3-.4,0-.6-.2-.9-.5-.2-.2-.3-.4-.5-.6-.1-.2-.3-.4-.5-.6-.7-1.4-1.1-2.9-1.2-4.4s0-3,.2-4.5.5-2.9.7-4.3c.2-1.3.4-2.6.4-3.7s-.2-2.1-.7-2.9c-.5-.9-1.1-1.4-1.9-1.7s-1.6-.3-2.5-.1-1.7.6-2.5,1.1c-1.5,1.1-2.3,2.2-2.7,3.5-.3,1.3-.2,2.7.4,4.4.1.5.2,1,0,1.4,0,.4-.4.8-.8,1.1l-6.6,4.8c-.4.3-.8.4-1.2.3-.5,0-.8-.4-1.2-.8-1-1.5-1.7-3.2-2-5-.3-1.9-.3-3.8.2-5.9s1.4-4.2,2.8-6.2,3.4-4,5.9-5.8c2.7-2,5.2-3.3,7.5-4,2.3-.7,4.3-.8,6.1-.5s3.3.9,4.6,1.8c1.3.9,2.3,1.8,2.9,2.9.9,1.3,1.5,2.7,1.8,4.1s.4,2.8.3,4.2-.2,2.8-.4,4.2-.3,2.7-.4,4c0,1.3,0,2.5.4,3.7.1.3.2.6.3.9,0,.3.2.6.4.9,0,.7.1,1.2,0,1.6,0,.4-.3.7-.7,1.1l-7.6,5.5ZM45.8,177.6c-.4.3-.8.4-1.3.3s-.8-.3-1.1-.7l-4.5-6.2c-.3-.4-.4-.8-.3-1.2,0-.5.3-.8.7-1.1l7-5.1c.4-.3.8-.4,1.3-.3.5,0,.8.3,1.1.7l4.5,6.2c.3.4.4.8.3,1.3,0,.5-.3.8-.7,1.1l-7,5.1Z"/>
  <path d="M227.7,58.9c-.5-.1-.9-.4-1.2-.8-.3-.4-.4-.9-.3-1.4,0-.4.2-.7.2-1.1,0-.3.2-.7.2-1.1.8-2.1,2-4,3.5-5.5,1.5-1.6,3.1-2.9,4.9-4.1,1.8-1.2,3.5-2.3,5.2-3.3,1.7-1,3.1-2.1,4.4-3.2,1.3-1.1,2.1-2.3,2.4-3.6.4-1.4.4-2.6,0-3.7-.5-1.1-1.2-2-2.3-2.8-1.1-.8-2.2-1.3-3.6-1.6-2.5-.5-4.6-.4-6.3.5s-3.1,2.4-4.2,4.6c-.4.6-.9,1.1-1.4,1.4-.5.3-1.2.4-2,.2l-11.5-2.5c-.6-.1-1.1-.5-1.5-1.1-.3-.6-.4-1.2-.3-2,.6-2.5,1.7-4.8,3.4-7,1.7-2.1,3.8-4,6.5-5.5s5.8-2.5,9.4-2.9c3.6-.4,7.5-.2,11.9.7,4.7,1,8.5,2.4,11.4,4.2,2.9,1.8,5.1,3.8,6.5,6,1.4,2.2,2.3,4.4,2.6,6.6s.2,4.2-.3,5.9c-.5,2.2-1.4,4.2-2.6,5.8-1.2,1.6-2.6,3.1-4.1,4.4-1.6,1.3-3.2,2.5-4.8,3.6s-3.2,2.3-4.6,3.4-2.6,2.5-3.5,3.9c-.2.4-.4.8-.7,1.2-.2.4-.4.8-.6,1.2-.6.7-1.2,1.2-1.6,1.6-.5.3-1.1.4-1.8.2l-13.2-2.8ZM223.6,78.9c-.7-.1-1.2-.5-1.6-1-.3-.5-.4-1.1-.3-1.8l2.3-10.8c.1-.6.5-1.1,1-1.5.5-.4,1.2-.5,1.8-.3l12.1,2.6c.7.1,1.2.5,1.6,1.1.4.6.5,1.2.4,1.8l-2.3,10.8c-.1.7-.5,1.2-1.1,1.5-.6.3-1.2.4-1.9.3l-12.1-2.6Z"/>
</svg>