<?xml version="1.0" encoding="UTF-8"?>
<svg id="Layer_1" xmlns="http://www.w3.org/2000/svg" version="1.1" xmlns:xlink="http://www.w3.org/1999/xlink" viewBox="0 0 277.3 852">
  <!-- Generator: Adobe Illustrator 29.2.1, SVG Export Plug-In . SVG Version: 2.1.0 Build 116)  -->
  <defs>
    <style>
      .st0 {
        fill: #9d2d46;
        stroke: #a6304a;
      }

      .st0, .st1, .st2, .st3, .st4, .st5, .st6, .st7, .st8, .st9, .st10, .st11, .st12, .st13, .st14, .st15, .st16, .st17, .st18, .st19, .st20, .st21, .st22 {
        stroke-miterlimit: 10;
      }

      .st0, .st4, .st11, .st17, .st19 {
        stroke-width: .5px;
      }

      .st1 {
        stroke: #747560;
      }

      .st1, .st2, .st12, .st21, .st22 {
        fill: none;
      }

      .st2, .st14 {
        stroke: #000;
      }

      .st23 {
        fill: #fcf8cd;
      }

      .st24 {
        fill: #bfbb9c;
      }

      .st25 {
        fill: #332024;
      }

      .st26 {
        fill: #462e34;
      }

      .st27 {
        fill: #6f705c;
      }

      .st3 {
        stroke: #82826c;
      }

      .st3, .st6 {
        fill: #878771;
      }

      .st4 {
        fill: #1b8054;
        stroke: #197949;
      }

      .st5 {
        fill: #231f20;
      }

      .st5, .st6 {
        stroke-width: .8px;
      }

      .st5, .st6, .st15, .st21 {
        stroke: #231f20;
      }

      .st6 {
        opacity: .1;
      }

      .st28 {
        fill: #cf9180;
      }

      .st7 {
        fill: #d44569;
      }

      .st7, .st8, .st18, .st20 {
        stroke: #c73e5a;
        stroke-width: .2px;
      }

      .st29 {
        fill: #fff14d;
      }

      .st30 {
        fill: #636352;
      }

      .st31 {
        fill: #f38e7f;
        opacity: .4;
      }

      .st8 {
        fill: #cc4063;
      }

      .st32 {
        fill: #da6869;
        opacity: .6;
      }

      .st33 {
        fill: #fffcfc;
        opacity: .8;
      }

      .st34 {
        fill: #fff;
      }

      .st9 {
        fill: #f7a698;
        stroke: #e3a18d;
      }

      .st35 {
        fill: #e28577;
      }

      .st36 {
        fill: #1e7d54;
      }

      .st37 {
        fill: #70754d;
      }

      .st10 {
        fill: #81816b;
        stroke: #787963;
      }

      .st38 {
        fill: #c04a56;
        opacity: .7;
      }

      .st39 {
        fill: #6e6f5c;
      }

      .st11 {
        fill: #218f64;
        stroke: #198059;
      }

      .st12 {
        stroke: #cc6c5b;
        stroke-linecap: round;
      }

      .st12, .st40 {
        opacity: .4;
      }

      .st41 {
        fill: #2e0e01;
      }

      .st42 {
        fill: #787963;
      }

      .st43 {
        fill: #994638;
      }

      .st13 {
        stroke: #ba4e55;
      }

      .st13, .st44 {
        fill: #c15259;
        opacity: .4;
      }

      .st45 {
        fill: #2c2a14;
      }

      .st46 {
        fill: #81816c;
      }

      .st47 {
        fill: #393f36;
      }

      .st48 {
        fill: #31242d;
        opacity: .3;
      }

      .st14 {
        fill: #1e2722;
      }

      .st49 {
        fill: #0e2e19;
      }

      .st50 {
        fill: #7c7c66;
      }

      .st15 {
        fill: #6d6e5a;
      }

      .st16 {
        stroke: #e5a290;
      }

      .st16, .st51 {
        fill: #f2ab95;
      }

      .st52, .st18 {
        fill: #df4665;
      }

      .st53 {
        fill: #c55d29;
      }

      .st54 {
        fill: #b1862d;
      }

      .st17 {
        fill: #249b6c;
        stroke: #219165;
      }

      .st55 {
        fill: #0c0706;
      }

      .st56 {
        fill: #005236;
      }

      .st57 {
        fill: #222620;
      }

      .st58 {
        opacity: .4;
      }

      .st59 {
        opacity: 1;
      }

      .st60 {
        fill: #777863;
      }

      .st19 {
        fill: #12734b;
        stroke: #056139;
      }

      .st61 {
        fill: #d7685d;
        opacity: .5;
      }

      .st62 {
        fill: #230c0c;
      }

      .st20 {
        fill: #cc3e61;
      }

      .st63 {
        fill: #f7b295;
      }

      .st64 {
        fill: #b25e4a;
      }

      .st65 {
        fill: #605f44;
      }

      .st66 {
        fill: #ac4727;
      }

      .st67 {
        fill: #e47875;
        opacity: .3;
      }

      .st22 {
        stroke: #6f705c;
        stroke-linecap: square;
        stroke-width: 2px;
      }
    </style>
  </defs>
  <g>
    <path class="st14" d="M27.3,836.6c-5.4-.4-10.5-3.5-12.6-8.1s-2.8-10.1,5.9-15.2c14.6-8.6,26.1-14.9,27.3-20,4.5-17.7,8.2-25.7,9.2-47.8,0,0,38-11,38.9,3,.8,13.3-6.1,25-8,35.7-3.4,20-2.3,32.5,0,42,.7,3,.4,5.2.2,5.7-2.4,8.9-42.4,6.1-61,4.8Z"/>
    <path class="st2" d="M54.3,822.9c-8.7-11-17.5-17.5-26.4-14"/>
    <path class="st2" d="M14.5,821.7c4.3,13,38.8,12.6,73.1,8.4"/>
  </g>
  <path class="st14" d="M165.7,739.3s3.8,16.1,2.4,33.6c-1.3,16.6-9,30.6-10.1,40.7-.5,8.6-.5,16.6,1.6,22.4,3.3,1.7,13,6.4,26.2,5.6,10.5-.6,18-4.3,21.3-6.2.6-2.2,1.4-5.5,1.6-9.5.4-6.7-1-11.5-3.2-19.3-1.2-4.3-3.2-11.2-6.1-21.7-.7-15.2-.2-29.8,2-43.7-11.2,2-23.2,1-35.7-1.7Z"/>
  <path class="st2" d="M163.7,816.6c10.6-10,35.3-6.8,39.4.3"/>
  <path class="st2" d="M208.3,829.4c-16.6,6.2-33.3,6.4-49.9.3"/>
  <path class="st21" d="M226,420.2c-12.7,12.2-34.9-2.6-34.9-2.6,0,8.5-31,6.3-46.2-2.6"/>
  <path class="st10" d="M214.5,403.9c.6,35.4,5.3,29.8,5.9,65.1.4,27.6,1,93.8-1,122.2-2.5,35.5-7.8,38.5-7.1,46.8,1,13.3,6.4,19,4.6,40.3-.7,7.7-1.4,20.5-3.4,30.7-1.9,9.8-1.4,20.5-4.6,35.9-.7,3.5-4,6-7.5,7.1-8.8,2.5-12.6,1.1-14.1,1.4-5.6,1-8.1-.5-21.5-.7-2.7,0-5.7-2.8-5.7-5.5l-10.5-174.3-.6-97.9c-2.6,32.8-4.6,65.4-10,97.9-4.7,28.1-12.8,56.2-15.1,84.6-.7,8.4-8.1,25.5-8.7,33.9-.7,9.3-4.9,23.6-5.7,33-.7,9.2-3.4,15.5-3.5,24.7,0,3.7-8.9,12.5-12.7,12.6-15,.5-24.6,2.6-39.5-1s-3.4-14.8-3.4-19.4c0-7.9,1.6-16.8,1.4-22.3-.2-6.8,5.5-21.7,6-33.9.6-14.6,6.3-35.4,7.1-47,2-29.3,3.2-56.2,3.2-56.2,3.2-34.2,12-70.3,12.5-93.8.5-21.5,1.9-50.6,6-85.3l127.9,1.1Z"/>
  <path class="st1" d="M166,465.9c-15.5,3.8-19.5.5-35,4.3"/>
  <polyline class="st42" points="216.1 423.6 198.2 423.6 201.3 480.5 220.2 485.5"/>
  <path class="st1" d="M157.2,418.1c-3.5,10.4-4.5,20.8-2.7,31.2"/>
  <polyline class="st42" points="85.7 424.6 105.2 423.6 102.1 480.5 81.1 483.9"/>
  <polygon class="st39" points="219.4 438.6 197 439.3 196.7 423.6 216.6 423.6 219.4 438.6"/>
  <polygon class="st39" points="83.1 437.7 105.5 438.3 105.8 422.7 85.8 422.7 83.1 437.7"/>
  <polygon class="st42" points="85.3 424.1 105.7 424 105.8 422.7 85.8 422.7 85.3 424.1"/>
  <polygon class="st42" points="217.1 424.8 196.7 424.6 196.7 423.4 216.6 423.4 217.1 424.8"/>
  <g>
    <path class="st5" d="M96,435.1"/>
    <ellipse class="st15" cx="144.5" cy="412.6" rx="1.4" ry="4.6" transform="translate(-13.7 5.1) rotate(-1.9)"/>
    <ellipse class="st15" cx="151.7" cy="412.4" rx="1.8" ry="4.6" transform="translate(-14 5.4) rotate(-2)"/>
    <path class="st65" d="M154.6,408.9c19.9-.4,40-2.3,60-2.7.2,3.3.3,6.7.5,10-19.8.4-31.8,1.3-51.6,1.8,0,0-8.6.1-11.5,0l-.4-9.2c2.9.1,3,.1,3,.1Z"/>
    <path class="st65" d="M86.7,404.8c21.5-.5,38.3,4.9,57.7,4.5v7.9c-20.6,1.3-38,.3-59.1-.7.4-3.4,1-8.3,1.4-11.7Z"/>
    <path class="st22" d="M204.5,406.5c0,2.2.9,2.3,1,4.9,0,1.8-.3,3.2-.5,5.3"/>
    <polygon class="st55" points="146.6 416.1 149.7 416.1 149.9 408.9 145.8 409 146.6 416.1"/>
    <path class="st22" d="M95.6,407.1c0,2.1-.8,2.2-.7,4.6,0,1.7.5,3,.8,4.9"/>
    <path class="st22" d="M181.4,407.3c0,2,.7,2.1.8,4.4s-.2,2.9-.3,4.8"/>
    <path class="st22" d="M123.7,408.9c.1,1.9-.5,2-.4,4.1,0,1.5.5,2.7.7,4.4"/>
  </g>
  <g class="st58">
    <image width="845" height="352" transform="translate(49 366.6) scale(.2)" xlink:href="standing-man-soldier-1.png"/>
  </g>
  <g>
    <path class="st9" d="M116.1,112c-.4-10.9-3.7-13-8.4-13s-4.7,11.7-.6,18.7,10.2,9.3,10.6,9c0,0-1.4-10.6-1.6-14.8Z"/>
    <path class="st51" d="M177.2,181.6c-7.9-8.4-2.6-43.4-2.6-43.4l-39.4,15.9s5.5,17.4,2.2,33c-2.6,12.2-15.6,5.7-13.6,9.5,4.9,9.6,64.5,6,64.3-4.7-.1-4.2-4.3-3.2-10.9-10.2Z"/>
    <path class="st38" d="M172.7,148.7c2.8,1.9-19.5,32.1-34.3,27.6,0-6.3-.7-12.2-2.1-18.1l36.4-9.6Z"/>
    <path class="st16" d="M190.9,116.7c-.9,21-17.2,36.8-33,42.7-6.9,1.2-13.9,1.6-20-.2-7.4-4-13.4-15.7-20-29.1-2.7.3-7.7-48.1.1-64.2,7.1-14.6,27.7-13.6,34.4-14.2,1.7-.1,15.4-1.2,17.1,3.5.7,1.7.6,1.9,1.3,4,1.5,4.3,7.7,3.5,10.5,7.8,2.2,3.4.9,6.1,1.3,13.1.4,6,1,8.5,3.9,14.8,0,0,4.9,9.8,4.4,21.9Z"/>
    <path class="st32" d="M186,78.3c-4.2-.8-14-12.7-30.8-13.7-25.7-1.5-36.3,21-41.5,22.7s2.4-24.3,2.4-24.3c1.3,3.8,40.5-17.1,58.4-9,16.6,7.5,16.9,25.3,11.6,24.3Z"/>
    <path class="st26" d="M189.7,123.8c-2.1,8.1-5.4,14.8-10.2,19.6l-2.4,3.4c5.5-6.1,13-13.7,16.2-22l-3.6-1Z"/>
    <path class="st9" d="M191.5,110.6c.5-10.9,3.6-12.3,10.4-13.1,5.8-.7,7.8,10,4.3,18.9-3.5,8.8-15.8,9.1-16.2,8.8,0-.8,1.4-10.4,1.6-14.6Z"/>
    <path class="st12" d="M204.1,102.3c-3.9.4-7,.8-9.3,3.4"/>
    <path class="st44" d="M190.2,119.5c2.1.3,4.3-1.8,4.6-4.4s-1.9-6.7-3.2-5.1-2.2,9.4-1.4,9.5Z"/>
    <g class="st40">
      <path class="st43" d="M189.5,125.8c.6-3.4.9-6.8.7-10.2.6,3.4.6,6.9.3,10.4h-1Z"/>
    </g>
    <g>
      <path class="st26" d="M85.8,55.4s22.8-2.6,18.5-5.2c-1.5-.9-12.9-10.2-10.2-13.4,3,1.7,25.2-.8,20.7-2.8-1.2-.5-10-9.3-9-11.7,4.5,1.9,11.8,3.9,19.3,3.3,24.1-2.1,28.2-7.2,42.8-3,14.8,4.3,23.9,19.7,23.3,17.5-.5-1.8-6.3-13.6-6.3-13.6,8.5,8.5,11.8,16.6,11.8,16.6,0,0,10.4,3.1,13.6,3.7s.3.5,0,.5c-4.5.6-10,1.8-9.3,3.1,1.3,2.5,7.6,4.9,9.3,12.3,1.8,7.6-1.4,15.9-4.7,22.4-2.7,5.4.4,9.7-1.1,12-1.7,2.7-8.3-.5-10.3,3.3-2.2,4.3-4.1,16.1-4.1,16.1l-3.5-.5s1.4-10.6,0-20.2c-.7-4.7-2.3-4.6-4-9.4-2.8-8.3,1.6-10.5-.9-17.4-1.9-5.3-7.4-4.7-11.5-7.2-1.3-.8-1.4-5-1.4-5,0,0-10.1-8.7-17.7-2-8.3,7.3-23.4,9.3-32.2,11.4-6,16.2-5.6,27.4-4.9,42.2,0,0-2.3-9.6-8.8-20.9-.5-.9,4.1-1,4.1-1l-8.9-9.1c-.5-.5-.7-1.2-.5-1.9.9-3.7,4-5.4,8.4-6.9l5.3-1.2c-17,2.6-29.4-10.1-28.1-12.1Z"/>
      <path class="st48" d="M199.6,98.2s2.9-26.6-2.2-33.9c-3-4.3-17.3-10.5-17.3-10.5.3-10.2-9.4-15.6-23-15.4-32.3.5-27,19.4-46.9,17.8-1.9,2.4,4.7,8.6,3.7,11.5-3.9,11.2-3.1,24.7-.4,38.3-1.5-15.9-2.4-30,5.7-39.5,2.4-2.5,15.2-1.6,29-8.9s6.5-5.9,11.8-4.9c12,2.1,10.4,9.5,10.4,9.5,0,0,8.2,2.3,11.2,6,1.9,2.3-.5,11.6.8,17.3s6.2,10.3,4.4,10.7c.9,0,0,20.2,0,20.2,0,0,3,.2,3.5.5s2.9-13.9,4.2-16.5c1.2-2.3,4-2.2,5.1-2Z"/>
    </g>
    <g class="st40">
      <path class="st43" d="M115.1,120.9c-.4-4.8-1.1-9.7-.9-14.6.1,4.9,1,9.7,1.7,14.5h-.7Z"/>
    </g>
    <path class="st25" d="M135,88s.9,3.9.9,3.9c-10,.6-14.6,1.3-19.9,3.2,0-3.3,8-8.7,19.1-7Z"/>
    <path class="st25" d="M147.6,86.5l.6,5c8.8,0,17.7-2.2,32.5-1.6-4.5-5.1-22.1-5.3-33.1-3.4Z"/>
    <path class="st64" d="M141.6,137c2.5-.4,5.1-.1,7.6-.5,2.5-.3,5-.9,7.6-1.2,0,0-.2,0-.2,0,1.4-.7,2.8-1.3,4.3-1.9,0,0,0,0,0,0,0,0-4,2.4-4,2.4-4.9,1.3-10.6,2.3-15.4,1.1h0Z"/>
    <path class="st35" d="M138.2,116.9c1.6-3.2,4.1-5.1,7.2-7.2-1.8,5.1-6.3,8.5-5.1,14.4-.1.4,3.8,2.7,4.5,2.8,0,0,.1,0,.1,0,0,.1-5.8,1.9-7.8-.5-1.6-1.8.9-9.3,1.1-9.5ZM137,121.6s0,0,0,0c0,0,0,0,0,0Z"/>
    <path class="st67" d="M187.8,98.3l-30.3,5.7c-1.4,0-7,.9-8-4.2l-1-7.6c6.6.1,25.9-2.8,35.9-1.7l3.4,7.8Z"/>
    <path class="st31" d="M117.8,107c-1.5-4.2-1.5-8.6-1.3-12.9-.6,1.3,10-3.3,19.8-1.3l.5,5.7c-.2,1.7.4,5.8-1,7.6-6,.7-11.9,1-17.9,1.1,0-.1,0-.2,0-.2Z"/>
    <g>
      <path class="st33" d="M155.9,102.7c.2,3,4.4,5.2,9.5,4.9,5.1-.3,9-2.9,8.9-5.9s-3.4-6.3-9.5-5.9-9,4-8.8,7Z"/>
      <ellipse class="st41" cx="164.4" cy="100.5" rx="4.6" ry="4.5"/>
      <path class="st62" d="M156,101.1c1.8-6.9,8.1-6.4,11.8-5.9s7,4.4,6.3,7.4c-.2-7.8-13.3-9.9-18.1-1.5Z"/>
    </g>
    <g>
      <path class="st33" d="M134.9,103.7c.2,2.7-2.7,5-6.3,5.2-3.6.2-6.7-1.8-6.9-4.4-.2-2.7,1.8-5.9,6.2-6.1s6.8,2.7,6.9,5.4Z"/>
      <ellipse class="st41" cx="129" cy="103" rx="4.3" ry="4.3"/>
      <path class="st62" d="M134.7,102.3c-1.9-5.9-6.4-4.9-8.9-4.2s-4.6,4.5-3.8,7.1c-.6-6.9,8.6-10,12.8-2.9Z"/>
    </g>
    <path class="st13" d="M115.1,118.8c-3.2,1.2-7.2-6.8-7.4-9.9-.2-3.1,6.1-3.8,6.2-1.4,0,1.5,1.5,11.2,1.2,11.3Z"/>
    <ellipse class="st34" cx="168.2" cy="98.9" rx="1.6" ry="1.6"/>
    <ellipse class="st34" cx="132.2" cy="101.6" rx="1.6" ry="1.6"/>
  </g>
  <path class="st37" d="M118.1,239.5l64.6,3-.9-55.3s-22.7,17.5-50.6,1.4l-13.1,51Z"/>
  <path class="st63" d="M73.1,292.8c0,32.8-8.3,69.8-8.3,102.6v51.5c4.5-.9,15.6-3.3,20.1-4.3l16.6-126.8-28.3-23Z"/>
  <path class="st61" d="M89.8,326.6c4.6-12.2-3.2-19.2-16.6-23.1-2.8,8.6-1.8,17.7-1.8,17.7l18.4,5.4Z"/>
  <path class="st63" d="M235.3,297.6c-2.7,29,2.5,58.2-.2,87.2-2.1,22.6-7.8,45.1-9.9,67.7-7.4,2.3-14.7,4.7-22.1,7l4.4-138.7,27.7-23.2Z"/>
  <path class="st61" d="M244.1,291.6c-12.8,8.4-34.6,27-38,40.7,9.2-6.2,32.5-11.6,32.7-12.1l5.2-28.5Z"/>
  <path class="st63" d="M59.4,473.9s1.1,10.5,1.1,13.4c0,3.9,2.2,7.2,3.9,5.9,2.6-1.8-1.2-15.1-1.2-15.1,0,0,3.8,23.4,7.8,23.4,4.6,0-.7-23.6-.6-23.5,0,0,5.5,30,10.2,30s-2.4-30.3-.9-30.8c0,0,1.6,26.6,5.1,27.7,5.3-.2,2.2-29.8,2.6-36.5.4-6.9-2.9,17.6,3.3,14.6,3-4.1,0-25-.6-26.2-5.2-8.3-3.6-19.7-14.3-21.1-6-.8-9.2-6.8-16.6,38.2Z"/>
  <path class="st28" d="M87.6,467.5c-.6.7-1.2,13,.3,13.8"/>
  <path class="st28" d="M80,475.4c-.5,1.4,1.4,26.2,3.1,27.7"/>
  <path class="st28" d="M71.1,478.1c-.3,1.3,3.9,23.2,5.7,24.3"/>
  <path class="st28" d="M65.2,478.8c-.6,1.2,1.7,19.9,3.8,20.8"/>
  <path class="st63" d="M232.6,473.9s-1.1,10.5-1.1,13.4c0,3.9-2.2,7.2-3.9,5.9-2.6-1.8,1.2-15.1,1.2-15.1,0,0-3.8,23.4-7.8,23.4-4.6,0,.7-23.6.6-23.5,0,0-5.5,30-10.2,30s2.4-30.3.9-30.8c0,0-1.6,26.6-5.1,27.7-5.3-.2-2.2-29.8-2.6-36.5-.4-6.9,2.9,17.6-3.3,14.6-3-4.1,0-25,.6-26.2,5.2-8.3,3.6-19.7,14.3-21.1,6-.8,9.2-6.8,16.6,38.2Z"/>
  <path class="st28" d="M204.4,467.5c.6.7,1.2,13-.3,13.8"/>
  <path class="st28" d="M212,475.4c.5,1.4-1.4,26.2-3.1,27.7"/>
  <path class="st28" d="M221,478.1c.3,1.3-3.9,23.2-5.7,24.3"/>
  <path class="st28" d="M226.8,478.8c.6,1.2-1.7,19.9-3.8,20.8"/>
  <path class="st3" d="M109.3,184.8c4.6-.3,9.1-1.1,13.2-2.3-4,.6-8.5,1.3-13.2,2.3Z"/>
  <path class="st3" d="M86.4,302.6c-.1,1.5-.2,2.9-.4,4.4,0,0,0,0,.1,0l.3-4.4Z"/>
  <path class="st3" d="M244.4,281.4c-5.7-21.8-6.5-53.2-7.4-59.1-2.7-19.8-19.3-32.5-20.3-32.8l-42.4-10.5c.2,4.3,1.6,1,.3,3.8-8.1,18-15.5,36.7-24.8,49.5l-11.2-42.4-.6-8.9c0-.1-6.4,0-15.5,1.3-4.1,1.2-8.6,2-13.2,2.3-9,1.9-18.8,4.9-27.2,9.2-17.5,8.9-19.7,65.4-23.9,93.2,9.4,8.7,17.1,14.5,27.9,19.8.1-1.5.2-2.9.4-4.4l2.1-34.3c-.4,11.4-1.1,23-2.1,34.3l-.3,4.4s0,0-.1,0c-3.6,42.3-9.4,80.6-7.7,93.3.3,2.4,2.3,4.3,4.8,4.7,2.9.5,6.4,1.6,13.4,2.1,1,0,4.9,1.5,11.9,2,5.8.4,14.7-1.6,17.3-1.4,11.2.7,11.7-.1,21.1.6,14.2,1,18.3,1.3,24.4.9,7.9-.6,9.5-1.1,22.5-3.6,7.5-1.4,19.2,2.1,22.8-2.7,3-4,.9-5.1.4-9.9-.6-5.4,0-11.4-3.6-18.4l-6.5-78.3,3.3,39.9c1.6-12.4,9.3-14.7,22.1-29.3,2.4,3.1,7.8,5.1,6.8,13.3,5.3-3.3,7.9-11.6,8.1-19.1l-2.6-19.7Z"/>
  <path class="st50" d="M53.8,297.4c3.8,6.1,10.4,14.2,16.8,20.6,1.4-1.5-3.9-14.9-2.1-16.8,3,4.3,13.1,13.8,18.9,16.8l-1.2-15.4c-8.8-4.2-19.8-9.1-28-17.1-3.4,3.7-3.8,6.5-4.3,11.9Z"/>
  <path class="st6" d="M146.7,408.2c-1.1-13.9-.6-34.3,1.5-48.2,3.2-21.4,1.9-38.6.7-53.3-1.2-14.3-1-28.6.6-42.8,1.2-11.1.7-22.2.4-33.3"/>
  <polyline class="st5" points="63 308 70.6 316.2 72.2 305.4 68.6 301.1"/>
  <path class="st6" d="M223.2,228.4c-6.9,11.4-15.2,34.7-15.2,34.7,0,0-2.1,3.3-4.8,5.7"/>
  <path class="st50" d="M238.8,320.2c12.8-11.6,6.3-23.2,6.3-23.2l-36.6,7.7,2.3,24.9c15.8-17.8,25.7-25.3,28.1-9.4Z"/>
  <polygon class="st46" points="90.6 271.4 126.5 268.7 126.5 294.5 91.3 294.9 90.6 271.4"/>
  <path class="st60" d="M93,276l31.2-1.2,2.4-5.8s-.4-6.8-.5-10.2c-11.7.5-23.3,1-35,1.5,0,0-.3,10.4-.3,10.4l2.4,5.3Z"/>
  <g>
    <ellipse class="st47" cx="108.4" cy="269.8" rx="2.9" ry="2.4"/>
    <ellipse class="st57" cx="109.8" cy="269.9" rx=".7" ry=".6"/>
    <ellipse class="st57" cx="107" cy="269.9" rx=".7" ry=".6"/>
  </g>
  <g>
    <ellipse class="st47" cx="142.2" cy="252.3" rx="2.3" ry="2.2"/>
    <ellipse class="st57" cx="142.2" cy="251.2" rx=".5" ry=".5"/>
    <ellipse class="st57" cx="142.4" cy="253.3" rx=".5" ry=".5"/>
  </g>
  <g>
    <ellipse class="st47" cx="139.9" cy="292.4" rx="2.3" ry="2.2"/>
    <ellipse class="st57" cx="139.8" cy="291.2" rx=".5" ry=".5"/>
    <ellipse class="st57" cx="140.1" cy="293.4" rx=".5" ry=".5"/>
  </g>
  <ellipse class="st47" cx="142.1" cy="338" rx="2.3" ry="2.2"/>
  <ellipse class="st57" cx="142.1" cy="336.9" rx=".5" ry=".5"/>
  <ellipse class="st57" cx="142.3" cy="339" rx=".5" ry=".5"/>
  <ellipse class="st47" cx="139.8" cy="380.1" rx="2.3" ry="2.2"/>
  <ellipse class="st57" cx="139.8" cy="379" rx=".5" ry=".5"/>
  <ellipse class="st57" cx="140" cy="381.1" rx=".5" ry=".5"/>
  <polygon class="st46" points="206.1 274.1 169.9 271.3 169.9 299.2 205.5 299.6 206.1 274.1"/>
  <path class="st60" d="M203.7,279.2l-31.5-1.3-2.4-6.3s.4-7.4.6-11.1c11.8.6,23.6,1.1,35.4,1.7,0,0,.3,11.3.3,11.3l-2.4,5.8Z"/>
  <g>
    <ellipse class="st47" cx="188.2" cy="272.5" rx="2.9" ry="2.6"/>
    <ellipse class="st57" cx="186.7" cy="272.5" rx=".7" ry=".6"/>
    <ellipse class="st57" cx="189.6" cy="272.5" rx=".7" ry=".6"/>
  </g>
  <g>
    <path class="st66" d="M235.1,208.7c-1.2-5.4-5.2-9.9-8.4-12.7s-11.5-8.9-19.5-6c-7.2,2.7-6.5,4.8-12,9.8-8.1,10.4,15.9,23.8,24.2,25.4.9.2,1.8.3,2.6,0,3.4-1.6,15-7.5,13-16.6Z"/>
    <path class="st45" d="M223.1,225.2c1.7-1.1,9.9-6.2,6.9-6.5-1.2-.3-3.1,2.5-8.2,6.2-1,.8.6.8,1.3.3Z"/>
    <g class="st59">
      <polygon class="st54" points="215.4 217.4 208.7 211.9 218.3 213.1 215.4 217.4"/>
      <path class="st54" d="M216.1,219.3c-.5.6,1.5,1,1.7.8,1.7-2.1,2.8-4.4,3.5-7,.2-.2-1.6-1.1-1.9-.4-.9,2.2-1.5,4.5-3.3,6.7Z"/>
      <path class="st54" d="M216.1,220.9c-.3.2,1.7.7,1.8.6.9-.5,1.2-1.2,1.1-2.1,0,0-1.8-.7-1.8-.5-.2.7,0,1.5-1,2Z"/>
      <path class="st54" d="M222,214.1c0,.3-1.8-.4-1.8-.5-.2-.9.2-1.6,1.1-2.1,0,0,1.9.4,1.8.6-.5.6-1.2,1.1-1,2Z"/>
      <path class="st54" d="M216.1,211.1c-2.7-.9-5.7-.2-6.5,1.6s.7,3.9,3.4,4.8,5.7.2,6.5-1.6-.7-3.9-3.4-4.8ZM213.4,216.6c-2-.6-3.2-2.2-2.5-3.5.6-1.3,2.8-1.8,4.8-1.2s3.2,2.2,2.5,3.5-2.8,1.8-4.8,1.2Z"/>
    </g>
    <g class="st58">
      <image width="444" height="362" transform="translate(160.6 168.4) scale(.2)" xlink:href="standing-man-soldier-2.png"/>
    </g>
    <g>
      <path class="st53" d="M237.1,206.9c-1-5.4-3.4-12.8-8.1-16.5s-8.8-4.9-16.3-.4-20,12-19,13.1c0,2,14.8,6.2,36.8,15.8,4.9,2.1,8.5-1.3,6.5-12Z"/>
      <path class="st27" d="M236.5,219.3c-.3-18.1-9.7-29.1-28.5-32.7-2,1.4-5.3,3.9-7.3,5.3,11.7,8.2,23,17.4,32,31.1,1.3-1.3,2.6-2.5,3.9-3.8Z"/>
      <path class="st24" d="M237,216.1c0-15-10.4-28.4-23.5-28.2-1.9,1.5-8.6,5.3-10.5,6.7,8.7,7.9,19.9,13.9,27.8,25.7,1.3-1.3,4.9-3,6.2-4.3Z"/>
      <polygon class="st49" points="231.2 217.9 229.9 216.4 234.4 213.7 234.8 215.8 231.2 217.9"/>
      <polygon class="st49" points="229.1 215.5 227.4 213.5 233.3 210 233.8 212.7 229.1 215.5"/>
      <polygon class="st49" points="226.7 212.7 224.8 210.7 231.5 206 233 208.9 226.7 212.7"/>
    </g>
    <g class="st58">
      <image width="440" height="363" transform="translate(157.7 166.5) scale(.2)" xlink:href="standing-man-soldier-3.png"/>
    </g>
  </g>
  <path class="st5" d="M240.5,319.4c-2,1.6-4.7,2.7-6.7,2.5l-.5-10,6.9-4.5.4,12Z"/>
  <path class="st30" d="M149.8,231.9c7.4-3.1,13.9-10,25.7-17.8-1.7-3.4-2.5-7.1-3.5-11.3-.1-.6.4-1,1-.8,9.3,3.1,15.8,3.8,21.8,4.6.7,0,1.6-.7,1.3-1.4-3.4-7.4-15.3-20.8-22-31"/>
  <path class="st30" d="M138.4,174.8c-12.6,7.7-24.9,16.9-24.1,17.1,5.5.9,10.1,2.6,18,7.6.5.3,1,.6.8,1-1.8,2.8-3.4,5.2-5.8,7.1,9.4,9.7,16.2,19.7,22.5,24.4l-11.4-57.1Z"/>
  <g>
    <path class="st27" d="M66.5,213.2c8.1-21,21.4-25.5,32.9-26.7.7,2.4,1.6,6.4,2.3,8.8-11.2,5-22.5,11.4-34.3,23.8-.3-2-.6-4-.9-5.9Z"/>
    <path class="st24" d="M67.8,208.3c8.3-15.9,19.1-20.8,28.2-21.4.6,2.2,2.2,8.9,2.8,11-8.8,5.2-17.6,9.6-28.3,19.6-.3-1.8-2.5-7.5-2.7-9.2Z"/>
    <polygon class="st49" points="71.6 214.2 73.4 212.6 71.2 206.4 69.8 209.3 71.6 214.2"/>
    <polygon class="st49" points="74.5 211.2 76.9 209.2 74 201.1 72.2 204.8 74.5 211.2"/>
    <polygon class="st49" points="77.9 209.1 80.5 207.1 77.5 197 74.8 200.4 77.9 209.1"/>
  </g>
  <path class="st6" d="M86.4,231.3c1.9,13.2.6,37.9.6,37.9,0,0,.7,3.9,2.2,7.1"/>
  <g>
    <g>
      <path class="st11" d="M192.8,196.1c-.4-.3-1.3-.6-1.4-1.5,0-.6.1-1,.5-1.2.7-.3,1.6.3,2.2.6.6.4,1.2.9,1.7,1.6.3-2.5,0-4.8-.6-6.9-.6-2.4-1.7-5.4-3.7-4.9-.2,5.8-1.7,11.7-3.6,17.1-2.4,6.7-5.5,13.8-9.8,17.7,0,0-.1-.1,0-.2,4.1-4.2,7.1-10.7,9.5-17.3,2-5.6,3.5-11.7,3.7-17.8-2.7,2.3-5.5,4.9-7,9.4.4-.2.8-.3,1.2-.3,0,0,.1.1.1.3-.5,1.6-1.7,2-2.6,3.1-1,1.4-1.7,3.3-2.2,5.1,1.7-.8,3.4-.8,5,0,0,0,.1.2,0,.4-1.1,1.4-2.4,1.4-3.6,1.5-1.8.2-3.5,1.8-4.4,4.6.6,0,1.2-.2,1.8-.2.5,0,1.2-.1,1.6.1.7.4.3,1.3-.2,1.8-.8.7-1.6.5-2.4.5-1.3,0-2.6.7-3.2,2.8.9-.2,1.8,0,2.5.7,0,0,0,.2,0,.3-.8,1.3-1.9.3-2.8,1-1.5,1.2-2.2,4.6-2.7,6.9,0,.3-.1.5-.2.8-.1.7-.2.7,0,1.3.3.5.2.5.6.5.2,0,.4,0,.6,0,.7,0,1.4,0,2.1,0,.8,0,1.7,0,2.5-.6.9-.8,1.1-2.6,1.2-4,0-.1,0-.2.2-.2,1.4,0,1,2.4.6,3.9,1.3.6,2.6-1.3,3.1-3.3.3-1.1.3-2.2.3-3.3,0-.6,0-1.3.2-1.9.4-1,.8-.2.9.5.2,1.7.2,3.6,0,5.4,1-.3,1.9-1.2,2.7-2.2.8-1,1.8-2.3,2.3-3.7.7-1.7.3-3.5,0-5.1-.3-1.8-.7-3.5-1-5.3,0-.2,0-.4.2-.3,1.6,1.2,2.2,4.1,2.6,6.8,1.6-1.9,2.9-4.5,3.6-7.4.4-1.6.8-3.2,0-4.5-.6-1.2-1.4-2.1-2.3-2.9Z"/>
      <path class="st19" d="M192.8,196.1c-.4-.3-1.3-.6-1.4-1.5,0-.6.1-1,.5-1.2.7-.3,1.6.3,2.2.6.6.4,1.2.9,1.7,1.6.3-2.5,0-4.8-.6-6.9-.6-2.4-1.7-5.4-3.7-4.9-.2,5.8-1.7,11.7-3.6,17.1-2.4,6.7-5.5,13.8-9.8,17.7,0,0-.1-.1,0-.2,4.1-4.2,7.1-10.7,9.5-17.3,2-5.6,3.5-11.7,3.7-17.8-2.7,2.3-5.5,4.9-7,9.4.4-.2.8-.3,1.2-.3,0,0,.1.1.1.3-.5,1.6-1.7,2-2.6,3.1-1,1.4-1.7,3.3-2.2,5.1,1.7-.8,3.4-.8,5,0,0,0,.1.2,0,.4-1.1,1.4-2.4,1.4-3.6,1.5-1.8.2-3.5,1.8-4.4,4.6.6,0,1.2-.2,1.8-.2.5,0,1.2-.1,1.6.1.7.4.3,1.3-.2,1.8-.8.7-1.6.5-2.4.5-1.3,0-2.6.7-3.2,2.8.9-.2,1.8,0,2.5.7,0,0,0,.2,0,.3-.8,1.3-1.9.3-2.8,1-1.5,1.2-2.2,4.6-2.7,6.9,0,.3-.1.5-.2.8-.1.7-.2.7,0,1.3.3.5.2.5.6.5.2,0,.4,0,.6,0,.7,0,1.4,0,2.1,0,.8,0,1.7,0,2.5-.6.9-.8,1.1-2.6,1.2-4,0-.1,0-.2.2-.2,1.4,0,1,2.4.6,3.9,1.3.6,2.6-1.3,3.1-3.3.3-1.1.3-2.2.3-3.3,0-.6,0-1.3.2-1.9.4-1,.8-.2.9.5.2,1.7.2,3.6,0,5.4,1-.3,1.9-1.2,2.7-2.2.8-1,1.8-2.3,2.3-3.7.7-1.7.3-3.5,0-5.1-.3-1.8-.7-3.5-1-5.3,0-.2,0-.4.2-.3,1.6,1.2,2.2,4.1,2.6,6.8,1.6-1.9,2.9-4.5,3.6-7.4.4-1.6.8-3.2,0-4.5-.6-1.2-1.4-2.1-2.3-2.9ZM183.3,196.3c0,0,0,0,0,0,.3-.5.6-.8.9-1,0,0,0,.1,0,.2-.3.2-.6.5-.9.9ZM184.3,195.9c-.2,0-.4.2-.5.5,0,0,0,0,0,0,.1-.3.3-.5.5-.6,0,0,0,.1,0,.1ZM186.3,202.3c0-.1.1,0,.1,0-.2.6-.4,1.1-.7,1.6,0,0-.1,0,0,0,.2-.5.5-1,.6-1.6ZM185.5,204.9c.3-.4.5-.8.7-1.3,0,0,.1,0,0,0-.2.5-.4,1-.7,1.3,0,0,0,0,0,0ZM179.6,210.2c.3,0,.5-.2.8-.4,0,0,0,0,0,.1-.3.2-.5.4-.8.4,0,0,0-.1,0-.1ZM174.7,215.4c0,0,0,0,0,0,.2-.4.5-.5.8-.4,0,0,0,.1,0,.1-.2,0-.5,0-.7.4ZM175.6,215.5c-.2,0-.5.1-.7.4,0,0,0,0,0,0,.2-.3.5-.4.8-.4,0,0,0,.1,0,.1ZM181.8,220.7c.2-.6.4-1.2.5-1.8,0-.1.1-.1.1,0,0,.7-.3,1.3-.5,1.9,0,0-.1,0,0,0ZM182,221.5c0,0,0,0,0,0,.3-.5.5-1.1.6-1.7,0,0,.1,0,0,0-.1.7-.4,1.2-.7,1.8ZM189.3,214.3c-.2.6-.5,1.1-.8,1.5,0,0,0,0,0-.1.3-.4.6-.9.8-1.4,0,0,.1,0,0,0ZM188.6,214.6c0,0,0,0,0,0,0,.3-.2.7-.3,1,0,0-.1,0,0,0,0-.3.2-.7.3-1ZM191.3,187.6c.1-.5.2-1.1.3-1.6,0,0,.1,0,0,0-.1.5-.2,1.1-.3,1.6,0,.1-.1,0,0,0ZM191.4,188.6c0,.1-.1,0-.1,0,.1-.5.2-1,.4-1.5,0,0,.1,0,0,0-.1.5-.2,1-.3,1.5ZM194.5,202.4c0,0-.1,0,0,0,.1-.6.1-1.1,0-1.7,0,0,0-.1,0,0,.1.5.1,1.2,0,1.8ZM194.7,201.6c0,0-.1,0,0,0,.2-.5.1-1.1-.1-1.4,0,0,0-.2,0-.1.3.3.4,1,.1,1.6Z"/>
      <path class="st19" d="M188.5,215.8c.4-.4.6-.9.8-1.5,0,0,0-.1,0,0-.2.6-.5,1-.8,1.4,0,0,0,.2,0,.1Z"/>
      <path class="st19" d="M194.4,202.4c0,0,0,.1,0,0,.2-.6.2-1.2,0-1.8,0,0,0,0,0,0,.1.5.1,1.1,0,1.7Z"/>
      <path class="st19" d="M194.6,201.6c0,0,0,.2,0,0,.2-.6.1-1.3-.1-1.6,0,0,0,0,0,.1.2.3.3.9.1,1.4Z"/>
      <path class="st19" d="M188.2,215.7c0,0,0,.1,0,0,.1-.3.2-.7.3-1,0,0,0,0,0,0-.1.3-.2.7-.3,1Z"/>
      <path class="st19" d="M182,221.5c.3-.5.5-1.1.7-1.8,0,0,0-.1,0,0-.2.6-.4,1.2-.6,1.7,0,0,0,.1,0,0Z"/>
      <path class="st19" d="M181.9,220.8c.3-.6.5-1.2.5-1.9,0-.1,0-.1-.1,0,0,.6-.3,1.3-.5,1.8,0,0,0,.2,0,0Z"/>
      <path class="st19" d="M185.5,205c.3-.4.6-.8.7-1.3,0-.1,0-.1,0,0-.2.5-.4.9-.7,1.3,0,0,0,.1,0,0Z"/>
      <path class="st19" d="M185.7,204c.3-.5.5-1,.7-1.6,0-.1,0-.1-.1,0-.2.6-.4,1.1-.6,1.6,0,0,0,.2,0,0Z"/>
      <path class="st19" d="M191.3,188.5c0,.1,0,.2.1,0,.1-.5.2-1,.3-1.5,0,0,0-.1,0,0-.1.5-.2,1-.4,1.5Z"/>
      <path class="st19" d="M191.7,186c-.1.5-.2,1.1-.3,1.6,0,.1,0,.2,0,0,.1-.5.2-1.1.3-1.6,0,0,0-.1,0,0Z"/>
      <path class="st19" d="M180.4,210c0,0,0-.2,0-.1-.2.2-.5.3-.8.4,0,0,0,.2,0,.1.3,0,.5-.2.8-.4Z"/>
      <path class="st19" d="M175.6,215.5c0,0,0-.1,0-.1-.3,0-.5.1-.8.4,0,0,0,.1,0,0,.2-.2.5-.4.7-.4Z"/>
      <path class="st19" d="M184.3,195.9c0,0,0-.2,0-.1-.2,0-.4.3-.5.6,0,0,0,.1,0,0,.1-.3.3-.4.5-.5Z"/>
      <path class="st19" d="M184.2,195.4c0,0,0-.2,0-.2-.4.2-.7.5-.9,1,0,0,0,.1,0,0,.3-.4.6-.7.9-.9Z"/>
      <path class="st19" d="M175.4,215s0-.1,0-.1c-.3,0-.6,0-.8.4,0,0,0,.2,0,0,.2-.3.5-.4.7-.4Z"/>
    </g>
    <g>
      <path class="st19" d="M119.7,249.3c-1.7-1.6-3-4.1-3.7-7.2-.4-1.7-.6-3.5.2-5.3.8-1.6,1.8-3.1,2.9-4.2.5-.6,1.5-1.2,1.8-2.3.2-.7,0-1.1-.5-1.2-.8,0-1.9,1-2.6,1.6-.8.7-1.5,1.6-2.1,2.6-.2-2.8.4-5.6,1.2-8.3.9-3.1,2.3-7,4.7-7.2-.2,6.7,1.1,13.1,3,18.6,2.3,6.9,5.4,14,10.2,16.8,0,0,.2-.2,0-.2-4.5-3.3-7.5-9.8-9.9-16.6-2-5.8-3.2-12.3-3-19.4,2.9,1.7,6.1,3.6,7.5,8.3-.5,0-.9,0-1.4.1,0,0-.2.2-.1.4.4,1.7,1.9,1.6,2.8,2.6,1.1,1.2,1.7,3.2,2.2,5.1-1.9-.3-4,.4-5.8,2-.1,0-.2.3,0,.4,1.2,1.3,2.7.6,4.1.4,2.1-.4,4,.8,4.8,3.7-.7.1-1.4.3-2.1.5-.6.2-1.3.3-1.9.8-.8.7-.5,1.7.1,2.1.8.5,1.8,0,2.7-.3,1.5-.5,3-.2,3.6,2-1.1.2-2.1.8-3,1.8,0,.1,0,.3,0,.4.8,1.2,2.2-.5,3.2,0,1.7.8,2.2,4.5,2.7,7,0,.3.1.6.1.9.1.7.2.8-.2,1.6-.4.7-.3.7-.7.9-.2.1-.4.2-.7.3-.8.3-1.6.6-2.4.8-.9.2-2,.7-2.9.2-1-.6-1.1-2.6-1.1-4.2,0-.1,0-.2-.2-.2-1.6.5-1.4,3.2-1,4.8-1.6,1.2-3-.5-3.4-2.7-.2-1.2-.2-2.5-.1-3.7,0-.7.2-1.6,0-2.2-.4-1-1,.1-1.1,1-.4,2.1-.5,4.3-.5,6.4-1.1,0-2.1-.6-3-1.5-.9-.9-1.9-2-2.5-3.4-.6-1.8-.1-4,.3-6,.5-2.2,1-4.4,1.6-6.6,0-.3,0-.4-.2-.3-2,2-2.8,5.6-3.5,8.9ZM121.8,252.6c.2.6.5,1.2.8,1.5,0,0,.1-.1,0-.2-.3-.4-.6-.8-.8-1.4,0,0-.1,0,0,0ZM116.7,240.7c0,0,.1,0,0,0-.1-.6,0-1.3,0-1.9,0,0,0-.1,0,0-.2.7-.3,1.4-.1,2ZM116.4,239.9c0,0,.1,0,.1-.1-.2-.5,0-1.2.2-1.7,0,0,0-.2,0-.1-.4.5-.5,1.4-.3,2ZM122.9,253.9c0,0,.1,0,.1,0,0-.4-.2-.7-.3-1.1,0,0-.1,0,0,0,0,.4.2.8.3,1.1ZM129.3,256.4c.1.7.3,1.3.6,1.8,0,0,0,0,0-.1-.3-.5-.5-1.1-.6-1.8,0-.1-.1,0-.1,0ZM129.6,255.3c0,.8.2,1.5.5,2,0,0,.1,0,.1-.1-.2-.6-.4-1.2-.5-2,0-.1-.1,0-.1,0ZM126.2,239c.2.6.4,1,.7,1.3,0,0,.1,0,0-.1-.3-.3-.5-.7-.7-1.2,0,0-.1,0-.1,0ZM126.1,237.5c.2.6.4,1.1.7,1.6,0,0,.1,0,.1-.1-.3-.5-.5-1-.6-1.6,0-.1-.2,0-.1,0ZM121.3,223.3c0,.1.1,0,.1,0,0-.5-.2-1.1-.3-1.6,0,0-.1,0,0,0,0,.5.2,1.1.3,1.6ZM121.3,222.3c0,.1.1,0,.1,0,0-.6-.2-1.2-.3-1.8,0-.1-.1,0-.1,0,0,.6.2,1.2.3,1.8ZM132.6,243.9c0,0-.1.1,0,.2.3.2.6.2.9.2,0,0,0-.2,0-.2-.3,0-.6,0-.9-.2ZM137.8,248.5c0,0,0,.2,0,.2.3,0,.6,0,.8.2,0,0,.1,0,0-.1-.3-.2-.6-.3-.9-.2ZM129.1,228.9c0,0,0,.2,0,.2.2,0,.4.1.5.4,0,0,.1,0,0-.1-.1-.3-.3-.5-.6-.4ZM129.2,228.3c0,0,0,.2,0,.2.4,0,.7.3,1,.7,0,0,0,0,0-.1-.3-.4-.6-.7-1-.8ZM138.1,247.8c0,0,0,.2,0,.1.3-.1.6,0,.8.2,0,0,.1,0,0-.1-.2-.3-.6-.4-.9-.2Z"/>
      <path class="st19" d="M122.7,254.1c-.4-.3-.7-.8-.8-1.5,0,0,0-.2,0,0,.2.6.5,1,.8,1.4,0,0,0,.2,0,.2Z"/>
      <path class="st56" d="M116.8,240.6c0,0,0,.2,0,0-.1-.6,0-1.4.1-2,0,0,.1,0,0,0-.2.6-.2,1.3,0,1.9Z"/>
      <path class="st56" d="M116.5,239.8c0,0,0,.2-.1.1-.2-.6,0-1.4.3-2,0,0,0,0,0,.1-.3.5-.4,1.2-.2,1.7Z"/>
      <path class="st19" d="M123,253.8c0,0,0,.2-.1,0-.1-.3-.2-.7-.3-1.1,0,0,0-.1,0,0,0,.3.2.7.3,1.1Z"/>
      <path class="st19" d="M129.9,258.2c-.3-.5-.5-1.1-.6-1.8,0-.1,0-.2.1,0,.1.7.3,1.3.6,1.8,0,0,0,.2,0,.1Z"/>
      <path d="M130,257.3c-.3-.6-.4-1.3-.5-2,0-.1.1-.2.1,0,0,.7.2,1.4.5,2,0,0,0,.2-.1.1Z"/>
      <path d="M127,240.3c-.3-.3-.6-.7-.7-1.3,0-.1,0-.2.1,0,.2.5.4.9.7,1.2,0,0,0,.2,0,.1Z"/>
      <path d="M126.8,239.1c-.3-.5-.5-1-.7-1.6,0-.1,0-.2.1,0,.2.6.4,1.1.6,1.6,0,0,0,.2-.1.1Z"/>
      <path d="M121.4,223.2c0,.1,0,.2-.1,0-.1-.5-.2-1.1-.3-1.6,0,0,0-.2,0,0,.1.5.2,1.1.3,1.6Z"/>
      <path class="st56" d="M121.5,222.2c0,.1,0,.2-.1,0-.1-.6-.2-1.2-.3-1.8,0-.1,0-.2.1,0,.1.6.2,1.2.3,1.8Z"/>
      <path d="M132.6,244.1c0,0,0-.2,0-.2.3.1.6.2.9.2,0,0,0,.2,0,.2-.3,0-.6,0-.9-.2Z"/>
      <path d="M137.8,248.6c0,0,0-.1,0-.2.3-.1.6,0,.9.2,0,0,0,.2,0,.1-.2-.2-.5-.2-.8-.2Z"/>
      <path class="st56" d="M129.1,229.1c0,0,0-.2,0-.2.2,0,.5.1.6.4,0,0,0,.2,0,.1-.1-.3-.3-.4-.5-.4Z"/>
      <path class="st56" d="M129.2,228.4c0,0,0-.2,0-.2.4,0,.8.3,1,.8,0,0,0,.2,0,.1-.3-.4-.6-.6-1-.7Z"/>
      <path d="M138.1,248c0,0,0-.1,0-.1.3-.2.7-.1.9.2,0,0,0,.2,0,.1-.2-.3-.5-.3-.8-.2Z"/>
    </g>
    <g>
      <path class="st19" d="M126.5,220.3c.3-1-.3-2.3-.7-2.8-.5-.7-1.2-1-1.9-1.1-.7,0-1.4,0-2.2.2-.4,0-1.1.4-1.4-.1-.5-1,.7-1.8,1.2-2,.6-.2,1.3-.4,1.9-.4.8,0,1.4.2,2.2.3,1,.1.4-1.8.2-2.4-.2-.9-.6-1.7-1.1-2.3-.7-.7-1.5-.5-2.3-.2-.8.3-1.6.7-2.4,1.1-.4.2-1.1.7-1.4.2-.2-.3-.1-1,.1-1.4.4-.7,1.3-.8,1.8-1,.4-.2,1.4-.3,1.2-1.2,0-.5-.5-.9-.7-1.2-2-3-4.8-4.3-7.8-3.5,0,0,0,0,0,0,.5,3.2,1.1,6.3,1.9,9.3,1.4,4.8,3.2,8.8,5.3,12.8,0,0,0,.2,0,.1-2.3-3.4-4.1-8-5.4-12.6-.9-3-1.6-6.3-2.1-9.8-3,2.7-5.3,7.8-5.5,13,.7-1.4,1.5-2.8,2.3-4,.7-1,1.6-1.8,2.4-1.3,0,0,0,.2,0,.3-.9,1.7-1.7,3.4-2.6,5-.4.9-1,1.7-1.3,2.7-.4,1.1-.2,2.1,0,3.1.4,3,1.3,6,3,7.5.5-2.9,1.2-6.2,3.1-7.7,0,0,0,0,.1,0,.2.3.2.7.1,1.2-.3,1.1-.8,2.2-1.2,3.3-.4,1.1-1,2.3-1,3.6,0,1.1.6,2,1.1,2.6.2.2.4.6.6.7.9.5.9-.8.9-1.6.1-1.3.3-2.6.6-3.9.3-1.3.8-3.1,1.8-3.3,0,0,.1,0,.1.2,0,.9,0,1.9-.2,2.8-.2,1.1-.6,2.1-.9,3.2-.3,1.3-.4,3.1.5,3.5,1.1.5.9-2.2,1-3.2,0-1,.2-2,.5-3,.1-.4.3-1.2.6-1.2.3,0,.3.4.4.7.1,1,0,2.2,0,3.2,0,.9,0,1.9.2,2.6.4,1.1,1.6.7,2.4.6.7,0,1.5-.1,2.2-.4.9-.4,1.2-2.6,1.4-3.8.3-1.2.7-2.6.5-3.8-.2-1.1-1-1.7-1.7-2-.7-.4-1.4-.6-2.1-.7-.4,0-1,.2-1.3-.4-.5-1.2,1.3-1.3,1.6-1.4.6,0,1.2,0,1.8,0,.4,0,2.2,1,2.5,0ZM126.3,219.4c0,.1-.1.2-.1,0,0-.3-.2-.6-.3-.7,0,0,0-.2,0-.2.3,0,.4.5.4.9ZM125.2,225.7c0,0,0,0,0,0,0-.6-.2-1.1-.5-1.2,0,0,0-.2,0-.2.4.1.7.7.6,1.3ZM125.3,225c0,0,0,.1-.1,0,0-.5-.2-.9-.5-1.1,0,0,0-.2,0-.2.3.2.5.7.6,1.2ZM123.2,231.2c0,0,0,.1,0,.2-.4.3-.8.2-1.2,0,0,0,0-.2,0-.1.3.3.7.3,1.1,0ZM123.6,210.9c0,0,0,.2,0,.2-.2,0-.5,0-.7-.1,0,0,0-.1,0-.1.3,0,.5,0,.7,0ZM123.5,210.3c0,0,0,.2,0,.2-.3,0-.7,0-1,0,0,0,0-.1,0-.2.4-.2.7-.2,1.1,0ZM121.2,207.4c0,0,0,.2,0,.1-.3-.4-.5-.7-.8-1.1,0,0,0-.2,0-.1.3.4.5.7.8,1.1ZM115.1,226.9c0,0,.1,0,0,0-.2.4-.3.7-.2,1.2,0,0,0,0,0,0,0-.4,0-.9.2-1.3ZM115.2,225.8c0,0,0,0,0,0-.3.6-.5,1.2-.6,2,0,0,0,0,0,0,0-.8.3-1.4.6-2ZM115.4,217.2c0,0,0,.2,0,.1-.2-.3-.4-.6-.6-1,0,0,0-.2,0-.1.1.4.3.7.5,1ZM115.4,216.1c0,0,0,.2,0,0-.1-.2-.2-.4-.3-.7,0,0,0-.1,0,0,.1.2.2.4.4.7ZM109,217.7c0,0,0,0,0,.1-.2.2-.3.5-.3.8,0,0-.1.1,0,0,0-.4.1-.7.3-1ZM108.8,217.1c0,0,0,0,0,0-.3.4-.5.9-.6,1.4,0,0,0,0,0,0,.1-.6.3-1.1.6-1.5ZM110.2,206.8c0,0,0,0,0,.1-.3.3-.6.6-.8,1.1,0,0-.1,0,0,0,.2-.5.5-.9.8-1.2ZM109.8,206.7c0,0,.1,0,0,0-.3.5-.6,1.1-.9,1.6,0,0,0,0,0,0,.3-.5.6-1.1.9-1.6Z"/>
      <path class="st56" d="M126.2,219.5c0,.1.1,0,.1,0,0-.4-.2-.8-.4-.9,0,0-.1.1,0,.2.2.1.3.4.3.7Z"/>
      <path class="st56" d="M125.1,225.7c0,0,0,0,0,0,0-.7-.2-1.2-.6-1.3,0,0,0,.1,0,.2.3.1.5.6.5,1.2Z"/>
      <path class="st19" d="M125.2,225.1c0,0,.1,0,.1,0,0-.6-.3-1-.6-1.2,0,0-.1.1,0,.2.3.2.5.6.5,1.1Z"/>
      <path class="st19" d="M123.2,231.3c0,0,0-.2,0-.2-.4.2-.8.2-1.1,0,0,0,0,0,0,.1.3.3.7.4,1.2,0Z"/>
      <path class="st19" d="M123.6,211c0,0,0-.1,0-.2-.2,0-.5,0-.7,0,0,0,0,.1,0,.1.2,0,.5,0,.7.1Z"/>
      <path class="st19" d="M123.5,210.5c0,0,0-.1,0-.2-.3-.2-.7-.2-1.1,0,0,0,0,.2,0,.2.4-.1.7-.1,1,0Z"/>
      <path class="st19" d="M121.2,207.5c0,0,.1,0,0-.1-.3-.4-.5-.8-.8-1.1,0,0,0,0,0,.1.3.4.5.8.8,1.1Z"/>
      <path class="st19" d="M115.2,227c0,0,0-.2,0,0-.2.4-.3.8-.2,1.3,0,0,0,0,0,0,0-.4,0-.8.2-1.2Z"/>
      <path class="st56" d="M115.2,225.9c0,0,0-.1,0,0-.3.6-.6,1.3-.6,2,0,0,0,0,0,0,0-.7.3-1.4.6-2Z"/>
      <path class="st19" d="M115.4,217.4c0,0,.1,0,0-.1-.2-.3-.4-.6-.5-1,0,0-.1,0,0,.1.1.4.3.7.6,1Z"/>
      <path class="st19" d="M115.3,216.2c0,0,.1,0,0,0-.1-.2-.2-.5-.4-.7,0,0,0,0,0,0,.1.2.2.5.3.7Z"/>
      <path class="st19" d="M109,217.8c0,0,0-.2,0-.1-.2.2-.3.6-.3,1,0,.1,0,0,0,0,0-.3.1-.6.3-.8Z"/>
      <path class="st56" d="M108.9,217.2c0,0,0-.1,0,0-.3.4-.5.9-.6,1.5,0,0,0,0,0,0,.1-.5.3-1,.6-1.4Z"/>
      <path class="st19" d="M110.3,206.9s0-.2,0-.1c-.3.2-.6.7-.8,1.2,0,0,0,.1,0,0,.2-.5.5-.8.8-1.1Z"/>
      <path class="st19" d="M109.8,206.7c0,0,0-.1,0,0-.3.5-.6,1.1-.9,1.6,0,0,0,0,0,0,.3-.5.6-1,.9-1.6Z"/>
    </g>
    <g>
      <path class="st17" d="M121.8,182.2c0,0-.1-.2-.2-.2-.2,0-.4.1-.6.2.3,0,.5,0,.7,0Z"/>
      <path class="st17" d="M118.7,188.6c1.6.1,2.9,1.6,4,3.1.5-1.5.9-3.1.8-4.7-.2-2.1-1.3-2.6-2.6-2.6-2-.1-4.1.9-5.9,2.6-.1.1-.3,0-.2-.3.5-1.8,1.4-3,2.4-3.7-1.7.4-3.4.7-5.2.9-.2,1.9-.3,3.7-.2,5.5.3,6.5,2.1,12.1,4.5,16.9,0,.2-.1.5-.2.3-2.6-5.1-4.5-11.4-4.6-18.6,0-1.4,0-2.7.2-4.1-.5,0-1,.1-1.5.2,0,.4,0,.9,0,1.4,0,.2-.2.3-.3.2-1.5-2.2-4-1.6-5.5,1.1,1.9-.5,3.6.5,4.7,2.6,0,.2,0,.5-.2.4-1.4-.4-2.9-.9-4.5,0-1.6.9-2.9,3.3-2.5,5.9.1.6.3,1.2.5,1.7.3.7.8.8,1.3.2.7-.7,1.5-1.5,2.3-2,1.2-.8,2.4-1.1,3.4-.3.1,0,0,.4,0,.5-1.3.5-3,1.4-4,3.2-1.4,2.4,0,4.5,1.1,5.7.5-1.9,1.3-3.5,2.4-4.6.6-.6,2.3-1.8,2.1.3,0,0,0,.2,0,.2-1.6,1.3-2.9,4-2.9,6.8,0,2.6,1,4.6,2.5,5.3-.8-2.7,0-6.4,1.7-8.4,0,0,.2,0,.2,0,0,0,.2,0,.1.2-1.1,4.1-1.2,9.5,1.8,10.4,1.1.3,2.3.2,3.5.3,1.1.2,2.1.5,3.1,1-.2-1.7,0-3.4.3-5.2.3-2.3.6-4.5.4-6.7-.5-4.8-3.5-6.3-6.4-5.3,0,0-.1,0-.2-.1-.5-1.8,1.5-2.9,2.3-3.1,1.4-.4,2.8.2,4,1.1-.6-4.5-3.5-6.7-6.5-4.7-.1,0-.2-.2-.2-.4.9-2.2,2.5-3.4,4-3.3Z"/>
      <path class="st19" d="M118.7,188.6c1.6.1,2.9,1.6,4,3.1.5-1.5.9-3.1.8-4.7-.2-2.1-1.3-2.6-2.6-2.6-2-.1-4.1.9-5.9,2.6-.1.1-.3,0-.2-.3.5-1.8,1.4-3,2.4-3.7-1.7.4-3.4.7-5.2.9-.2,1.9-.3,3.7-.2,5.5.3,6.5,2.1,12.1,4.5,16.9,0,.2-.1.5-.2.3-2.6-5.1-4.5-11.4-4.6-18.6,0-1.4,0-2.7.2-4.1-.5,0-1,.1-1.5.2,0,.4,0,.9,0,1.4,0,.2-.2.3-.3.2-1.5-2.2-4-1.6-5.5,1.1,1.9-.5,3.6.5,4.7,2.6,0,.2,0,.5-.2.4-1.4-.4-2.9-.9-4.5,0-1.6.9-2.9,3.3-2.5,5.9.1.6.3,1.2.5,1.7.3.7.8.8,1.3.2.7-.7,1.5-1.5,2.3-2,1.2-.8,2.4-1.1,3.4-.3.1,0,0,.4,0,.5-1.3.5-3,1.4-4,3.2-1.4,2.4,0,4.5,1.1,5.7.5-1.9,1.3-3.5,2.4-4.6.6-.6,2.3-1.8,2.1.3,0,0,0,.2,0,.2-1.6,1.3-2.9,4-2.9,6.8,0,2.6,1,4.6,2.5,5.3-.8-2.7,0-6.4,1.7-8.4,0,0,.2,0,.2,0,0,0,.2,0,.1.2-1.1,4.1-1.2,9.5,1.8,10.4,1.1.3,2.3.2,3.5.3,1.1.2,2.1.5,3.1,1-.2-1.7,0-3.4.3-5.2.3-2.3.6-4.5.4-6.7-.5-4.8-3.5-6.3-6.4-5.3,0,0-.1,0-.2-.1-.5-1.8,1.5-2.9,2.3-3.1,1.4-.4,2.8.2,4,1.1-.6-4.5-3.5-6.7-6.5-4.7-.1,0-.2-.2-.2-.4.9-2.2,2.5-3.4,4-3.3ZM123,188c0-.1,0-.2.1,0,0,.5,0,1.1,0,1.7,0,.1-.1,0-.1,0,0-.5,0-1.1,0-1.6ZM122.7,187.8c0-.1.1-.1.1,0,0,.5,0,1,0,1.5,0,.1-.1.1-.1,0,0-.5,0-1,0-1.5ZM106.4,186.5c-.2,0-.5,0-.7-.1,0,0,0-.2,0-.2.2,0,.5,0,.7,0,0,0,0,.2,0,.2ZM107,185.7c-.3,0-.6.2-1,.3,0,0,0-.1,0-.1.3,0,.6-.2,1-.3,0,0,0,.1,0,.2ZM106.4,195.2c-.3.1-.6.3-.9.5,0,0,0,0,0-.1.3-.3.6-.5.9-.6,0,0,0,.1,0,.1ZM106.5,194.4c-.2,0-.5.2-.7.3,0,0,0-.1,0-.1.2,0,.5-.2.7-.3,0,0,0,.1,0,.2ZM105.1,201.5c0-.6.1-1.3.4-1.8,0,0,.1,0,0,.1-.3.5-.4,1.1-.4,1.6,0,0,0,.1,0,0ZM106.2,199.7c-.3.4-.5.9-.6,1.5,0,0,0,0,0,0,0-.6.3-1.2.6-1.6,0,0,.1,0,0,0ZM112.3,198.3c-.1-.4-.3-.8-.4-1.3,0,0,0-.2,0,0,.1.4.3.9.4,1.3,0,0,0,.1,0,0ZM111.9,209.9c0-.5,0-1.1.1-1.7,0-.1.1,0,0,0-.1.5-.2,1.1-.1,1.6,0,.1,0,.1-.1,0ZM112.3,210.7c-.2-.6-.2-1.3-.2-2,0-.1.1-.1.1,0,0,.7,0,1.3.2,2,0,0,0,.2,0,0ZM120.8,211.7c-.1.6-.3,1.1-.5,1.7,0,.1-.1,0,0,0,.1-.6.3-1.1.4-1.7,0-.1.1,0,.1,0ZM120.6,210.4c0-.1.1,0,0,0-.1.7-.3,1.5-.5,2.2,0,.1-.1,0,0,0,.2-.7.3-1.5.5-2.2ZM119.3,194.1c-.2-.2-.4-.4-.6-.7,0,0,0-.2,0-.1.2.3.4.5.6.7,0,0,0,.2,0,.1ZM118.4,192.7c.4-.2.8,0,.9.5,0,0,0,.2,0,0-.2-.4-.5-.6-.8-.5,0,0,0,0,0-.1ZM112.4,192.8c-.2-.4-.2-.9-.2-1.5,0,0,0-.1,0,0,0,.5.1,1,.2,1.4,0,0,0,.2,0,0ZM112.9,193.1c-.2-.2-.3-.6-.3-.9,0-.1.1-.2.1,0,0,.3.1.6.2.8,0,0,0,.3-.1.2Z"/>
      <path class="st19" d="M121.8,182.2c0,0-.1-.2-.2-.2-.2,0-.4.1-.6.2.3,0,.5,0,.7,0Z"/>
      <path class="st19" d="M123.1,188c0,0-.1,0-.1,0,0,.5,0,1,0,1.6,0,.1,0,.2.1,0,.1-.6.2-1.1,0-1.7Z"/>
      <path class="st19" d="M122.8,187.8c0-.1-.1-.1-.1,0,0,.5,0,1,0,1.5,0,.1.1.1.1,0,0-.5,0-1,0-1.5Z"/>
      <path class="st19" d="M119.3,193.1c-.1-.5-.5-.7-.9-.5,0,0,0,.1,0,.1.3-.2.6,0,.8.5,0,0,.1,0,0,0Z"/>
      <path class="st19" d="M119.3,194.1s0,0,0-.1c-.2-.2-.4-.4-.6-.7,0,0-.1,0,0,.1.2.3.3.6.6.7Z"/>
      <path class="st19" d="M120.7,210.5c0-.1,0-.1,0,0-.2.7-.3,1.5-.5,2.2,0,.1,0,.1,0,0,.2-.7.3-1.5.5-2.2Z"/>
      <path class="st19" d="M120.8,211.7c0-.1,0-.2-.1,0-.2.6-.3,1.1-.4,1.7,0,.1,0,.1,0,0,.2-.6.3-1.1.5-1.7Z"/>
      <path class="st19" d="M112.9,193.1c0,0,.2,0,.1-.2-.1-.2-.2-.5-.2-.8,0-.1-.1,0-.1,0,0,.4.1.7.3.9Z"/>
      <path class="st19" d="M112.3,191.3c0,0,0,0,0,0,0,.5,0,1,.2,1.5,0,0,.1,0,0,0-.1-.4-.2-.9-.2-1.4Z"/>
      <path class="st19" d="M112.3,198.2c-.1-.4-.2-.9-.4-1.3,0,0-.1,0,0,0,.1.4.2.9.4,1.3,0,0,0,0,0,0Z"/>
      <path class="st19" d="M107,185.7c0,0,0-.2,0-.2-.3,0-.6.2-1,.3,0,0,0,.2,0,.1.3,0,.6-.2,1-.3Z"/>
      <path class="st19" d="M106.4,186.5c0,0,.1-.2,0-.2-.2,0-.5,0-.7,0,0,0,0,.1,0,.2.2,0,.5,0,.7.1Z"/>
      <path class="st19" d="M112.2,208.2c0-.1,0-.1,0,0-.2.6-.2,1.1-.1,1.7,0,0,.1,0,.1,0,0-.5,0-1.1.1-1.6Z"/>
      <path class="st19" d="M112.2,208.7c0-.1,0-.1-.1,0,0,.7,0,1.4.2,2,0,0,.1,0,0,0-.2-.6-.2-1.3-.2-2Z"/>
      <path class="st19" d="M106.5,194.4c0,0,0-.2,0-.2-.2,0-.5.2-.7.3,0,0,0,.2,0,.1.2,0,.5-.2.7-.3Z"/>
      <path class="st19" d="M106.4,195.2c0,0,0-.2,0-.1-.3,0-.6.3-.9.6,0,0,0,.2,0,.1.3-.3.6-.4.9-.5Z"/>
      <path class="st19" d="M106.2,199.7c0,0,0-.2,0,0-.3.4-.5,1-.6,1.6,0,0,0,0,0,0,0-.6.3-1.1.6-1.5Z"/>
      <path class="st19" d="M105.6,199.8c0,0,0-.2,0-.1-.3.5-.5,1.2-.4,1.8,0,0,0,0,0,0,0-.6.2-1.2.4-1.6Z"/>
    </g>
    <g>
      <path class="st17" d="M114.3,183.6c-.1.6-.3,1.2-.4,1.7-.4,1.7-.9,3.4-.8,5.2-.9-.8-1.9-1.5-2.9-1.9-1.1-.5-2.3-.6-3.3-1.3-.9-.6-1.4-1.6-1.7-2.8-.1,0-.3,0-.4,0,.2.9.5,1.7,1,2.4.9,1.1,2.1,1.4,3.2,1.8,1.5.5,2.9,1.4,4.1,2.6,0,0,.2,0,.2-.3-.1-2.5.7-4.9,1.3-7.4-.1,0-.2,0-.3,0Z"/>
      <path class="st19" d="M105.2,184.5c.3,1.2.8,2.2,1.7,2.8,1,.7,2.2.8,3.3,1.3,1,.5,2,1.1,2.9,1.9,0-1.8.4-3.5.8-5.2.2-.6.3-1.2.4-1.7-3,.5-6.1.8-9.2.9ZM112.7,186.5c.2-.7.5-1.4.7-2.1,0,0,.1,0,0,0-.2.7-.5,1.4-.7,2.1,0,0-.1,0,0,0ZM113.5,185.8c-.2.5-.4,1-.6,1.6,0,0-.1,0,0,0,.2-.5.4-1.1.6-1.6,0-.1.1,0,.1,0Z"/>
    </g>
    <g>
      <path class="st19" d="M203.8,189.2c0,0-.1,0,0,0,.2-.5.3-1.1.2-1.7,0,0,0,0,0,0-.9-1-1.9-1.9-2.9-2.8-1.3-.4-2.7-.7-4-.9-1.6,1.8-3.3,3.4-5,4.8-.2.1-.2-.3,0-.4,1.6-1.3,3.2-2.8,4.7-4.4-2.7-.4-5.8-.3-8.3-.9-.3.4-.3.4-.5.9-1,1.9-1.6,4-2.2,6.3-.4,1.7-.9,3.4-1.7,4.8,1.1,0,2.2.3,3.2.7,1.1.4,2.1,1.2,3.3,1.5,3.1.7,5-4.2,5.5-8.5,0-.2.1-.2.2,0,0,0,.2-.1.2,0,.8,2.7,0,6.4-1.7,8.4,1.6.1,3.3-1.2,4.2-3.5,1-2.5.9-5.6,0-7.6,0,0,0-.2,0-.2.6-1.9,1.7,0,2,.8.6,1.5.7,3.5.5,5.4,1.3-.5,3-1.5,3.1-3.7,0-.1-.2-.2-.3-.3,0,.6,0,1.2-.3,1.7ZM185.7,192.2c0,.1-.1,0-.1,0,0-.6.1-1.2.2-1.7,0-.1.1-.1.1,0,0,.6-.2,1.2-.2,1.7ZM186.1,191.7c0,.1-.1,0-.1,0,.1-.7.3-1.5.4-2.2,0-.1.1,0,0,0-.1.7-.3,1.5-.4,2.2ZM193.8,193.8c.4-.5.7-1,.9-1.7,0-.1.1,0,0,0-.2.7-.5,1.3-.9,1.8,0,0-.1,0,0-.1ZM194.5,193.3c0,0-.1,0,0-.1.2-.4.4-.9.5-1.5,0-.1.1,0,.1,0,0,.6-.2,1.1-.5,1.6ZM203.6,188.7c0,0,0,0,0,0,.1-.6.1-1.1,0-1.6,0,0,0-.1,0,0,.1.5.1,1.2,0,1.7Z"/>
      <path class="st19" d="M197.1,183.7c1.4.2,2.7.5,4,.9"/>
      <path d="M194.9,191.7c0-.1.1,0,.1,0,0,.6-.2,1.1-.5,1.6,0,0-.1,0,0-.1.2-.4.4-.9.5-1.5Z"/>
      <path d="M194.7,192.1c0-.1.1,0,0,0-.2.7-.5,1.3-.9,1.8,0,0-.1,0,0-.1.4-.5.7-1,.9-1.7Z"/>
      <path d="M203.5,187c0,.5.1,1.1,0,1.6,0,0,0,0,0,0,.1-.6.2-1.2,0-1.7,0,0-.1,0,0,0Z"/>
      <path d="M204.1,187.4c0,0,0,0,0,0,0,0,0,0,0,.1,0,0,0,0,0-.1Z"/>
      <path d="M204,187.4s0,0,0,0c0,.6,0,1.1-.2,1.7,0,0,0,.1,0,0,.3-.5.4-1.2.3-1.7,0,0,0,0,0-.1Z"/>
    </g>
    <g>
      <path class="st17" d="M166.3,220.3c0-1.8.3-3.5,1.5-4.5.9-.7,1.9-.6,2.7-.3-.9,2.1-1.7,4.4-1.7,6.8,0,2.2.7,4.2,2,4.8.1,0,.3-.2.2-.3-1.2-3.7,0-8.6,2.6-10.9-.5,2-.8,4.2-.5,6.2.1,1,.8,3.7,1.8,2.4,0,0,0-.2,0-.3-.6-4,.2-8.8,2.9-11.1,1.3-1,2.6-1.3,3.9-1.5,1-.2,2-.4,3-1.2-.3,1.6-.5,3.3-.5,4.9,0,1.7,0,3.4-.1,5.2-.5,4.7-3.6,6.2-6,5.8,0,0-.1.2,0,.3,0,0,0,.2,0,.3,1.2,1.9,3.4,1.8,4.9-.2-.3,2.3-1.5,4.5-3,5.3-1.6.8-3.2-.1-4-2.1,0,0,0,0-.1,0-1.2.3-.4,2.4,0,3.1.7,1.3,1.6,2,2.7,2.1-.7,1.9-1.8,4.6-3.3,3.3-1-.9-1.6-3-1.9-4.8,0-.2-.2-.1-.3,0-.4,1.8-.3,3.5.2,4.9.3,1,.8,1.8,1.2,2.7.3.6.3,1.3-.1,2-.3.5-.6,1-1,1.3-1.5,1.4-2.9.2-3.4-1.9-.5-1.9-.3-4.3,0-6.5,0-.2-.2-.3-.3-.1-1.2,2.2-1.7,5.1-1.4,7.7-1.6-1.4-2-4.9-.8-7.7,0-.2,0-.4-.1-.3-1.1.5-1.9,1.7-2.4,3.3-.2-1.4-.3-2.9-.2-4.4,0,0,0,0,0,0,1.3-.1,2.7-.6,4-1.3,4.1-2.3,7.7-7,10.6-12.4.1-.2,0-.4-.2-.2-2.7,4.9-5.9,9.3-9.6,11.7-1.6,1-3.3,1.7-5,1.8-.9-1.1-1.5-2.7-1.6-4.6.5.7,1,1.3,1.7,1.6.1,0,.3-.2.2-.4-1.5-2.9-1.3-7.5.2-10.9-.1,3.7.2,8.3,2.8,8.9.1,0,.2-.3.2-.4-1.1-2.2-1.7-4.9-1.6-7.9Z"/>
      <path class="st19" d="M167.8,215.8c-1.2,1-1.4,2.7-1.5,4.5,0,3,.6,5.7,1.6,7.9,0,.1,0,.4-.2.4-2.6-.6-2.9-5.1-2.8-8.9-1.6,3.4-1.7,8-.2,10.9,0,.2,0,.4-.2.4-.7-.3-1.2-.9-1.7-1.6.1,1.9.7,3.5,1.6,4.6,1.7,0,3.4-.7,5-1.8,3.7-2.4,6.9-6.8,9.6-11.7.1-.2.3,0,.2.2-2.9,5.3-6.5,10.1-10.6,12.4-1.3.7-2.7,1.2-4,1.3,0,0,0,0,0,0,0,1.5,0,3,.2,4.4.4-1.6,1.3-2.8,2.4-3.3.1,0,.2.2.1.3-1.2,2.9-.9,6.3.8,7.7-.3-2.6.2-5.4,1.4-7.7.1-.2.3-.1.3.1-.2,2.2-.5,4.6,0,6.5.5,2,2,3.2,3.4,1.9.4-.3.7-.8,1-1.3.4-.7.4-1.3.1-2-.4-.9-.9-1.7-1.2-2.7-.5-1.5-.7-3.2-.2-4.9,0-.2.2-.2.3,0,.3,1.8.9,3.9,1.9,4.8,1.4,1.2,2.6-1.4,3.3-3.3-1.1-.1-2.1-.9-2.7-2.1-.3-.7-1.1-2.8,0-3.1,0,0,0,0,.1,0,.8,2,2.4,3,4,2.1,1.5-.8,2.6-2.9,3-5.3-1.5,1.9-3.7,2.1-4.9.2,0,0,0-.2,0-.3,0,0,0-.3,0-.3,2.4.4,5.5-1.1,6-5.8.2-1.7,0-3.5.1-5.2,0-1.6.3-3.3.5-4.9-1,.8-2,1-3,1.2-1.3.2-2.6.5-3.9,1.5-2.8,2.3-3.6,7-2.9,11.1,0,0,0,.2,0,.3-1,1.3-1.7-1.4-1.8-2.4-.3-2,0-4.2.5-6.2-2.6,2.3-3.7,7.2-2.6,10.9,0,.2,0,.4-.2.3-1.3-.6-2-2.6-2-4.8,0-2.4.8-4.7,1.7-6.8-.9-.3-1.8-.4-2.7.3ZM168.4,216.2c0,0,0,0,0-.1.3-.3.6-.4,1-.4,0,0,0,.2,0,.2-.3,0-.6.2-.9.4ZM168.2,216.7c0,0,0-.1,0-.2.3-.1.6-.2.8-.3,0,0,0,.2,0,.2-.3.1-.6.2-.8.3ZM164.2,223.1c0,0,0-.1,0,0,0,.5,0,1,.2,1.5,0,0,0,.2,0,0-.1-.5-.2-1-.2-1.6ZM164,224.3c0,0,0,0,0,0,0,.4,0,.8,0,1.2,0,0,0,0,0,0,0-.4,0-.8,0-1.2ZM171.1,221.4c-.1-.5,0-1.1.3-1.4,0,0,0,0,0,.1-.2.4-.3.9-.2,1.3,0,0,0,0,0,0ZM171.8,219.7c0,0,0,0,0,0,0,.4-.2.8-.4,1.1,0,0-.1,0,0,0,.2-.3.3-.7.4-1ZM181.3,212.8c0,0,0-.1,0-.1.4,0,.9,0,1.3,0,0,0,0,.2,0,.2-.4,0-.9,0-1.3,0ZM182,212.2c0,0,0-.2,0-.2.3,0,.7,0,1,.2,0,0,0,.2,0,.2-.3,0-.7,0-1-.1ZM165.2,234.6c0,0,0-.1,0-.2.2,0,.4,0,.6-.1,0,0,0,.1,0,.2-.2,0-.4,0-.6.1ZM165.4,234.9s0-.1,0-.1c.3,0,.5,0,.8-.1,0,0,0,.1,0,.1-.3,0-.5,0-.8.1ZM171.4,229.1c0-.1.1,0,0,.1-.1.3-.3.5-.5.7,0,0-.1-.1,0-.2.2-.1.3-.3.5-.6ZM170.5,230.9s0,0,0-.1c.3-.2.6-.4.8-.8,0,0,0,0,0,.1-.2.4-.5.6-.8.8ZM173.7,229.5c.2-.3.5-.6.7-.9,0,0,0,0,0,0-.2.3-.5.6-.7,1,0,0,0,0,0,0ZM167.3,240.2c0,0,0-.1,0,0,0,.4.1.9.2,1.3,0,0,0,.1,0,0,0-.4-.1-.9-.2-1.3ZM167.7,240.9c0-.1.1-.2.1,0,0,.4,0,.7,0,1.1,0,0,0,0,0,0,0-.4,0-.7,0-1.1ZM180.2,225.9c0,0,0-.2,0-.2.3,0,.6,0,.9-.3,0,0,0,0,0,.1-.3.3-.6.4-1,.3ZM180.5,225.7c0,0,0-.1,0-.1.4-.2.8-.4,1.1-.9,0,0,.1,0,0,.1-.3.5-.7.8-1.2.9ZM172.3,238.3c0,0,0-.2,0,0,0,.3.1.6.2.9,0,0,0,.1,0,0,0-.3-.1-.6-.2-.9ZM172.8,238.2c0,0,0-.1,0,0,0,.4.2.8.3,1.1,0,0,0,.2,0,.1-.2-.3-.3-.7-.3-1.1ZM175.4,237.2c0,0,0-.2,0-.1.3.3.5.5.9.4,0,0,0,0,0,.1-.3,0-.7,0-.9-.4ZM175.4,238c0,0,0-.2,0-.1.3.2.6.3,1,.1,0,0,0,0,0,.1-.4.3-.8.2-1-.1Z"/>
      <path class="st19" d="M168.3,216c0,0,0,.2,0,.1.3-.2.6-.3.9-.4,0,0,0-.2,0-.2-.3,0-.7.1-1,.4Z"/>
      <path class="st19" d="M168.2,216.5c0,0,0,.2,0,.2.3,0,.6-.2.8-.3,0,0,0-.2,0-.2-.3,0-.6.2-.8.3Z"/>
      <path class="st19" d="M164.3,223.1c0,0,0,0,0,0,0,.6,0,1.1.2,1.6,0,0,.1,0,0,0-.1-.5-.2-1-.2-1.5Z"/>
      <path d="M164.1,224.3c0,0,0,0,0,0,0,.4,0,.8,0,1.2,0,0,0,0,0,0,0-.4,0-.8,0-1.2Z"/>
      <path d="M171.4,220c-.3.4-.4,1-.3,1.4,0,0,0,0,0,0-.1-.4,0-.9.2-1.3,0,0,0-.2,0-.1Z"/>
      <path class="st19" d="M171.9,219.7c0,0,0-.1,0,0-.1.4-.2.7-.4,1,0,0,0,.1,0,0,.2-.3.3-.7.4-1.1Z"/>
      <path class="st19" d="M181.3,212.6c0,0,0,.1,0,.1.4,0,.9,0,1.3,0,0,0,0-.2,0-.2-.4,0-.8,0-1.3,0Z"/>
      <path class="st19" d="M182,212c0,0,0,.2,0,.2.3,0,.7,0,1,.1,0,0,0-.1,0-.2-.3,0-.6-.1-1-.2Z"/>
      <path d="M165.2,234.4c0,0,0,.2,0,.2.2,0,.4,0,.6-.1,0,0,0-.2,0-.2-.2,0-.4,0-.6.1Z"/>
      <path d="M165.4,234.8s0,.1,0,.1c.3,0,.5,0,.8-.1,0,0,0-.1,0-.1-.3,0-.5,0-.8.1Z"/>
      <path d="M171.5,229.2c0-.1,0-.2,0-.1-.1.3-.3.5-.5.6,0,0,0,.2,0,.2.2-.1.4-.4.5-.7Z"/>
      <path d="M170.5,230.7s0,.2,0,.1c.3-.2.6-.4.8-.8,0,0,0-.2,0-.1-.2.3-.5.6-.8.8Z"/>
      <path class="st19" d="M174.4,228.6c-.3.3-.5.6-.7.9,0,0,0,.2,0,0,.2-.3.5-.6.7-1,0,0,0-.1,0,0Z"/>
      <path d="M167.3,240.2c0,0,0,0,0,0,0,.4.1.9.2,1.3,0,0,0,0,0,0,0-.4-.1-.9-.2-1.3Z"/>
      <path d="M167.8,240.8c0-.1-.1-.1-.1,0,0,.4,0,.7,0,1.1,0,0,0,0,0,0,0-.4,0-.7,0-1.1Z"/>
      <path d="M180.2,225.7c0,0,0,.1,0,.2.3,0,.7,0,1-.3,0,0,0-.2,0-.1-.3.2-.6.4-.9.3Z"/>
      <path class="st19" d="M180.5,225.5c0,0,0,.2,0,.1.4-.1.8-.4,1.2-.9,0,0,0-.2,0-.1-.3.4-.7.7-1.1.9Z"/>
      <path d="M172.4,238.2c0,0-.1,0,0,0,0,.3.1.6.2.9,0,0,0,0,0,0,0-.3-.1-.6-.2-.9Z"/>
      <path d="M172.8,238.2c0,0,0,0,0,0,0,.5.2.8.3,1.1,0,0,.1,0,0-.1-.2-.3-.3-.7-.3-1.1Z"/>
      <path d="M175.4,237.1s0,0,0,.1c.2.4.6.5.9.4,0,0,0-.1,0-.1-.3,0-.6-.1-.9-.4Z"/>
      <path d="M175.5,237.9c0,0-.1,0,0,.1.3.3.7.4,1,.1,0,0,0-.2,0-.1-.3.2-.7.1-1-.1Z"/>
    </g>
    <g>
      <path class="st17" d="M141.3,264.7c-.4.3-1.3.6-1.7,0-.3-.6,1-2.4,1.3-2.9.3-.7.6-1.4.9-2.1.1-.3,1-2.5.2-2.2-.4.1-.6.9-.8,1.3-.4.8-.9,1.6-1.4,2.3-.5.6-1.1,1.4-1.8,1.4-.6,0-1.1-1-1.5-1.6-.4-.7-1.3-1.5-1-2.7.2-.9.6-1.8.9-2.6.3-.9.8-2.3,1.5-2.5.5-.1.9.2,1.3.5.4.3.9.9,1.4,1,.2,0,.4,0,.5-.3.2-.4,0-.8-.2-1.1-.3-.5-.7-1-1.2-1.4-.4-.4-1.8-.9-1-2,.6-.9,1.4-.3,1.8.4.4.6.6,1.4,1,1.9.3.5.7.8,1.2,1,0,0,.1,0,.1-.1.4-1.2-.2-2.2-.6-3-.4-.7-.9-1.3-1.5-1.8-.3-.3-.9-.6-.2-1.5.2-.2.4-.4.6-.5.5-.4,1.2-.8,1.7-.5.6.3.8,1.3,1.1,2.1.3.7.5,1.7.9,2.3.2.3.4.4.6.2,0,0,0,0,0-.1.3-2.6-.8-4.4-1.9-5.8,1.5-1.6,3.3-1.7,4.9-1.4.5.1,1.1.2,1.4,1,.3.6.4,1.5.6,2.3.3,1.5.7,2.9,1,4.4,0,0,0,.1.1,0,.6-.8.7-2.1.6-3.1-.1-1.3-.4-2.6-.7-3.8,2.3,1.7,3.5,5.7,3.2,9.9-1.8-.4-3.7-.4-5.5-.3-2.8.3-5.7,1.1-8.5,2.8,0,0,0,.2,0,.1,2.8-1.3,5.6-2.4,8.5-2.6,1.8-.2,3.5,0,5.2.4,0,0,0,0,0,0-1.1,3.6-3.2,6.6-5.5,8-.2.2-.7.5-.9.5-.5,0,0-1.2,0-1.7.2-.7.5-1.7.4-2.3,0-.4-.3-.7-.6-.5-.4.2-.5,1.2-.6,1.7-.2,1-.5,2-.7,3.1-.3,1-.6,2-1.2,2.6-.5.4-1.1.6-1.6.6-.4,0-1.5.2-1-.9.4-.8.8-1.5,1.2-2.4.3-.7.6-1.5.8-2.3.2-.6.4-2.2-.3-1.9-.4.2-.6,1.1-.7,1.5-.3.9-.6,1.8-1,2.6-.4.8-.9,1.5-1.5,1.9Z"/>
      <path class="st19" d="M139.6,264.8c.3.6,1.2.3,1.7,0,.6-.4,1.1-1.1,1.5-1.9.4-.8.7-1.7,1-2.6.2-.4.4-1.4.7-1.5.7-.3.5,1.3.3,1.9-.2.8-.5,1.6-.8,2.3-.4.9-.8,1.6-1.2,2.4-.6,1.1.6,1,1,.9.5,0,1.1-.2,1.6-.6.7-.6,1-1.6,1.2-2.6.2-1,.5-2,.7-3.1.1-.5.2-1.5.6-1.7.3-.2.5.2.6.5,0,.7-.3,1.7-.4,2.3-.1.5-.6,1.6,0,1.7.3,0,.7-.3.9-.5,2.3-1.4,4.4-4.4,5.5-8,0,0,0,0,0,0-1.7-.4-3.4-.5-5.2-.4-2.9.3-5.7,1.3-8.5,2.6,0,0,0,0,0-.1,2.7-1.8,5.7-2.5,8.5-2.8,1.8-.2,3.7-.1,5.5.3.3-4.3-.9-8.2-3.2-9.9.3,1.2.5,2.5.7,3.8,0,1.1,0,2.3-.6,3.1,0,0-.1,0-.1,0-.3-1.5-.7-2.9-1-4.4-.2-.7-.3-1.6-.6-2.3-.3-.7-.8-.9-1.4-1-1.6-.3-3.4-.2-4.9,1.4,1.1,1.4,2.2,3.1,1.9,5.8,0,0,0,.1,0,.1-.3.2-.4,0-.6-.2-.4-.6-.6-1.6-.9-2.3-.3-.8-.5-1.8-1.1-2.1-.5-.3-1.2.1-1.7.5-.2.1-.4.3-.6.5-.7.9,0,1.2.2,1.5.5.5,1,1.1,1.5,1.8.5.7,1,1.7.6,3,0,0,0,.1-.1.1-.4-.2-.8-.5-1.2-1-.4-.6-.6-1.3-1-1.9-.4-.7-1.2-1.4-1.8-.4-.8,1.1.6,1.6,1,2,.4.4.8.8,1.2,1.4.1.2.4.6.2,1.1-.1.3-.3.3-.5.3-.5-.1-1-.7-1.4-1-.4-.3-.8-.6-1.3-.5-.7.2-1.1,1.6-1.5,2.5-.3.8-.7,1.8-.9,2.6-.3,1.2.6,2,1,2.7.4.6.8,1.5,1.5,1.6.6,0,1.3-.7,1.8-1.4.5-.7,1-1.4,1.4-2.3.2-.4.4-1.2.8-1.3.8-.3,0,1.9-.2,2.2-.3.7-.6,1.4-.9,2.1-.2.5-1.6,2.3-1.3,2.9ZM140.1,264.7c0,0,0-.2,0-.2.2,0,.4,0,.5-.2,0,0,0,0,0,.1-.2.3-.4.3-.6.2ZM137.8,261.7s0-.1,0-.1c.3.2.6,0,.8-.3,0,0,.1,0,0,0-.3.4-.6.6-.9.3ZM138.1,262s0-.2,0-.1c.3,0,.5,0,.8-.3,0,0,.1,0,0,.1-.3.3-.6.4-.9.3ZM136.3,257.9c0,0,0,0,0,0,0-.6.3-1,.6-1.3,0,0,0,0,0,0-.3.3-.5.7-.6,1.2ZM145.4,264c0,0,0,0,0,0,.1-.3.3-.6.4-.8,0,0,0,0,0,0-.1.3-.3.6-.4.8ZM145.7,264s0,0,0,0c.2-.4.4-.7.5-1.2,0,0,.1,0,0,0,0,.5-.3.9-.5,1.2ZM148.1,262.2s0,0,0-.1c.3-.2.6-.4.9-.6,0,0,0,0,0,0-.3.2-.6.4-.9.6ZM142.3,249.8c0,0,0,.1,0,0,0-.3-.2-.5-.4-.6,0,0,0-.1,0,0,.2,0,.4.3.5.6ZM142.8,250.1c0,0,0,.1,0,0-.1-.5-.3-1-.6-1.2,0,0,0,0,0,0,.3.3.5.7.6,1.3ZM146.6,252.8c0,0,0,0,0-.1.2-.2.5-.3.7-.4,0,0,0,.1,0,.1-.2,0-.5.2-.7.4ZM147.1,253s0,0,0-.1c.2,0,.3-.2.5-.2,0,0,0,0,0,0-.2,0-.3.2-.5.2ZM149.6,245.2c0,0,0,.1,0,0,0-.2,0-.5-.2-.6,0,0,0-.2,0-.1.2.1.3.4.3.7ZM149.9,245.2c0,0,0,0,0,0,0-.4-.2-.8-.4-1.1,0,0,0-.1,0,0,.2.3.3.7.4,1.1ZM153.9,249.6c0,0,0,0,0,0,0-.4,0-.8-.1-1.2,0,0,0-.1,0,0,.1.4.2.8.1,1.3ZM154.2,249.1c0,0,0,.1,0,0-.1-.5-.2-1-.3-1.5,0,0,0,0,0,0,.1.5.2,1,.3,1.4Z"/>
      <path class="st19" d="M140.2,264.6c0,0-.1.1,0,.2.2.1.4,0,.6-.2,0,0,0-.2,0-.1-.2.2-.3.3-.5.2Z"/>
      <path class="st19" d="M137.8,261.6s0,0,0,.1c.3.2.7,0,.9-.3,0,0,0-.1,0,0-.2.4-.5.5-.8.3Z"/>
      <path class="st19" d="M138.1,261.9s0,.1,0,.1c.3.1.6,0,.9-.3,0,0,0-.2,0-.1-.2.3-.5.4-.8.3Z"/>
      <path d="M136.2,257.9c0,0,0,0,0,0,0-.5.3-.9.6-1.2,0,0,0-.1,0,0-.3.3-.5.8-.6,1.3Z"/>
      <path class="st19" d="M145.3,263.9c0,0,0,.1,0,0,.1-.3.3-.6.4-.8,0,0,0-.1,0,0-.1.3-.3.5-.4.8Z"/>
      <path class="st19" d="M145.6,263.9c0,0,0,.1,0,0,.3-.3.4-.8.5-1.2,0,0,0-.1,0,0-.1.5-.3.8-.5,1.2Z"/>
      <path class="st19" d="M148.1,262.1s0,.1,0,.1c.3-.2.6-.4.9-.6,0,0,0-.1,0,0-.3.2-.6.4-.9.6Z"/>
      <path d="M142.3,249.8c0,0,0,0,0,0,0-.3-.2-.6-.5-.6,0,0,0,0,0,0,.2,0,.3.3.4.6Z"/>
      <path d="M142.7,250.1c0,0,0,0,0,0,0-.6-.3-1-.6-1.3,0,0,0,0,0,0,.3.3.5.7.6,1.2Z"/>
      <path class="st19" d="M146.7,252.8c0,0,0,.1,0,.1.2-.2.4-.4.6-.5,0,0,0-.2,0-.1-.2.1-.4.3-.6.5Z"/>
      <path class="st19" d="M147.1,252.9s0,.1,0,.1c.2,0,.3-.1.5-.2,0,0,0-.1,0,0-.2,0-.3.1-.5.2Z"/>
      <path class="st19" d="M149.5,245.2c0,0,0,0,0,0,0-.3-.1-.5-.3-.7,0,0,0,0,0,.1.1.1.2.3.2.6Z"/>
      <path class="st19" d="M149.9,245.2c0,0,0,0,0,0,0-.5-.2-.8-.4-1.1,0,0,0,0,0,0,.2.3.3.7.4,1.1Z"/>
      <path d="M153.8,249.6c0,0,0,0,0,0,0-.5,0-.9-.1-1.3,0,0,0,0,0,0,.1.4.2.8.1,1.2Z"/>
      <path d="M154.2,249.2c0,0,0,0,0,0,0-.5-.2-1-.3-1.4,0,0,0,0,0,0,0,.5.2,1,.3,1.5Z"/>
    </g>
    <g>
      <path class="st4" d="M167.6,256.1c1.1-.8,1.3-2.3,1.4-3.9.1-2.6-.4-5.1-1.2-7.1,0-.1,0-.4.1-.3,2.3.7,2.4,4.7,2.2,8,1.5-2.9,1.7-7,.5-9.6,0-.2,0-.4.2-.3.6.3,1.1.8,1.5,1.5,0-1.7-.5-3.1-1.3-4.1-1.4,0-2.9.4-4.4,1.2-3.3,1.9-6.2,5.5-8.7,9.7-.1.2-.3,0-.2-.2,2.7-4.5,5.9-8.5,9.5-10.2,1.2-.5,2.4-.9,3.5-.9,0,0,0,0,0,0,.1-1.3.1-2.6,0-3.9-.4,1.4-1.2,2.4-2.2,2.7-.1,0-.2-.2,0-.3,1.1-2.5.9-5.5-.4-6.9.2,2.3-.3,4.8-1.4,6.7,0,.2-.2,0-.2-.1.2-1.9.5-4,.1-5.8-.4-1.8-1.6-3-2.9-1.9-.3.3-.6.7-.9,1.1-.4.6-.4,1.2-.1,1.7.4.8.7,1.6,1,2.5.4,1.3.5,2.8,0,4.4,0,.2-.2.2-.2,0-.2-1.6-.7-3.5-1.5-4.4-1.2-1.2-2.3,1.1-2.9,2.7.9.2,1.8.9,2.3,2.1.3.6.8,2.6-.2,2.7,0,0,0,0-.1,0-.6-1.8-2-2.8-3.4-2.2-1.3.6-2.4,2.4-2.7,4.4,1.4-1.6,3.2-1.6,4.3.2,0,0,0,.2,0,.2,0,0,0,.2,0,.2-2.1-.5-4.8.6-5.3,4.7-.2,1.5-.1,3-.2,4.6-.1,1.4-.3,2.9-.6,4.3.9-.7,1.7-.8,2.6-.9,1.1,0,2.3-.2,3.4-1.1,2.5-1.8,3.3-6,2.8-9.6,0,0,0-.2,0-.2.9-1.1,1.4,1.3,1.5,2.3.2,1.8-.2,3.7-.6,5.4,2.3-1.8,3.5-6.1,2.5-9.4,0-.2,0-.3.2-.3,1.1.6,1.7,2.4,1.6,4.4,0,2.1-.9,4.1-1.7,5.9.7.3,1.6.5,2.4-.1ZM167.1,255.7c0,0,0,0,0,.1-.3.2-.6.3-.8.3,0,0,0-.1,0-.1.3,0,.5-.1.8-.3ZM167.2,255.3c0,0,0,.1,0,.2-.2,0-.5.2-.7.2,0,0,0-.1,0-.2.2,0,.5-.2.7-.2ZM170.9,249.9c0,0,0,.1,0,0,0-.5,0-.9-.1-1.4,0,0,0-.1,0,0,0,.4.1.9.1,1.4ZM171.1,248.8s0,0,0,0c0-.4,0-.7,0-1.1,0,0,0,0,0,0,0,.4,0,.7,0,1.1ZM164.9,250.9c.1.4,0,1-.3,1.3,0,0,0,0,0,0,.2-.3.3-.7.2-1.1,0,0,0,0,0,0ZM164.2,252.4c0,0,0,0,0,0,0-.3.2-.6.4-.9,0,0,0,0,0,0-.2.3-.3.6-.4.9ZM155.8,257.8c0,0,0,.1,0,.1-.4,0-.7,0-1.1,0,0,0,0-.1,0-.1.4,0,.7,0,1.1,0ZM155.2,258.3c0,0,0,.2,0,.2-.3,0-.6-.1-.8-.2,0,0,0-.1,0-.1.3,0,.6,0,.8.2ZM170.3,239.7c0,0,0,.1,0,.1-.2,0-.3,0-.5,0,0,0,0-.1,0-.1.2,0,.3,0,.5,0ZM170.2,239.3s0,.1,0,.1c-.2,0-.5,0-.7,0,0,0,0-.1,0-.1.2,0,.5,0,.7,0ZM164.8,244c0,0-.1,0,0-.1.1-.3.3-.5.5-.6,0,0,.1.1,0,.2-.2.1-.3.3-.4.5ZM165.7,242.6s0,0,0,.1c-.3.1-.5.4-.7.6,0,0,0,0,0,0,.2-.3.5-.5.7-.7ZM162.8,243.5c-.2.3-.4.5-.7.8,0,0,0,0,0,0,.2-.3.4-.5.7-.8,0,0,0,0,0,0ZM168.7,234.5c0,0,0,.1,0,0,0-.4,0-.8-.1-1.2,0,0,0-.1,0,0,0,.4,0,.8.1,1.2ZM168.3,233.9c0,.1-.1.1-.1,0,0-.3,0-.6,0-.9,0,0,0,0,0,0,0,.3,0,.6,0,.9ZM157.1,246.3c0,0,0,.1,0,.1-.3,0-.5,0-.8.2,0,0,0,0,0-.1.3-.2.6-.3.8-.2ZM156.8,246.5c0,0,0,.1,0,.1-.4.1-.7.3-1,.7,0,0,0,0,0-.1.3-.4.7-.6,1-.7ZM164.3,235.9c0,0,0,.1,0,0,0-.3,0-.6-.1-.8,0,0,0-.1,0,0,0,.3,0,.6.1.8ZM163.9,235.9c0,0,0,0,0,0,0-.4-.1-.7-.3-1,0,0,0-.1,0,0,.1.3.3.6.3,1ZM161.6,236.7s0,.1,0,0c-.2-.3-.4-.4-.7-.4,0,0,0,0,0,0,.3,0,.6.1.8.4ZM161.6,235.9c0,0,0,.2,0,.1-.2-.2-.5-.3-.8-.2,0,0,0,0,0-.1.3-.2.7-.1.9.2Z"/>
      <path class="st19" d="M167.1,255.8c0,0,0-.2,0-.1-.3.1-.5.3-.8.3,0,0,0,.1,0,.1.3,0,.6,0,.8-.3Z"/>
      <path class="st19" d="M167.2,255.4c0,0,0-.2,0-.2-.2,0-.5.1-.7.2,0,0,0,.2,0,.2.2,0,.5-.1.7-.2Z"/>
      <path d="M170.9,249.9c0,0,0,0,0,0,0-.5,0-1-.1-1.4,0,0-.1,0,0,0,0,.4.1.9.1,1.4Z"/>
      <path d="M171.1,248.8s0,0,0,0c0-.4,0-.7,0-1.1,0,0,0,0,0,0,0,.4,0,.7,0,1.1Z"/>
      <path class="st19" d="M164.6,252.1c.3-.3.4-.9.3-1.3,0,0,0,0,0,0,0,.4,0,.8-.2,1.1,0,0,0,.1,0,0Z"/>
      <path class="st19" d="M164.1,252.3c0,0,0,.1,0,0,.1-.3.2-.6.4-.9,0,0,0-.1,0,0-.2.3-.3.6-.4.9Z"/>
      <path class="st19" d="M155.8,257.9c0,0,0-.1,0-.1-.4,0-.7,0-1.1,0,0,0,0,.1,0,.1.4,0,.7,0,1.1,0Z"/>
      <path class="st19" d="M155.1,258.4c0,0,0-.1,0-.2-.3,0-.6-.1-.8-.2,0,0,0,.1,0,.1.3,0,.6.2.8.2Z"/>
      <path d="M170.3,239.8c0,0,0-.1,0-.1-.2,0-.3,0-.5,0,0,0,0,.1,0,.1.2,0,.3,0,.5,0Z"/>
      <path d="M170.2,239.4s0-.1,0-.1c-.2,0-.5,0-.7,0,0,0,0,.1,0,.1.2,0,.5,0,.7,0Z"/>
      <path d="M164.7,243.9c0,0,0,.2,0,.1.1-.2.3-.4.4-.5,0,0,0-.2,0-.2-.2.1-.4.3-.5.6Z"/>
      <path d="M165.7,242.7s0-.1,0-.1c-.3.1-.5.3-.7.7,0,0,0,.2,0,0,.2-.3.5-.5.7-.6Z"/>
      <path d="M162.2,244.3c.2-.3.4-.5.7-.8,0,0,0-.1,0,0-.2.3-.4.5-.7.8,0,0,0,.1,0,0Z"/>
      <path d="M168.6,234.6c0,0,0,0,0,0,0-.4,0-.8-.1-1.2,0,0,0,0,0,0,0,.4,0,.8.1,1.2Z"/>
      <path d="M168.2,233.9c0,.1,0,.1.1,0,0-.3,0-.6,0-.9,0,0,0,0,0,0,0,.3,0,.6,0,.9Z"/>
      <path d="M157.1,246.4c0,0,0-.1,0-.1-.3,0-.6,0-.8.2,0,0,0,.2,0,.1.3-.2.5-.3.8-.2Z"/>
      <path class="st19" d="M156.8,246.6c0,0,0-.1,0-.1-.4,0-.7.3-1,.7,0,0,0,.2,0,.1.3-.3.6-.6,1-.7Z"/>
      <path d="M164.2,236c0,0,0,0,0,0,0-.3,0-.6-.1-.8,0,0,0,0,0,0,0,.3,0,.6.1.8Z"/>
      <path d="M163.8,236c0,0,0,0,0,0,0-.4-.1-.7-.3-1,0,0-.1,0,0,0,.1.3.2.6.3,1Z"/>
      <path d="M161.5,236.7s0,0,0,0c-.2-.3-.5-.5-.8-.4,0,0,0,0,0,0,.3,0,.5.2.7.4Z"/>
      <path d="M161.5,236s.1,0,0-.1c-.2-.3-.6-.4-.9-.2,0,0,0,.1,0,.1.3-.1.6,0,.8.2Z"/>
    </g>
    <g>
      <path class="st20" d="M122.3,201.1c-.2-1-.9-1.4-1.5-1.2-.8.2-1.4,1-2.1,1.8.6-.2,1.2-.3,1.7.1.6.6.4,1.7,0,2.6-.3,1.1-.7,2.2,0,3,.3.4.6.6.8,1.2.3.8.2,1.8-.1,2.7.1,0,.3,0,.4,0,0,0,0,0,0,0,.5-.8.8-1.9.6-2.9-.1-.6-.4-1.1-.5-1.7-.2-1-.2-2.1.2-3.1.3-.8.6-1.5.4-2.4ZM120.8,200.2c.3,0,.6.1.8.5,0,0,0,.2,0,.1-.2-.3-.5-.4-.8-.4,0,0,0-.1,0-.1ZM121,200.6c.3.1.5.4.7.7,0,0,0,.2,0,.1-.2-.2-.4-.5-.7-.7,0,0,0-.1,0,0Z"/>
      <path class="st20" d="M118.4,200.6c.6-2-.2-3.3-1.4-3.1-.7.1-1.3.8-2,.5-.3-.1-.6-.4-.9-.7-.3-.4-.8-1.2-1.2-1.2-.4,0-.8.8-1,1.3-.1.4-.2.8-.3,1.2,0,.5-.2,1-.2,1.4.3-.7.7-1.3,1.3-1,.4.2.5.8.7,1.3.3.5.8.7,1.2.3.2-.2.4-.5.6-.6.6-.6,1.6-1.3,2.2-.7.5.4.7,1.4.6,2.3.1-.3.2-.6.3-1ZM117.7,198.1c.2.1.5.3.6.6,0,0,0,.2,0,.1-.2-.2-.3-.5-.5-.6,0,0,0-.1,0-.1Z"/>
      <path class="st29" d="M125.9,208.8c0-.3,0-.6-.3-.4-.2.2-.2.6-.3.9,0,.3-.1.6-.2.9,0,0,.2-.1.3-.2,0,0,0,0,0,0,.1-.2.2-.5.3-.7,0-.1.1-.4.1-.5Z"/>
      <path class="st29" d="M126.8,210.4c0-.4-.4-.2-.7-.1-.1.1-.2.2-.3.3.1.1.3.2.4.2.1,0,.6,0,.6-.4Z"/>
      <path class="st29" d="M125,209c-.2-.2-.4.5-.5.7,0,.3,0,.6,0,.9,0,0,.1,0,.2,0,0-.4.7-1.1.4-1.5Z"/>
      <path class="st18" d="M120.4,203.7c.4-2-1.1-2-2-1.6-.1.2-.3.4-.4.6h0c-.3.7-.6,1.3-.9,1.9-.7,1.6-1.5,3.1-2.2,4.6.6-.3,1.2-.8,1.8-1.3,0,0,.1.1,0,.2-.6.6-1.3,1.1-2,1.4h0c1.3.3,2.7.2,4.1-.7,0,0,.1.1,0,.2-1.3.8-2.6,1.1-3.9.7,0,0,0,0,0,0,1.9.9,3.7,1.5,5.8,1.5,0,0,0,0,.1,0,.3-.7.4-1.5.2-2.3-.1-.7-.5-.9-.8-1.3-.3-.4-.6-.8-.5-1.5,0-.9.4-1.7.6-2.5ZM119.6,205.7c0,0,.1,0,0,.1-.2.3-.2.7-.1,1,0,0,0,.1,0,0-.2-.3-.1-.9.1-1.2Z"/>
      <path class="st18" d="M117.8,202.1c.2-1.8-.4-3-1.6-2.5-.4.2-.8.5-1.1.9-.2.3-.5.6-.7.8-.4.3-.7.2-.9-.2-.2-.3-.3-.7-.5-1.1,0-.2-.2-.4-.3-.5-.6-.5-1,.3-1.3,1,0,.1,0,.2,0,.3,0,2.9.8,5.2,1.7,7.4.3.5.6.9.9,1.4-.1-1.2-.1-2.4,0-3.7,0-.1.1-.1.1,0-.1,1.3-.1,2.6,0,3.8,0,0,0,0,0,0,0,0,0,0,0,0,0,0,0,0,.1-.1.2-1.8.6-3.7,1.2-5.4,0-.1.1,0,.1,0-.5,1.7-.9,3.4-1.2,5.1.7-1.4,1.4-2.8,2.1-4.2.4-1,.9-2,1.3-3,0,0,0,0,0-.1ZM112.2,201.6c0,0,.1,0,0,0,0,.4-.1.7,0,1.1,0,0,0,.2,0,0,0-.4,0-.8,0-1.2ZM111.8,201.8c0,0,0,0,0,0,0,.5,0,1,.1,1.4,0,0,0,.2,0,0-.1-.5-.1-1,0-1.5Z"/>
      <path class="st29" d="M125.6,211.8c.1-.2.2-.5,0-.6-.2-.1-.5.2-.7,0,0,0-.1,0-.2.1.1.3.3.5.5.6.1,0,.3,0,.4-.1Z"/>
      <path class="st0" d="M124.3,211.2c.3-.1.5-.3.8-.5-1.3.7-2.6.9-3.9,1,0,0-.1,0-.2,0,0,0-.1,0-.1,0-2.2,0-4.4-.4-6.3-1.8,0,0,0,0,0,0,0,0,0,0,0,0,0,.1-.1.1-.2,0,0,0,0,.2-.1.3,0,0,0,0,0,0,0,0,0,0,0,0,0,0,0,.1,0,.2,0,0,0,0,0,0,0,0,0,0,0,0,1.9,1.8,4.3,2.2,6.7,1.8,1.1-.2,2.3-.6,3.4-1.2Z"/>
      <path class="st18" d="M119.7,205.8c0,0,0-.2,0-.1-.2.3-.3.9-.1,1.2,0,0,0,0,0,0-.1-.3,0-.7.1-1Z"/>
      <path class="st18" d="M121.6,212.6s0,0,0,0c-.3,0-.6.1-.9.2-2.3.4-4.5,0-6.3-1.6.4.9.9,1.7,1.6,2.1,0,0,0,.3,0,.2-.4-.3-.8-.6-1.1-1.1.7,1.5,1.5,2.9,2.5,4.2,0,0,0,.3-.1.2-1.3-1.6-2.3-3.5-3.1-5.8.2,1.9.5,3.7,1,5.4.3,1.1.6,2.3,1.1,3.3.6,1.2,1.8,2.7,2.6.7.4-1,.2-2.3.8-3.2.6-1,1.1,0,1.8-.5,1.3-.9.7-3,.3-4.2ZM121.5,213.6c0,0,0-.2,0-.1.1.3.2.7.1,1.1,0,0,0,0,0,0,0-.4,0-.7-.1-1ZM121.1,213.9c0,0,0-.2,0-.1.1.2.2.4.2.7,0,.1-.1.2-.1,0,0-.2,0-.4-.1-.6ZM115,215.1c0,0,0-.1,0,0,0,.4.2.8.3,1.2,0,0,0,.2,0,0-.2-.3-.3-.8-.3-1.3ZM115.4,215.6c0,0,0-.1,0,0,0,.4.2.8.4,1.1,0,0,0,.2,0,.1-.2-.3-.3-.7-.4-1.2Z"/>
      <path class="st20" d="M122.7,216c.1-1.2-.2-2.2-.7-2.9.3.9.5,1.9,0,3-.2.5-.6,1-.9,1.1-.6.3-1.3-.5-1.8.7-.5,1.2-.3,3.8-1.6,3.8-.3,0-.6-.1-.8-.3.2.2.3.4.5.6.8.7,1.7.3,2.3-1.1.4-.8.7-1.5,1.2-2,.8-.7,1.4-1.3,1.6-2.8ZM121.6,217.6c0,0,.1,0,0,.2-.3.4-.6.6-1,.7,0,0-.1-.2,0-.2.3,0,.6-.3.9-.6ZM121.2,218.6s0,.1,0,.2c-.3,0-.5,0-.7.4,0,0-.1,0,0-.1.2-.3.5-.5.8-.4Z"/>
      <path class="st18" d="M112.3,201.6c0,0,0-.1,0,0-.1.4-.1.8,0,1.2,0,0,.1,0,0,0,0-.3,0-.7,0-1.1Z"/>
      <path class="st20" d="M121.6,213.5c0,0-.1,0,0,.1.1.3.2.6.1,1,0,0,0,0,0,0,0-.4,0-.8-.1-1.1Z"/>
      <path class="st18" d="M111.9,201.8c0,0,0,0,0,0,0,.5,0,1,0,1.5,0,0,.1,0,0,0-.1-.4-.1-.9-.1-1.4Z"/>
      <path class="st20" d="M121.2,213.7c0,0-.1,0,0,.1,0,.2.1.3.1.6,0,.1.1,0,.1,0,0-.3,0-.5-.2-.7Z"/>
      <path class="st20" d="M121.7,217.7c0,0,0-.2,0-.2-.3.3-.6.5-.9.6,0,0,0,.3,0,.2.4,0,.7-.3,1-.7Z"/>
      <path class="st20" d="M121.2,218.8s0-.1,0-.2c-.3,0-.6.1-.8.4,0,0,0,.2,0,.1.2-.3.5-.3.7-.4Z"/>
      <path class="st18" d="M113.9,210c-1.3-1.8-2.5-3.6-4.1-4.7-.2-.2-.6-.4-.9-.6,0,0,0,0,0,0-.8-.1-1.1,1.3-1.1,2.2,0,.7.2,1.2.3,1.7.2.5.3,1.1.2,1.8,0,.6-.4,1.1-.7,1.5-.4.6-1,1.3-.8,2.2,0,.1.4.8.8,1.1,1.3.1,2.7-.6,4.1-1.4.6-.9,1.2-1.9,1.8-2.8-.8.8-1.8,1.2-2.7,1.2,0,0,0-.2,0-.2,1.1-.2,2.2-.7,3.2-1.8,0,0,0,0,0,0,0,0,0,0,0,0,0,0,0,0,0,0,0,0,0,0,0,0-1.1.2-2.1-.3-2.9-1.3,0,0,0-.3,0-.2.8.9,1.7,1.3,2.7,1.3ZM108.8,214.8c0,0,0,.2,0,.2-.4.1-.7,0-1-.5,0,0,0-.2,0-.1.3.4.6.5.9.4ZM108,215s0,.1,0,.1c-.3,0-.5-.4-.7-.8,0,0,0-.1,0,0,.2.4.4.5.6.8Z"/>
      <path class="st18" d="M113.9,211.2s0,0,0,0c-.8,1.5-1.6,3-1.7,4.9,0,.1-.1.2-.1,0,0-2,.9-3.7,1.8-5.2-.6.9-1.2,1.8-1.8,2.8,0,0,0,.1,0,.2,0,0-.1.1-.2.2-.9,1.4-1.9,2.9-2.7,4.4-.2.3-.4.6-.5,1-.1.8,0,1.6.4,1.9.3.2.7,0,1,0,.4,0,.8.2,1.1.7.4.7.5,1.7,1,2.4.4.6,1.1.5,1.6-.1.4-.5.6-1.2.7-1.9,0,0,0,0,0-.1,0,0,0-.1,0-.2,0,0,0-.1,0-.2,0,0,0,0,0,0,0-.2.1-.4.1-.5,0-.4,0-.8,0-1.1,0-1.5,0-3-.1-4.4-.3-1.3-.5-2.7-.6-4.1-.3,1.2-.4,2.5-.3,3.7,0,.1-.1.2-.1,0-.2-1.3,0-2.8.4-4.1ZM114.3,217.5c0-.1.1-.2.1,0,0,.4,0,.9-.1,1.4,0,.1-.2,0-.1,0,.1-.4.1-.8.1-1.2ZM114.6,218.5c0-.1.1-.1.1,0,0,.4,0,.9-.2,1.2,0,0-.1,0,0,0,.1-.4.2-.7.2-1.1Z"/>
      <path class="st20" d="M108.4,204.5c-.5-.1-1,0-1.4.4-.7.9-.4,2.5-.5,3.6,0,1.1-.5,2-.9,3.1-.3.8-.4,1.6-.2,2.4.2.6.7.9,1.1,1.1.2,0,.4.2.6.2-.2-.2-.4-.5-.4-.6-.5-1.1.2-2.1.7-2.9.4-.6.7-1.2.6-2,0-.5-.2-.9-.4-1.3-.2-.5-.2-1.1-.2-1.7,0-.8.4-2,.9-2.2ZM107.3,205.1s0,0,0,0c-.2.2-.4.5-.5.8,0,0,0,0,0,0,.1-.3.3-.6.5-.9Z"/>
      <path class="st20" d="M107.3,205.2c0,0,0-.1,0,0-.2.2-.4.5-.5.9,0,0,0,.1,0,0,.1-.3.3-.6.5-.8Z"/>
      <path class="st20" d="M115.1,215.1c0,0,0,0,0,0,0,.5.1.9.3,1.3,0,0,.1,0,0,0-.1-.4-.2-.8-.3-1.2Z"/>
      <path class="st20" d="M115.4,215.6c0,0,0,0,0,0,0,.4.2.8.4,1.2,0,0,.1,0,0-.1-.2-.3-.3-.7-.4-1.1Z"/>
      <path class="st20" d="M114.5,217.5c0-.1-.1,0-.1,0,0,.4,0,.8-.1,1.2,0,.1,0,.2.1,0,.1-.4.2-.9.1-1.4Z"/>
      <path class="st20" d="M114.7,218.5c0-.1-.1,0-.1,0,0,.4,0,.8-.2,1.1,0,0,0,.1,0,0,.2-.4.2-.8.2-1.2Z"/>
      <path class="st20" d="M114.6,222s0,0,0,.1c-.1,1.2-.5,2.5-1.3,2.9-.9.5-1.4-.6-1.8-1.6-.3-.9-.6-1.7-1.3-1.7-.4,0-.9.1-1.3-.2-.3-.3-.5-1-.4-1.6-.4.9-.8,1.9-.6,2.8.2,1.3,1.3,1,2,1,.5,0,1,0,1.4.6.3.5.3,1.3.6,1.6.5.5,1.2.2,1.7-.4.7-.9,1-2.2,1.1-3.5ZM108.2,221.3c0,0,.1,0,0,0,0,.4,0,.8.1,1,0,0,0,.2,0,.1-.2-.3-.3-.7-.2-1.1ZM108,221.9c0-.1.1-.1.1,0,0,.4,0,.8.3,1,0,0,0,.2,0,.1-.3-.2-.5-.7-.4-1.2Z"/>
    </g>
    <g>
      <path class="st18" d="M105.7,201.9c.2.8.6,1.3,1.1,1.4,1.1.3,2.1-1,2.7-2.4,0-.4.1-.8.2-1.2,0,0-.1,0-.2,0-.3,0-.6-.3-.7-.7-.4-.9-.1-2.2.4-3.1-.7.4-1.6.6-1.8-.4-.2-.9.3-1.9.9-2.6-1,.3-2.1.5-3,.1-1,1-1.7,2.9-.9,4.4.4.8,1.2,1.1,1.4,2.2.1.7-.1,1.5,0,2.2ZM104.7,197c0,.1,0,.2-.1,0-.1-.4-.2-.8-.2-1.3,0-.1,0-.2.1,0,0,.4,0,.8.2,1.2Z"/>
      <path class="st18" d="M109.8,205.2c.6,1.2,1.8.8,2.6,0,.6-.6,1.1-1.2,1.7-1.2.7,0,1.4.7,2.2.1.9-.6,1.3-2.3,1.3-3.7,0-1.5-.6-2.6-1.1-3.7,0,0,0,0,0,0-.2-.2-.5-.5-.7-.8.2.9,0,2.1-.7,2.3-.5.1-.8-.3-1-1,0,1.4-.3,2.8-1.1,3.4-1,.7-1.4-.6-1.4-2-.3.7-.9,1.2-1.5,1,0,.4-.2.8-.3,1.2-.3,1.4-.6,3.2,0,4.4ZM110.3,205.1c-.3-.1-.4-.6-.3-1,0,0,0,0,0,0,0,.4,0,.7.2.9,0,0,0,.1,0,.1ZM116.9,200.7c0,0-.1,0,0,0,.2-.5.2-1,.1-1.4,0,0,0-.2,0,0,.1.5,0,1.1-.1,1.6ZM117.3,200.4c0,0,0,.1,0,0,0-.5,0-1,0-1.4,0,0,0,0,0,0,0,.5,0,1,0,1.4Z"/>
      <path class="st7" d="M109,199c.2.4.6.5.9,0,.6-2.5,1.5-4.9,2.5-6.9,0,0,0,0,0,0-.2-.2-.3-.5-.5-.9-.9.6-2.1,1.3-3.3,1.7-.5.5-1.2,1.5-1,2.4.2,1.1,1.3.6,1.8.2.2-.1.2.2,0,.3,0,0,0,0,0,0,0,0,0,0,0,.1-.4.6-.7,1.4-.6,2.2,0,.3,0,.6.2.9ZM108.3,195c0,0,0,0,0,0,0-.5.2-1,.5-1.3,0,0,0,0,0,0-.3.3-.4.8-.4,1.2ZM108.1,194.3c0,0,0,0,0,0,0-.4.2-.7.4-.9,0,0,0,0,0,0-.2.2-.3.5-.4.9Z"/>
      <path class="st7" d="M111.9,199.3c.2,1.2,1.1,1.3,1.6,0,.4-.9.5-2,.4-3,0-.3,0-.7,0-1,0-.2.2-.2.2,0,.2.7.3,1.6.6,2.1.3.4.8.3,1-.3.2-.5,0-1.1,0-1.5,0,0,0,0,0,0-.9-1-1.7-2.1-2.4-3.4,0,0,0,0,0,0-.2,0-.4,0-.5,0-1,2.2-1.9,4.6-2.5,7,.6.2,1.2-.4,1.4-1.3,0-.2,0-.4,0-.6,0,0,0-.1,0-.2,0-.2.2-.2.2,0,0,0,0,0,0,.1,0,0,0,0,0,0,0,0,0,0,0,0,0,0,0,0,0,.1,0,.6-.1,1.3,0,1.8Z"/>
      <path class="st18" d="M109.2,184.3c-1.4.1-2.8.2-4.2.3-.5.8-1.1,1.6-1.4,2.6-1,2.7.3,4.8,1.7,5.5,0,0,0,0,0,0,0,0,.1,0,.1.1.2,0,.4.1.6.1.6,0,1.2,0,1.9-.2-.3-.2-.5-.7-.5-1.3,0-.9.4-1.5.9-1.9-.6-.5-1.4-1.4-1.1-2.6.4-1.3,1.3-1.2,1.9-.8-.1-.5-.2-1.2-.2-1.7Z"/>
      <path class="st7" d="M110.6,184c-.3-.5-.3-.5-.8,0-.1.1-.2.2-.3.3.3,0,.7,0,1,0,0,0,0,0,0-.1Z"/>
      <path class="st7" d="M111,186.3c0-.5-.1-1.1-.2-1.7,0-.2-.1-.4-.2-.5-.3,0-.7,0-1,0-.2.3-.2.4-.1,1,0,.4.1.7.2,1.1,0,.2,0,.4-.2.3-.2-.2-.5-.4-.7-.4-.5-.1-1.3.4-1,1.7.2.6.8,1.1,1.2,1.3.1,0,.1.4,0,.5-.5.1-.9.6-1,1.4,0,.7.1,1.2.7,1.1,0,0,0,0,.1.1,1-.4,2.1-1,3.1-1.6-.1-.4-.2-.9-.3-1.3-.2-1-.4-2.1-.5-3.1Z"/>
      <path class="st18" d="M116.3,195.8c.3.3.6.6.9.9.6.5,1.3,1.1,2.1.5.9-.7,1.2-2.5,1.1-3.8,0-.8-.2-1.6,0-2.4.2-1.1.9-1.8,1-2.9.1-1.6-.7-2.6-1.6-2.8-.8-.2-1.7.1-2.5.7-.2.3-.5.6-.8.9.5-.2,1.1-.2,1.1.5,0,.4-.2.8-.4,1.1-.2.3-.5.6-.8.8.9-.1,2.6.2,2.2,2.2-.3,1.6-1.6,1.9-2.5,1.6.4.5.8,1.3.6,2.1,0,.3-.2.5-.4.7ZM118.3,196.9c0,0,0-.2,0-.2.3,0,.5,0,.8-.1,0,0,0,.1,0,.2-.3.1-.6.2-.8.1ZM118.3,196.6s0-.1,0-.1c.2,0,.4,0,.6-.1,0,0,0,0,0,.1-.2,0-.4,0-.6.1ZM117.3,188.5c0,0,0-.1,0-.1.2,0,.4-.3.5-.6,0,0,.1,0,0,0,0,.4-.3.7-.6.7Z"/>
      <path class="st7" d="M116,195.3c.2.5.5-.1.5-.6,0-.3,0-.5-.2-.7-.2-.5-.5-.9-.8-1.2,0,0,0,0,0,0,0,0,0,0,0,0-.1,0,0-.5.1-.4.7.4,2.2.7,2.7-.9.6-1.8-1.4-2-2.1-1.9,0,0,0,0,0,0,0,0,0,0-.1,0-.1,0-.2-.2,0-.3.4-.5,1-.8,1.3-1.4.3-.5,0-.9-.3-.9-.1,0-.2,0-.4,0-.1,0-.3,0-.4,0-.8.8-1.6,1.4-2.5,1.9.3.6.5,1.2.4,1.8,0,.6-.2,1-.5,1.2.7,1.2,1.5,2.3,2.3,3.2,0,0,.1,0,.1,0Z"/>
      <path class="st23" d="M112.7,190.8s0,0,0,0c0,0,0,0,0,0Z"/>
      <path class="st52" d="M112.9,190.9c0,0-.1,0-.2-.1,0,0,.1,0,.2.1Z"/>
      <path class="st0" d="M112.1,186.3c-.2-.7-.4-1.5-.5-2.2-.2,0-.3,0-.5,0,0,1.2.2,2.4.4,3.5.1.8.3,1.6.5,2.3.1.5.3,1.1.5,1.5.2.4.5.6.8.4.3-.2.5-.6.5-1.2,0,0,0,0,0-.1,0-.9-.7-1.9-.9-2.4-.3-.6-.6-1.2-.8-1.9ZM113.1,190.9c0,0-.1,0-.2,0,.1,0,.2,0,.3,0,0,0,0,.1,0,.1-.2.1-.5,0-.6-.2,0,0,0-.2,0-.1,0,0,0,0,0,0-.1-.1-.2-.2-.2-.4,0,0,0-.2,0,0,.1.3.3.5.5.6,0,0,0,.1,0,.1Z"/>
      <path class="st52" d="M112.5,190.3c0,.4.3.6.6.6,0,0,0-.1,0-.1-.2,0-.4-.2-.5-.6,0,0-.1,0,0,0Z"/>
      <path class="st7" d="M115.6,184.4c-.2,0-.7.8-.9,1-.1.1-.3,0-.2-.2.2-.5.3-1.1.3-1.7-.8.1-1.7.3-2.5.4-.1.6-.2,1.2-.1,1.8.2.7.5,1.3.7,1.9.1.3.3.6.5,1,.3-.2.7-.4,1-.6.5-.6.9-1.2,1.3-2,.2-.4.8-1.7-.1-1.5Z"/>
      <path class="st18" d="M112,184.8c0-.3,0-.6.1-.8,0,0-.2,0-.3,0,0,.3.1.5.2.8Z"/>
      <path class="st18" d="M115.2,183.5c0,.4,0,.8-.2,1.1.5-.6,1.2-1.2,1.4-.1.1.9-.5,2.1-1.2,2.9.7-.6,1.4-1.3,1.9-2.1.5-.6.9-1.5,1.1-2.5-1,.2-2.1.5-3.2.7ZM116.7,185.3c0,0-.1,0,0,0,.1-.4.2-.7.2-1.1,0,0,0,0,0,0,0,.4,0,.8-.2,1.2ZM117.1,185.3c0,0-.1,0,0,0,.2-.3.4-.7.4-1.1,0,0,0,0,0,0,0,.5-.2.9-.4,1.2Z"/>
      <path class="st52" d="M112.6,190.8c.3.5.6.5.8.2,0,0,0-.3,0-.2-.2.2-.5,0-.7-.3,0,0-.1.1,0,.2Z"/>
    </g>
    <g>
      <path class="st17" d="M125.2,249.4c3,.2,5.3-4.1,6.5-8.3.8.3,1.6.7,2.4,1.2-1.7,1-2.8,3.6-3.6,6.1,0,.1,0,.2,0,.2,1.8-.1,3-3.8,3.7-6.2.4.3.9.6,1.3.9,1.4,1.1,2.6,2.7,3.7,4.5,0,.1.2,0,.1-.2-1.1-2.7-3-4.4-5-5.6,1-2.8-.4-5.4-.9-7.8,0-.2-.2,0-.2,0-.4,2.5-.2,5.3.6,7.3-.6-.3-1.2-.6-1.8-.9.5-1.9.1-3.7-.5-5.1-.4-.9-.9-1.7-1.3-2.7-.4-.9-.7-2-1-3.1,0-.2-.2-.1-.2,0-.3,4.2.9,7.9,2.6,10.6,0,0,0,0,0,0,0,0,0,0,0,0-.9-.4-1.8-.7-2.7-1,0,0,0,0,0,0,0,0,0,0,0,0-.2-1.4-.4-2.8-.6-4.2-.2-1.3-.4-2.7-.7-3.9-.7-2.5-2-4-2.9-6.2,0-.2-.2,0-.2.2,0,5.7,1.4,10.9,4.1,14.1-.7-.3-1.5-.5-2.2-.8-.6-.2-1.1-.4-1.7-.5.6-2.3-.2-4.4-.9-5.9-1.1-2.1-1.9-4.3-2.5-6.9,0-.2-.2-.1-.2,0-.2,2.4,0,4.8.5,6.8.6,2.2,1.7,4,2.7,5.8-1-.3-2-.7-2.9-1.4v.2c.7.7,1.6,1.1,2.5,1.5-3,.1-6,1.1-9,2.9-.1,0,0,.3,0,.3,2,.4,4.1.6,6.2,0,.8-.2,1.7-.6,2.4-1.2.3-.3,1.2-1,1.1-1.7,0,0,0,0,0,0,0,0,0,0,0,0,.3.1.6.2,1,.3.8.3,1.6.6,2.4.9-3.5,1.2-6,7.5-9.6,7.4-.1,0-.2.3,0,.3,3.7,1.7,7.9-2.1,10.2-7.6.8.3,1.6.6,2.3.9.1,0,.3.1.4.2-1.1,1-2.2,2-3,3.5-1,1.6-1.8,3.6-3,4.6-.1,0,0,.3,0,.4ZM128.2,239.9c-2.1,4.9-5.7,8.4-9.1,7.5,3.3-.7,5.8-6.4,9.1-7.5ZM125.6,249c.9-.9,1.6-2.2,2.3-3.5,1-1.9,2.2-3.2,3.6-4.5-1.1,3.9-3.1,7.8-5.8,8ZM134,242.5c-.7,2.1-1.7,5.3-3.3,5.7.8-2.3,1.7-4.6,3.3-5.7ZM119.9,241.3c-1.6.2-3.1.1-4.6-.2,3-1.7,6.1-2.6,9.1-2.6,0,.9-1.9,2-2.2,2.2-.7.4-1.5.5-2.3.6ZM134.3,241.9s0,0,0,0c-.7-2.1-1.1-4.3-.8-6.9.6,2.2,1.6,4.3.9,7ZM130.7,234.7c.8,1.6,1.6,3.5,1.1,5.8-1.6-2.5-2.8-5.8-2.7-9.7.4,1.4.9,2.7,1.5,3.9ZM124.4,238s0,0,0,0c-.9-1.8-2-3.6-2.7-5.8-.6-1.8-.8-3.9-.7-6.1.5,1.9,1.1,3.6,1.8,5.2.9,1.9,2.1,3.9,1.6,6.7ZM127.3,231.6c.6,2.4.9,5.1,1.4,7.6-2.5-3.1-4-7.9-4.1-13.4.9,1.9,2.1,3.4,2.7,5.7Z"/>
      <path class="st36" d="M119.1,247.4c3.4.9,7-2.6,9.1-7.5-3.3,1.1-5.8,6.8-9.1,7.5ZM125.6,244s0,0,0-.1c.2-.3.4-.6.6-1,0,0,.1,0,0,0-.1.5-.4.8-.6,1.1ZM125.2,243.8s0,0,0-.1c.2-.2.4-.5.6-.8,0,0,.1,0,0,0-.2.3-.4.6-.6.8Z"/>
      <path class="st36" d="M127.9,245.5c-.7,1.3-1.4,2.6-2.3,3.5,2.7-.2,4.8-4.1,5.8-8-1.3,1.3-2.5,2.6-3.6,4.5ZM127.8,246.7c0,0,0,0,0,0,.2-.3.5-.7.7-1,0,0,0,0,0,0-.2.3-.4.7-.7,1ZM128,245.9c0,0,0,0,0,0,.1-.3.3-.6.5-.8,0,0,0,0,0,0-.2.2-.4.5-.5.8Z"/>
      <path d="M127.7,246.6c0,0,0,.1,0,0,.2-.3.5-.6.7-1,0,0,0-.1,0,0-.2.3-.5.6-.7,1Z"/>
      <path d="M127.9,245.8c0,0,0,.1,0,0,.1-.3.3-.6.5-.8,0,0,0-.1,0,0-.2.2-.4.5-.5.8Z"/>
      <path class="st36" d="M130.8,248.2c1.5-.3,2.6-3.5,3.3-5.7-1.5,1.1-2.5,3.4-3.3,5.7ZM132.4,246c0,0,0,0,0,0,.1-.3.3-.5.4-.8,0,0,0,0,0,0-.1.3-.2.5-.4.8ZM132.2,246c0,0,0,0,0,0,0-.2.2-.4.3-.6,0,0,0,0,0,0,0,.2-.2.4-.3.6Z"/>
      <path d="M132.4,246c0,0,0,.1,0,0,.1-.3.3-.5.4-.8,0,0,0,0,0,0-.1.3-.3.5-.4.8Z"/>
      <path d="M132.1,246c0,0,0,.1,0,0,.1-.2.2-.4.3-.6,0,0,0-.1,0,0-.1.2-.2.4-.3.6Z"/>
      <path d="M125.6,243.9c0,0,0,.2,0,.1.3-.3.5-.6.6-1.1,0,0,0-.1,0,0-.1.4-.3.8-.6,1Z"/>
      <path d="M125.2,243.7s0,.2,0,.1c.2-.2.4-.5.6-.8,0,0,0-.2,0,0-.2.3-.4.6-.6.8Z"/>
      <path class="st17" d="M115.3,241.1c1.5.3,3.1.3,4.6.2.8,0,1.5-.3,2.3-.6.3-.2,2.2-1.3,2.2-2.2-3,0-6.1.9-9.1,2.6ZM121.1,240.6s0,0,0-.1c.3,0,.5-.2.8-.2,0,0,0,0,0,.1-.3,0-.5.2-.8.2ZM120.6,240.5c0,0,0,0,0-.1.2-.1.4-.2.7-.3,0,0,0,0,0,.1-.2.1-.4.2-.7.3Z"/>
      <path class="st36" d="M134.2,241.9s0,0,0,0c.7-2.6-.3-4.8-.9-7-.3,2.6,0,4.9.8,6.9Z"/>
      <path class="st17" d="M121.1,240.4s0,.1,0,.1c.3,0,.5-.1.8-.2,0,0,0-.1,0-.1-.3,0-.5.1-.8.2Z"/>
      <path class="st17" d="M120.6,240.3c0,0,0,.2,0,.1.2,0,.4-.2.7-.3,0,0,0-.1,0-.1-.2,0-.4.2-.7.3Z"/>
      <path class="st36" d="M131.9,240.5c.4-2.3-.4-4.2-1.1-5.8-.6-1.2-1.1-2.5-1.5-3.9,0,3.9,1.1,7.2,2.7,9.7ZM131.5,238.3c0,0,0,.1,0,0,0-.4-.1-.9-.2-1.3,0,0,0-.1,0,0,0,.4.1.9.2,1.3ZM131.7,237.6c0,0,0,.1,0,0,0-.4-.1-.8-.3-1,0,0,0-.1,0,0,.2.2.4.6.4,1.1Z"/>
      <path class="st17" d="M124.4,238s0,0,0,0c.6-2.8-.7-4.8-1.6-6.7-.8-1.6-1.4-3.3-1.8-5.2-.1,2.2,0,4.3.7,6.1.7,2.2,1.8,3.9,2.7,5.8ZM123.1,234.4c0,0,0,.1,0,0-.2-.3-.3-.7-.4-1,0,0,0-.1,0,0,.2.3.3.7.5,1ZM122.7,234s0,0,0,0c0-.3-.2-.6-.3-.9,0,0,0,0,0,0,0,.3.2.6.3.9Z"/>
      <path d="M131.4,238.4c0,0,0,0,0,0,0-.4-.1-.9-.2-1.3,0,0,0,0,0,0,0,.4.1.9.2,1.3Z"/>
      <path d="M131.6,237.6c0,0,0,0,0,0,0-.5-.1-.8-.4-1.1,0,0,0,0,0,0,.2.2.3.6.3,1Z"/>
      <path d="M121.1,236.8c0,0,.1,0,0,0v-.2s0,0,0,0c0,0,0,0,0-.1,0,0,0,0-.1,0-.7-2.1-1.5-4.4-2.6-5.9-1.2-1.7-2.7-2.6-3.8-4.3,0-.1-.2,0-.2.2.7,5.5,3.6,8.6,6.7,10.5,0,0,0,0,0,.1ZM118,230.3c1.2,1.5,2,3.8,2.8,5.8-2.7-1.9-5.4-4.6-6.1-9.5,1,1.4,2.3,2.3,3.3,3.6Z"/>
      <path class="st17" d="M128.7,239.2c-.5-2.5-.7-5.2-1.4-7.6-.6-2.3-1.8-3.8-2.7-5.7,0,5.4,1.6,10.3,4.1,13.4ZM125.8,231.2c0,0,0,.1,0,0-.2-.4-.3-.9-.3-1.4,0,0,0-.1,0,0,0,.5.1,1,.3,1.4ZM125.4,231c0,0,0,.2,0,0,0-.3-.1-.7-.2-1,0,0,0-.1,0,0,0,.3.1.7.2,1Z"/>
      <path class="st17" d="M123.1,234.5c0,0,0,0,0,0-.1-.4-.3-.7-.5-1,0,0,0,0,0,0,.1.3.3.7.4,1Z"/>
      <path d="M119.3,233.9c0,0,.1,0,0,0-.2-.6-.4-1.1-.6-1.6,0,0-.1,0,0,.1.2.5.5,1,.6,1.6Z"/>
      <path class="st17" d="M122.7,234.1s0,0,0,0c0-.3-.2-.6-.3-.9,0,0,0,0,0,0,0,.3.2.6.3.9Z"/>
      <path class="st17" d="M120.8,236.1c-.9-2-1.6-4.3-2.8-5.8-1.1-1.3-2.3-2.2-3.3-3.6.7,4.8,3.4,7.6,6.1,9.5ZM119.3,233.8c0,0,0,.1,0,0-.2-.6-.4-1.1-.6-1.6,0,0,0-.2,0-.1.3.5.5,1,.6,1.6ZM119.2,232.7c0,0,0,.2,0,0-.1-.3-.2-.6-.4-.9,0,0,0-.2,0-.1.2.3.4.6.4.9Z"/>
      <path class="st56" d="M119.1,232.8c0,0,.1,0,0,0,0-.4-.3-.7-.4-.9,0,0,0,0,0,.1.2.3.3.6.4.9Z"/>
      <path class="st17" d="M125.8,231.3c0,0,0,0,0,0-.2-.4-.3-.9-.3-1.4,0,0,0,0,0,0,0,.5.1,1,.3,1.4Z"/>
      <path class="st17" d="M125.3,231.1c0,0,0,0,0,0,0-.3-.1-.7-.2-1,0,0,0,0,0,0,0,.3,0,.7.2,1Z"/>
    </g>
    <g>
      <path class="st18" d="M138.3,237.5c-.7.3-1.2,1-1.7,1.9-.2.4-.5.9-.8,1-.5.2-.9-.2-1.3-.2-.7,0-1.5.5-1.9,1.5-.4.9-.5,2-.3,2.9.1.5.4.8.6,1.2,1.2.8,2.3,2.1,3.2,3.6-.5-1.4-.9-2.9-1.2-4.5,0-.2.1-.3.2-.2.3.9.6,1.6,1,2.4,0-.8-.1-1.5-.1-2.4,0-.1.1-.2.2,0,.2.8.5,1.6.7,2.4,0-.6.2-1.3.3-1.9,0-.1.1-.1.2,0,.2.5.3,1.2.2,1.8.5-1,1.1-2,1.5-3,0-.1.2,0,.2,0,0,.9-.2,1.8-.5,2.6,0-.1.2-.2.3-.4.8-1.2,1.6-2.6,2.2-4,0,0,0,0,0,0,0-.4-.3-.7-.3-1.2,0-.2,0-.5.2-.6,0,0,0,0,0-.1-.2-1.9-1.4-3.1-2.7-2.6ZM139.3,238s0-.1,0-.1c.2,0,.5.2.6.4,0,0,0,.1,0,0-.2-.2-.4-.3-.6-.3ZM138.8,238.4c0,0,0-.2,0-.2.2,0,.5.2.7.3,0,0,0,.1,0,.1-.3,0-.5-.2-.7-.3ZM132.9,241.5c0,0,.1,0,0,0-.2.4-.2.8,0,1.2,0,0,0,.1,0,0-.1-.4,0-.9.1-1.3ZM132.5,242.2c0,0,0,0,0,0-.1.4-.1.8,0,1.2,0,0,0,.1,0,0,0-.4,0-.8,0-1.3Z"/>
      <path class="st18" d="M139.3,237.9s0,.1,0,.1c.2,0,.4.2.6.3,0,0,0,0,0,0-.2-.2-.4-.4-.6-.4Z"/>
      <path class="st18" d="M138.9,238.2c0,0,0,.1,0,.2.2.1.5.2.7.3,0,0,0-.1,0-.1-.2-.1-.5-.2-.7-.3Z"/>
      <path d="M132.9,241.5c0,0,0-.1,0,0-.2.4-.2.9-.1,1.3,0,0,.1,0,0,0-.1-.4,0-.8,0-1.2Z"/>
      <path class="st29" d="M142.5,237.7c-.2,0-.3.5-.3.8,0,.2,0,.4,0,.5,0,0,0,0,0,0,0,0,0,0,0,0,.1-.1.3-.3.3-.6,0-.2.1-.7,0-.6Z"/>
      <path d="M132.6,242.3c0,0,0,0,0,0-.1.4-.2.9,0,1.3,0,0,0,0,0,0,0-.4,0-.8,0-1.2Z"/>
      <path class="st29" d="M142,238.5c0-.2-.2-.1-.3,0,0,.2,0,.4,0,.6,0,.2,0,.5.2.7,0-.2.1-.4.2-.6,0-.2,0-.4,0-.6,0,0,0,0,0,0Z"/>
      <path class="st29" d="M141.6,239.5c0,0-.1,0-.1,0,0,0-.1.1-.1.2,0,0,0,.2,0,.2,0,.1,0,.2,0,.3,0,.3.1.5.3.6,0-.3.2-.5.3-.8,0-.2-.2-.3-.2-.6Z"/>
      <path class="st29" d="M142.6,239.1c-.1,0-.2.2-.3.3,0,.2,0,.4,0,.5.2,0,.5,0,.6-.4,0-.3,0-.4-.2-.4Z"/>
      <path class="st29" d="M142.5,240.1c-.1,0-.3,0-.4,0,0,.2,0,.4-.1.5.2,0,.5,0,.7-.4,0,0-.1,0-.2-.1Z"/>
      <path class="st29" d="M141.1,240.4c-.4.3,0,1,0,1.4,0-.2.2-.5.3-.8,0,0,0,0,0,0-.2-.1-.3-.4-.3-.6Z"/>
      <path class="st18" d="M132.5,246c-.8-.5-1.9-.7-2.8,0-1,.8-1.3,2.3-1,3.7.2.9.6,1.8.7,2.8,0,1.2-.3,2.6,0,3.8.3,1.2,1.2,1.5,2,1.3.8-.2,1.6-1,2.3-1.7.2-.3.3-.7.5-1,.4-.9.9-1.8,1.4-2.7-1.1,1.3-2.3,2.1-3.6,2.3,0,0,0-.2,0-.3.8-.6,1.5-1.3,2.3-1.9-.5.3-1.1.4-1.6.3,0,0,0-.2,0-.2.6-.4,1.1-.8,1.7-1.1-.5,0-1,0-1.5,0,0,0,0-.1,0-.2.6-.7,1.3-1,1.9-.9-.6-.5-1.2-.8-1.8-.9,0,0,0-.2,0-.3,1-.3,2-.3,2.8.4-.8-1.2-1.6-2.3-2.5-3,0,0,0,.2-.1.1,0-.1-.1-.2-.2-.3-.1,0-.2-.1-.3-.2ZM129.4,247.4c0-.5.3-1,.6-1.1,0,0,0,.1,0,.1-.3.2-.5.5-.5,1,0,0,0,0,0,0ZM129.7,247c.2-.3.4-.6.6-.6,0,0,0,0,0,.1-.2.2-.4.3-.6.6,0,0,0,0,0,0Z"/>
      <path d="M130,246.2c-.3.1-.6.6-.6,1.1,0,0,0,0,0,0,0-.5.3-.8.5-1,0,0,0-.2,0-.1Z"/>
      <path class="st29" d="M142.3,240.9c-.1,0-.3,0-.4,0,0,.2,0,.3-.1.5.1.2.3.3.5.2,0,0,.2-.1.2-.3,0,0,0-.1,0-.2,0,0,0,0,0,0,0,0,0-.1-.2-.1,0,0,0,0,0,0Z"/>
      <path d="M130.3,246.3c-.2,0-.4.4-.6.6,0,0,0,0,0,0,.2-.3.4-.4.6-.6,0,0,0-.1,0-.1Z"/>
      <path class="st29" d="M141.8,241.6c0,.2-.1.4-.2.6.1.1.3.3.5.2s.2-.3.3-.5c-.2,0-.4-.1-.6-.3Z"/>
      <path class="st18" d="M142.8,241.2c0,.1,0,.3,0,.4,0,0,0,.2-.1.2,0,.2,0,.6-.2.8-.3.3-.5,0-.7-.1-.5,1.6-1.1,3.2-1.8,4.6.3-.2.6-.2.8-.2,0,0,0,.2,0,.2-.4.4-.9.9-1.3,1.3.4-.3.9-.4,1.3-.2,0,0,0,.2,0,.2-.6.4-1.1.8-1.6,1.3.6.2,1.2.2,1.8-.2,0,0,.1.1,0,.2-.5.7-1.1,1.3-1.8,1.5.8.3,1.6.5,2.4.4,0,0,0,0,0,0,0,0,0,0,.1,0,0,0,.1,0,0,.2-.7.8-1.7.8-2.4.7,0,0-.1,0-.2,0,.8.5,1.5,1,2.3,1.5.7.4,1.5.9,2.3.5.9-.4,1.5-1.8,1.2-3.1-.4-1.4-1.5-2.1-1.2-4.1.2-1.3.8-2.4.7-3.9,0-1.4-.8-2.4-1.7-2.2ZM143.5,241.9c0,0,0-.2,0-.1.3.1.5.4.6.8,0,0,0,.1,0,0-.1-.4-.3-.6-.6-.7ZM142.8,253.6s0-.2,0-.1c.2.2.4.2.6.1,0,0,0,.1,0,.1-.2.1-.4,0-.6-.1ZM142.7,254.1s0-.1,0-.1c.2,0,.4,0,.6,0,0,0,0,0,0,.1-.2.1-.5.2-.7,0Z"/>
      <path class="st0" d="M141.9,240.2c-.5,1.7-1.2,3.4-2.1,4.8-.5.9-1.1,1.7-1.7,2.4-.6.7-1.5,1.4-1.9,2.4,0,0,0,0,0,0,0,0,0,0,0,0,0,0,0,.2,0,.2,0,.1,0,.2,0,.3.6,2.1,3.6-3.9,4-4.9.8-1.7,1.3-3.6,1.8-5.5Z"/>
      <path class="st18" d="M143.6,241.8c0,0,0,.1,0,.1.2.1.4.4.6.7,0,0,0,0,0,0-.1-.4-.3-.7-.6-.8Z"/>
      <path class="st52" d="M137.3,246.2c0-.2,0-.5-.1-.7-.1.6-.2,1.1-.4,1.7,0,0,0,0,0,0,0,0,0,0,0,0,0,.2-.1.3-.2.1-.3-.7-.5-1.4-.7-2.1,0,.7,0,1.3,0,2v.2c.2.1,0,.3,0,.2-.3-.5-.6-1-.9-1.7.3,1.2.6,2.4,1,3.5.2-.4.4-.8.7-1.1.4-.4.8-.8,1.1-1.3.5-.8.8-1.8,1-2.8-.5,1-1,2-1.6,3,0,0,0,0,0,0,0,0,0,0,0,0,0,0,0,0,0,0,0,0-.1,0,0-.1,0,0,0,0,0,0,0-.4.1-.7,0-1.1Z"/>
      <path class="st52" d="M136,250.1c-.8-.7-1.7-1-2.6-.9.6.2,1.1.5,1.6,1,0,0,0,.1,0,.2,0,0,0,.1,0,0-.6-.2-1.2,0-1.8.5.5,0,1,0,1.4.1,0,0,0,0,0,0h0c0,0,0,.1,0,.2-.5.4-1.1.7-1.6,1.1.6,0,1.2-.2,1.8-.6,0,0,0,0,0,.1,0,0,0,0,0,0,0,0,0,0,0,.1-.7.7-1.5,1.3-2.3,2,1.3-.4,2.4-1.3,3.5-2.7,0,0,0-.1.1-.2,0,0,0,0,0-.1,0,0,0,0,0,0,0,0,0,0,0-.1,0,0,0-.2,0-.3,0,0,0-.1,0-.1,0-.1,0-.3,0-.4Z"/>
      <path class="st52" d="M140.3,247.1c-.3,0-.6.2-.8.4,0,0,0,0,0,0-.3.5-1.4,2.6-2.4,3.5.5.3,1,.7,1.5,1,.9.3,1.9.3,2.7-.2-.9,0-1.8,0-2.6-.5,0,0,0-.2,0-.2,0,0,0,0,0,0,.6-.2,1.1-.6,1.6-1.2-.5.2-1.1.3-1.6,0,0,0,0,0,0,0,0,0,0,0,0,0,0,0,0,0,0,0,.5-.6,1-1.1,1.6-1.5-.4,0-.8,0-1.2.4,0,0-.1-.1,0-.2,0,0,0,0,0,0,0,0,0,0,0-.1.4-.5.9-.9,1.3-1.4Z"/>
      <path class="st52" d="M136.9,251.2s0,0,0,0c-.2.1-.4.2-.5.2-.5,1.3-.8,2.5-.6,3.9.1-.5.3-1,.4-1.4,0,0,0,0,0,0,0,0,.1,0,.1,0,0,.5,0,1,.1,1.6.2-.5.2-1.2.3-1.7,0,0,0,0,0,0h0c0,0,0-.1,0-.2,0-.1,0-.2.1-.1.2.5.4,1.1.6,1.7,0-.7-.1-1.3-.2-2,0,0,0,0,0,0,0,0,0,0,0,0,0,0,0-.2,0-.2.6.4,1.1,1,1.4,1.9-.3-1.2-.8-2.2-1.5-3,0,0-.1,0-.2-.1,0,0,0,0,0,0,0,0,0,0,0,0Z"/>
      <path class="st18" d="M138.2,252.1c-.1,0-.3-.1-.4-.2.7.9,1.2,2.2,1.3,3.7,0,.2-.1.3-.2.1-.4-1.3-.9-2-1.6-2.8.2.8.3,1.7.3,2.6,0,.2-.1.2-.2.1-.2-.7-.5-1.4-.7-2.2h0s0,0,0,0c0,.4,0,.7,0,1.1,0,.4-.1.7-.2,1.1,0,.1-.2.2-.2,0,0-.6-.1-1.1-.1-1.7-.1.5-.2,1-.4,1.6,0,.1-.1.1-.2,0-.2-1-.2-2.4.2-3.5-.5.9-.9,1.7-1.3,2.6-.1.2-.2.4-.3.7,0,0,0,0,0,.1,0,0,0,0,0,.1-.4.9-.8,1.7-1,2.7-.4,1.6-.1,3,.8,3.5.9.5,1.7-.3,2.5-1,.6-.4,1.1-.6,1.7-.4.8.3,1.5.5,2.3-.6,1.5-2,1-5-.2-6.5-.2-.1-.4-.3-.6-.4-.5-.3-1-.7-1.4-1ZM133.5,259.5c0,0,0-.1,0,0,0,.4,0,.7.2,1,0,0,0,.1,0,0-.1-.3-.2-.6-.3-1ZM133.3,260.2c0,0,0,0,0,0,0,.4.2.7.4.9,0,0,0,.1,0,0-.2-.2-.4-.5-.4-.9Z"/>
      <path class="st18" d="M142.9,253.5s0,0,0,.1c.2.2.4.2.6.1,0,0,0-.2,0-.1-.2,0-.4,0-.6-.1Z"/>
      <path class="st18" d="M142.8,254s0,0,0,.1c.2.1.4,0,.7,0,0,0,0-.1,0-.1-.2,0-.4.1-.6,0Z"/>
      <path class="st18" d="M133.6,259.5c0,0,0,0,0,0,0,.4.1.7.3,1,0,0,0,0,0,0-.1-.3-.2-.6-.2-1Z"/>
      <path class="st18" d="M133.4,260.1c0,0,0,0,0,0,0,.4.2.7.4.9,0,0,0,0,0,0-.2-.2-.3-.5-.4-.9Z"/>
      <path class="st18" d="M134.9,258.8c-.2.3-.3.7-.2,1,0,0,0,0,0,0,0-.3,0-.7.2-.9,0,0,0-.2,0,0Z"/>
      <path class="st18" d="M139.6,258.8c0,.1.1,0,.1,0,0-.5,0-1-.1-1.4,0,0,0,0,0,0,0,.5.1.9.1,1.4Z"/>
    </g>
    <g>
      <path class="st18" d="M134.9,243.1c-.2,1.7-1.5,2.2-2.3,1.9-1.6-.5-2.9-2.5-4.2-4,0,0,0,0,0,0,0,0,0-.1,0-.2,0,0,0,0,.1,0,0,0,0,0,0,0,.7-.2,1.4-.1,2,.3,0,0,.1-.1,0-.2-.6-.5-1.3-.6-2.1-.3,0,0,0,0,0,0,0,0,0,0,0,0,.9-.7,1.8-1,2.8-.8,0,0,.1-.2,0-.2-.9-.3-2,0-2.9.8,0,0,0,0,0,0,0,0,0,0,0,0,.5-.8.9-1.5,1.3-2.3.4-.6.9-1.1,1.3-1.6,0,.1-.1.3-.2.4,0,0,0,0,0,0,.1-.4.4-.6.6-.8,0,0,0,0,0-.1.2-.1.3-.2.5-.3.8-.5,1.9-.8,2.5,0,.3.4.5,1.1.4,1.8-.2,1-.8,1.6-1.3,2.1,0,0-.1.2,0,.3.6.7,1.5,1.6,1.3,3.1ZM134.2,244.1c.2-.3.4-.7.4-1.1,0,0,0,0,0,0,0,.4-.2.7-.4,1.1,0,0,0,.1,0,0ZM134.2,243.4c0,0,0,0,0,0,0-.3,0-.6,0-.9,0,0,0,0,0,0,0,.3,0,.5,0,.8ZM131.9,236.4s0-.1,0-.1c-.2,0-.4.2-.6.5,0,0,0,.1,0,0,.1-.2.3-.4.5-.4Z"/>
      <path class="st18" d="M132,248.6c0,.8-.4,2-1,2.1-.5.1-.9-.4-1.3-.8,0,0-.2,0-.2.2.1,1.2-.7,2.4-1.5,2.3-.9,0-1.4-1.4-1.4-2.7-.2-2.5.5-5.5,1.2-7.9,0,0,0,0,0,0,0,0,0,0,0,0,0,1.2,0,2.4.5,3.3,0,0,.1,0,0-.1-.4-.9-.6-2-.5-3.2,0,0,0,0,0,0,0,0,0,0,0,0,.2.7.6,1.3,1,1.7,0,0,.1,0,0-.1-.4-.5-.7-1-1-1.7,0,0,0,0,0,0,0,0,0,0,0,0,0,0,0-.2,0-.2,0,0,0,0,0,0,0,0,0,0,0-.1,0,0,0,0,0,0,.8,1.1,1.7,2.2,2.7,3.1.2.1.3.3.5.4h0s0,0,0,0c0,0,0,0,0,0,.1.6.4,1,.5,1.6.1.7.2,1.5,0,2.3ZM131.4,246.2c0,0,0,0,0,0-.1-.4-.3-.6-.5-.8,0,0,0,0,0,.1.2.2.4.4.5.8ZM131.2,245.4s0,0,0,0c0-.3-.3-.5-.5-.5,0,0,0,0,0,0,.2,0,.3.2.4.5ZM128.2,251.3s0,0,0-.1c-.2,0-.3,0-.4-.2,0,0,0,0,0,0,.1.2.3.2.4.2ZM127.9,251.6s0-.1,0-.1c-.2,0-.4,0-.5-.4,0,0,0,0,0,0,.1.3.3.5.6.4Z"/>
      <path class="st18" d="M131.9,231.4c.7.9,0,2.6-.6,3.5-1,1.8-2,3.5-3,5.3,0,0,0,0,0,0,0,0,0,0,0,0,.4-1.4.8-2.7,1.3-4,0,0,0-.2,0,0-.5,1.2-1,2.5-1.3,3.9,0-1.2,0-2.4.3-3.6,0-.1,0-.1-.1,0-.3,1.1-.4,2.2-.3,3.2-.1-1-.3-1.9-.6-2.8,0,0,0,0,0,0-.3-1.4-.3-3.3.1-4.9.2-1,.8-2.6,1.5-1.9.4.4.6,1.4.8,2,0,0,0,0,.1,0,.6-.7,1.4-1.2,1.9-.5ZM131.9,232.8c0-.3,0-.6,0-.9,0,0,0,0,0,0,0,.2.1.5,0,.7,0,0,0,0,0,0ZM127.9,232.3c0,0,0,0,0,0,0-.4.2-.8.3-1.2,0,0,0-.1,0,0-.1.4-.2.8-.3,1.2ZM127.6,232.8c0,0,0,0,0,0,0-.4,0-.8.1-1.2,0,0,0,0,0,0-.1.4-.2.8-.1,1.2Z"/>
      <path class="st18" d="M126.5,247.9s0,0,0,0c-.4,1.3-.9,3-1.9,2.4-.8-.5-1.3-2.2-.8-3.6,0-.1,0-.2,0-.2-.4,0-1,.1-1.2-.6-.1-.5,0-1.1.2-1.6.3-.8.7-1.4,1.2-1.9.8-.5,1.7-.9,2.5-.9.4,0,.9.2,1.3.1-1,.4-2,1.4-2.7,2.7,0,0,0,.2,0,0,.8-1.3,1.7-2.2,2.7-2.6,0,0,0,0,0,.1,0,0,0,0,0,0-.6.7-1.1,1.6-1.3,2.7,0,.1,0,.2,0,0,.4-1,.7-1.8,1.3-2.6,0,0,0,0,0,0-.5,1.7-.8,3.4-1,5.1,0,.2,0,.5,0,.7ZM123.2,244.5s0-.1,0,0c-.2.1-.3.5-.4.8,0,0,0,0,0,0,0-.3.1-.6.3-.7ZM122.6,245.6c0,0,0,0,0,0,0-.4.1-.7.3-1,0,0,0-.1,0,0-.2.3-.3.7-.3,1.1Z"/>
      <path class="st0" d="M128.1,241.3s0,0,0,0c-.7.5-1.5,0-2.2,0-.7.1-1.5.5-2.2.9-.8.5-1.5,1.2-2.2,2-.4.4-.8.8-1.1,1.3,0,0,0,0,0,0-.2.2-.4.5-.6.7,1-1.8,2.2-3.4,3.5-4.6.7-.6,1.5-1.1,2.3-1.4.4-.2,1.8-.7,2.3-.3,0,0,0,.2,0,.2,0,0,.1,0,.1,0,0,0,0,0,0,0,0,0,0,.2.1.3,0,0,0,0,0,0,0,0,0,.1,0,.1,0,0,0,0,0,0,0,.1,0,.3,0,.4,0,0,0,0,0,.1ZM128,240.8s0,0,0,0c-.1-.2-.3-.4-.5-.4,0,0,0,.1,0,.1.2,0,.3.2.5.4Z"/>
      <path class="st18" d="M127.8,239.7s0,0,0,.1c-.2-.1-.5-.1-.7-.1-1,.1-2,.5-2.9,1.1-.1,0-.2.2-.4.3,0,0,0,0,0,0-.7-.2-1.8-.5-1.7-2.1.2-1.5,1.2-2.1,2-2.4,0,0,.1-.2,0-.3-.3-.9-.8-3.1.4-3.4.8-.2,1.5.8,1.9,1.7.7,1.5,1,3.2,1.3,4.9-.6-1.2-1.4-2.4-2.2-3.2,0,0,0,0,0,.1.7,1,1.5,2.1,2.2,3.2-.7-.5-1.5-.9-2.3-1.1,0,0-.1.2,0,.2.8.3,1.5.7,2.3,1.1,0,0,0,0,0,0ZM126.6,235.8s0,0,0,0c-.1-.3-.3-.6-.5-.7,0,0,0,0,0,0,.2.2.4.4.5.7ZM126.6,235.4c0,0,0,0,0,0,0-.4-.3-.6-.5-.7,0,0,0,0,0,0,.2.1.4.4.5.7Z"/>
      <path class="st29" d="M120.9,246.2c0,.2-.2.5-.3.3,0-.1,0-.3,0-.4,0,0,0-.2,0-.2.1-.1.2-.2.3-.4,0,.2.2.4.1.7Z"/>
      <path class="st29" d="M120.3,246c0,.3.2.7,0,1.1-.1.2-.3.3-.4.1,0-.2,0-.5,0-.7,0,0,0-.2,0-.2,0,0,.2-.2.3-.3Z"/>
      <path class="st29" d="M119.8,247.3c0,.2,0,.4-.2.5-.2.2-.2-.3-.2-.5,0-.1,0-.3,0-.4,0,0,0,0,0,0,0,0,.2-.2.3-.3,0,0,0,.1,0,.2,0,.2,0,.4,0,.5Z"/>
      <path class="st29" d="M120.4,244.9h0c-.1.2-.3.4-.4.7,0,0,0,0,0,0,0-.2-.2-.3-.4-.3,0,0-.1-.2,0-.3,0-.2.2-.4.4-.3.2,0,.3.2.4.4,0,0,0,0,0,0Z"/>
      <path class="st29" d="M120,245.7s0,0,0,0c-.1.2-.2.5-.4.7,0,0,0,0,0,0,0,0,0,0,0,0,0,0,0,0,0,0,0,0,0,0,0,0-.1-.2-.3-.3-.5-.4,0,0,0,0,0-.1,0-.2,0-.2.1-.3.2-.1.4,0,.6,0,0,0,.1.1.2.2,0,0,0,0,0,0Z"/>
      <path class="st29" d="M119.4,247c0,.3-.1.6-.3.8,0,.1-.2.3-.3.4-.2.2-.4,0-.3-.3.1-.5.5-.8.8-1,0,0,0,0,0,0,0,0,0,0,0,0,0,0,0,.1,0,.1Z"/>
      <path class="st29" d="M119.4,246.4s0,0,.1.1c0,0,0,.1,0,.2,0,0-.1,0-.2,0-.2,0-.5.2-.6,0-.2-.3.2-.6.4-.6,0,0,0,0,0,0,.1.2.3.2.4.2Z"/>
    </g>
    <g>
      <path class="st18" d="M160,234.4c-.6,2.5.9,3.8,2.2,3.9,2.5.2,5.2-1.8,7.7-3.2,0,0,0,0,.1,0,0-.1,0-.2,0-.3,0,0-.1,0-.2,0,0,0,0,0,0,0-.9-.7-1.8-1-2.9-.7-.1,0,0-.2,0-.3,1.1-.4,2.1,0,2.9.8,0,0,0,0,0,0,0,0,0,0,0,0-.9-1.5-2-2.4-3.4-2.6,0,0,0-.3,0-.3,1.4,0,2.7,1.1,3.5,2.8,0,0,0,0,0,0,0,0,0,0,0,0-.2-1.3-.5-2.6-.7-3.9-.3-1.1-.6-2-1-2.9,0,.2,0,.5,0,.7,0,0,0,.1,0,0,0-.6-.2-1.1-.5-1.4,0,0,0-.1,0-.2-.2-.3-.3-.5-.5-.8-.9-1.1-2.1-2.2-3.4-1.5-.6.3-1.3,1.2-1.5,2.3-.2,1.4.3,2.7.8,3.6,0,.1,0,.4,0,.4-1.2.6-2.8,1.3-3.3,3.5ZM160.4,236.2c-.1-.5-.2-1.1,0-1.7,0,0,.1,0,0,0,0,.6,0,1.1,0,1.7,0,0,0,.1,0,0ZM160.7,235.2c0,0,0,0,0,0,0-.4.2-.8.4-1.2,0,0,0,0,0,0-.2.3-.3.7-.3,1.1ZM167.4,226.9c0,0,0-.2,0-.1.3.2.5.5.6,1,0,0,0,.1,0,0,0-.4-.3-.7-.5-.9Z"/>
      <path class="st18" d="M161.2,243.6c-.3,1.2-.5,2.9.3,3.5.6.5,1.5,0,2.1-.4.1,0,.2.1.2.3-.8,1.6-.2,3.7.9,4,1.3.4,2.5-1.2,3.3-2.9,1.5-3.3,2-7.8,2.2-11.5,0,0,0,0,0-.1,0,0,0,0,0,0-.5,1.7-1.3,3.2-2.3,4.2,0,0-.2-.1,0-.2,1-1,1.7-2.4,2.3-4.1,0,0,0,0,0,0,0,0,0,0,0,0-.6.9-1.4,1.5-2.2,1.8,0,0-.1-.2,0-.2.8-.4,1.5-.9,2.2-1.7,0,0,0,0,0,0,0,0,0,0,0-.1,0-.1,0-.3,0-.3,0,0,0,0,0-.1,0,0,0-.1,0-.2,0,0,0,0,0,0-1.7,1.1-3.4,2.1-5.2,2.7-.3.1-.6.2-.9.3h0s0,0,0,0c0,0,0,0,0,0-.4.7-1,1.2-1.4,1.9-.5.9-1,2-1.2,3.1ZM163.3,240.6c0,0-.1,0,0-.1.3-.4.7-.7,1.1-.8,0,0,0,.1,0,.2-.4.1-.7.4-1,.8ZM163.9,239.6s0,0,0,0c.3-.3.6-.5.9-.4,0,0,0,0,0,0-.3,0-.6.2-.8.4ZM165,249.4c0,0,0-.2,0-.1.2,0,.4,0,.7,0,0,0,0,0,0,.1-.2.1-.5.2-.7,0ZM165.3,250.1c0,0,0-.2,0-.1.3.2.6.1.9-.2,0,0,.1,0,0,.1-.3.4-.7.5-1,.2Z"/>
      <path class="st18" d="M169.8,220.1c-1.4.8-1.1,3.6-.9,5.1.5,3,1.1,6,1.6,9,0,0,0,0,.1,0,0,0,0,0,0,0,.2-2.1.2-4.1.2-6.1,0-.1.2-.2.2,0,.1,1.9,0,4-.2,6,.6-1.6,1-3.3,1.3-5.1,0-.2.2-.1.2,0-.2,1.6-.6,3.2-1.1,4.6.6-1.3,1.4-2.4,2.2-3.5,0,0,0,0,0,0,1.1-1.8,2-4.4,2.2-6.7.2-1.4.2-4-1.1-3.4-.7.3-1.5,1.5-2.1,2.2,0,0-.2,0-.2,0-.5-1.2-1.3-2.4-2.4-1.8ZM169.1,222.1c0-.5.2-.9.5-1.1,0,0,.1,0,0,.2-.2.2-.4.6-.4,1,0,0,0,.1,0,0ZM174.8,223.7c0,.1-.1,0-.1,0,0-.6.1-1.2.2-1.8,0-.1.1-.1.1,0,0,.6,0,1.2-.2,1.8ZM174.9,224.5c0,0,0,0,0,0,.2-.6.3-1.1.4-1.7,0,0,0,0,0,0,0,.6-.2,1.2-.4,1.8Z"/>
      <path class="st18" d="M169.1,245.8s0,0,0,.1c0,1.9-.2,4.6,1.4,4.4,1.4-.2,2.9-2.3,2.9-4.5,0-.2.1-.3.2-.2.6.3,1.3.7,1.9,0,.4-.5.5-1.6.4-2.3,0-1.2-.2-2.4-.7-3.2-.8-1.2-1.9-2.1-3-2.6-.6-.2-1.3-.2-1.8-.5,1.2,1.1,2.1,3,2.4,5.2,0,.2-.1.2-.2,0-.4-2.2-1.2-3.9-2.4-5.1,0,0,0,.1,0,.2,0,0,0-.1.1,0,.4,1.3.6,2.8.5,4.4,0,.2-.2.2-.2,0,0-1.5-.1-2.9-.4-4.3,0,0,0,0,0,0-.2,2.5-.5,5.1-1.1,7.6,0,.3-.2.7-.2,1ZM175.2,242.9c0,0,0-.2,0-.1.2.3.2.8,0,1.3,0,0,0,0,0,0,.1-.4,0-.8,0-1.1ZM175.6,244.8c0,.1-.1,0,0,0,.2-.5.2-1,.1-1.5,0,0,0-.1,0,0,.1.5,0,1.1-.1,1.7Z"/>
      <path class="st0" d="M170,235.8s0,0,0,0c.7,1.1,2.1.8,3,1.4,1,.6,1.8,1.5,2.5,2.5.8,1.1,1.4,2.5,2,3.9.3.8.6,1.6.9,2.4,0,0,0,0,0,.1.2.4.3.9.4,1.3-.5-3.1-1.3-5.9-2.6-8.2-.7-1.2-1.5-2.3-2.4-3.2-.5-.5-2.1-1.9-3.1-1.7,0,.1-.1.2-.2.3,0,.1-.2,0-.1-.1,0,0,0,0,0,0-.1,0-.2.2-.3.4,0,0,0,0,0,0,0,0,0,.2,0,.2,0,0,0,0,0,0,0,.2-.1.4-.1.6,0,0,0,.1,0,.1ZM170.6,235.1c0,0,0-.1,0-.2.3-.3.6-.3.9-.3,0,0,0,.2,0,.2-.3,0-.5,0-.8.2Z"/>
      <path class="st18" d="M171.4,233.9s0,0-.1.1c.4,0,.7,0,1,.2,1.3.7,2.4,1.8,3.4,3.2.1.2.3.4.4.5,0,0,0,0,0,0,1.1,0,2.7.4,3.3-1.9.5-2.1-.6-3.5-1.5-4.4,0,0,0-.3,0-.4.8-1,2.6-3.7,1.1-4.9-1-.8-2.4.3-3.4,1.3-1.6,1.6-2.9,3.8-4.2,6,1.4-1.3,3-2.5,4.6-3.2,0,0,.1.1,0,.2-1.5,1-3,2-4.5,3.1,1.2-.3,2.5-.4,3.7-.2,0,0,0,.3,0,.3-1.2,0-2.4,0-3.7.2,0,0,0,0,0-.1ZM174.9,229.1s0,0,0,0c.3-.4.7-.6,1-.7,0,0,0,.1,0,.1-.4,0-.7.3-1,.7ZM175.1,228.6c0,0-.1,0,0,0,.3-.4.7-.7,1-.7,0,0,0,.1,0,.1-.3,0-.7.3-1,.7Z"/>
      <path class="st29" d="M177.6,246.5c0,.3,0,.8.3.7,0-.2.2-.4.3-.5,0-.1,0-.2.1-.3,0-.2-.2-.4-.2-.7-.2.2-.4.5-.5.8Z"/>
      <path class="st29" d="M178.5,246.7c-.3.4-.7.9-.6,1.5,0,.4.3.6.5.4,0-.3.2-.7.3-1,0-.1,0-.3,0-.4,0-.2-.1-.4-.2-.5Z"/>
      <path class="st29" d="M178.5,248.7c0,.3,0,.6,0,.7.2.4.4-.2.5-.6,0-.2,0-.4,0-.6,0,0,0,0,0,0,0-.2-.1-.3-.2-.5,0,0,0,.2-.1.3,0,.3-.1.5-.2.7Z"/>
      <path class="st29" d="M178.9,245.1h0c0,.4.1.7.2,1.1,0,0,0,0,0,0,.2-.2.5-.2.7-.2.1,0,.2-.2.3-.4,0-.4-.1-.6-.3-.7-.2,0-.5.1-.7.3,0,0,0,0,0,0Z"/>
      <path class="st29" d="M179.1,246.3s0,0,0,0c0,.4.1.8.1,1.2,0,0,0,0,0,0,0,0,0,0,0,0,0,0,0-.1,0,0,0,0,0,0,0,0,.3-.2.6-.3.9-.2,0,0,0,0,.1-.1.2-.2.1-.3,0-.5-.3-.3-.5-.4-.8-.3-.1,0-.2,0-.3.1,0,0,0,0,0,0Z"/>
      <path class="st29" d="M179.2,248.4c0,.4,0,.8,0,1.2,0,.2.1.5.2.7.2.3.5.2.6-.3,0-.8-.3-1.4-.7-1.8,0,0,0,0,0,0,0,0,0,0,0,0,0,0,0,.1,0,.1Z"/>
      <path class="st29" d="M179.5,247.6c0,0-.2,0-.3.1,0,0,0,.2,0,.3,0,0,.1.1.2.2.3.2.6.5.9.3.5-.3,0-.9-.2-1,0,0,0,0,0,0-.2.2-.5.2-.7,0Z"/>
    </g>
    <g>
      <path class="st18" d="M194.8,187.2c.6-.2,1.2-.5,1.8-.9-.5,0-.9-.2-1.4-.4,0,0,0-.2,0-.3.6-.2,1.1-.4,1.7-.5-.3-.2-.6-.6-.9-.9,0,0,0-.2,0-.2.3-.2.8-.1,1.1.1,0-.1,0-.3-.1-.4-1.5-.3-3.1-.4-4.6-.7,0,.2,0,.4.2.7.1.4.2.9.1,1.4-.1.7-.6,1.2-.8,1.8-.4,1-.5,2.2-.2,3,.3.8.8,1.2,1.5,1,.3,0,.6-.3,1-.5,1-1.6,2.3-2.7,3.6-3.6-1,.4-2.1.6-3.1.7-.1,0-.1-.2,0-.3ZM192,189.4c0,0,0-.1,0,0,.1.3.3.5.6.4,0,0,0,.1,0,.1-.3,0-.5,0-.7-.4ZM192.9,190.5c-.3,0-.5,0-.7-.4,0,0,0-.1,0,0,.2.2.4.4.6.4,0,0,0,0,0,0Z"/>
      <path d="M192.1,189.3c0,0,0,0,0,0,.1.4.4.5.7.4,0,0,0-.1,0-.1-.3,0-.5,0-.6-.4Z"/>
      <path d="M192.3,190s0,0,0,0c.2.3.4.4.7.4,0,0,0,0,0,0-.2,0-.5-.1-.6-.4Z"/>
      <path d="M193.2,194.5c0,.5,0,.9.3,1.1,0,0,0,0,0-.1-.2-.2-.3-.6-.3-1,0,0,0,0,0,0Z"/>
      <path d="M193.4,194.1c0,.3,0,.7,0,1,0,0,0,0,0,0,0-.3,0-.6,0-.9,0,0,0,0,0,0Z"/>
      <path class="st0" d="M198,183.9c0,.9,0,2.1.4,2.7,0,0,0,0,0,0,0,0,0,0,0,0,0,0,.1,0,.1.1,0,0,.1.1.2.1.7-.2.6-1.5.4-2.9-.4,0-.7-.1-1.1-.2Z"/>
      <path class="st8" d="M197.8,183.8c-.1,0-.3,0-.4,0,0,.2.1.5.2.7,0,0,0,0,0,0,0,0,0,0,0,0,0,0,0,0,0,0,0,0,0,.2,0,0,0,0,0,0,0,0-.2-.1-.3-.3-.6-.4-.1,0-.3,0-.4,0,.3.3.5.6.7.9,0,0,0,0,0,0,0,0,0,0,0,0,.1,0,.1.2,0,.3-.5.2-1,.3-1.5.5.4.2.7.3,1.1.4,0,0,.1,0,.2-.1,0,0,.1.1,0,.2-.4.4-.9.6-1.4.9.8,0,1.6-.3,2.4-.6-.1-.3-.2-.8-.2-1.2,0-.5,0-1,0-1.6Z"/>
      <g>
        <path class="st18" d="M194.3,190.9c0-.1.2-.3.3-.4,0,0,.2-.1.3-.2,0,0,0-.2,0-.2.9-1.2,1.9-2,3-2.9-.8,1-1.3,2.5-1.6,3.9,0,.1,0,.2.1,0,.4-.9.9-1.7,1.4-2.4-.4.9-.6,1.9-.5,2.9,0,0,.1,0,.1,0,.2-.7.5-1.4.8-2.1-.1.9-.2,1.8-.3,2.6,0,.1,0,.2.1,0,.3-.7.5-1.5.7-2.3,0,1.2,0,2.4,0,3.6,0,.1.1.2.2,0,.5-1.8.7-3.7.5-5.5.2.9.5,1.7.8,2.5.1.3.2.6.3.9,0,1.2,0,2.4-.2,3.6-.3,1.2-.9,2.3-1.7,2.5-.8.2-1.4-.6-2.1-.8-.6-.2-1.3.2-1.9.3-.9.1-1.6-.7-1.5-2.2,0-1.5.7-2.8,1.4-3.9ZM193.5,194.1c0,0,0,0,0,0,0,.3,0,.7,0,1,0,0,0,0,0,0,0-.3,0-.6,0-.9ZM193.5,195.6s0,0,0-.1c-.2-.2-.3-.6-.3-1,0,0,0,0,0,0,0,.5,0,.9.3,1.1Z"/>
        <path class="st8" d="M198.8,192.9c0-1.2,0-2.4,0-3.7,0,0,0,0,0,0,0,0,0,0,0,0,0,0,0,0,0,0,0,.9-.3,1.8-.6,2.7,0-.8.2-1.7.2-2.5,0,0,0,0-.1,0,0,0,0,0,0,0,0,0,0,0,0,0-.3.6-.5,1.3-.8,2,0-1,.2-1.9.6-2.7,0,0,0-.1,0-.1,0,0,0-.1,0,0-.5.6-1,1.2-1.4,2,.4-1.4,1-2.5,1.8-3.5,0,0,.1.1.2.1,0,0,0,0,0,0,0,0,.1,0,.2,0,0,0,0,0,0,0,0,0,0,0,0,0,0,0,0,0,0,0,0,0,0,.1,0,.2.2,1.9.1,3.7-.3,5.6Z"/>
      </g>
      <path class="st18" d="M200.3,184.4c-.3,0-.7-.2-1-.3,0,.6.1,1.2.1,1.5.3-.4.6-.8.9-1.3Z"/>
      <path class="st8" d="M201.7,184.6c0,0-.1,0-.2-.1-.1,0-.2,0-.3.2.1,0,.2,0,.3.1,0,0,.1,0,.2-.1Z"/>
      <path class="st8" d="M201.8,186.1c-.4-.1-.8-.1-1.2-.2,0,0,0,0,0,0,0,0,0,0,0,0,0,0-.1,0,0-.1.3-.5.7-.8,1.1-1.1-.1,0-.2,0-.3-.1-.5.2-1,.6-1.4,1.1,0,0-.1.1-.2.2,0,0,0,0,0,0,0,0,0,0,0,.1,0,0,0,0,0,0,0,.3,0,.6-.2.8.5,1,1,1.7,1.8,1.7-.2-.3-.4-.6-.6-.9,0,0,0,0,0,0,0,0,0-.2,0-.2.3,0,.6.1.9.2-.2-.4-.6-.6-.8-.8,0,0,0,0,0,0h0s0,0-.1,0c0,0,0-.2,0-.2.4-.2.8-.3,1.2-.4Z"/>
      <path class="st18" d="M201.8,184.7s0,0-.1,0c.2,0,.3.1.5.2-.1,0-.2-.2-.3-.3Z"/>
      <path class="st18" d="M202.2,185c-.2,0-.3-.1-.5-.2-.4.3-.7.6-1.1,1,.6-.1,1.1,0,1.6.2,0,0,0,.2,0,.3-.5.2-1,.4-1.5.5h0s0,0,0,0c.2,0,.4.2.6.4.2.2.3.4.5.5,0,0,0,.3,0,.2-.3,0-.7-.1-1-.2.2.3.5.6.7.9,0,0,0,.2,0,.2-.7,0-1.4-.3-1.9-1,.2.8.5,1.7.8,2.5,0,.2.1.4.2.6,0,0,0,0,0,0,0,0,0,.1,0,.2.3.7.6,1.5,1,2,.7.9,1.6.8,2.4-.3.7-1.1.7-2.5.7-3.8,0-.6.1-1.1.3-1.6-.8-.9-1.7-1.6-2.7-2.3ZM202.3,192.7s0-.1,0-.1c.2,0,.4,0,.7-.1,0,0,0,0,0,.1-.2.1-.5.2-.7.1ZM203.3,192.8c-.2.2-.5.4-.7.3,0,0,0,0,0,0,.2,0,.5-.1.7-.3,0,0,0,0,0,0Z"/>
    </g>
  </g>
</svg>