<svg width="776" height="814" xmlns="http://www.w3.org/2000/svg" xmlns:xlink="http://www.w3.org/1999/xlink" xml:space="preserve" overflow="hidden"><g transform="matrix(1 0 0 1 0 -3432)"><path d="M770.917 621.294C770.364 621.446 769.773 621.618 769.221 621.789 768.115 622.113 767.009 622.437 765.866 622.742 765.179 622.933 764.455 623.124 763.769 623.333 762.758 623.6 761.748 623.905 760.719 624.172 759.975 624.363 759.213 624.572 758.469 624.763 757.459 625.049 756.449 625.297 755.438 625.583 754.676 625.773 753.875 625.983 753.113 626.174 752.083 626.441 751.092 626.688 750.043 626.955 749.224 627.165 748.385 627.356 747.565 627.565 746.555 627.813 745.564 628.061 744.553 628.309 743.696 628.518 742.819 628.728 741.961 628.919 740.951 629.167 739.94 629.414 738.949 629.643 738.053 629.853 737.157 630.043 736.261 630.253 735.232 630.482 734.24 630.711 733.211 630.939 732.315 631.149 731.381 631.34 730.466 631.549 729.437 631.778 728.407 632.007 727.359 632.236 726.444 632.445 725.491 632.636 724.557 632.827 723.527 633.055 722.479 633.284 721.411 633.513 720.477 633.703 719.505 633.913 718.552 634.104 717.484 634.333 716.436 634.542 715.349 634.771 714.396 634.962 713.405 635.152 712.452 635.362 711.384 635.572 710.298 635.8 709.23 636.01 708.22 636.201 707.229 636.391 706.218 636.62 705.151 636.83 704.083 637.039 703.016 637.249 701.986 637.44 700.957 637.63 699.908 637.84 698.841 638.05 697.754 638.24 696.687 638.45 695.619 638.641 694.571 638.831 693.522 639.041 692.436 639.232 691.349 639.441 690.263 639.632 689.195 639.823 688.147 640.032 687.06 640.204 685.935 640.394 684.83 640.585 683.705 640.795 682.638 640.985 681.57 641.176 680.503 641.348 679.378 641.538 678.253 641.748 677.128 641.939 676.023 642.129 674.936 642.32 673.831 642.491 672.725 642.682 671.6 642.854 670.456 643.063 669.351 643.235 668.226 643.445 667.101 643.616 665.977 643.788 664.833 643.978 663.689 644.169 662.564 644.341 661.44 644.531 660.296 644.703 659.152 644.874 658.008 645.065 656.846 645.236 655.683 645.408 654.539 645.599 653.357 645.77 652.232 645.942 651.089 646.113 649.945 646.285 648.763 646.456 647.562 646.647 646.38 646.819 645.236 646.971 644.112 647.162 642.968 647.333 641.767 647.505 640.547 647.676 639.327 647.867 638.183 648.039 637.02 648.191 635.877 648.382 634.657 648.553 633.437 648.744 632.217 648.896 631.092 649.068 629.929 649.221 628.785 649.392 627.546 649.564 626.269 649.754 625.03 649.926 623.905 650.078 622.761 650.231 621.618 650.383 620.34 650.555 619.082 650.726 617.786 650.898 616.642 651.051 615.499 651.203 614.355 651.356 613.058 651.527 611.762 651.699 610.466 651.87 609.341 652.004 608.217 652.156 607.073 652.309 605.757 652.48 604.423 652.652 603.108 652.804 601.983 652.957 600.877 653.09 599.753 653.224 598.399 653.376 597.046 653.567 595.673 653.719 594.587 653.853 593.481 654.005 592.375 654.12 590.984 654.291 589.592 654.463 588.201 654.634 587.114 654.768 586.028 654.901 584.96 655.016 583.53 655.168 582.081 655.359 580.652 655.53 579.603 655.664 578.555 655.778 577.487 655.893 576.02 656.064 574.552 656.236 573.103 656.407 572.054 656.522 571.025 656.636 569.977 656.769 568.471 656.941 566.965 657.112 565.44 657.265 564.467 657.379 563.495 657.475 562.523 657.589 560.941 657.761 559.34 657.951 557.738 658.104 556.842 658.199 555.946 658.294 555.051 658.409 553.373 658.58 551.695 658.771 550.018 658.943 549.217 659.019 548.398 659.095 547.578 659.209 545.805 659.381 544.051 659.572 542.278 659.762 541.554 659.839 540.83 659.915 540.105 659.991 538.237 660.182 536.35 660.372 534.463 660.563 534.062 660.62 533.643 660.639 533.243 660.677 510.596 662.946 487.53 665.005 464.312 666.892 464.14 666.911 463.988 666.93 463.835 666.93 461.376 667.12 458.936 667.311 456.477 667.502 456.286 667.521 456.096 667.54 455.905 667.559 453.56 667.73 451.177 667.94 448.833 668.112 448.528 668.112 448.204 668.169 447.899 668.169 445.535 668.341 443.171 668.531 440.826 668.703 440.54 668.722 440.274 668.76 439.988 668.779 437.681 668.951 435.374 669.122 433.049 669.294 432.668 669.332 432.305 669.351 431.943 669.37 429.694 669.522 427.406 669.694 425.157 669.865 424.757 669.904 424.337 669.942 423.937 669.942 421.725 670.113 419.495 670.266 417.284 670.418 416.845 670.456 416.388 670.476 415.949 670.514 413.662 670.685 411.393 670.838 409.106 670.99 408.763 670.99 408.42 671.047 408.077 671.047 405.77 671.219 403.444 671.352 401.138 671.524 400.795 671.524 400.451 671.581 400.108 671.581 397.764 671.753 395.457 671.886 393.112 672.039 392.807 672.058 392.483 672.096 392.178 672.115 389.872 672.248 387.565 672.401 385.297 672.553 384.934 672.553 384.572 672.611 384.191 672.611 381.865 672.763 379.559 672.916 377.252 673.049 376.947 673.068 376.642 673.087 376.337 673.125 374.03 673.259 371.724 673.411 369.398 673.545 369.055 673.564 368.731 673.602 368.388 673.621 366.043 673.754 363.718 673.907 361.354 674.04 361.087 674.059 360.839 674.078 360.572 674.097 358.246 674.25 355.883 674.383 353.538 674.498 353.233 674.517 352.947 674.536 352.642 674.555 350.259 674.707 347.857 674.841 345.474 674.955 345.322 674.955 345.169 674.955 345.017 674.993 342.539 675.146 340.08 675.279 337.582 675.413 337.468 675.413 337.373 675.432 337.258 675.432 334.761 675.584 332.264 675.718 329.767 675.832 329.69 675.832 329.595 675.851 329.5 675.851 326.984 675.985 324.467 676.118 321.97 676.252L321.913 676.252C321.303 676.29 320.712 676.328 320.102 676.347L313.373 659.648C311.066 653.891 308.683 648.134 306.32 642.396L303.098 634.523C299.914 626.765 296.617 618.72 293.147 610.923L292.48 609.398C291.107 606.348 289.697 603.165 288.381 600 288.305 598.132 288.248 596.245 288.172 594.358 288.038 591.346 287.905 588.315 287.771 585.284L286.056 585.494 286.056 585.36 285.98 583.778 698.193 533.281C700.785 532.957 702.692 530.669 702.539 528.058 696.649 427.006 667.197 336.934 615.06 260.378 573.351 199.149 517.154 146.421 447.975 103.644 342.939 38.6783 237.827 16.413 217.83 12.6386L216.686 12.4289C216.686 12.4289 216.515 11.5902 216.343 10.618 216.877 10.7133 217.487 10.8276 218.154 10.9611 217.773 8.94044 217.544 7.72042 217.449 7.30104 217.449 7.24385 217.449 7.18666 217.411 7.1676 216.725 3.54567 213.217 1.18189 209.595 1.86815 205.973 2.55441 203.609 6.06196 204.296 9.68388 204.296 9.72201 204.334 9.81732 204.353 9.95076 204.353 9.98889 204.372 10.027 204.372 10.0651 204.429 10.3511 204.505 10.8467 204.639 11.4948 204.658 11.5711 204.677 11.6283 204.696 11.7236 205.058 13.6108 205.668 16.8515 206.488 21.274 206.602 21.9412 206.755 22.6466 206.869 23.3709 206.602 23.7141 206.412 24.0953 206.24 24.4766 199.168 42.6434 33.1692 471.079 27.336 619.654 27.2788 621.179 27.9079 622.647 29.0517 623.6L29.2042 623.715 30.3289 624.572 29.776 625.811C28.8991 627.813 27.8888 630.062 27.0691 632.293 24.896 638.279 22.9325 643.883 21.0644 649.449L19.425 654.348C18.0906 658.333 16.7562 662.317 15.479 666.301L12.6577 675.184C12.3717 676.042 12.0667 676.919 11.7617 677.815 11.0755 679.816 10.332 681.894 10.008 683.858 9.91264 684.41 9.9317 684.944 10.1033 685.402L10.2748 685.935C9.66482 685.935 9.05481 685.935 8.46387 685.935 6.38603 685.954 4.68944 685.974 3.37411 685.974L0 685.974C0 685.974 55.7014 787.426 105.36 801.913 148.975 814.628 558.52 822.596 653.719 785.367 748.9 748.137 775.797 619.883 775.797 619.883 774.196 620.379 772.557 620.855 770.917 621.351ZM274.599 588.315C274.637 588.887 274.656 589.44 274.675 590.012 275.343 604.938 275.876 619.788 276.277 634.542L276.277 634.599C276.467 641.958 276.639 649.297 276.772 656.617L276.772 656.655C276.906 663.975 276.982 671.257 277.039 678.501L277.02 678.501C270.462 678.806 263.943 679.092 257.519 679.359L257.5 679.359C256.909 679.397 256.356 679.397 255.784 679.416L255.784 679.206C255.879 678.272 255.937 677.319 256.013 676.366 256.089 675.089 256.184 673.831 256.299 672.591L257.557 659.915C257.843 657.189 258.11 654.463 258.377 651.737 258.968 645.98 259.578 640.013 260.073 634.18 260.55 628.652 261.007 623.105 261.465 617.576L262.189 608.827C262.551 604.614 262.856 600.401 263.161 596.169L263.295 594.339C263.39 593.081 263.466 591.823 263.543 590.564L263.619 589.058 265.125 588.944C268.404 588.696 271.587 588.506 274.637 588.353ZM290.726 617.252C293.09 623.772 295.683 630.444 297.951 636.334L300.658 643.387C303.003 649.468 305.328 655.549 307.711 661.611L313.621 676.709C313.03 676.747 312.42 676.785 311.829 676.804 304.623 677.186 297.455 677.529 290.345 677.853 290.307 672.935 290.269 667.978 290.192 663.022L290.192 662.888C290.135 657.951 290.04 653.014 289.926 648.039L289.926 647.905C289.716 637.935 289.43 627.908 289.106 617.843L289.106 617.843C289.106 617.729 289.106 617.653 289.087 617.538L290.707 617.252ZM287.314 415.435C288.191 448.947 287.505 481.811 285.274 513.151L283.559 513.151C283.559 513.151 283.559 513.055 283.559 513.017 283.196 508.004 282.834 502.971 282.453 497.958L282.453 497.919C282.091 492.925 281.69 487.911 281.29 482.936L281.29 482.879C280.89 477.884 280.47 472.909 280.07 467.934L280.07 467.934C279.651 462.939 279.231 457.964 278.793 453.008L278.793 452.969C278.354 448.013 277.916 443.076 277.459 438.139L277.459 438.062C276.105 423.251 274.656 408.534 273.15 393.989 273.15 393.951 273.15 393.932 273.131 393.894 272.636 389.071 272.121 384.248 271.625 379.482 271.625 379.444 271.606 379.387 271.606 379.368 271.092 374.583 270.577 369.799 270.062 365.071L270.062 364.995C269.528 360.248 268.995 355.521 268.48 350.793 268.48 350.755 268.48 350.717 268.48 350.66 267.946 345.97 267.412 341.3 266.879 336.667 266.86 336.591 266.86 336.515 266.841 336.439 266.307 331.826 265.773 327.231 265.22 322.675 265.22 322.599 265.22 322.542 265.182 322.466 264.629 317.891 264.096 313.354 263.543 308.836 263.524 308.76 263.524 308.702 263.505 308.626 262.952 304.146 262.399 299.667 261.846 295.225 261.827 295.111 261.808 294.996 261.789 294.882 261.236 290.459 260.683 286.056 260.111 281.69 260.092 281.614 260.092 281.557 260.073 281.481 259.501 277.077 258.949 272.731 258.377 268.404 258.358 268.327 258.358 268.251 258.339 268.175 257.767 263.848 257.214 259.559 256.642 255.327 256.623 255.231 256.623 255.155 256.604 255.06 256.032 250.828 255.46 246.615 254.888 242.459 254.869 242.364 254.85 242.25 254.831 242.154 254.259 238.018 253.706 233.919 253.134 229.859 253.134 229.687 253.077 229.554 253.077 229.382 252.524 225.36 251.953 221.357 251.4 217.392 251.4 217.258 251.362 217.125 251.343 216.991 250.771 213.007 250.237 209.061 249.665 205.153 249.646 205.077 249.627 204.982 249.627 204.887 249.055 200.96 248.521 197.071 247.93 193.239 247.93 193.144 247.892 193.068 247.873 192.953 247.32 189.103 246.767 185.309 246.196 181.573 246.196 181.478 246.196 181.401 246.157 181.325 245.605 177.589 245.052 173.871 244.499 170.211 244.499 170.116 244.461 170.021 244.442 169.925 243.889 166.265 243.355 162.663 242.802 159.098 242.802 159.022 242.802 158.964 242.764 158.888 242.211 155.304 241.678 151.778 241.144 148.308 241.125 148.232 241.125 148.175 241.106 148.118 240.572 144.629 240.038 141.198 239.524 137.843 239.524 137.767 239.524 137.709 239.485 137.652 238.971 134.297 238.437 130.999 237.922 127.74 237.922 127.644 237.884 127.53 237.865 127.435 237.35 124.194 236.836 120.972 236.34 117.827 236.34 117.789 236.321 117.751 236.321 117.713 235.806 114.529 235.292 111.403 234.815 108.334 234.815 108.296 234.815 108.276 234.815 108.238 234.3 105.169 233.824 102.138 233.328 99.1645 233.309 99.1264 233.309 99.0882 233.29 99.0501L234.968 98.6689C274.675 229.516 285.255 343.149 287.161 415.454ZM206.202 19.0628C205.458 17.1374 205.687 14.9833 206.736 13.2296 207.098 15.1549 207.574 17.7093 208.165 20.95L208.337 21.9031 207.613 22.5322C207.613 22.5322 207.555 22.5894 207.536 22.6084 207.079 21.4456 206.64 20.2637 206.202 19.0628ZM211.158 56.6736 212.817 56.6355C212.817 56.6355 212.855 56.807 212.874 56.9024 212.874 56.9405 212.874 56.9595 212.874 56.9786 213.103 58.2367 213.312 59.5139 213.541 60.8483 213.579 60.9818 213.598 61.1343 213.617 61.2868 214.361 65.4615 215.104 69.9032 215.886 74.5163 215.905 74.6117 215.924 74.6879 215.943 74.7642 216.191 76.2129 216.439 77.6617 216.686 79.1486 216.725 79.3392 216.763 79.5108 216.782 79.7205 217.03 81.1693 217.277 82.618 217.525 84.0859 217.525 84.2383 217.563 84.3718 217.582 84.5052 218.402 89.3662 219.241 94.4179 220.099 99.6792 220.156 100.003 220.213 100.327 220.27 100.651 220.499 102.081 220.728 103.53 220.995 104.998 221.033 105.341 221.109 105.646 221.147 106.008 222.024 111.365 222.92 116.893 223.816 122.612 223.873 122.936 223.911 123.26 223.987 123.584 224.254 125.204 224.502 126.825 224.769 128.483 224.826 128.807 224.864 129.15 224.941 129.474 225.227 131.266 225.512 133.096 225.798 134.926 225.817 135.06 225.837 135.174 225.875 135.307 226.504 139.368 227.152 143.485 227.8 147.679 227.838 147.946 227.876 148.194 227.914 148.461 228.181 150.196 228.448 151.949 228.715 153.722 228.791 154.18 228.868 154.656 228.925 155.133 229.211 156.906 229.478 158.698 229.744 160.489 229.802 160.794 229.821 161.061 229.878 161.347 230.545 165.674 231.193 170.078 231.879 174.539 231.918 174.767 231.956 174.996 231.975 175.206 232.261 177.15 232.566 179.133 232.852 181.115 232.928 181.535 232.985 181.954 233.042 182.373 233.328 184.223 233.595 186.091 233.862 187.959 233.938 188.378 233.995 188.798 234.053 189.217 234.72 193.83 235.387 198.481 236.073 203.19 236.073 203.209 236.073 203.228 236.092 203.266 236.416 205.535 236.74 207.822 237.084 210.129 237.16 210.529 237.198 210.949 237.255 211.368 237.541 213.331 237.808 215.314 238.094 217.277 238.17 217.735 238.227 218.211 238.285 218.688 238.59 220.842 238.875 222.996 239.18 225.169 239.219 225.379 239.257 225.57 239.257 225.779 239.943 230.678 240.629 235.635 241.296 240.629 241.354 241.03 241.411 241.43 241.468 241.83 241.754 243.927 242.04 246.043 242.326 248.159 242.402 248.617 242.459 249.074 242.497 249.513 242.802 251.724 243.107 253.935 243.393 256.127 243.451 256.432 243.47 256.737 243.527 257.023 244.213 262.17 244.899 267.374 245.586 272.617 245.624 272.845 245.643 273.074 245.681 273.303 245.986 275.648 246.31 278.011 246.615 280.394 246.653 280.795 246.71 281.195 246.767 281.614 247.053 283.864 247.358 286.113 247.625 288.401 247.663 288.782 247.721 289.201 247.759 289.582 248.769 297.551 249.779 305.614 250.752 313.773 250.809 314.135 250.847 314.536 250.885 314.898 251.171 317.262 251.457 319.644 251.743 322.027 251.8 322.389 251.838 322.771 251.876 323.152 252.2 325.802 252.505 328.47 252.81 331.139 252.81 331.177 252.829 331.196 252.829 331.235 253.497 336.858 254.145 342.539 254.793 348.258 254.831 348.486 254.85 348.696 254.869 348.925 255.174 351.46 255.46 353.996 255.727 356.569 255.784 356.969 255.822 357.389 255.86 357.77 256.165 360.343 256.451 362.936 256.718 365.529 256.718 365.719 256.775 365.91 256.775 366.1 257.404 371.857 258.053 377.671 258.663 383.486 258.663 383.619 258.701 383.772 258.72 383.886 258.987 386.555 259.292 389.243 259.559 391.911 259.616 392.331 259.635 392.75 259.692 393.169 259.959 395.724 260.207 398.24 260.474 400.795 260.512 401.119 260.55 401.424 260.569 401.748 261.446 410.421 262.304 419.171 263.123 427.94 263.161 428.321 263.2 428.741 263.238 429.122 263.486 431.676 263.733 434.269 263.962 436.823 264 437.185 264.038 437.567 264.057 437.929 264.877 446.755 265.659 455.619 266.402 464.502 266.44 464.807 266.459 465.112 266.478 465.417 266.707 468.067 266.917 470.698 267.146 473.367 267.184 473.748 267.222 474.148 267.241 474.529 267.47 477.274 267.698 480.039 267.908 482.803 267.927 482.974 267.946 483.127 267.946 483.298 268.442 489.341 268.88 495.365 269.338 501.427 269.338 501.579 269.338 501.751 269.376 501.923 269.586 504.668 269.776 507.413 269.986 510.139 270.024 510.596 270.043 511.054 270.081 511.492 270.253 514.085 270.462 516.696 270.634 519.289 270.634 519.651 270.691 519.975 270.691 520.337 271.111 526.38 271.511 532.404 271.892 538.428 271.892 538.504 271.892 538.58 271.892 538.656L270.253 538.981C260.15 509.147 245.395 461.567 232.585 404.226 213.16 317.3 193.678 186.415 211.12 56.6736ZM14.8118 685.135C15.6124 683.209 16.2224 681.112 16.8134 679.073 17.004 678.406 17.1946 677.738 17.4043 677.09L20.0731 668.188C21.3503 663.956 22.5512 659.686 23.7522 655.416L25.0675 650.765C26.726 644.931 28.3082 639.06 29.7951 633.265 30.4242 630.787 30.9579 628.252 31.4345 626.059L31.7014 624.858 32.9214 624.706 33.3026 624.668C34.7133 624.382 175.473 596.112 260.416 589.249L262.628 589.078 262.246 591.251C262.094 592.166 261.941 593.081 261.808 593.996 261.675 594.777 261.56 595.54 261.427 596.283 260.702 600.458 260.054 604.633 259.406 608.807L258.148 617.1C257.29 622.704 256.413 628.347 255.594 633.951 254.736 639.746 253.916 645.637 253.154 651.375 252.772 654.062 252.41 656.769 252.048 659.457L250.294 672.134C250.123 673.392 249.913 674.669 249.684 675.966 249.474 677.224 249.265 678.463 249.093 679.721 248.502 679.721 247.93 679.778 247.358 679.797 244.27 679.931 241.22 680.045 238.189 680.159 237.579 680.178 236.988 680.217 236.397 680.236 233.652 680.35 230.907 680.445 228.181 680.56 227.876 680.56 227.552 680.598 227.247 680.598 224.102 680.712 220.976 680.846 217.887 680.96 217.716 680.96 217.544 680.96 217.373 680.96 214.513 681.074 211.692 681.17 208.89 681.284 208.375 681.284 207.879 681.322 207.384 681.322 204.639 681.418 201.894 681.513 199.187 681.627 198.958 681.627 198.729 681.627 198.52 681.627 195.47 681.742 192.439 681.837 189.446 681.932 189.331 681.932 189.217 681.932 189.084 681.951 186.339 682.047 183.632 682.123 180.925 682.237 180.41 682.256 179.895 682.275 179.381 682.294 176.712 682.371 174.062 682.447 171.431 682.561 171.279 682.561 171.145 682.58 171.012 682.58 168.095 682.676 165.236 682.752 162.396 682.847 162.186 682.847 161.976 682.847 161.767 682.847 159.231 682.924 156.715 683 154.218 683.076 153.779 683.095 153.341 683.114 152.921 683.114 147.489 683.286 142.132 683.419 136.909 683.553 136.566 683.553 136.223 683.553 135.879 683.591 133.63 683.648 131.438 683.705 129.246 683.762 128.731 683.762 128.254 683.8 127.74 683.8 125.3 683.877 122.86 683.934 120.477 683.972L120.419 683.972C117.903 684.048 115.425 684.105 112.966 684.144 112.604 684.163 112.242 684.163 111.898 684.182 109.821 684.239 107.781 684.277 105.76 684.334 105.341 684.353 104.921 684.353 104.483 684.372 99.7745 684.487 95.1613 684.582 90.6816 684.677 90.4719 684.677 90.2812 684.696 90.0716 684.696 88.1081 684.754 86.1828 684.773 84.2574 684.811 83.838 684.83 83.4186 684.83 82.9802 684.849 78.8055 684.925 74.726 685.001 70.8182 685.059 70.3988 685.059 69.9794 685.078 69.56 685.078 67.9016 685.116 66.2622 685.154 64.6609 685.154 64.375 685.154 64.0699 685.173 63.784 685.173 60.0096 685.23 56.3686 685.306 52.8992 685.344 52.4607 685.344 52.0223 685.344 51.5838 685.344 50.2113 685.364 48.8579 685.402 47.5235 685.421 47.2185 685.421 46.9135 685.44 46.6275 685.44 43.3106 685.497 40.1652 685.535 37.1915 685.573 36.8674 685.573 36.5624 685.573 36.2192 685.573 35.0564 685.592 33.9127 685.611 32.788 685.63 32.4448 685.63 32.1017 685.649 31.7776 685.649 30.4242 685.649 29.1088 685.688 27.8698 685.707L27.4694 685.707C26.3257 685.707 25.22 685.745 24.1525 685.745 23.8475 685.745 23.5425 685.745 23.2375 685.764 22.2462 685.764 21.274 685.764 20.34 685.802L19.8062 685.802C18.6815 685.821 17.5759 685.821 16.5274 685.84 15.8793 685.84 15.2693 685.859 14.6593 685.859L14.888 685.173Z" fill="#017F8D" transform="matrix(1.00016 0 0 1 0 3432.42)"/><path d="M289.125 617.843C288.858 610.047 288.553 602.212 288.21 594.358 288.401 594.949 288.591 595.54 288.801 596.131 288.877 596.302 288.915 596.474 288.972 596.626 289.201 597.275 289.43 597.904 289.659 598.533 291.241 602.46 293.014 606.348 294.748 610.199 298.37 618.282 301.706 626.46 305.061 634.618 308.378 642.739 311.772 650.86 315.031 658.981 316.709 663.174 318.424 667.387 320.102 671.581 320.731 673.144 321.36 674.688 321.97 676.232 318.577 676.404 315.203 676.595 311.81 676.766 311.543 676.118 311.295 675.47 311.047 674.822 309.408 670.609 307.749 666.396 306.11 662.183 302.812 653.758 299.59 645.332 296.331 636.887 295.282 634.18 294.234 631.454 293.185 628.747 292.918 628.042 292.652 627.336 292.385 626.631 291.298 623.715 290.173 620.798 289.106 617.824 289.106 617.824 289.106 617.824 289.106 617.824ZM257.729 676.023C257.805 674.917 257.881 673.831 257.995 672.763 258.415 668.531 258.815 664.318 259.254 660.086 260.092 651.489 261.026 642.911 261.77 634.294 262.494 625.85 263.2 617.386 263.886 608.941 264.248 604.709 264.553 600.496 264.839 596.264 264.896 595.654 264.915 595.044 264.972 594.434 265.068 593.176 265.144 591.899 265.22 590.641 263.676 590.755 262.113 590.85 260.55 590.984 260.359 592.108 260.188 593.214 260.016 594.301 259.921 594.892 259.845 595.444 259.749 596.016 259.025 600.21 258.377 604.366 257.71 608.56 256.432 616.947 255.117 625.316 253.859 633.684 252.601 642.186 251.495 650.707 250.313 659.209 249.741 663.441 249.15 667.654 248.559 671.886 248.388 673.163 248.159 674.46 247.93 675.775 247.702 677.09 247.492 678.425 247.301 679.74 250.675 679.607 254.069 679.473 257.481 679.302 257.595 678.234 257.652 677.109 257.748 676.023ZM16.3749 685.802C17.4996 683.152 18.1859 680.331 19.0246 677.586 19.9015 674.612 20.7975 671.657 21.6934 668.684 23.4281 662.888 25.0485 657.055 26.7069 651.222 28.3654 645.389 29.9476 639.556 31.4345 633.684 31.7776 632.331 32.0826 630.997 32.3876 629.624 32.6355 628.557 32.8642 627.47 33.093 626.402 32.807 626.441 32.5592 626.479 32.2733 626.479 30.7864 626.479 29.3757 625.983 28.1748 625.068 27.7744 625.983 27.3741 626.879 26.9738 627.794 26.421 629.071 25.8872 630.348 25.4297 631.645 23.3519 637.344 21.3312 643.082 19.4059 648.858 17.5568 654.482 15.5933 660.086 13.8205 665.748 12.8864 668.703 11.9333 671.657 10.9992 674.612 10.0842 677.51 8.78793 680.503 8.31137 683.514 8.25418 683.896 8.23511 684.277 8.25418 684.639L8.25418 684.773C8.2923 685.135 8.34949 685.516 8.46387 685.859 10.6942 685.802 13.3439 685.802 16.3749 685.764ZM39.4409 611.61C73.3916 604.957 198.596 581.128 271.454 576.82 262.914 554.44 240.057 490.981 221.3 407.047 202.618 323.571 184.813 204.448 196.327 83.4568 151.416 203.914 48.4957 490.599 39.4409 611.61ZM32.2923 626.498C30.8054 626.498 29.3948 625.983 28.1938 625.087 28.1176 625.011 28.0413 624.973 27.946 624.916 26.3829 623.581 25.525 621.618 25.6204 619.578 31.4726 470.717 197.586 42.0334 204.658 23.8475 204.848 23.3519 205.096 22.9134 205.401 22.4941 205.439 22.4369 205.478 22.3987 205.516 22.3416 205.821 21.9603 206.126 21.5981 206.488 21.274 207.994 29.3376 210.148 41.4234 212.855 56.9214 207.994 92.9882 206.011 129.131 206.068 164.454L206.068 164.817C206.068 168.553 206.126 172.289 206.164 176.026 206.164 176.292 206.164 176.54 206.164 176.807 206.221 180.448 206.297 184.07 206.393 187.673 206.412 188.016 206.412 188.34 206.431 188.683 206.526 192.248 206.659 195.813 206.793 199.358 206.812 199.702 206.831 200.026 206.85 200.369 207.003 203.933 207.155 207.498 207.346 211.044 207.365 211.311 207.384 211.559 207.403 211.825 207.593 215.466 207.784 219.088 208.013 222.691 208.013 222.767 208.032 222.844 208.032 222.901 209.671 248.845 212.245 274.027 215.428 298.008 215.505 298.656 215.581 299.304 215.695 299.953 216.057 302.602 216.42 305.214 216.782 307.845 216.934 308.855 217.068 309.827 217.201 310.837 217.544 313.22 217.887 315.565 218.25 317.929 218.421 319.13 218.612 320.35 218.802 321.551 219.146 323.743 219.47 325.916 219.832 328.089 220.041 329.424 220.251 330.758 220.461 332.073 220.785 334.113 221.128 336.134 221.471 338.154 221.719 339.584 221.967 340.995 222.196 342.424 222.52 344.331 222.844 346.218 223.187 348.124 223.454 349.63 223.721 351.117 223.987 352.585 224.312 354.358 224.636 356.15 224.96 357.922 225.246 359.486 225.551 361.068 225.837 362.631 226.142 364.251 226.447 365.891 226.752 367.53 227.076 369.208 227.4 370.828 227.724 372.486 228.029 373.973 228.315 375.479 228.601 376.947 228.963 378.72 229.325 380.455 229.668 382.189 229.954 383.524 230.221 384.858 230.488 386.173 230.888 388.156 231.308 390.081 231.727 392.026 231.956 393.074 232.165 394.142 232.394 395.171 233.023 398.145 233.671 401.061 234.339 403.94 235.101 407.371 235.883 410.764 236.645 414.139 236.702 414.386 236.76 414.634 236.817 414.863 237.541 418.008 238.285 421.135 239.028 424.204 239.104 424.528 239.161 424.833 239.257 425.157 239.981 428.169 240.706 431.143 241.43 434.078 241.506 434.421 241.601 434.764 241.697 435.108 242.421 438.043 243.165 440.941 243.889 443.8 243.965 444.086 244.042 444.391 244.118 444.696 244.88 447.651 245.643 450.567 246.405 453.446 246.462 453.618 246.501 453.808 246.539 453.98 248.14 460.08 249.76 466.008 251.362 471.746 251.419 471.918 251.457 472.108 251.533 472.299 252.296 474.987 253.039 477.656 253.783 480.286 253.84 480.553 253.935 480.782 253.992 481.03 254.736 483.584 255.46 486.12 256.184 488.598 256.242 488.846 256.318 489.055 256.394 489.322 257.119 491.838 257.881 494.297 258.586 496.718 258.644 496.89 258.701 497.081 258.758 497.252 259.52 499.768 260.264 502.228 261.007 504.668 261.007 504.725 261.046 504.801 261.065 504.839 262.609 509.872 264.134 514.676 265.602 519.27 265.602 519.289 265.602 519.327 265.602 519.346 266.345 521.595 267.031 523.807 267.756 525.942 267.794 526.018 267.813 526.113 267.832 526.209 268.518 528.324 269.185 530.383 269.852 532.366 269.872 532.442 269.91 532.499 269.929 532.576 270.596 534.615 271.263 536.598 271.93 538.542 273.017 555.756 273.951 572.969 274.713 590.107 271.644 590.278 268.499 590.469 265.239 590.717 263.695 590.831 262.132 590.946 260.569 591.079L260.531 591.079C254.03 591.594 247.206 592.261 240.134 593.004 240 593.023 239.886 593.043 239.752 593.043 238.494 593.176 237.255 593.328 236.016 593.443 235.768 593.481 235.501 593.5 235.254 593.519 234.034 593.653 232.814 593.805 231.574 593.939 231.308 593.977 231.041 593.996 230.774 594.034 229.535 594.167 228.315 594.32 227.076 594.472 226.79 594.51 226.504 594.529 226.237 594.568 224.998 594.72 223.759 594.873 222.501 595.025 222.215 595.063 221.948 595.101 221.662 595.12 220.404 595.273 219.126 595.425 217.83 595.578 217.601 595.616 217.354 595.654 217.125 595.673 215.79 595.845 214.437 596.016 213.103 596.188 212.988 596.188 212.893 596.226 212.779 596.245 200.674 597.808 188.226 599.581 175.816 601.468 175.682 601.468 175.53 601.525 175.396 601.525 173.986 601.735 172.594 601.945 171.203 602.155 170.993 602.193 170.783 602.212 170.574 602.25 169.182 602.46 167.79 602.669 166.38 602.898 166.208 602.936 166.018 602.955 165.865 602.974 164.454 603.203 163.025 603.413 161.614 603.641 161.462 603.68 161.309 603.699 161.157 603.718 159.708 603.946 158.24 604.175 156.81 604.404 156.753 604.404 156.715 604.404 156.658 604.404 144.229 606.387 132.029 608.407 120.419 610.409L120.381 610.409C119.009 610.657 117.636 610.866 116.283 611.133 116.149 611.133 115.997 611.19 115.883 611.19 114.586 611.419 113.309 611.648 112.032 611.858 111.86 611.896 111.67 611.934 111.498 611.953 110.24 612.163 109.001 612.391 107.762 612.601 107.59 612.639 107.419 612.677 107.247 612.696 105.97 612.925 104.712 613.135 103.473 613.364 103.396 613.383 103.32 613.402 103.263 613.402 93.8269 615.079 84.9627 616.68 76.9564 618.148 76.8611 618.148 76.7657 618.186 76.6514 618.205 75.5839 618.396 74.5354 618.587 73.487 618.796 73.3916 618.796 73.3154 618.834 73.201 618.834 72.1907 619.006 71.2185 619.216 70.2463 619.387 70.0747 619.425 69.9222 619.445 69.7506 619.483 68.8738 619.635 68.0159 619.807 67.1581 619.978 66.8912 620.035 66.6244 620.074 66.3575 620.112 65.5759 620.264 64.7943 620.417 64.0318 620.55 63.7649 620.588 63.4599 620.664 63.1931 620.703 62.4496 620.855 61.7062 620.989 60.9818 621.122 60.6958 621.179 60.448 621.217 60.1621 621.275 59.4758 621.408 58.7705 621.541 58.0842 621.656 57.8174 621.713 57.5695 621.751 57.3027 621.808 56.6164 621.942 55.9111 622.075 55.2439 622.19 55.1105 622.228 54.977 622.247 54.8626 622.266 49.9444 623.2 45.7506 624.02 42.4337 624.668 42.2431 624.706 42.0334 624.744 41.8428 624.782 41.5187 624.858 41.1946 624.916 40.8706 624.973 40.5846 625.03 40.2987 625.087 40.0318 625.125 39.8221 625.182 39.5934 625.221 39.3646 625.259 39.0977 625.316 38.869 625.354 38.6212 625.411 38.3162 625.487 38.0302 625.526 37.7252 625.583 37.6108 625.602 37.5155 625.64 37.4011 625.659 37.1343 625.716 36.8674 625.754 36.6386 625.792 36.4099 625.85 36.2002 625.869 36.0096 625.926 35.9142 625.945 35.8189 625.964 35.7236 625.983 35.4186 626.059 35.1708 626.097 34.942 626.135L34.9039 626.135C34.6942 626.193 34.5227 626.212 34.3511 626.25 34.2939 626.269 34.2558 626.269 34.2177 626.288 33.8745 626.345 33.6648 626.402 33.6077 626.402 33.4361 626.441 33.2645 626.441 33.093 626.46 32.8642 626.517 32.5783 626.555 32.3304 626.555ZM196.327 83.4568C151.416 203.914 48.4957 490.599 39.4409 611.61 73.3916 604.957 198.596 581.128 271.454 576.82 262.914 554.44 240.057 490.981 221.3 407.047 202.637 323.571 184.813 204.448 196.327 83.4568Z" fill="#ECB920" transform="matrix(1.00016 0 0 1 0 3432.42)"/><path d="M298.961 415.606C296.636 324.734 281.405 184.108 222.863 25.4869 254.698 32.1779 348.029 55.3964 442.313 113.805 547.559 178.98 675.527 302.679 690.587 522.51L290.669 571.502C293.929 550.799 301.001 495.632 298.942 415.606ZM213.465 10.1223C213.598 10.1223 215.219 10.4083 218.135 10.9611 219.489 11.228 221.147 11.552 223.015 11.9333 223.149 11.9714 223.282 11.9905 223.397 12.0095 223.74 12.0667 224.083 12.162 224.445 12.2192 224.674 12.2764 224.902 12.3145 225.131 12.3717 225.436 12.4289 225.779 12.5052 226.103 12.5814 226.408 12.6577 226.694 12.7149 226.999 12.7721 227.323 12.8292 227.648 12.9055 227.972 12.9817 228.296 13.0389 228.639 13.1342 228.963 13.1914 229.287 13.2677 229.611 13.3439 229.935 13.4011 230.316 13.4964 230.736 13.5727 231.155 13.6871 231.46 13.7633 231.746 13.8205 232.051 13.8777 232.547 13.9921 233.061 14.1064 233.557 14.2208 233.805 14.278 234.014 14.3352 234.3 14.3733 235.025 14.5449 235.768 14.7165 236.512 14.9071 236.607 14.9071 236.702 14.9643 236.817 14.9643 237.579 15.1358 238.361 15.3265 239.142 15.5171 239.371 15.5743 239.6 15.6315 239.829 15.6696 240.458 15.8221 241.106 15.9746 241.773 16.1271 242.04 16.2033 242.345 16.2605 242.612 16.3368 243.222 16.4702 243.851 16.6418 244.48 16.7752 244.804 16.8705 245.128 16.9468 245.433 17.023 246.043 17.1756 246.691 17.3281 247.32 17.4806 247.644 17.5568 247.968 17.6521 248.292 17.7284 248.96 17.8809 249.646 18.0715 250.313 18.2431 250.618 18.3193 250.942 18.3956 251.247 18.4909 251.991 18.6815 252.734 18.8912 253.497 19.0818 253.764 19.1581 254.03 19.2343 254.297 19.2915 255.212 19.5393 256.165 19.8062 257.119 20.054 257.233 20.0922 257.328 20.1112 257.443 20.1303 259.616 20.7212 261.865 21.3312 264.191 21.9794 264.42 22.0556 264.648 22.1128 264.858 22.17 265.792 22.4369 266.688 22.6847 267.641 22.9516 267.946 23.0278 268.251 23.1231 268.556 23.2184 269.433 23.4663 270.31 23.7331 271.187 23.981 271.53 24.0763 271.873 24.1716 272.216 24.286 273.074 24.5528 273.951 24.8007 274.828 25.0675 275.209 25.1819 275.571 25.2963 275.934 25.3916 276.829 25.6585 277.725 25.9254 278.64 26.2113 279.003 26.3257 279.346 26.421 279.727 26.5354 280.699 26.8404 281.671 27.1454 282.663 27.4504 282.949 27.5457 283.254 27.6219 283.54 27.7173 284.798 28.1176 286.037 28.4988 287.295 28.9182 287.333 28.9182 287.371 28.9563 287.409 28.9563 290.116 29.7951 292.842 30.691 295.644 31.6061 295.93 31.7014 296.197 31.7776 296.464 31.892 297.551 32.2542 298.656 32.6164 299.762 32.9976 300.143 33.1311 300.563 33.2645 300.944 33.398 301.954 33.7411 302.964 34.0652 303.956 34.4273 304.394 34.5608 304.833 34.7324 305.29 34.8658 306.281 35.2089 307.292 35.5521 308.283 35.9142 308.721 36.0667 309.179 36.2192 309.617 36.3718 310.666 36.7339 311.676 37.1152 312.744 37.4774 313.163 37.6299 313.582 37.7824 314.002 37.9349 315.146 38.3352 316.27 38.7546 317.414 39.174 317.757 39.3074 318.1 39.4218 318.443 39.5552 319.873 40.0699 321.303 40.5846 322.752 41.1184 322.828 41.1374 322.885 41.1756 322.923 41.1946 324.486 41.7856 326.069 42.3575 327.651 42.9675 327.708 42.9675 327.784 43.0247 327.841 43.0247 329.29 43.5775 330.758 44.1303 332.226 44.7022 332.626 44.8356 333.026 45.0072 333.427 45.1406 334.571 45.5791 335.733 46.0366 336.877 46.4941 337.373 46.6847 337.868 46.8753 338.364 47.085 339.413 47.5044 340.48 47.9238 341.567 48.3622 342.119 48.591 342.672 48.8007 343.244 49.0294 344.293 49.4488 345.322 49.8682 346.37 50.2876 346.942 50.5163 347.476 50.7451 348.067 50.9738 349.134 51.4123 350.221 51.8698 351.289 52.3273 351.822 52.556 352.337 52.7657 352.871 52.9945 354.053 53.4901 355.235 54.0048 356.436 54.5004 356.855 54.672 357.293 54.8626 357.713 55.0533 359.257 55.7205 360.82 56.3877 362.364 57.0739 362.44 57.112 362.536 57.1311 362.612 57.1883 364.289 57.9317 365.967 58.6752 367.664 59.4186 367.949 59.5521 368.254 59.6855 368.559 59.819 369.894 60.4099 371.266 61.039 372.62 61.649 373.154 61.8968 373.668 62.1446 374.202 62.3924 375.346 62.9071 376.451 63.4218 377.595 63.9556 378.205 64.2606 378.815 64.5275 379.425 64.8134 380.493 65.309 381.541 65.8237 382.628 66.3194 383.276 66.6244 383.905 66.9294 384.572 67.2344 385.621 67.73 386.669 68.2638 387.756 68.7594 388.404 69.0644 389.052 69.3885 389.7 69.6935 390.768 70.2082 391.854 70.7419 392.903 71.2757 393.532 71.5807 394.18 71.9047 394.809 72.2097 395.972 72.8007 397.135 73.3726 398.316 73.9826 398.85 74.2685 399.384 74.5163 399.918 74.7832 401.519 75.6029 403.139 76.4226 404.76 77.2614 404.855 77.3186 404.95 77.3567 405.046 77.4139 406.78 78.3098 408.496 79.2058 410.231 80.1399 410.726 80.4067 411.203 80.6736 411.699 80.9214 412.938 81.5886 414.158 82.2368 415.416 82.923 416.045 83.2662 416.693 83.6093 417.341 83.9524 418.428 84.5624 419.533 85.1343 420.62 85.7634 421.306 86.1446 422.011 86.5259 422.717 86.9071 423.746 87.4981 424.795 88.07 425.862 88.6609 426.587 89.0612 427.273 89.4806 427.997 89.8809 429.046 90.4909 430.094 91.0819 431.143 91.6728 431.867 92.0731 432.553 92.4925 433.258 92.9119 434.326 93.5219 435.393 94.1701 436.461 94.7991 437.147 95.1804 437.814 95.5998 438.482 95.981 439.645 96.6673 440.826 97.3726 441.989 98.0779 442.58 98.4211 443.152 98.7642 443.724 99.1073 445.459 100.156 447.212 101.223 448.947 102.31 518.336 145.22 574.704 198.119 616.547 259.54 668.874 336.362 698.402 426.72 704.331 528.077 704.541 531.603 701.986 534.653 698.479 535.092L287.848 585.398 283.425 585.932C283.139 585.97 282.891 585.989 282.605 585.989 280.756 585.989 278.984 585.227 277.725 583.873 276.258 582.31 275.648 580.137 276.086 578.04 276.162 577.659 280.699 554.155 283.616 513.151 283.73 511.568 283.845 509.929 283.94 508.29 283.94 508.194 283.959 508.118 283.959 508.004 284.264 503.371 284.531 498.529 284.779 493.459 284.817 492.963 284.836 492.487 284.855 491.972 284.931 490.618 284.988 489.246 285.046 487.873 285.084 487.073 285.103 486.253 285.141 485.433 285.179 484.137 285.255 482.86 285.293 481.544 285.331 480.515 285.37 479.467 285.408 478.399 285.484 476.607 285.522 474.777 285.579 472.947 285.636 471.479 285.656 470.031 285.694 468.544 285.732 467.514 285.751 466.466 285.751 465.398 285.789 463.988 285.827 462.577 285.827 461.147 285.846 460.118 285.865 459.108 285.884 458.059 285.903 456.42 285.941 454.723 285.941 453.027 285.941 452.207 285.961 451.406 285.961 450.567 285.98 448.089 285.999 445.573 285.98 443.019L285.98 441.036C285.98 439.054 285.961 437.052 285.941 435.031 285.941 434.135 285.941 433.201 285.903 432.286 285.884 430.399 285.846 428.455 285.827 426.529 285.808 425.672 285.789 424.833 285.77 423.975 285.713 421.23 285.656 418.428 285.598 415.606 285.522 412.957 285.446 410.25 285.351 407.524 285.312 406.628 285.293 405.732 285.255 404.817 285.179 402.949 285.103 401.081 285.046 399.193 284.988 398.069 284.95 396.944 284.912 395.838 284.836 394.104 284.74 392.369 284.664 390.596 284.607 389.357 284.55 388.156 284.493 386.898 284.397 385.182 284.302 383.428 284.207 381.675 284.13 380.417 284.054 379.139 283.978 377.843 283.864 375.861 283.711 373.84 283.597 371.838 283.444 369.57 283.292 367.263 283.12 364.957 283.006 363.336 282.891 361.716 282.758 360.077 282.625 358.342 282.491 356.569 282.339 354.815 282.224 353.443 282.129 352.108 281.995 350.736 281.824 348.849 281.671 346.923 281.481 344.998 281.366 343.759 281.252 342.539 281.138 341.281 280.947 339.222 280.737 337.144 280.547 335.047 280.451 334.056 280.356 333.065 280.242 332.073 279.136 320.979 277.802 309.503 276.277 297.665 276.219 297.15 276.143 296.636 276.067 296.102 275.686 293.262 275.304 290.402 274.904 287.505 274.847 287.009 274.771 286.494 274.694 285.999 266.898 230.202 254.069 167.028 233.519 99.2789 225.608 73.1819 216.572 46.4369 206.202 19.139 205.363 16.9087 205.763 14.4114 207.25 12.5624 208.775 10.6942 211.158 9.7792 213.503 10.1605ZM222.863 25.506C281.405 184.108 296.617 324.734 298.961 415.625 301.02 495.632 293.948 550.819 290.688 571.521L690.606 522.529C675.527 302.698 547.578 178.999 442.332 113.805 348.029 55.3964 254.698 32.1779 222.882 25.506Z" fill="#E17E23" transform="matrix(1.00016 0 0 1 0 3432.42)"/><path d="M277.02 702.12C281.462 701.967 285.922 701.815 290.383 701.662 299.895 701.319 309.408 700.976 318.92 700.595 367.606 698.631 416.255 695.982 464.807 691.959 514.027 687.842 563.133 682.352 611.934 674.765 659.819 667.33 707.495 657.951 754.504 646.151 759.441 644.912 761.672 652.175 756.658 653.529 750.825 655.111 744.973 656.674 739.101 658.18 691.807 670.342 643.75 679.244 595.444 686.24 546.644 693.332 497.538 698.422 448.356 702.158 399.67 705.856 350.926 708.22 302.126 709.707 297.951 709.84 293.776 709.916 289.621 710.05 285.732 710.164 281.824 710.279 277.935 710.374 239.047 711.441 200.14 712.242 161.233 712.395 137.652 712.49 114.072 711.937 90.4719 711.384 68.0541 710.87 45.5219 710.698 23.1613 708.792 20.8547 708.601 20.7784 705.284 23.1613 705.303 28.5751 705.303 34.008 705.437 39.4218 705.589 85.8396 706.866 132.238 705.799 178.675 704.808 211.501 704.102 244.308 703.206 277.096 702.082Z" fill="#055169" transform="matrix(1.00016 0 0 1 0 3432.42)"/><text font-family="Oh OmriNivFireshtein,Oh OmriNivFireshtein_MSFontService,sans-serif" font-weight="400" font-size="165" direction="rtl" writing-mode="rl-tb" transform="matrix(0.995464 -0.0951375 0.0951375 0.995464 341.066 3939)" x="308.542" y="29.4877">קרדיטים</text></g></svg>