<svg width="133" height="133" xmlns="http://www.w3.org/2000/svg" xmlns:xlink="http://www.w3.org/1999/xlink" xml:space="preserve" overflow="hidden"><g transform="translate(-181 -295)"><path d="M232.729 344.439 237.017 387.791C237.118 388.826 238.312 389.35 239.142 388.728L248.452 381.761 258.252 398.344C258.55 398.846 259.196 399.011 259.696 398.711L267.445 394.074C267.937 393.779 268.102 393.146 267.814 392.651L258.284 376.125 269.168 371.459C269.948 371.124 270.067 370.071 269.384 369.57L234.001 343.715C233.439 343.303 232.66 343.75 232.729 344.439Z" stroke="#000000" stroke-width="2.66" stroke-miterlimit="10" fill="#FFFFFF"/><path d="M222.086 358.997C223.97 356.701 225.856 354.406 227.739 352.11" stroke="#000000" stroke-width="3.192" stroke-linecap="round" stroke-miterlimit="10" fill="#FFFFFF"/><path d="M215.612 346.923C218.567 346.633 221.522 346.341 224.478 346.051" stroke="#000000" stroke-width="3.192" stroke-linecap="round" stroke-miterlimit="10" fill="#FFFFFF"/><path d="M219.575 333.807C221.871 335.69 224.166 337.576 226.462 339.459" stroke="#000000" stroke-width="3.192" stroke-linecap="round" stroke-miterlimit="10" fill="#FFFFFF"/><path d="M231.652 327.335C231.942 330.29 232.234 333.245 232.524 336.201" stroke="#000000" stroke-width="3.192" stroke-linecap="round" stroke-miterlimit="10" fill="#FFFFFF"/><path d="M244.766 331.296C242.882 333.591 240.996 335.887 239.113 338.182" stroke="#000000" stroke-width="3.192" stroke-linecap="round" stroke-miterlimit="10" fill="#FFFFFF"/><path d="M251.24 343.372C248.285 343.662 245.329 343.955 242.374 344.245" stroke="#000000" stroke-width="3.192" stroke-linecap="round" stroke-miterlimit="10" fill="#FFFFFF"/></g></svg>