<svg width="1647" height="214" xmlns="http://www.w3.org/2000/svg" xmlns:xlink="http://www.w3.org/1999/xlink" xml:space="preserve" overflow="hidden"><g transform="translate(2611 -2083)"><path d="M-1557.06 2222.83C-1556.35 2222.71-1555.5 2223.06-1554.51 2223.86-1552.02 2225.62-1551.87 2227.39-1554.07 2229.15-1556.5 2230.92-1558.84 2232.97-1561.12 2235.31-1563.4 2237.64-1565.6 2240.69-1567.73 2244.44-1568.73 2244.65-1568.86 2243.47-1568.11 2240.89-1567.36 2238.31-1566.16 2235.38-1564.51 2232.11-1562.86 2228.84-1561.19 2226.29-1559.51 2224.45-1558.59 2223.49-1557.78 2222.95-1557.06 2222.83ZM-1429.55 2196.67C-1431.9 2196.83-1433.67 2197.96-1434.84 2200.06-1436.4 2202.87-1437.03 2206.45-1436.72 2210.79-1436.45 2215.05-1435.47 2219.18-1433.79 2223.16-1432.11 2227.15-1429.99 2230.13-1427.44 2232.11-1425.86 2230.59-1424.48 2228.09-1423.3 2224.59-1422.12 2221.1-1421.35 2217.34-1421 2213.31-1420.64 2209.29-1420.91 2205.72-1421.8 2202.61-1422.7 2199.5-1424.43 2197.57-1427 2196.83-1427.92 2196.67-1428.77 2196.61-1429.55 2196.67ZM-1594.18 2194.48C-1598.2 2201.75-1601.42 2208.63-1603.84 2215.13-1606.25 2221.63-1607.6 2228.22-1607.86 2234.9-1607.72 2238.66-1606.68 2240.66-1604.74 2240.89-1602.79 2241.12-1600.79 2239.96-1598.74 2237.4-1594.31 2231.63-1591.59 2225.43-1590.56 2218.81-1589.54 2212.18-1590.74 2204.08-1594.18 2194.48ZM-1429.52 2192C-1428.72 2191.95-1427.88 2192-1427 2192.13-1422.57 2193.28-1419.57 2196.36-1418.02 2201.35-1416.47 2206.34-1416.24 2211.89-1417.33 2217.99-1418.42 2224.09-1420.71 2229.38-1424.21 2233.87-1419.58 2237.58-1415.21 2239.45-1411.11 2239.47-1407.01 2239.49-1403.19 2238.31-1399.66 2235.93-1395.26 2232.78-1392.67 2228.46-1391.89 2222.98-1391.11 2217.49-1391.64 2212.11-1393.48 2206.83-1394.49 2203.75-1394.71 2202.29-1394.14 2202.43-1393.57 2202.58-1392.76 2203.36-1391.72 2204.77-1389.4 2207.89-1388.04 2211.6-1387.63 2215.91-1387.22 2220.21-1387.79 2224.46-1389.36 2228.65-1390.93 2232.83-1393.51 2236.3-1397.13 2239.07-1400.74 2241.83-1405.41 2243.23-1411.13 2243.26-1412.84 2243.34-1415.13 2242.93-1418 2242.04-1420.88 2241.14-1424.27 2239.3-1428.18 2236.52L-1437.59 2240.63C-1438.13 2240.2-1437.53 2239.37-1435.79 2238.15-1434.05 2236.93-1432.35 2235.7-1430.68 2234.46-1434.22 2230.99-1436.89 2226.35-1438.69 2220.53-1440.49 2214.71-1440.96 2209.12-1440.08 2203.74-1439.52 2199.84-1438.08 2196.8-1435.75 2194.62-1434.01 2192.99-1431.93 2192.12-1429.52 2192ZM-1367.85 2189.94C-1367.11 2189.98-1366.75 2190.37-1366.75 2191.1-1367.12 2200.32-1367.52 2209.5-1367.94 2218.65-1368.37 2227.8-1368.8 2236.69-1369.25 2245.32-1370.41 2242.83-1371.25 2238.9-1371.77 2233.53-1372.28 2228.17-1372.53 2222.42-1372.5 2216.28-1372.48 2210.14-1372.23 2204.68-1371.76 2199.88-1371.29 2195.08-1370.64 2192.01-1369.83 2190.66-1369.24 2190.13-1368.58 2189.89-1367.85 2189.94ZM-1338.76 2189.16C-1337.82 2189.11-1336.84 2189.12-1335.82 2189.19-1328.83 2189.94-1323.56 2192.87-1320.01 2197.97-1316.46 2203.06-1314.68 2208.85-1314.67 2215.34-1314.79 2220.83-1315.95 2225.76-1318.14 2230.15-1320.33 2234.53-1322.84 2237.63-1325.68 2239.44-1323.81 2235.33-1322.25 2231.72-1320.99 2228.6-1319.73 2225.49-1318.94 2222.39-1318.62 2219.31-1318.04 2212.83-1319.25 2207.17-1322.25 2202.34-1325.24 2197.51-1329.57 2194.49-1335.23 2193.3-1340.15 2192.58-1343.99 2193.47-1346.74 2195.94-1349.49 2198.42-1350.75 2201.51-1350.52 2205.2-1350.64 2205.53-1350.99 2205.06-1351.57 2203.79-1352.15 2202.52-1352.24 2200.69-1351.85 2198.3-1351.09 2195.18-1349.25 2192.82-1346.31 2191.21-1344.11 2190-1341.59 2189.32-1338.76 2189.16ZM-1550.37 2188.16C-1546.35 2188.18-1542.7 2189.56-1539.41 2192.31-1535.03 2195.97-1531.59 2200.97-1529.09 2207.31-1526.59 2213.65-1525.31 2220.25-1525.26 2227.09-1525.5 2232.7-1527.01 2236.92-1529.79 2239.77-1532.58 2242.62-1535.23 2243.98-1537.75 2243.85-1538.73 2243.86-1538.71 2243.51-1537.69 2242.82-1536.67 2242.13-1535.36 2241.05-1533.77 2239.59-1530.4 2235.88-1528.91 2230.95-1529.32 2224.8-1529.72 2218.65-1531.42 2212.67-1534.42 2206.84-1537.42 2201.02-1541.13 2196.75-1545.54 2194.02-1549.21 2192.18-1552.87 2191.86-1556.53 2193.08-1560.19 2194.3-1563.04 2197.11-1565.08 2201.51-1565.82 2203.13-1566.33 2204.94-1566.63 2206.95-1566.92 2208.97-1566.99 2211.22-1566.85 2213.72-1566.78 2215.31-1567.11 2215.76-1567.85 2215.07-1568.58 2214.37-1569.26 2212.95-1569.86 2210.8-1570.47 2208.65-1570.54 2206.19-1570.08 2203.43-1569.22 2199.38-1567.41 2196.12-1564.66 2193.64-1561.91 2191.16-1558.53 2189.48-1554.51 2188.6-1553.09 2188.3-1551.71 2188.15-1550.37 2188.16ZM-1251.75 2186.54C-1246.22 2187.04-1241.66 2189.75-1238.08 2194.66-1234.5 2199.56-1232.47 2205.39-1231.98 2212.14-1231.5 2218.89-1233.15 2225.29-1236.91 2231.34-1240.68 2237.39-1247.15 2241.8-1256.31 2244.59-1260.8 2245.8-1265.35 2245.86-1269.96 2244.77-1274.58 2243.68-1278.16 2241.54-1280.71 2238.32-1283.27 2235.11-1283.71 2230.93-1282.03 2225.77-1280.77 2222.52-1278.93 2220.11-1276.52 2218.54-1274.11 2216.98-1271.64 2216.12-1269.11 2215.97-1266.59 2215.83-1264.52 2216.25-1262.91 2217.26-1261.31 2218.32-1260.23 2220.14-1259.65 2222.7-1259.08 2225.26-1259.82 2228.3-1261.88 2231.8-1261.76 2229.06-1262.01 2226.3-1262.64 2223.51-1263.26 2220.72-1265.02 2219.32-1267.91 2219.3-1272.82 2219.82-1276.25 2221.73-1278.2 2225.03-1280.14 2228.33-1280.26 2231.7-1278.55 2235.13-1276.84 2238.57-1272.95 2240.74-1266.88 2241.65-1258.95 2242.33-1252.33 2240.6-1247.02 2236.44-1241.71 2232.27-1238.28 2226.85-1236.73 2220.15-1235.17 2213.46-1236.06 2206.66-1239.39 2199.76-1241.2 2196.41-1243.68 2193.85-1246.84 2192.07-1250 2190.29-1252.99 2189.63-1255.83 2190.1-1258.66 2190.57-1260.49 2192.52-1261.31 2195.93L-1262.19 2200.35C-1262.45 2200.58-1262.8 2199.51-1263.24 2197.16-1263.67 2194.8-1263.18 2192.43-1261.77 2190.02-1260.36 2187.62-1257.02 2186.46-1251.75 2186.54ZM-1299.03 2186.33C-1298.01 2186.37-1297.21 2186.73-1296.61 2187.4-1295.82 2188.3-1295.43 2190.22-1295.42 2193.15-1295.39 2195.29-1295.44 2197.88-1295.57 2200.91-1295.69 2203.94-1296.08 2206.9-1296.75 2209.78-1297.41 2212.66-1298.53 2214.95-1300.11 2216.66L-1300.11 2186.39C-1299.72 2186.34-1299.36 2186.32-1299.03 2186.33ZM-1567.77 2166.06C-1567.18 2165.99-1566.83 2166.08-1566.72 2166.33-1566.5 2166.81-1567.57 2167.86-1569.94 2169.49-1575.06 2172.98-1579.26 2176.28-1582.52 2179.39-1585.79 2182.5-1588.26 2185.18-1589.93 2187.42-1591.03 2188.8-1591.44 2189.83-1591.16 2190.51-1590.88 2191.19-1590.37 2192.51-1589.62 2194.48-1587.41 2200.64-1586.3 2207.17-1586.27 2214.05-1586.24 2220.93-1587.8 2227.34-1590.94 2233.29-1592.77 2236.73-1594.93 2239.76-1597.42 2242.35-1599.9 2244.95-1602.8 2246.28-1606.1 2246.35-1608.47 2246.24-1610.1 2244.29-1611.01 2240.5-1611.91 2236.7-1611.94 2232.14-1611.08 2226.82-1610.3 2222.34-1608.64 2216.85-1606.11 2210.37-1603.58 2203.89-1600.48 2197.71-1596.82 2191.83-1596.22 2190.68-1596.35 2189.13-1597.22 2187.17-1598.08 2185.2-1599.2 2183.27-1600.55 2181.36-1601.91 2179.44-1603.02 2177.99-1603.89 2176.98-1604.87 2175.63-1605.11 2174.74-1604.61 2174.3-1604.1 2173.87-1603.12 2174.07-1601.68 2174.93-1599.65 2176.4-1597.97 2178.3-1596.66 2180.64-1595.35 2182.98-1594.23 2184.85-1593.3 2186.25-1591.92 2184.59-1590.1 2182.48-1587.85 2179.9-1585.59 2177.33-1582.98 2174.81-1580 2172.35-1577.03 2169.89-1573.77 2168.01-1570.23 2166.69-1569.17 2166.33-1568.35 2166.12-1567.77 2166.06Z" stroke="#000000" stroke-width="3" stroke-linejoin="round" stroke-miterlimit="10" fill="#404040" fill-rule="evenodd"/><text fill="#000000" fill-opacity="0" font-family="Arial,Arial_MSFontService,sans-serif" font-size="80.3127" direction="rtl" writing-mode="rl-tb" x="-1231.9" y="2236.31">פירוש הע</text><path d="M-1618.99 2162.14C-1618.36 2162.1-1617.74 2162.83-1617.14 2164.34-1616.56 2165.59-1616.33 2167.25-1616.45 2169.32-1616.57 2171.39-1616.98 2173.42-1617.68 2175.41-1618.39 2177.4-1619.33 2178.9-1620.51 2179.91-1619.83 2178.1-1619.35 2175.69-1619.08 2172.67-1618.8 2169.66-1619.28 2166.29-1620.51 2162.58-1620.12 2162.32-1619.61 2162.17-1618.99 2162.14ZM-1627.18 2162.08C-1626.52 2162.02-1625.82 2162.77-1625.08 2164.34-1624.59 2165.54-1624.42 2167.18-1624.56 2169.26-1624.7 2171.33-1625.13 2173.37-1625.84 2175.38-1626.55 2177.39-1627.51 2178.9-1628.74 2179.91-1628.05 2178.04-1627.55 2175.61-1627.25 2172.62-1626.95 2169.63-1627.45 2166.28-1628.74 2162.58-1628.35 2162.31-1627.84 2162.15-1627.18 2162.08Z" stroke="#000000" stroke-width="3" stroke-linejoin="round" stroke-miterlimit="10" fill="#404040" fill-rule="evenodd"/><text fill="#000000" fill-opacity="0" font-family="Arial,Arial_MSFontService,sans-serif" font-size="17.8281" direction="rtl" writing-mode="rl-tb" x="-1616.42" y="2177.68">"</text><path d="M-1771.12 2223.29C-1774.57 2226.46-1776.63 2229.47-1777.3 2232.31-1777.96 2235.15-1777.67 2237.3-1776.42 2238.76-1775.17 2240.21-1773.4 2240.45-1771.12 2239.46-1770.35 2239.02-1770.13 2237.36-1770.46 2234.46-1770.79 2231.56-1771.01 2227.84-1771.12 2223.29ZM-1944.98 2222.83C-1944.27 2222.71-1943.42 2223.06-1942.43 2223.86-1939.93 2225.62-1939.79 2227.39-1941.99 2229.15-1944.41 2230.92-1946.76 2232.97-1949.04 2235.31-1951.31 2237.64-1953.52 2240.69-1955.64 2244.44-1956.65 2244.65-1956.78 2243.47-1956.03 2240.89-1955.28 2238.31-1954.07 2235.38-1952.43 2232.11-1950.78 2228.84-1949.11 2226.29-1947.42 2224.45-1946.51 2223.49-1945.69 2222.95-1944.98 2222.83ZM-2075.98 2222.83C-2075.27 2222.71-2074.42 2223.06-2073.43 2223.86-2070.93 2225.62-2070.79 2227.39-2072.99 2229.15-2075.41 2230.92-2077.76 2232.97-2080.04 2235.31-2082.31 2237.64-2084.52 2240.69-2086.64 2244.44-2087.65 2244.65-2087.78 2243.47-2087.03 2240.89-2086.28 2238.31-2085.07 2235.38-2083.43 2232.11-2081.78 2228.84-2080.11 2226.29-2078.42 2224.45-2077.51 2223.49-2076.69 2222.95-2075.98 2222.83ZM-2335.98 2222.83C-2335.27 2222.71-2334.42 2223.06-2333.43 2223.86-2330.93 2225.62-2330.79 2227.39-2332.99 2229.15-2335.41 2230.92-2337.76 2232.97-2340.04 2235.31-2342.31 2237.64-2344.52 2240.69-2346.64 2244.44-2347.65 2244.65-2347.78 2243.47-2347.03 2240.89-2346.27 2238.31-2345.07 2235.38-2343.43 2232.11-2341.78 2228.84-2340.11 2226.29-2338.42 2224.45-2337.51 2223.49-2336.69 2222.95-2335.98 2222.83ZM-1652.31 2196.98C-1653.78 2197.15-1655.41 2197.78-1657.19 2198.87-1657.03 2198.87-1656.87 2198.87-1656.69 2198.89-1656.52 2198.9-1656.39 2198.95-1656.31 2199.02-1655.97 2199.37-1656.48 2199.81-1657.81 2200.32-1659.14 2200.83-1660.66 2201.35-1662.35 2201.88-1664.05 2202.41-1665.27 2202.88-1666.01 2203.28-1669.57 2205.47-1671.84 2208.34-1672.83 2211.89-1673.81 2215.44-1673.91 2219.16-1673.11 2223.05-1672.32 2226.95-1671.03 2230.5-1669.25 2233.72-1666.85 2237.55-1663.81 2239.67-1660.12 2240.08-1656.44 2240.5-1652.82 2239.62-1649.27 2237.45-1645.73 2235.28-1642.96 2232.22-1640.98 2228.28-1639.01 2224.34-1638.52 2219.93-1639.54 2215.05-1640.25 2211.8-1641.31 2208.51-1642.71 2205.17-1644.11 2201.83-1645.98 2199.4-1648.33 2197.88-1649.51 2197.11-1650.83 2196.82-1652.31 2196.98ZM-2252.53 2193.46C-2252.24 2193.46-2251.98 2193.55-2251.72 2193.72-2251.21 2194.08-2250.94 2194.33-2250.91 2194.48-2251.29 2199.82-2251.61 2204.6-2251.86 2208.83-2252.11 2213.06-2252.66 2217.33-2253.49 2221.62-2254.33 2225.92-2255.82 2230.84-2257.97 2236.37-2260.99 2243.6-2264.93 2248.84-2269.8 2252.09-2274.66 2255.34-2279.35 2256.4-2283.85 2255.27-2288.35 2254.15-2291.58 2250.64-2293.53 2244.75-2294.18 2242.71-2294.57 2240.58-2294.7 2238.38-2294.84 2236.17-2294.79 2233.78-2294.55 2231.23-2293.66 2232.93-2293.03 2234.64-2292.66 2236.35-2292.3 2238.07-2291.85 2239.74-2291.32 2241.37-2289.46 2246.35-2286.84 2249.47-2283.46 2250.74-2280.08 2252.01-2276.5 2251.49-2272.73 2249.18-2268.96 2246.87-2265.55 2242.85-2262.52 2237.11-2260.89 2233.97-2259.62 2230.89-2258.72 2227.86-2257.82 2224.83-2257.1 2221.28-2256.58 2217.2-2256.05 2213.13-2255.54 2207.95-2255.03 2201.68-2254.91 2199.87-2254.77 2198.23-2254.61 2196.77-2254.44 2195.31-2254.04 2194.3-2253.41 2193.74-2253.1 2193.56-2252.81 2193.47-2252.53 2193.46ZM-1650.13 2192.57C-1647.12 2192.43-1644.64 2193.76-1642.69 2196.55-1640.73 2199.33-1638.8 2203.49-1636.9 2209.02-1634.41 2216.57-1634.55 2223.42-1637.33 2229.57-1640.1 2235.72-1645.06 2240.43-1652.19 2243.71-1657.59 2246-1662.32 2245.72-1666.37 2242.87-1670.41 2240.03-1673.41 2235.88-1675.35 2230.44-1677.29 2225-1677.8 2219.52-1676.88 2214.02-1676.21 2209.36-1674.47 2205.73-1671.67 2203.13-1668.87 2200.54-1664.19 2199.11-1657.63 2198.87-1657.35 2196.76-1656.51 2195.19-1655.09 2194.18-1653.68 2193.16-1652.02 2192.63-1650.13 2192.57ZM-2232.77 2189.94C-2232.03 2189.98-2231.66 2190.37-2231.66 2191.1-2232.03 2200.32-2232.43 2209.5-2232.86 2218.65-2233.28 2227.8-2233.72 2236.69-2234.16 2245.32-2235.33 2242.83-2236.17 2238.9-2236.68 2233.53-2237.2 2228.17-2237.45 2222.42-2237.42 2216.28-2237.39 2210.14-2237.14 2204.68-2236.67 2199.88-2236.2 2195.08-2235.56 2192.01-2234.75 2190.66-2234.16 2190.13-2233.5 2189.89-2232.77 2189.94ZM-1816.68 2189.16C-1815.73 2189.11-1814.75 2189.12-1813.74 2189.19-1806.75 2189.94-1801.48 2192.87-1797.93 2197.97-1794.38 2203.06-1792.6 2208.85-1792.59 2215.34-1792.71 2220.83-1793.86 2225.76-1796.05 2230.15-1798.24 2234.53-1800.76 2237.63-1803.6 2239.44-1801.73 2235.33-1800.17 2231.72-1798.91 2228.6-1797.65 2225.49-1796.86 2222.39-1796.54 2219.31-1795.96 2212.83-1797.16 2207.17-1800.16 2202.34-1803.16 2197.51-1807.49 2194.49-1813.15 2193.3-1818.07 2192.58-1821.9 2193.47-1824.65 2195.94-1827.4 2198.42-1828.67 2201.51-1828.44 2205.2-1828.56 2205.53-1828.91 2205.06-1829.49 2203.79-1830.06 2202.52-1830.16 2200.69-1829.76 2198.3-1829.01 2195.18-1827.17 2192.82-1824.23 2191.21-1822.03 2190-1819.51 2189.32-1816.68 2189.16ZM-1938.29 2188.16C-1934.27 2188.18-1930.61 2189.56-1927.33 2192.31-1922.95 2195.97-1919.51 2200.97-1917 2207.31-1914.5 2213.65-1913.23 2220.25-1913.18 2227.09-1913.41 2232.7-1914.92 2236.92-1917.71 2239.77-1920.5 2242.62-1923.15 2243.98-1925.66 2243.85-1926.65 2243.86-1926.63 2243.51-1925.61 2242.82-1924.59 2242.13-1923.28 2241.05-1921.69 2239.59-1918.31 2235.88-1916.83 2230.95-1917.23 2224.8-1917.64 2218.65-1919.34 2212.67-1922.34 2206.84-1925.34 2201.02-1929.05 2196.75-1933.46 2194.02-1937.12 2192.18-1940.79 2191.86-1944.45 2193.08-1948.11 2194.3-1950.96 2197.11-1953 2201.51-1953.74 2203.13-1954.25 2204.94-1954.54 2206.95-1954.84 2208.97-1954.91 2211.22-1954.76 2213.72-1954.69 2215.31-1955.03 2215.76-1955.77 2215.07-1956.5 2214.37-1957.17 2212.95-1957.78 2210.8-1958.38 2208.65-1958.46 2206.19-1958 2203.43-1957.14 2199.38-1955.33 2196.12-1952.58 2193.64-1949.83 2191.16-1946.45 2189.48-1942.43 2188.6-1941.01 2188.3-1939.63 2188.15-1938.29 2188.16ZM-2069.29 2188.16C-2065.27 2188.18-2061.61 2189.56-2058.33 2192.31-2053.95 2195.97-2050.51 2200.97-2048 2207.31-2045.5 2213.65-2044.23 2220.25-2044.18 2227.09-2044.41 2232.7-2045.92 2236.92-2048.71 2239.77-2051.5 2242.62-2054.15 2243.98-2056.66 2243.85-2057.65 2243.86-2057.63 2243.51-2056.61 2242.82-2055.59 2242.13-2054.28 2241.05-2052.69 2239.59-2049.31 2235.88-2047.83 2230.95-2048.23 2224.8-2048.64 2218.65-2050.34 2212.67-2053.34 2206.84-2056.34 2201.02-2060.05 2196.75-2064.46 2194.02-2068.12 2192.18-2071.79 2191.86-2075.45 2193.08-2079.11 2194.3-2081.96 2197.11-2084 2201.51-2084.74 2203.13-2085.25 2204.94-2085.54 2206.95-2085.84 2208.97-2085.91 2211.22-2085.76 2213.72-2085.69 2215.31-2086.03 2215.76-2086.77 2215.07-2087.5 2214.37-2088.17 2212.95-2088.78 2210.8-2089.38 2208.65-2089.46 2206.19-2089 2203.43-2088.14 2199.38-2086.33 2196.12-2083.58 2193.64-2080.83 2191.16-2077.45 2189.48-2073.43 2188.6-2072.01 2188.3-2070.63 2188.15-2069.29 2188.16ZM-2329.29 2188.16C-2325.27 2188.18-2321.61 2189.56-2318.33 2192.31-2313.95 2195.97-2310.51 2200.97-2308 2207.31-2305.5 2213.65-2304.23 2220.25-2304.18 2227.09-2304.41 2232.7-2305.92 2236.92-2308.71 2239.77-2311.5 2242.62-2314.15 2243.98-2316.66 2243.85-2317.65 2243.86-2317.63 2243.51-2316.61 2242.82-2315.59 2242.13-2314.28 2241.05-2312.69 2239.59-2309.31 2235.88-2307.83 2230.95-2308.23 2224.8-2308.64 2218.65-2310.34 2212.67-2313.34 2206.84-2316.34 2201.02-2320.05 2196.75-2324.46 2194.02-2328.12 2192.18-2331.79 2191.86-2335.45 2193.08-2339.11 2194.3-2341.96 2197.11-2344 2201.51-2344.74 2203.13-2345.25 2204.94-2345.54 2206.95-2345.84 2208.97-2345.91 2211.22-2345.76 2213.72-2345.69 2215.31-2346.03 2215.76-2346.77 2215.07-2347.5 2214.37-2348.17 2212.95-2348.78 2210.8-2349.38 2208.65-2349.46 2206.19-2349 2203.43-2348.14 2199.38-2346.33 2196.12-2343.58 2193.64-2340.83 2191.16-2337.45 2189.48-2333.43 2188.6-2332.01 2188.3-2330.63 2188.15-2329.29 2188.16ZM-1855.51 2174.19C-1853.45 2174.5-1852.05 2177.38-1851.32 2182.84-1850.59 2188.29-1850.34 2195.66-1850.58 2204.94-1850.81 2214.22-1851.34 2224.75-1852.15 2236.52-1852.5 2240.78-1853.56 2242.93-1855.36 2242.95-1857.15 2242.98-1859.36 2240.84-1861.98 2236.52-1863.44 2234-1864.93 2231.43-1866.47 2228.81-1868 2226.2-1869.64 2223.66-1871.39 2221.21-1872.47 2219.92-1874 2220.23-1875.99 2222.14-1877.99 2224.06-1880.39 2226.58-1883.19 2229.71-1885.99 2232.83-1889.14 2235.56-1892.64 2237.88-1896.14 2240.2-1899.94 2241.12-1904.02 2240.62-1898.63 2238.41-1894.36 2235.72-1891.22 2232.56-1888.08 2229.4-1885.39 2226.31-1883.15 2223.27-1879 2218.16-1875.63 2215.66-1873.04 2215.75-1870.45 2215.85-1867.93 2217.78-1865.48 2221.55-1863.03 2225.32-1859.95 2230.16-1856.25 2236.08-1856.19 2230.19-1855.92 2223.32-1855.44 2215.45-1854.96 2207.59-1854.64 2199.92-1854.47 2192.45-1854.3 2184.98-1854.65 2178.9-1855.51 2174.19ZM-2108.51 2174.19C-2106.45 2174.5-2105.05 2177.38-2104.32 2182.84-2103.59 2188.29-2103.34 2195.66-2103.58 2204.94-2103.81 2214.22-2104.34 2224.75-2105.15 2236.52-2105.5 2240.78-2106.56 2242.93-2108.36 2242.95-2110.15 2242.98-2112.36 2240.84-2114.98 2236.52-2116.44 2234-2117.94 2231.43-2119.47 2228.81-2121 2226.2-2122.64 2223.66-2124.39 2221.21-2125.47 2219.92-2127 2220.23-2128.99 2222.14-2130.99 2224.06-2133.39 2226.58-2136.19 2229.71-2138.99 2232.83-2142.14 2235.56-2145.64 2237.88-2149.14 2240.2-2152.94 2241.12-2157.02 2240.62-2151.63 2238.41-2147.36 2235.72-2144.22 2232.56-2141.08 2229.4-2138.39 2226.31-2136.15 2223.27-2132 2218.16-2128.63 2215.66-2126.04 2215.75-2123.45 2215.85-2120.93 2217.78-2118.48 2221.55-2116.03 2225.32-2112.95 2230.16-2109.25 2236.08-2109.19 2230.19-2108.92 2223.32-2108.44 2215.45-2107.96 2207.59-2107.64 2199.92-2107.47 2192.45-2107.3 2184.98-2107.65 2178.9-2108.51 2174.19ZM-2172.51 2174.19C-2170.45 2174.5-2169.05 2177.38-2168.32 2182.84-2167.59 2188.29-2167.34 2195.66-2167.58 2204.94-2167.81 2214.22-2168.34 2224.75-2169.15 2236.52-2169.5 2240.78-2170.56 2242.93-2172.36 2242.95-2174.15 2242.98-2176.36 2240.84-2178.98 2236.52-2180.44 2234-2181.93 2231.43-2183.47 2228.81-2185 2226.2-2186.64 2223.66-2188.39 2221.21-2189.47 2219.92-2191 2220.23-2192.99 2222.14-2194.99 2224.06-2197.39 2226.58-2200.19 2229.71-2202.99 2232.83-2206.14 2235.56-2209.64 2237.88-2213.14 2240.2-2216.94 2241.12-2221.02 2240.62-2215.63 2238.41-2211.36 2235.72-2208.22 2232.56-2205.08 2229.4-2202.39 2226.31-2200.15 2223.27-2196 2218.16-2192.63 2215.66-2190.04 2215.75-2187.45 2215.85-2184.93 2217.78-2182.48 2221.55-2180.03 2225.32-2176.95 2230.16-2173.25 2236.08-2173.19 2230.19-2172.92 2223.32-2172.44 2215.45-2171.96 2207.59-2171.64 2199.92-2171.47 2192.45-2171.3 2184.98-2171.65 2178.9-2172.51 2174.19ZM-1721.25 2130.49C-1719.82 2130.4-1718.48 2130.59-1717.21 2131.06-1713.85 2132.32-1711.88 2134.54-1711.31 2137.72-1711.01 2141.9-1711.93 2145.48-1714.05 2148.43-1716.18 2151.39-1718.2 2153.75-1720.11 2155.51-1719.89 2154.44-1719.01 2152.86-1717.46 2150.75-1715.92 2148.64-1715.04 2145.76-1714.82 2142.13-1715.06 2136.99-1717.66 2135.1-1722.63 2136.46-1727.6 2137.82-1733.48 2141.85-1740.28 2148.55-1747.08 2155.25-1753.35 2164.04-1759.08 2174.91-1762.63 2182.19-1765.01 2189.59-1766.22 2197.13-1767.44 2204.66-1767.98 2211.68-1767.86 2218.19-1767.74 2224.71-1767.46 2230.07-1767.02 2234.27-1766.58 2238.48-1766.48 2240.89-1766.73 2241.51-1768.19 2243.79-1770.1 2244.95-1772.43 2245.01-1774.77 2245.07-1777.08 2244-1779.36 2241.8-1780.84 2240.26-1781.61 2238.1-1781.67 2235.33-1781.73 2232.56-1781 2229.66-1779.48 2226.63-1777.96 2223.6-1775.57 2220.92-1772.3 2218.58-1772.41 2203.91-1770.41 2191.1-1766.32 2180.14-1762.23 2169.17-1756.88 2159.84-1750.25 2152.15-1743.63 2144.46-1736.57 2138.18-1729.08 2133.32-1726.24 2131.59-1723.63 2130.65-1721.25 2130.49Z" stroke="#000000" stroke-width="3" stroke-linejoin="round" stroke-miterlimit="10" fill="#404040" fill-rule="evenodd"/><text fill="#000000" fill-opacity="0" font-family="Arial,Arial_MSFontService,sans-serif" font-size="125.238" direction="rtl" writing-mode="rl-tb" x="-1635.13" y="2240.05">ס לרמה הממונה</text></g></svg>