<svg width="1330" height="211" xmlns="http://www.w3.org/2000/svg" xmlns:xlink="http://www.w3.org/1999/xlink" xml:space="preserve" overflow="hidden"><g transform="translate(2611 -2083)"><path d="M-2049.38 2222.83C-2048.66 2222.71-2047.81 2223.06-2046.83 2223.86-2044.33 2225.62-2044.18 2227.39-2046.39 2229.15-2048.81 2230.92-2051.16 2232.97-2053.43 2235.31-2055.71 2237.64-2057.91 2240.69-2060.04 2244.44-2061.05 2244.65-2061.17 2243.47-2060.42 2240.89-2059.67 2238.31-2058.47 2235.38-2056.82 2232.11-2055.17 2228.84-2053.5 2226.29-2051.82 2224.45-2050.9 2223.49-2050.09 2222.95-2049.38 2222.83ZM-1988.04 2190.48C-1985.33 2190.45-1982.42 2191.48-1979.31 2193.59-1975.68 2196.45-1972.7 2200.42-1970.36 2205.51-1968.02 2210.61-1966.39 2215.85-1965.46 2221.25-1964.52 2226.66-1964.35 2231.25-1964.93 2235.04-1965.13 2237.02-1965.79 2238.93-1966.92 2240.75-1968.06 2242.57-1969.79 2243.85-1972.11 2244.59-1970.12 2241.75-1969.14 2237.6-1969.16 2232.13-1969.17 2226.67-1970.01 2221.05-1971.68 2215.27-1973.34 2209.49-1975.65 2204.72-1978.61 2200.94-1981.56 2197.17-1984.98 2195.55-1988.87 2196.09-1991.48 2196.52-1993.46 2197.85-1994.8 2200.08-1996.14 2202.3-1997.04 2206.08-1997.49 2211.41-1997.95 2216.74-1998.16 2224.27-1998.13 2234.01-1998.01 2236.48-1998.5 2239.03-1999.6 2241.67-2000.7 2244.3-2003.1 2246.75-2006.8 2249-2004.36 2246.15-2003.01 2242.01-2002.76 2236.59-2002.52 2231.16-2002.47 2225.36-2002.61 2219.18-2002.76 2213-2002.19 2207.36-2000.92 2202.26-1999.41 2197.34-1996.67 2193.82-1992.71 2191.7-1991.23 2190.91-1989.67 2190.5-1988.04 2190.48ZM-1910.82 2189.88C-1908.2 2190.13-1905.71 2191.46-1903.35 2193.87-1899.01 2198.76-1896.94 2203.76-1897.11 2208.89-1897.29 2214.01-1899.76 2218.61-1904.52 2222.69-1905.57 2222.53-1905.58 2221.64-1904.56 2220.04-1903.54 2218.45-1902.75 2217.12-1902.17 2216.07-1900.62 2211.76-1900.52 2207.65-1901.88 2203.75-1903.23 2199.85-1905.39 2197.06-1908.37 2195.38-1911.34 2193.7-1914.47 2194.03-1917.77 2196.37-1919.45 2197.46-1920.93 2198.85-1922.21 2200.56-1923.49 2202.27-1923.72 2205.29-1922.91 2209.6-1921.16 2218.66-1921.33 2226.64-1923.42 2233.55-1925.51 2240.46-1928.56 2246.08-1932.58 2250.4-1936.6 2254.73-1940.62 2257.55-1944.65 2258.85-1946.78 2259.62-1949.59 2260.21-1953.09 2260.63-1956.59 2261.05-1959.95 2260.65-1963.17 2259.44-1965.29 2258.39-1966.27 2257.6-1966.11 2257.06-1965.96 2256.52-1964.73 2256.39-1962.44 2256.66-1954.78 2257.64-1948.23 2256.58-1942.81 2253.46-1937.39 2250.34-1933.21 2246-1930.27 2240.44-1927.34 2234.87-1925.76 2228.91-1925.54 2222.54-1925.54 2219.31-1925.84 2216.3-1926.44 2213.52-1927.05 2210.74-1927.53 2208.21-1927.89 2205.93-1928.08 2204.47-1928.01 2203.05-1927.68 2201.68-1927.35 2200.31-1926.54 2198.93-1925.26 2197.55-1921.01 2193.14-1917.09 2190.62-1913.48 2189.99-1912.58 2189.83-1911.69 2189.79-1910.82 2189.88ZM-2042.68 2188.16C-2038.66 2188.18-2035.01 2189.56-2031.72 2192.31-2027.34 2195.97-2023.9 2200.97-2021.4 2207.31-2018.9 2213.65-2017.62 2220.25-2017.58 2227.09-2017.81 2232.7-2019.32 2236.92-2022.11 2239.77-2024.89 2242.62-2027.54 2243.98-2030.06 2243.85-2031.04 2243.86-2031.02 2243.51-2030 2242.82-2028.98 2242.13-2027.68 2241.05-2026.09 2239.59-2022.71 2235.88-2021.23 2230.95-2021.63 2224.8-2022.03 2218.65-2023.73 2212.67-2026.73 2206.84-2029.73 2201.02-2033.44 2196.75-2037.86 2194.02-2041.52 2192.18-2045.18 2191.86-2048.84 2193.08-2052.5 2194.3-2055.35 2197.11-2057.4 2201.51-2058.13 2203.13-2058.65 2204.94-2058.94 2206.95-2059.23 2208.97-2059.31 2211.22-2059.16 2213.72-2059.09 2215.31-2059.42 2215.76-2060.16 2215.07-2060.9 2214.37-2061.57 2212.95-2062.17 2210.8-2062.78 2208.65-2062.85 2206.19-2062.39 2203.43-2061.53 2199.38-2059.73 2196.12-2056.98 2193.64-2054.23 2191.16-2050.84 2189.48-2046.83 2188.6-2045.4 2188.3-2044.02 2188.15-2042.68 2188.16ZM-1856.06 2186.54C-1850.53 2187.04-1845.97 2189.75-1842.39 2194.66-1838.81 2199.56-1836.78 2205.39-1836.3 2212.14-1835.82 2218.89-1837.46 2225.29-1841.23 2231.34-1844.99 2237.39-1851.46 2241.8-1860.62 2244.59-1865.12 2245.8-1869.67 2245.86-1874.28 2244.77-1878.89 2243.68-1882.47 2241.54-1885.03 2238.32-1887.58 2235.11-1888.02 2230.93-1886.34 2225.77-1885.08 2222.52-1883.25 2220.11-1880.83 2218.54-1878.42 2216.98-1875.95 2216.12-1873.43 2215.97-1870.9 2215.83-1868.83 2216.25-1867.22 2217.26-1865.63 2218.32-1864.54 2220.14-1863.97 2222.7-1863.39 2225.26-1864.13 2228.3-1866.19 2231.8-1866.07 2229.06-1866.32 2226.3-1866.95 2223.51-1867.58 2220.72-1869.34 2219.32-1872.23 2219.3-1877.14 2219.82-1880.56 2221.73-1882.51 2225.03-1884.46 2228.33-1884.57 2231.7-1882.86 2235.13-1881.15 2238.57-1877.26 2240.74-1871.2 2241.65-1863.26 2242.33-1856.64 2240.6-1851.33 2236.44-1846.03 2232.27-1842.59 2226.85-1841.04 2220.15-1839.49 2213.46-1840.38 2206.66-1843.71 2199.76-1845.51 2196.41-1848 2193.85-1851.15 2192.07-1854.31 2190.29-1857.31 2189.63-1860.14 2190.1-1862.97 2190.57-1864.8 2192.52-1865.62 2195.93L-1866.5 2200.35C-1866.77 2200.58-1867.12 2199.51-1867.55 2197.16-1867.98 2194.8-1867.49 2192.43-1866.08 2190.02-1864.67 2187.62-1861.33 2186.46-1856.06 2186.54ZM-1950.34 2186.33C-1949.32 2186.37-1948.52 2186.73-1947.93 2187.4-1947.14 2188.3-1946.74 2190.22-1946.74 2193.15-1946.71 2195.29-1946.75 2197.88-1946.88 2200.91-1947 2203.94-1947.4 2206.9-1948.06 2209.78-1948.72 2212.66-1949.84 2214.95-1951.42 2216.66L-1951.42 2186.39C-1951.04 2186.34-1950.68 2186.32-1950.34 2186.33Z" stroke="#000000" stroke-width="3" stroke-linejoin="round" stroke-miterlimit="10" fill="#404040" fill-rule="evenodd"/><text fill="#000000" fill-opacity="0" font-family="Arial,Arial_MSFontService,sans-serif" font-size="74.4661" direction="rtl" writing-mode="rl-tb" x="-1836.22" y="2251.48">פתיחה</text></g></svg>